G04 #@! TF.GenerationSoftware,KiCad,Pcbnew,8.0.6*
G04 #@! TF.CreationDate,2026-01-19T16:17:50-08:00*
G04 #@! TF.ProjectId,Bluetooth_Board,426c7565-746f-46f7-9468-5f426f617264,B*
G04 #@! TF.SameCoordinates,Original*
G04 #@! TF.FileFunction,Legend,Top*
G04 #@! TF.FilePolarity,Positive*
%FSLAX46Y46*%
G04 Gerber Fmt 4.6, Leading zero omitted, Abs format (unit mm)*
G04 Created by KiCad (PCBNEW 8.0.6) date 2026-01-19 16:17:50*
%MOMM*%
%LPD*%
G01*
G04 APERTURE LIST*
G04 Aperture macros list*
%AMRoundRect*
0 Rectangle with rounded corners*
0 $1 Rounding radius*
0 $2 $3 $4 $5 $6 $7 $8 $9 X,Y pos of 4 corners*
0 Add a 4 corners polygon primitive as box body*
4,1,4,$2,$3,$4,$5,$6,$7,$8,$9,$2,$3,0*
0 Add four circle primitives for the rounded corners*
1,1,$1+$1,$2,$3*
1,1,$1+$1,$4,$5*
1,1,$1+$1,$6,$7*
1,1,$1+$1,$8,$9*
0 Add four rect primitives between the rounded corners*
20,1,$1+$1,$2,$3,$4,$5,0*
20,1,$1+$1,$4,$5,$6,$7,0*
20,1,$1+$1,$6,$7,$8,$9,0*
20,1,$1+$1,$8,$9,$2,$3,0*%
G04 Aperture macros list end*
%ADD10C,0.100000*%
%ADD11C,0.153000*%
%ADD12C,0.150000*%
%ADD13C,0.120000*%
%ADD14C,0.200000*%
%ADD15C,0.000000*%
%ADD16C,0.250000*%
%ADD17C,0.152400*%
%ADD18RoundRect,0.250000X-0.475000X0.250000X-0.475000X-0.250000X0.475000X-0.250000X0.475000X0.250000X0*%
%ADD19R,1.100000X0.650000*%
%ADD20R,1.700000X1.700000*%
%ADD21O,1.700000X1.700000*%
%ADD22C,6.400000*%
%ADD23RoundRect,0.155000X-0.155000X0.212500X-0.155000X-0.212500X0.155000X-0.212500X0.155000X0.212500X0*%
%ADD24RoundRect,0.250000X-0.262500X-0.450000X0.262500X-0.450000X0.262500X0.450000X-0.262500X0.450000X0*%
%ADD25R,0.300000X0.850000*%
%ADD26R,0.850000X0.300000*%
%ADD27R,5.700000X5.700000*%
%ADD28RoundRect,0.250000X-0.350000X0.275000X-0.350000X-0.275000X0.350000X-0.275000X0.350000X0.275000X0*%
%ADD29RoundRect,0.250000X-0.450000X0.262500X-0.450000X-0.262500X0.450000X-0.262500X0.450000X0.262500X0*%
%ADD30RoundRect,0.150000X-0.150000X0.587500X-0.150000X-0.587500X0.150000X-0.587500X0.150000X0.587500X0*%
%ADD31RoundRect,0.250000X-0.250000X-0.475000X0.250000X-0.475000X0.250000X0.475000X-0.250000X0.475000X0*%
%ADD32RoundRect,0.250000X0.262500X0.450000X-0.262500X0.450000X-0.262500X-0.450000X0.262500X-0.450000X0*%
%ADD33RoundRect,0.068750X-0.068750X-0.281250X0.068750X-0.281250X0.068750X0.281250X-0.068750X0.281250X0*%
%ADD34RoundRect,0.061250X0.163750X0.061250X-0.163750X0.061250X-0.163750X-0.061250X0.163750X-0.061250X0*%
%ADD35RoundRect,0.250000X0.250000X0.475000X-0.250000X0.475000X-0.250000X-0.475000X0.250000X-0.475000X0*%
%ADD36RoundRect,0.250000X0.450000X-0.262500X0.450000X0.262500X-0.450000X0.262500X-0.450000X-0.262500X0*%
%ADD37RoundRect,0.250000X0.475000X-0.250000X0.475000X0.250000X-0.475000X0.250000X-0.475000X-0.250000X0*%
%ADD38R,1.400000X1.200000*%
%ADD39R,0.304800X1.000000*%
%ADD40R,0.965200X1.016000*%
%ADD41RoundRect,0.100000X-0.350000X-0.100000X0.350000X-0.100000X0.350000X0.100000X-0.350000X0.100000X0*%
%ADD42R,6.000000X4.800000*%
%ADD43RoundRect,0.250000X0.325000X0.450000X-0.325000X0.450000X-0.325000X-0.450000X0.325000X-0.450000X0*%
%ADD44R,0.558800X1.320800*%
%ADD45RoundRect,0.160000X-0.222500X-0.160000X0.222500X-0.160000X0.222500X0.160000X-0.222500X0.160000X0*%
%ADD46R,1.650000X1.650000*%
%ADD47C,1.650000*%
%ADD48RoundRect,0.075000X0.325000X0.075000X-0.325000X0.075000X-0.325000X-0.075000X0.325000X-0.075000X0*%
%ADD49R,1.700000X2.050000*%
%ADD50C,0.650000*%
%ADD51R,1.450000X0.600000*%
%ADD52R,1.450000X0.300000*%
%ADD53O,2.100000X1.000000*%
%ADD54O,1.600000X1.000000*%
%ADD55RoundRect,0.102000X-2.150000X-0.725000X2.150000X-0.725000X2.150000X0.725000X-2.150000X0.725000X0*%
%ADD56RoundRect,0.102000X-2.150000X-0.685000X2.150000X-0.685000X2.150000X0.685000X-2.150000X0.685000X0*%
%ADD57R,1.300000X1.100000*%
%ADD58RoundRect,0.150000X-0.150000X0.512500X-0.150000X-0.512500X0.150000X-0.512500X0.150000X0.512500X0*%
%ADD59R,1.550000X2.150000*%
%ADD60RoundRect,0.150000X0.512500X0.150000X-0.512500X0.150000X-0.512500X-0.150000X0.512500X-0.150000X0*%
%ADD61RoundRect,0.225000X-0.225000X-0.275000X0.225000X-0.275000X0.225000X0.275000X-0.225000X0.275000X0*%
%ADD62RoundRect,0.137500X-0.712500X-0.137500X0.712500X-0.137500X0.712500X0.137500X-0.712500X0.137500X0*%
%ADD63R,1.300000X0.600000*%
G04 APERTURE END LIST*
D10*
X192200000Y-101600000D02*
X193400000Y-101600000D01*
X193400000Y-109900000D02*
X193400000Y-101600000D01*
X192200000Y-109900000D02*
X193400000Y-109900000D01*
X186300000Y-101600000D02*
X185100000Y-101600000D01*
X186300000Y-109900000D02*
X185100000Y-109900000D01*
X185100000Y-101600000D02*
X185100000Y-109900000D01*
D11*
X183407044Y-128223808D02*
X183454663Y-128080951D01*
X183454663Y-128080951D02*
X183454663Y-127842856D01*
X183454663Y-127842856D02*
X183407044Y-127747618D01*
X183407044Y-127747618D02*
X183359424Y-127699999D01*
X183359424Y-127699999D02*
X183264186Y-127652380D01*
X183264186Y-127652380D02*
X183168948Y-127652380D01*
X183168948Y-127652380D02*
X183073710Y-127699999D01*
X183073710Y-127699999D02*
X183026091Y-127747618D01*
X183026091Y-127747618D02*
X182978472Y-127842856D01*
X182978472Y-127842856D02*
X182930853Y-128033332D01*
X182930853Y-128033332D02*
X182883234Y-128128570D01*
X182883234Y-128128570D02*
X182835615Y-128176189D01*
X182835615Y-128176189D02*
X182740377Y-128223808D01*
X182740377Y-128223808D02*
X182645139Y-128223808D01*
X182645139Y-128223808D02*
X182549901Y-128176189D01*
X182549901Y-128176189D02*
X182502282Y-128128570D01*
X182502282Y-128128570D02*
X182454663Y-128033332D01*
X182454663Y-128033332D02*
X182454663Y-127795237D01*
X182454663Y-127795237D02*
X182502282Y-127652380D01*
X183454663Y-127223808D02*
X182454663Y-127223808D01*
X182454663Y-127223808D02*
X182454663Y-126842856D01*
X182454663Y-126842856D02*
X182502282Y-126747618D01*
X182502282Y-126747618D02*
X182549901Y-126699999D01*
X182549901Y-126699999D02*
X182645139Y-126652380D01*
X182645139Y-126652380D02*
X182787996Y-126652380D01*
X182787996Y-126652380D02*
X182883234Y-126699999D01*
X182883234Y-126699999D02*
X182930853Y-126747618D01*
X182930853Y-126747618D02*
X182978472Y-126842856D01*
X182978472Y-126842856D02*
X182978472Y-127223808D01*
X183454663Y-126223808D02*
X182454663Y-126223808D01*
X135854663Y-120090475D02*
X134854663Y-120090475D01*
X134854663Y-120090475D02*
X134854663Y-119709523D01*
X134854663Y-119709523D02*
X134902282Y-119614285D01*
X134902282Y-119614285D02*
X134949901Y-119566666D01*
X134949901Y-119566666D02*
X135045139Y-119519047D01*
X135045139Y-119519047D02*
X135187996Y-119519047D01*
X135187996Y-119519047D02*
X135283234Y-119566666D01*
X135283234Y-119566666D02*
X135330853Y-119614285D01*
X135330853Y-119614285D02*
X135378472Y-119709523D01*
X135378472Y-119709523D02*
X135378472Y-120090475D01*
X135330853Y-119090475D02*
X135330853Y-118757142D01*
X135854663Y-118614285D02*
X135854663Y-119090475D01*
X135854663Y-119090475D02*
X134854663Y-119090475D01*
X134854663Y-119090475D02*
X134854663Y-118614285D01*
X135187996Y-117757142D02*
X135854663Y-117757142D01*
X134807044Y-117995237D02*
X135521329Y-118233332D01*
X135521329Y-118233332D02*
X135521329Y-117614285D01*
X142454663Y-123438094D02*
X142454663Y-122819047D01*
X142454663Y-122819047D02*
X142835615Y-123152380D01*
X142835615Y-123152380D02*
X142835615Y-123009523D01*
X142835615Y-123009523D02*
X142883234Y-122914285D01*
X142883234Y-122914285D02*
X142930853Y-122866666D01*
X142930853Y-122866666D02*
X143026091Y-122819047D01*
X143026091Y-122819047D02*
X143264186Y-122819047D01*
X143264186Y-122819047D02*
X143359424Y-122866666D01*
X143359424Y-122866666D02*
X143407044Y-122914285D01*
X143407044Y-122914285D02*
X143454663Y-123009523D01*
X143454663Y-123009523D02*
X143454663Y-123295237D01*
X143454663Y-123295237D02*
X143407044Y-123390475D01*
X143407044Y-123390475D02*
X143359424Y-123438094D01*
X142454663Y-122533332D02*
X143454663Y-122199999D01*
X143454663Y-122199999D02*
X142454663Y-121866666D01*
X142454663Y-121628570D02*
X142454663Y-121009523D01*
X142454663Y-121009523D02*
X142835615Y-121342856D01*
X142835615Y-121342856D02*
X142835615Y-121199999D01*
X142835615Y-121199999D02*
X142883234Y-121104761D01*
X142883234Y-121104761D02*
X142930853Y-121057142D01*
X142930853Y-121057142D02*
X143026091Y-121009523D01*
X143026091Y-121009523D02*
X143264186Y-121009523D01*
X143264186Y-121009523D02*
X143359424Y-121057142D01*
X143359424Y-121057142D02*
X143407044Y-121104761D01*
X143407044Y-121104761D02*
X143454663Y-121199999D01*
X143454663Y-121199999D02*
X143454663Y-121485713D01*
X143454663Y-121485713D02*
X143407044Y-121580951D01*
X143407044Y-121580951D02*
X143359424Y-121628570D01*
X142642856Y-82145336D02*
X142309523Y-81145336D01*
X142309523Y-81145336D02*
X141976190Y-82145336D01*
X141642856Y-81145336D02*
X141642856Y-82145336D01*
X141166666Y-81145336D02*
X141166666Y-82145336D01*
X141166666Y-82145336D02*
X140595238Y-81145336D01*
X140595238Y-81145336D02*
X140595238Y-82145336D01*
X140119047Y-81240575D02*
X140071428Y-81192956D01*
X140071428Y-81192956D02*
X140119047Y-81145336D01*
X140119047Y-81145336D02*
X140166666Y-81192956D01*
X140166666Y-81192956D02*
X140119047Y-81240575D01*
X140119047Y-81240575D02*
X140119047Y-81145336D01*
X140119047Y-81764384D02*
X140071428Y-81716765D01*
X140071428Y-81716765D02*
X140119047Y-81669146D01*
X140119047Y-81669146D02*
X140166666Y-81716765D01*
X140166666Y-81716765D02*
X140119047Y-81764384D01*
X140119047Y-81764384D02*
X140119047Y-81669146D01*
X139214286Y-81812003D02*
X139214286Y-81145336D01*
X139452381Y-82192956D02*
X139690476Y-81478670D01*
X139690476Y-81478670D02*
X139071429Y-81478670D01*
X138690476Y-81240575D02*
X138642857Y-81192956D01*
X138642857Y-81192956D02*
X138690476Y-81145336D01*
X138690476Y-81145336D02*
X138738095Y-81192956D01*
X138738095Y-81192956D02*
X138690476Y-81240575D01*
X138690476Y-81240575D02*
X138690476Y-81145336D01*
X138023810Y-82145336D02*
X137928572Y-82145336D01*
X137928572Y-82145336D02*
X137833334Y-82097717D01*
X137833334Y-82097717D02*
X137785715Y-82050098D01*
X137785715Y-82050098D02*
X137738096Y-81954860D01*
X137738096Y-81954860D02*
X137690477Y-81764384D01*
X137690477Y-81764384D02*
X137690477Y-81526289D01*
X137690477Y-81526289D02*
X137738096Y-81335813D01*
X137738096Y-81335813D02*
X137785715Y-81240575D01*
X137785715Y-81240575D02*
X137833334Y-81192956D01*
X137833334Y-81192956D02*
X137928572Y-81145336D01*
X137928572Y-81145336D02*
X138023810Y-81145336D01*
X138023810Y-81145336D02*
X138119048Y-81192956D01*
X138119048Y-81192956D02*
X138166667Y-81240575D01*
X138166667Y-81240575D02*
X138214286Y-81335813D01*
X138214286Y-81335813D02*
X138261905Y-81526289D01*
X138261905Y-81526289D02*
X138261905Y-81764384D01*
X138261905Y-81764384D02*
X138214286Y-81954860D01*
X138214286Y-81954860D02*
X138166667Y-82050098D01*
X138166667Y-82050098D02*
X138119048Y-82097717D01*
X138119048Y-82097717D02*
X138023810Y-82145336D01*
X136642857Y-81812003D02*
X136261905Y-81812003D01*
X136500000Y-82145336D02*
X136500000Y-81288194D01*
X136500000Y-81288194D02*
X136452381Y-81192956D01*
X136452381Y-81192956D02*
X136357143Y-81145336D01*
X136357143Y-81145336D02*
X136261905Y-81145336D01*
X135785714Y-81145336D02*
X135880952Y-81192956D01*
X135880952Y-81192956D02*
X135928571Y-81240575D01*
X135928571Y-81240575D02*
X135976190Y-81335813D01*
X135976190Y-81335813D02*
X135976190Y-81621527D01*
X135976190Y-81621527D02*
X135928571Y-81716765D01*
X135928571Y-81716765D02*
X135880952Y-81764384D01*
X135880952Y-81764384D02*
X135785714Y-81812003D01*
X135785714Y-81812003D02*
X135642857Y-81812003D01*
X135642857Y-81812003D02*
X135547619Y-81764384D01*
X135547619Y-81764384D02*
X135500000Y-81716765D01*
X135500000Y-81716765D02*
X135452381Y-81621527D01*
X135452381Y-81621527D02*
X135452381Y-81335813D01*
X135452381Y-81335813D02*
X135500000Y-81240575D01*
X135500000Y-81240575D02*
X135547619Y-81192956D01*
X135547619Y-81192956D02*
X135642857Y-81145336D01*
X135642857Y-81145336D02*
X135785714Y-81145336D01*
X133833333Y-82145336D02*
X134023809Y-82145336D01*
X134023809Y-82145336D02*
X134119047Y-82097717D01*
X134119047Y-82097717D02*
X134166666Y-82050098D01*
X134166666Y-82050098D02*
X134261904Y-81907241D01*
X134261904Y-81907241D02*
X134309523Y-81716765D01*
X134309523Y-81716765D02*
X134309523Y-81335813D01*
X134309523Y-81335813D02*
X134261904Y-81240575D01*
X134261904Y-81240575D02*
X134214285Y-81192956D01*
X134214285Y-81192956D02*
X134119047Y-81145336D01*
X134119047Y-81145336D02*
X133928571Y-81145336D01*
X133928571Y-81145336D02*
X133833333Y-81192956D01*
X133833333Y-81192956D02*
X133785714Y-81240575D01*
X133785714Y-81240575D02*
X133738095Y-81335813D01*
X133738095Y-81335813D02*
X133738095Y-81573908D01*
X133738095Y-81573908D02*
X133785714Y-81669146D01*
X133785714Y-81669146D02*
X133833333Y-81716765D01*
X133833333Y-81716765D02*
X133928571Y-81764384D01*
X133928571Y-81764384D02*
X134119047Y-81764384D01*
X134119047Y-81764384D02*
X134214285Y-81716765D01*
X134214285Y-81716765D02*
X134261904Y-81669146D01*
X134261904Y-81669146D02*
X134309523Y-81573908D01*
X133309523Y-81240575D02*
X133261904Y-81192956D01*
X133261904Y-81192956D02*
X133309523Y-81145336D01*
X133309523Y-81145336D02*
X133357142Y-81192956D01*
X133357142Y-81192956D02*
X133309523Y-81240575D01*
X133309523Y-81240575D02*
X133309523Y-81145336D01*
X132357143Y-82145336D02*
X132833333Y-82145336D01*
X132833333Y-82145336D02*
X132880952Y-81669146D01*
X132880952Y-81669146D02*
X132833333Y-81716765D01*
X132833333Y-81716765D02*
X132738095Y-81764384D01*
X132738095Y-81764384D02*
X132500000Y-81764384D01*
X132500000Y-81764384D02*
X132404762Y-81716765D01*
X132404762Y-81716765D02*
X132357143Y-81669146D01*
X132357143Y-81669146D02*
X132309524Y-81573908D01*
X132309524Y-81573908D02*
X132309524Y-81335813D01*
X132309524Y-81335813D02*
X132357143Y-81240575D01*
X132357143Y-81240575D02*
X132404762Y-81192956D01*
X132404762Y-81192956D02*
X132500000Y-81145336D01*
X132500000Y-81145336D02*
X132738095Y-81145336D01*
X132738095Y-81145336D02*
X132833333Y-81192956D01*
X132833333Y-81192956D02*
X132880952Y-81240575D01*
X132023809Y-82145336D02*
X131690476Y-81145336D01*
X131690476Y-81145336D02*
X131357143Y-82145336D01*
X124942857Y-97954663D02*
X124942857Y-98764186D01*
X124942857Y-98764186D02*
X124990476Y-98859424D01*
X124990476Y-98859424D02*
X125038095Y-98907044D01*
X125038095Y-98907044D02*
X125133333Y-98954663D01*
X125133333Y-98954663D02*
X125323809Y-98954663D01*
X125323809Y-98954663D02*
X125419047Y-98907044D01*
X125419047Y-98907044D02*
X125466666Y-98859424D01*
X125466666Y-98859424D02*
X125514285Y-98764186D01*
X125514285Y-98764186D02*
X125514285Y-97954663D01*
X125942857Y-98907044D02*
X126085714Y-98954663D01*
X126085714Y-98954663D02*
X126323809Y-98954663D01*
X126323809Y-98954663D02*
X126419047Y-98907044D01*
X126419047Y-98907044D02*
X126466666Y-98859424D01*
X126466666Y-98859424D02*
X126514285Y-98764186D01*
X126514285Y-98764186D02*
X126514285Y-98668948D01*
X126514285Y-98668948D02*
X126466666Y-98573710D01*
X126466666Y-98573710D02*
X126419047Y-98526091D01*
X126419047Y-98526091D02*
X126323809Y-98478472D01*
X126323809Y-98478472D02*
X126133333Y-98430853D01*
X126133333Y-98430853D02*
X126038095Y-98383234D01*
X126038095Y-98383234D02*
X125990476Y-98335615D01*
X125990476Y-98335615D02*
X125942857Y-98240377D01*
X125942857Y-98240377D02*
X125942857Y-98145139D01*
X125942857Y-98145139D02*
X125990476Y-98049901D01*
X125990476Y-98049901D02*
X126038095Y-98002282D01*
X126038095Y-98002282D02*
X126133333Y-97954663D01*
X126133333Y-97954663D02*
X126371428Y-97954663D01*
X126371428Y-97954663D02*
X126514285Y-98002282D01*
X127276190Y-98430853D02*
X127419047Y-98478472D01*
X127419047Y-98478472D02*
X127466666Y-98526091D01*
X127466666Y-98526091D02*
X127514285Y-98621329D01*
X127514285Y-98621329D02*
X127514285Y-98764186D01*
X127514285Y-98764186D02*
X127466666Y-98859424D01*
X127466666Y-98859424D02*
X127419047Y-98907044D01*
X127419047Y-98907044D02*
X127323809Y-98954663D01*
X127323809Y-98954663D02*
X126942857Y-98954663D01*
X126942857Y-98954663D02*
X126942857Y-97954663D01*
X126942857Y-97954663D02*
X127276190Y-97954663D01*
X127276190Y-97954663D02*
X127371428Y-98002282D01*
X127371428Y-98002282D02*
X127419047Y-98049901D01*
X127419047Y-98049901D02*
X127466666Y-98145139D01*
X127466666Y-98145139D02*
X127466666Y-98240377D01*
X127466666Y-98240377D02*
X127419047Y-98335615D01*
X127419047Y-98335615D02*
X127371428Y-98383234D01*
X127371428Y-98383234D02*
X127276190Y-98430853D01*
X127276190Y-98430853D02*
X126942857Y-98430853D01*
X128990476Y-97954663D02*
X128990476Y-98668948D01*
X128990476Y-98668948D02*
X128942857Y-98811805D01*
X128942857Y-98811805D02*
X128847619Y-98907044D01*
X128847619Y-98907044D02*
X128704762Y-98954663D01*
X128704762Y-98954663D02*
X128609524Y-98954663D01*
X129419048Y-98907044D02*
X129561905Y-98954663D01*
X129561905Y-98954663D02*
X129800000Y-98954663D01*
X129800000Y-98954663D02*
X129895238Y-98907044D01*
X129895238Y-98907044D02*
X129942857Y-98859424D01*
X129942857Y-98859424D02*
X129990476Y-98764186D01*
X129990476Y-98764186D02*
X129990476Y-98668948D01*
X129990476Y-98668948D02*
X129942857Y-98573710D01*
X129942857Y-98573710D02*
X129895238Y-98526091D01*
X129895238Y-98526091D02*
X129800000Y-98478472D01*
X129800000Y-98478472D02*
X129609524Y-98430853D01*
X129609524Y-98430853D02*
X129514286Y-98383234D01*
X129514286Y-98383234D02*
X129466667Y-98335615D01*
X129466667Y-98335615D02*
X129419048Y-98240377D01*
X129419048Y-98240377D02*
X129419048Y-98145139D01*
X129419048Y-98145139D02*
X129466667Y-98049901D01*
X129466667Y-98049901D02*
X129514286Y-98002282D01*
X129514286Y-98002282D02*
X129609524Y-97954663D01*
X129609524Y-97954663D02*
X129847619Y-97954663D01*
X129847619Y-97954663D02*
X129990476Y-98002282D01*
X130276191Y-97954663D02*
X130847619Y-97954663D01*
X130561905Y-98954663D02*
X130561905Y-97954663D01*
X131704762Y-98954663D02*
X131133334Y-98954663D01*
X131419048Y-98954663D02*
X131419048Y-97954663D01*
X131419048Y-97954663D02*
X131323810Y-98097520D01*
X131323810Y-98097520D02*
X131228572Y-98192758D01*
X131228572Y-98192758D02*
X131133334Y-98240377D01*
X140854663Y-120038094D02*
X139854663Y-120038094D01*
X139854663Y-120038094D02*
X139854663Y-119657142D01*
X139854663Y-119657142D02*
X139902282Y-119561904D01*
X139902282Y-119561904D02*
X139949901Y-119514285D01*
X139949901Y-119514285D02*
X140045139Y-119466666D01*
X140045139Y-119466666D02*
X140187996Y-119466666D01*
X140187996Y-119466666D02*
X140283234Y-119514285D01*
X140283234Y-119514285D02*
X140330853Y-119561904D01*
X140330853Y-119561904D02*
X140378472Y-119657142D01*
X140378472Y-119657142D02*
X140378472Y-120038094D01*
X140330853Y-118704761D02*
X140378472Y-118561904D01*
X140378472Y-118561904D02*
X140426091Y-118514285D01*
X140426091Y-118514285D02*
X140521329Y-118466666D01*
X140521329Y-118466666D02*
X140664186Y-118466666D01*
X140664186Y-118466666D02*
X140759424Y-118514285D01*
X140759424Y-118514285D02*
X140807044Y-118561904D01*
X140807044Y-118561904D02*
X140854663Y-118657142D01*
X140854663Y-118657142D02*
X140854663Y-119038094D01*
X140854663Y-119038094D02*
X139854663Y-119038094D01*
X139854663Y-119038094D02*
X139854663Y-118704761D01*
X139854663Y-118704761D02*
X139902282Y-118609523D01*
X139902282Y-118609523D02*
X139949901Y-118561904D01*
X139949901Y-118561904D02*
X140045139Y-118514285D01*
X140045139Y-118514285D02*
X140140377Y-118514285D01*
X140140377Y-118514285D02*
X140235615Y-118561904D01*
X140235615Y-118561904D02*
X140283234Y-118609523D01*
X140283234Y-118609523D02*
X140330853Y-118704761D01*
X140330853Y-118704761D02*
X140330853Y-119038094D01*
X139854663Y-118133332D02*
X139854663Y-117466666D01*
X139854663Y-117466666D02*
X140854663Y-117895237D01*
X126054663Y-128747618D02*
X126864186Y-128747618D01*
X126864186Y-128747618D02*
X126959424Y-128699999D01*
X126959424Y-128699999D02*
X127007044Y-128652380D01*
X127007044Y-128652380D02*
X127054663Y-128557142D01*
X127054663Y-128557142D02*
X127054663Y-128366666D01*
X127054663Y-128366666D02*
X127007044Y-128271428D01*
X127007044Y-128271428D02*
X126959424Y-128223809D01*
X126959424Y-128223809D02*
X126864186Y-128176190D01*
X126864186Y-128176190D02*
X126054663Y-128176190D01*
X127007044Y-127747618D02*
X127054663Y-127604761D01*
X127054663Y-127604761D02*
X127054663Y-127366666D01*
X127054663Y-127366666D02*
X127007044Y-127271428D01*
X127007044Y-127271428D02*
X126959424Y-127223809D01*
X126959424Y-127223809D02*
X126864186Y-127176190D01*
X126864186Y-127176190D02*
X126768948Y-127176190D01*
X126768948Y-127176190D02*
X126673710Y-127223809D01*
X126673710Y-127223809D02*
X126626091Y-127271428D01*
X126626091Y-127271428D02*
X126578472Y-127366666D01*
X126578472Y-127366666D02*
X126530853Y-127557142D01*
X126530853Y-127557142D02*
X126483234Y-127652380D01*
X126483234Y-127652380D02*
X126435615Y-127699999D01*
X126435615Y-127699999D02*
X126340377Y-127747618D01*
X126340377Y-127747618D02*
X126245139Y-127747618D01*
X126245139Y-127747618D02*
X126149901Y-127699999D01*
X126149901Y-127699999D02*
X126102282Y-127652380D01*
X126102282Y-127652380D02*
X126054663Y-127557142D01*
X126054663Y-127557142D02*
X126054663Y-127319047D01*
X126054663Y-127319047D02*
X126102282Y-127176190D01*
X127054663Y-126176190D02*
X126578472Y-126509523D01*
X127054663Y-126747618D02*
X126054663Y-126747618D01*
X126054663Y-126747618D02*
X126054663Y-126366666D01*
X126054663Y-126366666D02*
X126102282Y-126271428D01*
X126102282Y-126271428D02*
X126149901Y-126223809D01*
X126149901Y-126223809D02*
X126245139Y-126176190D01*
X126245139Y-126176190D02*
X126387996Y-126176190D01*
X126387996Y-126176190D02*
X126483234Y-126223809D01*
X126483234Y-126223809D02*
X126530853Y-126271428D01*
X126530853Y-126271428D02*
X126578472Y-126366666D01*
X126578472Y-126366666D02*
X126578472Y-126747618D01*
X126530853Y-124652380D02*
X126578472Y-124509523D01*
X126578472Y-124509523D02*
X126626091Y-124461904D01*
X126626091Y-124461904D02*
X126721329Y-124414285D01*
X126721329Y-124414285D02*
X126864186Y-124414285D01*
X126864186Y-124414285D02*
X126959424Y-124461904D01*
X126959424Y-124461904D02*
X127007044Y-124509523D01*
X127007044Y-124509523D02*
X127054663Y-124604761D01*
X127054663Y-124604761D02*
X127054663Y-124985713D01*
X127054663Y-124985713D02*
X126054663Y-124985713D01*
X126054663Y-124985713D02*
X126054663Y-124652380D01*
X126054663Y-124652380D02*
X126102282Y-124557142D01*
X126102282Y-124557142D02*
X126149901Y-124509523D01*
X126149901Y-124509523D02*
X126245139Y-124461904D01*
X126245139Y-124461904D02*
X126340377Y-124461904D01*
X126340377Y-124461904D02*
X126435615Y-124509523D01*
X126435615Y-124509523D02*
X126483234Y-124557142D01*
X126483234Y-124557142D02*
X126530853Y-124652380D01*
X126530853Y-124652380D02*
X126530853Y-124985713D01*
X126054663Y-124128570D02*
X126054663Y-123557142D01*
X127054663Y-123842856D02*
X126054663Y-123842856D01*
X127054663Y-123223808D02*
X126054663Y-123223808D01*
X126054663Y-123223808D02*
X127054663Y-122652380D01*
X127054663Y-122652380D02*
X126054663Y-122652380D01*
X138254663Y-120080951D02*
X137254663Y-120080951D01*
X137254663Y-120080951D02*
X137254663Y-119699999D01*
X137254663Y-119699999D02*
X137302282Y-119604761D01*
X137302282Y-119604761D02*
X137349901Y-119557142D01*
X137349901Y-119557142D02*
X137445139Y-119509523D01*
X137445139Y-119509523D02*
X137587996Y-119509523D01*
X137587996Y-119509523D02*
X137683234Y-119557142D01*
X137683234Y-119557142D02*
X137730853Y-119604761D01*
X137730853Y-119604761D02*
X137778472Y-119699999D01*
X137778472Y-119699999D02*
X137778472Y-120080951D01*
X137968948Y-119128570D02*
X137968948Y-118652380D01*
X138254663Y-119223808D02*
X137254663Y-118890475D01*
X137254663Y-118890475D02*
X138254663Y-118557142D01*
X137683234Y-118080951D02*
X137635615Y-118176189D01*
X137635615Y-118176189D02*
X137587996Y-118223808D01*
X137587996Y-118223808D02*
X137492758Y-118271427D01*
X137492758Y-118271427D02*
X137445139Y-118271427D01*
X137445139Y-118271427D02*
X137349901Y-118223808D01*
X137349901Y-118223808D02*
X137302282Y-118176189D01*
X137302282Y-118176189D02*
X137254663Y-118080951D01*
X137254663Y-118080951D02*
X137254663Y-117890475D01*
X137254663Y-117890475D02*
X137302282Y-117795237D01*
X137302282Y-117795237D02*
X137349901Y-117747618D01*
X137349901Y-117747618D02*
X137445139Y-117699999D01*
X137445139Y-117699999D02*
X137492758Y-117699999D01*
X137492758Y-117699999D02*
X137587996Y-117747618D01*
X137587996Y-117747618D02*
X137635615Y-117795237D01*
X137635615Y-117795237D02*
X137683234Y-117890475D01*
X137683234Y-117890475D02*
X137683234Y-118080951D01*
X137683234Y-118080951D02*
X137730853Y-118176189D01*
X137730853Y-118176189D02*
X137778472Y-118223808D01*
X137778472Y-118223808D02*
X137873710Y-118271427D01*
X137873710Y-118271427D02*
X138064186Y-118271427D01*
X138064186Y-118271427D02*
X138159424Y-118223808D01*
X138159424Y-118223808D02*
X138207044Y-118176189D01*
X138207044Y-118176189D02*
X138254663Y-118080951D01*
X138254663Y-118080951D02*
X138254663Y-117890475D01*
X138254663Y-117890475D02*
X138207044Y-117795237D01*
X138207044Y-117795237D02*
X138159424Y-117747618D01*
X138159424Y-117747618D02*
X138064186Y-117699999D01*
X138064186Y-117699999D02*
X137873710Y-117699999D01*
X137873710Y-117699999D02*
X137778472Y-117747618D01*
X137778472Y-117747618D02*
X137730853Y-117795237D01*
X137730853Y-117795237D02*
X137683234Y-117890475D01*
X137873710Y-117271427D02*
X137873710Y-116509523D01*
X138254663Y-116033332D02*
X137254663Y-116033332D01*
X137254663Y-116033332D02*
X137968948Y-115699999D01*
X137968948Y-115699999D02*
X137254663Y-115366666D01*
X137254663Y-115366666D02*
X138254663Y-115366666D01*
X138159424Y-114319047D02*
X138207044Y-114366666D01*
X138207044Y-114366666D02*
X138254663Y-114509523D01*
X138254663Y-114509523D02*
X138254663Y-114604761D01*
X138254663Y-114604761D02*
X138207044Y-114747618D01*
X138207044Y-114747618D02*
X138111805Y-114842856D01*
X138111805Y-114842856D02*
X138016567Y-114890475D01*
X138016567Y-114890475D02*
X137826091Y-114938094D01*
X137826091Y-114938094D02*
X137683234Y-114938094D01*
X137683234Y-114938094D02*
X137492758Y-114890475D01*
X137492758Y-114890475D02*
X137397520Y-114842856D01*
X137397520Y-114842856D02*
X137302282Y-114747618D01*
X137302282Y-114747618D02*
X137254663Y-114604761D01*
X137254663Y-114604761D02*
X137254663Y-114509523D01*
X137254663Y-114509523D02*
X137302282Y-114366666D01*
X137302282Y-114366666D02*
X137349901Y-114319047D01*
X137254663Y-113699999D02*
X137254663Y-113509523D01*
X137254663Y-113509523D02*
X137302282Y-113414285D01*
X137302282Y-113414285D02*
X137397520Y-113319047D01*
X137397520Y-113319047D02*
X137587996Y-113271428D01*
X137587996Y-113271428D02*
X137921329Y-113271428D01*
X137921329Y-113271428D02*
X138111805Y-113319047D01*
X138111805Y-113319047D02*
X138207044Y-113414285D01*
X138207044Y-113414285D02*
X138254663Y-113509523D01*
X138254663Y-113509523D02*
X138254663Y-113699999D01*
X138254663Y-113699999D02*
X138207044Y-113795237D01*
X138207044Y-113795237D02*
X138111805Y-113890475D01*
X138111805Y-113890475D02*
X137921329Y-113938094D01*
X137921329Y-113938094D02*
X137587996Y-113938094D01*
X137587996Y-113938094D02*
X137397520Y-113890475D01*
X137397520Y-113890475D02*
X137302282Y-113795237D01*
X137302282Y-113795237D02*
X137254663Y-113699999D01*
X158807044Y-122990475D02*
X158854663Y-122847618D01*
X158854663Y-122847618D02*
X158854663Y-122609523D01*
X158854663Y-122609523D02*
X158807044Y-122514285D01*
X158807044Y-122514285D02*
X158759424Y-122466666D01*
X158759424Y-122466666D02*
X158664186Y-122419047D01*
X158664186Y-122419047D02*
X158568948Y-122419047D01*
X158568948Y-122419047D02*
X158473710Y-122466666D01*
X158473710Y-122466666D02*
X158426091Y-122514285D01*
X158426091Y-122514285D02*
X158378472Y-122609523D01*
X158378472Y-122609523D02*
X158330853Y-122799999D01*
X158330853Y-122799999D02*
X158283234Y-122895237D01*
X158283234Y-122895237D02*
X158235615Y-122942856D01*
X158235615Y-122942856D02*
X158140377Y-122990475D01*
X158140377Y-122990475D02*
X158045139Y-122990475D01*
X158045139Y-122990475D02*
X157949901Y-122942856D01*
X157949901Y-122942856D02*
X157902282Y-122895237D01*
X157902282Y-122895237D02*
X157854663Y-122799999D01*
X157854663Y-122799999D02*
X157854663Y-122561904D01*
X157854663Y-122561904D02*
X157902282Y-122419047D01*
X158759424Y-121419047D02*
X158807044Y-121466666D01*
X158807044Y-121466666D02*
X158854663Y-121609523D01*
X158854663Y-121609523D02*
X158854663Y-121704761D01*
X158854663Y-121704761D02*
X158807044Y-121847618D01*
X158807044Y-121847618D02*
X158711805Y-121942856D01*
X158711805Y-121942856D02*
X158616567Y-121990475D01*
X158616567Y-121990475D02*
X158426091Y-122038094D01*
X158426091Y-122038094D02*
X158283234Y-122038094D01*
X158283234Y-122038094D02*
X158092758Y-121990475D01*
X158092758Y-121990475D02*
X157997520Y-121942856D01*
X157997520Y-121942856D02*
X157902282Y-121847618D01*
X157902282Y-121847618D02*
X157854663Y-121704761D01*
X157854663Y-121704761D02*
X157854663Y-121609523D01*
X157854663Y-121609523D02*
X157902282Y-121466666D01*
X157902282Y-121466666D02*
X157949901Y-121419047D01*
X158854663Y-120514285D02*
X158854663Y-120990475D01*
X158854663Y-120990475D02*
X157854663Y-120990475D01*
X133009524Y-101854663D02*
X133009524Y-100854663D01*
X133009524Y-100854663D02*
X133390476Y-100854663D01*
X133390476Y-100854663D02*
X133485714Y-100902282D01*
X133485714Y-100902282D02*
X133533333Y-100949901D01*
X133533333Y-100949901D02*
X133580952Y-101045139D01*
X133580952Y-101045139D02*
X133580952Y-101187996D01*
X133580952Y-101187996D02*
X133533333Y-101283234D01*
X133533333Y-101283234D02*
X133485714Y-101330853D01*
X133485714Y-101330853D02*
X133390476Y-101378472D01*
X133390476Y-101378472D02*
X133009524Y-101378472D01*
X133914286Y-100854663D02*
X134152381Y-101854663D01*
X134152381Y-101854663D02*
X134342857Y-101140377D01*
X134342857Y-101140377D02*
X134533333Y-101854663D01*
X134533333Y-101854663D02*
X134771429Y-100854663D01*
X135723809Y-101854663D02*
X135390476Y-101378472D01*
X135152381Y-101854663D02*
X135152381Y-100854663D01*
X135152381Y-100854663D02*
X135533333Y-100854663D01*
X135533333Y-100854663D02*
X135628571Y-100902282D01*
X135628571Y-100902282D02*
X135676190Y-100949901D01*
X135676190Y-100949901D02*
X135723809Y-101045139D01*
X135723809Y-101045139D02*
X135723809Y-101187996D01*
X135723809Y-101187996D02*
X135676190Y-101283234D01*
X135676190Y-101283234D02*
X135628571Y-101330853D01*
X135628571Y-101330853D02*
X135533333Y-101378472D01*
X135533333Y-101378472D02*
X135152381Y-101378472D01*
X136866667Y-101807044D02*
X137009524Y-101854663D01*
X137009524Y-101854663D02*
X137247619Y-101854663D01*
X137247619Y-101854663D02*
X137342857Y-101807044D01*
X137342857Y-101807044D02*
X137390476Y-101759424D01*
X137390476Y-101759424D02*
X137438095Y-101664186D01*
X137438095Y-101664186D02*
X137438095Y-101568948D01*
X137438095Y-101568948D02*
X137390476Y-101473710D01*
X137390476Y-101473710D02*
X137342857Y-101426091D01*
X137342857Y-101426091D02*
X137247619Y-101378472D01*
X137247619Y-101378472D02*
X137057143Y-101330853D01*
X137057143Y-101330853D02*
X136961905Y-101283234D01*
X136961905Y-101283234D02*
X136914286Y-101235615D01*
X136914286Y-101235615D02*
X136866667Y-101140377D01*
X136866667Y-101140377D02*
X136866667Y-101045139D01*
X136866667Y-101045139D02*
X136914286Y-100949901D01*
X136914286Y-100949901D02*
X136961905Y-100902282D01*
X136961905Y-100902282D02*
X137057143Y-100854663D01*
X137057143Y-100854663D02*
X137295238Y-100854663D01*
X137295238Y-100854663D02*
X137438095Y-100902282D01*
X138438095Y-101854663D02*
X138104762Y-101378472D01*
X137866667Y-101854663D02*
X137866667Y-100854663D01*
X137866667Y-100854663D02*
X138247619Y-100854663D01*
X138247619Y-100854663D02*
X138342857Y-100902282D01*
X138342857Y-100902282D02*
X138390476Y-100949901D01*
X138390476Y-100949901D02*
X138438095Y-101045139D01*
X138438095Y-101045139D02*
X138438095Y-101187996D01*
X138438095Y-101187996D02*
X138390476Y-101283234D01*
X138390476Y-101283234D02*
X138342857Y-101330853D01*
X138342857Y-101330853D02*
X138247619Y-101378472D01*
X138247619Y-101378472D02*
X137866667Y-101378472D01*
X139438095Y-101759424D02*
X139390476Y-101807044D01*
X139390476Y-101807044D02*
X139247619Y-101854663D01*
X139247619Y-101854663D02*
X139152381Y-101854663D01*
X139152381Y-101854663D02*
X139009524Y-101807044D01*
X139009524Y-101807044D02*
X138914286Y-101711805D01*
X138914286Y-101711805D02*
X138866667Y-101616567D01*
X138866667Y-101616567D02*
X138819048Y-101426091D01*
X138819048Y-101426091D02*
X138819048Y-101283234D01*
X138819048Y-101283234D02*
X138866667Y-101092758D01*
X138866667Y-101092758D02*
X138914286Y-100997520D01*
X138914286Y-100997520D02*
X139009524Y-100902282D01*
X139009524Y-100902282D02*
X139152381Y-100854663D01*
X139152381Y-100854663D02*
X139247619Y-100854663D01*
X139247619Y-100854663D02*
X139390476Y-100902282D01*
X139390476Y-100902282D02*
X139438095Y-100949901D01*
X168554663Y-128526189D02*
X167554663Y-128526189D01*
X167649901Y-128097618D02*
X167602282Y-128049999D01*
X167602282Y-128049999D02*
X167554663Y-127954761D01*
X167554663Y-127954761D02*
X167554663Y-127716666D01*
X167554663Y-127716666D02*
X167602282Y-127621428D01*
X167602282Y-127621428D02*
X167649901Y-127573809D01*
X167649901Y-127573809D02*
X167745139Y-127526190D01*
X167745139Y-127526190D02*
X167840377Y-127526190D01*
X167840377Y-127526190D02*
X167983234Y-127573809D01*
X167983234Y-127573809D02*
X168554663Y-128145237D01*
X168554663Y-128145237D02*
X168554663Y-127526190D01*
X168459424Y-126526190D02*
X168507044Y-126573809D01*
X168507044Y-126573809D02*
X168554663Y-126716666D01*
X168554663Y-126716666D02*
X168554663Y-126811904D01*
X168554663Y-126811904D02*
X168507044Y-126954761D01*
X168507044Y-126954761D02*
X168411805Y-127049999D01*
X168411805Y-127049999D02*
X168316567Y-127097618D01*
X168316567Y-127097618D02*
X168126091Y-127145237D01*
X168126091Y-127145237D02*
X167983234Y-127145237D01*
X167983234Y-127145237D02*
X167792758Y-127097618D01*
X167792758Y-127097618D02*
X167697520Y-127049999D01*
X167697520Y-127049999D02*
X167602282Y-126954761D01*
X167602282Y-126954761D02*
X167554663Y-126811904D01*
X167554663Y-126811904D02*
X167554663Y-126716666D01*
X167554663Y-126716666D02*
X167602282Y-126573809D01*
X167602282Y-126573809D02*
X167649901Y-126526190D01*
X155042856Y-110554663D02*
X154709523Y-110078472D01*
X154471428Y-110554663D02*
X154471428Y-109554663D01*
X154471428Y-109554663D02*
X154852380Y-109554663D01*
X154852380Y-109554663D02*
X154947618Y-109602282D01*
X154947618Y-109602282D02*
X154995237Y-109649901D01*
X154995237Y-109649901D02*
X155042856Y-109745139D01*
X155042856Y-109745139D02*
X155042856Y-109887996D01*
X155042856Y-109887996D02*
X154995237Y-109983234D01*
X154995237Y-109983234D02*
X154947618Y-110030853D01*
X154947618Y-110030853D02*
X154852380Y-110078472D01*
X154852380Y-110078472D02*
X154471428Y-110078472D01*
X155661904Y-109554663D02*
X155852380Y-109554663D01*
X155852380Y-109554663D02*
X155947618Y-109602282D01*
X155947618Y-109602282D02*
X156042856Y-109697520D01*
X156042856Y-109697520D02*
X156090475Y-109887996D01*
X156090475Y-109887996D02*
X156090475Y-110221329D01*
X156090475Y-110221329D02*
X156042856Y-110411805D01*
X156042856Y-110411805D02*
X155947618Y-110507044D01*
X155947618Y-110507044D02*
X155852380Y-110554663D01*
X155852380Y-110554663D02*
X155661904Y-110554663D01*
X155661904Y-110554663D02*
X155566666Y-110507044D01*
X155566666Y-110507044D02*
X155471428Y-110411805D01*
X155471428Y-110411805D02*
X155423809Y-110221329D01*
X155423809Y-110221329D02*
X155423809Y-109887996D01*
X155423809Y-109887996D02*
X155471428Y-109697520D01*
X155471428Y-109697520D02*
X155566666Y-109602282D01*
X155566666Y-109602282D02*
X155661904Y-109554663D01*
X156519047Y-110554663D02*
X156519047Y-109554663D01*
X156519047Y-109554663D02*
X156852380Y-110268948D01*
X156852380Y-110268948D02*
X157185713Y-109554663D01*
X157185713Y-109554663D02*
X157185713Y-110554663D01*
X159519047Y-110030853D02*
X159185714Y-110030853D01*
X159185714Y-110554663D02*
X159185714Y-109554663D01*
X159185714Y-109554663D02*
X159661904Y-109554663D01*
X160519047Y-110554663D02*
X160042857Y-110554663D01*
X160042857Y-110554663D02*
X160042857Y-109554663D01*
X160804762Y-110507044D02*
X160947619Y-110554663D01*
X160947619Y-110554663D02*
X161185714Y-110554663D01*
X161185714Y-110554663D02*
X161280952Y-110507044D01*
X161280952Y-110507044D02*
X161328571Y-110459424D01*
X161328571Y-110459424D02*
X161376190Y-110364186D01*
X161376190Y-110364186D02*
X161376190Y-110268948D01*
X161376190Y-110268948D02*
X161328571Y-110173710D01*
X161328571Y-110173710D02*
X161280952Y-110126091D01*
X161280952Y-110126091D02*
X161185714Y-110078472D01*
X161185714Y-110078472D02*
X160995238Y-110030853D01*
X160995238Y-110030853D02*
X160900000Y-109983234D01*
X160900000Y-109983234D02*
X160852381Y-109935615D01*
X160852381Y-109935615D02*
X160804762Y-109840377D01*
X160804762Y-109840377D02*
X160804762Y-109745139D01*
X160804762Y-109745139D02*
X160852381Y-109649901D01*
X160852381Y-109649901D02*
X160900000Y-109602282D01*
X160900000Y-109602282D02*
X160995238Y-109554663D01*
X160995238Y-109554663D02*
X161233333Y-109554663D01*
X161233333Y-109554663D02*
X161376190Y-109602282D01*
X130754663Y-120138094D02*
X129754663Y-120138094D01*
X129754663Y-120138094D02*
X129754663Y-119757142D01*
X129754663Y-119757142D02*
X129802282Y-119661904D01*
X129802282Y-119661904D02*
X129849901Y-119614285D01*
X129849901Y-119614285D02*
X129945139Y-119566666D01*
X129945139Y-119566666D02*
X130087996Y-119566666D01*
X130087996Y-119566666D02*
X130183234Y-119614285D01*
X130183234Y-119614285D02*
X130230853Y-119661904D01*
X130230853Y-119661904D02*
X130278472Y-119757142D01*
X130278472Y-119757142D02*
X130278472Y-120138094D01*
X130230853Y-118804761D02*
X130278472Y-118661904D01*
X130278472Y-118661904D02*
X130326091Y-118614285D01*
X130326091Y-118614285D02*
X130421329Y-118566666D01*
X130421329Y-118566666D02*
X130564186Y-118566666D01*
X130564186Y-118566666D02*
X130659424Y-118614285D01*
X130659424Y-118614285D02*
X130707044Y-118661904D01*
X130707044Y-118661904D02*
X130754663Y-118757142D01*
X130754663Y-118757142D02*
X130754663Y-119138094D01*
X130754663Y-119138094D02*
X129754663Y-119138094D01*
X129754663Y-119138094D02*
X129754663Y-118804761D01*
X129754663Y-118804761D02*
X129802282Y-118709523D01*
X129802282Y-118709523D02*
X129849901Y-118661904D01*
X129849901Y-118661904D02*
X129945139Y-118614285D01*
X129945139Y-118614285D02*
X130040377Y-118614285D01*
X130040377Y-118614285D02*
X130135615Y-118661904D01*
X130135615Y-118661904D02*
X130183234Y-118709523D01*
X130183234Y-118709523D02*
X130230853Y-118804761D01*
X130230853Y-118804761D02*
X130230853Y-119138094D01*
X129754663Y-117947618D02*
X129754663Y-117852380D01*
X129754663Y-117852380D02*
X129802282Y-117757142D01*
X129802282Y-117757142D02*
X129849901Y-117709523D01*
X129849901Y-117709523D02*
X129945139Y-117661904D01*
X129945139Y-117661904D02*
X130135615Y-117614285D01*
X130135615Y-117614285D02*
X130373710Y-117614285D01*
X130373710Y-117614285D02*
X130564186Y-117661904D01*
X130564186Y-117661904D02*
X130659424Y-117709523D01*
X130659424Y-117709523D02*
X130707044Y-117757142D01*
X130707044Y-117757142D02*
X130754663Y-117852380D01*
X130754663Y-117852380D02*
X130754663Y-117947618D01*
X130754663Y-117947618D02*
X130707044Y-118042856D01*
X130707044Y-118042856D02*
X130659424Y-118090475D01*
X130659424Y-118090475D02*
X130564186Y-118138094D01*
X130564186Y-118138094D02*
X130373710Y-118185713D01*
X130373710Y-118185713D02*
X130135615Y-118185713D01*
X130135615Y-118185713D02*
X129945139Y-118138094D01*
X129945139Y-118138094D02*
X129849901Y-118090475D01*
X129849901Y-118090475D02*
X129802282Y-118042856D01*
X129802282Y-118042856D02*
X129754663Y-117947618D01*
X111119048Y-108754663D02*
X111119048Y-109564186D01*
X111119048Y-109564186D02*
X111166667Y-109659424D01*
X111166667Y-109659424D02*
X111214286Y-109707044D01*
X111214286Y-109707044D02*
X111309524Y-109754663D01*
X111309524Y-109754663D02*
X111500000Y-109754663D01*
X111500000Y-109754663D02*
X111595238Y-109707044D01*
X111595238Y-109707044D02*
X111642857Y-109659424D01*
X111642857Y-109659424D02*
X111690476Y-109564186D01*
X111690476Y-109564186D02*
X111690476Y-108754663D01*
X112119048Y-109707044D02*
X112261905Y-109754663D01*
X112261905Y-109754663D02*
X112500000Y-109754663D01*
X112500000Y-109754663D02*
X112595238Y-109707044D01*
X112595238Y-109707044D02*
X112642857Y-109659424D01*
X112642857Y-109659424D02*
X112690476Y-109564186D01*
X112690476Y-109564186D02*
X112690476Y-109468948D01*
X112690476Y-109468948D02*
X112642857Y-109373710D01*
X112642857Y-109373710D02*
X112595238Y-109326091D01*
X112595238Y-109326091D02*
X112500000Y-109278472D01*
X112500000Y-109278472D02*
X112309524Y-109230853D01*
X112309524Y-109230853D02*
X112214286Y-109183234D01*
X112214286Y-109183234D02*
X112166667Y-109135615D01*
X112166667Y-109135615D02*
X112119048Y-109040377D01*
X112119048Y-109040377D02*
X112119048Y-108945139D01*
X112119048Y-108945139D02*
X112166667Y-108849901D01*
X112166667Y-108849901D02*
X112214286Y-108802282D01*
X112214286Y-108802282D02*
X112309524Y-108754663D01*
X112309524Y-108754663D02*
X112547619Y-108754663D01*
X112547619Y-108754663D02*
X112690476Y-108802282D01*
X113452381Y-109230853D02*
X113595238Y-109278472D01*
X113595238Y-109278472D02*
X113642857Y-109326091D01*
X113642857Y-109326091D02*
X113690476Y-109421329D01*
X113690476Y-109421329D02*
X113690476Y-109564186D01*
X113690476Y-109564186D02*
X113642857Y-109659424D01*
X113642857Y-109659424D02*
X113595238Y-109707044D01*
X113595238Y-109707044D02*
X113500000Y-109754663D01*
X113500000Y-109754663D02*
X113119048Y-109754663D01*
X113119048Y-109754663D02*
X113119048Y-108754663D01*
X113119048Y-108754663D02*
X113452381Y-108754663D01*
X113452381Y-108754663D02*
X113547619Y-108802282D01*
X113547619Y-108802282D02*
X113595238Y-108849901D01*
X113595238Y-108849901D02*
X113642857Y-108945139D01*
X113642857Y-108945139D02*
X113642857Y-109040377D01*
X113642857Y-109040377D02*
X113595238Y-109135615D01*
X113595238Y-109135615D02*
X113547619Y-109183234D01*
X113547619Y-109183234D02*
X113452381Y-109230853D01*
X113452381Y-109230853D02*
X113119048Y-109230853D01*
X114119048Y-109373710D02*
X114880953Y-109373710D01*
X115928571Y-109659424D02*
X115880952Y-109707044D01*
X115880952Y-109707044D02*
X115738095Y-109754663D01*
X115738095Y-109754663D02*
X115642857Y-109754663D01*
X115642857Y-109754663D02*
X115500000Y-109707044D01*
X115500000Y-109707044D02*
X115404762Y-109611805D01*
X115404762Y-109611805D02*
X115357143Y-109516567D01*
X115357143Y-109516567D02*
X115309524Y-109326091D01*
X115309524Y-109326091D02*
X115309524Y-109183234D01*
X115309524Y-109183234D02*
X115357143Y-108992758D01*
X115357143Y-108992758D02*
X115404762Y-108897520D01*
X115404762Y-108897520D02*
X115500000Y-108802282D01*
X115500000Y-108802282D02*
X115642857Y-108754663D01*
X115642857Y-108754663D02*
X115738095Y-108754663D01*
X115738095Y-108754663D02*
X115880952Y-108802282D01*
X115880952Y-108802282D02*
X115928571Y-108849901D01*
X148954663Y-120261904D02*
X148954663Y-119690476D01*
X149954663Y-119976190D02*
X148954663Y-119976190D01*
X148954663Y-119452380D02*
X149954663Y-118785714D01*
X148954663Y-118785714D02*
X149954663Y-119452380D01*
X148907044Y-117690476D02*
X150192758Y-118547618D01*
X149954663Y-116785714D02*
X149478472Y-117119047D01*
X149954663Y-117357142D02*
X148954663Y-117357142D01*
X148954663Y-117357142D02*
X148954663Y-116976190D01*
X148954663Y-116976190D02*
X149002282Y-116880952D01*
X149002282Y-116880952D02*
X149049901Y-116833333D01*
X149049901Y-116833333D02*
X149145139Y-116785714D01*
X149145139Y-116785714D02*
X149287996Y-116785714D01*
X149287996Y-116785714D02*
X149383234Y-116833333D01*
X149383234Y-116833333D02*
X149430853Y-116880952D01*
X149430853Y-116880952D02*
X149478472Y-116976190D01*
X149478472Y-116976190D02*
X149478472Y-117357142D01*
X148954663Y-116452380D02*
X149954663Y-115785714D01*
X148954663Y-115785714D02*
X149954663Y-116452380D01*
X144414286Y-113354663D02*
X144414286Y-112354663D01*
X144414286Y-112354663D02*
X144795238Y-112354663D01*
X144795238Y-112354663D02*
X144890476Y-112402282D01*
X144890476Y-112402282D02*
X144938095Y-112449901D01*
X144938095Y-112449901D02*
X144985714Y-112545139D01*
X144985714Y-112545139D02*
X144985714Y-112687996D01*
X144985714Y-112687996D02*
X144938095Y-112783234D01*
X144938095Y-112783234D02*
X144890476Y-112830853D01*
X144890476Y-112830853D02*
X144795238Y-112878472D01*
X144795238Y-112878472D02*
X144414286Y-112878472D01*
X145414286Y-113354663D02*
X145414286Y-112354663D01*
X145414286Y-112830853D02*
X145985714Y-112830853D01*
X145985714Y-113354663D02*
X145985714Y-112354663D01*
X146366667Y-112354663D02*
X146985714Y-112354663D01*
X146985714Y-112354663D02*
X146652381Y-112735615D01*
X146652381Y-112735615D02*
X146795238Y-112735615D01*
X146795238Y-112735615D02*
X146890476Y-112783234D01*
X146890476Y-112783234D02*
X146938095Y-112830853D01*
X146938095Y-112830853D02*
X146985714Y-112926091D01*
X146985714Y-112926091D02*
X146985714Y-113164186D01*
X146985714Y-113164186D02*
X146938095Y-113259424D01*
X146938095Y-113259424D02*
X146890476Y-113307044D01*
X146890476Y-113307044D02*
X146795238Y-113354663D01*
X146795238Y-113354663D02*
X146509524Y-113354663D01*
X146509524Y-113354663D02*
X146414286Y-113307044D01*
X146414286Y-113307044D02*
X146366667Y-113259424D01*
X147414286Y-112973710D02*
X148176191Y-112973710D01*
X148985714Y-112830853D02*
X149128571Y-112878472D01*
X149128571Y-112878472D02*
X149176190Y-112926091D01*
X149176190Y-112926091D02*
X149223809Y-113021329D01*
X149223809Y-113021329D02*
X149223809Y-113164186D01*
X149223809Y-113164186D02*
X149176190Y-113259424D01*
X149176190Y-113259424D02*
X149128571Y-113307044D01*
X149128571Y-113307044D02*
X149033333Y-113354663D01*
X149033333Y-113354663D02*
X148652381Y-113354663D01*
X148652381Y-113354663D02*
X148652381Y-112354663D01*
X148652381Y-112354663D02*
X148985714Y-112354663D01*
X148985714Y-112354663D02*
X149080952Y-112402282D01*
X149080952Y-112402282D02*
X149128571Y-112449901D01*
X149128571Y-112449901D02*
X149176190Y-112545139D01*
X149176190Y-112545139D02*
X149176190Y-112640377D01*
X149176190Y-112640377D02*
X149128571Y-112735615D01*
X149128571Y-112735615D02*
X149080952Y-112783234D01*
X149080952Y-112783234D02*
X148985714Y-112830853D01*
X148985714Y-112830853D02*
X148652381Y-112830853D01*
X149842857Y-112354663D02*
X150033333Y-112354663D01*
X150033333Y-112354663D02*
X150128571Y-112402282D01*
X150128571Y-112402282D02*
X150223809Y-112497520D01*
X150223809Y-112497520D02*
X150271428Y-112687996D01*
X150271428Y-112687996D02*
X150271428Y-113021329D01*
X150271428Y-113021329D02*
X150223809Y-113211805D01*
X150223809Y-113211805D02*
X150128571Y-113307044D01*
X150128571Y-113307044D02*
X150033333Y-113354663D01*
X150033333Y-113354663D02*
X149842857Y-113354663D01*
X149842857Y-113354663D02*
X149747619Y-113307044D01*
X149747619Y-113307044D02*
X149652381Y-113211805D01*
X149652381Y-113211805D02*
X149604762Y-113021329D01*
X149604762Y-113021329D02*
X149604762Y-112687996D01*
X149604762Y-112687996D02*
X149652381Y-112497520D01*
X149652381Y-112497520D02*
X149747619Y-112402282D01*
X149747619Y-112402282D02*
X149842857Y-112354663D01*
X150890476Y-112354663D02*
X151080952Y-112354663D01*
X151080952Y-112354663D02*
X151176190Y-112402282D01*
X151176190Y-112402282D02*
X151271428Y-112497520D01*
X151271428Y-112497520D02*
X151319047Y-112687996D01*
X151319047Y-112687996D02*
X151319047Y-113021329D01*
X151319047Y-113021329D02*
X151271428Y-113211805D01*
X151271428Y-113211805D02*
X151176190Y-113307044D01*
X151176190Y-113307044D02*
X151080952Y-113354663D01*
X151080952Y-113354663D02*
X150890476Y-113354663D01*
X150890476Y-113354663D02*
X150795238Y-113307044D01*
X150795238Y-113307044D02*
X150700000Y-113211805D01*
X150700000Y-113211805D02*
X150652381Y-113021329D01*
X150652381Y-113021329D02*
X150652381Y-112687996D01*
X150652381Y-112687996D02*
X150700000Y-112497520D01*
X150700000Y-112497520D02*
X150795238Y-112402282D01*
X150795238Y-112402282D02*
X150890476Y-112354663D01*
X151604762Y-112354663D02*
X152176190Y-112354663D01*
X151890476Y-113354663D02*
X151890476Y-112354663D01*
X152700000Y-112354663D02*
X152795238Y-112354663D01*
X152795238Y-112354663D02*
X152890476Y-112402282D01*
X152890476Y-112402282D02*
X152938095Y-112449901D01*
X152938095Y-112449901D02*
X152985714Y-112545139D01*
X152985714Y-112545139D02*
X153033333Y-112735615D01*
X153033333Y-112735615D02*
X153033333Y-112973710D01*
X153033333Y-112973710D02*
X152985714Y-113164186D01*
X152985714Y-113164186D02*
X152938095Y-113259424D01*
X152938095Y-113259424D02*
X152890476Y-113307044D01*
X152890476Y-113307044D02*
X152795238Y-113354663D01*
X152795238Y-113354663D02*
X152700000Y-113354663D01*
X152700000Y-113354663D02*
X152604762Y-113307044D01*
X152604762Y-113307044D02*
X152557143Y-113259424D01*
X152557143Y-113259424D02*
X152509524Y-113164186D01*
X152509524Y-113164186D02*
X152461905Y-112973710D01*
X152461905Y-112973710D02*
X152461905Y-112735615D01*
X152461905Y-112735615D02*
X152509524Y-112545139D01*
X152509524Y-112545139D02*
X152557143Y-112449901D01*
X152557143Y-112449901D02*
X152604762Y-112402282D01*
X152604762Y-112402282D02*
X152700000Y-112354663D01*
X133354663Y-120138094D02*
X132354663Y-120138094D01*
X132354663Y-120138094D02*
X132354663Y-119757142D01*
X132354663Y-119757142D02*
X132402282Y-119661904D01*
X132402282Y-119661904D02*
X132449901Y-119614285D01*
X132449901Y-119614285D02*
X132545139Y-119566666D01*
X132545139Y-119566666D02*
X132687996Y-119566666D01*
X132687996Y-119566666D02*
X132783234Y-119614285D01*
X132783234Y-119614285D02*
X132830853Y-119661904D01*
X132830853Y-119661904D02*
X132878472Y-119757142D01*
X132878472Y-119757142D02*
X132878472Y-120138094D01*
X132830853Y-118804761D02*
X132878472Y-118661904D01*
X132878472Y-118661904D02*
X132926091Y-118614285D01*
X132926091Y-118614285D02*
X133021329Y-118566666D01*
X133021329Y-118566666D02*
X133164186Y-118566666D01*
X133164186Y-118566666D02*
X133259424Y-118614285D01*
X133259424Y-118614285D02*
X133307044Y-118661904D01*
X133307044Y-118661904D02*
X133354663Y-118757142D01*
X133354663Y-118757142D02*
X133354663Y-119138094D01*
X133354663Y-119138094D02*
X132354663Y-119138094D01*
X132354663Y-119138094D02*
X132354663Y-118804761D01*
X132354663Y-118804761D02*
X132402282Y-118709523D01*
X132402282Y-118709523D02*
X132449901Y-118661904D01*
X132449901Y-118661904D02*
X132545139Y-118614285D01*
X132545139Y-118614285D02*
X132640377Y-118614285D01*
X132640377Y-118614285D02*
X132735615Y-118661904D01*
X132735615Y-118661904D02*
X132783234Y-118709523D01*
X132783234Y-118709523D02*
X132830853Y-118804761D01*
X132830853Y-118804761D02*
X132830853Y-119138094D01*
X133354663Y-117614285D02*
X133354663Y-118185713D01*
X133354663Y-117899999D02*
X132354663Y-117899999D01*
X132354663Y-117899999D02*
X132497520Y-117995237D01*
X132497520Y-117995237D02*
X132592758Y-118090475D01*
X132592758Y-118090475D02*
X132640377Y-118185713D01*
X153804663Y-128445237D02*
X154614186Y-128445237D01*
X154614186Y-128445237D02*
X154709424Y-128397618D01*
X154709424Y-128397618D02*
X154757044Y-128349999D01*
X154757044Y-128349999D02*
X154804663Y-128254761D01*
X154804663Y-128254761D02*
X154804663Y-128064285D01*
X154804663Y-128064285D02*
X154757044Y-127969047D01*
X154757044Y-127969047D02*
X154709424Y-127921428D01*
X154709424Y-127921428D02*
X154614186Y-127873809D01*
X154614186Y-127873809D02*
X153804663Y-127873809D01*
X154518948Y-127445237D02*
X154518948Y-126969047D01*
X154804663Y-127540475D02*
X153804663Y-127207142D01*
X153804663Y-127207142D02*
X154804663Y-126873809D01*
X154804663Y-125969047D02*
X154328472Y-126302380D01*
X154804663Y-126540475D02*
X153804663Y-126540475D01*
X153804663Y-126540475D02*
X153804663Y-126159523D01*
X153804663Y-126159523D02*
X153852282Y-126064285D01*
X153852282Y-126064285D02*
X153899901Y-126016666D01*
X153899901Y-126016666D02*
X153995139Y-125969047D01*
X153995139Y-125969047D02*
X154137996Y-125969047D01*
X154137996Y-125969047D02*
X154233234Y-126016666D01*
X154233234Y-126016666D02*
X154280853Y-126064285D01*
X154280853Y-126064285D02*
X154328472Y-126159523D01*
X154328472Y-126159523D02*
X154328472Y-126540475D01*
X153804663Y-125683332D02*
X153804663Y-125111904D01*
X154804663Y-125397618D02*
X153804663Y-125397618D01*
X168307044Y-123014285D02*
X168354663Y-122871428D01*
X168354663Y-122871428D02*
X168354663Y-122633333D01*
X168354663Y-122633333D02*
X168307044Y-122538095D01*
X168307044Y-122538095D02*
X168259424Y-122490476D01*
X168259424Y-122490476D02*
X168164186Y-122442857D01*
X168164186Y-122442857D02*
X168068948Y-122442857D01*
X168068948Y-122442857D02*
X167973710Y-122490476D01*
X167973710Y-122490476D02*
X167926091Y-122538095D01*
X167926091Y-122538095D02*
X167878472Y-122633333D01*
X167878472Y-122633333D02*
X167830853Y-122823809D01*
X167830853Y-122823809D02*
X167783234Y-122919047D01*
X167783234Y-122919047D02*
X167735615Y-122966666D01*
X167735615Y-122966666D02*
X167640377Y-123014285D01*
X167640377Y-123014285D02*
X167545139Y-123014285D01*
X167545139Y-123014285D02*
X167449901Y-122966666D01*
X167449901Y-122966666D02*
X167402282Y-122919047D01*
X167402282Y-122919047D02*
X167354663Y-122823809D01*
X167354663Y-122823809D02*
X167354663Y-122585714D01*
X167354663Y-122585714D02*
X167402282Y-122442857D01*
X168354663Y-122014285D02*
X167354663Y-122014285D01*
X167354663Y-122014285D02*
X167354663Y-121776190D01*
X167354663Y-121776190D02*
X167402282Y-121633333D01*
X167402282Y-121633333D02*
X167497520Y-121538095D01*
X167497520Y-121538095D02*
X167592758Y-121490476D01*
X167592758Y-121490476D02*
X167783234Y-121442857D01*
X167783234Y-121442857D02*
X167926091Y-121442857D01*
X167926091Y-121442857D02*
X168116567Y-121490476D01*
X168116567Y-121490476D02*
X168211805Y-121538095D01*
X168211805Y-121538095D02*
X168307044Y-121633333D01*
X168307044Y-121633333D02*
X168354663Y-121776190D01*
X168354663Y-121776190D02*
X168354663Y-122014285D01*
X168068948Y-121061904D02*
X168068948Y-120585714D01*
X168354663Y-121157142D02*
X167354663Y-120823809D01*
X167354663Y-120823809D02*
X168354663Y-120490476D01*
D12*
X198159580Y-92242857D02*
X198207200Y-92290476D01*
X198207200Y-92290476D02*
X198254819Y-92433333D01*
X198254819Y-92433333D02*
X198254819Y-92528571D01*
X198254819Y-92528571D02*
X198207200Y-92671428D01*
X198207200Y-92671428D02*
X198111961Y-92766666D01*
X198111961Y-92766666D02*
X198016723Y-92814285D01*
X198016723Y-92814285D02*
X197826247Y-92861904D01*
X197826247Y-92861904D02*
X197683390Y-92861904D01*
X197683390Y-92861904D02*
X197492914Y-92814285D01*
X197492914Y-92814285D02*
X197397676Y-92766666D01*
X197397676Y-92766666D02*
X197302438Y-92671428D01*
X197302438Y-92671428D02*
X197254819Y-92528571D01*
X197254819Y-92528571D02*
X197254819Y-92433333D01*
X197254819Y-92433333D02*
X197302438Y-92290476D01*
X197302438Y-92290476D02*
X197350057Y-92242857D01*
X197350057Y-91861904D02*
X197302438Y-91814285D01*
X197302438Y-91814285D02*
X197254819Y-91719047D01*
X197254819Y-91719047D02*
X197254819Y-91480952D01*
X197254819Y-91480952D02*
X197302438Y-91385714D01*
X197302438Y-91385714D02*
X197350057Y-91338095D01*
X197350057Y-91338095D02*
X197445295Y-91290476D01*
X197445295Y-91290476D02*
X197540533Y-91290476D01*
X197540533Y-91290476D02*
X197683390Y-91338095D01*
X197683390Y-91338095D02*
X198254819Y-91909523D01*
X198254819Y-91909523D02*
X198254819Y-91290476D01*
X197683390Y-90719047D02*
X197635771Y-90814285D01*
X197635771Y-90814285D02*
X197588152Y-90861904D01*
X197588152Y-90861904D02*
X197492914Y-90909523D01*
X197492914Y-90909523D02*
X197445295Y-90909523D01*
X197445295Y-90909523D02*
X197350057Y-90861904D01*
X197350057Y-90861904D02*
X197302438Y-90814285D01*
X197302438Y-90814285D02*
X197254819Y-90719047D01*
X197254819Y-90719047D02*
X197254819Y-90528571D01*
X197254819Y-90528571D02*
X197302438Y-90433333D01*
X197302438Y-90433333D02*
X197350057Y-90385714D01*
X197350057Y-90385714D02*
X197445295Y-90338095D01*
X197445295Y-90338095D02*
X197492914Y-90338095D01*
X197492914Y-90338095D02*
X197588152Y-90385714D01*
X197588152Y-90385714D02*
X197635771Y-90433333D01*
X197635771Y-90433333D02*
X197683390Y-90528571D01*
X197683390Y-90528571D02*
X197683390Y-90719047D01*
X197683390Y-90719047D02*
X197731009Y-90814285D01*
X197731009Y-90814285D02*
X197778628Y-90861904D01*
X197778628Y-90861904D02*
X197873866Y-90909523D01*
X197873866Y-90909523D02*
X198064342Y-90909523D01*
X198064342Y-90909523D02*
X198159580Y-90861904D01*
X198159580Y-90861904D02*
X198207200Y-90814285D01*
X198207200Y-90814285D02*
X198254819Y-90719047D01*
X198254819Y-90719047D02*
X198254819Y-90528571D01*
X198254819Y-90528571D02*
X198207200Y-90433333D01*
X198207200Y-90433333D02*
X198159580Y-90385714D01*
X198159580Y-90385714D02*
X198064342Y-90338095D01*
X198064342Y-90338095D02*
X197873866Y-90338095D01*
X197873866Y-90338095D02*
X197778628Y-90385714D01*
X197778628Y-90385714D02*
X197731009Y-90433333D01*
X197731009Y-90433333D02*
X197683390Y-90528571D01*
D11*
X135754663Y-97009523D02*
X135754663Y-96342857D01*
X135754663Y-96342857D02*
X136754663Y-97009523D01*
X136754663Y-97009523D02*
X136754663Y-96342857D01*
X135754663Y-96057142D02*
X135754663Y-95438095D01*
X135754663Y-95438095D02*
X136135615Y-95771428D01*
X136135615Y-95771428D02*
X136135615Y-95628571D01*
X136135615Y-95628571D02*
X136183234Y-95533333D01*
X136183234Y-95533333D02*
X136230853Y-95485714D01*
X136230853Y-95485714D02*
X136326091Y-95438095D01*
X136326091Y-95438095D02*
X136564186Y-95438095D01*
X136564186Y-95438095D02*
X136659424Y-95485714D01*
X136659424Y-95485714D02*
X136707044Y-95533333D01*
X136707044Y-95533333D02*
X136754663Y-95628571D01*
X136754663Y-95628571D02*
X136754663Y-95914285D01*
X136754663Y-95914285D02*
X136707044Y-96009523D01*
X136707044Y-96009523D02*
X136659424Y-96057142D01*
X162354663Y-112909523D02*
X163068948Y-112909523D01*
X163068948Y-112909523D02*
X163211805Y-112957142D01*
X163211805Y-112957142D02*
X163307044Y-113052380D01*
X163307044Y-113052380D02*
X163354663Y-113195237D01*
X163354663Y-113195237D02*
X163354663Y-113290475D01*
X163354663Y-111909523D02*
X163354663Y-112480951D01*
X163354663Y-112195237D02*
X162354663Y-112195237D01*
X162354663Y-112195237D02*
X162497520Y-112290475D01*
X162497520Y-112290475D02*
X162592758Y-112385713D01*
X162592758Y-112385713D02*
X162640377Y-112480951D01*
X163354663Y-110957142D02*
X163354663Y-111528570D01*
X163354663Y-111242856D02*
X162354663Y-111242856D01*
X162354663Y-111242856D02*
X162497520Y-111338094D01*
X162497520Y-111338094D02*
X162592758Y-111433332D01*
X162592758Y-111433332D02*
X162640377Y-111528570D01*
D12*
X143904819Y-128433333D02*
X144619104Y-128433333D01*
X144619104Y-128433333D02*
X144761961Y-128480952D01*
X144761961Y-128480952D02*
X144857200Y-128576190D01*
X144857200Y-128576190D02*
X144904819Y-128719047D01*
X144904819Y-128719047D02*
X144904819Y-128814285D01*
X143904819Y-127480952D02*
X143904819Y-127957142D01*
X143904819Y-127957142D02*
X144381009Y-128004761D01*
X144381009Y-128004761D02*
X144333390Y-127957142D01*
X144333390Y-127957142D02*
X144285771Y-127861904D01*
X144285771Y-127861904D02*
X144285771Y-127623809D01*
X144285771Y-127623809D02*
X144333390Y-127528571D01*
X144333390Y-127528571D02*
X144381009Y-127480952D01*
X144381009Y-127480952D02*
X144476247Y-127433333D01*
X144476247Y-127433333D02*
X144714342Y-127433333D01*
X144714342Y-127433333D02*
X144809580Y-127480952D01*
X144809580Y-127480952D02*
X144857200Y-127528571D01*
X144857200Y-127528571D02*
X144904819Y-127623809D01*
X144904819Y-127623809D02*
X144904819Y-127861904D01*
X144904819Y-127861904D02*
X144857200Y-127957142D01*
X144857200Y-127957142D02*
X144809580Y-128004761D01*
X126954819Y-121033333D02*
X127669104Y-121033333D01*
X127669104Y-121033333D02*
X127811961Y-121080952D01*
X127811961Y-121080952D02*
X127907200Y-121176190D01*
X127907200Y-121176190D02*
X127954819Y-121319047D01*
X127954819Y-121319047D02*
X127954819Y-121414285D01*
X127954819Y-120033333D02*
X127954819Y-120604761D01*
X127954819Y-120319047D02*
X126954819Y-120319047D01*
X126954819Y-120319047D02*
X127097676Y-120414285D01*
X127097676Y-120414285D02*
X127192914Y-120509523D01*
X127192914Y-120509523D02*
X127240533Y-120604761D01*
X195459580Y-103142857D02*
X195507200Y-103190476D01*
X195507200Y-103190476D02*
X195554819Y-103333333D01*
X195554819Y-103333333D02*
X195554819Y-103428571D01*
X195554819Y-103428571D02*
X195507200Y-103571428D01*
X195507200Y-103571428D02*
X195411961Y-103666666D01*
X195411961Y-103666666D02*
X195316723Y-103714285D01*
X195316723Y-103714285D02*
X195126247Y-103761904D01*
X195126247Y-103761904D02*
X194983390Y-103761904D01*
X194983390Y-103761904D02*
X194792914Y-103714285D01*
X194792914Y-103714285D02*
X194697676Y-103666666D01*
X194697676Y-103666666D02*
X194602438Y-103571428D01*
X194602438Y-103571428D02*
X194554819Y-103428571D01*
X194554819Y-103428571D02*
X194554819Y-103333333D01*
X194554819Y-103333333D02*
X194602438Y-103190476D01*
X194602438Y-103190476D02*
X194650057Y-103142857D01*
X195554819Y-102190476D02*
X195554819Y-102761904D01*
X195554819Y-102476190D02*
X194554819Y-102476190D01*
X194554819Y-102476190D02*
X194697676Y-102571428D01*
X194697676Y-102571428D02*
X194792914Y-102666666D01*
X194792914Y-102666666D02*
X194840533Y-102761904D01*
X195554819Y-101714285D02*
X195554819Y-101523809D01*
X195554819Y-101523809D02*
X195507200Y-101428571D01*
X195507200Y-101428571D02*
X195459580Y-101380952D01*
X195459580Y-101380952D02*
X195316723Y-101285714D01*
X195316723Y-101285714D02*
X195126247Y-101238095D01*
X195126247Y-101238095D02*
X194745295Y-101238095D01*
X194745295Y-101238095D02*
X194650057Y-101285714D01*
X194650057Y-101285714D02*
X194602438Y-101333333D01*
X194602438Y-101333333D02*
X194554819Y-101428571D01*
X194554819Y-101428571D02*
X194554819Y-101619047D01*
X194554819Y-101619047D02*
X194602438Y-101714285D01*
X194602438Y-101714285D02*
X194650057Y-101761904D01*
X194650057Y-101761904D02*
X194745295Y-101809523D01*
X194745295Y-101809523D02*
X194983390Y-101809523D01*
X194983390Y-101809523D02*
X195078628Y-101761904D01*
X195078628Y-101761904D02*
X195126247Y-101714285D01*
X195126247Y-101714285D02*
X195173866Y-101619047D01*
X195173866Y-101619047D02*
X195173866Y-101428571D01*
X195173866Y-101428571D02*
X195126247Y-101333333D01*
X195126247Y-101333333D02*
X195078628Y-101285714D01*
X195078628Y-101285714D02*
X194983390Y-101238095D01*
X122733333Y-121054819D02*
X122400000Y-120578628D01*
X122161905Y-121054819D02*
X122161905Y-120054819D01*
X122161905Y-120054819D02*
X122542857Y-120054819D01*
X122542857Y-120054819D02*
X122638095Y-120102438D01*
X122638095Y-120102438D02*
X122685714Y-120150057D01*
X122685714Y-120150057D02*
X122733333Y-120245295D01*
X122733333Y-120245295D02*
X122733333Y-120388152D01*
X122733333Y-120388152D02*
X122685714Y-120483390D01*
X122685714Y-120483390D02*
X122638095Y-120531009D01*
X122638095Y-120531009D02*
X122542857Y-120578628D01*
X122542857Y-120578628D02*
X122161905Y-120578628D01*
X123304762Y-120483390D02*
X123209524Y-120435771D01*
X123209524Y-120435771D02*
X123161905Y-120388152D01*
X123161905Y-120388152D02*
X123114286Y-120292914D01*
X123114286Y-120292914D02*
X123114286Y-120245295D01*
X123114286Y-120245295D02*
X123161905Y-120150057D01*
X123161905Y-120150057D02*
X123209524Y-120102438D01*
X123209524Y-120102438D02*
X123304762Y-120054819D01*
X123304762Y-120054819D02*
X123495238Y-120054819D01*
X123495238Y-120054819D02*
X123590476Y-120102438D01*
X123590476Y-120102438D02*
X123638095Y-120150057D01*
X123638095Y-120150057D02*
X123685714Y-120245295D01*
X123685714Y-120245295D02*
X123685714Y-120292914D01*
X123685714Y-120292914D02*
X123638095Y-120388152D01*
X123638095Y-120388152D02*
X123590476Y-120435771D01*
X123590476Y-120435771D02*
X123495238Y-120483390D01*
X123495238Y-120483390D02*
X123304762Y-120483390D01*
X123304762Y-120483390D02*
X123209524Y-120531009D01*
X123209524Y-120531009D02*
X123161905Y-120578628D01*
X123161905Y-120578628D02*
X123114286Y-120673866D01*
X123114286Y-120673866D02*
X123114286Y-120864342D01*
X123114286Y-120864342D02*
X123161905Y-120959580D01*
X123161905Y-120959580D02*
X123209524Y-121007200D01*
X123209524Y-121007200D02*
X123304762Y-121054819D01*
X123304762Y-121054819D02*
X123495238Y-121054819D01*
X123495238Y-121054819D02*
X123590476Y-121007200D01*
X123590476Y-121007200D02*
X123638095Y-120959580D01*
X123638095Y-120959580D02*
X123685714Y-120864342D01*
X123685714Y-120864342D02*
X123685714Y-120673866D01*
X123685714Y-120673866D02*
X123638095Y-120578628D01*
X123638095Y-120578628D02*
X123590476Y-120531009D01*
X123590476Y-120531009D02*
X123495238Y-120483390D01*
D11*
X185223810Y-101254663D02*
X185223810Y-100254663D01*
X186271428Y-101159424D02*
X186223809Y-101207044D01*
X186223809Y-101207044D02*
X186080952Y-101254663D01*
X186080952Y-101254663D02*
X185985714Y-101254663D01*
X185985714Y-101254663D02*
X185842857Y-101207044D01*
X185842857Y-101207044D02*
X185747619Y-101111805D01*
X185747619Y-101111805D02*
X185700000Y-101016567D01*
X185700000Y-101016567D02*
X185652381Y-100826091D01*
X185652381Y-100826091D02*
X185652381Y-100683234D01*
X185652381Y-100683234D02*
X185700000Y-100492758D01*
X185700000Y-100492758D02*
X185747619Y-100397520D01*
X185747619Y-100397520D02*
X185842857Y-100302282D01*
X185842857Y-100302282D02*
X185985714Y-100254663D01*
X185985714Y-100254663D02*
X186080952Y-100254663D01*
X186080952Y-100254663D02*
X186223809Y-100302282D01*
X186223809Y-100302282D02*
X186271428Y-100349901D01*
X186652381Y-100349901D02*
X186700000Y-100302282D01*
X186700000Y-100302282D02*
X186795238Y-100254663D01*
X186795238Y-100254663D02*
X187033333Y-100254663D01*
X187033333Y-100254663D02*
X187128571Y-100302282D01*
X187128571Y-100302282D02*
X187176190Y-100349901D01*
X187176190Y-100349901D02*
X187223809Y-100445139D01*
X187223809Y-100445139D02*
X187223809Y-100540377D01*
X187223809Y-100540377D02*
X187176190Y-100683234D01*
X187176190Y-100683234D02*
X186604762Y-101254663D01*
X186604762Y-101254663D02*
X187223809Y-101254663D01*
D12*
X188379819Y-99166666D02*
X188379819Y-99642856D01*
X188379819Y-99642856D02*
X187379819Y-99642856D01*
X187379819Y-98928570D02*
X187379819Y-98309523D01*
X187379819Y-98309523D02*
X187760771Y-98642856D01*
X187760771Y-98642856D02*
X187760771Y-98499999D01*
X187760771Y-98499999D02*
X187808390Y-98404761D01*
X187808390Y-98404761D02*
X187856009Y-98357142D01*
X187856009Y-98357142D02*
X187951247Y-98309523D01*
X187951247Y-98309523D02*
X188189342Y-98309523D01*
X188189342Y-98309523D02*
X188284580Y-98357142D01*
X188284580Y-98357142D02*
X188332200Y-98404761D01*
X188332200Y-98404761D02*
X188379819Y-98499999D01*
X188379819Y-98499999D02*
X188379819Y-98785713D01*
X188379819Y-98785713D02*
X188332200Y-98880951D01*
X188332200Y-98880951D02*
X188284580Y-98928570D01*
X186754819Y-118066666D02*
X186278628Y-118399999D01*
X186754819Y-118638094D02*
X185754819Y-118638094D01*
X185754819Y-118638094D02*
X185754819Y-118257142D01*
X185754819Y-118257142D02*
X185802438Y-118161904D01*
X185802438Y-118161904D02*
X185850057Y-118114285D01*
X185850057Y-118114285D02*
X185945295Y-118066666D01*
X185945295Y-118066666D02*
X186088152Y-118066666D01*
X186088152Y-118066666D02*
X186183390Y-118114285D01*
X186183390Y-118114285D02*
X186231009Y-118161904D01*
X186231009Y-118161904D02*
X186278628Y-118257142D01*
X186278628Y-118257142D02*
X186278628Y-118638094D01*
X186088152Y-117209523D02*
X186754819Y-117209523D01*
X185707200Y-117447618D02*
X186421485Y-117685713D01*
X186421485Y-117685713D02*
X186421485Y-117066666D01*
X162623810Y-115754819D02*
X162623810Y-114754819D01*
X162623810Y-114754819D02*
X162861905Y-114754819D01*
X162861905Y-114754819D02*
X163004762Y-114802438D01*
X163004762Y-114802438D02*
X163100000Y-114897676D01*
X163100000Y-114897676D02*
X163147619Y-114992914D01*
X163147619Y-114992914D02*
X163195238Y-115183390D01*
X163195238Y-115183390D02*
X163195238Y-115326247D01*
X163195238Y-115326247D02*
X163147619Y-115516723D01*
X163147619Y-115516723D02*
X163100000Y-115611961D01*
X163100000Y-115611961D02*
X163004762Y-115707200D01*
X163004762Y-115707200D02*
X162861905Y-115754819D01*
X162861905Y-115754819D02*
X162623810Y-115754819D01*
X163623810Y-115754819D02*
X163623810Y-114754819D01*
X164623809Y-115754819D02*
X164052381Y-115754819D01*
X164338095Y-115754819D02*
X164338095Y-114754819D01*
X164338095Y-114754819D02*
X164242857Y-114897676D01*
X164242857Y-114897676D02*
X164147619Y-114992914D01*
X164147619Y-114992914D02*
X164052381Y-115040533D01*
X119657142Y-124259580D02*
X119609523Y-124307200D01*
X119609523Y-124307200D02*
X119466666Y-124354819D01*
X119466666Y-124354819D02*
X119371428Y-124354819D01*
X119371428Y-124354819D02*
X119228571Y-124307200D01*
X119228571Y-124307200D02*
X119133333Y-124211961D01*
X119133333Y-124211961D02*
X119085714Y-124116723D01*
X119085714Y-124116723D02*
X119038095Y-123926247D01*
X119038095Y-123926247D02*
X119038095Y-123783390D01*
X119038095Y-123783390D02*
X119085714Y-123592914D01*
X119085714Y-123592914D02*
X119133333Y-123497676D01*
X119133333Y-123497676D02*
X119228571Y-123402438D01*
X119228571Y-123402438D02*
X119371428Y-123354819D01*
X119371428Y-123354819D02*
X119466666Y-123354819D01*
X119466666Y-123354819D02*
X119609523Y-123402438D01*
X119609523Y-123402438D02*
X119657142Y-123450057D01*
X120038095Y-123450057D02*
X120085714Y-123402438D01*
X120085714Y-123402438D02*
X120180952Y-123354819D01*
X120180952Y-123354819D02*
X120419047Y-123354819D01*
X120419047Y-123354819D02*
X120514285Y-123402438D01*
X120514285Y-123402438D02*
X120561904Y-123450057D01*
X120561904Y-123450057D02*
X120609523Y-123545295D01*
X120609523Y-123545295D02*
X120609523Y-123640533D01*
X120609523Y-123640533D02*
X120561904Y-123783390D01*
X120561904Y-123783390D02*
X119990476Y-124354819D01*
X119990476Y-124354819D02*
X120609523Y-124354819D01*
X121561904Y-124354819D02*
X120990476Y-124354819D01*
X121276190Y-124354819D02*
X121276190Y-123354819D01*
X121276190Y-123354819D02*
X121180952Y-123497676D01*
X121180952Y-123497676D02*
X121085714Y-123592914D01*
X121085714Y-123592914D02*
X120990476Y-123640533D01*
X179209580Y-111692857D02*
X179257200Y-111740476D01*
X179257200Y-111740476D02*
X179304819Y-111883333D01*
X179304819Y-111883333D02*
X179304819Y-111978571D01*
X179304819Y-111978571D02*
X179257200Y-112121428D01*
X179257200Y-112121428D02*
X179161961Y-112216666D01*
X179161961Y-112216666D02*
X179066723Y-112264285D01*
X179066723Y-112264285D02*
X178876247Y-112311904D01*
X178876247Y-112311904D02*
X178733390Y-112311904D01*
X178733390Y-112311904D02*
X178542914Y-112264285D01*
X178542914Y-112264285D02*
X178447676Y-112216666D01*
X178447676Y-112216666D02*
X178352438Y-112121428D01*
X178352438Y-112121428D02*
X178304819Y-111978571D01*
X178304819Y-111978571D02*
X178304819Y-111883333D01*
X178304819Y-111883333D02*
X178352438Y-111740476D01*
X178352438Y-111740476D02*
X178400057Y-111692857D01*
X179304819Y-110740476D02*
X179304819Y-111311904D01*
X179304819Y-111026190D02*
X178304819Y-111026190D01*
X178304819Y-111026190D02*
X178447676Y-111121428D01*
X178447676Y-111121428D02*
X178542914Y-111216666D01*
X178542914Y-111216666D02*
X178590533Y-111311904D01*
X178304819Y-110407142D02*
X178304819Y-109788095D01*
X178304819Y-109788095D02*
X178685771Y-110121428D01*
X178685771Y-110121428D02*
X178685771Y-109978571D01*
X178685771Y-109978571D02*
X178733390Y-109883333D01*
X178733390Y-109883333D02*
X178781009Y-109835714D01*
X178781009Y-109835714D02*
X178876247Y-109788095D01*
X178876247Y-109788095D02*
X179114342Y-109788095D01*
X179114342Y-109788095D02*
X179209580Y-109835714D01*
X179209580Y-109835714D02*
X179257200Y-109883333D01*
X179257200Y-109883333D02*
X179304819Y-109978571D01*
X179304819Y-109978571D02*
X179304819Y-110264285D01*
X179304819Y-110264285D02*
X179257200Y-110359523D01*
X179257200Y-110359523D02*
X179209580Y-110407142D01*
X195042949Y-114759580D02*
X194995330Y-114807200D01*
X194995330Y-114807200D02*
X194852473Y-114854819D01*
X194852473Y-114854819D02*
X194757235Y-114854819D01*
X194757235Y-114854819D02*
X194614378Y-114807200D01*
X194614378Y-114807200D02*
X194519140Y-114711961D01*
X194519140Y-114711961D02*
X194471521Y-114616723D01*
X194471521Y-114616723D02*
X194423902Y-114426247D01*
X194423902Y-114426247D02*
X194423902Y-114283390D01*
X194423902Y-114283390D02*
X194471521Y-114092914D01*
X194471521Y-114092914D02*
X194519140Y-113997676D01*
X194519140Y-113997676D02*
X194614378Y-113902438D01*
X194614378Y-113902438D02*
X194757235Y-113854819D01*
X194757235Y-113854819D02*
X194852473Y-113854819D01*
X194852473Y-113854819D02*
X194995330Y-113902438D01*
X194995330Y-113902438D02*
X195042949Y-113950057D01*
X195423902Y-113950057D02*
X195471521Y-113902438D01*
X195471521Y-113902438D02*
X195566759Y-113854819D01*
X195566759Y-113854819D02*
X195804854Y-113854819D01*
X195804854Y-113854819D02*
X195900092Y-113902438D01*
X195900092Y-113902438D02*
X195947711Y-113950057D01*
X195947711Y-113950057D02*
X195995330Y-114045295D01*
X195995330Y-114045295D02*
X195995330Y-114140533D01*
X195995330Y-114140533D02*
X195947711Y-114283390D01*
X195947711Y-114283390D02*
X195376283Y-114854819D01*
X195376283Y-114854819D02*
X195995330Y-114854819D01*
X196614378Y-113854819D02*
X196709616Y-113854819D01*
X196709616Y-113854819D02*
X196804854Y-113902438D01*
X196804854Y-113902438D02*
X196852473Y-113950057D01*
X196852473Y-113950057D02*
X196900092Y-114045295D01*
X196900092Y-114045295D02*
X196947711Y-114235771D01*
X196947711Y-114235771D02*
X196947711Y-114473866D01*
X196947711Y-114473866D02*
X196900092Y-114664342D01*
X196900092Y-114664342D02*
X196852473Y-114759580D01*
X196852473Y-114759580D02*
X196804854Y-114807200D01*
X196804854Y-114807200D02*
X196709616Y-114854819D01*
X196709616Y-114854819D02*
X196614378Y-114854819D01*
X196614378Y-114854819D02*
X196519140Y-114807200D01*
X196519140Y-114807200D02*
X196471521Y-114759580D01*
X196471521Y-114759580D02*
X196423902Y-114664342D01*
X196423902Y-114664342D02*
X196376283Y-114473866D01*
X196376283Y-114473866D02*
X196376283Y-114235771D01*
X196376283Y-114235771D02*
X196423902Y-114045295D01*
X196423902Y-114045295D02*
X196471521Y-113950057D01*
X196471521Y-113950057D02*
X196519140Y-113902438D01*
X196519140Y-113902438D02*
X196614378Y-113854819D01*
X155233333Y-92554819D02*
X154900000Y-92078628D01*
X154661905Y-92554819D02*
X154661905Y-91554819D01*
X154661905Y-91554819D02*
X155042857Y-91554819D01*
X155042857Y-91554819D02*
X155138095Y-91602438D01*
X155138095Y-91602438D02*
X155185714Y-91650057D01*
X155185714Y-91650057D02*
X155233333Y-91745295D01*
X155233333Y-91745295D02*
X155233333Y-91888152D01*
X155233333Y-91888152D02*
X155185714Y-91983390D01*
X155185714Y-91983390D02*
X155138095Y-92031009D01*
X155138095Y-92031009D02*
X155042857Y-92078628D01*
X155042857Y-92078628D02*
X154661905Y-92078628D01*
X156185714Y-92554819D02*
X155614286Y-92554819D01*
X155900000Y-92554819D02*
X155900000Y-91554819D01*
X155900000Y-91554819D02*
X155804762Y-91697676D01*
X155804762Y-91697676D02*
X155709524Y-91792914D01*
X155709524Y-91792914D02*
X155614286Y-91840533D01*
D11*
X123790476Y-105854663D02*
X124457142Y-105854663D01*
X124457142Y-105854663D02*
X123790476Y-106854663D01*
X123790476Y-106854663D02*
X124457142Y-106854663D01*
X124790476Y-105949901D02*
X124838095Y-105902282D01*
X124838095Y-105902282D02*
X124933333Y-105854663D01*
X124933333Y-105854663D02*
X125171428Y-105854663D01*
X125171428Y-105854663D02*
X125266666Y-105902282D01*
X125266666Y-105902282D02*
X125314285Y-105949901D01*
X125314285Y-105949901D02*
X125361904Y-106045139D01*
X125361904Y-106045139D02*
X125361904Y-106140377D01*
X125361904Y-106140377D02*
X125314285Y-106283234D01*
X125314285Y-106283234D02*
X124742857Y-106854663D01*
X124742857Y-106854663D02*
X125361904Y-106854663D01*
D12*
X117290476Y-86954819D02*
X117290476Y-87669104D01*
X117290476Y-87669104D02*
X117242857Y-87811961D01*
X117242857Y-87811961D02*
X117147619Y-87907200D01*
X117147619Y-87907200D02*
X117004762Y-87954819D01*
X117004762Y-87954819D02*
X116909524Y-87954819D01*
X117719048Y-87050057D02*
X117766667Y-87002438D01*
X117766667Y-87002438D02*
X117861905Y-86954819D01*
X117861905Y-86954819D02*
X118100000Y-86954819D01*
X118100000Y-86954819D02*
X118195238Y-87002438D01*
X118195238Y-87002438D02*
X118242857Y-87050057D01*
X118242857Y-87050057D02*
X118290476Y-87145295D01*
X118290476Y-87145295D02*
X118290476Y-87240533D01*
X118290476Y-87240533D02*
X118242857Y-87383390D01*
X118242857Y-87383390D02*
X117671429Y-87954819D01*
X117671429Y-87954819D02*
X118290476Y-87954819D01*
X119147619Y-87288152D02*
X119147619Y-87954819D01*
X118909524Y-86907200D02*
X118671429Y-87621485D01*
X118671429Y-87621485D02*
X119290476Y-87621485D01*
X197007142Y-120759580D02*
X196959523Y-120807200D01*
X196959523Y-120807200D02*
X196816666Y-120854819D01*
X196816666Y-120854819D02*
X196721428Y-120854819D01*
X196721428Y-120854819D02*
X196578571Y-120807200D01*
X196578571Y-120807200D02*
X196483333Y-120711961D01*
X196483333Y-120711961D02*
X196435714Y-120616723D01*
X196435714Y-120616723D02*
X196388095Y-120426247D01*
X196388095Y-120426247D02*
X196388095Y-120283390D01*
X196388095Y-120283390D02*
X196435714Y-120092914D01*
X196435714Y-120092914D02*
X196483333Y-119997676D01*
X196483333Y-119997676D02*
X196578571Y-119902438D01*
X196578571Y-119902438D02*
X196721428Y-119854819D01*
X196721428Y-119854819D02*
X196816666Y-119854819D01*
X196816666Y-119854819D02*
X196959523Y-119902438D01*
X196959523Y-119902438D02*
X197007142Y-119950057D01*
X197959523Y-120854819D02*
X197388095Y-120854819D01*
X197673809Y-120854819D02*
X197673809Y-119854819D01*
X197673809Y-119854819D02*
X197578571Y-119997676D01*
X197578571Y-119997676D02*
X197483333Y-120092914D01*
X197483333Y-120092914D02*
X197388095Y-120140533D01*
X198864285Y-119854819D02*
X198388095Y-119854819D01*
X198388095Y-119854819D02*
X198340476Y-120331009D01*
X198340476Y-120331009D02*
X198388095Y-120283390D01*
X198388095Y-120283390D02*
X198483333Y-120235771D01*
X198483333Y-120235771D02*
X198721428Y-120235771D01*
X198721428Y-120235771D02*
X198816666Y-120283390D01*
X198816666Y-120283390D02*
X198864285Y-120331009D01*
X198864285Y-120331009D02*
X198911904Y-120426247D01*
X198911904Y-120426247D02*
X198911904Y-120664342D01*
X198911904Y-120664342D02*
X198864285Y-120759580D01*
X198864285Y-120759580D02*
X198816666Y-120807200D01*
X198816666Y-120807200D02*
X198721428Y-120854819D01*
X198721428Y-120854819D02*
X198483333Y-120854819D01*
X198483333Y-120854819D02*
X198388095Y-120807200D01*
X198388095Y-120807200D02*
X198340476Y-120759580D01*
D11*
X202930853Y-103219047D02*
X202930853Y-103552380D01*
X203454663Y-103552380D02*
X202454663Y-103552380D01*
X202454663Y-103552380D02*
X202454663Y-103076190D01*
X203454663Y-102219047D02*
X203454663Y-102695237D01*
X203454663Y-102695237D02*
X202454663Y-102695237D01*
X202454663Y-102028570D02*
X202454663Y-101457142D01*
X203454663Y-101742856D02*
X202454663Y-101742856D01*
X203454663Y-100599999D02*
X203454663Y-101171427D01*
X203454663Y-100885713D02*
X202454663Y-100885713D01*
X202454663Y-100885713D02*
X202597520Y-100980951D01*
X202597520Y-100980951D02*
X202692758Y-101076189D01*
X202692758Y-101076189D02*
X202740377Y-101171427D01*
D12*
X179583333Y-94609580D02*
X179535714Y-94657200D01*
X179535714Y-94657200D02*
X179392857Y-94704819D01*
X179392857Y-94704819D02*
X179297619Y-94704819D01*
X179297619Y-94704819D02*
X179154762Y-94657200D01*
X179154762Y-94657200D02*
X179059524Y-94561961D01*
X179059524Y-94561961D02*
X179011905Y-94466723D01*
X179011905Y-94466723D02*
X178964286Y-94276247D01*
X178964286Y-94276247D02*
X178964286Y-94133390D01*
X178964286Y-94133390D02*
X179011905Y-93942914D01*
X179011905Y-93942914D02*
X179059524Y-93847676D01*
X179059524Y-93847676D02*
X179154762Y-93752438D01*
X179154762Y-93752438D02*
X179297619Y-93704819D01*
X179297619Y-93704819D02*
X179392857Y-93704819D01*
X179392857Y-93704819D02*
X179535714Y-93752438D01*
X179535714Y-93752438D02*
X179583333Y-93800057D01*
X180440476Y-94038152D02*
X180440476Y-94704819D01*
X180202381Y-93657200D02*
X179964286Y-94371485D01*
X179964286Y-94371485D02*
X180583333Y-94371485D01*
X167804819Y-96330357D02*
X167328628Y-96663690D01*
X167804819Y-96901785D02*
X166804819Y-96901785D01*
X166804819Y-96901785D02*
X166804819Y-96520833D01*
X166804819Y-96520833D02*
X166852438Y-96425595D01*
X166852438Y-96425595D02*
X166900057Y-96377976D01*
X166900057Y-96377976D02*
X166995295Y-96330357D01*
X166995295Y-96330357D02*
X167138152Y-96330357D01*
X167138152Y-96330357D02*
X167233390Y-96377976D01*
X167233390Y-96377976D02*
X167281009Y-96425595D01*
X167281009Y-96425595D02*
X167328628Y-96520833D01*
X167328628Y-96520833D02*
X167328628Y-96901785D01*
X167804819Y-95377976D02*
X167804819Y-95949404D01*
X167804819Y-95663690D02*
X166804819Y-95663690D01*
X166804819Y-95663690D02*
X166947676Y-95758928D01*
X166947676Y-95758928D02*
X167042914Y-95854166D01*
X167042914Y-95854166D02*
X167090533Y-95949404D01*
X167804819Y-94425595D02*
X167804819Y-94997023D01*
X167804819Y-94711309D02*
X166804819Y-94711309D01*
X166804819Y-94711309D02*
X166947676Y-94806547D01*
X166947676Y-94806547D02*
X167042914Y-94901785D01*
X167042914Y-94901785D02*
X167090533Y-94997023D01*
X179583333Y-97059580D02*
X179535714Y-97107200D01*
X179535714Y-97107200D02*
X179392857Y-97154819D01*
X179392857Y-97154819D02*
X179297619Y-97154819D01*
X179297619Y-97154819D02*
X179154762Y-97107200D01*
X179154762Y-97107200D02*
X179059524Y-97011961D01*
X179059524Y-97011961D02*
X179011905Y-96916723D01*
X179011905Y-96916723D02*
X178964286Y-96726247D01*
X178964286Y-96726247D02*
X178964286Y-96583390D01*
X178964286Y-96583390D02*
X179011905Y-96392914D01*
X179011905Y-96392914D02*
X179059524Y-96297676D01*
X179059524Y-96297676D02*
X179154762Y-96202438D01*
X179154762Y-96202438D02*
X179297619Y-96154819D01*
X179297619Y-96154819D02*
X179392857Y-96154819D01*
X179392857Y-96154819D02*
X179535714Y-96202438D01*
X179535714Y-96202438D02*
X179583333Y-96250057D01*
X179916667Y-96154819D02*
X180535714Y-96154819D01*
X180535714Y-96154819D02*
X180202381Y-96535771D01*
X180202381Y-96535771D02*
X180345238Y-96535771D01*
X180345238Y-96535771D02*
X180440476Y-96583390D01*
X180440476Y-96583390D02*
X180488095Y-96631009D01*
X180488095Y-96631009D02*
X180535714Y-96726247D01*
X180535714Y-96726247D02*
X180535714Y-96964342D01*
X180535714Y-96964342D02*
X180488095Y-97059580D01*
X180488095Y-97059580D02*
X180440476Y-97107200D01*
X180440476Y-97107200D02*
X180345238Y-97154819D01*
X180345238Y-97154819D02*
X180059524Y-97154819D01*
X180059524Y-97154819D02*
X179964286Y-97107200D01*
X179964286Y-97107200D02*
X179916667Y-97059580D01*
X188359580Y-88866666D02*
X188407200Y-88914285D01*
X188407200Y-88914285D02*
X188454819Y-89057142D01*
X188454819Y-89057142D02*
X188454819Y-89152380D01*
X188454819Y-89152380D02*
X188407200Y-89295237D01*
X188407200Y-89295237D02*
X188311961Y-89390475D01*
X188311961Y-89390475D02*
X188216723Y-89438094D01*
X188216723Y-89438094D02*
X188026247Y-89485713D01*
X188026247Y-89485713D02*
X187883390Y-89485713D01*
X187883390Y-89485713D02*
X187692914Y-89438094D01*
X187692914Y-89438094D02*
X187597676Y-89390475D01*
X187597676Y-89390475D02*
X187502438Y-89295237D01*
X187502438Y-89295237D02*
X187454819Y-89152380D01*
X187454819Y-89152380D02*
X187454819Y-89057142D01*
X187454819Y-89057142D02*
X187502438Y-88914285D01*
X187502438Y-88914285D02*
X187550057Y-88866666D01*
X188454819Y-87914285D02*
X188454819Y-88485713D01*
X188454819Y-88199999D02*
X187454819Y-88199999D01*
X187454819Y-88199999D02*
X187597676Y-88295237D01*
X187597676Y-88295237D02*
X187692914Y-88390475D01*
X187692914Y-88390475D02*
X187740533Y-88485713D01*
D11*
X192452381Y-91754663D02*
X192642857Y-91754663D01*
X192642857Y-91754663D02*
X192738095Y-91802282D01*
X192738095Y-91802282D02*
X192833333Y-91897520D01*
X192833333Y-91897520D02*
X192880952Y-92087996D01*
X192880952Y-92087996D02*
X192880952Y-92421329D01*
X192880952Y-92421329D02*
X192833333Y-92611805D01*
X192833333Y-92611805D02*
X192738095Y-92707044D01*
X192738095Y-92707044D02*
X192642857Y-92754663D01*
X192642857Y-92754663D02*
X192452381Y-92754663D01*
X192452381Y-92754663D02*
X192357143Y-92707044D01*
X192357143Y-92707044D02*
X192261905Y-92611805D01*
X192261905Y-92611805D02*
X192214286Y-92421329D01*
X192214286Y-92421329D02*
X192214286Y-92087996D01*
X192214286Y-92087996D02*
X192261905Y-91897520D01*
X192261905Y-91897520D02*
X192357143Y-91802282D01*
X192357143Y-91802282D02*
X192452381Y-91754663D01*
X193261905Y-92707044D02*
X193404762Y-92754663D01*
X193404762Y-92754663D02*
X193642857Y-92754663D01*
X193642857Y-92754663D02*
X193738095Y-92707044D01*
X193738095Y-92707044D02*
X193785714Y-92659424D01*
X193785714Y-92659424D02*
X193833333Y-92564186D01*
X193833333Y-92564186D02*
X193833333Y-92468948D01*
X193833333Y-92468948D02*
X193785714Y-92373710D01*
X193785714Y-92373710D02*
X193738095Y-92326091D01*
X193738095Y-92326091D02*
X193642857Y-92278472D01*
X193642857Y-92278472D02*
X193452381Y-92230853D01*
X193452381Y-92230853D02*
X193357143Y-92183234D01*
X193357143Y-92183234D02*
X193309524Y-92135615D01*
X193309524Y-92135615D02*
X193261905Y-92040377D01*
X193261905Y-92040377D02*
X193261905Y-91945139D01*
X193261905Y-91945139D02*
X193309524Y-91849901D01*
X193309524Y-91849901D02*
X193357143Y-91802282D01*
X193357143Y-91802282D02*
X193452381Y-91754663D01*
X193452381Y-91754663D02*
X193690476Y-91754663D01*
X193690476Y-91754663D02*
X193833333Y-91802282D01*
X194214286Y-91849901D02*
X194261905Y-91802282D01*
X194261905Y-91802282D02*
X194357143Y-91754663D01*
X194357143Y-91754663D02*
X194595238Y-91754663D01*
X194595238Y-91754663D02*
X194690476Y-91802282D01*
X194690476Y-91802282D02*
X194738095Y-91849901D01*
X194738095Y-91849901D02*
X194785714Y-91945139D01*
X194785714Y-91945139D02*
X194785714Y-92040377D01*
X194785714Y-92040377D02*
X194738095Y-92183234D01*
X194738095Y-92183234D02*
X194166667Y-92754663D01*
X194166667Y-92754663D02*
X194785714Y-92754663D01*
D12*
X195042949Y-117051208D02*
X194995330Y-117098828D01*
X194995330Y-117098828D02*
X194852473Y-117146447D01*
X194852473Y-117146447D02*
X194757235Y-117146447D01*
X194757235Y-117146447D02*
X194614378Y-117098828D01*
X194614378Y-117098828D02*
X194519140Y-117003589D01*
X194519140Y-117003589D02*
X194471521Y-116908351D01*
X194471521Y-116908351D02*
X194423902Y-116717875D01*
X194423902Y-116717875D02*
X194423902Y-116575018D01*
X194423902Y-116575018D02*
X194471521Y-116384542D01*
X194471521Y-116384542D02*
X194519140Y-116289304D01*
X194519140Y-116289304D02*
X194614378Y-116194066D01*
X194614378Y-116194066D02*
X194757235Y-116146447D01*
X194757235Y-116146447D02*
X194852473Y-116146447D01*
X194852473Y-116146447D02*
X194995330Y-116194066D01*
X194995330Y-116194066D02*
X195042949Y-116241685D01*
X195995330Y-117146447D02*
X195423902Y-117146447D01*
X195709616Y-117146447D02*
X195709616Y-116146447D01*
X195709616Y-116146447D02*
X195614378Y-116289304D01*
X195614378Y-116289304D02*
X195519140Y-116384542D01*
X195519140Y-116384542D02*
X195423902Y-116432161D01*
X196566759Y-116575018D02*
X196471521Y-116527399D01*
X196471521Y-116527399D02*
X196423902Y-116479780D01*
X196423902Y-116479780D02*
X196376283Y-116384542D01*
X196376283Y-116384542D02*
X196376283Y-116336923D01*
X196376283Y-116336923D02*
X196423902Y-116241685D01*
X196423902Y-116241685D02*
X196471521Y-116194066D01*
X196471521Y-116194066D02*
X196566759Y-116146447D01*
X196566759Y-116146447D02*
X196757235Y-116146447D01*
X196757235Y-116146447D02*
X196852473Y-116194066D01*
X196852473Y-116194066D02*
X196900092Y-116241685D01*
X196900092Y-116241685D02*
X196947711Y-116336923D01*
X196947711Y-116336923D02*
X196947711Y-116384542D01*
X196947711Y-116384542D02*
X196900092Y-116479780D01*
X196900092Y-116479780D02*
X196852473Y-116527399D01*
X196852473Y-116527399D02*
X196757235Y-116575018D01*
X196757235Y-116575018D02*
X196566759Y-116575018D01*
X196566759Y-116575018D02*
X196471521Y-116622637D01*
X196471521Y-116622637D02*
X196423902Y-116670256D01*
X196423902Y-116670256D02*
X196376283Y-116765494D01*
X196376283Y-116765494D02*
X196376283Y-116955970D01*
X196376283Y-116955970D02*
X196423902Y-117051208D01*
X196423902Y-117051208D02*
X196471521Y-117098828D01*
X196471521Y-117098828D02*
X196566759Y-117146447D01*
X196566759Y-117146447D02*
X196757235Y-117146447D01*
X196757235Y-117146447D02*
X196852473Y-117098828D01*
X196852473Y-117098828D02*
X196900092Y-117051208D01*
X196900092Y-117051208D02*
X196947711Y-116955970D01*
X196947711Y-116955970D02*
X196947711Y-116765494D01*
X196947711Y-116765494D02*
X196900092Y-116670256D01*
X196900092Y-116670256D02*
X196852473Y-116622637D01*
X196852473Y-116622637D02*
X196757235Y-116575018D01*
X141259580Y-103566666D02*
X141307200Y-103614285D01*
X141307200Y-103614285D02*
X141354819Y-103757142D01*
X141354819Y-103757142D02*
X141354819Y-103852380D01*
X141354819Y-103852380D02*
X141307200Y-103995237D01*
X141307200Y-103995237D02*
X141211961Y-104090475D01*
X141211961Y-104090475D02*
X141116723Y-104138094D01*
X141116723Y-104138094D02*
X140926247Y-104185713D01*
X140926247Y-104185713D02*
X140783390Y-104185713D01*
X140783390Y-104185713D02*
X140592914Y-104138094D01*
X140592914Y-104138094D02*
X140497676Y-104090475D01*
X140497676Y-104090475D02*
X140402438Y-103995237D01*
X140402438Y-103995237D02*
X140354819Y-103852380D01*
X140354819Y-103852380D02*
X140354819Y-103757142D01*
X140354819Y-103757142D02*
X140402438Y-103614285D01*
X140402438Y-103614285D02*
X140450057Y-103566666D01*
X141354819Y-103090475D02*
X141354819Y-102899999D01*
X141354819Y-102899999D02*
X141307200Y-102804761D01*
X141307200Y-102804761D02*
X141259580Y-102757142D01*
X141259580Y-102757142D02*
X141116723Y-102661904D01*
X141116723Y-102661904D02*
X140926247Y-102614285D01*
X140926247Y-102614285D02*
X140545295Y-102614285D01*
X140545295Y-102614285D02*
X140450057Y-102661904D01*
X140450057Y-102661904D02*
X140402438Y-102709523D01*
X140402438Y-102709523D02*
X140354819Y-102804761D01*
X140354819Y-102804761D02*
X140354819Y-102995237D01*
X140354819Y-102995237D02*
X140402438Y-103090475D01*
X140402438Y-103090475D02*
X140450057Y-103138094D01*
X140450057Y-103138094D02*
X140545295Y-103185713D01*
X140545295Y-103185713D02*
X140783390Y-103185713D01*
X140783390Y-103185713D02*
X140878628Y-103138094D01*
X140878628Y-103138094D02*
X140926247Y-103090475D01*
X140926247Y-103090475D02*
X140973866Y-102995237D01*
X140973866Y-102995237D02*
X140973866Y-102804761D01*
X140973866Y-102804761D02*
X140926247Y-102709523D01*
X140926247Y-102709523D02*
X140878628Y-102661904D01*
X140878628Y-102661904D02*
X140783390Y-102614285D01*
D11*
X173891666Y-123330853D02*
X173558333Y-123330853D01*
X173558333Y-123854663D02*
X173558333Y-122854663D01*
X173558333Y-122854663D02*
X174034523Y-122854663D01*
X174415476Y-123854663D02*
X174415476Y-122854663D01*
X174415476Y-122854663D02*
X174796428Y-122854663D01*
X174796428Y-122854663D02*
X174891666Y-122902282D01*
X174891666Y-122902282D02*
X174939285Y-122949901D01*
X174939285Y-122949901D02*
X174986904Y-123045139D01*
X174986904Y-123045139D02*
X174986904Y-123187996D01*
X174986904Y-123187996D02*
X174939285Y-123283234D01*
X174939285Y-123283234D02*
X174891666Y-123330853D01*
X174891666Y-123330853D02*
X174796428Y-123378472D01*
X174796428Y-123378472D02*
X174415476Y-123378472D01*
X175986904Y-123759424D02*
X175939285Y-123807044D01*
X175939285Y-123807044D02*
X175796428Y-123854663D01*
X175796428Y-123854663D02*
X175701190Y-123854663D01*
X175701190Y-123854663D02*
X175558333Y-123807044D01*
X175558333Y-123807044D02*
X175463095Y-123711805D01*
X175463095Y-123711805D02*
X175415476Y-123616567D01*
X175415476Y-123616567D02*
X175367857Y-123426091D01*
X175367857Y-123426091D02*
X175367857Y-123283234D01*
X175367857Y-123283234D02*
X175415476Y-123092758D01*
X175415476Y-123092758D02*
X175463095Y-122997520D01*
X175463095Y-122997520D02*
X175558333Y-122902282D01*
X175558333Y-122902282D02*
X175701190Y-122854663D01*
X175701190Y-122854663D02*
X175796428Y-122854663D01*
X175796428Y-122854663D02*
X175939285Y-122902282D01*
X175939285Y-122902282D02*
X175986904Y-122949901D01*
X176939285Y-123854663D02*
X176367857Y-123854663D01*
X176653571Y-123854663D02*
X176653571Y-122854663D01*
X176653571Y-122854663D02*
X176558333Y-122997520D01*
X176558333Y-122997520D02*
X176463095Y-123092758D01*
X176463095Y-123092758D02*
X176367857Y-123140377D01*
D12*
X112957142Y-102959580D02*
X112909523Y-103007200D01*
X112909523Y-103007200D02*
X112766666Y-103054819D01*
X112766666Y-103054819D02*
X112671428Y-103054819D01*
X112671428Y-103054819D02*
X112528571Y-103007200D01*
X112528571Y-103007200D02*
X112433333Y-102911961D01*
X112433333Y-102911961D02*
X112385714Y-102816723D01*
X112385714Y-102816723D02*
X112338095Y-102626247D01*
X112338095Y-102626247D02*
X112338095Y-102483390D01*
X112338095Y-102483390D02*
X112385714Y-102292914D01*
X112385714Y-102292914D02*
X112433333Y-102197676D01*
X112433333Y-102197676D02*
X112528571Y-102102438D01*
X112528571Y-102102438D02*
X112671428Y-102054819D01*
X112671428Y-102054819D02*
X112766666Y-102054819D01*
X112766666Y-102054819D02*
X112909523Y-102102438D01*
X112909523Y-102102438D02*
X112957142Y-102150057D01*
X113338095Y-102150057D02*
X113385714Y-102102438D01*
X113385714Y-102102438D02*
X113480952Y-102054819D01*
X113480952Y-102054819D02*
X113719047Y-102054819D01*
X113719047Y-102054819D02*
X113814285Y-102102438D01*
X113814285Y-102102438D02*
X113861904Y-102150057D01*
X113861904Y-102150057D02*
X113909523Y-102245295D01*
X113909523Y-102245295D02*
X113909523Y-102340533D01*
X113909523Y-102340533D02*
X113861904Y-102483390D01*
X113861904Y-102483390D02*
X113290476Y-103054819D01*
X113290476Y-103054819D02*
X113909523Y-103054819D01*
X114242857Y-102054819D02*
X114909523Y-102054819D01*
X114909523Y-102054819D02*
X114480952Y-103054819D01*
D11*
X161304167Y-86854663D02*
X161304167Y-85854663D01*
X161304167Y-85854663D02*
X161637500Y-86568948D01*
X161637500Y-86568948D02*
X161970833Y-85854663D01*
X161970833Y-85854663D02*
X161970833Y-86854663D01*
X162447024Y-86330853D02*
X162780357Y-86330853D01*
X162923214Y-86854663D02*
X162447024Y-86854663D01*
X162447024Y-86854663D02*
X162447024Y-85854663D01*
X162447024Y-85854663D02*
X162923214Y-85854663D01*
X163351786Y-86854663D02*
X163351786Y-85854663D01*
X163351786Y-85854663D02*
X163685119Y-86568948D01*
X163685119Y-86568948D02*
X164018452Y-85854663D01*
X164018452Y-85854663D02*
X164018452Y-86854663D01*
X165018452Y-86854663D02*
X164447024Y-86854663D01*
X164732738Y-86854663D02*
X164732738Y-85854663D01*
X164732738Y-85854663D02*
X164637500Y-85997520D01*
X164637500Y-85997520D02*
X164542262Y-86092758D01*
X164542262Y-86092758D02*
X164447024Y-86140377D01*
D12*
X126133333Y-113154819D02*
X125800000Y-112678628D01*
X125561905Y-113154819D02*
X125561905Y-112154819D01*
X125561905Y-112154819D02*
X125942857Y-112154819D01*
X125942857Y-112154819D02*
X126038095Y-112202438D01*
X126038095Y-112202438D02*
X126085714Y-112250057D01*
X126085714Y-112250057D02*
X126133333Y-112345295D01*
X126133333Y-112345295D02*
X126133333Y-112488152D01*
X126133333Y-112488152D02*
X126085714Y-112583390D01*
X126085714Y-112583390D02*
X126038095Y-112631009D01*
X126038095Y-112631009D02*
X125942857Y-112678628D01*
X125942857Y-112678628D02*
X125561905Y-112678628D01*
X126466667Y-112154819D02*
X127133333Y-112154819D01*
X127133333Y-112154819D02*
X126704762Y-113154819D01*
X189933333Y-95254819D02*
X189457143Y-95254819D01*
X189457143Y-95254819D02*
X189457143Y-94254819D01*
X190219048Y-94350057D02*
X190266667Y-94302438D01*
X190266667Y-94302438D02*
X190361905Y-94254819D01*
X190361905Y-94254819D02*
X190600000Y-94254819D01*
X190600000Y-94254819D02*
X190695238Y-94302438D01*
X190695238Y-94302438D02*
X190742857Y-94350057D01*
X190742857Y-94350057D02*
X190790476Y-94445295D01*
X190790476Y-94445295D02*
X190790476Y-94540533D01*
X190790476Y-94540533D02*
X190742857Y-94683390D01*
X190742857Y-94683390D02*
X190171429Y-95254819D01*
X190171429Y-95254819D02*
X190790476Y-95254819D01*
X137257142Y-111859580D02*
X137209523Y-111907200D01*
X137209523Y-111907200D02*
X137066666Y-111954819D01*
X137066666Y-111954819D02*
X136971428Y-111954819D01*
X136971428Y-111954819D02*
X136828571Y-111907200D01*
X136828571Y-111907200D02*
X136733333Y-111811961D01*
X136733333Y-111811961D02*
X136685714Y-111716723D01*
X136685714Y-111716723D02*
X136638095Y-111526247D01*
X136638095Y-111526247D02*
X136638095Y-111383390D01*
X136638095Y-111383390D02*
X136685714Y-111192914D01*
X136685714Y-111192914D02*
X136733333Y-111097676D01*
X136733333Y-111097676D02*
X136828571Y-111002438D01*
X136828571Y-111002438D02*
X136971428Y-110954819D01*
X136971428Y-110954819D02*
X137066666Y-110954819D01*
X137066666Y-110954819D02*
X137209523Y-111002438D01*
X137209523Y-111002438D02*
X137257142Y-111050057D01*
X138209523Y-111954819D02*
X137638095Y-111954819D01*
X137923809Y-111954819D02*
X137923809Y-110954819D01*
X137923809Y-110954819D02*
X137828571Y-111097676D01*
X137828571Y-111097676D02*
X137733333Y-111192914D01*
X137733333Y-111192914D02*
X137638095Y-111240533D01*
X138590476Y-111050057D02*
X138638095Y-111002438D01*
X138638095Y-111002438D02*
X138733333Y-110954819D01*
X138733333Y-110954819D02*
X138971428Y-110954819D01*
X138971428Y-110954819D02*
X139066666Y-111002438D01*
X139066666Y-111002438D02*
X139114285Y-111050057D01*
X139114285Y-111050057D02*
X139161904Y-111145295D01*
X139161904Y-111145295D02*
X139161904Y-111240533D01*
X139161904Y-111240533D02*
X139114285Y-111383390D01*
X139114285Y-111383390D02*
X138542857Y-111954819D01*
X138542857Y-111954819D02*
X139161904Y-111954819D01*
X174733333Y-91654819D02*
X174400000Y-91178628D01*
X174161905Y-91654819D02*
X174161905Y-90654819D01*
X174161905Y-90654819D02*
X174542857Y-90654819D01*
X174542857Y-90654819D02*
X174638095Y-90702438D01*
X174638095Y-90702438D02*
X174685714Y-90750057D01*
X174685714Y-90750057D02*
X174733333Y-90845295D01*
X174733333Y-90845295D02*
X174733333Y-90988152D01*
X174733333Y-90988152D02*
X174685714Y-91083390D01*
X174685714Y-91083390D02*
X174638095Y-91131009D01*
X174638095Y-91131009D02*
X174542857Y-91178628D01*
X174542857Y-91178628D02*
X174161905Y-91178628D01*
X175114286Y-90750057D02*
X175161905Y-90702438D01*
X175161905Y-90702438D02*
X175257143Y-90654819D01*
X175257143Y-90654819D02*
X175495238Y-90654819D01*
X175495238Y-90654819D02*
X175590476Y-90702438D01*
X175590476Y-90702438D02*
X175638095Y-90750057D01*
X175638095Y-90750057D02*
X175685714Y-90845295D01*
X175685714Y-90845295D02*
X175685714Y-90940533D01*
X175685714Y-90940533D02*
X175638095Y-91083390D01*
X175638095Y-91083390D02*
X175066667Y-91654819D01*
X175066667Y-91654819D02*
X175685714Y-91654819D01*
X132959580Y-109766666D02*
X133007200Y-109814285D01*
X133007200Y-109814285D02*
X133054819Y-109957142D01*
X133054819Y-109957142D02*
X133054819Y-110052380D01*
X133054819Y-110052380D02*
X133007200Y-110195237D01*
X133007200Y-110195237D02*
X132911961Y-110290475D01*
X132911961Y-110290475D02*
X132816723Y-110338094D01*
X132816723Y-110338094D02*
X132626247Y-110385713D01*
X132626247Y-110385713D02*
X132483390Y-110385713D01*
X132483390Y-110385713D02*
X132292914Y-110338094D01*
X132292914Y-110338094D02*
X132197676Y-110290475D01*
X132197676Y-110290475D02*
X132102438Y-110195237D01*
X132102438Y-110195237D02*
X132054819Y-110052380D01*
X132054819Y-110052380D02*
X132054819Y-109957142D01*
X132054819Y-109957142D02*
X132102438Y-109814285D01*
X132102438Y-109814285D02*
X132150057Y-109766666D01*
X132054819Y-109433332D02*
X132054819Y-108766666D01*
X132054819Y-108766666D02*
X133054819Y-109195237D01*
D11*
X136849901Y-90795238D02*
X136802282Y-90890476D01*
X136802282Y-90890476D02*
X136707044Y-90985714D01*
X136707044Y-90985714D02*
X136564186Y-91128571D01*
X136564186Y-91128571D02*
X136516567Y-91223809D01*
X136516567Y-91223809D02*
X136516567Y-91319047D01*
X136754663Y-91271428D02*
X136707044Y-91366666D01*
X136707044Y-91366666D02*
X136611805Y-91461904D01*
X136611805Y-91461904D02*
X136421329Y-91509523D01*
X136421329Y-91509523D02*
X136087996Y-91509523D01*
X136087996Y-91509523D02*
X135897520Y-91461904D01*
X135897520Y-91461904D02*
X135802282Y-91366666D01*
X135802282Y-91366666D02*
X135754663Y-91271428D01*
X135754663Y-91271428D02*
X135754663Y-91080952D01*
X135754663Y-91080952D02*
X135802282Y-90985714D01*
X135802282Y-90985714D02*
X135897520Y-90890476D01*
X135897520Y-90890476D02*
X136087996Y-90842857D01*
X136087996Y-90842857D02*
X136421329Y-90842857D01*
X136421329Y-90842857D02*
X136611805Y-90890476D01*
X136611805Y-90890476D02*
X136707044Y-90985714D01*
X136707044Y-90985714D02*
X136754663Y-91080952D01*
X136754663Y-91080952D02*
X136754663Y-91271428D01*
X136754663Y-89890476D02*
X136754663Y-90461904D01*
X136754663Y-90176190D02*
X135754663Y-90176190D01*
X135754663Y-90176190D02*
X135897520Y-90271428D01*
X135897520Y-90271428D02*
X135992758Y-90366666D01*
X135992758Y-90366666D02*
X136040377Y-90461904D01*
D12*
X197433333Y-103454819D02*
X196957143Y-103454819D01*
X196957143Y-103454819D02*
X196957143Y-102454819D01*
X198290476Y-103454819D02*
X197719048Y-103454819D01*
X198004762Y-103454819D02*
X198004762Y-102454819D01*
X198004762Y-102454819D02*
X197909524Y-102597676D01*
X197909524Y-102597676D02*
X197814286Y-102692914D01*
X197814286Y-102692914D02*
X197719048Y-102740533D01*
D11*
X118854663Y-83590476D02*
X119568948Y-83590476D01*
X119568948Y-83590476D02*
X119711805Y-83638095D01*
X119711805Y-83638095D02*
X119807044Y-83733333D01*
X119807044Y-83733333D02*
X119854663Y-83876190D01*
X119854663Y-83876190D02*
X119854663Y-83971428D01*
X119807044Y-83161904D02*
X119854663Y-83019047D01*
X119854663Y-83019047D02*
X119854663Y-82780952D01*
X119854663Y-82780952D02*
X119807044Y-82685714D01*
X119807044Y-82685714D02*
X119759424Y-82638095D01*
X119759424Y-82638095D02*
X119664186Y-82590476D01*
X119664186Y-82590476D02*
X119568948Y-82590476D01*
X119568948Y-82590476D02*
X119473710Y-82638095D01*
X119473710Y-82638095D02*
X119426091Y-82685714D01*
X119426091Y-82685714D02*
X119378472Y-82780952D01*
X119378472Y-82780952D02*
X119330853Y-82971428D01*
X119330853Y-82971428D02*
X119283234Y-83066666D01*
X119283234Y-83066666D02*
X119235615Y-83114285D01*
X119235615Y-83114285D02*
X119140377Y-83161904D01*
X119140377Y-83161904D02*
X119045139Y-83161904D01*
X119045139Y-83161904D02*
X118949901Y-83114285D01*
X118949901Y-83114285D02*
X118902282Y-83066666D01*
X118902282Y-83066666D02*
X118854663Y-82971428D01*
X118854663Y-82971428D02*
X118854663Y-82733333D01*
X118854663Y-82733333D02*
X118902282Y-82590476D01*
X118854663Y-82304761D02*
X118854663Y-81733333D01*
X119854663Y-82019047D02*
X118854663Y-82019047D01*
X119854663Y-80876190D02*
X119854663Y-81447618D01*
X119854663Y-81161904D02*
X118854663Y-81161904D01*
X118854663Y-81161904D02*
X118997520Y-81257142D01*
X118997520Y-81257142D02*
X119092758Y-81352380D01*
X119092758Y-81352380D02*
X119140377Y-81447618D01*
D12*
X157534819Y-128433333D02*
X158249104Y-128433333D01*
X158249104Y-128433333D02*
X158391961Y-128480952D01*
X158391961Y-128480952D02*
X158487200Y-128576190D01*
X158487200Y-128576190D02*
X158534819Y-128719047D01*
X158534819Y-128719047D02*
X158534819Y-128814285D01*
X157868152Y-127528571D02*
X158534819Y-127528571D01*
X157487200Y-127766666D02*
X158201485Y-128004761D01*
X158201485Y-128004761D02*
X158201485Y-127385714D01*
X122554819Y-100733333D02*
X123269104Y-100733333D01*
X123269104Y-100733333D02*
X123411961Y-100780952D01*
X123411961Y-100780952D02*
X123507200Y-100876190D01*
X123507200Y-100876190D02*
X123554819Y-101019047D01*
X123554819Y-101019047D02*
X123554819Y-101114285D01*
X122650057Y-100304761D02*
X122602438Y-100257142D01*
X122602438Y-100257142D02*
X122554819Y-100161904D01*
X122554819Y-100161904D02*
X122554819Y-99923809D01*
X122554819Y-99923809D02*
X122602438Y-99828571D01*
X122602438Y-99828571D02*
X122650057Y-99780952D01*
X122650057Y-99780952D02*
X122745295Y-99733333D01*
X122745295Y-99733333D02*
X122840533Y-99733333D01*
X122840533Y-99733333D02*
X122983390Y-99780952D01*
X122983390Y-99780952D02*
X123554819Y-100352380D01*
X123554819Y-100352380D02*
X123554819Y-99733333D01*
X154357142Y-90154819D02*
X154023809Y-89678628D01*
X153785714Y-90154819D02*
X153785714Y-89154819D01*
X153785714Y-89154819D02*
X154166666Y-89154819D01*
X154166666Y-89154819D02*
X154261904Y-89202438D01*
X154261904Y-89202438D02*
X154309523Y-89250057D01*
X154309523Y-89250057D02*
X154357142Y-89345295D01*
X154357142Y-89345295D02*
X154357142Y-89488152D01*
X154357142Y-89488152D02*
X154309523Y-89583390D01*
X154309523Y-89583390D02*
X154261904Y-89631009D01*
X154261904Y-89631009D02*
X154166666Y-89678628D01*
X154166666Y-89678628D02*
X153785714Y-89678628D01*
X155309523Y-90154819D02*
X154738095Y-90154819D01*
X155023809Y-90154819D02*
X155023809Y-89154819D01*
X155023809Y-89154819D02*
X154928571Y-89297676D01*
X154928571Y-89297676D02*
X154833333Y-89392914D01*
X154833333Y-89392914D02*
X154738095Y-89440533D01*
X155690476Y-89250057D02*
X155738095Y-89202438D01*
X155738095Y-89202438D02*
X155833333Y-89154819D01*
X155833333Y-89154819D02*
X156071428Y-89154819D01*
X156071428Y-89154819D02*
X156166666Y-89202438D01*
X156166666Y-89202438D02*
X156214285Y-89250057D01*
X156214285Y-89250057D02*
X156261904Y-89345295D01*
X156261904Y-89345295D02*
X156261904Y-89440533D01*
X156261904Y-89440533D02*
X156214285Y-89583390D01*
X156214285Y-89583390D02*
X155642857Y-90154819D01*
X155642857Y-90154819D02*
X156261904Y-90154819D01*
X173159580Y-85642857D02*
X173207200Y-85690476D01*
X173207200Y-85690476D02*
X173254819Y-85833333D01*
X173254819Y-85833333D02*
X173254819Y-85928571D01*
X173254819Y-85928571D02*
X173207200Y-86071428D01*
X173207200Y-86071428D02*
X173111961Y-86166666D01*
X173111961Y-86166666D02*
X173016723Y-86214285D01*
X173016723Y-86214285D02*
X172826247Y-86261904D01*
X172826247Y-86261904D02*
X172683390Y-86261904D01*
X172683390Y-86261904D02*
X172492914Y-86214285D01*
X172492914Y-86214285D02*
X172397676Y-86166666D01*
X172397676Y-86166666D02*
X172302438Y-86071428D01*
X172302438Y-86071428D02*
X172254819Y-85928571D01*
X172254819Y-85928571D02*
X172254819Y-85833333D01*
X172254819Y-85833333D02*
X172302438Y-85690476D01*
X172302438Y-85690476D02*
X172350057Y-85642857D01*
X173254819Y-84690476D02*
X173254819Y-85261904D01*
X173254819Y-84976190D02*
X172254819Y-84976190D01*
X172254819Y-84976190D02*
X172397676Y-85071428D01*
X172397676Y-85071428D02*
X172492914Y-85166666D01*
X172492914Y-85166666D02*
X172540533Y-85261904D01*
X172254819Y-84357142D02*
X172254819Y-83690476D01*
X172254819Y-83690476D02*
X173254819Y-84119047D01*
X179559580Y-121242857D02*
X179607200Y-121290476D01*
X179607200Y-121290476D02*
X179654819Y-121433333D01*
X179654819Y-121433333D02*
X179654819Y-121528571D01*
X179654819Y-121528571D02*
X179607200Y-121671428D01*
X179607200Y-121671428D02*
X179511961Y-121766666D01*
X179511961Y-121766666D02*
X179416723Y-121814285D01*
X179416723Y-121814285D02*
X179226247Y-121861904D01*
X179226247Y-121861904D02*
X179083390Y-121861904D01*
X179083390Y-121861904D02*
X178892914Y-121814285D01*
X178892914Y-121814285D02*
X178797676Y-121766666D01*
X178797676Y-121766666D02*
X178702438Y-121671428D01*
X178702438Y-121671428D02*
X178654819Y-121528571D01*
X178654819Y-121528571D02*
X178654819Y-121433333D01*
X178654819Y-121433333D02*
X178702438Y-121290476D01*
X178702438Y-121290476D02*
X178750057Y-121242857D01*
X179654819Y-120290476D02*
X179654819Y-120861904D01*
X179654819Y-120576190D02*
X178654819Y-120576190D01*
X178654819Y-120576190D02*
X178797676Y-120671428D01*
X178797676Y-120671428D02*
X178892914Y-120766666D01*
X178892914Y-120766666D02*
X178940533Y-120861904D01*
X178654819Y-119433333D02*
X178654819Y-119623809D01*
X178654819Y-119623809D02*
X178702438Y-119719047D01*
X178702438Y-119719047D02*
X178750057Y-119766666D01*
X178750057Y-119766666D02*
X178892914Y-119861904D01*
X178892914Y-119861904D02*
X179083390Y-119909523D01*
X179083390Y-119909523D02*
X179464342Y-119909523D01*
X179464342Y-119909523D02*
X179559580Y-119861904D01*
X179559580Y-119861904D02*
X179607200Y-119814285D01*
X179607200Y-119814285D02*
X179654819Y-119719047D01*
X179654819Y-119719047D02*
X179654819Y-119528571D01*
X179654819Y-119528571D02*
X179607200Y-119433333D01*
X179607200Y-119433333D02*
X179559580Y-119385714D01*
X179559580Y-119385714D02*
X179464342Y-119338095D01*
X179464342Y-119338095D02*
X179226247Y-119338095D01*
X179226247Y-119338095D02*
X179131009Y-119385714D01*
X179131009Y-119385714D02*
X179083390Y-119433333D01*
X179083390Y-119433333D02*
X179035771Y-119528571D01*
X179035771Y-119528571D02*
X179035771Y-119719047D01*
X179035771Y-119719047D02*
X179083390Y-119814285D01*
X179083390Y-119814285D02*
X179131009Y-119861904D01*
X179131009Y-119861904D02*
X179226247Y-119909523D01*
D11*
X136009523Y-104154663D02*
X135533333Y-104154663D01*
X135533333Y-104154663D02*
X135533333Y-103154663D01*
X136342857Y-104154663D02*
X136342857Y-103154663D01*
X136342857Y-103154663D02*
X136580952Y-103154663D01*
X136580952Y-103154663D02*
X136723809Y-103202282D01*
X136723809Y-103202282D02*
X136819047Y-103297520D01*
X136819047Y-103297520D02*
X136866666Y-103392758D01*
X136866666Y-103392758D02*
X136914285Y-103583234D01*
X136914285Y-103583234D02*
X136914285Y-103726091D01*
X136914285Y-103726091D02*
X136866666Y-103916567D01*
X136866666Y-103916567D02*
X136819047Y-104011805D01*
X136819047Y-104011805D02*
X136723809Y-104107044D01*
X136723809Y-104107044D02*
X136580952Y-104154663D01*
X136580952Y-104154663D02*
X136342857Y-104154663D01*
X137533333Y-103154663D02*
X137723809Y-103154663D01*
X137723809Y-103154663D02*
X137819047Y-103202282D01*
X137819047Y-103202282D02*
X137914285Y-103297520D01*
X137914285Y-103297520D02*
X137961904Y-103487996D01*
X137961904Y-103487996D02*
X137961904Y-103821329D01*
X137961904Y-103821329D02*
X137914285Y-104011805D01*
X137914285Y-104011805D02*
X137819047Y-104107044D01*
X137819047Y-104107044D02*
X137723809Y-104154663D01*
X137723809Y-104154663D02*
X137533333Y-104154663D01*
X137533333Y-104154663D02*
X137438095Y-104107044D01*
X137438095Y-104107044D02*
X137342857Y-104011805D01*
X137342857Y-104011805D02*
X137295238Y-103821329D01*
X137295238Y-103821329D02*
X137295238Y-103487996D01*
X137295238Y-103487996D02*
X137342857Y-103297520D01*
X137342857Y-103297520D02*
X137438095Y-103202282D01*
X137438095Y-103202282D02*
X137533333Y-103154663D01*
X138914285Y-104154663D02*
X138342857Y-104154663D01*
X138628571Y-104154663D02*
X138628571Y-103154663D01*
X138628571Y-103154663D02*
X138533333Y-103297520D01*
X138533333Y-103297520D02*
X138438095Y-103392758D01*
X138438095Y-103392758D02*
X138342857Y-103440377D01*
D12*
X179533333Y-99309580D02*
X179485714Y-99357200D01*
X179485714Y-99357200D02*
X179342857Y-99404819D01*
X179342857Y-99404819D02*
X179247619Y-99404819D01*
X179247619Y-99404819D02*
X179104762Y-99357200D01*
X179104762Y-99357200D02*
X179009524Y-99261961D01*
X179009524Y-99261961D02*
X178961905Y-99166723D01*
X178961905Y-99166723D02*
X178914286Y-98976247D01*
X178914286Y-98976247D02*
X178914286Y-98833390D01*
X178914286Y-98833390D02*
X178961905Y-98642914D01*
X178961905Y-98642914D02*
X179009524Y-98547676D01*
X179009524Y-98547676D02*
X179104762Y-98452438D01*
X179104762Y-98452438D02*
X179247619Y-98404819D01*
X179247619Y-98404819D02*
X179342857Y-98404819D01*
X179342857Y-98404819D02*
X179485714Y-98452438D01*
X179485714Y-98452438D02*
X179533333Y-98500057D01*
X180438095Y-98404819D02*
X179961905Y-98404819D01*
X179961905Y-98404819D02*
X179914286Y-98881009D01*
X179914286Y-98881009D02*
X179961905Y-98833390D01*
X179961905Y-98833390D02*
X180057143Y-98785771D01*
X180057143Y-98785771D02*
X180295238Y-98785771D01*
X180295238Y-98785771D02*
X180390476Y-98833390D01*
X180390476Y-98833390D02*
X180438095Y-98881009D01*
X180438095Y-98881009D02*
X180485714Y-98976247D01*
X180485714Y-98976247D02*
X180485714Y-99214342D01*
X180485714Y-99214342D02*
X180438095Y-99309580D01*
X180438095Y-99309580D02*
X180390476Y-99357200D01*
X180390476Y-99357200D02*
X180295238Y-99404819D01*
X180295238Y-99404819D02*
X180057143Y-99404819D01*
X180057143Y-99404819D02*
X179961905Y-99357200D01*
X179961905Y-99357200D02*
X179914286Y-99309580D01*
D11*
X111066666Y-121454663D02*
X111066666Y-122168948D01*
X111066666Y-122168948D02*
X111019047Y-122311805D01*
X111019047Y-122311805D02*
X110923809Y-122407044D01*
X110923809Y-122407044D02*
X110780952Y-122454663D01*
X110780952Y-122454663D02*
X110685714Y-122454663D01*
X111447619Y-121454663D02*
X112114285Y-121454663D01*
X112114285Y-121454663D02*
X111685714Y-122454663D01*
X155357142Y-119454663D02*
X155023809Y-118978472D01*
X154785714Y-119454663D02*
X154785714Y-118454663D01*
X154785714Y-118454663D02*
X155166666Y-118454663D01*
X155166666Y-118454663D02*
X155261904Y-118502282D01*
X155261904Y-118502282D02*
X155309523Y-118549901D01*
X155309523Y-118549901D02*
X155357142Y-118645139D01*
X155357142Y-118645139D02*
X155357142Y-118787996D01*
X155357142Y-118787996D02*
X155309523Y-118883234D01*
X155309523Y-118883234D02*
X155261904Y-118930853D01*
X155261904Y-118930853D02*
X155166666Y-118978472D01*
X155166666Y-118978472D02*
X154785714Y-118978472D01*
X156309523Y-119454663D02*
X155738095Y-119454663D01*
X156023809Y-119454663D02*
X156023809Y-118454663D01*
X156023809Y-118454663D02*
X155928571Y-118597520D01*
X155928571Y-118597520D02*
X155833333Y-118692758D01*
X155833333Y-118692758D02*
X155738095Y-118740377D01*
X156928571Y-118454663D02*
X157023809Y-118454663D01*
X157023809Y-118454663D02*
X157119047Y-118502282D01*
X157119047Y-118502282D02*
X157166666Y-118549901D01*
X157166666Y-118549901D02*
X157214285Y-118645139D01*
X157214285Y-118645139D02*
X157261904Y-118835615D01*
X157261904Y-118835615D02*
X157261904Y-119073710D01*
X157261904Y-119073710D02*
X157214285Y-119264186D01*
X157214285Y-119264186D02*
X157166666Y-119359424D01*
X157166666Y-119359424D02*
X157119047Y-119407044D01*
X157119047Y-119407044D02*
X157023809Y-119454663D01*
X157023809Y-119454663D02*
X156928571Y-119454663D01*
X156928571Y-119454663D02*
X156833333Y-119407044D01*
X156833333Y-119407044D02*
X156785714Y-119359424D01*
X156785714Y-119359424D02*
X156738095Y-119264186D01*
X156738095Y-119264186D02*
X156690476Y-119073710D01*
X156690476Y-119073710D02*
X156690476Y-118835615D01*
X156690476Y-118835615D02*
X156738095Y-118645139D01*
X156738095Y-118645139D02*
X156785714Y-118549901D01*
X156785714Y-118549901D02*
X156833333Y-118502282D01*
X156833333Y-118502282D02*
X156928571Y-118454663D01*
D12*
X175554819Y-113866666D02*
X175078628Y-114199999D01*
X175554819Y-114438094D02*
X174554819Y-114438094D01*
X174554819Y-114438094D02*
X174554819Y-114057142D01*
X174554819Y-114057142D02*
X174602438Y-113961904D01*
X174602438Y-113961904D02*
X174650057Y-113914285D01*
X174650057Y-113914285D02*
X174745295Y-113866666D01*
X174745295Y-113866666D02*
X174888152Y-113866666D01*
X174888152Y-113866666D02*
X174983390Y-113914285D01*
X174983390Y-113914285D02*
X175031009Y-113961904D01*
X175031009Y-113961904D02*
X175078628Y-114057142D01*
X175078628Y-114057142D02*
X175078628Y-114438094D01*
X174554819Y-112961904D02*
X174554819Y-113438094D01*
X174554819Y-113438094D02*
X175031009Y-113485713D01*
X175031009Y-113485713D02*
X174983390Y-113438094D01*
X174983390Y-113438094D02*
X174935771Y-113342856D01*
X174935771Y-113342856D02*
X174935771Y-113104761D01*
X174935771Y-113104761D02*
X174983390Y-113009523D01*
X174983390Y-113009523D02*
X175031009Y-112961904D01*
X175031009Y-112961904D02*
X175126247Y-112914285D01*
X175126247Y-112914285D02*
X175364342Y-112914285D01*
X175364342Y-112914285D02*
X175459580Y-112961904D01*
X175459580Y-112961904D02*
X175507200Y-113009523D01*
X175507200Y-113009523D02*
X175554819Y-113104761D01*
X175554819Y-113104761D02*
X175554819Y-113342856D01*
X175554819Y-113342856D02*
X175507200Y-113438094D01*
X175507200Y-113438094D02*
X175459580Y-113485713D01*
X199859580Y-97166666D02*
X199907200Y-97214285D01*
X199907200Y-97214285D02*
X199954819Y-97357142D01*
X199954819Y-97357142D02*
X199954819Y-97452380D01*
X199954819Y-97452380D02*
X199907200Y-97595237D01*
X199907200Y-97595237D02*
X199811961Y-97690475D01*
X199811961Y-97690475D02*
X199716723Y-97738094D01*
X199716723Y-97738094D02*
X199526247Y-97785713D01*
X199526247Y-97785713D02*
X199383390Y-97785713D01*
X199383390Y-97785713D02*
X199192914Y-97738094D01*
X199192914Y-97738094D02*
X199097676Y-97690475D01*
X199097676Y-97690475D02*
X199002438Y-97595237D01*
X199002438Y-97595237D02*
X198954819Y-97452380D01*
X198954819Y-97452380D02*
X198954819Y-97357142D01*
X198954819Y-97357142D02*
X199002438Y-97214285D01*
X199002438Y-97214285D02*
X199050057Y-97166666D01*
X198954819Y-96309523D02*
X198954819Y-96499999D01*
X198954819Y-96499999D02*
X199002438Y-96595237D01*
X199002438Y-96595237D02*
X199050057Y-96642856D01*
X199050057Y-96642856D02*
X199192914Y-96738094D01*
X199192914Y-96738094D02*
X199383390Y-96785713D01*
X199383390Y-96785713D02*
X199764342Y-96785713D01*
X199764342Y-96785713D02*
X199859580Y-96738094D01*
X199859580Y-96738094D02*
X199907200Y-96690475D01*
X199907200Y-96690475D02*
X199954819Y-96595237D01*
X199954819Y-96595237D02*
X199954819Y-96404761D01*
X199954819Y-96404761D02*
X199907200Y-96309523D01*
X199907200Y-96309523D02*
X199859580Y-96261904D01*
X199859580Y-96261904D02*
X199764342Y-96214285D01*
X199764342Y-96214285D02*
X199526247Y-96214285D01*
X199526247Y-96214285D02*
X199431009Y-96261904D01*
X199431009Y-96261904D02*
X199383390Y-96309523D01*
X199383390Y-96309523D02*
X199335771Y-96404761D01*
X199335771Y-96404761D02*
X199335771Y-96595237D01*
X199335771Y-96595237D02*
X199383390Y-96690475D01*
X199383390Y-96690475D02*
X199431009Y-96738094D01*
X199431009Y-96738094D02*
X199526247Y-96785713D01*
X208117466Y-98529819D02*
X208117466Y-99244104D01*
X208117466Y-99244104D02*
X208069847Y-99386961D01*
X208069847Y-99386961D02*
X207974609Y-99482200D01*
X207974609Y-99482200D02*
X207831752Y-99529819D01*
X207831752Y-99529819D02*
X207736514Y-99529819D01*
X208498419Y-98529819D02*
X209117466Y-98529819D01*
X209117466Y-98529819D02*
X208784133Y-98910771D01*
X208784133Y-98910771D02*
X208926990Y-98910771D01*
X208926990Y-98910771D02*
X209022228Y-98958390D01*
X209022228Y-98958390D02*
X209069847Y-99006009D01*
X209069847Y-99006009D02*
X209117466Y-99101247D01*
X209117466Y-99101247D02*
X209117466Y-99339342D01*
X209117466Y-99339342D02*
X209069847Y-99434580D01*
X209069847Y-99434580D02*
X209022228Y-99482200D01*
X209022228Y-99482200D02*
X208926990Y-99529819D01*
X208926990Y-99529819D02*
X208641276Y-99529819D01*
X208641276Y-99529819D02*
X208546038Y-99482200D01*
X208546038Y-99482200D02*
X208498419Y-99434580D01*
X126133333Y-95154819D02*
X125800000Y-94678628D01*
X125561905Y-95154819D02*
X125561905Y-94154819D01*
X125561905Y-94154819D02*
X125942857Y-94154819D01*
X125942857Y-94154819D02*
X126038095Y-94202438D01*
X126038095Y-94202438D02*
X126085714Y-94250057D01*
X126085714Y-94250057D02*
X126133333Y-94345295D01*
X126133333Y-94345295D02*
X126133333Y-94488152D01*
X126133333Y-94488152D02*
X126085714Y-94583390D01*
X126085714Y-94583390D02*
X126038095Y-94631009D01*
X126038095Y-94631009D02*
X125942857Y-94678628D01*
X125942857Y-94678628D02*
X125561905Y-94678628D01*
X126990476Y-94154819D02*
X126800000Y-94154819D01*
X126800000Y-94154819D02*
X126704762Y-94202438D01*
X126704762Y-94202438D02*
X126657143Y-94250057D01*
X126657143Y-94250057D02*
X126561905Y-94392914D01*
X126561905Y-94392914D02*
X126514286Y-94583390D01*
X126514286Y-94583390D02*
X126514286Y-94964342D01*
X126514286Y-94964342D02*
X126561905Y-95059580D01*
X126561905Y-95059580D02*
X126609524Y-95107200D01*
X126609524Y-95107200D02*
X126704762Y-95154819D01*
X126704762Y-95154819D02*
X126895238Y-95154819D01*
X126895238Y-95154819D02*
X126990476Y-95107200D01*
X126990476Y-95107200D02*
X127038095Y-95059580D01*
X127038095Y-95059580D02*
X127085714Y-94964342D01*
X127085714Y-94964342D02*
X127085714Y-94726247D01*
X127085714Y-94726247D02*
X127038095Y-94631009D01*
X127038095Y-94631009D02*
X126990476Y-94583390D01*
X126990476Y-94583390D02*
X126895238Y-94535771D01*
X126895238Y-94535771D02*
X126704762Y-94535771D01*
X126704762Y-94535771D02*
X126609524Y-94583390D01*
X126609524Y-94583390D02*
X126561905Y-94631009D01*
X126561905Y-94631009D02*
X126514286Y-94726247D01*
D11*
X182602381Y-119354663D02*
X182792857Y-119354663D01*
X182792857Y-119354663D02*
X182888095Y-119402282D01*
X182888095Y-119402282D02*
X182983333Y-119497520D01*
X182983333Y-119497520D02*
X183030952Y-119687996D01*
X183030952Y-119687996D02*
X183030952Y-120021329D01*
X183030952Y-120021329D02*
X182983333Y-120211805D01*
X182983333Y-120211805D02*
X182888095Y-120307044D01*
X182888095Y-120307044D02*
X182792857Y-120354663D01*
X182792857Y-120354663D02*
X182602381Y-120354663D01*
X182602381Y-120354663D02*
X182507143Y-120307044D01*
X182507143Y-120307044D02*
X182411905Y-120211805D01*
X182411905Y-120211805D02*
X182364286Y-120021329D01*
X182364286Y-120021329D02*
X182364286Y-119687996D01*
X182364286Y-119687996D02*
X182411905Y-119497520D01*
X182411905Y-119497520D02*
X182507143Y-119402282D01*
X182507143Y-119402282D02*
X182602381Y-119354663D01*
X183411905Y-120307044D02*
X183554762Y-120354663D01*
X183554762Y-120354663D02*
X183792857Y-120354663D01*
X183792857Y-120354663D02*
X183888095Y-120307044D01*
X183888095Y-120307044D02*
X183935714Y-120259424D01*
X183935714Y-120259424D02*
X183983333Y-120164186D01*
X183983333Y-120164186D02*
X183983333Y-120068948D01*
X183983333Y-120068948D02*
X183935714Y-119973710D01*
X183935714Y-119973710D02*
X183888095Y-119926091D01*
X183888095Y-119926091D02*
X183792857Y-119878472D01*
X183792857Y-119878472D02*
X183602381Y-119830853D01*
X183602381Y-119830853D02*
X183507143Y-119783234D01*
X183507143Y-119783234D02*
X183459524Y-119735615D01*
X183459524Y-119735615D02*
X183411905Y-119640377D01*
X183411905Y-119640377D02*
X183411905Y-119545139D01*
X183411905Y-119545139D02*
X183459524Y-119449901D01*
X183459524Y-119449901D02*
X183507143Y-119402282D01*
X183507143Y-119402282D02*
X183602381Y-119354663D01*
X183602381Y-119354663D02*
X183840476Y-119354663D01*
X183840476Y-119354663D02*
X183983333Y-119402282D01*
X184935714Y-120354663D02*
X184364286Y-120354663D01*
X184650000Y-120354663D02*
X184650000Y-119354663D01*
X184650000Y-119354663D02*
X184554762Y-119497520D01*
X184554762Y-119497520D02*
X184459524Y-119592758D01*
X184459524Y-119592758D02*
X184364286Y-119640377D01*
D12*
X141254819Y-98061904D02*
X142064342Y-98061904D01*
X142064342Y-98061904D02*
X142159580Y-98014285D01*
X142159580Y-98014285D02*
X142207200Y-97966666D01*
X142207200Y-97966666D02*
X142254819Y-97871428D01*
X142254819Y-97871428D02*
X142254819Y-97680952D01*
X142254819Y-97680952D02*
X142207200Y-97585714D01*
X142207200Y-97585714D02*
X142159580Y-97538095D01*
X142159580Y-97538095D02*
X142064342Y-97490476D01*
X142064342Y-97490476D02*
X141254819Y-97490476D01*
X141588152Y-96585714D02*
X142254819Y-96585714D01*
X141207200Y-96823809D02*
X141921485Y-97061904D01*
X141921485Y-97061904D02*
X141921485Y-96442857D01*
D11*
X131154663Y-111438094D02*
X130154663Y-111438094D01*
X130154663Y-111438094D02*
X130154663Y-111199999D01*
X130154663Y-111199999D02*
X130202282Y-111057142D01*
X130202282Y-111057142D02*
X130297520Y-110961904D01*
X130297520Y-110961904D02*
X130392758Y-110914285D01*
X130392758Y-110914285D02*
X130583234Y-110866666D01*
X130583234Y-110866666D02*
X130726091Y-110866666D01*
X130726091Y-110866666D02*
X130916567Y-110914285D01*
X130916567Y-110914285D02*
X131011805Y-110961904D01*
X131011805Y-110961904D02*
X131107044Y-111057142D01*
X131107044Y-111057142D02*
X131154663Y-111199999D01*
X131154663Y-111199999D02*
X131154663Y-111438094D01*
X131154663Y-109914285D02*
X131154663Y-110485713D01*
X131154663Y-110199999D02*
X130154663Y-110199999D01*
X130154663Y-110199999D02*
X130297520Y-110295237D01*
X130297520Y-110295237D02*
X130392758Y-110390475D01*
X130392758Y-110390475D02*
X130440377Y-110485713D01*
D12*
X126154819Y-117061904D02*
X126964342Y-117061904D01*
X126964342Y-117061904D02*
X127059580Y-117014285D01*
X127059580Y-117014285D02*
X127107200Y-116966666D01*
X127107200Y-116966666D02*
X127154819Y-116871428D01*
X127154819Y-116871428D02*
X127154819Y-116680952D01*
X127154819Y-116680952D02*
X127107200Y-116585714D01*
X127107200Y-116585714D02*
X127059580Y-116538095D01*
X127059580Y-116538095D02*
X126964342Y-116490476D01*
X126964342Y-116490476D02*
X126154819Y-116490476D01*
X126154819Y-115538095D02*
X126154819Y-116014285D01*
X126154819Y-116014285D02*
X126631009Y-116061904D01*
X126631009Y-116061904D02*
X126583390Y-116014285D01*
X126583390Y-116014285D02*
X126535771Y-115919047D01*
X126535771Y-115919047D02*
X126535771Y-115680952D01*
X126535771Y-115680952D02*
X126583390Y-115585714D01*
X126583390Y-115585714D02*
X126631009Y-115538095D01*
X126631009Y-115538095D02*
X126726247Y-115490476D01*
X126726247Y-115490476D02*
X126964342Y-115490476D01*
X126964342Y-115490476D02*
X127059580Y-115538095D01*
X127059580Y-115538095D02*
X127107200Y-115585714D01*
X127107200Y-115585714D02*
X127154819Y-115680952D01*
X127154819Y-115680952D02*
X127154819Y-115919047D01*
X127154819Y-115919047D02*
X127107200Y-116014285D01*
X127107200Y-116014285D02*
X127059580Y-116061904D01*
X171133333Y-95654819D02*
X170800000Y-95178628D01*
X170561905Y-95654819D02*
X170561905Y-94654819D01*
X170561905Y-94654819D02*
X170942857Y-94654819D01*
X170942857Y-94654819D02*
X171038095Y-94702438D01*
X171038095Y-94702438D02*
X171085714Y-94750057D01*
X171085714Y-94750057D02*
X171133333Y-94845295D01*
X171133333Y-94845295D02*
X171133333Y-94988152D01*
X171133333Y-94988152D02*
X171085714Y-95083390D01*
X171085714Y-95083390D02*
X171038095Y-95131009D01*
X171038095Y-95131009D02*
X170942857Y-95178628D01*
X170942857Y-95178628D02*
X170561905Y-95178628D01*
X171609524Y-95654819D02*
X171800000Y-95654819D01*
X171800000Y-95654819D02*
X171895238Y-95607200D01*
X171895238Y-95607200D02*
X171942857Y-95559580D01*
X171942857Y-95559580D02*
X172038095Y-95416723D01*
X172038095Y-95416723D02*
X172085714Y-95226247D01*
X172085714Y-95226247D02*
X172085714Y-94845295D01*
X172085714Y-94845295D02*
X172038095Y-94750057D01*
X172038095Y-94750057D02*
X171990476Y-94702438D01*
X171990476Y-94702438D02*
X171895238Y-94654819D01*
X171895238Y-94654819D02*
X171704762Y-94654819D01*
X171704762Y-94654819D02*
X171609524Y-94702438D01*
X171609524Y-94702438D02*
X171561905Y-94750057D01*
X171561905Y-94750057D02*
X171514286Y-94845295D01*
X171514286Y-94845295D02*
X171514286Y-95083390D01*
X171514286Y-95083390D02*
X171561905Y-95178628D01*
X171561905Y-95178628D02*
X171609524Y-95226247D01*
X171609524Y-95226247D02*
X171704762Y-95273866D01*
X171704762Y-95273866D02*
X171895238Y-95273866D01*
X171895238Y-95273866D02*
X171990476Y-95226247D01*
X171990476Y-95226247D02*
X172038095Y-95178628D01*
X172038095Y-95178628D02*
X172085714Y-95083390D01*
X195559580Y-99366666D02*
X195607200Y-99414285D01*
X195607200Y-99414285D02*
X195654819Y-99557142D01*
X195654819Y-99557142D02*
X195654819Y-99652380D01*
X195654819Y-99652380D02*
X195607200Y-99795237D01*
X195607200Y-99795237D02*
X195511961Y-99890475D01*
X195511961Y-99890475D02*
X195416723Y-99938094D01*
X195416723Y-99938094D02*
X195226247Y-99985713D01*
X195226247Y-99985713D02*
X195083390Y-99985713D01*
X195083390Y-99985713D02*
X194892914Y-99938094D01*
X194892914Y-99938094D02*
X194797676Y-99890475D01*
X194797676Y-99890475D02*
X194702438Y-99795237D01*
X194702438Y-99795237D02*
X194654819Y-99652380D01*
X194654819Y-99652380D02*
X194654819Y-99557142D01*
X194654819Y-99557142D02*
X194702438Y-99414285D01*
X194702438Y-99414285D02*
X194750057Y-99366666D01*
X195083390Y-98795237D02*
X195035771Y-98890475D01*
X195035771Y-98890475D02*
X194988152Y-98938094D01*
X194988152Y-98938094D02*
X194892914Y-98985713D01*
X194892914Y-98985713D02*
X194845295Y-98985713D01*
X194845295Y-98985713D02*
X194750057Y-98938094D01*
X194750057Y-98938094D02*
X194702438Y-98890475D01*
X194702438Y-98890475D02*
X194654819Y-98795237D01*
X194654819Y-98795237D02*
X194654819Y-98604761D01*
X194654819Y-98604761D02*
X194702438Y-98509523D01*
X194702438Y-98509523D02*
X194750057Y-98461904D01*
X194750057Y-98461904D02*
X194845295Y-98414285D01*
X194845295Y-98414285D02*
X194892914Y-98414285D01*
X194892914Y-98414285D02*
X194988152Y-98461904D01*
X194988152Y-98461904D02*
X195035771Y-98509523D01*
X195035771Y-98509523D02*
X195083390Y-98604761D01*
X195083390Y-98604761D02*
X195083390Y-98795237D01*
X195083390Y-98795237D02*
X195131009Y-98890475D01*
X195131009Y-98890475D02*
X195178628Y-98938094D01*
X195178628Y-98938094D02*
X195273866Y-98985713D01*
X195273866Y-98985713D02*
X195464342Y-98985713D01*
X195464342Y-98985713D02*
X195559580Y-98938094D01*
X195559580Y-98938094D02*
X195607200Y-98890475D01*
X195607200Y-98890475D02*
X195654819Y-98795237D01*
X195654819Y-98795237D02*
X195654819Y-98604761D01*
X195654819Y-98604761D02*
X195607200Y-98509523D01*
X195607200Y-98509523D02*
X195559580Y-98461904D01*
X195559580Y-98461904D02*
X195464342Y-98414285D01*
X195464342Y-98414285D02*
X195273866Y-98414285D01*
X195273866Y-98414285D02*
X195178628Y-98461904D01*
X195178628Y-98461904D02*
X195131009Y-98509523D01*
X195131009Y-98509523D02*
X195083390Y-98604761D01*
X186657142Y-112559580D02*
X186609523Y-112607200D01*
X186609523Y-112607200D02*
X186466666Y-112654819D01*
X186466666Y-112654819D02*
X186371428Y-112654819D01*
X186371428Y-112654819D02*
X186228571Y-112607200D01*
X186228571Y-112607200D02*
X186133333Y-112511961D01*
X186133333Y-112511961D02*
X186085714Y-112416723D01*
X186085714Y-112416723D02*
X186038095Y-112226247D01*
X186038095Y-112226247D02*
X186038095Y-112083390D01*
X186038095Y-112083390D02*
X186085714Y-111892914D01*
X186085714Y-111892914D02*
X186133333Y-111797676D01*
X186133333Y-111797676D02*
X186228571Y-111702438D01*
X186228571Y-111702438D02*
X186371428Y-111654819D01*
X186371428Y-111654819D02*
X186466666Y-111654819D01*
X186466666Y-111654819D02*
X186609523Y-111702438D01*
X186609523Y-111702438D02*
X186657142Y-111750057D01*
X187609523Y-112654819D02*
X187038095Y-112654819D01*
X187323809Y-112654819D02*
X187323809Y-111654819D01*
X187323809Y-111654819D02*
X187228571Y-111797676D01*
X187228571Y-111797676D02*
X187133333Y-111892914D01*
X187133333Y-111892914D02*
X187038095Y-111940533D01*
X188466666Y-111988152D02*
X188466666Y-112654819D01*
X188228571Y-111607200D02*
X187990476Y-112321485D01*
X187990476Y-112321485D02*
X188609523Y-112321485D01*
X117954819Y-128761904D02*
X118764342Y-128761904D01*
X118764342Y-128761904D02*
X118859580Y-128714285D01*
X118859580Y-128714285D02*
X118907200Y-128666666D01*
X118907200Y-128666666D02*
X118954819Y-128571428D01*
X118954819Y-128571428D02*
X118954819Y-128380952D01*
X118954819Y-128380952D02*
X118907200Y-128285714D01*
X118907200Y-128285714D02*
X118859580Y-128238095D01*
X118859580Y-128238095D02*
X118764342Y-128190476D01*
X118764342Y-128190476D02*
X117954819Y-128190476D01*
X118050057Y-127761904D02*
X118002438Y-127714285D01*
X118002438Y-127714285D02*
X117954819Y-127619047D01*
X117954819Y-127619047D02*
X117954819Y-127380952D01*
X117954819Y-127380952D02*
X118002438Y-127285714D01*
X118002438Y-127285714D02*
X118050057Y-127238095D01*
X118050057Y-127238095D02*
X118145295Y-127190476D01*
X118145295Y-127190476D02*
X118240533Y-127190476D01*
X118240533Y-127190476D02*
X118383390Y-127238095D01*
X118383390Y-127238095D02*
X118954819Y-127809523D01*
X118954819Y-127809523D02*
X118954819Y-127190476D01*
X169333333Y-119354819D02*
X169000000Y-118878628D01*
X168761905Y-119354819D02*
X168761905Y-118354819D01*
X168761905Y-118354819D02*
X169142857Y-118354819D01*
X169142857Y-118354819D02*
X169238095Y-118402438D01*
X169238095Y-118402438D02*
X169285714Y-118450057D01*
X169285714Y-118450057D02*
X169333333Y-118545295D01*
X169333333Y-118545295D02*
X169333333Y-118688152D01*
X169333333Y-118688152D02*
X169285714Y-118783390D01*
X169285714Y-118783390D02*
X169238095Y-118831009D01*
X169238095Y-118831009D02*
X169142857Y-118878628D01*
X169142857Y-118878628D02*
X168761905Y-118878628D01*
X169666667Y-118354819D02*
X170285714Y-118354819D01*
X170285714Y-118354819D02*
X169952381Y-118735771D01*
X169952381Y-118735771D02*
X170095238Y-118735771D01*
X170095238Y-118735771D02*
X170190476Y-118783390D01*
X170190476Y-118783390D02*
X170238095Y-118831009D01*
X170238095Y-118831009D02*
X170285714Y-118926247D01*
X170285714Y-118926247D02*
X170285714Y-119164342D01*
X170285714Y-119164342D02*
X170238095Y-119259580D01*
X170238095Y-119259580D02*
X170190476Y-119307200D01*
X170190476Y-119307200D02*
X170095238Y-119354819D01*
X170095238Y-119354819D02*
X169809524Y-119354819D01*
X169809524Y-119354819D02*
X169714286Y-119307200D01*
X169714286Y-119307200D02*
X169666667Y-119259580D01*
X191659580Y-99242857D02*
X191707200Y-99290476D01*
X191707200Y-99290476D02*
X191754819Y-99433333D01*
X191754819Y-99433333D02*
X191754819Y-99528571D01*
X191754819Y-99528571D02*
X191707200Y-99671428D01*
X191707200Y-99671428D02*
X191611961Y-99766666D01*
X191611961Y-99766666D02*
X191516723Y-99814285D01*
X191516723Y-99814285D02*
X191326247Y-99861904D01*
X191326247Y-99861904D02*
X191183390Y-99861904D01*
X191183390Y-99861904D02*
X190992914Y-99814285D01*
X190992914Y-99814285D02*
X190897676Y-99766666D01*
X190897676Y-99766666D02*
X190802438Y-99671428D01*
X190802438Y-99671428D02*
X190754819Y-99528571D01*
X190754819Y-99528571D02*
X190754819Y-99433333D01*
X190754819Y-99433333D02*
X190802438Y-99290476D01*
X190802438Y-99290476D02*
X190850057Y-99242857D01*
X190850057Y-98861904D02*
X190802438Y-98814285D01*
X190802438Y-98814285D02*
X190754819Y-98719047D01*
X190754819Y-98719047D02*
X190754819Y-98480952D01*
X190754819Y-98480952D02*
X190802438Y-98385714D01*
X190802438Y-98385714D02*
X190850057Y-98338095D01*
X190850057Y-98338095D02*
X190945295Y-98290476D01*
X190945295Y-98290476D02*
X191040533Y-98290476D01*
X191040533Y-98290476D02*
X191183390Y-98338095D01*
X191183390Y-98338095D02*
X191754819Y-98909523D01*
X191754819Y-98909523D02*
X191754819Y-98290476D01*
X190754819Y-97957142D02*
X190754819Y-97338095D01*
X190754819Y-97338095D02*
X191135771Y-97671428D01*
X191135771Y-97671428D02*
X191135771Y-97528571D01*
X191135771Y-97528571D02*
X191183390Y-97433333D01*
X191183390Y-97433333D02*
X191231009Y-97385714D01*
X191231009Y-97385714D02*
X191326247Y-97338095D01*
X191326247Y-97338095D02*
X191564342Y-97338095D01*
X191564342Y-97338095D02*
X191659580Y-97385714D01*
X191659580Y-97385714D02*
X191707200Y-97433333D01*
X191707200Y-97433333D02*
X191754819Y-97528571D01*
X191754819Y-97528571D02*
X191754819Y-97814285D01*
X191754819Y-97814285D02*
X191707200Y-97909523D01*
X191707200Y-97909523D02*
X191659580Y-97957142D01*
X191031009Y-123833333D02*
X191031009Y-124166666D01*
X191554819Y-124166666D02*
X190554819Y-124166666D01*
X190554819Y-124166666D02*
X190554819Y-123690476D01*
X191031009Y-122976190D02*
X191078628Y-122833333D01*
X191078628Y-122833333D02*
X191126247Y-122785714D01*
X191126247Y-122785714D02*
X191221485Y-122738095D01*
X191221485Y-122738095D02*
X191364342Y-122738095D01*
X191364342Y-122738095D02*
X191459580Y-122785714D01*
X191459580Y-122785714D02*
X191507200Y-122833333D01*
X191507200Y-122833333D02*
X191554819Y-122928571D01*
X191554819Y-122928571D02*
X191554819Y-123309523D01*
X191554819Y-123309523D02*
X190554819Y-123309523D01*
X190554819Y-123309523D02*
X190554819Y-122976190D01*
X190554819Y-122976190D02*
X190602438Y-122880952D01*
X190602438Y-122880952D02*
X190650057Y-122833333D01*
X190650057Y-122833333D02*
X190745295Y-122785714D01*
X190745295Y-122785714D02*
X190840533Y-122785714D01*
X190840533Y-122785714D02*
X190935771Y-122833333D01*
X190935771Y-122833333D02*
X190983390Y-122880952D01*
X190983390Y-122880952D02*
X191031009Y-122976190D01*
X191031009Y-122976190D02*
X191031009Y-123309523D01*
X190650057Y-122357142D02*
X190602438Y-122309523D01*
X190602438Y-122309523D02*
X190554819Y-122214285D01*
X190554819Y-122214285D02*
X190554819Y-121976190D01*
X190554819Y-121976190D02*
X190602438Y-121880952D01*
X190602438Y-121880952D02*
X190650057Y-121833333D01*
X190650057Y-121833333D02*
X190745295Y-121785714D01*
X190745295Y-121785714D02*
X190840533Y-121785714D01*
X190840533Y-121785714D02*
X190983390Y-121833333D01*
X190983390Y-121833333D02*
X191554819Y-122404761D01*
X191554819Y-122404761D02*
X191554819Y-121785714D01*
X200557142Y-109259580D02*
X200509523Y-109307200D01*
X200509523Y-109307200D02*
X200366666Y-109354819D01*
X200366666Y-109354819D02*
X200271428Y-109354819D01*
X200271428Y-109354819D02*
X200128571Y-109307200D01*
X200128571Y-109307200D02*
X200033333Y-109211961D01*
X200033333Y-109211961D02*
X199985714Y-109116723D01*
X199985714Y-109116723D02*
X199938095Y-108926247D01*
X199938095Y-108926247D02*
X199938095Y-108783390D01*
X199938095Y-108783390D02*
X199985714Y-108592914D01*
X199985714Y-108592914D02*
X200033333Y-108497676D01*
X200033333Y-108497676D02*
X200128571Y-108402438D01*
X200128571Y-108402438D02*
X200271428Y-108354819D01*
X200271428Y-108354819D02*
X200366666Y-108354819D01*
X200366666Y-108354819D02*
X200509523Y-108402438D01*
X200509523Y-108402438D02*
X200557142Y-108450057D01*
X201509523Y-109354819D02*
X200938095Y-109354819D01*
X201223809Y-109354819D02*
X201223809Y-108354819D01*
X201223809Y-108354819D02*
X201128571Y-108497676D01*
X201128571Y-108497676D02*
X201033333Y-108592914D01*
X201033333Y-108592914D02*
X200938095Y-108640533D01*
X202128571Y-108354819D02*
X202223809Y-108354819D01*
X202223809Y-108354819D02*
X202319047Y-108402438D01*
X202319047Y-108402438D02*
X202366666Y-108450057D01*
X202366666Y-108450057D02*
X202414285Y-108545295D01*
X202414285Y-108545295D02*
X202461904Y-108735771D01*
X202461904Y-108735771D02*
X202461904Y-108973866D01*
X202461904Y-108973866D02*
X202414285Y-109164342D01*
X202414285Y-109164342D02*
X202366666Y-109259580D01*
X202366666Y-109259580D02*
X202319047Y-109307200D01*
X202319047Y-109307200D02*
X202223809Y-109354819D01*
X202223809Y-109354819D02*
X202128571Y-109354819D01*
X202128571Y-109354819D02*
X202033333Y-109307200D01*
X202033333Y-109307200D02*
X201985714Y-109259580D01*
X201985714Y-109259580D02*
X201938095Y-109164342D01*
X201938095Y-109164342D02*
X201890476Y-108973866D01*
X201890476Y-108973866D02*
X201890476Y-108735771D01*
X201890476Y-108735771D02*
X201938095Y-108545295D01*
X201938095Y-108545295D02*
X201985714Y-108450057D01*
X201985714Y-108450057D02*
X202033333Y-108402438D01*
X202033333Y-108402438D02*
X202128571Y-108354819D01*
X200259580Y-103066666D02*
X200307200Y-103114285D01*
X200307200Y-103114285D02*
X200354819Y-103257142D01*
X200354819Y-103257142D02*
X200354819Y-103352380D01*
X200354819Y-103352380D02*
X200307200Y-103495237D01*
X200307200Y-103495237D02*
X200211961Y-103590475D01*
X200211961Y-103590475D02*
X200116723Y-103638094D01*
X200116723Y-103638094D02*
X199926247Y-103685713D01*
X199926247Y-103685713D02*
X199783390Y-103685713D01*
X199783390Y-103685713D02*
X199592914Y-103638094D01*
X199592914Y-103638094D02*
X199497676Y-103590475D01*
X199497676Y-103590475D02*
X199402438Y-103495237D01*
X199402438Y-103495237D02*
X199354819Y-103352380D01*
X199354819Y-103352380D02*
X199354819Y-103257142D01*
X199354819Y-103257142D02*
X199402438Y-103114285D01*
X199402438Y-103114285D02*
X199450057Y-103066666D01*
X199450057Y-102685713D02*
X199402438Y-102638094D01*
X199402438Y-102638094D02*
X199354819Y-102542856D01*
X199354819Y-102542856D02*
X199354819Y-102304761D01*
X199354819Y-102304761D02*
X199402438Y-102209523D01*
X199402438Y-102209523D02*
X199450057Y-102161904D01*
X199450057Y-102161904D02*
X199545295Y-102114285D01*
X199545295Y-102114285D02*
X199640533Y-102114285D01*
X199640533Y-102114285D02*
X199783390Y-102161904D01*
X199783390Y-102161904D02*
X200354819Y-102733332D01*
X200354819Y-102733332D02*
X200354819Y-102114285D01*
X178059580Y-104842857D02*
X178107200Y-104890476D01*
X178107200Y-104890476D02*
X178154819Y-105033333D01*
X178154819Y-105033333D02*
X178154819Y-105128571D01*
X178154819Y-105128571D02*
X178107200Y-105271428D01*
X178107200Y-105271428D02*
X178011961Y-105366666D01*
X178011961Y-105366666D02*
X177916723Y-105414285D01*
X177916723Y-105414285D02*
X177726247Y-105461904D01*
X177726247Y-105461904D02*
X177583390Y-105461904D01*
X177583390Y-105461904D02*
X177392914Y-105414285D01*
X177392914Y-105414285D02*
X177297676Y-105366666D01*
X177297676Y-105366666D02*
X177202438Y-105271428D01*
X177202438Y-105271428D02*
X177154819Y-105128571D01*
X177154819Y-105128571D02*
X177154819Y-105033333D01*
X177154819Y-105033333D02*
X177202438Y-104890476D01*
X177202438Y-104890476D02*
X177250057Y-104842857D01*
X178154819Y-103890476D02*
X178154819Y-104461904D01*
X178154819Y-104176190D02*
X177154819Y-104176190D01*
X177154819Y-104176190D02*
X177297676Y-104271428D01*
X177297676Y-104271428D02*
X177392914Y-104366666D01*
X177392914Y-104366666D02*
X177440533Y-104461904D01*
X178154819Y-102938095D02*
X178154819Y-103509523D01*
X178154819Y-103223809D02*
X177154819Y-103223809D01*
X177154819Y-103223809D02*
X177297676Y-103319047D01*
X177297676Y-103319047D02*
X177392914Y-103414285D01*
X177392914Y-103414285D02*
X177440533Y-103509523D01*
D11*
X143714286Y-103154663D02*
X144047619Y-104154663D01*
X144047619Y-104154663D02*
X144380952Y-103154663D01*
X144666667Y-104107044D02*
X144809524Y-104154663D01*
X144809524Y-104154663D02*
X145047619Y-104154663D01*
X145047619Y-104154663D02*
X145142857Y-104107044D01*
X145142857Y-104107044D02*
X145190476Y-104059424D01*
X145190476Y-104059424D02*
X145238095Y-103964186D01*
X145238095Y-103964186D02*
X145238095Y-103868948D01*
X145238095Y-103868948D02*
X145190476Y-103773710D01*
X145190476Y-103773710D02*
X145142857Y-103726091D01*
X145142857Y-103726091D02*
X145047619Y-103678472D01*
X145047619Y-103678472D02*
X144857143Y-103630853D01*
X144857143Y-103630853D02*
X144761905Y-103583234D01*
X144761905Y-103583234D02*
X144714286Y-103535615D01*
X144714286Y-103535615D02*
X144666667Y-103440377D01*
X144666667Y-103440377D02*
X144666667Y-103345139D01*
X144666667Y-103345139D02*
X144714286Y-103249901D01*
X144714286Y-103249901D02*
X144761905Y-103202282D01*
X144761905Y-103202282D02*
X144857143Y-103154663D01*
X144857143Y-103154663D02*
X145095238Y-103154663D01*
X145095238Y-103154663D02*
X145238095Y-103202282D01*
X146190476Y-104154663D02*
X145619048Y-104154663D01*
X145904762Y-104154663D02*
X145904762Y-103154663D01*
X145904762Y-103154663D02*
X145809524Y-103297520D01*
X145809524Y-103297520D02*
X145714286Y-103392758D01*
X145714286Y-103392758D02*
X145619048Y-103440377D01*
D13*
X197065000Y-94838748D02*
X197065000Y-95361252D01*
X198535000Y-94838748D02*
X198535000Y-95361252D01*
D14*
X131900000Y-94065000D02*
X133000000Y-94065000D01*
X133350000Y-94150000D02*
X133650000Y-94150000D01*
X133350000Y-97050000D02*
X133350000Y-94150000D01*
X133650000Y-94150000D02*
X133650000Y-97050000D01*
X133650000Y-97050000D02*
X133350000Y-97050000D01*
D13*
X153830000Y-114030000D02*
X153830000Y-112700000D01*
X155160000Y-114030000D02*
X153830000Y-114030000D01*
X156430000Y-111370000D02*
X161570000Y-111370000D01*
X156430000Y-114030000D02*
X156430000Y-111370000D01*
X156430000Y-114030000D02*
X161570000Y-114030000D01*
X161570000Y-114030000D02*
X161570000Y-111370000D01*
X145490000Y-126380000D02*
X145490000Y-129040000D01*
X145490000Y-129040000D02*
X153230000Y-129040000D01*
X146440000Y-123442929D02*
X146440000Y-123897071D01*
X146440000Y-125982929D02*
X146440000Y-126380000D01*
X147200000Y-123442929D02*
X147200000Y-123897071D01*
X147200000Y-125982929D02*
X147200000Y-126380000D01*
X148090000Y-126380000D02*
X148090000Y-129040000D01*
X148980000Y-123442929D02*
X148980000Y-123897071D01*
X148980000Y-125982929D02*
X148980000Y-126380000D01*
X149740000Y-123442929D02*
X149740000Y-123897071D01*
X149740000Y-125982929D02*
X149740000Y-126380000D01*
X150630000Y-126380000D02*
X150630000Y-129040000D01*
X151520000Y-123510000D02*
X151520000Y-123897071D01*
X151520000Y-125982929D02*
X151520000Y-126380000D01*
X151900000Y-121130000D02*
X153170000Y-121130000D01*
X152280000Y-123510000D02*
X152280000Y-123897071D01*
X152280000Y-125982929D02*
X152280000Y-126380000D01*
X153170000Y-121130000D02*
X153170000Y-122400000D01*
X153230000Y-126380000D02*
X145490000Y-126380000D01*
X153230000Y-129040000D02*
X153230000Y-126380000D01*
X128950000Y-126380000D02*
X128950000Y-129040000D01*
X128950000Y-129040000D02*
X141770000Y-129040000D01*
X129900000Y-123442929D02*
X129900000Y-123897071D01*
X129900000Y-125982929D02*
X129900000Y-126380000D01*
X130660000Y-123442929D02*
X130660000Y-123897071D01*
X130660000Y-125982929D02*
X130660000Y-126380000D01*
X131550000Y-126380000D02*
X131550000Y-129040000D01*
X132440000Y-123442929D02*
X132440000Y-123897071D01*
X132440000Y-125982929D02*
X132440000Y-126380000D01*
X133200000Y-123442929D02*
X133200000Y-123897071D01*
X133200000Y-125982929D02*
X133200000Y-126380000D01*
X134090000Y-126380000D02*
X134090000Y-129040000D01*
X134980000Y-123442929D02*
X134980000Y-123897071D01*
X134980000Y-125982929D02*
X134980000Y-126380000D01*
X135740000Y-123442929D02*
X135740000Y-123897071D01*
X135740000Y-125982929D02*
X135740000Y-126380000D01*
X136630000Y-126380000D02*
X136630000Y-129040000D01*
X137520000Y-123442929D02*
X137520000Y-123897071D01*
X137520000Y-125982929D02*
X137520000Y-126380000D01*
X138280000Y-123442929D02*
X138280000Y-123897071D01*
X138280000Y-125982929D02*
X138280000Y-126380000D01*
X139170000Y-126380000D02*
X139170000Y-129040000D01*
X140060000Y-123510000D02*
X140060000Y-123897071D01*
X140060000Y-125982929D02*
X140060000Y-126380000D01*
X140440000Y-121130000D02*
X141710000Y-121130000D01*
X140820000Y-123510000D02*
X140820000Y-123897071D01*
X140820000Y-125982929D02*
X140820000Y-126380000D01*
X141710000Y-121130000D02*
X141710000Y-122400000D01*
X141770000Y-126380000D02*
X128950000Y-126380000D01*
X141770000Y-129040000D02*
X141770000Y-126380000D01*
X195690000Y-105034165D02*
X195690000Y-105265835D01*
X196410000Y-105034165D02*
X196410000Y-105265835D01*
X123272936Y-118065000D02*
X123727064Y-118065000D01*
X123272936Y-119535000D02*
X123727064Y-119535000D01*
D15*
G36*
X141518651Y-86600761D02*
G01*
X141676708Y-86601451D01*
X141811061Y-86602855D01*
X141924515Y-86605180D01*
X142019875Y-86608633D01*
X142099944Y-86613421D01*
X142167528Y-86619752D01*
X142225429Y-86627833D01*
X142276452Y-86637871D01*
X142323403Y-86650074D01*
X142369084Y-86664648D01*
X142412236Y-86680268D01*
X142564520Y-86752875D01*
X142703725Y-86849642D01*
X142826882Y-86967215D01*
X142931022Y-87102240D01*
X143013178Y-87251362D01*
X143070380Y-87411228D01*
X143074961Y-87429083D01*
X143091198Y-87521616D01*
X143100229Y-87631871D01*
X143102162Y-87750483D01*
X143097104Y-87868086D01*
X143085162Y-87975313D01*
X143067763Y-88058254D01*
X143006899Y-88222225D01*
X142922848Y-88368500D01*
X142816219Y-88496509D01*
X142687618Y-88605677D01*
X142537652Y-88695431D01*
X142366930Y-88765199D01*
X142296018Y-88786548D01*
X142259341Y-88795950D01*
X142222885Y-88803451D01*
X142182593Y-88809333D01*
X142134411Y-88813875D01*
X142074284Y-88817359D01*
X141998156Y-88820066D01*
X141901972Y-88822274D01*
X141781677Y-88824266D01*
X141742729Y-88824828D01*
X141306693Y-88830996D01*
X141306693Y-89320691D01*
X141306693Y-89810386D01*
X140954933Y-89810386D01*
X140603174Y-89810386D01*
X140603174Y-88243556D01*
X141306693Y-88243556D01*
X141669446Y-88239176D01*
X142032198Y-88234795D01*
X142123573Y-88192591D01*
X142214794Y-88137083D01*
X142296668Y-88062050D01*
X142360959Y-87975652D01*
X142380930Y-87937517D01*
X142396722Y-87896540D01*
X142406449Y-87852210D01*
X142411404Y-87795798D01*
X142412871Y-87721812D01*
X142412194Y-87650829D01*
X142408630Y-87599953D01*
X142400570Y-87560004D01*
X142386403Y-87521802D01*
X142372666Y-87492559D01*
X142311429Y-87399104D01*
X142226416Y-87316201D01*
X142125125Y-87250051D01*
X142046855Y-87208828D01*
X141676774Y-87204250D01*
X141306693Y-87199671D01*
X141306693Y-87721614D01*
X141306693Y-88243556D01*
X140603174Y-88243556D01*
X140603174Y-88205482D01*
X140603174Y-87721614D01*
X140603174Y-86600577D01*
X141334087Y-86600577D01*
X141518651Y-86600761D01*
G37*
G36*
X145079499Y-84147333D02*
G01*
X145145297Y-84178179D01*
X145204198Y-84236191D01*
X145211347Y-84245567D01*
X145219242Y-84257258D01*
X145225710Y-84270918D01*
X145230942Y-84289517D01*
X145235128Y-84316026D01*
X145238458Y-84353413D01*
X145241121Y-84404648D01*
X145243308Y-84472702D01*
X145245209Y-84560543D01*
X145247015Y-84671142D01*
X145248914Y-84807469D01*
X145249336Y-84839162D01*
X145256665Y-85391402D01*
X145901558Y-85398810D01*
X146546451Y-85406218D01*
X146667708Y-85452872D01*
X146830653Y-85530834D01*
X146976704Y-85631982D01*
X147103966Y-85754320D01*
X147210546Y-85895849D01*
X147294549Y-86054574D01*
X147332121Y-86153549D01*
X147340562Y-86180206D01*
X147347504Y-86206032D01*
X147353125Y-86234185D01*
X147357603Y-86267821D01*
X147361116Y-86310096D01*
X147363844Y-86364166D01*
X147365963Y-86433188D01*
X147367654Y-86520319D01*
X147369093Y-86628714D01*
X147370459Y-86761531D01*
X147371243Y-86846076D01*
X147376621Y-87436007D01*
X147871608Y-87436007D01*
X148005151Y-87436052D01*
X148112677Y-87436321D01*
X148197483Y-87437014D01*
X148262868Y-87438331D01*
X148312127Y-87440472D01*
X148348557Y-87443639D01*
X148375456Y-87448030D01*
X148396120Y-87453847D01*
X148413847Y-87461290D01*
X148430832Y-87469976D01*
X148494124Y-87518313D01*
X148537299Y-87582600D01*
X148556891Y-87656278D01*
X148555406Y-87705649D01*
X148531542Y-87781371D01*
X148484596Y-87839501D01*
X148423656Y-87877226D01*
X148405228Y-87884629D01*
X148383827Y-87890565D01*
X148356177Y-87895198D01*
X148319004Y-87898689D01*
X148269035Y-87901200D01*
X148202993Y-87902894D01*
X148117605Y-87903932D01*
X148009596Y-87904478D01*
X147875691Y-87904694D01*
X147869215Y-87904698D01*
X147374553Y-87905020D01*
X147374553Y-88542585D01*
X147374553Y-89180150D01*
X147869774Y-89180150D01*
X148003491Y-89180205D01*
X148111203Y-89180499D01*
X148196220Y-89181227D01*
X148261848Y-89182583D01*
X148311396Y-89184763D01*
X148348173Y-89187960D01*
X148375488Y-89192370D01*
X148396648Y-89198186D01*
X148414962Y-89205605D01*
X148430391Y-89213127D01*
X148486863Y-89251868D01*
X148526962Y-89306820D01*
X148529711Y-89312060D01*
X148556257Y-89391300D01*
X148554111Y-89467602D01*
X148523889Y-89538539D01*
X148466209Y-89601688D01*
X148453527Y-89611616D01*
X148441703Y-89619614D01*
X148427787Y-89626101D01*
X148408707Y-89631267D01*
X148381391Y-89635301D01*
X148342767Y-89638394D01*
X148289764Y-89640735D01*
X148219309Y-89642514D01*
X148128330Y-89643920D01*
X148013757Y-89645144D01*
X147893815Y-89646198D01*
X147374553Y-89650560D01*
X147374553Y-90280098D01*
X147374553Y-90909636D01*
X147873463Y-90909636D01*
X148008410Y-90909726D01*
X148117289Y-90910109D01*
X148203346Y-90910952D01*
X148269825Y-90912425D01*
X148319972Y-90914696D01*
X148357032Y-90917933D01*
X148384250Y-90922306D01*
X148404872Y-90927983D01*
X148422142Y-90935133D01*
X148428939Y-90938494D01*
X148489869Y-90984454D01*
X148531673Y-91046463D01*
X148552733Y-91117779D01*
X148551430Y-91191659D01*
X148526146Y-91261359D01*
X148511653Y-91283099D01*
X148492406Y-91307394D01*
X148473344Y-91327178D01*
X148451378Y-91342913D01*
X148423419Y-91355064D01*
X148386379Y-91364094D01*
X148337169Y-91370464D01*
X148272700Y-91374639D01*
X148189884Y-91377082D01*
X148085632Y-91378256D01*
X147956856Y-91378623D01*
X147874384Y-91378650D01*
X147376621Y-91378650D01*
X147371373Y-91968580D01*
X147366126Y-92558511D01*
X147326744Y-92675764D01*
X147257519Y-92837770D01*
X147165252Y-92983210D01*
X147052126Y-93110144D01*
X146920325Y-93216634D01*
X146772033Y-93300739D01*
X146609431Y-93360521D01*
X146536076Y-93378180D01*
X146501106Y-93384280D01*
X146459666Y-93389258D01*
X146408669Y-93393214D01*
X146345027Y-93396250D01*
X146265654Y-93398469D01*
X146167463Y-93399972D01*
X146047367Y-93400861D01*
X145902279Y-93401239D01*
X145836725Y-93401269D01*
X145250344Y-93401269D01*
X145246176Y-93957168D01*
X145245056Y-94099614D01*
X145243931Y-94215706D01*
X145242625Y-94308401D01*
X145240966Y-94380660D01*
X145238781Y-94435440D01*
X145235895Y-94475701D01*
X145232136Y-94504400D01*
X145227330Y-94524496D01*
X145221303Y-94538948D01*
X145213883Y-94550715D01*
X145211163Y-94554427D01*
X145151003Y-94611686D01*
X145076123Y-94645072D01*
X145014830Y-94652723D01*
X144932763Y-94638775D01*
X144861195Y-94598841D01*
X144818497Y-94554427D01*
X144810590Y-94542896D01*
X144804132Y-94529634D01*
X144798951Y-94511682D01*
X144794873Y-94486082D01*
X144791725Y-94449876D01*
X144789332Y-94400104D01*
X144787523Y-94333808D01*
X144786122Y-94248030D01*
X144784957Y-94139811D01*
X144783854Y-94006192D01*
X144783483Y-93957168D01*
X144779315Y-93401269D01*
X144156911Y-93401269D01*
X143534506Y-93401269D01*
X143534506Y-93936708D01*
X143534279Y-94084639D01*
X143533534Y-94205911D01*
X143532180Y-94303175D01*
X143530127Y-94379082D01*
X143527283Y-94436282D01*
X143523556Y-94477428D01*
X143518855Y-94505171D01*
X143514410Y-94519311D01*
X143473859Y-94581626D01*
X143417133Y-94625353D01*
X143350224Y-94650176D01*
X143279119Y-94655782D01*
X143209808Y-94641855D01*
X143148282Y-94608082D01*
X143100530Y-94554149D01*
X143093412Y-94541409D01*
X143086147Y-94525598D01*
X143080259Y-94507285D01*
X143075604Y-94483403D01*
X143072039Y-94450884D01*
X143069420Y-94406659D01*
X143067603Y-94347660D01*
X143066446Y-94270820D01*
X143065805Y-94173071D01*
X143065537Y-94051344D01*
X143065493Y-93944150D01*
X143065493Y-93401269D01*
X142437495Y-93401269D01*
X141809496Y-93401269D01*
X141814994Y-93932573D01*
X141816397Y-94071324D01*
X141817340Y-94183922D01*
X141817678Y-94273530D01*
X141817261Y-94343305D01*
X141815943Y-94396410D01*
X141813576Y-94436004D01*
X141810013Y-94465246D01*
X141805105Y-94487298D01*
X141798705Y-94505319D01*
X141790665Y-94522469D01*
X141787107Y-94529497D01*
X141739347Y-94593496D01*
X141675033Y-94636160D01*
X141599704Y-94655421D01*
X141518899Y-94649211D01*
X141489902Y-94640475D01*
X141429321Y-94606294D01*
X141379534Y-94555642D01*
X141348690Y-94497381D01*
X141344926Y-94482826D01*
X141342841Y-94458024D01*
X141340929Y-94407601D01*
X141339249Y-94335249D01*
X141337858Y-94244659D01*
X141336816Y-94139523D01*
X141336182Y-94023533D01*
X141336007Y-93920600D01*
X141336007Y-93402972D01*
X140702106Y-93398457D01*
X140068205Y-93393941D01*
X139939795Y-93347996D01*
X139819165Y-93299259D01*
X139717607Y-93244358D01*
X139624883Y-93176873D01*
X139533861Y-93093479D01*
X139442251Y-92993094D01*
X139371433Y-92892289D01*
X139314659Y-92780599D01*
X139286700Y-92709982D01*
X139247432Y-92602481D01*
X139243024Y-91990565D01*
X139238616Y-91378650D01*
X138737369Y-91378328D01*
X138601655Y-91378138D01*
X138491984Y-91377649D01*
X138405090Y-91376698D01*
X138337702Y-91375119D01*
X138286554Y-91372746D01*
X138248375Y-91369414D01*
X138219897Y-91364959D01*
X138197852Y-91359214D01*
X138178970Y-91352016D01*
X138174134Y-91349867D01*
X138111030Y-91306900D01*
X138068441Y-91248378D01*
X138046920Y-91180213D01*
X138047021Y-91108315D01*
X138069298Y-91038598D01*
X138114304Y-90976973D01*
X138137336Y-90957018D01*
X138189827Y-90916965D01*
X138714965Y-90912772D01*
X139240104Y-90908580D01*
X139240104Y-90587190D01*
X139679804Y-90587190D01*
X141314640Y-90587190D01*
X141578970Y-90587175D01*
X141815690Y-90587193D01*
X142026503Y-90587335D01*
X142213114Y-90587691D01*
X142377224Y-90588352D01*
X142520538Y-90589410D01*
X142644759Y-90590956D01*
X142751589Y-90593081D01*
X142842733Y-90595876D01*
X142919894Y-90599433D01*
X142984775Y-90603841D01*
X143039080Y-90609193D01*
X143084511Y-90615579D01*
X143122772Y-90623091D01*
X143155567Y-90631820D01*
X143184599Y-90641856D01*
X143211571Y-90653292D01*
X143238186Y-90666217D01*
X143266148Y-90680724D01*
X143289253Y-90692814D01*
X143340464Y-90721944D01*
X143392459Y-90757417D01*
X143449966Y-90802988D01*
X143517716Y-90862416D01*
X143600435Y-90939456D01*
X143604296Y-90943122D01*
X143683354Y-91016350D01*
X143754304Y-91078373D01*
X143813628Y-91126276D01*
X143857808Y-91157143D01*
X143871534Y-91164572D01*
X143950346Y-91188159D01*
X144041740Y-91196164D01*
X144133827Y-91188720D01*
X144214719Y-91165959D01*
X144226402Y-91160624D01*
X144249539Y-91145937D01*
X144283912Y-91118658D01*
X144330737Y-91077634D01*
X144391228Y-91021714D01*
X144466602Y-90949746D01*
X144558073Y-90860578D01*
X144666858Y-90753059D01*
X144794172Y-90626036D01*
X144856639Y-90563404D01*
X144981725Y-90437632D01*
X145087585Y-90330688D01*
X145175856Y-90240807D01*
X145248173Y-90166224D01*
X145306172Y-90105173D01*
X145351489Y-90055890D01*
X145385760Y-90016609D01*
X145410620Y-89985566D01*
X145427707Y-89960995D01*
X145438654Y-89941132D01*
X145442928Y-89930820D01*
X145448873Y-89911839D01*
X145453816Y-89888846D01*
X145457852Y-89859120D01*
X145461073Y-89819936D01*
X145463572Y-89768573D01*
X145465444Y-89702307D01*
X145466782Y-89618414D01*
X145467679Y-89514173D01*
X145468228Y-89386859D01*
X145468525Y-89233750D01*
X145468577Y-89183814D01*
X145469186Y-88505943D01*
X144853606Y-88505943D01*
X144238026Y-88505943D01*
X144238026Y-89158165D01*
X144238026Y-89810386D01*
X143878938Y-89810386D01*
X143519850Y-89810386D01*
X143519850Y-88205482D01*
X143519850Y-86600577D01*
X143878938Y-86600577D01*
X144238026Y-86600577D01*
X144238026Y-87252798D01*
X144238026Y-87905020D01*
X144853606Y-87905020D01*
X145469186Y-87905020D01*
X145469186Y-87252533D01*
X145469186Y-86600046D01*
X145817282Y-86603976D01*
X146165378Y-86607905D01*
X146165378Y-88205482D01*
X146165378Y-89803058D01*
X145993162Y-89807187D01*
X145820946Y-89811317D01*
X145820946Y-89882829D01*
X145812596Y-89961683D01*
X145790011Y-90051258D01*
X145756892Y-90139087D01*
X145728393Y-90194599D01*
X145711154Y-90216553D01*
X145675073Y-90256980D01*
X145622180Y-90313774D01*
X145554507Y-90384828D01*
X145474085Y-90468035D01*
X145382945Y-90561288D01*
X145283119Y-90662482D01*
X145176638Y-90769508D01*
X145107448Y-90838587D01*
X144976539Y-90968837D01*
X144864304Y-91080035D01*
X144768700Y-91173868D01*
X144687681Y-91252023D01*
X144619205Y-91316185D01*
X144561227Y-91368042D01*
X144511704Y-91409279D01*
X144468591Y-91441583D01*
X144429846Y-91466640D01*
X144393423Y-91486136D01*
X144357280Y-91501758D01*
X144319371Y-91515192D01*
X144277655Y-91528124D01*
X144268344Y-91530897D01*
X144175035Y-91549262D01*
X144065862Y-91556026D01*
X143951750Y-91551488D01*
X143843626Y-91535944D01*
X143773557Y-91517419D01*
X143718239Y-91497453D01*
X143669415Y-91475767D01*
X143622682Y-91449223D01*
X143573636Y-91414683D01*
X143517876Y-91369009D01*
X143450998Y-91309065D01*
X143368600Y-91231712D01*
X143356483Y-91220180D01*
X143284621Y-91153768D01*
X143215936Y-91094074D01*
X143155445Y-91045241D01*
X143108162Y-91011412D01*
X143092663Y-91002258D01*
X143014195Y-90960935D01*
X141346999Y-90957027D01*
X139679804Y-90953119D01*
X139679804Y-91165544D01*
X139679804Y-91377969D01*
X141149134Y-91381973D01*
X142618465Y-91385978D01*
X142713733Y-91420244D01*
X142784094Y-91448432D01*
X142850129Y-91481877D01*
X142916277Y-91523757D01*
X142986979Y-91577249D01*
X143066676Y-91645531D01*
X143159807Y-91731779D01*
X143191741Y-91762317D01*
X143259876Y-91826527D01*
X143324132Y-91884650D01*
X143380399Y-91933154D01*
X143424568Y-91968510D01*
X143452529Y-91987188D01*
X143454623Y-91988150D01*
X143470938Y-91993007D01*
X143496226Y-91997078D01*
X143532839Y-92000426D01*
X143583133Y-92003114D01*
X143649461Y-92005204D01*
X143734177Y-92006758D01*
X143839636Y-92007839D01*
X143968192Y-92008510D01*
X144122198Y-92008833D01*
X144235250Y-92008886D01*
X144405546Y-92009035D01*
X144549291Y-92009148D01*
X144669246Y-92008728D01*
X144768171Y-92007277D01*
X144848825Y-92004298D01*
X144913968Y-91999291D01*
X144966360Y-91991759D01*
X145008761Y-91981204D01*
X145043931Y-91967129D01*
X145074628Y-91949034D01*
X145103614Y-91926423D01*
X145133647Y-91898797D01*
X145167488Y-91865658D01*
X145199007Y-91834988D01*
X145311594Y-91727044D01*
X145295096Y-91671976D01*
X145274895Y-91556246D01*
X145276204Y-91533883D01*
X145642807Y-91533883D01*
X145660011Y-91592194D01*
X145687909Y-91628940D01*
X145738164Y-91663636D01*
X145792574Y-91669823D01*
X145848134Y-91650897D01*
X145891477Y-91613225D01*
X145917999Y-91558459D01*
X145923543Y-91517429D01*
X145910630Y-91473870D01*
X145877282Y-91431563D01*
X145831586Y-91398529D01*
X145788649Y-91383662D01*
X145750010Y-91381194D01*
X145720767Y-91392424D01*
X145689716Y-91419685D01*
X145652725Y-91474453D01*
X145642807Y-91533883D01*
X145276204Y-91533883D01*
X145281670Y-91440503D01*
X145314029Y-91329944D01*
X145370579Y-91229766D01*
X145432045Y-91160825D01*
X145531614Y-91087009D01*
X145638455Y-91039727D01*
X145748854Y-91018366D01*
X145859100Y-91022311D01*
X145965479Y-91050947D01*
X146064280Y-91103661D01*
X146151790Y-91179837D01*
X146224297Y-91278862D01*
X146232361Y-91293260D01*
X146256795Y-91340638D01*
X146271713Y-91379160D01*
X146279437Y-91419212D01*
X146282289Y-91471179D01*
X146282631Y-91518107D01*
X146281566Y-91585460D01*
X146276846Y-91634503D01*
X146266185Y-91676207D01*
X146247297Y-91721543D01*
X146234855Y-91747373D01*
X146169401Y-91849983D01*
X146086154Y-91931597D01*
X145988725Y-91990511D01*
X145880727Y-92025023D01*
X145765772Y-92033428D01*
X145661390Y-92017792D01*
X145568423Y-91993975D01*
X145433955Y-92122348D01*
X145342524Y-92203952D01*
X145259103Y-92264774D01*
X145176455Y-92309069D01*
X145087343Y-92341091D01*
X145041577Y-92353015D01*
X145001594Y-92358779D01*
X144936272Y-92363769D01*
X144849269Y-92367984D01*
X144744241Y-92371424D01*
X144624846Y-92374091D01*
X144494740Y-92375985D01*
X144357580Y-92377106D01*
X144217024Y-92377454D01*
X144076728Y-92377030D01*
X143940348Y-92375834D01*
X143811543Y-92373867D01*
X143693968Y-92371130D01*
X143591281Y-92367621D01*
X143507139Y-92363343D01*
X143445198Y-92358295D01*
X143410437Y-92352835D01*
X143350993Y-92334911D01*
X143295859Y-92312045D01*
X143240969Y-92281405D01*
X143182258Y-92240160D01*
X143115660Y-92185477D01*
X143037109Y-92114525D01*
X142951628Y-92033255D01*
X142866119Y-91951712D01*
X142796755Y-91888558D01*
X142739391Y-91841024D01*
X142689883Y-91806341D01*
X142644086Y-91781740D01*
X142597857Y-91764452D01*
X142547051Y-91751709D01*
X142523197Y-91747018D01*
X142493295Y-91744266D01*
X142434958Y-91741746D01*
X142349063Y-91739467D01*
X142236488Y-91737438D01*
X142098111Y-91735670D01*
X141934809Y-91734171D01*
X141747460Y-91732951D01*
X141536940Y-91732020D01*
X141304128Y-91731387D01*
X141061194Y-91731070D01*
X139679804Y-91730120D01*
X139679804Y-92066647D01*
X139680553Y-92175874D01*
X139682672Y-92276276D01*
X139685965Y-92362959D01*
X139690238Y-92431026D01*
X139695295Y-92475584D01*
X139696298Y-92480842D01*
X139737067Y-92606544D01*
X139801555Y-92716349D01*
X139887690Y-92807948D01*
X139993397Y-92879035D01*
X140090190Y-92919433D01*
X140100547Y-92922395D01*
X140113226Y-92925124D01*
X140129412Y-92927630D01*
X140150291Y-92929922D01*
X140177047Y-92932010D01*
X140210866Y-92933905D01*
X140252933Y-92935616D01*
X140304433Y-92937153D01*
X140366551Y-92938526D01*
X140440474Y-92939744D01*
X140527385Y-92940819D01*
X140628470Y-92941759D01*
X140744915Y-92942574D01*
X140877905Y-92943275D01*
X141028624Y-92943871D01*
X141198258Y-92944372D01*
X141387993Y-92944787D01*
X141599013Y-92945128D01*
X141832504Y-92945403D01*
X142089651Y-92945623D01*
X142371639Y-92945797D01*
X142679654Y-92945936D01*
X143014880Y-92946049D01*
X143293490Y-92946125D01*
X146416178Y-92946913D01*
X146508844Y-92915619D01*
X146613897Y-92865840D01*
X146711066Y-92792173D01*
X146793460Y-92700029D01*
X146805776Y-92682511D01*
X146817248Y-92666341D01*
X146827824Y-92652315D01*
X146837539Y-92639241D01*
X146846429Y-92625929D01*
X146854527Y-92611188D01*
X146861868Y-92593827D01*
X146868488Y-92572654D01*
X146874420Y-92546479D01*
X146879700Y-92514110D01*
X146884362Y-92474357D01*
X146888441Y-92426029D01*
X146891971Y-92367933D01*
X146894988Y-92298880D01*
X146897526Y-92217679D01*
X146899620Y-92123137D01*
X146901304Y-92014065D01*
X146902614Y-91889271D01*
X146903583Y-91747564D01*
X146904248Y-91587753D01*
X146904641Y-91408647D01*
X146904799Y-91209055D01*
X146904755Y-90987786D01*
X146904545Y-90743648D01*
X146904203Y-90475452D01*
X146903764Y-90182005D01*
X146903263Y-89862116D01*
X146902734Y-89514596D01*
X146902517Y-89363358D01*
X146898211Y-86300115D01*
X146851157Y-86203967D01*
X146788724Y-86105072D01*
X146704312Y-86013347D01*
X146605253Y-85935865D01*
X146528367Y-85892581D01*
X146429198Y-85845759D01*
X143352039Y-85841892D01*
X142948886Y-85841458D01*
X142572393Y-85841201D01*
X142222757Y-85841121D01*
X141900173Y-85841217D01*
X141604837Y-85841489D01*
X141336945Y-85841935D01*
X141096693Y-85842555D01*
X140884276Y-85843349D01*
X140699891Y-85844316D01*
X140543733Y-85845454D01*
X140415998Y-85846764D01*
X140316882Y-85848245D01*
X140246580Y-85849896D01*
X140205289Y-85851716D01*
X140195079Y-85852778D01*
X140067856Y-85890766D01*
X139951856Y-85954456D01*
X139884231Y-86009117D01*
X139805701Y-86095239D01*
X139747895Y-86190104D01*
X139707417Y-86294618D01*
X139703606Y-86307739D01*
X139700162Y-86322374D01*
X139697066Y-86339995D01*
X139694301Y-86362077D01*
X139691848Y-86390091D01*
X139689687Y-86425510D01*
X139687801Y-86469808D01*
X139686170Y-86524456D01*
X139684777Y-86590929D01*
X139683603Y-86670698D01*
X139682629Y-86765238D01*
X139681836Y-86876019D01*
X139681206Y-87004516D01*
X139680721Y-87152202D01*
X139680362Y-87320548D01*
X139680110Y-87511029D01*
X139679947Y-87725116D01*
X139679854Y-87964283D01*
X139679812Y-88230003D01*
X139679804Y-88485264D01*
X139679804Y-90587190D01*
X139240104Y-90587190D01*
X139240104Y-90279562D01*
X139240104Y-89650544D01*
X138713513Y-89646189D01*
X138575084Y-89644980D01*
X138462915Y-89643753D01*
X138373955Y-89642321D01*
X138305150Y-89640500D01*
X138253449Y-89638104D01*
X138215799Y-89634947D01*
X138189148Y-89630844D01*
X138170443Y-89625609D01*
X138156633Y-89619057D01*
X138145568Y-89611663D01*
X138107246Y-89572327D01*
X138072392Y-89517555D01*
X138047306Y-89459127D01*
X138038257Y-89410967D01*
X138049742Y-89353676D01*
X138079872Y-89292893D01*
X138122159Y-89240211D01*
X138144186Y-89221690D01*
X138157306Y-89212700D01*
X138170931Y-89205415D01*
X138188154Y-89199628D01*
X138212064Y-89195128D01*
X138245753Y-89191709D01*
X138292311Y-89189161D01*
X138354830Y-89187276D01*
X138436399Y-89185846D01*
X138540111Y-89184662D01*
X138669056Y-89183516D01*
X138716128Y-89183124D01*
X139240104Y-89178769D01*
X139240104Y-88542423D01*
X139240104Y-88485264D01*
X139240104Y-87906076D01*
X138714965Y-87901884D01*
X138189827Y-87897692D01*
X138137336Y-87857638D01*
X138083598Y-87800608D01*
X138052800Y-87733253D01*
X138044387Y-87661485D01*
X138057805Y-87591215D01*
X138092500Y-87528355D01*
X138147920Y-87478817D01*
X138174134Y-87464790D01*
X138192729Y-87457182D01*
X138213631Y-87451071D01*
X138240109Y-87446294D01*
X138275432Y-87442683D01*
X138322869Y-87440075D01*
X138385690Y-87438304D01*
X138467164Y-87437204D01*
X138570559Y-87436611D01*
X138699146Y-87436359D01*
X138737245Y-87436329D01*
X139238368Y-87436007D01*
X139243442Y-86816763D01*
X139244750Y-86664976D01*
X139246057Y-86539537D01*
X139247513Y-86437480D01*
X139249269Y-86355841D01*
X139251478Y-86291653D01*
X139254288Y-86241951D01*
X139257853Y-86203771D01*
X139262323Y-86174147D01*
X139267848Y-86150113D01*
X139274581Y-86128704D01*
X139279144Y-86116202D01*
X139347330Y-85964490D01*
X139432076Y-85831622D01*
X139538579Y-85710043D01*
X139595387Y-85656647D01*
X139694440Y-85578714D01*
X139804255Y-85513679D01*
X139933225Y-85456719D01*
X139962015Y-85445887D01*
X140068205Y-85406897D01*
X140701604Y-85402094D01*
X141335003Y-85397290D01*
X141339169Y-84842111D01*
X141340294Y-84699688D01*
X141341434Y-84583621D01*
X141342760Y-84490954D01*
X141344441Y-84418732D01*
X141346649Y-84363999D01*
X141349553Y-84323797D01*
X141353326Y-84295172D01*
X141358137Y-84275166D01*
X141364158Y-84260824D01*
X141371558Y-84249190D01*
X141373554Y-84246478D01*
X141428438Y-84188321D01*
X141490763Y-84154986D01*
X141558913Y-84142564D01*
X141643767Y-84150379D01*
X141719218Y-84185057D01*
X141780918Y-84244588D01*
X141781657Y-84245580D01*
X141789548Y-84257168D01*
X141795984Y-84270525D01*
X141801137Y-84288621D01*
X141805177Y-84314426D01*
X141808277Y-84350909D01*
X141810609Y-84401041D01*
X141812343Y-84467791D01*
X141813651Y-84554130D01*
X141814705Y-84663028D01*
X141815677Y-84797454D01*
X141815952Y-84839175D01*
X141819555Y-85391402D01*
X142438860Y-85391402D01*
X143058165Y-85391402D01*
X143065493Y-84831838D01*
X143067431Y-84688677D01*
X143069247Y-84571888D01*
X143071121Y-84478534D01*
X143073236Y-84405675D01*
X143075774Y-84350372D01*
X143078917Y-84309687D01*
X143082846Y-84280680D01*
X143087744Y-84260413D01*
X143093793Y-84245947D01*
X143101175Y-84234343D01*
X143102607Y-84232401D01*
X143160875Y-84176969D01*
X143233394Y-84147005D01*
X143311600Y-84142276D01*
X143386991Y-84157087D01*
X143444355Y-84191345D01*
X143489940Y-84249267D01*
X143501529Y-84270467D01*
X143510141Y-84288053D01*
X143517106Y-84305761D01*
X143522599Y-84326748D01*
X143526795Y-84354173D01*
X143529868Y-84391197D01*
X143531993Y-84440978D01*
X143533344Y-84506675D01*
X143534097Y-84591447D01*
X143534426Y-84698454D01*
X143534505Y-84830855D01*
X143534506Y-84866868D01*
X143534506Y-85398730D01*
X144156911Y-85398730D01*
X144779315Y-85398730D01*
X144783483Y-84842831D01*
X144784608Y-84700308D01*
X144785748Y-84584143D01*
X144787072Y-84491383D01*
X144788751Y-84419074D01*
X144790955Y-84364262D01*
X144793855Y-84323993D01*
X144797620Y-84295314D01*
X144802422Y-84275270D01*
X144808431Y-84260906D01*
X144815816Y-84249271D01*
X144817870Y-84246478D01*
X144873388Y-84187937D01*
X144936942Y-84154265D01*
X145003229Y-84141872D01*
X145079499Y-84147333D01*
G37*
D16*
X185875000Y-109350000D02*
G75*
G02*
X185625000Y-109350000I-125000J0D01*
G01*
X185625000Y-109350000D02*
G75*
G02*
X185875000Y-109350000I125000J0D01*
G01*
D13*
X185540000Y-97564758D02*
X185540000Y-98385242D01*
X186660000Y-97564758D02*
X186660000Y-98385242D01*
X185565000Y-114872936D02*
X185565000Y-115327064D01*
X187035000Y-114872936D02*
X187035000Y-115327064D01*
X161440000Y-118012500D02*
X161440000Y-117362500D01*
X161440000Y-118012500D02*
X161440000Y-118662500D01*
X164560000Y-118012500D02*
X164560000Y-117362500D01*
X164560000Y-118012500D02*
X164560000Y-118662500D01*
X164840000Y-117090000D02*
X164510000Y-116850000D01*
X164840000Y-116610000D01*
X164840000Y-117090000D01*
G36*
X164840000Y-117090000D02*
G01*
X164510000Y-116850000D01*
X164840000Y-116610000D01*
X164840000Y-117090000D01*
G37*
X123338748Y-123065000D02*
X123861252Y-123065000D01*
X123338748Y-124535000D02*
X123861252Y-124535000D01*
X180065000Y-111238748D02*
X180065000Y-111761252D01*
X181535000Y-111238748D02*
X181535000Y-111761252D01*
X191824555Y-113665000D02*
X192347059Y-113665000D01*
X191824555Y-115135000D02*
X192347059Y-115135000D01*
X158514564Y-88965000D02*
X158060436Y-88965000D01*
X158514564Y-90435000D02*
X158060436Y-90435000D01*
D14*
X123400000Y-107550000D02*
X123700000Y-107550000D01*
X123400000Y-110450000D02*
X123400000Y-107550000D01*
X123700000Y-107550000D02*
X123700000Y-110450000D01*
X123700000Y-110450000D02*
X123400000Y-110450000D01*
X125150000Y-110535000D02*
X124050000Y-110535000D01*
D13*
X110900000Y-88970000D02*
X110900000Y-99250000D01*
X110900000Y-99250000D02*
X113560000Y-99250000D01*
X113560000Y-88970000D02*
X110900000Y-88970000D01*
X113560000Y-91570000D02*
X110900000Y-91570000D01*
X113560000Y-94110000D02*
X110900000Y-94110000D01*
X113560000Y-96650000D02*
X110900000Y-96650000D01*
X113560000Y-99250000D02*
X113560000Y-88970000D01*
X113957071Y-89920000D02*
X113560000Y-89920000D01*
X113957071Y-90680000D02*
X113560000Y-90680000D01*
X113957071Y-92460000D02*
X113560000Y-92460000D01*
X113957071Y-93220000D02*
X113560000Y-93220000D01*
X113957071Y-95000000D02*
X113560000Y-95000000D01*
X113957071Y-95760000D02*
X113560000Y-95760000D01*
X113957071Y-97540000D02*
X113560000Y-97540000D01*
X113957071Y-98300000D02*
X113560000Y-98300000D01*
X116430000Y-97540000D02*
X116042929Y-97540000D01*
X116430000Y-98300000D02*
X116042929Y-98300000D01*
X116497071Y-89920000D02*
X116042929Y-89920000D01*
X116497071Y-90680000D02*
X116042929Y-90680000D01*
X116497071Y-92460000D02*
X116042929Y-92460000D01*
X116497071Y-93220000D02*
X116042929Y-93220000D01*
X116497071Y-95000000D02*
X116042929Y-95000000D01*
X116497071Y-95760000D02*
X116042929Y-95760000D01*
X118810000Y-97920000D02*
X118810000Y-99190000D01*
X118810000Y-99190000D02*
X117540000Y-99190000D01*
X193938748Y-119665000D02*
X194461252Y-119665000D01*
X193938748Y-121135000D02*
X194461252Y-121135000D01*
D10*
X202088000Y-104092800D02*
X203815200Y-104092800D01*
X202088000Y-104296000D02*
X202088000Y-104092800D01*
X202088000Y-105007200D02*
X202088000Y-104804000D01*
X203815200Y-104092800D02*
X203815200Y-105007200D01*
X203815200Y-105007200D02*
X202088000Y-105007200D01*
D12*
X201959800Y-104550000D02*
G75*
G02*
X201809800Y-104550000I-75000J0D01*
G01*
X201809800Y-104550000D02*
G75*
G02*
X201959800Y-104550000I75000J0D01*
G01*
D13*
X183311252Y-93565000D02*
X182788748Y-93565000D01*
X183311252Y-95035000D02*
X182788748Y-95035000D01*
X168265000Y-95914564D02*
X168265000Y-95460436D01*
X169735000Y-95914564D02*
X169735000Y-95460436D01*
X183311252Y-95865000D02*
X182788748Y-95865000D01*
X183311252Y-97335000D02*
X182788748Y-97335000D01*
X187265000Y-91936252D02*
X187265000Y-91413748D01*
X188735000Y-91936252D02*
X188735000Y-91413748D01*
D11*
X192087500Y-93400000D02*
X192087500Y-94050000D01*
X192100000Y-96187500D02*
X192100000Y-96812500D01*
X192100000Y-96812500D02*
X192750000Y-96812500D01*
X192712500Y-93400000D02*
X192087500Y-93400000D01*
D10*
X195300000Y-93300000D02*
X195300000Y-93300000D01*
X195300000Y-93400000D02*
X195300000Y-93400000D01*
D11*
X195687500Y-96800000D02*
X196312500Y-96800000D01*
X196300000Y-93387500D02*
X195650000Y-93387500D01*
X196300000Y-94012500D02*
X196300000Y-93387500D01*
X196312500Y-96800000D02*
X196312500Y-96150000D01*
D10*
X195300000Y-93300000D02*
G75*
G02*
X195300000Y-93400000I0J-50000D01*
G01*
X195300000Y-93400000D02*
G75*
G02*
X195300000Y-93300000I0J50000D01*
G01*
D13*
X191824555Y-115956628D02*
X192347059Y-115956628D01*
X191824555Y-117426628D02*
X192347059Y-117426628D01*
X140165000Y-106761252D02*
X140165000Y-106238748D01*
X141635000Y-106761252D02*
X141635000Y-106238748D01*
D17*
X173426500Y-124771200D02*
X173426500Y-126749860D01*
X173873935Y-128428800D02*
X180726065Y-128428800D01*
X174564859Y-124771200D02*
X173426500Y-124771200D01*
X181173500Y-124771200D02*
X180035141Y-124771200D01*
X181173500Y-126749860D02*
X181173500Y-124771200D01*
D13*
X117161252Y-101865000D02*
X116638748Y-101865000D01*
X117161252Y-103335000D02*
X116638748Y-103335000D01*
X161337500Y-87290000D02*
X169337500Y-87290000D01*
X161337500Y-93510000D02*
X169337500Y-93510000D01*
X160827500Y-88140000D02*
X160347500Y-88140000D01*
X160827500Y-87660000D01*
X160827500Y-88140000D01*
G36*
X160827500Y-88140000D02*
G01*
X160347500Y-88140000D01*
X160827500Y-87660000D01*
X160827500Y-88140000D01*
G37*
X123172936Y-111765000D02*
X123627064Y-111765000D01*
X123172936Y-113235000D02*
X123627064Y-113235000D01*
X187361252Y-94065000D02*
X186838748Y-94065000D01*
X187361252Y-95485000D02*
X186838748Y-95485000D01*
X137811252Y-108965000D02*
X137288748Y-108965000D01*
X137811252Y-110435000D02*
X137288748Y-110435000D01*
X172314564Y-90465000D02*
X171860436Y-90465000D01*
X172314564Y-91935000D02*
X171860436Y-91935000D01*
X131865000Y-106238748D02*
X131865000Y-106761252D01*
X133335000Y-106238748D02*
X133335000Y-106761252D01*
D17*
X131849000Y-90174500D02*
X131849000Y-91825500D01*
X132887860Y-90174500D02*
X131849000Y-90174500D01*
X133162139Y-91825500D02*
X133837861Y-91825500D01*
X135151000Y-90174500D02*
X134112140Y-90174500D01*
X135151000Y-91825500D02*
X135151000Y-90174500D01*
X132626200Y-93438400D02*
G75*
G02*
X132473800Y-93438400I-76200J0D01*
G01*
X132473800Y-93438400D02*
G75*
G02*
X132626200Y-93438400I76200J0D01*
G01*
D13*
X197849800Y-104190000D02*
X198050200Y-104190000D01*
X197849800Y-104910000D02*
X198050200Y-104910000D01*
D14*
X120550000Y-80850000D02*
X120550000Y-92350000D01*
X130450000Y-80850000D02*
X120550000Y-80850000D01*
X130450000Y-88450000D02*
X130450000Y-80850000D01*
D13*
X159170000Y-126380000D02*
X159170000Y-129040000D01*
X159170000Y-129040000D02*
X166910000Y-129040000D01*
X160120000Y-123442929D02*
X160120000Y-123897071D01*
X160120000Y-125982929D02*
X160120000Y-126380000D01*
X160880000Y-123442929D02*
X160880000Y-123897071D01*
X160880000Y-125982929D02*
X160880000Y-126380000D01*
X161770000Y-126380000D02*
X161770000Y-129040000D01*
X162660000Y-123442929D02*
X162660000Y-123897071D01*
X162660000Y-125982929D02*
X162660000Y-126380000D01*
X163420000Y-123442929D02*
X163420000Y-123897071D01*
X163420000Y-125982929D02*
X163420000Y-126380000D01*
X164310000Y-126380000D02*
X164310000Y-129040000D01*
X165200000Y-123510000D02*
X165200000Y-123897071D01*
X165200000Y-125982929D02*
X165200000Y-126380000D01*
X165580000Y-121130000D02*
X166850000Y-121130000D01*
X165960000Y-123510000D02*
X165960000Y-123897071D01*
X165960000Y-125982929D02*
X165960000Y-126380000D01*
X166850000Y-121130000D02*
X166850000Y-122400000D01*
X166910000Y-126380000D02*
X159170000Y-126380000D01*
X166910000Y-129040000D02*
X166910000Y-126380000D01*
X124330000Y-102630000D02*
X124330000Y-101300000D01*
X125660000Y-102630000D02*
X124330000Y-102630000D01*
X126930000Y-99970000D02*
X132070000Y-99970000D01*
X126930000Y-102630000D02*
X126930000Y-99970000D01*
X126930000Y-102630000D02*
X132070000Y-102630000D01*
X132070000Y-102630000D02*
X132070000Y-99970000D01*
X158060436Y-91265000D02*
X158514564Y-91265000D01*
X158060436Y-92735000D02*
X158514564Y-92735000D01*
X171965000Y-88611252D02*
X171965000Y-88088748D01*
X173435000Y-88611252D02*
X173435000Y-88088748D01*
X178415000Y-117311252D02*
X178415000Y-116788748D01*
X179885000Y-117311252D02*
X179885000Y-116788748D01*
X138625000Y-104900000D02*
X135625000Y-104900000D01*
X138625000Y-108120000D02*
X135625000Y-108120000D01*
X139145000Y-108280000D02*
X139145000Y-107800000D01*
X139625000Y-107800000D01*
X139145000Y-108280000D01*
G36*
X139145000Y-108280000D02*
G01*
X139145000Y-107800000D01*
X139625000Y-107800000D01*
X139145000Y-108280000D01*
G37*
X183311252Y-98165000D02*
X182788748Y-98165000D01*
X183311252Y-99635000D02*
X182788748Y-99635000D01*
X109750000Y-110980000D02*
X109750000Y-120380000D01*
X111650000Y-110980000D02*
X109750000Y-110980000D01*
X111650000Y-120380000D02*
X109750000Y-120380000D01*
X115550000Y-110980000D02*
X113550000Y-110980000D01*
X115550000Y-120380000D02*
X113550000Y-120380000D01*
X159072936Y-118265000D02*
X159527064Y-118265000D01*
X159072936Y-119735000D02*
X159527064Y-119735000D01*
X174265000Y-110672936D02*
X174265000Y-111127064D01*
X175735000Y-110672936D02*
X175735000Y-111127064D01*
X198765000Y-100261252D02*
X198765000Y-99738748D01*
X200235000Y-100261252D02*
X200235000Y-99738748D01*
X129527064Y-93965000D02*
X129072936Y-93965000D01*
X129527064Y-95435000D02*
X129072936Y-95435000D01*
D10*
X180300000Y-118100000D02*
X180300000Y-118100000D01*
X180300000Y-118100000D02*
X180300000Y-118100000D01*
X180400000Y-118100000D02*
X180400000Y-118100000D01*
D11*
X180735000Y-118135000D02*
X180735000Y-118760000D01*
X180735000Y-118760000D02*
X181385000Y-118760000D01*
X180737500Y-115340000D02*
X180737500Y-115990000D01*
X181362500Y-115340000D02*
X180737500Y-115340000D01*
X184135000Y-118760000D02*
X184760000Y-118760000D01*
X184760000Y-115337500D02*
X184110000Y-115337500D01*
X184760000Y-115962500D02*
X184760000Y-115337500D01*
X184760000Y-118760000D02*
X184760000Y-118110000D01*
D10*
X180300000Y-118100000D02*
G75*
G02*
X180400000Y-118100000I50000J0D01*
G01*
X180400000Y-118100000D02*
G75*
G02*
X180300000Y-118100000I-50000J0D01*
G01*
X180400000Y-118100000D02*
G75*
G02*
X180300000Y-118100000I-50000J0D01*
G01*
D13*
X142740000Y-98400000D02*
X142740000Y-97600000D01*
X142740000Y-98400000D02*
X142740000Y-99200000D01*
X145860000Y-98400000D02*
X145860000Y-97600000D01*
X145860000Y-98400000D02*
X145860000Y-99200000D01*
X146140000Y-97340000D02*
X145810000Y-97100000D01*
X146140000Y-96860000D01*
X146140000Y-97340000D01*
G36*
X146140000Y-97340000D02*
G01*
X145810000Y-97100000D01*
X146140000Y-96860000D01*
X146140000Y-97340000D01*
G37*
D14*
X126925000Y-104275000D02*
X126925000Y-110825000D01*
X129475000Y-110825000D02*
X129475000Y-104025000D01*
D13*
X123800000Y-114040000D02*
X123000000Y-114040000D01*
X123800000Y-114040000D02*
X124600000Y-114040000D01*
X123800000Y-117160000D02*
X123000000Y-117160000D01*
X123800000Y-117160000D02*
X124600000Y-117160000D01*
X125340000Y-117440000D02*
X124860000Y-117440000D01*
X125100000Y-117110000D01*
X125340000Y-117440000D01*
G36*
X125340000Y-117440000D02*
G01*
X124860000Y-117440000D01*
X125100000Y-117110000D01*
X125340000Y-117440000D01*
G37*
X172314564Y-92665000D02*
X171860436Y-92665000D01*
X172314564Y-94135000D02*
X171860436Y-94135000D01*
X196265000Y-100261252D02*
X196265000Y-99738748D01*
X197735000Y-100261252D02*
X197735000Y-99738748D01*
X184161252Y-111465000D02*
X183638748Y-111465000D01*
X184161252Y-112935000D02*
X183638748Y-112935000D01*
D14*
X119700000Y-125325000D02*
X119700000Y-125790800D01*
X119700000Y-128807900D02*
X119700000Y-128342100D01*
X119700000Y-128807900D02*
X125250000Y-128807900D01*
X125250000Y-125325000D02*
X119700000Y-125325000D01*
X125250000Y-125325000D02*
X125250000Y-125790800D01*
X125250000Y-128807900D02*
X125250000Y-128342100D01*
D13*
X166877064Y-118265000D02*
X166422936Y-118265000D01*
X166877064Y-119735000D02*
X166422936Y-119735000D01*
X192365000Y-99261252D02*
X192365000Y-98738748D01*
X193835000Y-99261252D02*
X193835000Y-98738748D01*
X190415000Y-119430376D02*
X190415000Y-119952880D01*
X191885000Y-119430376D02*
X191885000Y-119952880D01*
X197488748Y-108115000D02*
X198011252Y-108115000D01*
X197488748Y-109585000D02*
X198011252Y-109585000D01*
X199490000Y-105034165D02*
X199490000Y-105265835D01*
X200210000Y-105034165D02*
X200210000Y-105265835D01*
X178765000Y-104761252D02*
X178765000Y-104238748D01*
X180235000Y-104761252D02*
X180235000Y-104238748D01*
D14*
X142750000Y-104950000D02*
X144050000Y-104950000D01*
X144400000Y-105070000D02*
X144500000Y-105070000D01*
X144400000Y-107990000D02*
X144400000Y-105070000D01*
X144500000Y-105070000D02*
X144500000Y-107990000D01*
X144500000Y-107990000D02*
X144400000Y-107990000D01*
%LPC*%
D18*
X197800000Y-94150000D03*
X197800000Y-96050000D03*
D19*
X132450000Y-94640000D03*
X132450000Y-96560000D03*
X134550000Y-95600000D03*
D20*
X155160000Y-112700000D03*
D21*
X157700000Y-112700000D03*
X160240000Y-112700000D03*
D20*
X151900000Y-122400000D03*
D21*
X151900000Y-124940000D03*
X149360000Y-122400000D03*
X149360000Y-124940000D03*
X146820000Y-122400000D03*
X146820000Y-124940000D03*
D20*
X140440000Y-122400000D03*
D21*
X140440000Y-124940000D03*
X137900000Y-122400000D03*
X137900000Y-124940000D03*
X135360000Y-122400000D03*
X135360000Y-124940000D03*
X132820000Y-122400000D03*
X132820000Y-124940000D03*
X130280000Y-122400000D03*
X130280000Y-124940000D03*
D22*
X206000000Y-126000000D03*
D23*
X196050000Y-104582500D03*
X196050000Y-105717500D03*
D24*
X122587500Y-118800000D03*
X124412500Y-118800000D03*
D25*
X186500000Y-109200000D03*
X187000000Y-109200000D03*
X187500000Y-109200000D03*
X188000000Y-109200000D03*
X188500000Y-109200000D03*
X189000000Y-109200000D03*
X189500000Y-109200000D03*
X190000000Y-109200000D03*
X190500000Y-109200000D03*
X191000000Y-109200000D03*
X191500000Y-109200000D03*
X192000000Y-109200000D03*
D26*
X192700000Y-108500000D03*
X192700000Y-108000000D03*
X192700000Y-107500000D03*
X192700000Y-107000000D03*
X192700000Y-106500000D03*
X192700000Y-106000000D03*
X192700000Y-105500000D03*
X192700000Y-105000000D03*
X192700000Y-104500000D03*
X192700000Y-104000000D03*
X192700000Y-103500000D03*
X192700000Y-103000000D03*
D25*
X192000000Y-102300000D03*
X191500000Y-102300000D03*
X191000000Y-102300000D03*
X190500000Y-102300000D03*
X190000000Y-102300000D03*
X189500000Y-102300000D03*
X189000000Y-102300000D03*
X188500000Y-102300000D03*
X188000000Y-102300000D03*
X187500000Y-102300000D03*
X187000000Y-102300000D03*
X186500000Y-102300000D03*
D26*
X185800000Y-103000000D03*
X185800000Y-103500000D03*
X185800000Y-104000000D03*
X185800000Y-104500000D03*
X185800000Y-105000000D03*
X185800000Y-105500000D03*
X185800000Y-106000000D03*
X185800000Y-106500000D03*
X185800000Y-107000000D03*
X185800000Y-107500000D03*
X185800000Y-108000000D03*
X185800000Y-108500000D03*
D27*
X189250000Y-105750000D03*
D28*
X186100000Y-96825000D03*
X186100000Y-99125000D03*
D29*
X186300000Y-114187500D03*
X186300000Y-116012500D03*
D30*
X163950000Y-117075000D03*
X162050000Y-117075000D03*
X163000000Y-118950000D03*
D31*
X122650000Y-123800000D03*
X124550000Y-123800000D03*
D18*
X180800000Y-110550000D03*
X180800000Y-112450000D03*
D31*
X191135807Y-114400000D03*
X193035807Y-114400000D03*
D32*
X159200000Y-89700000D03*
X157375000Y-89700000D03*
D19*
X124600000Y-109960000D03*
X124600000Y-108040000D03*
X122500000Y-109000000D03*
D20*
X117540000Y-97920000D03*
D21*
X115000000Y-97920000D03*
X117540000Y-95380000D03*
X115000000Y-95380000D03*
X117540000Y-92840000D03*
X115000000Y-92840000D03*
X117540000Y-90300000D03*
X115000000Y-90300000D03*
D31*
X193250000Y-120400000D03*
X195150000Y-120400000D03*
D33*
X202338600Y-104550000D03*
D34*
X202951600Y-104777500D03*
D33*
X203564100Y-104550000D03*
D34*
X202951600Y-104322500D03*
D35*
X184000000Y-94300000D03*
X182100000Y-94300000D03*
D22*
X114000000Y-84000000D03*
D36*
X169000000Y-96600000D03*
X169000000Y-94775000D03*
D35*
X184000000Y-96600000D03*
X182100000Y-96600000D03*
D37*
X188000000Y-92625000D03*
X188000000Y-90725000D03*
D38*
X195300000Y-94300000D03*
X193100000Y-94300000D03*
X193100000Y-95900000D03*
X195300000Y-95900000D03*
D31*
X191135807Y-116691628D03*
X193035807Y-116691628D03*
D37*
X140900000Y-107450000D03*
X140900000Y-105550000D03*
D39*
X175049999Y-124898200D03*
X175550001Y-124898200D03*
X176050000Y-124898200D03*
X176549999Y-124898200D03*
X177050000Y-124898200D03*
X177550000Y-124898200D03*
X178050001Y-124898200D03*
X178550000Y-124898200D03*
X179049999Y-124898200D03*
X179550001Y-124898200D03*
D40*
X181249700Y-127590600D03*
X173350300Y-127590600D03*
D35*
X117850000Y-102600000D03*
X115950000Y-102600000D03*
D41*
X161437500Y-88495000D03*
X161437500Y-89765000D03*
X161437500Y-91035000D03*
X161437500Y-92305000D03*
X169237500Y-92305000D03*
X169237500Y-91035000D03*
X169237500Y-89765000D03*
X169237500Y-88495000D03*
D42*
X165337500Y-90400000D03*
D24*
X122487500Y-112500000D03*
X124312500Y-112500000D03*
D43*
X188125000Y-94775000D03*
X186075000Y-94775000D03*
D35*
X138500000Y-109700000D03*
X136600000Y-109700000D03*
D32*
X173000000Y-91200000D03*
X171175000Y-91200000D03*
D18*
X132600000Y-105550000D03*
X132600000Y-107450000D03*
D44*
X132549999Y-92016000D03*
X134450001Y-92016000D03*
X133500000Y-89984000D03*
D45*
X197377500Y-104550000D03*
X198522500Y-104550000D03*
D46*
X128000000Y-88450000D03*
D47*
X125500000Y-88450000D03*
X123000000Y-88450000D03*
D20*
X165580000Y-122400000D03*
D21*
X165580000Y-124940000D03*
X163040000Y-122400000D03*
X163040000Y-124940000D03*
X160500000Y-122400000D03*
X160500000Y-124940000D03*
D20*
X125660000Y-101300000D03*
D21*
X128200000Y-101300000D03*
X130740000Y-101300000D03*
D24*
X157375000Y-92000000D03*
X159200000Y-92000000D03*
D37*
X172700000Y-89300000D03*
X172700000Y-87400000D03*
X179150000Y-118000000D03*
X179150000Y-116100000D03*
D48*
X138575000Y-107485000D03*
X138575000Y-106835000D03*
X138575000Y-106185000D03*
X138575000Y-105535000D03*
X135675000Y-105535000D03*
X135675000Y-106185000D03*
X135675000Y-106835000D03*
X135675000Y-107485000D03*
D49*
X137125000Y-106510000D03*
D35*
X184000000Y-98900000D03*
X182100000Y-98900000D03*
D50*
X116250000Y-112790000D03*
X116250000Y-118570000D03*
D51*
X117695000Y-112430000D03*
X117695000Y-113230000D03*
D52*
X117695000Y-114430000D03*
X117695000Y-115430000D03*
X117695000Y-115930000D03*
X117695000Y-116930000D03*
D51*
X117695000Y-118130000D03*
X117695000Y-118930000D03*
X117695000Y-118930000D03*
X117695000Y-118130000D03*
D52*
X117695000Y-117430000D03*
X117695000Y-116430000D03*
X117695000Y-114930000D03*
X117695000Y-113930000D03*
D51*
X117695000Y-113230000D03*
X117695000Y-112430000D03*
D53*
X116780000Y-111360000D03*
D54*
X112600000Y-111360000D03*
D53*
X116780000Y-120000000D03*
D54*
X112600000Y-120000000D03*
D24*
X158387500Y-119000000D03*
X160212500Y-119000000D03*
D29*
X175000000Y-109987500D03*
X175000000Y-111812500D03*
D37*
X199500000Y-100950000D03*
X199500000Y-99050000D03*
D55*
X207000000Y-101725000D03*
X207050800Y-107375000D03*
D56*
X207000000Y-104550000D03*
D22*
X114000000Y-126000000D03*
D32*
X130212500Y-94700000D03*
X128387500Y-94700000D03*
D57*
X181600000Y-118000000D03*
X183900000Y-118000000D03*
X183900000Y-116100000D03*
X181600000Y-116100000D03*
D58*
X145250000Y-97262500D03*
X144300000Y-97262500D03*
X143350000Y-97262500D03*
X143350000Y-99537500D03*
X145250000Y-99537500D03*
D59*
X128200000Y-104800000D03*
X128200000Y-110300000D03*
D60*
X124937500Y-116550000D03*
X124937500Y-115600000D03*
X124937500Y-114650000D03*
X122662500Y-114650000D03*
X122662500Y-115600000D03*
X122662500Y-116550000D03*
D32*
X173000000Y-93400000D03*
X171175000Y-93400000D03*
D37*
X197000000Y-100950000D03*
X197000000Y-99050000D03*
D22*
X206000000Y-84000000D03*
D35*
X184850000Y-112200000D03*
X182950000Y-112200000D03*
D61*
X124500000Y-126475000D03*
X124500000Y-128075000D03*
X120400000Y-128075000D03*
X120400000Y-126475000D03*
D62*
X122450000Y-125825000D03*
D32*
X167562500Y-119000000D03*
X165737500Y-119000000D03*
D37*
X193100000Y-99950000D03*
X193100000Y-98050000D03*
D18*
X191150000Y-118741628D03*
X191150000Y-120641628D03*
D31*
X196800000Y-108850000D03*
X198700000Y-108850000D03*
D23*
X199850000Y-104582500D03*
X199850000Y-105717500D03*
D37*
X179500000Y-105450000D03*
X179500000Y-103550000D03*
D63*
X143400000Y-105500000D03*
X143400000Y-107560000D03*
X145500000Y-106530000D03*
%LPD*%
M02*
