G04 #@! TF.GenerationSoftware,KiCad,Pcbnew,8.0.6*
G04 #@! TF.CreationDate,2026-01-19T16:17:50-08:00*
G04 #@! TF.ProjectId,Bluetooth_Board,426c7565-746f-46f7-9468-5f426f617264,B*
G04 #@! TF.SameCoordinates,Original*
G04 #@! TF.FileFunction,Copper,L2,Inr*
G04 #@! TF.FilePolarity,Positive*
%FSLAX46Y46*%
G04 Gerber Fmt 4.6, Leading zero omitted, Abs format (unit mm)*
G04 Created by KiCad (PCBNEW 8.0.6) date 2026-01-19 16:17:50*
%MOMM*%
%LPD*%
G01*
G04 APERTURE LIST*
G04 #@! TA.AperFunction,ComponentPad*
%ADD10O,1.700000X1.700000*%
G04 #@! TD*
G04 #@! TA.AperFunction,ComponentPad*
%ADD11R,1.700000X1.700000*%
G04 #@! TD*
G04 #@! TA.AperFunction,ComponentPad*
%ADD12C,6.400000*%
G04 #@! TD*
G04 #@! TA.AperFunction,ComponentPad*
%ADD13C,1.650000*%
G04 #@! TD*
G04 #@! TA.AperFunction,ComponentPad*
%ADD14O,2.100000X1.000000*%
G04 #@! TD*
G04 #@! TA.AperFunction,ComponentPad*
%ADD15O,1.600000X1.000000*%
G04 #@! TD*
G04 #@! TA.AperFunction,ViaPad*
%ADD16C,0.700000*%
G04 #@! TD*
G04 APERTURE END LIST*
D10*
X160240000Y-112700000D03*
D11*
X151900000Y-122400000D03*
D10*
X151900000Y-124940000D03*
X149360000Y-122400000D03*
X149360000Y-124940000D03*
X146820000Y-122400000D03*
X146820000Y-124940000D03*
X137900000Y-122400000D03*
X135360000Y-122400000D03*
X132820000Y-122400000D03*
X130280000Y-122400000D03*
D12*
X206000000Y-126000000D03*
D11*
X117540000Y-97920000D03*
D10*
X117540000Y-95380000D03*
X117540000Y-92840000D03*
X117540000Y-90300000D03*
D12*
X114000000Y-84000000D03*
D13*
X125500000Y-88450000D03*
D11*
X165580000Y-122400000D03*
D10*
X165580000Y-124940000D03*
X163040000Y-122400000D03*
X163040000Y-124940000D03*
X160500000Y-122400000D03*
X160500000Y-124940000D03*
D14*
X116780000Y-111360000D03*
D15*
X112600000Y-111360000D03*
D14*
X116780000Y-120000000D03*
D15*
X112600000Y-120000000D03*
D12*
X114000000Y-126000000D03*
X206000000Y-84000000D03*
D16*
X200300000Y-96000000D03*
X192900000Y-124400000D03*
X191000000Y-104000000D03*
X155600000Y-93600000D03*
X158900000Y-87200000D03*
X154100000Y-103200000D03*
X157500000Y-121600000D03*
X159150000Y-93700000D03*
X203300000Y-90000000D03*
X208100000Y-93200000D03*
X201500000Y-105900000D03*
X196300000Y-125100000D03*
X198300000Y-123300000D03*
X125800000Y-94300000D03*
X190250000Y-81150000D03*
X126300000Y-123900000D03*
X122700000Y-122100000D03*
X159000000Y-99000000D03*
X168000000Y-102800000D03*
X135400000Y-117200000D03*
X169800000Y-105300000D03*
X174700000Y-103800000D03*
X187400000Y-126200000D03*
X168300000Y-81150000D03*
X191100000Y-124400000D03*
X136800000Y-94300000D03*
X188800000Y-124500000D03*
X203400000Y-101200000D03*
X175650000Y-81100000D03*
X136900000Y-98800000D03*
X167800000Y-110800000D03*
X166200000Y-81150000D03*
X180350000Y-81100000D03*
X204000000Y-114900000D03*
X171050000Y-103700000D03*
X123400000Y-94300000D03*
X195300000Y-87400000D03*
X200100000Y-94600000D03*
X168000000Y-124100000D03*
X144200000Y-112000000D03*
X155800000Y-106500000D03*
X170600000Y-126300000D03*
X199700000Y-103100000D03*
X204600000Y-97900000D03*
X147900000Y-117000000D03*
X193500000Y-126100000D03*
X207400000Y-113500000D03*
X200000000Y-85700000D03*
X158800000Y-106500000D03*
X201400000Y-118000000D03*
X145900000Y-111600000D03*
X198800000Y-117600000D03*
X120500000Y-94300000D03*
X127400000Y-122000000D03*
X139200000Y-92600000D03*
X206900000Y-88400000D03*
X159400000Y-81150000D03*
X156900000Y-118400000D03*
X205700000Y-93300000D03*
X203400000Y-96400000D03*
X160700000Y-105000000D03*
X208900000Y-87600000D03*
X196900000Y-115950000D03*
X194100000Y-101400000D03*
X204800000Y-113400000D03*
X141500000Y-100500000D03*
X205800000Y-96400000D03*
X186000000Y-92300000D03*
X151500000Y-106500000D03*
X204600000Y-94900000D03*
X160100000Y-117000000D03*
X185250000Y-81100000D03*
X152700000Y-104700000D03*
X201500000Y-108300000D03*
X154400000Y-100300000D03*
X173100000Y-118700000D03*
X175600000Y-121000000D03*
X135400000Y-111400000D03*
X164000000Y-81150000D03*
X176400000Y-90300000D03*
X121500000Y-111000000D03*
X157100000Y-102700000D03*
X126600000Y-118800000D03*
X170500000Y-98400000D03*
X177337500Y-92700000D03*
X175237500Y-94550000D03*
X208000000Y-89900000D03*
X170750000Y-81100000D03*
X194600000Y-124400000D03*
X153700000Y-89700000D03*
X149600000Y-116100000D03*
X196100000Y-103100000D03*
X171587500Y-95900000D03*
X206100000Y-114900000D03*
X202000000Y-86200000D03*
X130100000Y-117200000D03*
X150500000Y-81250000D03*
X187800000Y-81100000D03*
X208400000Y-121400000D03*
X201400000Y-111600000D03*
X196950000Y-114150000D03*
X124000000Y-120800000D03*
X203500000Y-107900000D03*
X173250000Y-81100000D03*
X157600000Y-123600000D03*
X194800000Y-105500000D03*
X207400000Y-116600000D03*
X200100000Y-121500000D03*
X203400000Y-99300000D03*
X136900000Y-100200000D03*
X179500000Y-121700000D03*
X190200000Y-126100000D03*
X203600000Y-111700000D03*
X197900000Y-105900000D03*
X197000000Y-89300000D03*
X172800000Y-103900000D03*
X204800000Y-110800000D03*
X176700000Y-117800000D03*
X154200000Y-87300000D03*
X185900000Y-88700000D03*
X181900000Y-121600000D03*
X145800000Y-118600000D03*
X150600000Y-115100000D03*
X201900000Y-110100000D03*
X197900000Y-103100000D03*
X166100000Y-107600000D03*
X194600000Y-118400000D03*
X174700000Y-95900000D03*
X199200000Y-91000000D03*
X138200000Y-119200000D03*
X120200000Y-122100000D03*
X155000000Y-81150000D03*
X206900000Y-94800000D03*
X205700000Y-90000000D03*
X182100000Y-88800000D03*
X132800000Y-112700000D03*
X195300000Y-81800000D03*
X148600000Y-98600000D03*
X126500000Y-115600000D03*
X149300000Y-101400000D03*
X145800000Y-117000000D03*
X136400000Y-89600000D03*
X135200000Y-86500000D03*
X208400000Y-112200000D03*
X196600000Y-107100000D03*
X204400000Y-88400000D03*
X138100000Y-112600000D03*
X178600000Y-112400000D03*
X151600000Y-111900000D03*
X176400000Y-88300000D03*
X195000000Y-97700000D03*
X135400000Y-119200000D03*
X189250000Y-105750000D03*
X132900000Y-117200000D03*
X208500000Y-115000000D03*
X177950000Y-81100000D03*
X130100000Y-119300000D03*
X142300000Y-118900000D03*
X201500000Y-103100000D03*
X177300000Y-121600000D03*
X199800000Y-83800000D03*
X173000000Y-112700000D03*
X155400000Y-88300000D03*
X204500000Y-91700000D03*
X138200000Y-117100000D03*
X184200000Y-126400000D03*
X202600000Y-88100000D03*
X137500000Y-87900000D03*
X197400000Y-81000000D03*
X121600000Y-120800000D03*
X178500000Y-120600000D03*
X140900000Y-111800000D03*
X154300000Y-98500000D03*
X201400000Y-119800000D03*
X193900000Y-92400000D03*
X150700000Y-102400000D03*
X201000000Y-113700000D03*
X193500000Y-85800000D03*
X198100000Y-97500000D03*
X157100000Y-105000000D03*
X176800000Y-103650000D03*
X208500000Y-118200000D03*
X142200000Y-117100000D03*
X139600000Y-100500000D03*
X195200000Y-90700000D03*
X132800000Y-119200000D03*
X127800000Y-112700000D03*
X161650000Y-81150000D03*
X207300000Y-119800000D03*
X206100000Y-109700000D03*
X206100000Y-118200000D03*
X195200000Y-122100000D03*
X203500000Y-106000000D03*
X206100000Y-112200000D03*
X153800000Y-92300000D03*
X206900000Y-97800000D03*
X199900000Y-93200000D03*
X205500000Y-116600000D03*
X206800000Y-91700000D03*
X138200000Y-86300000D03*
X195000000Y-99700000D03*
X182900000Y-81100000D03*
X192500000Y-81100000D03*
X193000000Y-112500000D03*
X208200000Y-109700000D03*
X206000000Y-121500000D03*
X183900000Y-123900000D03*
X184500000Y-114200000D03*
X196800000Y-118400000D03*
X199600000Y-81700000D03*
X152700000Y-81200000D03*
X205900000Y-99300000D03*
X199900000Y-107200000D03*
X129600000Y-112700000D03*
X135400000Y-112600000D03*
X185800000Y-117700000D03*
X205000000Y-119800000D03*
X119800000Y-120300000D03*
X200500000Y-87700000D03*
X200100000Y-110200000D03*
X160700000Y-102800000D03*
X138800000Y-89600000D03*
X197900000Y-85300000D03*
X197000000Y-92400000D03*
X197500000Y-83100000D03*
X155700000Y-86200000D03*
X138400000Y-99600000D03*
X201700000Y-82300000D03*
X203500000Y-109700000D03*
X171600000Y-105300000D03*
X171400000Y-97300000D03*
X201800000Y-101700000D03*
X186000000Y-90500000D03*
X162000000Y-106300000D03*
X208100000Y-99300000D03*
X207200000Y-110900000D03*
X201400000Y-116100000D03*
X198700000Y-119400000D03*
X182150000Y-92300000D03*
X182100000Y-90600000D03*
X196900000Y-120600000D03*
X139700000Y-112900000D03*
X140300000Y-94100000D03*
X203400000Y-103100000D03*
X208100000Y-96400000D03*
X157200000Y-81150000D03*
X200100000Y-97500000D03*
X193500000Y-89200000D03*
X203200000Y-93300000D03*
G04 #@! TA.AperFunction,Conductor*
G36*
X148894075Y-124747007D02*
G01*
X148860000Y-124874174D01*
X148860000Y-125005826D01*
X148894075Y-125132993D01*
X148926988Y-125190000D01*
X147253012Y-125190000D01*
X147285925Y-125132993D01*
X147320000Y-125005826D01*
X147320000Y-124874174D01*
X147285925Y-124747007D01*
X147253012Y-124690000D01*
X148926988Y-124690000D01*
X148894075Y-124747007D01*
G37*
G04 #@! TD.AperFunction*
G04 #@! TA.AperFunction,Conductor*
G36*
X151434075Y-124747007D02*
G01*
X151400000Y-124874174D01*
X151400000Y-125005826D01*
X151434075Y-125132993D01*
X151466988Y-125190000D01*
X149793012Y-125190000D01*
X149825925Y-125132993D01*
X149860000Y-125005826D01*
X149860000Y-124874174D01*
X149825925Y-124747007D01*
X149793012Y-124690000D01*
X151466988Y-124690000D01*
X151434075Y-124747007D01*
G37*
G04 #@! TD.AperFunction*
G04 #@! TA.AperFunction,Conductor*
G36*
X147070000Y-124506988D02*
G01*
X147012993Y-124474075D01*
X146885826Y-124440000D01*
X146754174Y-124440000D01*
X146627007Y-124474075D01*
X146570000Y-124506988D01*
X146570000Y-122833012D01*
X146627007Y-122865925D01*
X146754174Y-122900000D01*
X146885826Y-122900000D01*
X147012993Y-122865925D01*
X147070000Y-122833012D01*
X147070000Y-124506988D01*
G37*
G04 #@! TD.AperFunction*
G04 #@! TA.AperFunction,Conductor*
G36*
X152150000Y-124506988D02*
G01*
X152092993Y-124474075D01*
X151965826Y-124440000D01*
X151834174Y-124440000D01*
X151707007Y-124474075D01*
X151650000Y-124506988D01*
X151650000Y-122833012D01*
X151707007Y-122865925D01*
X151834174Y-122900000D01*
X151965826Y-122900000D01*
X152092993Y-122865925D01*
X152150000Y-122833012D01*
X152150000Y-124506988D01*
G37*
G04 #@! TD.AperFunction*
G04 #@! TA.AperFunction,Conductor*
G36*
X162574075Y-124747007D02*
G01*
X162540000Y-124874174D01*
X162540000Y-125005826D01*
X162574075Y-125132993D01*
X162606988Y-125190000D01*
X160933012Y-125190000D01*
X160965925Y-125132993D01*
X161000000Y-125005826D01*
X161000000Y-124874174D01*
X160965925Y-124747007D01*
X160933012Y-124690000D01*
X162606988Y-124690000D01*
X162574075Y-124747007D01*
G37*
G04 #@! TD.AperFunction*
G04 #@! TA.AperFunction,Conductor*
G36*
X165114075Y-124747007D02*
G01*
X165080000Y-124874174D01*
X165080000Y-125005826D01*
X165114075Y-125132993D01*
X165146988Y-125190000D01*
X163473012Y-125190000D01*
X163505925Y-125132993D01*
X163540000Y-125005826D01*
X163540000Y-124874174D01*
X163505925Y-124747007D01*
X163473012Y-124690000D01*
X165146988Y-124690000D01*
X165114075Y-124747007D01*
G37*
G04 #@! TD.AperFunction*
G04 #@! TA.AperFunction,Conductor*
G36*
X163290000Y-124506988D02*
G01*
X163232993Y-124474075D01*
X163105826Y-124440000D01*
X162974174Y-124440000D01*
X162847007Y-124474075D01*
X162790000Y-124506988D01*
X162790000Y-122833012D01*
X162847007Y-122865925D01*
X162974174Y-122900000D01*
X163105826Y-122900000D01*
X163232993Y-122865925D01*
X163290000Y-122833012D01*
X163290000Y-124506988D01*
G37*
G04 #@! TD.AperFunction*
G04 #@! TA.AperFunction,Conductor*
G36*
X132354075Y-122207007D02*
G01*
X132320000Y-122334174D01*
X132320000Y-122465826D01*
X132354075Y-122592993D01*
X132386988Y-122650000D01*
X130713012Y-122650000D01*
X130745925Y-122592993D01*
X130780000Y-122465826D01*
X130780000Y-122334174D01*
X130745925Y-122207007D01*
X130713012Y-122150000D01*
X132386988Y-122150000D01*
X132354075Y-122207007D01*
G37*
G04 #@! TD.AperFunction*
G04 #@! TA.AperFunction,Conductor*
G36*
X134894075Y-122207007D02*
G01*
X134860000Y-122334174D01*
X134860000Y-122465826D01*
X134894075Y-122592993D01*
X134926988Y-122650000D01*
X133253012Y-122650000D01*
X133285925Y-122592993D01*
X133320000Y-122465826D01*
X133320000Y-122334174D01*
X133285925Y-122207007D01*
X133253012Y-122150000D01*
X134926988Y-122150000D01*
X134894075Y-122207007D01*
G37*
G04 #@! TD.AperFunction*
G04 #@! TA.AperFunction,Conductor*
G36*
X137434075Y-122207007D02*
G01*
X137400000Y-122334174D01*
X137400000Y-122465826D01*
X137434075Y-122592993D01*
X137466988Y-122650000D01*
X135793012Y-122650000D01*
X135825925Y-122592993D01*
X135860000Y-122465826D01*
X135860000Y-122334174D01*
X135825925Y-122207007D01*
X135793012Y-122150000D01*
X137466988Y-122150000D01*
X137434075Y-122207007D01*
G37*
G04 #@! TD.AperFunction*
G04 #@! TA.AperFunction,Conductor*
G36*
X117790000Y-97486988D02*
G01*
X117732993Y-97454075D01*
X117605826Y-97420000D01*
X117474174Y-97420000D01*
X117347007Y-97454075D01*
X117290000Y-97486988D01*
X117290000Y-95813012D01*
X117347007Y-95845925D01*
X117474174Y-95880000D01*
X117605826Y-95880000D01*
X117732993Y-95845925D01*
X117790000Y-95813012D01*
X117790000Y-97486988D01*
G37*
G04 #@! TD.AperFunction*
G04 #@! TA.AperFunction,Conductor*
G36*
X117790000Y-94946988D02*
G01*
X117732993Y-94914075D01*
X117605826Y-94880000D01*
X117474174Y-94880000D01*
X117347007Y-94914075D01*
X117290000Y-94946988D01*
X117290000Y-93273012D01*
X117347007Y-93305925D01*
X117474174Y-93340000D01*
X117605826Y-93340000D01*
X117732993Y-93305925D01*
X117790000Y-93273012D01*
X117790000Y-94946988D01*
G37*
G04 #@! TD.AperFunction*
G04 #@! TA.AperFunction,Conductor*
G36*
X117790000Y-92406988D02*
G01*
X117732993Y-92374075D01*
X117605826Y-92340000D01*
X117474174Y-92340000D01*
X117347007Y-92374075D01*
X117290000Y-92406988D01*
X117290000Y-90733012D01*
X117347007Y-90765925D01*
X117474174Y-90800000D01*
X117605826Y-90800000D01*
X117732993Y-90765925D01*
X117790000Y-90733012D01*
X117790000Y-92406988D01*
G37*
G04 #@! TD.AperFunction*
G04 #@! TA.AperFunction,Conductor*
G36*
X204710937Y-80320185D02*
G01*
X204756692Y-80372989D01*
X204766636Y-80442147D01*
X204737611Y-80505703D01*
X204688336Y-80540264D01*
X204493005Y-80615244D01*
X204147456Y-80791310D01*
X203822206Y-81002531D01*
X203564648Y-81211095D01*
X203564648Y-81211096D01*
X205059301Y-82705748D01*
X204957670Y-82779588D01*
X204779588Y-82957670D01*
X204705748Y-83059300D01*
X203211096Y-81564648D01*
X203211095Y-81564648D01*
X203002531Y-81822206D01*
X202791310Y-82147456D01*
X202615244Y-82493005D01*
X202476262Y-82855063D01*
X202375887Y-83229669D01*
X202375886Y-83229676D01*
X202315219Y-83612712D01*
X202294922Y-83999999D01*
X202294922Y-84000000D01*
X202315219Y-84387287D01*
X202375886Y-84770323D01*
X202375887Y-84770330D01*
X202476262Y-85144936D01*
X202615244Y-85506994D01*
X202791310Y-85852543D01*
X203002531Y-86177793D01*
X203211095Y-86435350D01*
X203211096Y-86435350D01*
X204705748Y-84940698D01*
X204779588Y-85042330D01*
X204957670Y-85220412D01*
X205059300Y-85294251D01*
X203564648Y-86788903D01*
X203564649Y-86788904D01*
X203822206Y-86997468D01*
X204147456Y-87208689D01*
X204493005Y-87384755D01*
X204855063Y-87523737D01*
X205229669Y-87624112D01*
X205229676Y-87624113D01*
X205612712Y-87684780D01*
X205999999Y-87705078D01*
X206000001Y-87705078D01*
X206387287Y-87684780D01*
X206770323Y-87624113D01*
X206770330Y-87624112D01*
X207144936Y-87523737D01*
X207506994Y-87384755D01*
X207852543Y-87208689D01*
X208177783Y-86997476D01*
X208177785Y-86997475D01*
X208435349Y-86788902D01*
X206940698Y-85294251D01*
X207042330Y-85220412D01*
X207220412Y-85042330D01*
X207294251Y-84940698D01*
X208788902Y-86435349D01*
X208997475Y-86177785D01*
X208997476Y-86177783D01*
X209208689Y-85852543D01*
X209384755Y-85506994D01*
X209459735Y-85311666D01*
X209502137Y-85256134D01*
X209567831Y-85232341D01*
X209635959Y-85247843D01*
X209684892Y-85297716D01*
X209699499Y-85356104D01*
X209699499Y-124643895D01*
X209679814Y-124710934D01*
X209627010Y-124756689D01*
X209557852Y-124766633D01*
X209494296Y-124737608D01*
X209459735Y-124688333D01*
X209384755Y-124493005D01*
X209208689Y-124147456D01*
X208997468Y-123822206D01*
X208788904Y-123564649D01*
X208788903Y-123564648D01*
X207294251Y-125059300D01*
X207220412Y-124957670D01*
X207042330Y-124779588D01*
X206940698Y-124705748D01*
X208435350Y-123211096D01*
X208435350Y-123211095D01*
X208177793Y-123002531D01*
X207852543Y-122791310D01*
X207506994Y-122615244D01*
X207144936Y-122476262D01*
X206770330Y-122375887D01*
X206770323Y-122375886D01*
X206387287Y-122315219D01*
X206000001Y-122294922D01*
X205999999Y-122294922D01*
X205612712Y-122315219D01*
X205229676Y-122375886D01*
X205229669Y-122375887D01*
X204855063Y-122476262D01*
X204493005Y-122615244D01*
X204147456Y-122791310D01*
X203822206Y-123002531D01*
X203564648Y-123211095D01*
X203564648Y-123211096D01*
X205059301Y-124705748D01*
X204957670Y-124779588D01*
X204779588Y-124957670D01*
X204705748Y-125059300D01*
X203211096Y-123564648D01*
X203211095Y-123564648D01*
X203002531Y-123822206D01*
X202791310Y-124147456D01*
X202615244Y-124493005D01*
X202476262Y-124855063D01*
X202375887Y-125229669D01*
X202375886Y-125229676D01*
X202315219Y-125612712D01*
X202294922Y-125999999D01*
X202294922Y-126000000D01*
X202315219Y-126387287D01*
X202375886Y-126770323D01*
X202375887Y-126770330D01*
X202476262Y-127144936D01*
X202615244Y-127506994D01*
X202791310Y-127852543D01*
X203002531Y-128177793D01*
X203211095Y-128435350D01*
X203211096Y-128435350D01*
X204705748Y-126940698D01*
X204779588Y-127042330D01*
X204957670Y-127220412D01*
X205059300Y-127294251D01*
X203564648Y-128788903D01*
X203564649Y-128788904D01*
X203822206Y-128997468D01*
X204147456Y-129208689D01*
X204493005Y-129384755D01*
X204688336Y-129459736D01*
X204743868Y-129502138D01*
X204767661Y-129567832D01*
X204752159Y-129635960D01*
X204702286Y-129684893D01*
X204643898Y-129699500D01*
X115356102Y-129699500D01*
X115289063Y-129679815D01*
X115243308Y-129627011D01*
X115233364Y-129557853D01*
X115262389Y-129494297D01*
X115311664Y-129459736D01*
X115506994Y-129384755D01*
X115852543Y-129208689D01*
X116177783Y-128997476D01*
X116177785Y-128997475D01*
X116435349Y-128788902D01*
X114940698Y-127294251D01*
X115042330Y-127220412D01*
X115220412Y-127042330D01*
X115294251Y-126940698D01*
X116788902Y-128435349D01*
X116997475Y-128177785D01*
X116997476Y-128177783D01*
X117208689Y-127852543D01*
X117384755Y-127506994D01*
X117523737Y-127144936D01*
X117624112Y-126770330D01*
X117624113Y-126770323D01*
X117684780Y-126387287D01*
X117705078Y-126000000D01*
X117705078Y-125999999D01*
X117684780Y-125612712D01*
X117624113Y-125229676D01*
X117624112Y-125229669D01*
X117524049Y-124856228D01*
X129429500Y-124856228D01*
X129429500Y-125023771D01*
X129462182Y-125188074D01*
X129462184Y-125188082D01*
X129526295Y-125342860D01*
X129619373Y-125482162D01*
X129737837Y-125600626D01*
X129830494Y-125662537D01*
X129877137Y-125693703D01*
X130031918Y-125757816D01*
X130196228Y-125790499D01*
X130196232Y-125790500D01*
X130196233Y-125790500D01*
X130363768Y-125790500D01*
X130363769Y-125790499D01*
X130528082Y-125757816D01*
X130682863Y-125693703D01*
X130822162Y-125600626D01*
X130940626Y-125482162D01*
X131033703Y-125342863D01*
X131097816Y-125188082D01*
X131130500Y-125023767D01*
X131130500Y-124856233D01*
X131130499Y-124856228D01*
X131969500Y-124856228D01*
X131969500Y-125023771D01*
X132002182Y-125188074D01*
X132002184Y-125188082D01*
X132066295Y-125342860D01*
X132159373Y-125482162D01*
X132277837Y-125600626D01*
X132370494Y-125662537D01*
X132417137Y-125693703D01*
X132571918Y-125757816D01*
X132736228Y-125790499D01*
X132736232Y-125790500D01*
X132736233Y-125790500D01*
X132903768Y-125790500D01*
X132903769Y-125790499D01*
X133068082Y-125757816D01*
X133222863Y-125693703D01*
X133362162Y-125600626D01*
X133480626Y-125482162D01*
X133573703Y-125342863D01*
X133637816Y-125188082D01*
X133670500Y-125023767D01*
X133670500Y-124856233D01*
X133670499Y-124856228D01*
X134509500Y-124856228D01*
X134509500Y-125023771D01*
X134542182Y-125188074D01*
X134542184Y-125188082D01*
X134606295Y-125342860D01*
X134699373Y-125482162D01*
X134817837Y-125600626D01*
X134910494Y-125662537D01*
X134957137Y-125693703D01*
X135111918Y-125757816D01*
X135276228Y-125790499D01*
X135276232Y-125790500D01*
X135276233Y-125790500D01*
X135443768Y-125790500D01*
X135443769Y-125790499D01*
X135608082Y-125757816D01*
X135762863Y-125693703D01*
X135902162Y-125600626D01*
X136020626Y-125482162D01*
X136113703Y-125342863D01*
X136177816Y-125188082D01*
X136210500Y-125023767D01*
X136210500Y-124856233D01*
X136210499Y-124856228D01*
X137049500Y-124856228D01*
X137049500Y-125023771D01*
X137082182Y-125188074D01*
X137082184Y-125188082D01*
X137146295Y-125342860D01*
X137239373Y-125482162D01*
X137357837Y-125600626D01*
X137450494Y-125662537D01*
X137497137Y-125693703D01*
X137651918Y-125757816D01*
X137816228Y-125790499D01*
X137816232Y-125790500D01*
X137816233Y-125790500D01*
X137983768Y-125790500D01*
X137983769Y-125790499D01*
X138148082Y-125757816D01*
X138302863Y-125693703D01*
X138442162Y-125600626D01*
X138560626Y-125482162D01*
X138653703Y-125342863D01*
X138717816Y-125188082D01*
X138750500Y-125023767D01*
X138750500Y-124856233D01*
X138750499Y-124856228D01*
X139589500Y-124856228D01*
X139589500Y-125023771D01*
X139622182Y-125188074D01*
X139622184Y-125188082D01*
X139686295Y-125342860D01*
X139779373Y-125482162D01*
X139897837Y-125600626D01*
X139990494Y-125662537D01*
X140037137Y-125693703D01*
X140191918Y-125757816D01*
X140356228Y-125790499D01*
X140356232Y-125790500D01*
X140356233Y-125790500D01*
X140523768Y-125790500D01*
X140523769Y-125790499D01*
X140688082Y-125757816D01*
X140842863Y-125693703D01*
X140982162Y-125600626D01*
X141100626Y-125482162D01*
X141193703Y-125342863D01*
X141257816Y-125188082D01*
X141290500Y-125023767D01*
X141290500Y-124856233D01*
X141257816Y-124691918D01*
X141193703Y-124537137D01*
X141102071Y-124400000D01*
X141100626Y-124397837D01*
X140982162Y-124279373D01*
X140842860Y-124186295D01*
X140688082Y-124122184D01*
X140688074Y-124122182D01*
X140523771Y-124089500D01*
X140523767Y-124089500D01*
X140356233Y-124089500D01*
X140356228Y-124089500D01*
X140191925Y-124122182D01*
X140191917Y-124122184D01*
X140037139Y-124186295D01*
X139897837Y-124279373D01*
X139779373Y-124397837D01*
X139686295Y-124537139D01*
X139622184Y-124691917D01*
X139622182Y-124691925D01*
X139589500Y-124856228D01*
X138750499Y-124856228D01*
X138717816Y-124691918D01*
X138653703Y-124537137D01*
X138562071Y-124400000D01*
X138560626Y-124397837D01*
X138442162Y-124279373D01*
X138302860Y-124186295D01*
X138148082Y-124122184D01*
X138148074Y-124122182D01*
X137983771Y-124089500D01*
X137983767Y-124089500D01*
X137816233Y-124089500D01*
X137816228Y-124089500D01*
X137651925Y-124122182D01*
X137651917Y-124122184D01*
X137497139Y-124186295D01*
X137357837Y-124279373D01*
X137239373Y-124397837D01*
X137146295Y-124537139D01*
X137082184Y-124691917D01*
X137082182Y-124691925D01*
X137049500Y-124856228D01*
X136210499Y-124856228D01*
X136177816Y-124691918D01*
X136113703Y-124537137D01*
X136022071Y-124400000D01*
X136020626Y-124397837D01*
X135902162Y-124279373D01*
X135762860Y-124186295D01*
X135608082Y-124122184D01*
X135608074Y-124122182D01*
X135443771Y-124089500D01*
X135443767Y-124089500D01*
X135276233Y-124089500D01*
X135276228Y-124089500D01*
X135111925Y-124122182D01*
X135111917Y-124122184D01*
X134957139Y-124186295D01*
X134817837Y-124279373D01*
X134699373Y-124397837D01*
X134606295Y-124537139D01*
X134542184Y-124691917D01*
X134542182Y-124691925D01*
X134509500Y-124856228D01*
X133670499Y-124856228D01*
X133637816Y-124691918D01*
X133573703Y-124537137D01*
X133482071Y-124400000D01*
X133480626Y-124397837D01*
X133362162Y-124279373D01*
X133222860Y-124186295D01*
X133068082Y-124122184D01*
X133068074Y-124122182D01*
X132903771Y-124089500D01*
X132903767Y-124089500D01*
X132736233Y-124089500D01*
X132736228Y-124089500D01*
X132571925Y-124122182D01*
X132571917Y-124122184D01*
X132417139Y-124186295D01*
X132277837Y-124279373D01*
X132159373Y-124397837D01*
X132066295Y-124537139D01*
X132002184Y-124691917D01*
X132002182Y-124691925D01*
X131969500Y-124856228D01*
X131130499Y-124856228D01*
X131097816Y-124691918D01*
X131033703Y-124537137D01*
X130942071Y-124400000D01*
X130940626Y-124397837D01*
X130822162Y-124279373D01*
X130682860Y-124186295D01*
X130528082Y-124122184D01*
X130528074Y-124122182D01*
X130363771Y-124089500D01*
X130363767Y-124089500D01*
X130196233Y-124089500D01*
X130196228Y-124089500D01*
X130031925Y-124122182D01*
X130031917Y-124122184D01*
X129877139Y-124186295D01*
X129737837Y-124279373D01*
X129619373Y-124397837D01*
X129526295Y-124537139D01*
X129462184Y-124691917D01*
X129462182Y-124691925D01*
X129429500Y-124856228D01*
X117524049Y-124856228D01*
X117523737Y-124855063D01*
X117384755Y-124493005D01*
X117208689Y-124147456D01*
X116997468Y-123822206D01*
X116788904Y-123564649D01*
X116788903Y-123564648D01*
X115294251Y-125059300D01*
X115220412Y-124957670D01*
X115042330Y-124779588D01*
X114940698Y-124705748D01*
X116435350Y-123211096D01*
X116435350Y-123211095D01*
X116177793Y-123002531D01*
X115852543Y-122791310D01*
X115506994Y-122615244D01*
X115144936Y-122476262D01*
X114770330Y-122375887D01*
X114770323Y-122375886D01*
X114387287Y-122315219D01*
X114000001Y-122294922D01*
X113999999Y-122294922D01*
X113612712Y-122315219D01*
X113229676Y-122375886D01*
X113229669Y-122375887D01*
X112855063Y-122476262D01*
X112493005Y-122615244D01*
X112147456Y-122791310D01*
X111822206Y-123002531D01*
X111564648Y-123211095D01*
X111564648Y-123211096D01*
X113059301Y-124705748D01*
X112957670Y-124779588D01*
X112779588Y-124957670D01*
X112705748Y-125059300D01*
X111211096Y-123564648D01*
X111211095Y-123564648D01*
X111002531Y-123822206D01*
X110791310Y-124147456D01*
X110615244Y-124493005D01*
X110540264Y-124688335D01*
X110497862Y-124743867D01*
X110432168Y-124767660D01*
X110364039Y-124752158D01*
X110315107Y-124702285D01*
X110300500Y-124643897D01*
X110300500Y-122000000D01*
X124844353Y-122000000D01*
X124864834Y-122142456D01*
X124881278Y-122178462D01*
X124924623Y-122273373D01*
X125018872Y-122382143D01*
X125139947Y-122459953D01*
X125139950Y-122459954D01*
X125139949Y-122459954D01*
X125278036Y-122500499D01*
X125278038Y-122500500D01*
X125278039Y-122500500D01*
X125421962Y-122500500D01*
X125421962Y-122500499D01*
X125560053Y-122459953D01*
X125681128Y-122382143D01*
X125775377Y-122273373D01*
X125831721Y-122149999D01*
X128949364Y-122149999D01*
X128949364Y-122150000D01*
X129846988Y-122150000D01*
X129814075Y-122207007D01*
X129780000Y-122334174D01*
X129780000Y-122465826D01*
X129814075Y-122592993D01*
X129846988Y-122650000D01*
X128949364Y-122650000D01*
X129006567Y-122863486D01*
X129006570Y-122863492D01*
X129106399Y-123077578D01*
X129241894Y-123271082D01*
X129408917Y-123438105D01*
X129602421Y-123573600D01*
X129816507Y-123673429D01*
X129816516Y-123673433D01*
X130030000Y-123730634D01*
X130030000Y-122833012D01*
X130087007Y-122865925D01*
X130214174Y-122900000D01*
X130345826Y-122900000D01*
X130472993Y-122865925D01*
X130530000Y-122833012D01*
X130530000Y-123730633D01*
X130743483Y-123673433D01*
X130743492Y-123673429D01*
X130957578Y-123573600D01*
X131151082Y-123438105D01*
X131318105Y-123271082D01*
X131448425Y-123084968D01*
X131503002Y-123041344D01*
X131572501Y-123034151D01*
X131634855Y-123065673D01*
X131651575Y-123084968D01*
X131781894Y-123271082D01*
X131948917Y-123438105D01*
X132142421Y-123573600D01*
X132356507Y-123673429D01*
X132356516Y-123673433D01*
X132570000Y-123730634D01*
X132570000Y-122833012D01*
X132627007Y-122865925D01*
X132754174Y-122900000D01*
X132885826Y-122900000D01*
X133012993Y-122865925D01*
X133070000Y-122833012D01*
X133070000Y-123730633D01*
X133283483Y-123673433D01*
X133283492Y-123673429D01*
X133497578Y-123573600D01*
X133691082Y-123438105D01*
X133858105Y-123271082D01*
X133988425Y-123084968D01*
X134043002Y-123041344D01*
X134112501Y-123034151D01*
X134174855Y-123065673D01*
X134191575Y-123084968D01*
X134321894Y-123271082D01*
X134488917Y-123438105D01*
X134682421Y-123573600D01*
X134896507Y-123673429D01*
X134896516Y-123673433D01*
X135110000Y-123730634D01*
X135110000Y-122833012D01*
X135167007Y-122865925D01*
X135294174Y-122900000D01*
X135425826Y-122900000D01*
X135552993Y-122865925D01*
X135610000Y-122833012D01*
X135610000Y-123730633D01*
X135823483Y-123673433D01*
X135823492Y-123673429D01*
X136037578Y-123573600D01*
X136231082Y-123438105D01*
X136398105Y-123271082D01*
X136528425Y-123084968D01*
X136583002Y-123041344D01*
X136652501Y-123034151D01*
X136714855Y-123065673D01*
X136731575Y-123084968D01*
X136861894Y-123271082D01*
X137028917Y-123438105D01*
X137222421Y-123573600D01*
X137436507Y-123673429D01*
X137436516Y-123673433D01*
X137650000Y-123730634D01*
X137650000Y-122833012D01*
X137707007Y-122865925D01*
X137834174Y-122900000D01*
X137965826Y-122900000D01*
X138092993Y-122865925D01*
X138150000Y-122833012D01*
X138150000Y-123730633D01*
X138363483Y-123673433D01*
X138363492Y-123673429D01*
X138577578Y-123573600D01*
X138771082Y-123438105D01*
X138938105Y-123271082D01*
X139073600Y-123077578D01*
X139173429Y-122863492D01*
X139173432Y-122863486D01*
X139230636Y-122650000D01*
X138333012Y-122650000D01*
X138365925Y-122592993D01*
X138400000Y-122465826D01*
X138400000Y-122334174D01*
X138395191Y-122316228D01*
X139589500Y-122316228D01*
X139589500Y-122483771D01*
X139622182Y-122648074D01*
X139622184Y-122648082D01*
X139686295Y-122802860D01*
X139779373Y-122942162D01*
X139897837Y-123060626D01*
X139956765Y-123100000D01*
X140037137Y-123153703D01*
X140037138Y-123153703D01*
X140037139Y-123153704D01*
X140052228Y-123159954D01*
X140191918Y-123217816D01*
X140315793Y-123242456D01*
X140356228Y-123250499D01*
X140356232Y-123250500D01*
X140356233Y-123250500D01*
X140523768Y-123250500D01*
X140523769Y-123250499D01*
X140688082Y-123217816D01*
X140842863Y-123153703D01*
X140982162Y-123060626D01*
X141100626Y-122942162D01*
X141193703Y-122802863D01*
X141257816Y-122648082D01*
X141290500Y-122483767D01*
X141290500Y-122316233D01*
X141257816Y-122151918D01*
X141257021Y-122149999D01*
X145489364Y-122149999D01*
X145489364Y-122150000D01*
X146386988Y-122150000D01*
X146354075Y-122207007D01*
X146320000Y-122334174D01*
X146320000Y-122465826D01*
X146354075Y-122592993D01*
X146386988Y-122650000D01*
X145489364Y-122650000D01*
X145546567Y-122863486D01*
X145546570Y-122863492D01*
X145646399Y-123077578D01*
X145781894Y-123271082D01*
X145948917Y-123438105D01*
X146135031Y-123568425D01*
X146178656Y-123623003D01*
X146185848Y-123692501D01*
X146154326Y-123754856D01*
X146135031Y-123771575D01*
X145948922Y-123901890D01*
X145948920Y-123901891D01*
X145781891Y-124068920D01*
X145781886Y-124068926D01*
X145646400Y-124262420D01*
X145646399Y-124262422D01*
X145546570Y-124476507D01*
X145546567Y-124476513D01*
X145489364Y-124689999D01*
X145489364Y-124690000D01*
X146386988Y-124690000D01*
X146354075Y-124747007D01*
X146320000Y-124874174D01*
X146320000Y-125005826D01*
X146354075Y-125132993D01*
X146386988Y-125190000D01*
X145489364Y-125190000D01*
X145546567Y-125403486D01*
X145546570Y-125403492D01*
X145646399Y-125617578D01*
X145781894Y-125811082D01*
X145948917Y-125978105D01*
X146142421Y-126113600D01*
X146356507Y-126213429D01*
X146356516Y-126213433D01*
X146570000Y-126270634D01*
X146570000Y-125373012D01*
X146627007Y-125405925D01*
X146754174Y-125440000D01*
X146885826Y-125440000D01*
X147012993Y-125405925D01*
X147070000Y-125373012D01*
X147070000Y-126270634D01*
X147283483Y-126213433D01*
X147283492Y-126213429D01*
X147497578Y-126113600D01*
X147691082Y-125978105D01*
X147858105Y-125811082D01*
X147988425Y-125624968D01*
X148043002Y-125581344D01*
X148112501Y-125574151D01*
X148174855Y-125605673D01*
X148191575Y-125624968D01*
X148321894Y-125811082D01*
X148488917Y-125978105D01*
X148682421Y-126113600D01*
X148896507Y-126213429D01*
X148896516Y-126213433D01*
X149110000Y-126270634D01*
X149110000Y-125373012D01*
X149167007Y-125405925D01*
X149294174Y-125440000D01*
X149425826Y-125440000D01*
X149552993Y-125405925D01*
X149610000Y-125373012D01*
X149610000Y-126270633D01*
X149823483Y-126213433D01*
X149823492Y-126213429D01*
X150037578Y-126113600D01*
X150231082Y-125978105D01*
X150398105Y-125811082D01*
X150528425Y-125624968D01*
X150583002Y-125581344D01*
X150652501Y-125574151D01*
X150714855Y-125605673D01*
X150731575Y-125624968D01*
X150861894Y-125811082D01*
X151028917Y-125978105D01*
X151222421Y-126113600D01*
X151436507Y-126213429D01*
X151436516Y-126213433D01*
X151650000Y-126270634D01*
X151650000Y-125373012D01*
X151707007Y-125405925D01*
X151834174Y-125440000D01*
X151965826Y-125440000D01*
X152092993Y-125405925D01*
X152150000Y-125373012D01*
X152150000Y-126270633D01*
X152363483Y-126213433D01*
X152363492Y-126213429D01*
X152577578Y-126113600D01*
X152771082Y-125978105D01*
X152938105Y-125811082D01*
X153073600Y-125617578D01*
X153173429Y-125403492D01*
X153173432Y-125403486D01*
X153230636Y-125190000D01*
X152333012Y-125190000D01*
X152365925Y-125132993D01*
X152400000Y-125005826D01*
X152400000Y-124874174D01*
X152365925Y-124747007D01*
X152333012Y-124690000D01*
X153230636Y-124690000D01*
X153230635Y-124689999D01*
X159169364Y-124689999D01*
X159169364Y-124690000D01*
X160066988Y-124690000D01*
X160034075Y-124747007D01*
X160000000Y-124874174D01*
X160000000Y-125005826D01*
X160034075Y-125132993D01*
X160066988Y-125190000D01*
X159169364Y-125190000D01*
X159226567Y-125403486D01*
X159226570Y-125403492D01*
X159326399Y-125617578D01*
X159461894Y-125811082D01*
X159628917Y-125978105D01*
X159822421Y-126113600D01*
X160036507Y-126213429D01*
X160036516Y-126213433D01*
X160250000Y-126270634D01*
X160250000Y-125373012D01*
X160307007Y-125405925D01*
X160434174Y-125440000D01*
X160565826Y-125440000D01*
X160692993Y-125405925D01*
X160750000Y-125373012D01*
X160750000Y-126270633D01*
X160963483Y-126213433D01*
X160963492Y-126213429D01*
X161177578Y-126113600D01*
X161371082Y-125978105D01*
X161538105Y-125811082D01*
X161668425Y-125624968D01*
X161723002Y-125581344D01*
X161792501Y-125574151D01*
X161854855Y-125605673D01*
X161871575Y-125624968D01*
X162001894Y-125811082D01*
X162168917Y-125978105D01*
X162362421Y-126113600D01*
X162576507Y-126213429D01*
X162576516Y-126213433D01*
X162790000Y-126270634D01*
X162790000Y-125373012D01*
X162847007Y-125405925D01*
X162974174Y-125440000D01*
X163105826Y-125440000D01*
X163232993Y-125405925D01*
X163290000Y-125373012D01*
X163290000Y-126270634D01*
X163503483Y-126213433D01*
X163503492Y-126213429D01*
X163717578Y-126113600D01*
X163911082Y-125978105D01*
X164078105Y-125811082D01*
X164208425Y-125624968D01*
X164263002Y-125581344D01*
X164332501Y-125574151D01*
X164394855Y-125605673D01*
X164411575Y-125624968D01*
X164541894Y-125811082D01*
X164708917Y-125978105D01*
X164902421Y-126113600D01*
X165116507Y-126213429D01*
X165116516Y-126213433D01*
X165330000Y-126270634D01*
X165330000Y-125373012D01*
X165387007Y-125405925D01*
X165514174Y-125440000D01*
X165645826Y-125440000D01*
X165772993Y-125405925D01*
X165830000Y-125373012D01*
X165830000Y-126270634D01*
X166043483Y-126213433D01*
X166043492Y-126213429D01*
X166257578Y-126113600D01*
X166451082Y-125978105D01*
X166618105Y-125811082D01*
X166753600Y-125617578D01*
X166853429Y-125403492D01*
X166853432Y-125403486D01*
X166854366Y-125400000D01*
X168794353Y-125400000D01*
X168814834Y-125542456D01*
X168849142Y-125617578D01*
X168874623Y-125673373D01*
X168968872Y-125782143D01*
X169089947Y-125859953D01*
X169089950Y-125859954D01*
X169089949Y-125859954D01*
X169228036Y-125900499D01*
X169228038Y-125900500D01*
X169228039Y-125900500D01*
X169371962Y-125900500D01*
X169371962Y-125900499D01*
X169510053Y-125859953D01*
X169631128Y-125782143D01*
X169725377Y-125673373D01*
X169785165Y-125542457D01*
X169805647Y-125400000D01*
X169785165Y-125257543D01*
X169725377Y-125126627D01*
X169631128Y-125017857D01*
X169510053Y-124940047D01*
X169510051Y-124940046D01*
X169510049Y-124940045D01*
X169510050Y-124940045D01*
X169371963Y-124899500D01*
X169371961Y-124899500D01*
X169228039Y-124899500D01*
X169228036Y-124899500D01*
X169089949Y-124940045D01*
X168968873Y-125017856D01*
X168874623Y-125126626D01*
X168874622Y-125126628D01*
X168814834Y-125257543D01*
X168794353Y-125400000D01*
X166854366Y-125400000D01*
X166910636Y-125190000D01*
X166013012Y-125190000D01*
X166045925Y-125132993D01*
X166080000Y-125005826D01*
X166080000Y-124874174D01*
X166045925Y-124747007D01*
X166013012Y-124690000D01*
X166910636Y-124690000D01*
X166910635Y-124689999D01*
X166853432Y-124476513D01*
X166853429Y-124476507D01*
X166753600Y-124262422D01*
X166753599Y-124262420D01*
X166674882Y-124150000D01*
X180644353Y-124150000D01*
X180664834Y-124292456D01*
X180712961Y-124397837D01*
X180724623Y-124423373D01*
X180818872Y-124532143D01*
X180939947Y-124609953D01*
X180939950Y-124609954D01*
X180939949Y-124609954D01*
X181078036Y-124650499D01*
X181078038Y-124650500D01*
X181078039Y-124650500D01*
X181221962Y-124650500D01*
X181221962Y-124650499D01*
X181360053Y-124609953D01*
X181481128Y-124532143D01*
X181575377Y-124423373D01*
X181631720Y-124300000D01*
X185094353Y-124300000D01*
X185114834Y-124442456D01*
X185174622Y-124573371D01*
X185174623Y-124573373D01*
X185268872Y-124682143D01*
X185389947Y-124759953D01*
X185389950Y-124759954D01*
X185389949Y-124759954D01*
X185528036Y-124800499D01*
X185528038Y-124800500D01*
X185528039Y-124800500D01*
X185671962Y-124800500D01*
X185671962Y-124800499D01*
X185810053Y-124759953D01*
X185931128Y-124682143D01*
X186025377Y-124573373D01*
X186085165Y-124442457D01*
X186105647Y-124300000D01*
X186085165Y-124157543D01*
X186025377Y-124026627D01*
X185931128Y-123917857D01*
X185810053Y-123840047D01*
X185810051Y-123840046D01*
X185810049Y-123840045D01*
X185810050Y-123840045D01*
X185671963Y-123799500D01*
X185671961Y-123799500D01*
X185528039Y-123799500D01*
X185528036Y-123799500D01*
X185389949Y-123840045D01*
X185268873Y-123917856D01*
X185174623Y-124026626D01*
X185174622Y-124026628D01*
X185114834Y-124157543D01*
X185094353Y-124300000D01*
X181631720Y-124300000D01*
X181635165Y-124292457D01*
X181655647Y-124150000D01*
X181635165Y-124007543D01*
X181575377Y-123876627D01*
X181481128Y-123767857D01*
X181360053Y-123690047D01*
X181360051Y-123690046D01*
X181360049Y-123690045D01*
X181360050Y-123690045D01*
X181221963Y-123649500D01*
X181221961Y-123649500D01*
X181078039Y-123649500D01*
X181078036Y-123649500D01*
X180939949Y-123690045D01*
X180818873Y-123767856D01*
X180724623Y-123876626D01*
X180724622Y-123876628D01*
X180664834Y-124007543D01*
X180644353Y-124150000D01*
X166674882Y-124150000D01*
X166618113Y-124068926D01*
X166618108Y-124068920D01*
X166451082Y-123901894D01*
X166342802Y-123826075D01*
X166299177Y-123771498D01*
X166291985Y-123701999D01*
X166323507Y-123639645D01*
X166383737Y-123604231D01*
X166413926Y-123600500D01*
X166463261Y-123600500D01*
X166485971Y-123597191D01*
X166531393Y-123590573D01*
X166636483Y-123539198D01*
X166719198Y-123456483D01*
X166770573Y-123351393D01*
X166780500Y-123283260D01*
X166780500Y-122700000D01*
X184494353Y-122700000D01*
X184514834Y-122842456D01*
X184574622Y-122973371D01*
X184574623Y-122973373D01*
X184668872Y-123082143D01*
X184789947Y-123159953D01*
X184789950Y-123159954D01*
X184789949Y-123159954D01*
X184928036Y-123200499D01*
X184928038Y-123200500D01*
X184928039Y-123200500D01*
X185071962Y-123200500D01*
X185071962Y-123200499D01*
X185210053Y-123159953D01*
X185303342Y-123100000D01*
X192394353Y-123100000D01*
X192414834Y-123242456D01*
X192467319Y-123357379D01*
X192474623Y-123373373D01*
X192568872Y-123482143D01*
X192689947Y-123559953D01*
X192689950Y-123559954D01*
X192689949Y-123559954D01*
X192828036Y-123600499D01*
X192828038Y-123600500D01*
X192828039Y-123600500D01*
X192971962Y-123600500D01*
X192971962Y-123600499D01*
X193110053Y-123559953D01*
X193231128Y-123482143D01*
X193325377Y-123373373D01*
X193385165Y-123242457D01*
X193405647Y-123100000D01*
X193385165Y-122957543D01*
X193325377Y-122826627D01*
X193231128Y-122717857D01*
X193110053Y-122640047D01*
X193110051Y-122640046D01*
X193110049Y-122640045D01*
X193110050Y-122640045D01*
X192971963Y-122599500D01*
X192971961Y-122599500D01*
X192828039Y-122599500D01*
X192828036Y-122599500D01*
X192689949Y-122640045D01*
X192568873Y-122717856D01*
X192474623Y-122826626D01*
X192474622Y-122826628D01*
X192414834Y-122957543D01*
X192394353Y-123100000D01*
X185303342Y-123100000D01*
X185331128Y-123082143D01*
X185425377Y-122973373D01*
X185485165Y-122842457D01*
X185505647Y-122700000D01*
X185485165Y-122557543D01*
X185425377Y-122426627D01*
X185331128Y-122317857D01*
X185210053Y-122240047D01*
X185210051Y-122240046D01*
X185210049Y-122240045D01*
X185210050Y-122240045D01*
X185071963Y-122199500D01*
X185071961Y-122199500D01*
X184928039Y-122199500D01*
X184928036Y-122199500D01*
X184789949Y-122240045D01*
X184668873Y-122317856D01*
X184574623Y-122426626D01*
X184574622Y-122426628D01*
X184514834Y-122557543D01*
X184494353Y-122700000D01*
X166780500Y-122700000D01*
X166780500Y-121600000D01*
X183194353Y-121600000D01*
X183214834Y-121742456D01*
X183267528Y-121857837D01*
X183274623Y-121873373D01*
X183368872Y-121982143D01*
X183489947Y-122059953D01*
X183489950Y-122059954D01*
X183489949Y-122059954D01*
X183628036Y-122100499D01*
X183628038Y-122100500D01*
X183628039Y-122100500D01*
X183771962Y-122100500D01*
X183771962Y-122100499D01*
X183910053Y-122059953D01*
X184031128Y-121982143D01*
X184125377Y-121873373D01*
X184185165Y-121742457D01*
X184205647Y-121600000D01*
X184185165Y-121457543D01*
X184125377Y-121326627D01*
X184031128Y-121217857D01*
X183910053Y-121140047D01*
X183910051Y-121140046D01*
X183910049Y-121140045D01*
X183910050Y-121140045D01*
X183771963Y-121099500D01*
X183771961Y-121099500D01*
X183628039Y-121099500D01*
X183628036Y-121099500D01*
X183489949Y-121140045D01*
X183368873Y-121217856D01*
X183274623Y-121326626D01*
X183274622Y-121326628D01*
X183214834Y-121457543D01*
X183194353Y-121600000D01*
X166780500Y-121600000D01*
X166780500Y-121516740D01*
X166778377Y-121502172D01*
X166770573Y-121448608D01*
X166770573Y-121448607D01*
X166719198Y-121343517D01*
X166719196Y-121343515D01*
X166719196Y-121343514D01*
X166636485Y-121260803D01*
X166531391Y-121209426D01*
X166463261Y-121199500D01*
X166463260Y-121199500D01*
X164696740Y-121199500D01*
X164696739Y-121199500D01*
X164628608Y-121209426D01*
X164523514Y-121260803D01*
X164440803Y-121343514D01*
X164389426Y-121448608D01*
X164379500Y-121516739D01*
X164379500Y-121566073D01*
X164359815Y-121633112D01*
X164307011Y-121678867D01*
X164237853Y-121688811D01*
X164174297Y-121659786D01*
X164153925Y-121637197D01*
X164078109Y-121528922D01*
X164078108Y-121528920D01*
X163911082Y-121361894D01*
X163717578Y-121226399D01*
X163503492Y-121126570D01*
X163503486Y-121126567D01*
X163290000Y-121069364D01*
X163290000Y-121966988D01*
X163232993Y-121934075D01*
X163105826Y-121900000D01*
X162974174Y-121900000D01*
X162847007Y-121934075D01*
X162790000Y-121966988D01*
X162790000Y-121069364D01*
X162789999Y-121069364D01*
X162576513Y-121126567D01*
X162576507Y-121126570D01*
X162362422Y-121226399D01*
X162362420Y-121226400D01*
X162168926Y-121361886D01*
X162168920Y-121361891D01*
X162001891Y-121528920D01*
X162001886Y-121528926D01*
X161866400Y-121722420D01*
X161866399Y-121722422D01*
X161799717Y-121865421D01*
X161753544Y-121917860D01*
X161686350Y-121937012D01*
X161619469Y-121916796D01*
X161576335Y-121868288D01*
X161525061Y-121765316D01*
X161525056Y-121765308D01*
X161390979Y-121587761D01*
X161226562Y-121437876D01*
X161226560Y-121437874D01*
X161037404Y-121320754D01*
X161037398Y-121320752D01*
X160829940Y-121240382D01*
X160611243Y-121199500D01*
X160388757Y-121199500D01*
X160170060Y-121240382D01*
X160038864Y-121291207D01*
X159962601Y-121320752D01*
X159962595Y-121320754D01*
X159773439Y-121437874D01*
X159773437Y-121437876D01*
X159609020Y-121587761D01*
X159474943Y-121765308D01*
X159474938Y-121765316D01*
X159375775Y-121964461D01*
X159375769Y-121964476D01*
X159314885Y-122178462D01*
X159314884Y-122178464D01*
X159294357Y-122399999D01*
X159294357Y-122400000D01*
X159314884Y-122621535D01*
X159314885Y-122621537D01*
X159375769Y-122835523D01*
X159375775Y-122835538D01*
X159474938Y-123034683D01*
X159474943Y-123034691D01*
X159609020Y-123212238D01*
X159773437Y-123362123D01*
X159773439Y-123362125D01*
X159967473Y-123482265D01*
X159966836Y-123483292D01*
X160013563Y-123526607D01*
X160030989Y-123594269D01*
X160009069Y-123660611D01*
X159959464Y-123702495D01*
X159822422Y-123766399D01*
X159822420Y-123766400D01*
X159628926Y-123901886D01*
X159628920Y-123901891D01*
X159461891Y-124068920D01*
X159461886Y-124068926D01*
X159326400Y-124262420D01*
X159326399Y-124262422D01*
X159226570Y-124476507D01*
X159226567Y-124476513D01*
X159169364Y-124689999D01*
X153230635Y-124689999D01*
X153173432Y-124476513D01*
X153173429Y-124476507D01*
X153073600Y-124262422D01*
X153073599Y-124262420D01*
X152938113Y-124068926D01*
X152938108Y-124068920D01*
X152815665Y-123946477D01*
X152782180Y-123885154D01*
X152787164Y-123815462D01*
X152829036Y-123759529D01*
X152860013Y-123742614D01*
X152992086Y-123693354D01*
X152992093Y-123693350D01*
X153107187Y-123607190D01*
X153107190Y-123607187D01*
X153193350Y-123492093D01*
X153193354Y-123492086D01*
X153243596Y-123357379D01*
X153243598Y-123357372D01*
X153249999Y-123297844D01*
X153250000Y-123297827D01*
X153250000Y-122650000D01*
X152333012Y-122650000D01*
X152365925Y-122592993D01*
X152400000Y-122465826D01*
X152400000Y-122334174D01*
X152365925Y-122207007D01*
X152333012Y-122150000D01*
X153250000Y-122150000D01*
X153250000Y-121502172D01*
X153249999Y-121502155D01*
X153243598Y-121442627D01*
X153243596Y-121442620D01*
X153193354Y-121307913D01*
X153193350Y-121307906D01*
X153107190Y-121192812D01*
X153107187Y-121192809D01*
X152992093Y-121106649D01*
X152992086Y-121106645D01*
X152857379Y-121056403D01*
X152857372Y-121056401D01*
X152797844Y-121050000D01*
X152150000Y-121050000D01*
X152150000Y-121966988D01*
X152092993Y-121934075D01*
X151965826Y-121900000D01*
X151834174Y-121900000D01*
X151707007Y-121934075D01*
X151650000Y-121966988D01*
X151650000Y-121050000D01*
X151002155Y-121050000D01*
X150942627Y-121056401D01*
X150942620Y-121056403D01*
X150807913Y-121106645D01*
X150807906Y-121106649D01*
X150692812Y-121192809D01*
X150692809Y-121192812D01*
X150606649Y-121307906D01*
X150606645Y-121307913D01*
X150556403Y-121442620D01*
X150556401Y-121442627D01*
X150550000Y-121502155D01*
X150550000Y-121613763D01*
X150530315Y-121680802D01*
X150477511Y-121726557D01*
X150408353Y-121736501D01*
X150344797Y-121707476D01*
X150327046Y-121688490D01*
X150250979Y-121587761D01*
X150086562Y-121437876D01*
X150086560Y-121437874D01*
X149897404Y-121320754D01*
X149897398Y-121320752D01*
X149689940Y-121240382D01*
X149471243Y-121199500D01*
X149248757Y-121199500D01*
X149030060Y-121240382D01*
X148898864Y-121291207D01*
X148822601Y-121320752D01*
X148822595Y-121320754D01*
X148633439Y-121437874D01*
X148633437Y-121437876D01*
X148469020Y-121587761D01*
X148334943Y-121765308D01*
X148334938Y-121765316D01*
X148283664Y-121868288D01*
X148236160Y-121919525D01*
X148168497Y-121936946D01*
X148102157Y-121915020D01*
X148060282Y-121865421D01*
X147993600Y-121722422D01*
X147993599Y-121722420D01*
X147858113Y-121528926D01*
X147858108Y-121528920D01*
X147691082Y-121361894D01*
X147497578Y-121226399D01*
X147283492Y-121126570D01*
X147283486Y-121126567D01*
X147070000Y-121069364D01*
X147070000Y-121966988D01*
X147012993Y-121934075D01*
X146885826Y-121900000D01*
X146754174Y-121900000D01*
X146627007Y-121934075D01*
X146570000Y-121966988D01*
X146570000Y-121069364D01*
X146569999Y-121069364D01*
X146356513Y-121126567D01*
X146356507Y-121126570D01*
X146142422Y-121226399D01*
X146142420Y-121226400D01*
X145948926Y-121361886D01*
X145948920Y-121361891D01*
X145781891Y-121528920D01*
X145781886Y-121528926D01*
X145646400Y-121722420D01*
X145646399Y-121722422D01*
X145546570Y-121936507D01*
X145546567Y-121936513D01*
X145489364Y-122149999D01*
X141257021Y-122149999D01*
X141193703Y-121997137D01*
X141153529Y-121937012D01*
X141100626Y-121857837D01*
X140982162Y-121739373D01*
X140842860Y-121646295D01*
X140688082Y-121582184D01*
X140688074Y-121582182D01*
X140523771Y-121549500D01*
X140523767Y-121549500D01*
X140356233Y-121549500D01*
X140356228Y-121549500D01*
X140191925Y-121582182D01*
X140191917Y-121582184D01*
X140037139Y-121646295D01*
X139897837Y-121739373D01*
X139779373Y-121857837D01*
X139686295Y-121997139D01*
X139622184Y-122151917D01*
X139622182Y-122151925D01*
X139589500Y-122316228D01*
X138395191Y-122316228D01*
X138365925Y-122207007D01*
X138333012Y-122150000D01*
X139230636Y-122150000D01*
X139230635Y-122149999D01*
X139173432Y-121936513D01*
X139173429Y-121936507D01*
X139073600Y-121722422D01*
X139073599Y-121722420D01*
X138938113Y-121528926D01*
X138938108Y-121528920D01*
X138771082Y-121361894D01*
X138577578Y-121226399D01*
X138363492Y-121126570D01*
X138363486Y-121126567D01*
X138150000Y-121069364D01*
X138150000Y-121966988D01*
X138092993Y-121934075D01*
X137965826Y-121900000D01*
X137834174Y-121900000D01*
X137707007Y-121934075D01*
X137650000Y-121966988D01*
X137650000Y-121069364D01*
X137649999Y-121069364D01*
X137436513Y-121126567D01*
X137436507Y-121126570D01*
X137222422Y-121226399D01*
X137222420Y-121226400D01*
X137028926Y-121361886D01*
X137028920Y-121361891D01*
X136861891Y-121528920D01*
X136861890Y-121528922D01*
X136731575Y-121715031D01*
X136676998Y-121758655D01*
X136607499Y-121765848D01*
X136545145Y-121734326D01*
X136528425Y-121715031D01*
X136398109Y-121528922D01*
X136398108Y-121528920D01*
X136231082Y-121361894D01*
X136037578Y-121226399D01*
X135823492Y-121126570D01*
X135823486Y-121126567D01*
X135610000Y-121069364D01*
X135610000Y-121966988D01*
X135552993Y-121934075D01*
X135425826Y-121900000D01*
X135294174Y-121900000D01*
X135167007Y-121934075D01*
X135110000Y-121966988D01*
X135110000Y-121069364D01*
X135109999Y-121069364D01*
X134896513Y-121126567D01*
X134896507Y-121126570D01*
X134682422Y-121226399D01*
X134682420Y-121226400D01*
X134488926Y-121361886D01*
X134488920Y-121361891D01*
X134321891Y-121528920D01*
X134321890Y-121528922D01*
X134191575Y-121715031D01*
X134136998Y-121758655D01*
X134067499Y-121765848D01*
X134005145Y-121734326D01*
X133988425Y-121715031D01*
X133858109Y-121528922D01*
X133858108Y-121528920D01*
X133691082Y-121361894D01*
X133497578Y-121226399D01*
X133283492Y-121126570D01*
X133283486Y-121126567D01*
X133070000Y-121069364D01*
X133070000Y-121966988D01*
X133012993Y-121934075D01*
X132885826Y-121900000D01*
X132754174Y-121900000D01*
X132627007Y-121934075D01*
X132570000Y-121966988D01*
X132570000Y-121069364D01*
X132569999Y-121069364D01*
X132356513Y-121126567D01*
X132356507Y-121126570D01*
X132142422Y-121226399D01*
X132142420Y-121226400D01*
X131948926Y-121361886D01*
X131948920Y-121361891D01*
X131781891Y-121528920D01*
X131781890Y-121528922D01*
X131651575Y-121715031D01*
X131596998Y-121758655D01*
X131527499Y-121765848D01*
X131465145Y-121734326D01*
X131448425Y-121715031D01*
X131318109Y-121528922D01*
X131318108Y-121528920D01*
X131151082Y-121361894D01*
X130957578Y-121226399D01*
X130743492Y-121126570D01*
X130743486Y-121126567D01*
X130530000Y-121069364D01*
X130530000Y-121966988D01*
X130472993Y-121934075D01*
X130345826Y-121900000D01*
X130214174Y-121900000D01*
X130087007Y-121934075D01*
X130030000Y-121966988D01*
X130030000Y-121069364D01*
X130029999Y-121069364D01*
X129816513Y-121126567D01*
X129816507Y-121126570D01*
X129602422Y-121226399D01*
X129602420Y-121226400D01*
X129408926Y-121361886D01*
X129408920Y-121361891D01*
X129241891Y-121528920D01*
X129241886Y-121528926D01*
X129106400Y-121722420D01*
X129106399Y-121722422D01*
X129006570Y-121936507D01*
X129006567Y-121936513D01*
X128949364Y-122149999D01*
X125831721Y-122149999D01*
X125835165Y-122142457D01*
X125855647Y-122000000D01*
X125835165Y-121857543D01*
X125775377Y-121726627D01*
X125681128Y-121617857D01*
X125560053Y-121540047D01*
X125560051Y-121540046D01*
X125560049Y-121540045D01*
X125560050Y-121540045D01*
X125421963Y-121499500D01*
X125421961Y-121499500D01*
X125278039Y-121499500D01*
X125278036Y-121499500D01*
X125139949Y-121540045D01*
X125018873Y-121617856D01*
X124924623Y-121726626D01*
X124924622Y-121726628D01*
X124864834Y-121857543D01*
X124844353Y-122000000D01*
X110300500Y-122000000D01*
X110300500Y-119750000D01*
X111330138Y-119750000D01*
X112133012Y-119750000D01*
X112115795Y-119759940D01*
X112059940Y-119815795D01*
X112020444Y-119884204D01*
X112000000Y-119960504D01*
X112000000Y-120039496D01*
X112020444Y-120115796D01*
X112059940Y-120184205D01*
X112115795Y-120240060D01*
X112133012Y-120250000D01*
X111330138Y-120250000D01*
X111338430Y-120291690D01*
X111338430Y-120291692D01*
X111413807Y-120473671D01*
X111413814Y-120473684D01*
X111523248Y-120637462D01*
X111523251Y-120637466D01*
X111662533Y-120776748D01*
X111662537Y-120776751D01*
X111826315Y-120886185D01*
X111826328Y-120886192D01*
X112008306Y-120961569D01*
X112008318Y-120961572D01*
X112201504Y-120999999D01*
X112201508Y-121000000D01*
X112350000Y-121000000D01*
X112350000Y-120300000D01*
X112850000Y-120300000D01*
X112850000Y-121000000D01*
X112998492Y-121000000D01*
X112998495Y-120999999D01*
X113191681Y-120961572D01*
X113191693Y-120961569D01*
X113373671Y-120886192D01*
X113373684Y-120886185D01*
X113537462Y-120776751D01*
X113537466Y-120776748D01*
X113676748Y-120637466D01*
X113676751Y-120637462D01*
X113786185Y-120473684D01*
X113786192Y-120473671D01*
X113861569Y-120291692D01*
X113861569Y-120291690D01*
X113869862Y-120250000D01*
X113066988Y-120250000D01*
X113084205Y-120240060D01*
X113140060Y-120184205D01*
X113179556Y-120115796D01*
X113200000Y-120039496D01*
X113200000Y-119960504D01*
X113179556Y-119884204D01*
X113140060Y-119815795D01*
X113084205Y-119759940D01*
X113066988Y-119750000D01*
X113869862Y-119750000D01*
X115260138Y-119750000D01*
X116063012Y-119750000D01*
X116045795Y-119759940D01*
X115989940Y-119815795D01*
X115950444Y-119884204D01*
X115930000Y-119960504D01*
X115930000Y-120039496D01*
X115950444Y-120115796D01*
X115989940Y-120184205D01*
X116045795Y-120240060D01*
X116063012Y-120250000D01*
X115260138Y-120250000D01*
X115268430Y-120291690D01*
X115268430Y-120291692D01*
X115343807Y-120473671D01*
X115343814Y-120473684D01*
X115453248Y-120637462D01*
X115453251Y-120637466D01*
X115592533Y-120776748D01*
X115592537Y-120776751D01*
X115756315Y-120886185D01*
X115756328Y-120886192D01*
X115938306Y-120961569D01*
X115938318Y-120961572D01*
X116131504Y-120999999D01*
X116131508Y-121000000D01*
X116530000Y-121000000D01*
X116530000Y-120300000D01*
X117030000Y-120300000D01*
X117030000Y-121000000D01*
X117428492Y-121000000D01*
X117428495Y-120999999D01*
X117621681Y-120961572D01*
X117621693Y-120961569D01*
X117803671Y-120886192D01*
X117803684Y-120886185D01*
X117967462Y-120776751D01*
X117967466Y-120776748D01*
X118106748Y-120637466D01*
X118106751Y-120637462D01*
X118131783Y-120600000D01*
X180294353Y-120600000D01*
X180314834Y-120742456D01*
X180374622Y-120873371D01*
X180374623Y-120873373D01*
X180468872Y-120982143D01*
X180589947Y-121059953D01*
X180589950Y-121059954D01*
X180589949Y-121059954D01*
X180697107Y-121091417D01*
X180724633Y-121099500D01*
X180728036Y-121100499D01*
X180728038Y-121100500D01*
X180728039Y-121100500D01*
X180871962Y-121100500D01*
X180871962Y-121100499D01*
X181010053Y-121059953D01*
X181131128Y-120982143D01*
X181225377Y-120873373D01*
X181285165Y-120742457D01*
X181305647Y-120600000D01*
X181285165Y-120457543D01*
X181225377Y-120326627D01*
X181131128Y-120217857D01*
X181010053Y-120140047D01*
X181010051Y-120140046D01*
X181010049Y-120140045D01*
X181010050Y-120140045D01*
X180871963Y-120099500D01*
X180871961Y-120099500D01*
X180728039Y-120099500D01*
X180728036Y-120099500D01*
X180589949Y-120140045D01*
X180468873Y-120217856D01*
X180374623Y-120326626D01*
X180374622Y-120326628D01*
X180314834Y-120457543D01*
X180294353Y-120600000D01*
X118131783Y-120600000D01*
X118216185Y-120473684D01*
X118216192Y-120473671D01*
X118291569Y-120291692D01*
X118291569Y-120291690D01*
X118299862Y-120250000D01*
X117496988Y-120250000D01*
X117514205Y-120240060D01*
X117570060Y-120184205D01*
X117609556Y-120115796D01*
X117630000Y-120039496D01*
X117630000Y-119960504D01*
X117609556Y-119884204D01*
X117570060Y-119815795D01*
X117514205Y-119759940D01*
X117496988Y-119750000D01*
X118299862Y-119750000D01*
X118291569Y-119708309D01*
X118291569Y-119708307D01*
X118288128Y-119700000D01*
X173894353Y-119700000D01*
X173914834Y-119842456D01*
X173968746Y-119960504D01*
X173974623Y-119973373D01*
X174068872Y-120082143D01*
X174189947Y-120159953D01*
X174189950Y-120159954D01*
X174189949Y-120159954D01*
X174328036Y-120200499D01*
X174328038Y-120200500D01*
X174328039Y-120200500D01*
X174471962Y-120200500D01*
X174471962Y-120200499D01*
X174610053Y-120159953D01*
X174731128Y-120082143D01*
X174825377Y-119973373D01*
X174885165Y-119842457D01*
X174905647Y-119700000D01*
X174885165Y-119557543D01*
X174881720Y-119550000D01*
X176244353Y-119550000D01*
X176264834Y-119692456D01*
X176321162Y-119815795D01*
X176324623Y-119823373D01*
X176418872Y-119932143D01*
X176539947Y-120009953D01*
X176539950Y-120009954D01*
X176539949Y-120009954D01*
X176678036Y-120050499D01*
X176678038Y-120050500D01*
X176678039Y-120050500D01*
X176821962Y-120050500D01*
X176821962Y-120050499D01*
X176960053Y-120009953D01*
X177081128Y-119932143D01*
X177175377Y-119823373D01*
X177235165Y-119692457D01*
X177255647Y-119550000D01*
X177235165Y-119407543D01*
X177175377Y-119276627D01*
X177081128Y-119167857D01*
X176960053Y-119090047D01*
X176960051Y-119090046D01*
X176960049Y-119090045D01*
X176960050Y-119090045D01*
X176821963Y-119049500D01*
X176821961Y-119049500D01*
X176678039Y-119049500D01*
X176678036Y-119049500D01*
X176539949Y-119090045D01*
X176418873Y-119167856D01*
X176324623Y-119276626D01*
X176324622Y-119276628D01*
X176264834Y-119407543D01*
X176244353Y-119550000D01*
X174881720Y-119550000D01*
X174825377Y-119426627D01*
X174731128Y-119317857D01*
X174610053Y-119240047D01*
X174610051Y-119240046D01*
X174610049Y-119240045D01*
X174610050Y-119240045D01*
X174471963Y-119199500D01*
X174471961Y-119199500D01*
X174328039Y-119199500D01*
X174328036Y-119199500D01*
X174189949Y-119240045D01*
X174068873Y-119317856D01*
X173974623Y-119426626D01*
X173974622Y-119426628D01*
X173914834Y-119557543D01*
X173894353Y-119700000D01*
X118288128Y-119700000D01*
X118216192Y-119526328D01*
X118216185Y-119526315D01*
X118106751Y-119362537D01*
X118106748Y-119362533D01*
X117967466Y-119223251D01*
X117967462Y-119223248D01*
X117803684Y-119113814D01*
X117803671Y-119113807D01*
X117621693Y-119038430D01*
X117621681Y-119038427D01*
X117428495Y-119000000D01*
X116881045Y-119000000D01*
X116814006Y-118980315D01*
X116768251Y-118927511D01*
X116758307Y-118858353D01*
X116773658Y-118814000D01*
X116786279Y-118792138D01*
X116786281Y-118792135D01*
X116810968Y-118700000D01*
X119294353Y-118700000D01*
X119314834Y-118842456D01*
X119355716Y-118931974D01*
X119374623Y-118973373D01*
X119468872Y-119082143D01*
X119589947Y-119159953D01*
X119589950Y-119159954D01*
X119589949Y-119159954D01*
X119697107Y-119191417D01*
X119724633Y-119199500D01*
X119728036Y-119200499D01*
X119728038Y-119200500D01*
X119728039Y-119200500D01*
X119871962Y-119200500D01*
X119871962Y-119200499D01*
X120010053Y-119159953D01*
X120131128Y-119082143D01*
X120225377Y-118973373D01*
X120285165Y-118842457D01*
X120305647Y-118700000D01*
X120285165Y-118557543D01*
X120225377Y-118426627D01*
X120131128Y-118317857D01*
X120010053Y-118240047D01*
X120010051Y-118240046D01*
X120010049Y-118240045D01*
X120010050Y-118240045D01*
X119871963Y-118199500D01*
X119871961Y-118199500D01*
X119728039Y-118199500D01*
X119728036Y-118199500D01*
X119589949Y-118240045D01*
X119468873Y-118317856D01*
X119374623Y-118426626D01*
X119374622Y-118426628D01*
X119314834Y-118557543D01*
X119294353Y-118700000D01*
X116810968Y-118700000D01*
X116825500Y-118645766D01*
X116825500Y-118494234D01*
X116786281Y-118347865D01*
X116710515Y-118216635D01*
X116603365Y-118109485D01*
X116537750Y-118071602D01*
X116472136Y-118033719D01*
X116398950Y-118014109D01*
X116325766Y-117994500D01*
X116174234Y-117994500D01*
X116027863Y-118033719D01*
X115896635Y-118109485D01*
X115896632Y-118109487D01*
X115789487Y-118216632D01*
X115789485Y-118216635D01*
X115713719Y-118347863D01*
X115674500Y-118494234D01*
X115674500Y-118645765D01*
X115713719Y-118792136D01*
X115751602Y-118857750D01*
X115789485Y-118923365D01*
X115789488Y-118923368D01*
X115794432Y-118929811D01*
X115791612Y-118931974D01*
X115817302Y-118979020D01*
X115812318Y-119048712D01*
X115770446Y-119104645D01*
X115761379Y-119110416D01*
X115761387Y-119110427D01*
X115592536Y-119223248D01*
X115453251Y-119362533D01*
X115453248Y-119362537D01*
X115343814Y-119526315D01*
X115343807Y-119526328D01*
X115268430Y-119708307D01*
X115268430Y-119708309D01*
X115260138Y-119750000D01*
X113869862Y-119750000D01*
X113861569Y-119708309D01*
X113861569Y-119708307D01*
X113786192Y-119526328D01*
X113786185Y-119526315D01*
X113676751Y-119362537D01*
X113676748Y-119362533D01*
X113537466Y-119223251D01*
X113537462Y-119223248D01*
X113373684Y-119113814D01*
X113373671Y-119113807D01*
X113191693Y-119038430D01*
X113191681Y-119038427D01*
X112998495Y-119000000D01*
X112850000Y-119000000D01*
X112850000Y-119700000D01*
X112350000Y-119700000D01*
X112350000Y-119000000D01*
X112201504Y-119000000D01*
X112008318Y-119038427D01*
X112008306Y-119038430D01*
X111826328Y-119113807D01*
X111826315Y-119113814D01*
X111662537Y-119223248D01*
X111662533Y-119223251D01*
X111523251Y-119362533D01*
X111523248Y-119362537D01*
X111413814Y-119526315D01*
X111413807Y-119526328D01*
X111338430Y-119708307D01*
X111338430Y-119708309D01*
X111330138Y-119750000D01*
X110300500Y-119750000D01*
X110300500Y-117000000D01*
X143294353Y-117000000D01*
X143314834Y-117142456D01*
X143360504Y-117242457D01*
X143374623Y-117273373D01*
X143468872Y-117382143D01*
X143589947Y-117459953D01*
X143589950Y-117459954D01*
X143589949Y-117459954D01*
X143728036Y-117500499D01*
X143728038Y-117500500D01*
X143728039Y-117500500D01*
X143871962Y-117500500D01*
X143871962Y-117500499D01*
X144010053Y-117459953D01*
X144131128Y-117382143D01*
X144225377Y-117273373D01*
X144285165Y-117142457D01*
X144305647Y-117000000D01*
X157894353Y-117000000D01*
X157914834Y-117142456D01*
X157960504Y-117242457D01*
X157974623Y-117273373D01*
X158068872Y-117382143D01*
X158189947Y-117459953D01*
X158189950Y-117459954D01*
X158189949Y-117459954D01*
X158328036Y-117500499D01*
X158328038Y-117500500D01*
X158328039Y-117500500D01*
X158471962Y-117500500D01*
X158471962Y-117500499D01*
X158610053Y-117459953D01*
X158731128Y-117382143D01*
X158825377Y-117273373D01*
X158885165Y-117142457D01*
X158891269Y-117100000D01*
X167094353Y-117100000D01*
X167114834Y-117242456D01*
X167174622Y-117373371D01*
X167174623Y-117373373D01*
X167268872Y-117482143D01*
X167389947Y-117559953D01*
X167389950Y-117559954D01*
X167389949Y-117559954D01*
X167528036Y-117600499D01*
X167528038Y-117600500D01*
X167528039Y-117600500D01*
X167671962Y-117600500D01*
X167671962Y-117600499D01*
X167810053Y-117559953D01*
X167931128Y-117482143D01*
X168025377Y-117373373D01*
X168085165Y-117242457D01*
X168105647Y-117100000D01*
X168085165Y-116957543D01*
X168025377Y-116826627D01*
X168002305Y-116800000D01*
X203394353Y-116800000D01*
X203414834Y-116942456D01*
X203441114Y-117000000D01*
X203474623Y-117073373D01*
X203568872Y-117182143D01*
X203689947Y-117259953D01*
X203689950Y-117259954D01*
X203689949Y-117259954D01*
X203828036Y-117300499D01*
X203828038Y-117300500D01*
X203828039Y-117300500D01*
X203971962Y-117300500D01*
X203971962Y-117300499D01*
X204110053Y-117259953D01*
X204231128Y-117182143D01*
X204325377Y-117073373D01*
X204385165Y-116942457D01*
X204405647Y-116800000D01*
X204385165Y-116657543D01*
X204325377Y-116526627D01*
X204231128Y-116417857D01*
X204110053Y-116340047D01*
X204110051Y-116340046D01*
X204110049Y-116340045D01*
X204110050Y-116340045D01*
X203971963Y-116299500D01*
X203971961Y-116299500D01*
X203828039Y-116299500D01*
X203828036Y-116299500D01*
X203689949Y-116340045D01*
X203568873Y-116417856D01*
X203474623Y-116526626D01*
X203474622Y-116526628D01*
X203414834Y-116657543D01*
X203394353Y-116800000D01*
X168002305Y-116800000D01*
X167931128Y-116717857D01*
X167810053Y-116640047D01*
X167810051Y-116640046D01*
X167810049Y-116640045D01*
X167810050Y-116640045D01*
X167671963Y-116599500D01*
X167671961Y-116599500D01*
X167528039Y-116599500D01*
X167528036Y-116599500D01*
X167389949Y-116640045D01*
X167268873Y-116717856D01*
X167174623Y-116826626D01*
X167174622Y-116826628D01*
X167114834Y-116957543D01*
X167094353Y-117100000D01*
X158891269Y-117100000D01*
X158905647Y-117000000D01*
X158885165Y-116857543D01*
X158825377Y-116726627D01*
X158731128Y-116617857D01*
X158610053Y-116540047D01*
X158610051Y-116540046D01*
X158610049Y-116540045D01*
X158610050Y-116540045D01*
X158471963Y-116499500D01*
X158471961Y-116499500D01*
X158328039Y-116499500D01*
X158328036Y-116499500D01*
X158189949Y-116540045D01*
X158068873Y-116617856D01*
X157974623Y-116726626D01*
X157974622Y-116726628D01*
X157914834Y-116857543D01*
X157894353Y-117000000D01*
X144305647Y-117000000D01*
X144285165Y-116857543D01*
X144225377Y-116726627D01*
X144131128Y-116617857D01*
X144010053Y-116540047D01*
X144010051Y-116540046D01*
X144010049Y-116540045D01*
X144010050Y-116540045D01*
X143871963Y-116499500D01*
X143871961Y-116499500D01*
X143728039Y-116499500D01*
X143728036Y-116499500D01*
X143589949Y-116540045D01*
X143468873Y-116617856D01*
X143374623Y-116726626D01*
X143374622Y-116726628D01*
X143314834Y-116857543D01*
X143294353Y-117000000D01*
X110300500Y-117000000D01*
X110300500Y-115600000D01*
X119894353Y-115600000D01*
X119914834Y-115742456D01*
X119960504Y-115842457D01*
X119974623Y-115873373D01*
X120068872Y-115982143D01*
X120189947Y-116059953D01*
X120189950Y-116059954D01*
X120189949Y-116059954D01*
X120328036Y-116100499D01*
X120328038Y-116100500D01*
X120328039Y-116100500D01*
X120471962Y-116100500D01*
X120471962Y-116100499D01*
X120610053Y-116059953D01*
X120731128Y-115982143D01*
X120825377Y-115873373D01*
X120885165Y-115742457D01*
X120891269Y-115700000D01*
X160094353Y-115700000D01*
X160114834Y-115842456D01*
X160128953Y-115873371D01*
X160174623Y-115973373D01*
X160268872Y-116082143D01*
X160389947Y-116159953D01*
X160389950Y-116159954D01*
X160389949Y-116159954D01*
X160528036Y-116200499D01*
X160528038Y-116200500D01*
X160528039Y-116200500D01*
X160671962Y-116200500D01*
X160671962Y-116200499D01*
X160810053Y-116159953D01*
X160931128Y-116082143D01*
X161025377Y-115973373D01*
X161085165Y-115842457D01*
X161105647Y-115700000D01*
X176394353Y-115700000D01*
X176414834Y-115842456D01*
X176428953Y-115873371D01*
X176474623Y-115973373D01*
X176568872Y-116082143D01*
X176689947Y-116159953D01*
X176689950Y-116159954D01*
X176689949Y-116159954D01*
X176828036Y-116200499D01*
X176828038Y-116200500D01*
X176828039Y-116200500D01*
X176971962Y-116200500D01*
X176971962Y-116200499D01*
X177110053Y-116159953D01*
X177231128Y-116082143D01*
X177325377Y-115973373D01*
X177385165Y-115842457D01*
X177405647Y-115700000D01*
X177385165Y-115557543D01*
X177325377Y-115426627D01*
X177231128Y-115317857D01*
X177110053Y-115240047D01*
X177110051Y-115240046D01*
X177110049Y-115240045D01*
X177110050Y-115240045D01*
X176971963Y-115199500D01*
X176971961Y-115199500D01*
X176828039Y-115199500D01*
X176828036Y-115199500D01*
X176689949Y-115240045D01*
X176568873Y-115317856D01*
X176474623Y-115426626D01*
X176474622Y-115426628D01*
X176414834Y-115557543D01*
X176394353Y-115700000D01*
X161105647Y-115700000D01*
X161085165Y-115557543D01*
X161025377Y-115426627D01*
X160931128Y-115317857D01*
X160810053Y-115240047D01*
X160810051Y-115240046D01*
X160810049Y-115240045D01*
X160810050Y-115240045D01*
X160671963Y-115199500D01*
X160671961Y-115199500D01*
X160528039Y-115199500D01*
X160528036Y-115199500D01*
X160389949Y-115240045D01*
X160268873Y-115317856D01*
X160174623Y-115426626D01*
X160174622Y-115426628D01*
X160114834Y-115557543D01*
X160094353Y-115700000D01*
X120891269Y-115700000D01*
X120905647Y-115600000D01*
X120885165Y-115457543D01*
X120825377Y-115326627D01*
X120731128Y-115217857D01*
X120610053Y-115140047D01*
X120610051Y-115140046D01*
X120610049Y-115140045D01*
X120610050Y-115140045D01*
X120471963Y-115099500D01*
X120471961Y-115099500D01*
X120328039Y-115099500D01*
X120328036Y-115099500D01*
X120189949Y-115140045D01*
X120068873Y-115217856D01*
X119974623Y-115326626D01*
X119974622Y-115326628D01*
X119914834Y-115457543D01*
X119894353Y-115600000D01*
X110300500Y-115600000D01*
X110300500Y-115050000D01*
X195394353Y-115050000D01*
X195414834Y-115192456D01*
X195472103Y-115317856D01*
X195474623Y-115323373D01*
X195568872Y-115432143D01*
X195689947Y-115509953D01*
X195689950Y-115509954D01*
X195689949Y-115509954D01*
X195828036Y-115550499D01*
X195828038Y-115550500D01*
X195828039Y-115550500D01*
X195971962Y-115550500D01*
X195971962Y-115550499D01*
X196110053Y-115509953D01*
X196231128Y-115432143D01*
X196325377Y-115323373D01*
X196385165Y-115192457D01*
X196405647Y-115050000D01*
X196398458Y-115000000D01*
X197694353Y-115000000D01*
X197714834Y-115142456D01*
X197737669Y-115192456D01*
X197774623Y-115273373D01*
X197868872Y-115382143D01*
X197989947Y-115459953D01*
X197989950Y-115459954D01*
X197989949Y-115459954D01*
X198128036Y-115500499D01*
X198128038Y-115500500D01*
X198128039Y-115500500D01*
X198271962Y-115500500D01*
X198271962Y-115500499D01*
X198410053Y-115459953D01*
X198531128Y-115382143D01*
X198625377Y-115273373D01*
X198685165Y-115142457D01*
X198705647Y-115000000D01*
X198685165Y-114857543D01*
X198625377Y-114726627D01*
X198531128Y-114617857D01*
X198410053Y-114540047D01*
X198410051Y-114540046D01*
X198410049Y-114540045D01*
X198410050Y-114540045D01*
X198271963Y-114499500D01*
X198271961Y-114499500D01*
X198128039Y-114499500D01*
X198128036Y-114499500D01*
X197989949Y-114540045D01*
X197868873Y-114617856D01*
X197774623Y-114726626D01*
X197774622Y-114726628D01*
X197714834Y-114857543D01*
X197694353Y-115000000D01*
X196398458Y-115000000D01*
X196385165Y-114907543D01*
X196325377Y-114776627D01*
X196231128Y-114667857D01*
X196110053Y-114590047D01*
X196110051Y-114590046D01*
X196110049Y-114590045D01*
X196110050Y-114590045D01*
X195971963Y-114549500D01*
X195971961Y-114549500D01*
X195828039Y-114549500D01*
X195828036Y-114549500D01*
X195689949Y-114590045D01*
X195568873Y-114667856D01*
X195474623Y-114776626D01*
X195474622Y-114776628D01*
X195414834Y-114907543D01*
X195394353Y-115050000D01*
X110300500Y-115050000D01*
X110300500Y-114200000D01*
X181894353Y-114200000D01*
X181914834Y-114342456D01*
X181974622Y-114473371D01*
X181974623Y-114473373D01*
X182068872Y-114582143D01*
X182189947Y-114659953D01*
X182189950Y-114659954D01*
X182189949Y-114659954D01*
X182328036Y-114700499D01*
X182328038Y-114700500D01*
X182328039Y-114700500D01*
X182471962Y-114700500D01*
X182471962Y-114700499D01*
X182610053Y-114659953D01*
X182731128Y-114582143D01*
X182825377Y-114473373D01*
X182885165Y-114342457D01*
X182905647Y-114200000D01*
X182885165Y-114057543D01*
X182825377Y-113926627D01*
X182731128Y-113817857D01*
X182610053Y-113740047D01*
X182610051Y-113740046D01*
X182610049Y-113740045D01*
X182610050Y-113740045D01*
X182471963Y-113699500D01*
X182471961Y-113699500D01*
X182328039Y-113699500D01*
X182328036Y-113699500D01*
X182189949Y-113740045D01*
X182068873Y-113817856D01*
X181974623Y-113926626D01*
X181974622Y-113926628D01*
X181914834Y-114057543D01*
X181894353Y-114200000D01*
X110300500Y-114200000D01*
X110300500Y-111110000D01*
X111330138Y-111110000D01*
X112133012Y-111110000D01*
X112115795Y-111119940D01*
X112059940Y-111175795D01*
X112020444Y-111244204D01*
X112000000Y-111320504D01*
X112000000Y-111399496D01*
X112020444Y-111475796D01*
X112059940Y-111544205D01*
X112115795Y-111600060D01*
X112133012Y-111610000D01*
X111330138Y-111610000D01*
X111338430Y-111651690D01*
X111338430Y-111651692D01*
X111413807Y-111833671D01*
X111413814Y-111833684D01*
X111523248Y-111997462D01*
X111523251Y-111997466D01*
X111662533Y-112136748D01*
X111662537Y-112136751D01*
X111826315Y-112246185D01*
X111826328Y-112246192D01*
X112008306Y-112321569D01*
X112008318Y-112321572D01*
X112201504Y-112359999D01*
X112201508Y-112360000D01*
X112350000Y-112360000D01*
X112350000Y-111660000D01*
X112850000Y-111660000D01*
X112850000Y-112360000D01*
X112998492Y-112360000D01*
X112998495Y-112359999D01*
X113191681Y-112321572D01*
X113191693Y-112321569D01*
X113373671Y-112246192D01*
X113373684Y-112246185D01*
X113537462Y-112136751D01*
X113537466Y-112136748D01*
X113676748Y-111997466D01*
X113676751Y-111997462D01*
X113786185Y-111833684D01*
X113786192Y-111833671D01*
X113861569Y-111651692D01*
X113861569Y-111651690D01*
X113869862Y-111610000D01*
X113066988Y-111610000D01*
X113084205Y-111600060D01*
X113140060Y-111544205D01*
X113179556Y-111475796D01*
X113200000Y-111399496D01*
X113200000Y-111320504D01*
X113179556Y-111244204D01*
X113140060Y-111175795D01*
X113084205Y-111119940D01*
X113066988Y-111110000D01*
X113869862Y-111110000D01*
X115260138Y-111110000D01*
X116063012Y-111110000D01*
X116045795Y-111119940D01*
X115989940Y-111175795D01*
X115950444Y-111244204D01*
X115930000Y-111320504D01*
X115930000Y-111399496D01*
X115950444Y-111475796D01*
X115989940Y-111544205D01*
X116045795Y-111600060D01*
X116063012Y-111610000D01*
X115260138Y-111610000D01*
X115268430Y-111651690D01*
X115268430Y-111651692D01*
X115343807Y-111833671D01*
X115343814Y-111833684D01*
X115453248Y-111997462D01*
X115453251Y-111997466D01*
X115592533Y-112136748D01*
X115592537Y-112136751D01*
X115761387Y-112249574D01*
X115760430Y-112251005D01*
X115804425Y-112294211D01*
X115819895Y-112362346D01*
X115796072Y-112428029D01*
X115794309Y-112430094D01*
X115794432Y-112430189D01*
X115789485Y-112436635D01*
X115713719Y-112567863D01*
X115678314Y-112700000D01*
X115674500Y-112714234D01*
X115674500Y-112865766D01*
X115686340Y-112909953D01*
X115713719Y-113012136D01*
X115741327Y-113059953D01*
X115789485Y-113143365D01*
X115896635Y-113250515D01*
X116027865Y-113326281D01*
X116174234Y-113365500D01*
X116174236Y-113365500D01*
X116325764Y-113365500D01*
X116325766Y-113365500D01*
X116472135Y-113326281D01*
X116603365Y-113250515D01*
X116710515Y-113143365D01*
X116786281Y-113012135D01*
X116825500Y-112865766D01*
X116825500Y-112714234D01*
X116821686Y-112700000D01*
X131094353Y-112700000D01*
X131114834Y-112842456D01*
X131145660Y-112909954D01*
X131174623Y-112973373D01*
X131268872Y-113082143D01*
X131389947Y-113159953D01*
X131389950Y-113159954D01*
X131389949Y-113159954D01*
X131497107Y-113191417D01*
X131526336Y-113200000D01*
X131528036Y-113200499D01*
X131528038Y-113200500D01*
X131528039Y-113200500D01*
X131671962Y-113200500D01*
X131671962Y-113200499D01*
X131810053Y-113159953D01*
X131931128Y-113082143D01*
X132025377Y-112973373D01*
X132085165Y-112842457D01*
X132105647Y-112700000D01*
X132091269Y-112600000D01*
X133594353Y-112600000D01*
X133614834Y-112742456D01*
X133671149Y-112865766D01*
X133674623Y-112873373D01*
X133768872Y-112982143D01*
X133889947Y-113059953D01*
X133889950Y-113059954D01*
X133889949Y-113059954D01*
X133965520Y-113082143D01*
X134026673Y-113100099D01*
X134028036Y-113100499D01*
X134028038Y-113100500D01*
X134028039Y-113100500D01*
X134171962Y-113100500D01*
X134171962Y-113100499D01*
X134310053Y-113059953D01*
X134431128Y-112982143D01*
X134525377Y-112873373D01*
X134585165Y-112742457D01*
X134605647Y-112600000D01*
X136094353Y-112600000D01*
X136114834Y-112742456D01*
X136171149Y-112865766D01*
X136174623Y-112873373D01*
X136268872Y-112982143D01*
X136389947Y-113059953D01*
X136389950Y-113059954D01*
X136389949Y-113059954D01*
X136465520Y-113082143D01*
X136526673Y-113100099D01*
X136528036Y-113100499D01*
X136528038Y-113100500D01*
X136528039Y-113100500D01*
X136671962Y-113100500D01*
X136671962Y-113100499D01*
X136810053Y-113059953D01*
X136931128Y-112982143D01*
X137025377Y-112873373D01*
X137085165Y-112742457D01*
X137105647Y-112600000D01*
X146594353Y-112600000D01*
X146614834Y-112742456D01*
X146671149Y-112865766D01*
X146674623Y-112873373D01*
X146768872Y-112982143D01*
X146889947Y-113059953D01*
X146889950Y-113059954D01*
X146889949Y-113059954D01*
X146965520Y-113082143D01*
X147026673Y-113100099D01*
X147028036Y-113100499D01*
X147028038Y-113100500D01*
X147028039Y-113100500D01*
X147171962Y-113100500D01*
X147171962Y-113100499D01*
X147310053Y-113059953D01*
X147403342Y-113000000D01*
X152094353Y-113000000D01*
X152114834Y-113142456D01*
X152164184Y-113250515D01*
X152174623Y-113273373D01*
X152268872Y-113382143D01*
X152389947Y-113459953D01*
X152389950Y-113459954D01*
X152389949Y-113459954D01*
X152528036Y-113500499D01*
X152528038Y-113500500D01*
X152528039Y-113500500D01*
X152671962Y-113500500D01*
X152671962Y-113500499D01*
X152810053Y-113459953D01*
X152931128Y-113382143D01*
X153025377Y-113273373D01*
X153085165Y-113142457D01*
X153105647Y-113000000D01*
X153085165Y-112857543D01*
X153025377Y-112726627D01*
X152931128Y-112617857D01*
X152928593Y-112616228D01*
X154309500Y-112616228D01*
X154309500Y-112783771D01*
X154342182Y-112948074D01*
X154342184Y-112948082D01*
X154406295Y-113102860D01*
X154499373Y-113242162D01*
X154617837Y-113360626D01*
X154625132Y-113365500D01*
X154757137Y-113453703D01*
X154757138Y-113453703D01*
X154757139Y-113453704D01*
X154772228Y-113459954D01*
X154911918Y-113517816D01*
X155076228Y-113550499D01*
X155076232Y-113550500D01*
X155076233Y-113550500D01*
X155243768Y-113550500D01*
X155243769Y-113550499D01*
X155408082Y-113517816D01*
X155562863Y-113453703D01*
X155702162Y-113360626D01*
X155820626Y-113242162D01*
X155913703Y-113102863D01*
X155977816Y-112948082D01*
X156010500Y-112783767D01*
X156010500Y-112616233D01*
X156010499Y-112616228D01*
X156849500Y-112616228D01*
X156849500Y-112783771D01*
X156882182Y-112948074D01*
X156882184Y-112948082D01*
X156946295Y-113102860D01*
X157039373Y-113242162D01*
X157157837Y-113360626D01*
X157165132Y-113365500D01*
X157297137Y-113453703D01*
X157297138Y-113453703D01*
X157297139Y-113453704D01*
X157312228Y-113459954D01*
X157451918Y-113517816D01*
X157616228Y-113550499D01*
X157616232Y-113550500D01*
X157616233Y-113550500D01*
X157783768Y-113550500D01*
X157783769Y-113550499D01*
X157948082Y-113517816D01*
X158102863Y-113453703D01*
X158242162Y-113360626D01*
X158360626Y-113242162D01*
X158453703Y-113102863D01*
X158517816Y-112948082D01*
X158550500Y-112783767D01*
X158550500Y-112616233D01*
X158517816Y-112451918D01*
X158517021Y-112449999D01*
X158909364Y-112449999D01*
X158909364Y-112450000D01*
X159806988Y-112450000D01*
X159774075Y-112507007D01*
X159740000Y-112634174D01*
X159740000Y-112765826D01*
X159774075Y-112892993D01*
X159806988Y-112950000D01*
X158909364Y-112950000D01*
X158966567Y-113163486D01*
X158966570Y-113163492D01*
X159066399Y-113377578D01*
X159201894Y-113571082D01*
X159368917Y-113738105D01*
X159562421Y-113873600D01*
X159776507Y-113973429D01*
X159776516Y-113973433D01*
X159990000Y-114030634D01*
X159990000Y-113133012D01*
X160047007Y-113165925D01*
X160174174Y-113200000D01*
X160305826Y-113200000D01*
X160432993Y-113165925D01*
X160490000Y-113133012D01*
X160490000Y-114030633D01*
X160703483Y-113973433D01*
X160703492Y-113973429D01*
X160917578Y-113873600D01*
X161111082Y-113738105D01*
X161278105Y-113571082D01*
X161413600Y-113377578D01*
X161513429Y-113163492D01*
X161513432Y-113163486D01*
X161557238Y-113000000D01*
X201594353Y-113000000D01*
X201614834Y-113142456D01*
X201664184Y-113250515D01*
X201674623Y-113273373D01*
X201768872Y-113382143D01*
X201889947Y-113459953D01*
X201889950Y-113459954D01*
X201889949Y-113459954D01*
X202028036Y-113500499D01*
X202028038Y-113500500D01*
X202028039Y-113500500D01*
X202171962Y-113500500D01*
X202171962Y-113500499D01*
X202310053Y-113459953D01*
X202431128Y-113382143D01*
X202525377Y-113273373D01*
X202585165Y-113142457D01*
X202605647Y-113000000D01*
X202585165Y-112857543D01*
X202525377Y-112726627D01*
X202431128Y-112617857D01*
X202310053Y-112540047D01*
X202310051Y-112540046D01*
X202310049Y-112540045D01*
X202310050Y-112540045D01*
X202171963Y-112499500D01*
X202171961Y-112499500D01*
X202028039Y-112499500D01*
X202028036Y-112499500D01*
X201889949Y-112540045D01*
X201768873Y-112617856D01*
X201674623Y-112726626D01*
X201674622Y-112726628D01*
X201614834Y-112857543D01*
X201594353Y-113000000D01*
X161557238Y-113000000D01*
X161570636Y-112950000D01*
X160673012Y-112950000D01*
X160705925Y-112892993D01*
X160740000Y-112765826D01*
X160740000Y-112634174D01*
X160705925Y-112507007D01*
X160673012Y-112450000D01*
X161570636Y-112450000D01*
X161570635Y-112449999D01*
X161513432Y-112236513D01*
X161513429Y-112236507D01*
X161426460Y-112050000D01*
X191244353Y-112050000D01*
X191264834Y-112192456D01*
X191324622Y-112323371D01*
X191324623Y-112323373D01*
X191418872Y-112432143D01*
X191539947Y-112509953D01*
X191539950Y-112509954D01*
X191539949Y-112509954D01*
X191678036Y-112550499D01*
X191678038Y-112550500D01*
X191678039Y-112550500D01*
X191821962Y-112550500D01*
X191821962Y-112550499D01*
X191960053Y-112509953D01*
X192053342Y-112450000D01*
X193944353Y-112450000D01*
X193964834Y-112592456D01*
X194013949Y-112700000D01*
X194024623Y-112723373D01*
X194118872Y-112832143D01*
X194239947Y-112909953D01*
X194239950Y-112909954D01*
X194239949Y-112909954D01*
X194347107Y-112941417D01*
X194376336Y-112950000D01*
X194378036Y-112950499D01*
X194378038Y-112950500D01*
X194378039Y-112950500D01*
X194521962Y-112950500D01*
X194521962Y-112950499D01*
X194660053Y-112909953D01*
X194781128Y-112832143D01*
X194875377Y-112723373D01*
X194935165Y-112592457D01*
X194955647Y-112450000D01*
X194935165Y-112307543D01*
X194875377Y-112176627D01*
X194781128Y-112067857D01*
X194660053Y-111990047D01*
X194660051Y-111990046D01*
X194660049Y-111990045D01*
X194660050Y-111990045D01*
X194521963Y-111949500D01*
X194521961Y-111949500D01*
X194378039Y-111949500D01*
X194378036Y-111949500D01*
X194239949Y-111990045D01*
X194118873Y-112067856D01*
X194024623Y-112176626D01*
X194024622Y-112176628D01*
X193964834Y-112307543D01*
X193944353Y-112450000D01*
X192053342Y-112450000D01*
X192081128Y-112432143D01*
X192175377Y-112323373D01*
X192235165Y-112192457D01*
X192255647Y-112050000D01*
X192235165Y-111907543D01*
X192175377Y-111776627D01*
X192081128Y-111667857D01*
X191960053Y-111590047D01*
X191960051Y-111590046D01*
X191960049Y-111590045D01*
X191960050Y-111590045D01*
X191821963Y-111549500D01*
X191821961Y-111549500D01*
X191678039Y-111549500D01*
X191678036Y-111549500D01*
X191539949Y-111590045D01*
X191418873Y-111667856D01*
X191324623Y-111776626D01*
X191324622Y-111776628D01*
X191264834Y-111907543D01*
X191244353Y-112050000D01*
X161426460Y-112050000D01*
X161413600Y-112022422D01*
X161413599Y-112022420D01*
X161278113Y-111828926D01*
X161278108Y-111828920D01*
X161111082Y-111661894D01*
X160917578Y-111526399D01*
X160703492Y-111426570D01*
X160703486Y-111426567D01*
X160490000Y-111369364D01*
X160490000Y-112266988D01*
X160432993Y-112234075D01*
X160305826Y-112200000D01*
X160174174Y-112200000D01*
X160047007Y-112234075D01*
X159990000Y-112266988D01*
X159990000Y-111369364D01*
X159989999Y-111369364D01*
X159776513Y-111426567D01*
X159776507Y-111426570D01*
X159562422Y-111526399D01*
X159562420Y-111526400D01*
X159368926Y-111661886D01*
X159368920Y-111661891D01*
X159201891Y-111828920D01*
X159201886Y-111828926D01*
X159066400Y-112022420D01*
X159066399Y-112022422D01*
X158966570Y-112236507D01*
X158966567Y-112236513D01*
X158909364Y-112449999D01*
X158517021Y-112449999D01*
X158453703Y-112297137D01*
X158421922Y-112249574D01*
X158360626Y-112157837D01*
X158242162Y-112039373D01*
X158102860Y-111946295D01*
X157948082Y-111882184D01*
X157948074Y-111882182D01*
X157783771Y-111849500D01*
X157783767Y-111849500D01*
X157616233Y-111849500D01*
X157616228Y-111849500D01*
X157451925Y-111882182D01*
X157451917Y-111882184D01*
X157297139Y-111946295D01*
X157157837Y-112039373D01*
X157039373Y-112157837D01*
X156946295Y-112297139D01*
X156882184Y-112451917D01*
X156882182Y-112451925D01*
X156849500Y-112616228D01*
X156010499Y-112616228D01*
X155977816Y-112451918D01*
X155913703Y-112297137D01*
X155881922Y-112249574D01*
X155820626Y-112157837D01*
X155702162Y-112039373D01*
X155562860Y-111946295D01*
X155408082Y-111882184D01*
X155408074Y-111882182D01*
X155243771Y-111849500D01*
X155243767Y-111849500D01*
X155076233Y-111849500D01*
X155076228Y-111849500D01*
X154911925Y-111882182D01*
X154911917Y-111882184D01*
X154757139Y-111946295D01*
X154617837Y-112039373D01*
X154499373Y-112157837D01*
X154406295Y-112297139D01*
X154342184Y-112451917D01*
X154342182Y-112451925D01*
X154309500Y-112616228D01*
X152928593Y-112616228D01*
X152810053Y-112540047D01*
X152810051Y-112540046D01*
X152810049Y-112540045D01*
X152810050Y-112540045D01*
X152671963Y-112499500D01*
X152671961Y-112499500D01*
X152528039Y-112499500D01*
X152528036Y-112499500D01*
X152389949Y-112540045D01*
X152268873Y-112617856D01*
X152174623Y-112726626D01*
X152174622Y-112726628D01*
X152114834Y-112857543D01*
X152094353Y-113000000D01*
X147403342Y-113000000D01*
X147431128Y-112982143D01*
X147525377Y-112873373D01*
X147585165Y-112742457D01*
X147605647Y-112600000D01*
X147585165Y-112457543D01*
X147525377Y-112326627D01*
X147431128Y-112217857D01*
X147310053Y-112140047D01*
X147310051Y-112140046D01*
X147310049Y-112140045D01*
X147310050Y-112140045D01*
X147171963Y-112099500D01*
X147171961Y-112099500D01*
X147028039Y-112099500D01*
X147028036Y-112099500D01*
X146889949Y-112140045D01*
X146768873Y-112217856D01*
X146674623Y-112326626D01*
X146674622Y-112326628D01*
X146614834Y-112457543D01*
X146594353Y-112600000D01*
X137105647Y-112600000D01*
X137085165Y-112457543D01*
X137025377Y-112326627D01*
X136931128Y-112217857D01*
X136810053Y-112140047D01*
X136810051Y-112140046D01*
X136810049Y-112140045D01*
X136810050Y-112140045D01*
X136671963Y-112099500D01*
X136671961Y-112099500D01*
X136528039Y-112099500D01*
X136528036Y-112099500D01*
X136389949Y-112140045D01*
X136268873Y-112217856D01*
X136174623Y-112326626D01*
X136174622Y-112326628D01*
X136114834Y-112457543D01*
X136094353Y-112600000D01*
X134605647Y-112600000D01*
X134585165Y-112457543D01*
X134525377Y-112326627D01*
X134431128Y-112217857D01*
X134310053Y-112140047D01*
X134310051Y-112140046D01*
X134310049Y-112140045D01*
X134310050Y-112140045D01*
X134171963Y-112099500D01*
X134171961Y-112099500D01*
X134028039Y-112099500D01*
X134028036Y-112099500D01*
X133889949Y-112140045D01*
X133768873Y-112217856D01*
X133674623Y-112326626D01*
X133674622Y-112326628D01*
X133614834Y-112457543D01*
X133594353Y-112600000D01*
X132091269Y-112600000D01*
X132085165Y-112557543D01*
X132025377Y-112426627D01*
X131931128Y-112317857D01*
X131810053Y-112240047D01*
X131810051Y-112240046D01*
X131810049Y-112240045D01*
X131810050Y-112240045D01*
X131671963Y-112199500D01*
X131671961Y-112199500D01*
X131528039Y-112199500D01*
X131528036Y-112199500D01*
X131389949Y-112240045D01*
X131268873Y-112317856D01*
X131174623Y-112426626D01*
X131174622Y-112426628D01*
X131114834Y-112557543D01*
X131094353Y-112700000D01*
X116821686Y-112700000D01*
X116786281Y-112567865D01*
X116780322Y-112557543D01*
X116773658Y-112546000D01*
X116757185Y-112478099D01*
X116780038Y-112412073D01*
X116834959Y-112368882D01*
X116881045Y-112360000D01*
X117428492Y-112360000D01*
X117428495Y-112359999D01*
X117621681Y-112321572D01*
X117621693Y-112321569D01*
X117803671Y-112246192D01*
X117803684Y-112246185D01*
X117967462Y-112136751D01*
X117967466Y-112136748D01*
X118004214Y-112100000D01*
X119594353Y-112100000D01*
X119614834Y-112242456D01*
X119653275Y-112326628D01*
X119674623Y-112373373D01*
X119768872Y-112482143D01*
X119889947Y-112559953D01*
X119889950Y-112559954D01*
X119889949Y-112559954D01*
X119997107Y-112591417D01*
X120026336Y-112600000D01*
X120028036Y-112600499D01*
X120028038Y-112600500D01*
X120028039Y-112600500D01*
X120171962Y-112600500D01*
X120171962Y-112600499D01*
X120310053Y-112559953D01*
X120431128Y-112482143D01*
X120525377Y-112373373D01*
X120585165Y-112242457D01*
X120605647Y-112100000D01*
X120585165Y-111957543D01*
X120525377Y-111826627D01*
X120431128Y-111717857D01*
X120310053Y-111640047D01*
X120310051Y-111640046D01*
X120310049Y-111640045D01*
X120310050Y-111640045D01*
X120171963Y-111599500D01*
X120171961Y-111599500D01*
X120028039Y-111599500D01*
X120028036Y-111599500D01*
X119889949Y-111640045D01*
X119768873Y-111717856D01*
X119674623Y-111826626D01*
X119674622Y-111826628D01*
X119614834Y-111957543D01*
X119594353Y-112100000D01*
X118004214Y-112100000D01*
X118106748Y-111997466D01*
X118106751Y-111997462D01*
X118216185Y-111833684D01*
X118216192Y-111833671D01*
X118291569Y-111651692D01*
X118291569Y-111651690D01*
X118299862Y-111610000D01*
X117496988Y-111610000D01*
X117514205Y-111600060D01*
X117570060Y-111544205D01*
X117609556Y-111475796D01*
X117630000Y-111399496D01*
X117630000Y-111320504D01*
X117609556Y-111244204D01*
X117584035Y-111200000D01*
X172494353Y-111200000D01*
X172514834Y-111342456D01*
X172574622Y-111473371D01*
X172574623Y-111473373D01*
X172668872Y-111582143D01*
X172789947Y-111659953D01*
X172789950Y-111659954D01*
X172789949Y-111659954D01*
X172928036Y-111700499D01*
X172928038Y-111700500D01*
X172928039Y-111700500D01*
X173071962Y-111700500D01*
X173071962Y-111700499D01*
X173183138Y-111667856D01*
X173210050Y-111659954D01*
X173210050Y-111659953D01*
X173210053Y-111659953D01*
X173331128Y-111582143D01*
X173425377Y-111473373D01*
X173485165Y-111342457D01*
X173505647Y-111200000D01*
X173485165Y-111057543D01*
X173425377Y-110926627D01*
X173331128Y-110817857D01*
X173210053Y-110740047D01*
X173210051Y-110740046D01*
X173210049Y-110740045D01*
X173210050Y-110740045D01*
X173071963Y-110699500D01*
X173071961Y-110699500D01*
X172928039Y-110699500D01*
X172928036Y-110699500D01*
X172789949Y-110740045D01*
X172668873Y-110817856D01*
X172574623Y-110926626D01*
X172574622Y-110926628D01*
X172514834Y-111057543D01*
X172494353Y-111200000D01*
X117584035Y-111200000D01*
X117570060Y-111175795D01*
X117514205Y-111119940D01*
X117496988Y-111110000D01*
X118299862Y-111110000D01*
X118291569Y-111068309D01*
X118291569Y-111068307D01*
X118216192Y-110886328D01*
X118216185Y-110886315D01*
X118106751Y-110722537D01*
X118106748Y-110722533D01*
X118034215Y-110650000D01*
X190494353Y-110650000D01*
X190514834Y-110792456D01*
X190557699Y-110886315D01*
X190574623Y-110923373D01*
X190668872Y-111032143D01*
X190789947Y-111109953D01*
X190789950Y-111109954D01*
X190789949Y-111109954D01*
X190928036Y-111150499D01*
X190928038Y-111150500D01*
X190928039Y-111150500D01*
X191071962Y-111150500D01*
X191071962Y-111150499D01*
X191210053Y-111109953D01*
X191331128Y-111032143D01*
X191425377Y-110923373D01*
X191485165Y-110792457D01*
X191505647Y-110650000D01*
X191498458Y-110600000D01*
X192344353Y-110600000D01*
X192364834Y-110742456D01*
X192387669Y-110792456D01*
X192424623Y-110873373D01*
X192518872Y-110982143D01*
X192639947Y-111059953D01*
X192639950Y-111059954D01*
X192639949Y-111059954D01*
X192778036Y-111100499D01*
X192778038Y-111100500D01*
X192778039Y-111100500D01*
X192921962Y-111100500D01*
X192921962Y-111100499D01*
X193060053Y-111059953D01*
X193181128Y-110982143D01*
X193275377Y-110873373D01*
X193308886Y-110800000D01*
X197744353Y-110800000D01*
X197764834Y-110942456D01*
X197818494Y-111059953D01*
X197824623Y-111073373D01*
X197918872Y-111182143D01*
X198039947Y-111259953D01*
X198039950Y-111259954D01*
X198039949Y-111259954D01*
X198178036Y-111300499D01*
X198178038Y-111300500D01*
X198178039Y-111300500D01*
X198321962Y-111300500D01*
X198321962Y-111300499D01*
X198460053Y-111259953D01*
X198581128Y-111182143D01*
X198675377Y-111073373D01*
X198735165Y-110942457D01*
X198755647Y-110800000D01*
X198735165Y-110657543D01*
X198675377Y-110526627D01*
X198581128Y-110417857D01*
X198460053Y-110340047D01*
X198460051Y-110340046D01*
X198460049Y-110340045D01*
X198460050Y-110340045D01*
X198321963Y-110299500D01*
X198321961Y-110299500D01*
X198178039Y-110299500D01*
X198178036Y-110299500D01*
X198039949Y-110340045D01*
X197918873Y-110417856D01*
X197824623Y-110526626D01*
X197824622Y-110526628D01*
X197764834Y-110657543D01*
X197744353Y-110800000D01*
X193308886Y-110800000D01*
X193335165Y-110742457D01*
X193355647Y-110600000D01*
X193335165Y-110457543D01*
X193275377Y-110326627D01*
X193181128Y-110217857D01*
X193060053Y-110140047D01*
X193060051Y-110140046D01*
X193060049Y-110140045D01*
X193060050Y-110140045D01*
X192921963Y-110099500D01*
X192921961Y-110099500D01*
X192778039Y-110099500D01*
X192778036Y-110099500D01*
X192639949Y-110140045D01*
X192518873Y-110217856D01*
X192424623Y-110326626D01*
X192424622Y-110326628D01*
X192364834Y-110457543D01*
X192344353Y-110600000D01*
X191498458Y-110600000D01*
X191485165Y-110507543D01*
X191425377Y-110376627D01*
X191331128Y-110267857D01*
X191210053Y-110190047D01*
X191210051Y-110190046D01*
X191210049Y-110190045D01*
X191210050Y-110190045D01*
X191071963Y-110149500D01*
X191071961Y-110149500D01*
X190928039Y-110149500D01*
X190928036Y-110149500D01*
X190789949Y-110190045D01*
X190668873Y-110267856D01*
X190574623Y-110376626D01*
X190574622Y-110376628D01*
X190514834Y-110507543D01*
X190494353Y-110650000D01*
X118034215Y-110650000D01*
X117967466Y-110583251D01*
X117967462Y-110583248D01*
X117803684Y-110473814D01*
X117803671Y-110473807D01*
X117621693Y-110398430D01*
X117621681Y-110398427D01*
X117428495Y-110360000D01*
X117030000Y-110360000D01*
X117030000Y-111060000D01*
X116530000Y-111060000D01*
X116530000Y-110360000D01*
X116131504Y-110360000D01*
X115938318Y-110398427D01*
X115938306Y-110398430D01*
X115756328Y-110473807D01*
X115756315Y-110473814D01*
X115592537Y-110583248D01*
X115592533Y-110583251D01*
X115453251Y-110722533D01*
X115453248Y-110722537D01*
X115343814Y-110886315D01*
X115343807Y-110886328D01*
X115268430Y-111068307D01*
X115268430Y-111068309D01*
X115260138Y-111110000D01*
X113869862Y-111110000D01*
X113861569Y-111068309D01*
X113861569Y-111068307D01*
X113786192Y-110886328D01*
X113786185Y-110886315D01*
X113676751Y-110722537D01*
X113676748Y-110722533D01*
X113537466Y-110583251D01*
X113537462Y-110583248D01*
X113373684Y-110473814D01*
X113373671Y-110473807D01*
X113191693Y-110398430D01*
X113191681Y-110398427D01*
X112998495Y-110360000D01*
X112850000Y-110360000D01*
X112850000Y-111060000D01*
X112350000Y-111060000D01*
X112350000Y-110360000D01*
X112201504Y-110360000D01*
X112008318Y-110398427D01*
X112008306Y-110398430D01*
X111826328Y-110473807D01*
X111826315Y-110473814D01*
X111662537Y-110583248D01*
X111662533Y-110583251D01*
X111523251Y-110722533D01*
X111523248Y-110722537D01*
X111413814Y-110886315D01*
X111413807Y-110886328D01*
X111338430Y-111068307D01*
X111338430Y-111068309D01*
X111330138Y-111110000D01*
X110300500Y-111110000D01*
X110300500Y-109500000D01*
X141994353Y-109500000D01*
X142014834Y-109642456D01*
X142074622Y-109773371D01*
X142074623Y-109773373D01*
X142168872Y-109882143D01*
X142289947Y-109959953D01*
X142289950Y-109959954D01*
X142289949Y-109959954D01*
X142428036Y-110000499D01*
X142428038Y-110000500D01*
X142428039Y-110000500D01*
X142571962Y-110000500D01*
X142571962Y-110000499D01*
X142710053Y-109959953D01*
X142831128Y-109882143D01*
X142925377Y-109773373D01*
X142985165Y-109642457D01*
X143005647Y-109500000D01*
X143594353Y-109500000D01*
X143614834Y-109642456D01*
X143674622Y-109773371D01*
X143674623Y-109773373D01*
X143768872Y-109882143D01*
X143889947Y-109959953D01*
X143889950Y-109959954D01*
X143889949Y-109959954D01*
X144028036Y-110000499D01*
X144028038Y-110000500D01*
X144028039Y-110000500D01*
X144171962Y-110000500D01*
X144171962Y-110000499D01*
X144310053Y-109959953D01*
X144431128Y-109882143D01*
X144525377Y-109773373D01*
X144585165Y-109642457D01*
X144605647Y-109500000D01*
X144994353Y-109500000D01*
X145014834Y-109642456D01*
X145074622Y-109773371D01*
X145074623Y-109773373D01*
X145168872Y-109882143D01*
X145289947Y-109959953D01*
X145289950Y-109959954D01*
X145289949Y-109959954D01*
X145428036Y-110000499D01*
X145428038Y-110000500D01*
X145428039Y-110000500D01*
X145571962Y-110000500D01*
X145571962Y-110000499D01*
X145710053Y-109959953D01*
X145831128Y-109882143D01*
X145925377Y-109773373D01*
X145985165Y-109642457D01*
X146005647Y-109500000D01*
X145985165Y-109357543D01*
X145925377Y-109226627D01*
X145831128Y-109117857D01*
X145710053Y-109040047D01*
X145710051Y-109040046D01*
X145710049Y-109040045D01*
X145710050Y-109040045D01*
X145571963Y-108999500D01*
X145571961Y-108999500D01*
X145428039Y-108999500D01*
X145428036Y-108999500D01*
X145289949Y-109040045D01*
X145168873Y-109117856D01*
X145074623Y-109226626D01*
X145074622Y-109226628D01*
X145014834Y-109357543D01*
X144994353Y-109500000D01*
X144605647Y-109500000D01*
X144585165Y-109357543D01*
X144525377Y-109226627D01*
X144431128Y-109117857D01*
X144310053Y-109040047D01*
X144310051Y-109040046D01*
X144310049Y-109040045D01*
X144310050Y-109040045D01*
X144171963Y-108999500D01*
X144171961Y-108999500D01*
X144028039Y-108999500D01*
X144028036Y-108999500D01*
X143889949Y-109040045D01*
X143768873Y-109117856D01*
X143674623Y-109226626D01*
X143674622Y-109226628D01*
X143614834Y-109357543D01*
X143594353Y-109500000D01*
X143005647Y-109500000D01*
X142985165Y-109357543D01*
X142925377Y-109226627D01*
X142831128Y-109117857D01*
X142710053Y-109040047D01*
X142710051Y-109040046D01*
X142710049Y-109040045D01*
X142710050Y-109040045D01*
X142571963Y-108999500D01*
X142571961Y-108999500D01*
X142428039Y-108999500D01*
X142428036Y-108999500D01*
X142289949Y-109040045D01*
X142168873Y-109117856D01*
X142074623Y-109226626D01*
X142074622Y-109226628D01*
X142014834Y-109357543D01*
X141994353Y-109500000D01*
X110300500Y-109500000D01*
X110300500Y-108400000D01*
X166894353Y-108400000D01*
X166914834Y-108542456D01*
X166974622Y-108673371D01*
X166974623Y-108673373D01*
X167068872Y-108782143D01*
X167189947Y-108859953D01*
X167189950Y-108859954D01*
X167189949Y-108859954D01*
X167328036Y-108900499D01*
X167328038Y-108900500D01*
X167328039Y-108900500D01*
X167471962Y-108900500D01*
X167471962Y-108900499D01*
X167610053Y-108859953D01*
X167731128Y-108782143D01*
X167825377Y-108673373D01*
X167885165Y-108542457D01*
X167905647Y-108400000D01*
X167885165Y-108257543D01*
X167825377Y-108126627D01*
X167731128Y-108017857D01*
X167610053Y-107940047D01*
X167610051Y-107940046D01*
X167610049Y-107940045D01*
X167610050Y-107940045D01*
X167471963Y-107899500D01*
X167471961Y-107899500D01*
X167328039Y-107899500D01*
X167328036Y-107899500D01*
X167189949Y-107940045D01*
X167068873Y-108017856D01*
X166974623Y-108126626D01*
X166974622Y-108126628D01*
X166914834Y-108257543D01*
X166894353Y-108400000D01*
X110300500Y-108400000D01*
X110300500Y-105000000D01*
X158294353Y-105000000D01*
X158314834Y-105142456D01*
X158360504Y-105242457D01*
X158374623Y-105273373D01*
X158468872Y-105382143D01*
X158589947Y-105459953D01*
X158589950Y-105459954D01*
X158589949Y-105459954D01*
X158728036Y-105500499D01*
X158728038Y-105500500D01*
X158728039Y-105500500D01*
X158871962Y-105500500D01*
X158871962Y-105500499D01*
X159010053Y-105459953D01*
X159025540Y-105450000D01*
X166744353Y-105450000D01*
X166764834Y-105592456D01*
X166768508Y-105600500D01*
X166824623Y-105723373D01*
X166918872Y-105832143D01*
X167039947Y-105909953D01*
X167039950Y-105909954D01*
X167039949Y-105909954D01*
X167178036Y-105950499D01*
X167178038Y-105950500D01*
X167178039Y-105950500D01*
X167321962Y-105950500D01*
X167321962Y-105950499D01*
X167460053Y-105909953D01*
X167581128Y-105832143D01*
X167675377Y-105723373D01*
X167735165Y-105592457D01*
X167755647Y-105450000D01*
X167735165Y-105307543D01*
X167675377Y-105176627D01*
X167608980Y-105100000D01*
X176294353Y-105100000D01*
X176314834Y-105242456D01*
X176328953Y-105273371D01*
X176374623Y-105373373D01*
X176468872Y-105482143D01*
X176589947Y-105559953D01*
X176589950Y-105559954D01*
X176589949Y-105559954D01*
X176728036Y-105600499D01*
X176728038Y-105600500D01*
X176728039Y-105600500D01*
X176871962Y-105600500D01*
X176871962Y-105600499D01*
X177010053Y-105559953D01*
X177131128Y-105482143D01*
X177225377Y-105373373D01*
X177285165Y-105242457D01*
X177305647Y-105100000D01*
X177285165Y-104957543D01*
X177225377Y-104826627D01*
X177131128Y-104717857D01*
X177010053Y-104640047D01*
X177010051Y-104640046D01*
X177010049Y-104640045D01*
X177010050Y-104640045D01*
X176871963Y-104599500D01*
X176871961Y-104599500D01*
X176728039Y-104599500D01*
X176728036Y-104599500D01*
X176589949Y-104640045D01*
X176468873Y-104717856D01*
X176374623Y-104826626D01*
X176374622Y-104826628D01*
X176314834Y-104957543D01*
X176294353Y-105100000D01*
X167608980Y-105100000D01*
X167581128Y-105067857D01*
X167460053Y-104990047D01*
X167460051Y-104990046D01*
X167460049Y-104990045D01*
X167460050Y-104990045D01*
X167321963Y-104949500D01*
X167321961Y-104949500D01*
X167178039Y-104949500D01*
X167178036Y-104949500D01*
X167039949Y-104990045D01*
X166918873Y-105067856D01*
X166824623Y-105176626D01*
X166824622Y-105176628D01*
X166764834Y-105307543D01*
X166744353Y-105450000D01*
X159025540Y-105450000D01*
X159131128Y-105382143D01*
X159225377Y-105273373D01*
X159285165Y-105142457D01*
X159305647Y-105000000D01*
X159285165Y-104857543D01*
X159225377Y-104726627D01*
X159131128Y-104617857D01*
X159010053Y-104540047D01*
X159010051Y-104540046D01*
X159010049Y-104540045D01*
X159010050Y-104540045D01*
X158871963Y-104499500D01*
X158871961Y-104499500D01*
X158728039Y-104499500D01*
X158728036Y-104499500D01*
X158589949Y-104540045D01*
X158468873Y-104617856D01*
X158374623Y-104726626D01*
X158374622Y-104726628D01*
X158314834Y-104857543D01*
X158294353Y-105000000D01*
X110300500Y-105000000D01*
X110300500Y-103700000D01*
X168894353Y-103700000D01*
X168914834Y-103842456D01*
X168974622Y-103973371D01*
X168974623Y-103973373D01*
X169068872Y-104082143D01*
X169189947Y-104159953D01*
X169189950Y-104159954D01*
X169189949Y-104159954D01*
X169328036Y-104200499D01*
X169328038Y-104200500D01*
X169328039Y-104200500D01*
X169471962Y-104200500D01*
X169471962Y-104200499D01*
X169610053Y-104159953D01*
X169731128Y-104082143D01*
X169825377Y-103973373D01*
X169885165Y-103842457D01*
X169905647Y-103700000D01*
X169885165Y-103557543D01*
X169825377Y-103426627D01*
X169731128Y-103317857D01*
X169610053Y-103240047D01*
X169610051Y-103240046D01*
X169610049Y-103240045D01*
X169610050Y-103240045D01*
X169471963Y-103199500D01*
X169471961Y-103199500D01*
X169328039Y-103199500D01*
X169328036Y-103199500D01*
X169189949Y-103240045D01*
X169068873Y-103317856D01*
X168974623Y-103426626D01*
X168974622Y-103426628D01*
X168914834Y-103557543D01*
X168894353Y-103700000D01*
X110300500Y-103700000D01*
X110300500Y-101216228D01*
X124809500Y-101216228D01*
X124809500Y-101383771D01*
X124842182Y-101548074D01*
X124842184Y-101548082D01*
X124906295Y-101702860D01*
X124999373Y-101842162D01*
X125117837Y-101960626D01*
X125210494Y-102022537D01*
X125257137Y-102053703D01*
X125411918Y-102117816D01*
X125576228Y-102150499D01*
X125576232Y-102150500D01*
X125576233Y-102150500D01*
X125743768Y-102150500D01*
X125743769Y-102150499D01*
X125908082Y-102117816D01*
X126062863Y-102053703D01*
X126202162Y-101960626D01*
X126320626Y-101842162D01*
X126413703Y-101702863D01*
X126477816Y-101548082D01*
X126510500Y-101383767D01*
X126510500Y-101216233D01*
X126510499Y-101216228D01*
X127349500Y-101216228D01*
X127349500Y-101383771D01*
X127382182Y-101548074D01*
X127382184Y-101548082D01*
X127446295Y-101702860D01*
X127539373Y-101842162D01*
X127657837Y-101960626D01*
X127750494Y-102022537D01*
X127797137Y-102053703D01*
X127951918Y-102117816D01*
X128116228Y-102150499D01*
X128116232Y-102150500D01*
X128116233Y-102150500D01*
X128283768Y-102150500D01*
X128283769Y-102150499D01*
X128448082Y-102117816D01*
X128602863Y-102053703D01*
X128742162Y-101960626D01*
X128860626Y-101842162D01*
X128953703Y-101702863D01*
X129017816Y-101548082D01*
X129050500Y-101383767D01*
X129050500Y-101216233D01*
X129050499Y-101216228D01*
X129889500Y-101216228D01*
X129889500Y-101383771D01*
X129922182Y-101548074D01*
X129922184Y-101548082D01*
X129986295Y-101702860D01*
X130079373Y-101842162D01*
X130197837Y-101960626D01*
X130290494Y-102022537D01*
X130337137Y-102053703D01*
X130491918Y-102117816D01*
X130656228Y-102150499D01*
X130656232Y-102150500D01*
X130656233Y-102150500D01*
X130823768Y-102150500D01*
X130823769Y-102150499D01*
X130988082Y-102117816D01*
X131142863Y-102053703D01*
X131282162Y-101960626D01*
X131400626Y-101842162D01*
X131493703Y-101702863D01*
X131557816Y-101548082D01*
X131590500Y-101383767D01*
X131590500Y-101216233D01*
X131557816Y-101051918D01*
X131493703Y-100897137D01*
X131429132Y-100800500D01*
X131400626Y-100757837D01*
X131282162Y-100639373D01*
X131142860Y-100546295D01*
X130988082Y-100482184D01*
X130988074Y-100482182D01*
X130823771Y-100449500D01*
X130823767Y-100449500D01*
X130656233Y-100449500D01*
X130656228Y-100449500D01*
X130491925Y-100482182D01*
X130491917Y-100482184D01*
X130337139Y-100546295D01*
X130197837Y-100639373D01*
X130079373Y-100757837D01*
X129986295Y-100897139D01*
X129922184Y-101051917D01*
X129922182Y-101051925D01*
X129889500Y-101216228D01*
X129050499Y-101216228D01*
X129017816Y-101051918D01*
X128953703Y-100897137D01*
X128889132Y-100800500D01*
X128860626Y-100757837D01*
X128742162Y-100639373D01*
X128602860Y-100546295D01*
X128448082Y-100482184D01*
X128448074Y-100482182D01*
X128283771Y-100449500D01*
X128283767Y-100449500D01*
X128116233Y-100449500D01*
X128116228Y-100449500D01*
X127951925Y-100482182D01*
X127951917Y-100482184D01*
X127797139Y-100546295D01*
X127657837Y-100639373D01*
X127539373Y-100757837D01*
X127446295Y-100897139D01*
X127382184Y-101051917D01*
X127382182Y-101051925D01*
X127349500Y-101216228D01*
X126510499Y-101216228D01*
X126477816Y-101051918D01*
X126413703Y-100897137D01*
X126349132Y-100800500D01*
X126320626Y-100757837D01*
X126202162Y-100639373D01*
X126062860Y-100546295D01*
X125908082Y-100482184D01*
X125908074Y-100482182D01*
X125743771Y-100449500D01*
X125743767Y-100449500D01*
X125576233Y-100449500D01*
X125576228Y-100449500D01*
X125411925Y-100482182D01*
X125411917Y-100482184D01*
X125257139Y-100546295D01*
X125117837Y-100639373D01*
X124999373Y-100757837D01*
X124906295Y-100897139D01*
X124842184Y-101051917D01*
X124842182Y-101051925D01*
X124809500Y-101216228D01*
X110300500Y-101216228D01*
X110300500Y-100300000D01*
X146494353Y-100300000D01*
X146514834Y-100442456D01*
X146568494Y-100559953D01*
X146574623Y-100573373D01*
X146668872Y-100682143D01*
X146789947Y-100759953D01*
X146789950Y-100759954D01*
X146789949Y-100759954D01*
X146928036Y-100800499D01*
X146928038Y-100800500D01*
X146928039Y-100800500D01*
X147071962Y-100800500D01*
X147071962Y-100800499D01*
X147210053Y-100759953D01*
X147331128Y-100682143D01*
X147402305Y-100600000D01*
X150844353Y-100600000D01*
X150864834Y-100742456D01*
X150924622Y-100873371D01*
X150924623Y-100873373D01*
X151018872Y-100982143D01*
X151139947Y-101059953D01*
X151139950Y-101059954D01*
X151139949Y-101059954D01*
X151278036Y-101100499D01*
X151278038Y-101100500D01*
X151278039Y-101100500D01*
X151421962Y-101100500D01*
X151421962Y-101100499D01*
X151560053Y-101059953D01*
X151681128Y-100982143D01*
X151775377Y-100873373D01*
X151835165Y-100742457D01*
X151855647Y-100600000D01*
X151835165Y-100457543D01*
X151775377Y-100326627D01*
X151681128Y-100217857D01*
X151560053Y-100140047D01*
X151560051Y-100140046D01*
X151560049Y-100140045D01*
X151560050Y-100140045D01*
X151423666Y-100100000D01*
X201094353Y-100100000D01*
X201114834Y-100242456D01*
X201153275Y-100326628D01*
X201174623Y-100373373D01*
X201268872Y-100482143D01*
X201389947Y-100559953D01*
X201389950Y-100559954D01*
X201389949Y-100559954D01*
X201497107Y-100591417D01*
X201526336Y-100600000D01*
X201528036Y-100600499D01*
X201528038Y-100600500D01*
X201528039Y-100600500D01*
X201671962Y-100600500D01*
X201671962Y-100600499D01*
X201810053Y-100559953D01*
X201931128Y-100482143D01*
X202025377Y-100373373D01*
X202085165Y-100242457D01*
X202105647Y-100100000D01*
X202085165Y-99957543D01*
X202025377Y-99826627D01*
X201931128Y-99717857D01*
X201810053Y-99640047D01*
X201810051Y-99640046D01*
X201810049Y-99640045D01*
X201810050Y-99640045D01*
X201671963Y-99599500D01*
X201671961Y-99599500D01*
X201528039Y-99599500D01*
X201528036Y-99599500D01*
X201389949Y-99640045D01*
X201268873Y-99717856D01*
X201174623Y-99826626D01*
X201174622Y-99826628D01*
X201114834Y-99957543D01*
X201094353Y-100100000D01*
X151423666Y-100100000D01*
X151421963Y-100099500D01*
X151421961Y-100099500D01*
X151278039Y-100099500D01*
X151278036Y-100099500D01*
X151139949Y-100140045D01*
X151018873Y-100217856D01*
X150924623Y-100326626D01*
X150924622Y-100326628D01*
X150864834Y-100457543D01*
X150844353Y-100600000D01*
X147402305Y-100600000D01*
X147425377Y-100573373D01*
X147485165Y-100442457D01*
X147505647Y-100300000D01*
X147485165Y-100157543D01*
X147425377Y-100026627D01*
X147331128Y-99917857D01*
X147210053Y-99840047D01*
X147210051Y-99840046D01*
X147210049Y-99840045D01*
X147210050Y-99840045D01*
X147073666Y-99800000D01*
X149094353Y-99800000D01*
X149114834Y-99942456D01*
X149153275Y-100026628D01*
X149174623Y-100073373D01*
X149268872Y-100182143D01*
X149389947Y-100259953D01*
X149389950Y-100259954D01*
X149389949Y-100259954D01*
X149497107Y-100291417D01*
X149526336Y-100300000D01*
X149528036Y-100300499D01*
X149528038Y-100300500D01*
X149528039Y-100300500D01*
X149671962Y-100300500D01*
X149671962Y-100300499D01*
X149810053Y-100259953D01*
X149931128Y-100182143D01*
X150025377Y-100073373D01*
X150085165Y-99942457D01*
X150105647Y-99800000D01*
X150085165Y-99657543D01*
X150025377Y-99526627D01*
X149931128Y-99417857D01*
X149810053Y-99340047D01*
X149810051Y-99340046D01*
X149810049Y-99340045D01*
X149810050Y-99340045D01*
X149671963Y-99299500D01*
X149671961Y-99299500D01*
X149528039Y-99299500D01*
X149528036Y-99299500D01*
X149389949Y-99340045D01*
X149268873Y-99417856D01*
X149174623Y-99526626D01*
X149174622Y-99526628D01*
X149114834Y-99657543D01*
X149094353Y-99800000D01*
X147073666Y-99800000D01*
X147071963Y-99799500D01*
X147071961Y-99799500D01*
X146928039Y-99799500D01*
X146928036Y-99799500D01*
X146789949Y-99840045D01*
X146668873Y-99917856D01*
X146574623Y-100026626D01*
X146574622Y-100026628D01*
X146514834Y-100157543D01*
X146494353Y-100300000D01*
X110300500Y-100300000D01*
X110300500Y-97836228D01*
X114149500Y-97836228D01*
X114149500Y-98003771D01*
X114182182Y-98168074D01*
X114182184Y-98168082D01*
X114246295Y-98322860D01*
X114339373Y-98462162D01*
X114457837Y-98580626D01*
X114471934Y-98590045D01*
X114597137Y-98673703D01*
X114751918Y-98737816D01*
X114916228Y-98770499D01*
X114916232Y-98770500D01*
X114916233Y-98770500D01*
X115083768Y-98770500D01*
X115083769Y-98770499D01*
X115248082Y-98737816D01*
X115402863Y-98673703D01*
X115542162Y-98580626D01*
X115660626Y-98462162D01*
X115753703Y-98322863D01*
X115817816Y-98168082D01*
X115850500Y-98003767D01*
X115850500Y-97836233D01*
X115817816Y-97671918D01*
X115753703Y-97517137D01*
X115688798Y-97420000D01*
X115660626Y-97377837D01*
X115542162Y-97259373D01*
X115402860Y-97166295D01*
X115248082Y-97102184D01*
X115248074Y-97102182D01*
X115083771Y-97069500D01*
X115083767Y-97069500D01*
X114916233Y-97069500D01*
X114916228Y-97069500D01*
X114751925Y-97102182D01*
X114751917Y-97102184D01*
X114597139Y-97166295D01*
X114457837Y-97259373D01*
X114339373Y-97377837D01*
X114246295Y-97517139D01*
X114182184Y-97671917D01*
X114182182Y-97671925D01*
X114149500Y-97836228D01*
X110300500Y-97836228D01*
X110300500Y-97022155D01*
X116190000Y-97022155D01*
X116190000Y-97670000D01*
X117106988Y-97670000D01*
X117074075Y-97727007D01*
X117040000Y-97854174D01*
X117040000Y-97985826D01*
X117074075Y-98112993D01*
X117106988Y-98170000D01*
X116190000Y-98170000D01*
X116190000Y-98817844D01*
X116196401Y-98877372D01*
X116196403Y-98877379D01*
X116246645Y-99012086D01*
X116246649Y-99012093D01*
X116332809Y-99127187D01*
X116332812Y-99127190D01*
X116447906Y-99213350D01*
X116447913Y-99213354D01*
X116582620Y-99263596D01*
X116582627Y-99263598D01*
X116642155Y-99269999D01*
X116642172Y-99270000D01*
X117290000Y-99270000D01*
X117290000Y-98353012D01*
X117347007Y-98385925D01*
X117474174Y-98420000D01*
X117605826Y-98420000D01*
X117732993Y-98385925D01*
X117790000Y-98353012D01*
X117790000Y-99270000D01*
X118437828Y-99270000D01*
X118437844Y-99269999D01*
X118497372Y-99263598D01*
X118497379Y-99263596D01*
X118632086Y-99213354D01*
X118632093Y-99213350D01*
X118747187Y-99127190D01*
X118747190Y-99127187D01*
X118833350Y-99012093D01*
X118833354Y-99012086D01*
X118837862Y-99000000D01*
X152194353Y-99000000D01*
X152214834Y-99142456D01*
X152274622Y-99273371D01*
X152274623Y-99273373D01*
X152368872Y-99382143D01*
X152489947Y-99459953D01*
X152489950Y-99459954D01*
X152489949Y-99459954D01*
X152628036Y-99500499D01*
X152628038Y-99500500D01*
X152628039Y-99500500D01*
X152771962Y-99500500D01*
X152771962Y-99500499D01*
X152910053Y-99459953D01*
X153031128Y-99382143D01*
X153125377Y-99273373D01*
X153185165Y-99142457D01*
X153198458Y-99050000D01*
X160294353Y-99050000D01*
X160314834Y-99192456D01*
X160363720Y-99299500D01*
X160374623Y-99323373D01*
X160468872Y-99432143D01*
X160589947Y-99509953D01*
X160589950Y-99509954D01*
X160589949Y-99509954D01*
X160728036Y-99550499D01*
X160728038Y-99550500D01*
X160728039Y-99550500D01*
X160871962Y-99550500D01*
X160871962Y-99550499D01*
X161010053Y-99509953D01*
X161131128Y-99432143D01*
X161225377Y-99323373D01*
X161285165Y-99192457D01*
X161305647Y-99050000D01*
X161285165Y-98907543D01*
X161225377Y-98776627D01*
X161131128Y-98667857D01*
X161010053Y-98590047D01*
X161010051Y-98590046D01*
X161010049Y-98590045D01*
X161010050Y-98590045D01*
X160871963Y-98549500D01*
X160871961Y-98549500D01*
X160728039Y-98549500D01*
X160728036Y-98549500D01*
X160589949Y-98590045D01*
X160468873Y-98667856D01*
X160468872Y-98667856D01*
X160468872Y-98667857D01*
X160463806Y-98673704D01*
X160374623Y-98776626D01*
X160374622Y-98776628D01*
X160314834Y-98907543D01*
X160294353Y-99050000D01*
X153198458Y-99050000D01*
X153205647Y-99000000D01*
X153185165Y-98857543D01*
X153125377Y-98726627D01*
X153031128Y-98617857D01*
X152910053Y-98540047D01*
X152910051Y-98540046D01*
X152910049Y-98540045D01*
X152910050Y-98540045D01*
X152771963Y-98499500D01*
X152771961Y-98499500D01*
X152628039Y-98499500D01*
X152628036Y-98499500D01*
X152489949Y-98540045D01*
X152368873Y-98617856D01*
X152274623Y-98726626D01*
X152274622Y-98726628D01*
X152214834Y-98857543D01*
X152194353Y-99000000D01*
X118837862Y-99000000D01*
X118883596Y-98877379D01*
X118883598Y-98877372D01*
X118889999Y-98817844D01*
X118890000Y-98817827D01*
X118890000Y-98400000D01*
X168494353Y-98400000D01*
X168514834Y-98542456D01*
X168549269Y-98617856D01*
X168574623Y-98673373D01*
X168668872Y-98782143D01*
X168789947Y-98859953D01*
X168789950Y-98859954D01*
X168789949Y-98859954D01*
X168928036Y-98900499D01*
X168928038Y-98900500D01*
X168928039Y-98900500D01*
X169071962Y-98900500D01*
X169071962Y-98900499D01*
X169210053Y-98859953D01*
X169331128Y-98782143D01*
X169425377Y-98673373D01*
X169485165Y-98542457D01*
X169505647Y-98400000D01*
X169485165Y-98257543D01*
X169425377Y-98126627D01*
X169331128Y-98017857D01*
X169210053Y-97940047D01*
X169210051Y-97940046D01*
X169210049Y-97940045D01*
X169210050Y-97940045D01*
X169071963Y-97899500D01*
X169071961Y-97899500D01*
X168928039Y-97899500D01*
X168928036Y-97899500D01*
X168789949Y-97940045D01*
X168668873Y-98017856D01*
X168574623Y-98126626D01*
X168574622Y-98126628D01*
X168514834Y-98257543D01*
X168494353Y-98400000D01*
X118890000Y-98400000D01*
X118890000Y-98170000D01*
X117973012Y-98170000D01*
X118005925Y-98112993D01*
X118040000Y-97985826D01*
X118040000Y-97854174D01*
X118005925Y-97727007D01*
X117973012Y-97670000D01*
X118890000Y-97670000D01*
X118890000Y-97022172D01*
X118889999Y-97022155D01*
X118883598Y-96962627D01*
X118883596Y-96962620D01*
X118833354Y-96827913D01*
X118833350Y-96827906D01*
X118747190Y-96712812D01*
X118747187Y-96712809D01*
X118632093Y-96626649D01*
X118632086Y-96626645D01*
X118500013Y-96577385D01*
X118444079Y-96535514D01*
X118419662Y-96470049D01*
X118434514Y-96401776D01*
X118455665Y-96373521D01*
X118578108Y-96251078D01*
X118713600Y-96057578D01*
X118787079Y-95900000D01*
X172481853Y-95900000D01*
X172502334Y-96042456D01*
X172560066Y-96168869D01*
X172562123Y-96173373D01*
X172656372Y-96282143D01*
X172777447Y-96359953D01*
X172777450Y-96359954D01*
X172777449Y-96359954D01*
X172915536Y-96400499D01*
X172915538Y-96400500D01*
X172915539Y-96400500D01*
X173059462Y-96400500D01*
X173059462Y-96400499D01*
X173197553Y-96359953D01*
X173318628Y-96282143D01*
X173412877Y-96173373D01*
X173472665Y-96042457D01*
X173478769Y-96000000D01*
X199594355Y-96000000D01*
X199614859Y-96168869D01*
X199614860Y-96168874D01*
X199675182Y-96327931D01*
X199737475Y-96418177D01*
X199771817Y-96467929D01*
X199848105Y-96535514D01*
X199899150Y-96580736D01*
X200049773Y-96659789D01*
X200049775Y-96659790D01*
X200214944Y-96700500D01*
X200385056Y-96700500D01*
X200550225Y-96659790D01*
X200629692Y-96618081D01*
X200700849Y-96580736D01*
X200700850Y-96580734D01*
X200700852Y-96580734D01*
X200828183Y-96467929D01*
X200924818Y-96327930D01*
X200985140Y-96168872D01*
X201005645Y-96000000D01*
X200985140Y-95831128D01*
X200965787Y-95780099D01*
X200924817Y-95672068D01*
X200890476Y-95622318D01*
X200828183Y-95532071D01*
X200700852Y-95419266D01*
X200700849Y-95419263D01*
X200550226Y-95340210D01*
X200385056Y-95299500D01*
X200214944Y-95299500D01*
X200049773Y-95340210D01*
X199899150Y-95419263D01*
X199771816Y-95532072D01*
X199675182Y-95672068D01*
X199614860Y-95831125D01*
X199614859Y-95831130D01*
X199594355Y-96000000D01*
X173478769Y-96000000D01*
X173493147Y-95900000D01*
X173472665Y-95757543D01*
X173412877Y-95626627D01*
X173318628Y-95517857D01*
X173197553Y-95440047D01*
X173197551Y-95440046D01*
X173197549Y-95440045D01*
X173197550Y-95440045D01*
X173059463Y-95399500D01*
X173059461Y-95399500D01*
X172915539Y-95399500D01*
X172915536Y-95399500D01*
X172777449Y-95440045D01*
X172656373Y-95517856D01*
X172562123Y-95626626D01*
X172562122Y-95626628D01*
X172502334Y-95757543D01*
X172481853Y-95900000D01*
X118787079Y-95900000D01*
X118813429Y-95843492D01*
X118813432Y-95843486D01*
X118870636Y-95630000D01*
X117973012Y-95630000D01*
X118005925Y-95572993D01*
X118040000Y-95445826D01*
X118040000Y-95314174D01*
X118005925Y-95187007D01*
X117973012Y-95130000D01*
X118870636Y-95130000D01*
X118870635Y-95129999D01*
X118813432Y-94916513D01*
X118813429Y-94916507D01*
X118713600Y-94702422D01*
X118713599Y-94702420D01*
X118578113Y-94508926D01*
X118578108Y-94508920D01*
X118411082Y-94341894D01*
X118279844Y-94250000D01*
X138194353Y-94250000D01*
X138214834Y-94392456D01*
X138218508Y-94400500D01*
X138274623Y-94523373D01*
X138368872Y-94632143D01*
X138489947Y-94709953D01*
X138489950Y-94709954D01*
X138489949Y-94709954D01*
X138628036Y-94750499D01*
X138628038Y-94750500D01*
X138628039Y-94750500D01*
X138771962Y-94750500D01*
X138771962Y-94750499D01*
X138910053Y-94709953D01*
X139031128Y-94632143D01*
X139125377Y-94523373D01*
X139185165Y-94392457D01*
X139205647Y-94250000D01*
X139185165Y-94107543D01*
X139125377Y-93976627D01*
X139058980Y-93900000D01*
X156894353Y-93900000D01*
X156914834Y-94042456D01*
X156924218Y-94063003D01*
X156974623Y-94173373D01*
X157068872Y-94282143D01*
X157189947Y-94359953D01*
X157189950Y-94359954D01*
X157189949Y-94359954D01*
X157328036Y-94400499D01*
X157328038Y-94400500D01*
X157328039Y-94400500D01*
X157471962Y-94400500D01*
X157471962Y-94400499D01*
X157610053Y-94359953D01*
X157731128Y-94282143D01*
X157825377Y-94173373D01*
X157885165Y-94042457D01*
X157905647Y-93900000D01*
X157885165Y-93757543D01*
X157825377Y-93626627D01*
X157731128Y-93517857D01*
X157610053Y-93440047D01*
X157610051Y-93440046D01*
X157610049Y-93440045D01*
X157610050Y-93440045D01*
X157471963Y-93399500D01*
X157471961Y-93399500D01*
X157328039Y-93399500D01*
X157328036Y-93399500D01*
X157189949Y-93440045D01*
X157068873Y-93517856D01*
X156974623Y-93626626D01*
X156974622Y-93626628D01*
X156914834Y-93757543D01*
X156894353Y-93900000D01*
X139058980Y-93900000D01*
X139031128Y-93867857D01*
X138910053Y-93790047D01*
X138910051Y-93790046D01*
X138910049Y-93790045D01*
X138910050Y-93790045D01*
X138771963Y-93749500D01*
X138771961Y-93749500D01*
X138628039Y-93749500D01*
X138628036Y-93749500D01*
X138489949Y-93790045D01*
X138368873Y-93867856D01*
X138274623Y-93976626D01*
X138274622Y-93976628D01*
X138214834Y-94107543D01*
X138194353Y-94250000D01*
X118279844Y-94250000D01*
X118224968Y-94211575D01*
X118181344Y-94156998D01*
X118174151Y-94087499D01*
X118205673Y-94025145D01*
X118224968Y-94008425D01*
X118411082Y-93878105D01*
X118578105Y-93711082D01*
X118713600Y-93517578D01*
X118813429Y-93303492D01*
X118813432Y-93303486D01*
X118870636Y-93090000D01*
X117973012Y-93090000D01*
X118005925Y-93032993D01*
X118028163Y-92950000D01*
X174881853Y-92950000D01*
X174902334Y-93092456D01*
X174927247Y-93147007D01*
X174962123Y-93223373D01*
X175056372Y-93332143D01*
X175177447Y-93409953D01*
X175177450Y-93409954D01*
X175177449Y-93409954D01*
X175315536Y-93450499D01*
X175315538Y-93450500D01*
X175315539Y-93450500D01*
X175459462Y-93450500D01*
X175459462Y-93450499D01*
X175597553Y-93409953D01*
X175718628Y-93332143D01*
X175812877Y-93223373D01*
X175872665Y-93092457D01*
X175893147Y-92950000D01*
X175872665Y-92807543D01*
X175812877Y-92676627D01*
X175718628Y-92567857D01*
X175597553Y-92490047D01*
X175597551Y-92490046D01*
X175597549Y-92490045D01*
X175597550Y-92490045D01*
X175459463Y-92449500D01*
X175459461Y-92449500D01*
X175315539Y-92449500D01*
X175315536Y-92449500D01*
X175177449Y-92490045D01*
X175056373Y-92567856D01*
X174962123Y-92676626D01*
X174962122Y-92676628D01*
X174902334Y-92807543D01*
X174881853Y-92950000D01*
X118028163Y-92950000D01*
X118040000Y-92905826D01*
X118040000Y-92774174D01*
X118005925Y-92647007D01*
X117973012Y-92590000D01*
X118870636Y-92590000D01*
X118870635Y-92589999D01*
X118813432Y-92376513D01*
X118813429Y-92376507D01*
X118777753Y-92300000D01*
X183594353Y-92300000D01*
X183614834Y-92442456D01*
X183656182Y-92532993D01*
X183674623Y-92573373D01*
X183768872Y-92682143D01*
X183889947Y-92759953D01*
X183889950Y-92759954D01*
X183889949Y-92759954D01*
X184028036Y-92800499D01*
X184028038Y-92800500D01*
X184028039Y-92800500D01*
X184171962Y-92800500D01*
X184171962Y-92800499D01*
X184310053Y-92759953D01*
X184431128Y-92682143D01*
X184525377Y-92573373D01*
X184585165Y-92442457D01*
X184605647Y-92300000D01*
X184585165Y-92157543D01*
X184525377Y-92026627D01*
X184431128Y-91917857D01*
X184310053Y-91840047D01*
X184310051Y-91840046D01*
X184310049Y-91840045D01*
X184310050Y-91840045D01*
X184171963Y-91799500D01*
X184171961Y-91799500D01*
X184028039Y-91799500D01*
X184028036Y-91799500D01*
X183889949Y-91840045D01*
X183768873Y-91917856D01*
X183674623Y-92026626D01*
X183674622Y-92026628D01*
X183614834Y-92157543D01*
X183594353Y-92300000D01*
X118777753Y-92300000D01*
X118713600Y-92162422D01*
X118713599Y-92162420D01*
X118578113Y-91968926D01*
X118578108Y-91968920D01*
X118411082Y-91801894D01*
X118224968Y-91671575D01*
X118181344Y-91616998D01*
X118174151Y-91547499D01*
X118205673Y-91485145D01*
X118224968Y-91468425D01*
X118411082Y-91338105D01*
X118578105Y-91171082D01*
X118713600Y-90977578D01*
X118813429Y-90763492D01*
X118813432Y-90763486D01*
X118870636Y-90550000D01*
X117973012Y-90550000D01*
X118005925Y-90492993D01*
X118040000Y-90365826D01*
X118040000Y-90234174D01*
X118005925Y-90107007D01*
X117973012Y-90050000D01*
X118870636Y-90050000D01*
X118870635Y-90049999D01*
X118813432Y-89836513D01*
X118813429Y-89836507D01*
X118713600Y-89622422D01*
X118713599Y-89622420D01*
X118578113Y-89428926D01*
X118578108Y-89428920D01*
X118411082Y-89261894D01*
X118217578Y-89126399D01*
X118003492Y-89026570D01*
X118003486Y-89026567D01*
X117790000Y-88969364D01*
X117790000Y-89866988D01*
X117732993Y-89834075D01*
X117605826Y-89800000D01*
X117474174Y-89800000D01*
X117347007Y-89834075D01*
X117290000Y-89866988D01*
X117290000Y-88969364D01*
X117289999Y-88969364D01*
X117076513Y-89026567D01*
X117076507Y-89026570D01*
X116862422Y-89126399D01*
X116862420Y-89126400D01*
X116668926Y-89261886D01*
X116668920Y-89261891D01*
X116501891Y-89428920D01*
X116501886Y-89428926D01*
X116366400Y-89622420D01*
X116366399Y-89622422D01*
X116266570Y-89836507D01*
X116266567Y-89836513D01*
X116209364Y-90049999D01*
X116209364Y-90050000D01*
X117106988Y-90050000D01*
X117074075Y-90107007D01*
X117040000Y-90234174D01*
X117040000Y-90365826D01*
X117074075Y-90492993D01*
X117106988Y-90550000D01*
X116209364Y-90550000D01*
X116266567Y-90763486D01*
X116266570Y-90763492D01*
X116366399Y-90977578D01*
X116501894Y-91171082D01*
X116668917Y-91338105D01*
X116855031Y-91468425D01*
X116898656Y-91523003D01*
X116905848Y-91592501D01*
X116874326Y-91654856D01*
X116855031Y-91671575D01*
X116668922Y-91801890D01*
X116668920Y-91801891D01*
X116501891Y-91968920D01*
X116501886Y-91968926D01*
X116366400Y-92162420D01*
X116366399Y-92162422D01*
X116266570Y-92376507D01*
X116266567Y-92376513D01*
X116209364Y-92589999D01*
X116209364Y-92590000D01*
X117106988Y-92590000D01*
X117074075Y-92647007D01*
X117040000Y-92774174D01*
X117040000Y-92905826D01*
X117074075Y-93032993D01*
X117106988Y-93090000D01*
X116209364Y-93090000D01*
X116266567Y-93303486D01*
X116266570Y-93303492D01*
X116366399Y-93517578D01*
X116501894Y-93711082D01*
X116668917Y-93878105D01*
X116855031Y-94008425D01*
X116898656Y-94063003D01*
X116905848Y-94132501D01*
X116874326Y-94194856D01*
X116855031Y-94211575D01*
X116668922Y-94341890D01*
X116668920Y-94341891D01*
X116501891Y-94508920D01*
X116501886Y-94508926D01*
X116366400Y-94702420D01*
X116366399Y-94702422D01*
X116266570Y-94916507D01*
X116266567Y-94916513D01*
X116209364Y-95129999D01*
X116209364Y-95130000D01*
X117106988Y-95130000D01*
X117074075Y-95187007D01*
X117040000Y-95314174D01*
X117040000Y-95445826D01*
X117074075Y-95572993D01*
X117106988Y-95630000D01*
X116209364Y-95630000D01*
X116266567Y-95843486D01*
X116266570Y-95843492D01*
X116366399Y-96057578D01*
X116501894Y-96251082D01*
X116624334Y-96373522D01*
X116657819Y-96434845D01*
X116652835Y-96504537D01*
X116610963Y-96560470D01*
X116579987Y-96577385D01*
X116447911Y-96626646D01*
X116447906Y-96626649D01*
X116332812Y-96712809D01*
X116332809Y-96712812D01*
X116246649Y-96827906D01*
X116246645Y-96827913D01*
X116196403Y-96962620D01*
X116196401Y-96962627D01*
X116190000Y-97022155D01*
X110300500Y-97022155D01*
X110300500Y-95296228D01*
X114149500Y-95296228D01*
X114149500Y-95463771D01*
X114182182Y-95628074D01*
X114182184Y-95628082D01*
X114246295Y-95782860D01*
X114339373Y-95922162D01*
X114457837Y-96040626D01*
X114483208Y-96057578D01*
X114597137Y-96133703D01*
X114751918Y-96197816D01*
X114916228Y-96230499D01*
X114916232Y-96230500D01*
X114916233Y-96230500D01*
X115083768Y-96230500D01*
X115083769Y-96230499D01*
X115248082Y-96197816D01*
X115402863Y-96133703D01*
X115542162Y-96040626D01*
X115660626Y-95922162D01*
X115753703Y-95782863D01*
X115817816Y-95628082D01*
X115850500Y-95463767D01*
X115850500Y-95296233D01*
X115817816Y-95131918D01*
X115753703Y-94977137D01*
X115688798Y-94880000D01*
X115660626Y-94837837D01*
X115542162Y-94719373D01*
X115402860Y-94626295D01*
X115248082Y-94562184D01*
X115248074Y-94562182D01*
X115083771Y-94529500D01*
X115083767Y-94529500D01*
X114916233Y-94529500D01*
X114916228Y-94529500D01*
X114751925Y-94562182D01*
X114751917Y-94562184D01*
X114597139Y-94626295D01*
X114457837Y-94719373D01*
X114339373Y-94837837D01*
X114246295Y-94977139D01*
X114182184Y-95131917D01*
X114182182Y-95131925D01*
X114149500Y-95296228D01*
X110300500Y-95296228D01*
X110300500Y-92756228D01*
X114149500Y-92756228D01*
X114149500Y-92923771D01*
X114182182Y-93088074D01*
X114182184Y-93088082D01*
X114246295Y-93242860D01*
X114339373Y-93382162D01*
X114457837Y-93500626D01*
X114550494Y-93562537D01*
X114597137Y-93593703D01*
X114751918Y-93657816D01*
X114916228Y-93690499D01*
X114916232Y-93690500D01*
X114916233Y-93690500D01*
X115083768Y-93690500D01*
X115083769Y-93690499D01*
X115248082Y-93657816D01*
X115402863Y-93593703D01*
X115542162Y-93500626D01*
X115660626Y-93382162D01*
X115753703Y-93242863D01*
X115817816Y-93088082D01*
X115850500Y-92923767D01*
X115850500Y-92756233D01*
X115817816Y-92591918D01*
X115753703Y-92437137D01*
X115662071Y-92300000D01*
X115660626Y-92297837D01*
X115542162Y-92179373D01*
X115402860Y-92086295D01*
X115248082Y-92022184D01*
X115248074Y-92022182D01*
X115083771Y-91989500D01*
X115083767Y-91989500D01*
X114916233Y-91989500D01*
X114916228Y-91989500D01*
X114751925Y-92022182D01*
X114751917Y-92022184D01*
X114597139Y-92086295D01*
X114457837Y-92179373D01*
X114339373Y-92297837D01*
X114246295Y-92437139D01*
X114182184Y-92591917D01*
X114182182Y-92591925D01*
X114149500Y-92756228D01*
X110300500Y-92756228D01*
X110300500Y-90216228D01*
X114149500Y-90216228D01*
X114149500Y-90383771D01*
X114182182Y-90548074D01*
X114182184Y-90548082D01*
X114246295Y-90702860D01*
X114339373Y-90842162D01*
X114457837Y-90960626D01*
X114483208Y-90977578D01*
X114597137Y-91053703D01*
X114751918Y-91117816D01*
X114916228Y-91150499D01*
X114916232Y-91150500D01*
X114916233Y-91150500D01*
X115083768Y-91150500D01*
X115083769Y-91150499D01*
X115248082Y-91117816D01*
X115402863Y-91053703D01*
X115542162Y-90960626D01*
X115660626Y-90842162D01*
X115753703Y-90702863D01*
X115817816Y-90548082D01*
X115850500Y-90383767D01*
X115850500Y-90216233D01*
X115817816Y-90051918D01*
X115753703Y-89897137D01*
X115689132Y-89800500D01*
X115660626Y-89757837D01*
X115542162Y-89639373D01*
X115402860Y-89546295D01*
X115248082Y-89482184D01*
X115248074Y-89482182D01*
X115083771Y-89449500D01*
X115083767Y-89449500D01*
X114916233Y-89449500D01*
X114916228Y-89449500D01*
X114751925Y-89482182D01*
X114751917Y-89482184D01*
X114597139Y-89546295D01*
X114457837Y-89639373D01*
X114339373Y-89757837D01*
X114246295Y-89897139D01*
X114182184Y-90051917D01*
X114182182Y-90051925D01*
X114149500Y-90216228D01*
X110300500Y-90216228D01*
X110300500Y-88361304D01*
X122099500Y-88361304D01*
X122099500Y-88538695D01*
X122134103Y-88712658D01*
X122134106Y-88712667D01*
X122201983Y-88876540D01*
X122201990Y-88876553D01*
X122300535Y-89024034D01*
X122300538Y-89024038D01*
X122425961Y-89149461D01*
X122425965Y-89149464D01*
X122573446Y-89248009D01*
X122573459Y-89248016D01*
X122696363Y-89298923D01*
X122737334Y-89315894D01*
X122737336Y-89315894D01*
X122737341Y-89315896D01*
X122911304Y-89350499D01*
X122911307Y-89350500D01*
X122911309Y-89350500D01*
X123088693Y-89350500D01*
X123088694Y-89350499D01*
X123146682Y-89338964D01*
X123262658Y-89315896D01*
X123262661Y-89315894D01*
X123262666Y-89315894D01*
X123426547Y-89248013D01*
X123574035Y-89149464D01*
X123699464Y-89024035D01*
X123798013Y-88876547D01*
X123865894Y-88712666D01*
X123900500Y-88538691D01*
X123900500Y-88449999D01*
X124169939Y-88449999D01*
X124169939Y-88450000D01*
X124190145Y-88680958D01*
X124190147Y-88680968D01*
X124250148Y-88904900D01*
X124250152Y-88904909D01*
X124348133Y-89115030D01*
X124403023Y-89193422D01*
X124976212Y-88620233D01*
X124987482Y-88662292D01*
X125059890Y-88787708D01*
X125162292Y-88890110D01*
X125287708Y-88962518D01*
X125329765Y-88973787D01*
X124756576Y-89546975D01*
X124834969Y-89601867D01*
X125045090Y-89699847D01*
X125045099Y-89699851D01*
X125269031Y-89759852D01*
X125269041Y-89759854D01*
X125499999Y-89780061D01*
X125500001Y-89780061D01*
X125730958Y-89759854D01*
X125730968Y-89759852D01*
X125954344Y-89700000D01*
X154894353Y-89700000D01*
X154914834Y-89842456D01*
X154941069Y-89899901D01*
X154974623Y-89973373D01*
X155068872Y-90082143D01*
X155189947Y-90159953D01*
X155189950Y-90159954D01*
X155189949Y-90159954D01*
X155328036Y-90200499D01*
X155328038Y-90200500D01*
X155328039Y-90200500D01*
X155471962Y-90200500D01*
X155471962Y-90200499D01*
X155610053Y-90159953D01*
X155731128Y-90082143D01*
X155825377Y-89973373D01*
X155885165Y-89842457D01*
X155905647Y-89700000D01*
X155885165Y-89557543D01*
X155825377Y-89426627D01*
X155731128Y-89317857D01*
X155703342Y-89300000D01*
X174294353Y-89300000D01*
X174314834Y-89442456D01*
X174374622Y-89573371D01*
X174374623Y-89573373D01*
X174468872Y-89682143D01*
X174589947Y-89759953D01*
X174589950Y-89759954D01*
X174589949Y-89759954D01*
X174658429Y-89780061D01*
X174726336Y-89800000D01*
X174728036Y-89800499D01*
X174728038Y-89800500D01*
X174728039Y-89800500D01*
X174871962Y-89800500D01*
X174871962Y-89800499D01*
X175010053Y-89759953D01*
X175131128Y-89682143D01*
X175225377Y-89573373D01*
X175285165Y-89442457D01*
X175305647Y-89300000D01*
X175285165Y-89157543D01*
X175225377Y-89026627D01*
X175131128Y-88917857D01*
X175010053Y-88840047D01*
X175010051Y-88840046D01*
X175010049Y-88840045D01*
X175010050Y-88840045D01*
X174871963Y-88799500D01*
X174871961Y-88799500D01*
X174728039Y-88799500D01*
X174728036Y-88799500D01*
X174589949Y-88840045D01*
X174468873Y-88917856D01*
X174374623Y-89026626D01*
X174374622Y-89026628D01*
X174314834Y-89157543D01*
X174294353Y-89300000D01*
X155703342Y-89300000D01*
X155610053Y-89240047D01*
X155610051Y-89240046D01*
X155610049Y-89240045D01*
X155610050Y-89240045D01*
X155471963Y-89199500D01*
X155471961Y-89199500D01*
X155328039Y-89199500D01*
X155328036Y-89199500D01*
X155189949Y-89240045D01*
X155068873Y-89317856D01*
X154974623Y-89426626D01*
X154974622Y-89426628D01*
X154914834Y-89557543D01*
X154894353Y-89700000D01*
X125954344Y-89700000D01*
X125954900Y-89699851D01*
X125954909Y-89699847D01*
X126165030Y-89601867D01*
X126165034Y-89601865D01*
X126243422Y-89546976D01*
X126243422Y-89546975D01*
X125670235Y-88973787D01*
X125712292Y-88962518D01*
X125837708Y-88890110D01*
X125940110Y-88787708D01*
X126012518Y-88662292D01*
X126023787Y-88620234D01*
X126596975Y-89193422D01*
X126596976Y-89193422D01*
X126651865Y-89115034D01*
X126651867Y-89115030D01*
X126749847Y-88904909D01*
X126749851Y-88904900D01*
X126809852Y-88680968D01*
X126809854Y-88680958D01*
X126830061Y-88450000D01*
X126830061Y-88449999D01*
X126822301Y-88361304D01*
X127099500Y-88361304D01*
X127099500Y-88538695D01*
X127134103Y-88712658D01*
X127134106Y-88712667D01*
X127201983Y-88876540D01*
X127201990Y-88876553D01*
X127300535Y-89024034D01*
X127300538Y-89024038D01*
X127425961Y-89149461D01*
X127425965Y-89149464D01*
X127573446Y-89248009D01*
X127573459Y-89248016D01*
X127696363Y-89298923D01*
X127737334Y-89315894D01*
X127737336Y-89315894D01*
X127737341Y-89315896D01*
X127911304Y-89350499D01*
X127911307Y-89350500D01*
X127911309Y-89350500D01*
X128088693Y-89350500D01*
X128088694Y-89350499D01*
X128146682Y-89338964D01*
X128262658Y-89315896D01*
X128262661Y-89315894D01*
X128262666Y-89315894D01*
X128426547Y-89248013D01*
X128574035Y-89149464D01*
X128699464Y-89024035D01*
X128798013Y-88876547D01*
X128865894Y-88712666D01*
X128900500Y-88538691D01*
X128900500Y-88361309D01*
X128900500Y-88361306D01*
X128900499Y-88361304D01*
X128865896Y-88187341D01*
X128865893Y-88187332D01*
X128798016Y-88023459D01*
X128798009Y-88023446D01*
X128699464Y-87875965D01*
X128699461Y-87875961D01*
X128574038Y-87750538D01*
X128574034Y-87750535D01*
X128426553Y-87651990D01*
X128426540Y-87651983D01*
X128262667Y-87584106D01*
X128262658Y-87584103D01*
X128088694Y-87549500D01*
X128088691Y-87549500D01*
X127911309Y-87549500D01*
X127911306Y-87549500D01*
X127737341Y-87584103D01*
X127737332Y-87584106D01*
X127573459Y-87651983D01*
X127573446Y-87651990D01*
X127425965Y-87750535D01*
X127425961Y-87750538D01*
X127300538Y-87875961D01*
X127300535Y-87875965D01*
X127201990Y-88023446D01*
X127201983Y-88023459D01*
X127134106Y-88187332D01*
X127134103Y-88187341D01*
X127099500Y-88361304D01*
X126822301Y-88361304D01*
X126809854Y-88219041D01*
X126809852Y-88219031D01*
X126749851Y-87995099D01*
X126749847Y-87995090D01*
X126651867Y-87784971D01*
X126651866Y-87784969D01*
X126596975Y-87706577D01*
X126596975Y-87706576D01*
X126023787Y-88279764D01*
X126012518Y-88237708D01*
X125940110Y-88112292D01*
X125837708Y-88009890D01*
X125712292Y-87937482D01*
X125670234Y-87926212D01*
X126243422Y-87353023D01*
X126167696Y-87300000D01*
X156794353Y-87300000D01*
X156814834Y-87442456D01*
X156863720Y-87549500D01*
X156874623Y-87573373D01*
X156968872Y-87682143D01*
X157089947Y-87759953D01*
X157089950Y-87759954D01*
X157089949Y-87759954D01*
X157228036Y-87800499D01*
X157228038Y-87800500D01*
X157228039Y-87800500D01*
X157371962Y-87800500D01*
X157371962Y-87800499D01*
X157510053Y-87759953D01*
X157631128Y-87682143D01*
X157725377Y-87573373D01*
X157785165Y-87442457D01*
X157805647Y-87300000D01*
X157785165Y-87157543D01*
X157725377Y-87026627D01*
X157631128Y-86917857D01*
X157510053Y-86840047D01*
X157510051Y-86840046D01*
X157510049Y-86840045D01*
X157510050Y-86840045D01*
X157371963Y-86799500D01*
X157371961Y-86799500D01*
X157228039Y-86799500D01*
X157228036Y-86799500D01*
X157089949Y-86840045D01*
X156968873Y-86917856D01*
X156874623Y-87026626D01*
X156874622Y-87026628D01*
X156814834Y-87157543D01*
X156794353Y-87300000D01*
X126167696Y-87300000D01*
X126165030Y-87298133D01*
X125954909Y-87200152D01*
X125954900Y-87200148D01*
X125730968Y-87140147D01*
X125730958Y-87140145D01*
X125500001Y-87119939D01*
X125499999Y-87119939D01*
X125269041Y-87140145D01*
X125269031Y-87140147D01*
X125045099Y-87200148D01*
X125045090Y-87200152D01*
X124834967Y-87298134D01*
X124756576Y-87353022D01*
X125329766Y-87926212D01*
X125287708Y-87937482D01*
X125162292Y-88009890D01*
X125059890Y-88112292D01*
X124987482Y-88237708D01*
X124976212Y-88279766D01*
X124403022Y-87706576D01*
X124348134Y-87784967D01*
X124250152Y-87995090D01*
X124250148Y-87995099D01*
X124190147Y-88219031D01*
X124190145Y-88219041D01*
X124169939Y-88449999D01*
X123900500Y-88449999D01*
X123900500Y-88361309D01*
X123900500Y-88361306D01*
X123900499Y-88361304D01*
X123865896Y-88187341D01*
X123865893Y-88187332D01*
X123798016Y-88023459D01*
X123798009Y-88023446D01*
X123699464Y-87875965D01*
X123699461Y-87875961D01*
X123574038Y-87750538D01*
X123574034Y-87750535D01*
X123426553Y-87651990D01*
X123426540Y-87651983D01*
X123262667Y-87584106D01*
X123262658Y-87584103D01*
X123088694Y-87549500D01*
X123088691Y-87549500D01*
X122911309Y-87549500D01*
X122911306Y-87549500D01*
X122737341Y-87584103D01*
X122737332Y-87584106D01*
X122573459Y-87651983D01*
X122573446Y-87651990D01*
X122425965Y-87750535D01*
X122425961Y-87750538D01*
X122300538Y-87875961D01*
X122300535Y-87875965D01*
X122201990Y-88023446D01*
X122201983Y-88023459D01*
X122134106Y-88187332D01*
X122134103Y-88187341D01*
X122099500Y-88361304D01*
X110300500Y-88361304D01*
X110300500Y-85356102D01*
X110320185Y-85289063D01*
X110372989Y-85243308D01*
X110442147Y-85233364D01*
X110505703Y-85262389D01*
X110540264Y-85311664D01*
X110615244Y-85506994D01*
X110791310Y-85852543D01*
X111002531Y-86177793D01*
X111211095Y-86435350D01*
X111211096Y-86435350D01*
X112705748Y-84940698D01*
X112779588Y-85042330D01*
X112957670Y-85220412D01*
X113059300Y-85294251D01*
X111564648Y-86788903D01*
X111564649Y-86788904D01*
X111822206Y-86997468D01*
X112147456Y-87208689D01*
X112493005Y-87384755D01*
X112855063Y-87523737D01*
X113229669Y-87624112D01*
X113229676Y-87624113D01*
X113612712Y-87684780D01*
X113999999Y-87705078D01*
X114000001Y-87705078D01*
X114387287Y-87684780D01*
X114770323Y-87624113D01*
X114770330Y-87624112D01*
X115144936Y-87523737D01*
X115506994Y-87384755D01*
X115852543Y-87208689D01*
X116177783Y-86997476D01*
X116177785Y-86997475D01*
X116435349Y-86788902D01*
X114940698Y-85294251D01*
X115042330Y-85220412D01*
X115220412Y-85042330D01*
X115294251Y-84940698D01*
X116788902Y-86435349D01*
X116997475Y-86177785D01*
X116997476Y-86177783D01*
X117208689Y-85852543D01*
X117384755Y-85506994D01*
X117523737Y-85144936D01*
X117624112Y-84770330D01*
X117624113Y-84770323D01*
X117684780Y-84387287D01*
X117705078Y-84000000D01*
X117705078Y-83999999D01*
X117684780Y-83612712D01*
X117624113Y-83229676D01*
X117624112Y-83229669D01*
X117523737Y-82855063D01*
X117384755Y-82493005D01*
X117208689Y-82147456D01*
X116997468Y-81822206D01*
X116788904Y-81564649D01*
X116788903Y-81564648D01*
X115294251Y-83059300D01*
X115220412Y-82957670D01*
X115042330Y-82779588D01*
X114940698Y-82705748D01*
X116435350Y-81211096D01*
X116435350Y-81211095D01*
X116177793Y-81002531D01*
X115852543Y-80791310D01*
X115506994Y-80615244D01*
X115311664Y-80540264D01*
X115256132Y-80497862D01*
X115232339Y-80432168D01*
X115247841Y-80364040D01*
X115297714Y-80315107D01*
X115356102Y-80300500D01*
X204643898Y-80300500D01*
X204710937Y-80320185D01*
G37*
G04 #@! TD.AperFunction*
G04 #@! TA.AperFunction,Conductor*
G36*
X112779588Y-127042330D02*
G01*
X112957670Y-127220412D01*
X113059300Y-127294251D01*
X111564648Y-128788903D01*
X111564649Y-128788904D01*
X111822206Y-128997468D01*
X112147458Y-129208691D01*
X112147461Y-129208692D01*
X112350741Y-129312268D01*
X112401538Y-129360242D01*
X112418333Y-129428063D01*
X112395796Y-129494198D01*
X112341081Y-129537650D01*
X112271560Y-129544623D01*
X112260120Y-129541907D01*
X112249047Y-129538717D01*
X112235921Y-129534124D01*
X111948388Y-129415024D01*
X111935860Y-129408991D01*
X111771399Y-129318097D01*
X111663457Y-129258439D01*
X111651692Y-129251046D01*
X111397872Y-129070951D01*
X111387004Y-129062285D01*
X111154936Y-128854896D01*
X111145103Y-128845063D01*
X111094916Y-128788904D01*
X110937709Y-128612989D01*
X110929050Y-128602129D01*
X110748950Y-128348303D01*
X110741563Y-128336547D01*
X110591004Y-128064132D01*
X110584978Y-128051618D01*
X110465874Y-127764077D01*
X110461282Y-127750952D01*
X110458092Y-127739879D01*
X110458449Y-127670010D01*
X110496523Y-127611426D01*
X110560226Y-127582726D01*
X110629333Y-127593022D01*
X110681902Y-127639046D01*
X110687731Y-127649257D01*
X110791310Y-127852543D01*
X111002531Y-128177793D01*
X111211095Y-128435350D01*
X111211096Y-128435350D01*
X112705748Y-126940698D01*
X112779588Y-127042330D01*
G37*
G04 #@! TD.AperFunction*
G04 #@! TA.AperFunction,Conductor*
G36*
X208788902Y-128435349D02*
G01*
X208997475Y-128177785D01*
X208997476Y-128177783D01*
X209208691Y-127852541D01*
X209208692Y-127852538D01*
X209312268Y-127649258D01*
X209360242Y-127598462D01*
X209428063Y-127581666D01*
X209494198Y-127604203D01*
X209537650Y-127658918D01*
X209544623Y-127728439D01*
X209541907Y-127739879D01*
X209538717Y-127750952D01*
X209534124Y-127764078D01*
X209415024Y-128051611D01*
X209408991Y-128064139D01*
X209258442Y-128336538D01*
X209251043Y-128348312D01*
X209070954Y-128602123D01*
X209062285Y-128612995D01*
X208854896Y-128845063D01*
X208845063Y-128854896D01*
X208612995Y-129062285D01*
X208602123Y-129070954D01*
X208348312Y-129251043D01*
X208336538Y-129258442D01*
X208064139Y-129408991D01*
X208051611Y-129415024D01*
X207764078Y-129534124D01*
X207750952Y-129538717D01*
X207739879Y-129541907D01*
X207670010Y-129541550D01*
X207611426Y-129503476D01*
X207582726Y-129439773D01*
X207593022Y-129370666D01*
X207639046Y-129318097D01*
X207649258Y-129312268D01*
X207852538Y-129208692D01*
X207852541Y-129208691D01*
X208177783Y-128997476D01*
X208177785Y-128997475D01*
X208435349Y-128788902D01*
X206940698Y-127294251D01*
X207042330Y-127220412D01*
X207220412Y-127042330D01*
X207294251Y-126940698D01*
X208788902Y-128435349D01*
G37*
G04 #@! TD.AperFunction*
G04 #@! TA.AperFunction,Conductor*
G36*
X112329989Y-80458449D02*
G01*
X112388573Y-80496523D01*
X112417273Y-80560226D01*
X112406977Y-80629333D01*
X112360953Y-80681902D01*
X112350742Y-80687731D01*
X112147456Y-80791310D01*
X111822206Y-81002531D01*
X111564648Y-81211095D01*
X111564648Y-81211096D01*
X113059301Y-82705748D01*
X112957670Y-82779588D01*
X112779588Y-82957670D01*
X112705748Y-83059300D01*
X111211096Y-81564648D01*
X111211095Y-81564648D01*
X111002531Y-81822206D01*
X110791310Y-82147456D01*
X110687731Y-82350742D01*
X110639756Y-82401538D01*
X110571935Y-82418333D01*
X110505801Y-82395796D01*
X110462349Y-82341081D01*
X110455377Y-82271560D01*
X110458092Y-82260120D01*
X110461282Y-82249047D01*
X110465875Y-82235921D01*
X110465876Y-82235919D01*
X110584981Y-81948374D01*
X110591008Y-81935861D01*
X110741567Y-81663443D01*
X110748944Y-81651704D01*
X110929056Y-81397861D01*
X110937702Y-81387018D01*
X111145113Y-81154925D01*
X111154925Y-81145113D01*
X111387018Y-80937702D01*
X111397861Y-80929056D01*
X111651704Y-80748944D01*
X111663443Y-80741567D01*
X111935874Y-80591001D01*
X111948374Y-80584981D01*
X112235928Y-80465872D01*
X112249040Y-80461284D01*
X112260121Y-80458092D01*
X112329989Y-80458449D01*
G37*
G04 #@! TD.AperFunction*
G04 #@! TA.AperFunction,Conductor*
G36*
X207739892Y-80458097D02*
G01*
X207750962Y-80461287D01*
X207764081Y-80465877D01*
X208051617Y-80584979D01*
X208064131Y-80591005D01*
X208277088Y-80708702D01*
X208336530Y-80741555D01*
X208348304Y-80748953D01*
X208408001Y-80791310D01*
X208602137Y-80929056D01*
X208613005Y-80937724D01*
X208845062Y-81145105D01*
X208854894Y-81154937D01*
X209062275Y-81386994D01*
X209070946Y-81397866D01*
X209251046Y-81651695D01*
X209258444Y-81663469D01*
X209408990Y-81935861D01*
X209415023Y-81948389D01*
X209534122Y-82235919D01*
X209538712Y-82249037D01*
X209541902Y-82260107D01*
X209541551Y-82329975D01*
X209503481Y-82388563D01*
X209439780Y-82417267D01*
X209370672Y-82406976D01*
X209318099Y-82360955D01*
X209312266Y-82350737D01*
X209208689Y-82147456D01*
X208997468Y-81822206D01*
X208788904Y-81564649D01*
X208788903Y-81564648D01*
X207294251Y-83059300D01*
X207220412Y-82957670D01*
X207042330Y-82779588D01*
X206940698Y-82705748D01*
X208435350Y-81211096D01*
X208435350Y-81211095D01*
X208177793Y-81002531D01*
X207852543Y-80791310D01*
X207649262Y-80687733D01*
X207598466Y-80639758D01*
X207581671Y-80571937D01*
X207604208Y-80505802D01*
X207658923Y-80462351D01*
X207728444Y-80455379D01*
X207739892Y-80458097D01*
G37*
G04 #@! TD.AperFunction*
M02*
