M48
; DRILL file {KiCad 8.0.6} date 2026-01-19T16:18:03-0800
; FORMAT={-:-/ absolute / metric / decimal}
; #@! TF.CreationDate,2026-01-19T16:18:03-08:00
; #@! TF.GenerationSoftware,Kicad,Pcbnew,8.0.6
; #@! TF.FileFunction,Plated,1,4,PTH
FMAT,2
METRIC
; #@! TA.AperFunction,Plated,PTH,ViaDrill
T1C0.300
; #@! TA.AperFunction,Plated,PTH,ComponentDrill
T2C0.600
; #@! TA.AperFunction,Plated,PTH,ComponentDrill
T3C1.000
; #@! TA.AperFunction,Plated,PTH,ComponentDrill
T4C1.100
; #@! TA.AperFunction,Plated,PTH,ComponentDrill
T5C3.200
%
G90
G05
T1
X119.8Y-118.7
X119.8Y-120.3
X120.1Y-112.1
X120.2Y-122.1
X120.4Y-115.6
X120.5Y-94.3
X121.5Y-111.0
X121.6Y-120.8
X122.7Y-122.1
X123.4Y-94.3
X124.0Y-120.8
X125.35Y-122.0
X125.8Y-94.3
X126.3Y-123.9
X126.5Y-115.6
X126.6Y-118.8
X127.4Y-122.0
X127.8Y-112.7
X129.6Y-112.7
X130.1Y-117.2
X130.1Y-119.3
X131.6Y-112.7
X132.8Y-112.7
X132.8Y-119.2
X132.9Y-117.2
X134.1Y-112.6
X135.2Y-86.5
X135.4Y-111.4
X135.4Y-112.6
X135.4Y-117.2
X135.4Y-119.2
X136.4Y-89.6
X136.6Y-112.6
X136.8Y-94.3
X136.9Y-98.8
X136.9Y-100.2
X137.5Y-87.9
X138.1Y-112.6
X138.2Y-86.3
X138.2Y-117.1
X138.2Y-119.2
X138.4Y-99.6
X138.7Y-94.25
X138.8Y-89.6
X139.2Y-92.6
X139.6Y-100.5
X139.7Y-112.9
X140.3Y-94.1
X140.9Y-111.8
X141.5Y-100.5
X142.2Y-117.1
X142.3Y-118.9
X142.5Y-109.5
X143.8Y-117.0
X144.1Y-109.5
X144.2Y-112.0
X145.5Y-109.5
X145.8Y-117.0
X145.8Y-118.6
X145.9Y-111.6
X147.0Y-100.3
X147.1Y-112.6
X147.9Y-117.0
X148.6Y-98.6
X149.3Y-101.4
X149.6Y-99.8
X149.6Y-116.1
X150.5Y-81.25
X150.6Y-115.1
X150.7Y-102.4
X151.35Y-100.6
X151.5Y-106.5
X151.6Y-111.9
X152.6Y-113.0
X152.7Y-81.2
X152.7Y-99.0
X152.7Y-104.7
X153.7Y-89.7
X153.8Y-92.3
X154.1Y-103.2
X154.2Y-87.3
X154.3Y-98.5
X154.4Y-100.3
X155.0Y-81.15
X155.4Y-88.3
X155.4Y-89.7
X155.6Y-93.6
X155.7Y-86.2
X155.8Y-106.5
X156.9Y-118.4
X157.1Y-102.7
X157.1Y-105.0
X157.2Y-81.15
X157.3Y-87.3
X157.4Y-93.9
X157.5Y-121.6
X157.6Y-123.6
X158.4Y-117.0
X158.8Y-105.0
X158.8Y-106.5
X158.9Y-87.2
X159.0Y-99.0
X159.15Y-93.7
X159.4Y-81.15
X160.1Y-117.0
X160.6Y-115.7
X160.7Y-102.8
X160.7Y-105.0
X160.8Y-99.05
X161.65Y-81.15
X162.0Y-106.3
X164.0Y-81.15
X166.1Y-107.6
X166.2Y-81.15
X167.25Y-105.45
X167.4Y-108.4
X167.6Y-117.1
X167.8Y-110.8
X168.0Y-102.8
X168.0Y-124.1
X168.3Y-81.15
X169.0Y-98.4
X169.3Y-125.4
X169.4Y-103.7
X169.8Y-105.3
X170.5Y-98.4
X170.6Y-126.3
X170.75Y-81.1
X171.05Y-103.7
X171.4Y-97.3
X171.588Y-95.9
X171.6Y-105.3
X172.8Y-103.9
X172.987Y-95.9
X173.0Y-111.2
X173.0Y-112.7
X173.1Y-118.7
X173.25Y-81.1
X174.4Y-119.7
X174.7Y-95.9
X174.7Y-103.8
X174.8Y-89.3
X175.237Y-94.55
X175.387Y-92.95
X175.6Y-121.0
X175.65Y-81.1
X176.4Y-88.3
X176.4Y-90.3
X176.7Y-117.8
X176.75Y-119.55
X176.8Y-103.65
X176.8Y-105.1
X176.9Y-115.7
X177.3Y-121.6
X177.338Y-92.7
X177.95Y-81.1
X178.5Y-120.6
X178.6Y-112.4
X179.5Y-121.7
X180.35Y-81.1
X180.8Y-120.6
X181.15Y-124.15
X181.9Y-121.6
X182.1Y-88.8
X182.1Y-90.6
X182.15Y-92.3
X182.4Y-114.2
X182.9Y-81.1
X183.7Y-121.6
X183.9Y-123.9
X184.1Y-92.3
X184.2Y-126.4
X184.5Y-114.2
X185.0Y-122.7
X185.25Y-81.1
X185.6Y-124.3
X185.8Y-117.7
X185.9Y-88.7
X186.0Y-90.5
X186.0Y-92.3
X187.4Y-126.2
X187.8Y-81.1
X188.8Y-124.5
X189.25Y-105.75
X190.2Y-126.1
X190.25Y-81.15
X191.0Y-104.0
X191.0Y-110.65
X191.1Y-124.4
X191.75Y-112.05
X192.5Y-81.1
X192.85Y-110.6
X192.9Y-123.1
X192.9Y-124.4
X193.0Y-112.5
X193.5Y-85.8
X193.5Y-89.2
X193.5Y-126.1
X193.9Y-92.4
X194.1Y-101.4
X194.45Y-112.45
X194.6Y-118.4
X194.6Y-124.4
X194.8Y-105.5
X195.0Y-97.7
X195.0Y-99.7
X195.2Y-90.7
X195.2Y-122.1
X195.3Y-81.8
X195.3Y-87.4
X195.9Y-115.05
X196.1Y-103.1
X196.3Y-125.1
X196.6Y-107.1
X196.8Y-118.4
X196.9Y-115.95
X196.9Y-120.6
X196.95Y-114.15
X197.0Y-89.3
X197.0Y-92.4
X197.4Y-81.0
X197.5Y-83.1
X197.9Y-85.3
X197.9Y-103.1
X197.9Y-105.9
X198.1Y-97.5
X198.2Y-115.0
X198.25Y-110.8
X198.3Y-123.3
X198.7Y-119.4
X198.8Y-117.6
X199.2Y-91.0
X199.6Y-81.7
X199.7Y-103.1
X199.8Y-83.8
X199.9Y-93.2
X199.9Y-107.2
X200.0Y-85.7
X200.1Y-94.6
X200.1Y-97.5
X200.1Y-110.2
X200.1Y-121.5
X200.3Y-96.0
X200.5Y-87.7
X201.0Y-113.7
X201.4Y-111.6
X201.4Y-116.1
X201.4Y-118.0
X201.4Y-119.8
X201.5Y-103.1
X201.5Y-105.9
X201.5Y-108.3
X201.6Y-100.1
X201.7Y-82.3
X201.8Y-101.7
X201.9Y-110.1
X202.0Y-86.2
X202.1Y-113.0
X202.6Y-88.1
X203.2Y-93.3
X203.3Y-90.0
X203.4Y-96.4
X203.4Y-99.3
X203.4Y-101.2
X203.4Y-103.1
X203.5Y-106.0
X203.5Y-107.9
X203.5Y-109.7
X203.6Y-111.7
X203.9Y-116.8
X204.0Y-114.9
X204.4Y-88.4
X204.5Y-91.7
X204.6Y-94.9
X204.6Y-97.9
X204.8Y-110.8
X204.8Y-113.4
X205.0Y-119.8
X205.5Y-116.6
X205.7Y-90.0
X205.7Y-93.3
X205.8Y-96.4
X205.9Y-99.3
X206.0Y-121.5
X206.1Y-109.7
X206.1Y-112.2
X206.1Y-114.9
X206.1Y-118.2
X206.8Y-91.7
X206.9Y-88.4
X206.9Y-94.8
X206.9Y-97.8
X207.2Y-110.9
X207.3Y-119.8
X207.4Y-113.5
X207.4Y-116.6
X208.0Y-89.9
X208.1Y-93.2
X208.1Y-96.4
X208.1Y-99.3
X208.2Y-109.7
X208.4Y-112.2
X208.4Y-121.4
X208.5Y-115.0
X208.5Y-118.2
X208.9Y-87.6
T3
X115.0Y-90.3
X115.0Y-92.84
X115.0Y-95.38
X115.0Y-97.92
X117.54Y-90.3
X117.54Y-92.84
X117.54Y-95.38
X117.54Y-97.92
X125.66Y-101.3
X128.2Y-101.3
X130.28Y-122.4
X130.28Y-124.94
X130.74Y-101.3
X132.82Y-122.4
X132.82Y-124.94
X135.36Y-122.4
X135.36Y-124.94
X137.9Y-122.4
X137.9Y-124.94
X140.44Y-122.4
X140.44Y-124.94
X146.82Y-122.4
X146.82Y-124.94
X149.36Y-122.4
X149.36Y-124.94
X151.9Y-122.4
X151.9Y-124.94
X155.16Y-112.7
X157.7Y-112.7
X160.24Y-112.7
X160.5Y-122.4
X160.5Y-124.94
X163.04Y-122.4
X163.04Y-124.94
X165.58Y-122.4
X165.58Y-124.94
T4
X123.0Y-88.45
X125.5Y-88.45
X128.0Y-88.45
T5
X114.0Y-84.0
X114.0Y-126.0
X206.0Y-84.0
X206.0Y-126.0
T2
X112.9Y-111.36G85X112.3Y-111.36
G05
X112.9Y-120.0G85X112.3Y-120.0
G05
X117.33Y-111.36G85X116.23Y-111.36
G05
X117.33Y-120.0G85X116.23Y-120.0
G05
M30
