%TF.GenerationSoftware,KiCad,Pcbnew,8.0.6*%
%TF.CreationDate,2025-12-15T22:17:45-08:00*%
%TF.ProjectId,Bluetooth_Board,426c7565-746f-46f7-9468-5f426f617264,B*%
%TF.SameCoordinates,PX5f5e100PY7270e00*%
%TF.FileFunction,Legend,Bot*%
%TF.FilePolarity,Positive*%
%FSLAX46Y46*%
G04 Gerber Fmt 4.6, Leading zero omitted, Abs format (unit mm)*
G04 Created by KiCad (PCBNEW 8.0.6) date 2025-12-15 22:17:45*
%MOMM*%
%LPD*%
G01*
G04 APERTURE LIST*
%ADD10C,0.100000*%
%ADD11C,0.153000*%
%ADD12C,0.000000*%
G04 APERTURE END LIST*
D10*
X1400000Y33200000D02*
X3200000Y33200000D01*
X3200000Y41300000D02*
X3200000Y30400000D01*
X1400000Y35900000D02*
X3200000Y35900000D01*
X1400000Y41300000D02*
X3200000Y41300000D01*
X3200000Y30400000D02*
X1400000Y30400000D01*
X1400000Y38700000D02*
X3200000Y38700000D01*
X1400000Y30400000D02*
X1400000Y41300000D01*
D11*
X2707044Y40828572D02*
X2754663Y40685715D01*
X2754663Y40685715D02*
X2754663Y40447620D01*
X2754663Y40447620D02*
X2707044Y40352382D01*
X2707044Y40352382D02*
X2659424Y40304763D01*
X2659424Y40304763D02*
X2564186Y40257144D01*
X2564186Y40257144D02*
X2468948Y40257144D01*
X2468948Y40257144D02*
X2373710Y40304763D01*
X2373710Y40304763D02*
X2326091Y40352382D01*
X2326091Y40352382D02*
X2278472Y40447620D01*
X2278472Y40447620D02*
X2230853Y40638096D01*
X2230853Y40638096D02*
X2183234Y40733334D01*
X2183234Y40733334D02*
X2135615Y40780953D01*
X2135615Y40780953D02*
X2040377Y40828572D01*
X2040377Y40828572D02*
X1945139Y40828572D01*
X1945139Y40828572D02*
X1849901Y40780953D01*
X1849901Y40780953D02*
X1802282Y40733334D01*
X1802282Y40733334D02*
X1754663Y40638096D01*
X1754663Y40638096D02*
X1754663Y40400001D01*
X1754663Y40400001D02*
X1802282Y40257144D01*
X2754663Y39828572D02*
X1754663Y39828572D01*
X1754663Y39828572D02*
X1754663Y39590477D01*
X1754663Y39590477D02*
X1802282Y39447620D01*
X1802282Y39447620D02*
X1897520Y39352382D01*
X1897520Y39352382D02*
X1992758Y39304763D01*
X1992758Y39304763D02*
X2183234Y39257144D01*
X2183234Y39257144D02*
X2326091Y39257144D01*
X2326091Y39257144D02*
X2516567Y39304763D01*
X2516567Y39304763D02*
X2611805Y39352382D01*
X2611805Y39352382D02*
X2707044Y39447620D01*
X2707044Y39447620D02*
X2754663Y39590477D01*
X2754663Y39590477D02*
X2754663Y39828572D01*
X2754663Y38066667D02*
X1754663Y38066667D01*
X1754663Y38066667D02*
X2754663Y37495239D01*
X2754663Y37495239D02*
X1754663Y37495239D01*
X2754663Y36447620D02*
X2278472Y36780953D01*
X2754663Y37019048D02*
X1754663Y37019048D01*
X1754663Y37019048D02*
X1754663Y36638096D01*
X1754663Y36638096D02*
X1802282Y36542858D01*
X1802282Y36542858D02*
X1849901Y36495239D01*
X1849901Y36495239D02*
X1945139Y36447620D01*
X1945139Y36447620D02*
X2087996Y36447620D01*
X2087996Y36447620D02*
X2183234Y36495239D01*
X2183234Y36495239D02*
X2230853Y36542858D01*
X2230853Y36542858D02*
X2278472Y36638096D01*
X2278472Y36638096D02*
X2278472Y37019048D01*
X2707044Y35304762D02*
X2754663Y35161905D01*
X2754663Y35161905D02*
X2754663Y34923810D01*
X2754663Y34923810D02*
X2707044Y34828572D01*
X2707044Y34828572D02*
X2659424Y34780953D01*
X2659424Y34780953D02*
X2564186Y34733334D01*
X2564186Y34733334D02*
X2468948Y34733334D01*
X2468948Y34733334D02*
X2373710Y34780953D01*
X2373710Y34780953D02*
X2326091Y34828572D01*
X2326091Y34828572D02*
X2278472Y34923810D01*
X2278472Y34923810D02*
X2230853Y35114286D01*
X2230853Y35114286D02*
X2183234Y35209524D01*
X2183234Y35209524D02*
X2135615Y35257143D01*
X2135615Y35257143D02*
X2040377Y35304762D01*
X2040377Y35304762D02*
X1945139Y35304762D01*
X1945139Y35304762D02*
X1849901Y35257143D01*
X1849901Y35257143D02*
X1802282Y35209524D01*
X1802282Y35209524D02*
X1754663Y35114286D01*
X1754663Y35114286D02*
X1754663Y34876191D01*
X1754663Y34876191D02*
X1802282Y34733334D01*
X1754663Y34114286D02*
X1754663Y33923810D01*
X1754663Y33923810D02*
X1802282Y33828572D01*
X1802282Y33828572D02*
X1897520Y33733334D01*
X1897520Y33733334D02*
X2087996Y33685715D01*
X2087996Y33685715D02*
X2421329Y33685715D01*
X2421329Y33685715D02*
X2611805Y33733334D01*
X2611805Y33733334D02*
X2707044Y33828572D01*
X2707044Y33828572D02*
X2754663Y33923810D01*
X2754663Y33923810D02*
X2754663Y34114286D01*
X2754663Y34114286D02*
X2707044Y34209524D01*
X2707044Y34209524D02*
X2611805Y34304762D01*
X2611805Y34304762D02*
X2421329Y34352381D01*
X2421329Y34352381D02*
X2087996Y34352381D01*
X2087996Y34352381D02*
X1897520Y34304762D01*
X1897520Y34304762D02*
X1802282Y34209524D01*
X1802282Y34209524D02*
X1754663Y34114286D01*
X2707044Y32542857D02*
X2754663Y32400000D01*
X2754663Y32400000D02*
X2754663Y32161905D01*
X2754663Y32161905D02*
X2707044Y32066667D01*
X2707044Y32066667D02*
X2659424Y32019048D01*
X2659424Y32019048D02*
X2564186Y31971429D01*
X2564186Y31971429D02*
X2468948Y31971429D01*
X2468948Y31971429D02*
X2373710Y32019048D01*
X2373710Y32019048D02*
X2326091Y32066667D01*
X2326091Y32066667D02*
X2278472Y32161905D01*
X2278472Y32161905D02*
X2230853Y32352381D01*
X2230853Y32352381D02*
X2183234Y32447619D01*
X2183234Y32447619D02*
X2135615Y32495238D01*
X2135615Y32495238D02*
X2040377Y32542857D01*
X2040377Y32542857D02*
X1945139Y32542857D01*
X1945139Y32542857D02*
X1849901Y32495238D01*
X1849901Y32495238D02*
X1802282Y32447619D01*
X1802282Y32447619D02*
X1754663Y32352381D01*
X1754663Y32352381D02*
X1754663Y32114286D01*
X1754663Y32114286D02*
X1802282Y31971429D01*
X2659424Y30971429D02*
X2707044Y31019048D01*
X2707044Y31019048D02*
X2754663Y31161905D01*
X2754663Y31161905D02*
X2754663Y31257143D01*
X2754663Y31257143D02*
X2707044Y31400000D01*
X2707044Y31400000D02*
X2611805Y31495238D01*
X2611805Y31495238D02*
X2516567Y31542857D01*
X2516567Y31542857D02*
X2326091Y31590476D01*
X2326091Y31590476D02*
X2183234Y31590476D01*
X2183234Y31590476D02*
X1992758Y31542857D01*
X1992758Y31542857D02*
X1897520Y31495238D01*
X1897520Y31495238D02*
X1802282Y31400000D01*
X1802282Y31400000D02*
X1754663Y31257143D01*
X1754663Y31257143D02*
X1754663Y31161905D01*
X1754663Y31161905D02*
X1802282Y31019048D01*
X1802282Y31019048D02*
X1849901Y30971429D01*
X75827914Y40394007D02*
X75685057Y40346388D01*
X75685057Y40346388D02*
X75637438Y40298769D01*
X75637438Y40298769D02*
X75589819Y40203531D01*
X75589819Y40203531D02*
X75589819Y40060674D01*
X75589819Y40060674D02*
X75637438Y39965436D01*
X75637438Y39965436D02*
X75685057Y39917816D01*
X75685057Y39917816D02*
X75780295Y39870197D01*
X75780295Y39870197D02*
X76161247Y39870197D01*
X76161247Y39870197D02*
X76161247Y40870197D01*
X76161247Y40870197D02*
X75827914Y40870197D01*
X75827914Y40870197D02*
X75732676Y40822578D01*
X75732676Y40822578D02*
X75685057Y40774959D01*
X75685057Y40774959D02*
X75637438Y40679721D01*
X75637438Y40679721D02*
X75637438Y40584483D01*
X75637438Y40584483D02*
X75685057Y40489245D01*
X75685057Y40489245D02*
X75732676Y40441626D01*
X75732676Y40441626D02*
X75827914Y40394007D01*
X75827914Y40394007D02*
X76161247Y40394007D01*
X75018390Y39870197D02*
X75113628Y39917816D01*
X75113628Y39917816D02*
X75161247Y40013055D01*
X75161247Y40013055D02*
X75161247Y40870197D01*
X74208866Y40536864D02*
X74208866Y39870197D01*
X74637437Y40536864D02*
X74637437Y40013055D01*
X74637437Y40013055D02*
X74589818Y39917816D01*
X74589818Y39917816D02*
X74494580Y39870197D01*
X74494580Y39870197D02*
X74351723Y39870197D01*
X74351723Y39870197D02*
X74256485Y39917816D01*
X74256485Y39917816D02*
X74208866Y39965436D01*
X73351723Y39917816D02*
X73446961Y39870197D01*
X73446961Y39870197D02*
X73637437Y39870197D01*
X73637437Y39870197D02*
X73732675Y39917816D01*
X73732675Y39917816D02*
X73780294Y40013055D01*
X73780294Y40013055D02*
X73780294Y40394007D01*
X73780294Y40394007D02*
X73732675Y40489245D01*
X73732675Y40489245D02*
X73637437Y40536864D01*
X73637437Y40536864D02*
X73446961Y40536864D01*
X73446961Y40536864D02*
X73351723Y40489245D01*
X73351723Y40489245D02*
X73304104Y40394007D01*
X73304104Y40394007D02*
X73304104Y40298769D01*
X73304104Y40298769D02*
X73780294Y40203531D01*
X73018389Y40536864D02*
X72637437Y40536864D01*
X72875532Y40870197D02*
X72875532Y40013055D01*
X72875532Y40013055D02*
X72827913Y39917816D01*
X72827913Y39917816D02*
X72732675Y39870197D01*
X72732675Y39870197D02*
X72637437Y39870197D01*
X72161246Y39870197D02*
X72256484Y39917816D01*
X72256484Y39917816D02*
X72304103Y39965436D01*
X72304103Y39965436D02*
X72351722Y40060674D01*
X72351722Y40060674D02*
X72351722Y40346388D01*
X72351722Y40346388D02*
X72304103Y40441626D01*
X72304103Y40441626D02*
X72256484Y40489245D01*
X72256484Y40489245D02*
X72161246Y40536864D01*
X72161246Y40536864D02*
X72018389Y40536864D01*
X72018389Y40536864D02*
X71923151Y40489245D01*
X71923151Y40489245D02*
X71875532Y40441626D01*
X71875532Y40441626D02*
X71827913Y40346388D01*
X71827913Y40346388D02*
X71827913Y40060674D01*
X71827913Y40060674D02*
X71875532Y39965436D01*
X71875532Y39965436D02*
X71923151Y39917816D01*
X71923151Y39917816D02*
X72018389Y39870197D01*
X72018389Y39870197D02*
X72161246Y39870197D01*
X71256484Y39870197D02*
X71351722Y39917816D01*
X71351722Y39917816D02*
X71399341Y39965436D01*
X71399341Y39965436D02*
X71446960Y40060674D01*
X71446960Y40060674D02*
X71446960Y40346388D01*
X71446960Y40346388D02*
X71399341Y40441626D01*
X71399341Y40441626D02*
X71351722Y40489245D01*
X71351722Y40489245D02*
X71256484Y40536864D01*
X71256484Y40536864D02*
X71113627Y40536864D01*
X71113627Y40536864D02*
X71018389Y40489245D01*
X71018389Y40489245D02*
X70970770Y40441626D01*
X70970770Y40441626D02*
X70923151Y40346388D01*
X70923151Y40346388D02*
X70923151Y40060674D01*
X70923151Y40060674D02*
X70970770Y39965436D01*
X70970770Y39965436D02*
X71018389Y39917816D01*
X71018389Y39917816D02*
X71113627Y39870197D01*
X71113627Y39870197D02*
X71256484Y39870197D01*
X70637436Y40536864D02*
X70256484Y40536864D01*
X70494579Y40870197D02*
X70494579Y40013055D01*
X70494579Y40013055D02*
X70446960Y39917816D01*
X70446960Y39917816D02*
X70351722Y39870197D01*
X70351722Y39870197D02*
X70256484Y39870197D01*
X69923150Y39870197D02*
X69923150Y40870197D01*
X69494579Y39870197D02*
X69494579Y40394007D01*
X69494579Y40394007D02*
X69542198Y40489245D01*
X69542198Y40489245D02*
X69637436Y40536864D01*
X69637436Y40536864D02*
X69780293Y40536864D01*
X69780293Y40536864D02*
X69875531Y40489245D01*
X69875531Y40489245D02*
X69923150Y40441626D01*
X67923150Y40394007D02*
X67780293Y40346388D01*
X67780293Y40346388D02*
X67732674Y40298769D01*
X67732674Y40298769D02*
X67685055Y40203531D01*
X67685055Y40203531D02*
X67685055Y40060674D01*
X67685055Y40060674D02*
X67732674Y39965436D01*
X67732674Y39965436D02*
X67780293Y39917816D01*
X67780293Y39917816D02*
X67875531Y39870197D01*
X67875531Y39870197D02*
X68256483Y39870197D01*
X68256483Y39870197D02*
X68256483Y40870197D01*
X68256483Y40870197D02*
X67923150Y40870197D01*
X67923150Y40870197D02*
X67827912Y40822578D01*
X67827912Y40822578D02*
X67780293Y40774959D01*
X67780293Y40774959D02*
X67732674Y40679721D01*
X67732674Y40679721D02*
X67732674Y40584483D01*
X67732674Y40584483D02*
X67780293Y40489245D01*
X67780293Y40489245D02*
X67827912Y40441626D01*
X67827912Y40441626D02*
X67923150Y40394007D01*
X67923150Y40394007D02*
X68256483Y40394007D01*
X67113626Y39870197D02*
X67208864Y39917816D01*
X67208864Y39917816D02*
X67256483Y39965436D01*
X67256483Y39965436D02*
X67304102Y40060674D01*
X67304102Y40060674D02*
X67304102Y40346388D01*
X67304102Y40346388D02*
X67256483Y40441626D01*
X67256483Y40441626D02*
X67208864Y40489245D01*
X67208864Y40489245D02*
X67113626Y40536864D01*
X67113626Y40536864D02*
X66970769Y40536864D01*
X66970769Y40536864D02*
X66875531Y40489245D01*
X66875531Y40489245D02*
X66827912Y40441626D01*
X66827912Y40441626D02*
X66780293Y40346388D01*
X66780293Y40346388D02*
X66780293Y40060674D01*
X66780293Y40060674D02*
X66827912Y39965436D01*
X66827912Y39965436D02*
X66875531Y39917816D01*
X66875531Y39917816D02*
X66970769Y39870197D01*
X66970769Y39870197D02*
X67113626Y39870197D01*
X65923150Y39870197D02*
X65923150Y40394007D01*
X65923150Y40394007D02*
X65970769Y40489245D01*
X65970769Y40489245D02*
X66066007Y40536864D01*
X66066007Y40536864D02*
X66256483Y40536864D01*
X66256483Y40536864D02*
X66351721Y40489245D01*
X65923150Y39917816D02*
X66018388Y39870197D01*
X66018388Y39870197D02*
X66256483Y39870197D01*
X66256483Y39870197D02*
X66351721Y39917816D01*
X66351721Y39917816D02*
X66399340Y40013055D01*
X66399340Y40013055D02*
X66399340Y40108293D01*
X66399340Y40108293D02*
X66351721Y40203531D01*
X66351721Y40203531D02*
X66256483Y40251150D01*
X66256483Y40251150D02*
X66018388Y40251150D01*
X66018388Y40251150D02*
X65923150Y40298769D01*
X65446959Y39870197D02*
X65446959Y40536864D01*
X65446959Y40346388D02*
X65399340Y40441626D01*
X65399340Y40441626D02*
X65351721Y40489245D01*
X65351721Y40489245D02*
X65256483Y40536864D01*
X65256483Y40536864D02*
X65161245Y40536864D01*
X64399340Y39870197D02*
X64399340Y40870197D01*
X64399340Y39917816D02*
X64494578Y39870197D01*
X64494578Y39870197D02*
X64685054Y39870197D01*
X64685054Y39870197D02*
X64780292Y39917816D01*
X64780292Y39917816D02*
X64827911Y39965436D01*
X64827911Y39965436D02*
X64875530Y40060674D01*
X64875530Y40060674D02*
X64875530Y40346388D01*
X64875530Y40346388D02*
X64827911Y40441626D01*
X64827911Y40441626D02*
X64780292Y40489245D01*
X64780292Y40489245D02*
X64685054Y40536864D01*
X64685054Y40536864D02*
X64494578Y40536864D01*
X64494578Y40536864D02*
X64399340Y40489245D01*
X75589819Y38260253D02*
X75923152Y38736444D01*
X76161247Y38260253D02*
X76161247Y39260253D01*
X76161247Y39260253D02*
X75780295Y39260253D01*
X75780295Y39260253D02*
X75685057Y39212634D01*
X75685057Y39212634D02*
X75637438Y39165015D01*
X75637438Y39165015D02*
X75589819Y39069777D01*
X75589819Y39069777D02*
X75589819Y38926920D01*
X75589819Y38926920D02*
X75637438Y38831682D01*
X75637438Y38831682D02*
X75685057Y38784063D01*
X75685057Y38784063D02*
X75780295Y38736444D01*
X75780295Y38736444D02*
X76161247Y38736444D01*
X74780295Y38307872D02*
X74875533Y38260253D01*
X74875533Y38260253D02*
X75066009Y38260253D01*
X75066009Y38260253D02*
X75161247Y38307872D01*
X75161247Y38307872D02*
X75208866Y38403111D01*
X75208866Y38403111D02*
X75208866Y38784063D01*
X75208866Y38784063D02*
X75161247Y38879301D01*
X75161247Y38879301D02*
X75066009Y38926920D01*
X75066009Y38926920D02*
X74875533Y38926920D01*
X74875533Y38926920D02*
X74780295Y38879301D01*
X74780295Y38879301D02*
X74732676Y38784063D01*
X74732676Y38784063D02*
X74732676Y38688825D01*
X74732676Y38688825D02*
X75208866Y38593587D01*
X74399342Y38926920D02*
X74161247Y38260253D01*
X74161247Y38260253D02*
X73923152Y38926920D01*
X73542199Y38260253D02*
X73542199Y38926920D01*
X73542199Y39260253D02*
X73589818Y39212634D01*
X73589818Y39212634D02*
X73542199Y39165015D01*
X73542199Y39165015D02*
X73494580Y39212634D01*
X73494580Y39212634D02*
X73542199Y39260253D01*
X73542199Y39260253D02*
X73542199Y39165015D01*
X73113628Y38307872D02*
X73018390Y38260253D01*
X73018390Y38260253D02*
X72827914Y38260253D01*
X72827914Y38260253D02*
X72732676Y38307872D01*
X72732676Y38307872D02*
X72685057Y38403111D01*
X72685057Y38403111D02*
X72685057Y38450730D01*
X72685057Y38450730D02*
X72732676Y38545968D01*
X72732676Y38545968D02*
X72827914Y38593587D01*
X72827914Y38593587D02*
X72970771Y38593587D01*
X72970771Y38593587D02*
X73066009Y38641206D01*
X73066009Y38641206D02*
X73113628Y38736444D01*
X73113628Y38736444D02*
X73113628Y38784063D01*
X73113628Y38784063D02*
X73066009Y38879301D01*
X73066009Y38879301D02*
X72970771Y38926920D01*
X72970771Y38926920D02*
X72827914Y38926920D01*
X72827914Y38926920D02*
X72732676Y38879301D01*
X72256485Y38260253D02*
X72256485Y38926920D01*
X72256485Y39260253D02*
X72304104Y39212634D01*
X72304104Y39212634D02*
X72256485Y39165015D01*
X72256485Y39165015D02*
X72208866Y39212634D01*
X72208866Y39212634D02*
X72256485Y39260253D01*
X72256485Y39260253D02*
X72256485Y39165015D01*
X71637438Y38260253D02*
X71732676Y38307872D01*
X71732676Y38307872D02*
X71780295Y38355492D01*
X71780295Y38355492D02*
X71827914Y38450730D01*
X71827914Y38450730D02*
X71827914Y38736444D01*
X71827914Y38736444D02*
X71780295Y38831682D01*
X71780295Y38831682D02*
X71732676Y38879301D01*
X71732676Y38879301D02*
X71637438Y38926920D01*
X71637438Y38926920D02*
X71494581Y38926920D01*
X71494581Y38926920D02*
X71399343Y38879301D01*
X71399343Y38879301D02*
X71351724Y38831682D01*
X71351724Y38831682D02*
X71304105Y38736444D01*
X71304105Y38736444D02*
X71304105Y38450730D01*
X71304105Y38450730D02*
X71351724Y38355492D01*
X71351724Y38355492D02*
X71399343Y38307872D01*
X71399343Y38307872D02*
X71494581Y38260253D01*
X71494581Y38260253D02*
X71637438Y38260253D01*
X70875533Y38926920D02*
X70875533Y38260253D01*
X70875533Y38831682D02*
X70827914Y38879301D01*
X70827914Y38879301D02*
X70732676Y38926920D01*
X70732676Y38926920D02*
X70589819Y38926920D01*
X70589819Y38926920D02*
X70494581Y38879301D01*
X70494581Y38879301D02*
X70446962Y38784063D01*
X70446962Y38784063D02*
X70446962Y38260253D01*
X69970771Y38355492D02*
X69923152Y38307872D01*
X69923152Y38307872D02*
X69970771Y38260253D01*
X69970771Y38260253D02*
X70018390Y38307872D01*
X70018390Y38307872D02*
X69970771Y38355492D01*
X69970771Y38355492D02*
X69970771Y38260253D01*
X69970771Y38879301D02*
X69923152Y38831682D01*
X69923152Y38831682D02*
X69970771Y38784063D01*
X69970771Y38784063D02*
X70018390Y38831682D01*
X70018390Y38831682D02*
X69970771Y38879301D01*
X69970771Y38879301D02*
X69970771Y38784063D01*
X68161248Y38260253D02*
X68494581Y38736444D01*
X68732676Y38260253D02*
X68732676Y39260253D01*
X68732676Y39260253D02*
X68351724Y39260253D01*
X68351724Y39260253D02*
X68256486Y39212634D01*
X68256486Y39212634D02*
X68208867Y39165015D01*
X68208867Y39165015D02*
X68161248Y39069777D01*
X68161248Y39069777D02*
X68161248Y38926920D01*
X68161248Y38926920D02*
X68208867Y38831682D01*
X68208867Y38831682D02*
X68256486Y38784063D01*
X68256486Y38784063D02*
X68351724Y38736444D01*
X68351724Y38736444D02*
X68732676Y38736444D01*
X67732676Y38784063D02*
X67399343Y38784063D01*
X67256486Y38260253D02*
X67732676Y38260253D01*
X67732676Y38260253D02*
X67732676Y39260253D01*
X67732676Y39260253D02*
X67256486Y39260253D01*
X66970771Y39260253D02*
X66637438Y38260253D01*
X66637438Y38260253D02*
X66304105Y39260253D01*
X64875533Y38784063D02*
X64732676Y38736444D01*
X64732676Y38736444D02*
X64685057Y38688825D01*
X64685057Y38688825D02*
X64637438Y38593587D01*
X64637438Y38593587D02*
X64637438Y38450730D01*
X64637438Y38450730D02*
X64685057Y38355492D01*
X64685057Y38355492D02*
X64732676Y38307872D01*
X64732676Y38307872D02*
X64827914Y38260253D01*
X64827914Y38260253D02*
X65208866Y38260253D01*
X65208866Y38260253D02*
X65208866Y39260253D01*
X65208866Y39260253D02*
X64875533Y39260253D01*
X64875533Y39260253D02*
X64780295Y39212634D01*
X64780295Y39212634D02*
X64732676Y39165015D01*
X64732676Y39165015D02*
X64685057Y39069777D01*
X64685057Y39069777D02*
X64685057Y38974539D01*
X64685057Y38974539D02*
X64732676Y38879301D01*
X64732676Y38879301D02*
X64780295Y38831682D01*
X64780295Y38831682D02*
X64875533Y38784063D01*
X64875533Y38784063D02*
X65208866Y38784063D01*
X76161247Y36650309D02*
X76161247Y37650309D01*
X76161247Y37650309D02*
X75923152Y37650309D01*
X75923152Y37650309D02*
X75780295Y37602690D01*
X75780295Y37602690D02*
X75685057Y37507452D01*
X75685057Y37507452D02*
X75637438Y37412214D01*
X75637438Y37412214D02*
X75589819Y37221738D01*
X75589819Y37221738D02*
X75589819Y37078881D01*
X75589819Y37078881D02*
X75637438Y36888405D01*
X75637438Y36888405D02*
X75685057Y36793167D01*
X75685057Y36793167D02*
X75780295Y36697928D01*
X75780295Y36697928D02*
X75923152Y36650309D01*
X75923152Y36650309D02*
X76161247Y36650309D01*
X74780295Y36697928D02*
X74875533Y36650309D01*
X74875533Y36650309D02*
X75066009Y36650309D01*
X75066009Y36650309D02*
X75161247Y36697928D01*
X75161247Y36697928D02*
X75208866Y36793167D01*
X75208866Y36793167D02*
X75208866Y37174119D01*
X75208866Y37174119D02*
X75161247Y37269357D01*
X75161247Y37269357D02*
X75066009Y37316976D01*
X75066009Y37316976D02*
X74875533Y37316976D01*
X74875533Y37316976D02*
X74780295Y37269357D01*
X74780295Y37269357D02*
X74732676Y37174119D01*
X74732676Y37174119D02*
X74732676Y37078881D01*
X74732676Y37078881D02*
X75208866Y36983643D01*
X74351723Y36697928D02*
X74256485Y36650309D01*
X74256485Y36650309D02*
X74066009Y36650309D01*
X74066009Y36650309D02*
X73970771Y36697928D01*
X73970771Y36697928D02*
X73923152Y36793167D01*
X73923152Y36793167D02*
X73923152Y36840786D01*
X73923152Y36840786D02*
X73970771Y36936024D01*
X73970771Y36936024D02*
X74066009Y36983643D01*
X74066009Y36983643D02*
X74208866Y36983643D01*
X74208866Y36983643D02*
X74304104Y37031262D01*
X74304104Y37031262D02*
X74351723Y37126500D01*
X74351723Y37126500D02*
X74351723Y37174119D01*
X74351723Y37174119D02*
X74304104Y37269357D01*
X74304104Y37269357D02*
X74208866Y37316976D01*
X74208866Y37316976D02*
X74066009Y37316976D01*
X74066009Y37316976D02*
X73970771Y37269357D01*
X73494580Y36650309D02*
X73494580Y37316976D01*
X73494580Y37650309D02*
X73542199Y37602690D01*
X73542199Y37602690D02*
X73494580Y37555071D01*
X73494580Y37555071D02*
X73446961Y37602690D01*
X73446961Y37602690D02*
X73494580Y37650309D01*
X73494580Y37650309D02*
X73494580Y37555071D01*
X72589819Y37316976D02*
X72589819Y36507452D01*
X72589819Y36507452D02*
X72637438Y36412214D01*
X72637438Y36412214D02*
X72685057Y36364595D01*
X72685057Y36364595D02*
X72780295Y36316976D01*
X72780295Y36316976D02*
X72923152Y36316976D01*
X72923152Y36316976D02*
X73018390Y36364595D01*
X72589819Y36697928D02*
X72685057Y36650309D01*
X72685057Y36650309D02*
X72875533Y36650309D01*
X72875533Y36650309D02*
X72970771Y36697928D01*
X72970771Y36697928D02*
X73018390Y36745548D01*
X73018390Y36745548D02*
X73066009Y36840786D01*
X73066009Y36840786D02*
X73066009Y37126500D01*
X73066009Y37126500D02*
X73018390Y37221738D01*
X73018390Y37221738D02*
X72970771Y37269357D01*
X72970771Y37269357D02*
X72875533Y37316976D01*
X72875533Y37316976D02*
X72685057Y37316976D01*
X72685057Y37316976D02*
X72589819Y37269357D01*
X72113628Y37316976D02*
X72113628Y36650309D01*
X72113628Y37221738D02*
X72066009Y37269357D01*
X72066009Y37269357D02*
X71970771Y37316976D01*
X71970771Y37316976D02*
X71827914Y37316976D01*
X71827914Y37316976D02*
X71732676Y37269357D01*
X71732676Y37269357D02*
X71685057Y37174119D01*
X71685057Y37174119D02*
X71685057Y36650309D01*
X70827914Y36697928D02*
X70923152Y36650309D01*
X70923152Y36650309D02*
X71113628Y36650309D01*
X71113628Y36650309D02*
X71208866Y36697928D01*
X71208866Y36697928D02*
X71256485Y36793167D01*
X71256485Y36793167D02*
X71256485Y37174119D01*
X71256485Y37174119D02*
X71208866Y37269357D01*
X71208866Y37269357D02*
X71113628Y37316976D01*
X71113628Y37316976D02*
X70923152Y37316976D01*
X70923152Y37316976D02*
X70827914Y37269357D01*
X70827914Y37269357D02*
X70780295Y37174119D01*
X70780295Y37174119D02*
X70780295Y37078881D01*
X70780295Y37078881D02*
X71256485Y36983643D01*
X70351723Y36650309D02*
X70351723Y37316976D01*
X70351723Y37126500D02*
X70304104Y37221738D01*
X70304104Y37221738D02*
X70256485Y37269357D01*
X70256485Y37269357D02*
X70161247Y37316976D01*
X70161247Y37316976D02*
X70066009Y37316976D01*
X69732675Y36745548D02*
X69685056Y36697928D01*
X69685056Y36697928D02*
X69732675Y36650309D01*
X69732675Y36650309D02*
X69780294Y36697928D01*
X69780294Y36697928D02*
X69732675Y36745548D01*
X69732675Y36745548D02*
X69732675Y36650309D01*
X69732675Y37269357D02*
X69685056Y37221738D01*
X69685056Y37221738D02*
X69732675Y37174119D01*
X69732675Y37174119D02*
X69780294Y37221738D01*
X69780294Y37221738D02*
X69732675Y37269357D01*
X69732675Y37269357D02*
X69732675Y37174119D01*
X68494580Y36650309D02*
X68494580Y37650309D01*
X68494580Y37650309D02*
X68113628Y37650309D01*
X68113628Y37650309D02*
X68018390Y37602690D01*
X68018390Y37602690D02*
X67970771Y37555071D01*
X67970771Y37555071D02*
X67923152Y37459833D01*
X67923152Y37459833D02*
X67923152Y37316976D01*
X67923152Y37316976D02*
X67970771Y37221738D01*
X67970771Y37221738D02*
X68018390Y37174119D01*
X68018390Y37174119D02*
X68113628Y37126500D01*
X68113628Y37126500D02*
X68494580Y37126500D01*
X67113628Y36697928D02*
X67208866Y36650309D01*
X67208866Y36650309D02*
X67399342Y36650309D01*
X67399342Y36650309D02*
X67494580Y36697928D01*
X67494580Y36697928D02*
X67542199Y36793167D01*
X67542199Y36793167D02*
X67542199Y37174119D01*
X67542199Y37174119D02*
X67494580Y37269357D01*
X67494580Y37269357D02*
X67399342Y37316976D01*
X67399342Y37316976D02*
X67208866Y37316976D01*
X67208866Y37316976D02*
X67113628Y37269357D01*
X67113628Y37269357D02*
X67066009Y37174119D01*
X67066009Y37174119D02*
X67066009Y37078881D01*
X67066009Y37078881D02*
X67542199Y36983643D01*
X66780294Y37316976D02*
X66399342Y37316976D01*
X66637437Y37650309D02*
X66637437Y36793167D01*
X66637437Y36793167D02*
X66589818Y36697928D01*
X66589818Y36697928D02*
X66494580Y36650309D01*
X66494580Y36650309D02*
X66399342Y36650309D01*
X65685056Y36697928D02*
X65780294Y36650309D01*
X65780294Y36650309D02*
X65970770Y36650309D01*
X65970770Y36650309D02*
X66066008Y36697928D01*
X66066008Y36697928D02*
X66113627Y36793167D01*
X66113627Y36793167D02*
X66113627Y37174119D01*
X66113627Y37174119D02*
X66066008Y37269357D01*
X66066008Y37269357D02*
X65970770Y37316976D01*
X65970770Y37316976D02*
X65780294Y37316976D01*
X65780294Y37316976D02*
X65685056Y37269357D01*
X65685056Y37269357D02*
X65637437Y37174119D01*
X65637437Y37174119D02*
X65637437Y37078881D01*
X65637437Y37078881D02*
X66113627Y36983643D01*
X65208865Y36650309D02*
X65208865Y37316976D01*
X65208865Y37126500D02*
X65161246Y37221738D01*
X65161246Y37221738D02*
X65113627Y37269357D01*
X65113627Y37269357D02*
X65018389Y37316976D01*
X65018389Y37316976D02*
X64923151Y37316976D01*
X63827912Y36650309D02*
X63827912Y37650309D01*
X63827912Y37174119D02*
X63256484Y37174119D01*
X63256484Y36650309D02*
X63256484Y37650309D01*
X62351722Y36650309D02*
X62351722Y37174119D01*
X62351722Y37174119D02*
X62399341Y37269357D01*
X62399341Y37269357D02*
X62494579Y37316976D01*
X62494579Y37316976D02*
X62685055Y37316976D01*
X62685055Y37316976D02*
X62780293Y37269357D01*
X62351722Y36697928D02*
X62446960Y36650309D01*
X62446960Y36650309D02*
X62685055Y36650309D01*
X62685055Y36650309D02*
X62780293Y36697928D01*
X62780293Y36697928D02*
X62827912Y36793167D01*
X62827912Y36793167D02*
X62827912Y36888405D01*
X62827912Y36888405D02*
X62780293Y36983643D01*
X62780293Y36983643D02*
X62685055Y37031262D01*
X62685055Y37031262D02*
X62446960Y37031262D01*
X62446960Y37031262D02*
X62351722Y37078881D01*
X61875531Y37316976D02*
X61875531Y36650309D01*
X61875531Y37221738D02*
X61827912Y37269357D01*
X61827912Y37269357D02*
X61732674Y37316976D01*
X61732674Y37316976D02*
X61589817Y37316976D01*
X61589817Y37316976D02*
X61494579Y37269357D01*
X61494579Y37269357D02*
X61446960Y37174119D01*
X61446960Y37174119D02*
X61446960Y36650309D01*
X60542198Y36697928D02*
X60637436Y36650309D01*
X60637436Y36650309D02*
X60827912Y36650309D01*
X60827912Y36650309D02*
X60923150Y36697928D01*
X60923150Y36697928D02*
X60970769Y36745548D01*
X60970769Y36745548D02*
X61018388Y36840786D01*
X61018388Y36840786D02*
X61018388Y37126500D01*
X61018388Y37126500D02*
X60970769Y37221738D01*
X60970769Y37221738D02*
X60923150Y37269357D01*
X60923150Y37269357D02*
X60827912Y37316976D01*
X60827912Y37316976D02*
X60637436Y37316976D01*
X60637436Y37316976D02*
X60542198Y37269357D01*
X59685055Y36650309D02*
X59685055Y37174119D01*
X59685055Y37174119D02*
X59732674Y37269357D01*
X59732674Y37269357D02*
X59827912Y37316976D01*
X59827912Y37316976D02*
X60018388Y37316976D01*
X60018388Y37316976D02*
X60113626Y37269357D01*
X59685055Y36697928D02*
X59780293Y36650309D01*
X59780293Y36650309D02*
X60018388Y36650309D01*
X60018388Y36650309D02*
X60113626Y36697928D01*
X60113626Y36697928D02*
X60161245Y36793167D01*
X60161245Y36793167D02*
X60161245Y36888405D01*
X60161245Y36888405D02*
X60113626Y36983643D01*
X60113626Y36983643D02*
X60018388Y37031262D01*
X60018388Y37031262D02*
X59780293Y37031262D01*
X59780293Y37031262D02*
X59685055Y37078881D01*
X59208864Y36650309D02*
X59208864Y37650309D01*
X59113626Y37031262D02*
X58827912Y36650309D01*
X58827912Y37316976D02*
X59208864Y36936024D01*
X76161247Y35040365D02*
X76161247Y36040365D01*
X76161247Y36040365D02*
X75827914Y35326080D01*
X75827914Y35326080D02*
X75494581Y36040365D01*
X75494581Y36040365D02*
X75494581Y35040365D01*
X74446962Y35135604D02*
X74494581Y35087984D01*
X74494581Y35087984D02*
X74637438Y35040365D01*
X74637438Y35040365D02*
X74732676Y35040365D01*
X74732676Y35040365D02*
X74875533Y35087984D01*
X74875533Y35087984D02*
X74970771Y35183223D01*
X74970771Y35183223D02*
X75018390Y35278461D01*
X75018390Y35278461D02*
X75066009Y35468937D01*
X75066009Y35468937D02*
X75066009Y35611794D01*
X75066009Y35611794D02*
X75018390Y35802270D01*
X75018390Y35802270D02*
X74970771Y35897508D01*
X74970771Y35897508D02*
X74875533Y35992746D01*
X74875533Y35992746D02*
X74732676Y36040365D01*
X74732676Y36040365D02*
X74637438Y36040365D01*
X74637438Y36040365D02*
X74494581Y35992746D01*
X74494581Y35992746D02*
X74446962Y35945127D01*
X74018390Y36040365D02*
X74018390Y35230842D01*
X74018390Y35230842D02*
X73970771Y35135604D01*
X73970771Y35135604D02*
X73923152Y35087984D01*
X73923152Y35087984D02*
X73827914Y35040365D01*
X73827914Y35040365D02*
X73637438Y35040365D01*
X73637438Y35040365D02*
X73542200Y35087984D01*
X73542200Y35087984D02*
X73494581Y35135604D01*
X73494581Y35135604D02*
X73446962Y35230842D01*
X73446962Y35230842D02*
X73446962Y36040365D01*
X72970771Y35135604D02*
X72923152Y35087984D01*
X72923152Y35087984D02*
X72970771Y35040365D01*
X72970771Y35040365D02*
X73018390Y35087984D01*
X73018390Y35087984D02*
X72970771Y35135604D01*
X72970771Y35135604D02*
X72970771Y35040365D01*
X72970771Y35659413D02*
X72923152Y35611794D01*
X72923152Y35611794D02*
X72970771Y35564175D01*
X72970771Y35564175D02*
X73018390Y35611794D01*
X73018390Y35611794D02*
X72970771Y35659413D01*
X72970771Y35659413D02*
X72970771Y35564175D01*
X71780295Y35087984D02*
X71637438Y35040365D01*
X71637438Y35040365D02*
X71399343Y35040365D01*
X71399343Y35040365D02*
X71304105Y35087984D01*
X71304105Y35087984D02*
X71256486Y35135604D01*
X71256486Y35135604D02*
X71208867Y35230842D01*
X71208867Y35230842D02*
X71208867Y35326080D01*
X71208867Y35326080D02*
X71256486Y35421318D01*
X71256486Y35421318D02*
X71304105Y35468937D01*
X71304105Y35468937D02*
X71399343Y35516556D01*
X71399343Y35516556D02*
X71589819Y35564175D01*
X71589819Y35564175D02*
X71685057Y35611794D01*
X71685057Y35611794D02*
X71732676Y35659413D01*
X71732676Y35659413D02*
X71780295Y35754651D01*
X71780295Y35754651D02*
X71780295Y35849889D01*
X71780295Y35849889D02*
X71732676Y35945127D01*
X71732676Y35945127D02*
X71685057Y35992746D01*
X71685057Y35992746D02*
X71589819Y36040365D01*
X71589819Y36040365D02*
X71351724Y36040365D01*
X71351724Y36040365D02*
X71208867Y35992746D01*
X70923152Y36040365D02*
X70351724Y36040365D01*
X70637438Y35040365D02*
X70637438Y36040365D01*
X70018390Y35040365D02*
X70018390Y36040365D01*
X70018390Y36040365D02*
X69685057Y35326080D01*
X69685057Y35326080D02*
X69351724Y36040365D01*
X69351724Y36040365D02*
X69351724Y35040365D01*
X68970771Y36040365D02*
X68351724Y36040365D01*
X68351724Y36040365D02*
X68685057Y35659413D01*
X68685057Y35659413D02*
X68542200Y35659413D01*
X68542200Y35659413D02*
X68446962Y35611794D01*
X68446962Y35611794D02*
X68399343Y35564175D01*
X68399343Y35564175D02*
X68351724Y35468937D01*
X68351724Y35468937D02*
X68351724Y35230842D01*
X68351724Y35230842D02*
X68399343Y35135604D01*
X68399343Y35135604D02*
X68446962Y35087984D01*
X68446962Y35087984D02*
X68542200Y35040365D01*
X68542200Y35040365D02*
X68827914Y35040365D01*
X68827914Y35040365D02*
X68923152Y35087984D01*
X68923152Y35087984D02*
X68970771Y35135604D01*
X67970771Y35945127D02*
X67923152Y35992746D01*
X67923152Y35992746D02*
X67827914Y36040365D01*
X67827914Y36040365D02*
X67589819Y36040365D01*
X67589819Y36040365D02*
X67494581Y35992746D01*
X67494581Y35992746D02*
X67446962Y35945127D01*
X67446962Y35945127D02*
X67399343Y35849889D01*
X67399343Y35849889D02*
X67399343Y35754651D01*
X67399343Y35754651D02*
X67446962Y35611794D01*
X67446962Y35611794D02*
X68018390Y35040365D01*
X68018390Y35040365D02*
X67399343Y35040365D01*
X67066009Y36040365D02*
X66827914Y35040365D01*
X66827914Y35040365D02*
X66637438Y35754651D01*
X66637438Y35754651D02*
X66446962Y35040365D01*
X66446962Y35040365D02*
X66208867Y36040365D01*
X65494581Y35564175D02*
X65351724Y35516556D01*
X65351724Y35516556D02*
X65304105Y35468937D01*
X65304105Y35468937D02*
X65256486Y35373699D01*
X65256486Y35373699D02*
X65256486Y35230842D01*
X65256486Y35230842D02*
X65304105Y35135604D01*
X65304105Y35135604D02*
X65351724Y35087984D01*
X65351724Y35087984D02*
X65446962Y35040365D01*
X65446962Y35040365D02*
X65827914Y35040365D01*
X65827914Y35040365D02*
X65827914Y36040365D01*
X65827914Y36040365D02*
X65494581Y36040365D01*
X65494581Y36040365D02*
X65399343Y35992746D01*
X65399343Y35992746D02*
X65351724Y35945127D01*
X65351724Y35945127D02*
X65304105Y35849889D01*
X65304105Y35849889D02*
X65304105Y35754651D01*
X65304105Y35754651D02*
X65351724Y35659413D01*
X65351724Y35659413D02*
X65399343Y35611794D01*
X65399343Y35611794D02*
X65494581Y35564175D01*
X65494581Y35564175D02*
X65827914Y35564175D01*
X64351724Y36040365D02*
X64827914Y36040365D01*
X64827914Y36040365D02*
X64875533Y35564175D01*
X64875533Y35564175D02*
X64827914Y35611794D01*
X64827914Y35611794D02*
X64732676Y35659413D01*
X64732676Y35659413D02*
X64494581Y35659413D01*
X64494581Y35659413D02*
X64399343Y35611794D01*
X64399343Y35611794D02*
X64351724Y35564175D01*
X64351724Y35564175D02*
X64304105Y35468937D01*
X64304105Y35468937D02*
X64304105Y35230842D01*
X64304105Y35230842D02*
X64351724Y35135604D01*
X64351724Y35135604D02*
X64399343Y35087984D01*
X64399343Y35087984D02*
X64494581Y35040365D01*
X64494581Y35040365D02*
X64732676Y35040365D01*
X64732676Y35040365D02*
X64827914Y35087984D01*
X64827914Y35087984D02*
X64875533Y35135604D01*
X63399343Y36040365D02*
X63875533Y36040365D01*
X63875533Y36040365D02*
X63923152Y35564175D01*
X63923152Y35564175D02*
X63875533Y35611794D01*
X63875533Y35611794D02*
X63780295Y35659413D01*
X63780295Y35659413D02*
X63542200Y35659413D01*
X63542200Y35659413D02*
X63446962Y35611794D01*
X63446962Y35611794D02*
X63399343Y35564175D01*
X63399343Y35564175D02*
X63351724Y35468937D01*
X63351724Y35468937D02*
X63351724Y35230842D01*
X63351724Y35230842D02*
X63399343Y35135604D01*
X63399343Y35135604D02*
X63446962Y35087984D01*
X63446962Y35087984D02*
X63542200Y35040365D01*
X63542200Y35040365D02*
X63780295Y35040365D01*
X63780295Y35040365D02*
X63875533Y35087984D01*
X63875533Y35087984D02*
X63923152Y35135604D01*
X62351724Y35135604D02*
X62399343Y35087984D01*
X62399343Y35087984D02*
X62542200Y35040365D01*
X62542200Y35040365D02*
X62637438Y35040365D01*
X62637438Y35040365D02*
X62780295Y35087984D01*
X62780295Y35087984D02*
X62875533Y35183223D01*
X62875533Y35183223D02*
X62923152Y35278461D01*
X62923152Y35278461D02*
X62970771Y35468937D01*
X62970771Y35468937D02*
X62970771Y35611794D01*
X62970771Y35611794D02*
X62923152Y35802270D01*
X62923152Y35802270D02*
X62875533Y35897508D01*
X62875533Y35897508D02*
X62780295Y35992746D01*
X62780295Y35992746D02*
X62637438Y36040365D01*
X62637438Y36040365D02*
X62542200Y36040365D01*
X62542200Y36040365D02*
X62399343Y35992746D01*
X62399343Y35992746D02*
X62351724Y35945127D01*
X61399343Y35992746D02*
X61494581Y36040365D01*
X61494581Y36040365D02*
X61637438Y36040365D01*
X61637438Y36040365D02*
X61780295Y35992746D01*
X61780295Y35992746D02*
X61875533Y35897508D01*
X61875533Y35897508D02*
X61923152Y35802270D01*
X61923152Y35802270D02*
X61970771Y35611794D01*
X61970771Y35611794D02*
X61970771Y35468937D01*
X61970771Y35468937D02*
X61923152Y35278461D01*
X61923152Y35278461D02*
X61875533Y35183223D01*
X61875533Y35183223D02*
X61780295Y35087984D01*
X61780295Y35087984D02*
X61637438Y35040365D01*
X61637438Y35040365D02*
X61542200Y35040365D01*
X61542200Y35040365D02*
X61399343Y35087984D01*
X61399343Y35087984D02*
X61351724Y35135604D01*
X61351724Y35135604D02*
X61351724Y35468937D01*
X61351724Y35468937D02*
X61542200Y35468937D01*
X60923152Y36040365D02*
X60923152Y35230842D01*
X60923152Y35230842D02*
X60875533Y35135604D01*
X60875533Y35135604D02*
X60827914Y35087984D01*
X60827914Y35087984D02*
X60732676Y35040365D01*
X60732676Y35040365D02*
X60542200Y35040365D01*
X60542200Y35040365D02*
X60446962Y35087984D01*
X60446962Y35087984D02*
X60399343Y35135604D01*
X60399343Y35135604D02*
X60351724Y35230842D01*
X60351724Y35230842D02*
X60351724Y36040365D01*
X59446962Y36040365D02*
X59637438Y36040365D01*
X59637438Y36040365D02*
X59732676Y35992746D01*
X59732676Y35992746D02*
X59780295Y35945127D01*
X59780295Y35945127D02*
X59875533Y35802270D01*
X59875533Y35802270D02*
X59923152Y35611794D01*
X59923152Y35611794D02*
X59923152Y35230842D01*
X59923152Y35230842D02*
X59875533Y35135604D01*
X59875533Y35135604D02*
X59827914Y35087984D01*
X59827914Y35087984D02*
X59732676Y35040365D01*
X59732676Y35040365D02*
X59542200Y35040365D01*
X59542200Y35040365D02*
X59446962Y35087984D01*
X59446962Y35087984D02*
X59399343Y35135604D01*
X59399343Y35135604D02*
X59351724Y35230842D01*
X59351724Y35230842D02*
X59351724Y35468937D01*
X59351724Y35468937D02*
X59399343Y35564175D01*
X59399343Y35564175D02*
X59446962Y35611794D01*
X59446962Y35611794D02*
X59542200Y35659413D01*
X59542200Y35659413D02*
X59732676Y35659413D01*
X59732676Y35659413D02*
X59827914Y35611794D01*
X59827914Y35611794D02*
X59875533Y35564175D01*
X59875533Y35564175D02*
X59923152Y35468937D01*
X75685057Y33430421D02*
X76161247Y33430421D01*
X76161247Y33430421D02*
X76161247Y34430421D01*
X75351723Y33430421D02*
X75351723Y34430421D01*
X75351723Y34430421D02*
X75113628Y34430421D01*
X75113628Y34430421D02*
X74970771Y34382802D01*
X74970771Y34382802D02*
X74875533Y34287564D01*
X74875533Y34287564D02*
X74827914Y34192326D01*
X74827914Y34192326D02*
X74780295Y34001850D01*
X74780295Y34001850D02*
X74780295Y33858993D01*
X74780295Y33858993D02*
X74827914Y33668517D01*
X74827914Y33668517D02*
X74875533Y33573279D01*
X74875533Y33573279D02*
X74970771Y33478040D01*
X74970771Y33478040D02*
X75113628Y33430421D01*
X75113628Y33430421D02*
X75351723Y33430421D01*
X74161247Y34430421D02*
X73970771Y34430421D01*
X73970771Y34430421D02*
X73875533Y34382802D01*
X73875533Y34382802D02*
X73780295Y34287564D01*
X73780295Y34287564D02*
X73732676Y34097088D01*
X73732676Y34097088D02*
X73732676Y33763755D01*
X73732676Y33763755D02*
X73780295Y33573279D01*
X73780295Y33573279D02*
X73875533Y33478040D01*
X73875533Y33478040D02*
X73970771Y33430421D01*
X73970771Y33430421D02*
X74161247Y33430421D01*
X74161247Y33430421D02*
X74256485Y33478040D01*
X74256485Y33478040D02*
X74351723Y33573279D01*
X74351723Y33573279D02*
X74399342Y33763755D01*
X74399342Y33763755D02*
X74399342Y34097088D01*
X74399342Y34097088D02*
X74351723Y34287564D01*
X74351723Y34287564D02*
X74256485Y34382802D01*
X74256485Y34382802D02*
X74161247Y34430421D01*
X73304104Y33525660D02*
X73256485Y33478040D01*
X73256485Y33478040D02*
X73304104Y33430421D01*
X73304104Y33430421D02*
X73351723Y33478040D01*
X73351723Y33478040D02*
X73304104Y33525660D01*
X73304104Y33525660D02*
X73304104Y33430421D01*
X73304104Y34049469D02*
X73256485Y34001850D01*
X73256485Y34001850D02*
X73304104Y33954231D01*
X73304104Y33954231D02*
X73351723Y34001850D01*
X73351723Y34001850D02*
X73304104Y34049469D01*
X73304104Y34049469D02*
X73304104Y33954231D01*
X71589819Y33430421D02*
X72066009Y33430421D01*
X72066009Y33430421D02*
X72066009Y34430421D01*
X71256485Y33430421D02*
X71256485Y34430421D01*
X71256485Y34430421D02*
X71018390Y34430421D01*
X71018390Y34430421D02*
X70875533Y34382802D01*
X70875533Y34382802D02*
X70780295Y34287564D01*
X70780295Y34287564D02*
X70732676Y34192326D01*
X70732676Y34192326D02*
X70685057Y34001850D01*
X70685057Y34001850D02*
X70685057Y33858993D01*
X70685057Y33858993D02*
X70732676Y33668517D01*
X70732676Y33668517D02*
X70780295Y33573279D01*
X70780295Y33573279D02*
X70875533Y33478040D01*
X70875533Y33478040D02*
X71018390Y33430421D01*
X71018390Y33430421D02*
X71256485Y33430421D01*
X69780295Y33430421D02*
X70256485Y33430421D01*
X70256485Y33430421D02*
X70256485Y34430421D01*
X69446961Y33430421D02*
X69446961Y34430421D01*
X69446961Y34430421D02*
X68875533Y33430421D01*
X68875533Y33430421D02*
X68875533Y34430421D01*
X68208866Y34430421D02*
X68113628Y34430421D01*
X68113628Y34430421D02*
X68018390Y34382802D01*
X68018390Y34382802D02*
X67970771Y34335183D01*
X67970771Y34335183D02*
X67923152Y34239945D01*
X67923152Y34239945D02*
X67875533Y34049469D01*
X67875533Y34049469D02*
X67875533Y33811374D01*
X67875533Y33811374D02*
X67923152Y33620898D01*
X67923152Y33620898D02*
X67970771Y33525660D01*
X67970771Y33525660D02*
X68018390Y33478040D01*
X68018390Y33478040D02*
X68113628Y33430421D01*
X68113628Y33430421D02*
X68208866Y33430421D01*
X68208866Y33430421D02*
X68304104Y33478040D01*
X68304104Y33478040D02*
X68351723Y33525660D01*
X68351723Y33525660D02*
X68399342Y33620898D01*
X68399342Y33620898D02*
X68446961Y33811374D01*
X68446961Y33811374D02*
X68446961Y34049469D01*
X68446961Y34049469D02*
X68399342Y34239945D01*
X68399342Y34239945D02*
X68351723Y34335183D01*
X68351723Y34335183D02*
X68304104Y34382802D01*
X68304104Y34382802D02*
X68208866Y34430421D01*
X66970771Y34430421D02*
X67446961Y34430421D01*
X67446961Y34430421D02*
X67494580Y33954231D01*
X67494580Y33954231D02*
X67446961Y34001850D01*
X67446961Y34001850D02*
X67351723Y34049469D01*
X67351723Y34049469D02*
X67113628Y34049469D01*
X67113628Y34049469D02*
X67018390Y34001850D01*
X67018390Y34001850D02*
X66970771Y33954231D01*
X66970771Y33954231D02*
X66923152Y33858993D01*
X66923152Y33858993D02*
X66923152Y33620898D01*
X66923152Y33620898D02*
X66970771Y33525660D01*
X66970771Y33525660D02*
X67018390Y33478040D01*
X67018390Y33478040D02*
X67113628Y33430421D01*
X67113628Y33430421D02*
X67351723Y33430421D01*
X67351723Y33430421D02*
X67446961Y33478040D01*
X67446961Y33478040D02*
X67494580Y33525660D01*
X66304104Y34430421D02*
X66208866Y34430421D01*
X66208866Y34430421D02*
X66113628Y34382802D01*
X66113628Y34382802D02*
X66066009Y34335183D01*
X66066009Y34335183D02*
X66018390Y34239945D01*
X66018390Y34239945D02*
X65970771Y34049469D01*
X65970771Y34049469D02*
X65970771Y33811374D01*
X65970771Y33811374D02*
X66018390Y33620898D01*
X66018390Y33620898D02*
X66066009Y33525660D01*
X66066009Y33525660D02*
X66113628Y33478040D01*
X66113628Y33478040D02*
X66208866Y33430421D01*
X66208866Y33430421D02*
X66304104Y33430421D01*
X66304104Y33430421D02*
X66399342Y33478040D01*
X66399342Y33478040D02*
X66446961Y33525660D01*
X66446961Y33525660D02*
X66494580Y33620898D01*
X66494580Y33620898D02*
X66542199Y33811374D01*
X66542199Y33811374D02*
X66542199Y34049469D01*
X66542199Y34049469D02*
X66494580Y34239945D01*
X66494580Y34239945D02*
X66446961Y34335183D01*
X66446961Y34335183D02*
X66399342Y34382802D01*
X66399342Y34382802D02*
X66304104Y34430421D01*
X65542199Y33430421D02*
X65542199Y34430421D01*
X65542199Y34430421D02*
X65161247Y34430421D01*
X65161247Y34430421D02*
X65066009Y34382802D01*
X65066009Y34382802D02*
X65018390Y34335183D01*
X65018390Y34335183D02*
X64970771Y34239945D01*
X64970771Y34239945D02*
X64970771Y34097088D01*
X64970771Y34097088D02*
X65018390Y34001850D01*
X65018390Y34001850D02*
X65066009Y33954231D01*
X65066009Y33954231D02*
X65161247Y33906612D01*
X65161247Y33906612D02*
X65542199Y33906612D01*
X64542199Y34430421D02*
X64542199Y33620898D01*
X64542199Y33620898D02*
X64494580Y33525660D01*
X64494580Y33525660D02*
X64446961Y33478040D01*
X64446961Y33478040D02*
X64351723Y33430421D01*
X64351723Y33430421D02*
X64161247Y33430421D01*
X64161247Y33430421D02*
X64066009Y33478040D01*
X64066009Y33478040D02*
X64018390Y33525660D01*
X64018390Y33525660D02*
X63970771Y33620898D01*
X63970771Y33620898D02*
X63970771Y34430421D01*
X63589818Y34430421D02*
X62970771Y34430421D01*
X62970771Y34430421D02*
X63304104Y34049469D01*
X63304104Y34049469D02*
X63161247Y34049469D01*
X63161247Y34049469D02*
X63066009Y34001850D01*
X63066009Y34001850D02*
X63018390Y33954231D01*
X63018390Y33954231D02*
X62970771Y33858993D01*
X62970771Y33858993D02*
X62970771Y33620898D01*
X62970771Y33620898D02*
X63018390Y33525660D01*
X63018390Y33525660D02*
X63066009Y33478040D01*
X63066009Y33478040D02*
X63161247Y33430421D01*
X63161247Y33430421D02*
X63446961Y33430421D01*
X63446961Y33430421D02*
X63542199Y33478040D01*
X63542199Y33478040D02*
X63589818Y33525660D01*
X62637437Y34430421D02*
X62018390Y34430421D01*
X62018390Y34430421D02*
X62351723Y34049469D01*
X62351723Y34049469D02*
X62208866Y34049469D01*
X62208866Y34049469D02*
X62113628Y34001850D01*
X62113628Y34001850D02*
X62066009Y33954231D01*
X62066009Y33954231D02*
X62018390Y33858993D01*
X62018390Y33858993D02*
X62018390Y33620898D01*
X62018390Y33620898D02*
X62066009Y33525660D01*
X62066009Y33525660D02*
X62113628Y33478040D01*
X62113628Y33478040D02*
X62208866Y33430421D01*
X62208866Y33430421D02*
X62494580Y33430421D01*
X62494580Y33430421D02*
X62589818Y33478040D01*
X62589818Y33478040D02*
X62637437Y33525660D01*
X61018390Y33430421D02*
X61351723Y33906612D01*
X61589818Y33430421D02*
X61589818Y34430421D01*
X61589818Y34430421D02*
X61208866Y34430421D01*
X61208866Y34430421D02*
X61113628Y34382802D01*
X61113628Y34382802D02*
X61066009Y34335183D01*
X61066009Y34335183D02*
X61018390Y34239945D01*
X61018390Y34239945D02*
X61018390Y34097088D01*
X61018390Y34097088D02*
X61066009Y34001850D01*
X61066009Y34001850D02*
X61113628Y33954231D01*
X61113628Y33954231D02*
X61208866Y33906612D01*
X61208866Y33906612D02*
X61589818Y33906612D01*
X76304104Y32820477D02*
X75970771Y31820477D01*
X75970771Y31820477D02*
X75637438Y32820477D01*
X75304104Y31820477D02*
X75304104Y32820477D01*
X74827914Y31820477D02*
X74827914Y32820477D01*
X74827914Y32820477D02*
X74256486Y31820477D01*
X74256486Y31820477D02*
X74256486Y32820477D01*
X73780295Y31915716D02*
X73732676Y31868096D01*
X73732676Y31868096D02*
X73780295Y31820477D01*
X73780295Y31820477D02*
X73827914Y31868096D01*
X73827914Y31868096D02*
X73780295Y31915716D01*
X73780295Y31915716D02*
X73780295Y31820477D01*
X73780295Y32439525D02*
X73732676Y32391906D01*
X73732676Y32391906D02*
X73780295Y32344287D01*
X73780295Y32344287D02*
X73827914Y32391906D01*
X73827914Y32391906D02*
X73780295Y32439525D01*
X73780295Y32439525D02*
X73780295Y32344287D01*
X72589819Y32725239D02*
X72542200Y32772858D01*
X72542200Y32772858D02*
X72446962Y32820477D01*
X72446962Y32820477D02*
X72208867Y32820477D01*
X72208867Y32820477D02*
X72113629Y32772858D01*
X72113629Y32772858D02*
X72066010Y32725239D01*
X72066010Y32725239D02*
X72018391Y32630001D01*
X72018391Y32630001D02*
X72018391Y32534763D01*
X72018391Y32534763D02*
X72066010Y32391906D01*
X72066010Y32391906D02*
X72637438Y31820477D01*
X72637438Y31820477D02*
X72018391Y31820477D01*
X71589819Y31915716D02*
X71542200Y31868096D01*
X71542200Y31868096D02*
X71589819Y31820477D01*
X71589819Y31820477D02*
X71637438Y31868096D01*
X71637438Y31868096D02*
X71589819Y31915716D01*
X71589819Y31915716D02*
X71589819Y31820477D01*
X71208867Y32820477D02*
X70542201Y32820477D01*
X70542201Y32820477D02*
X70970772Y31820477D01*
X69542200Y32487144D02*
X69161248Y32487144D01*
X69399343Y32820477D02*
X69399343Y31963335D01*
X69399343Y31963335D02*
X69351724Y31868096D01*
X69351724Y31868096D02*
X69256486Y31820477D01*
X69256486Y31820477D02*
X69161248Y31820477D01*
X68685057Y31820477D02*
X68780295Y31868096D01*
X68780295Y31868096D02*
X68827914Y31915716D01*
X68827914Y31915716D02*
X68875533Y32010954D01*
X68875533Y32010954D02*
X68875533Y32296668D01*
X68875533Y32296668D02*
X68827914Y32391906D01*
X68827914Y32391906D02*
X68780295Y32439525D01*
X68780295Y32439525D02*
X68685057Y32487144D01*
X68685057Y32487144D02*
X68542200Y32487144D01*
X68542200Y32487144D02*
X68446962Y32439525D01*
X68446962Y32439525D02*
X68399343Y32391906D01*
X68399343Y32391906D02*
X68351724Y32296668D01*
X68351724Y32296668D02*
X68351724Y32010954D01*
X68351724Y32010954D02*
X68399343Y31915716D01*
X68399343Y31915716D02*
X68446962Y31868096D01*
X68446962Y31868096D02*
X68542200Y31820477D01*
X68542200Y31820477D02*
X68685057Y31820477D01*
X66732676Y32820477D02*
X66923152Y32820477D01*
X66923152Y32820477D02*
X67018390Y32772858D01*
X67018390Y32772858D02*
X67066009Y32725239D01*
X67066009Y32725239D02*
X67161247Y32582382D01*
X67161247Y32582382D02*
X67208866Y32391906D01*
X67208866Y32391906D02*
X67208866Y32010954D01*
X67208866Y32010954D02*
X67161247Y31915716D01*
X67161247Y31915716D02*
X67113628Y31868096D01*
X67113628Y31868096D02*
X67018390Y31820477D01*
X67018390Y31820477D02*
X66827914Y31820477D01*
X66827914Y31820477D02*
X66732676Y31868096D01*
X66732676Y31868096D02*
X66685057Y31915716D01*
X66685057Y31915716D02*
X66637438Y32010954D01*
X66637438Y32010954D02*
X66637438Y32249049D01*
X66637438Y32249049D02*
X66685057Y32344287D01*
X66685057Y32344287D02*
X66732676Y32391906D01*
X66732676Y32391906D02*
X66827914Y32439525D01*
X66827914Y32439525D02*
X67018390Y32439525D01*
X67018390Y32439525D02*
X67113628Y32391906D01*
X67113628Y32391906D02*
X67161247Y32344287D01*
X67161247Y32344287D02*
X67208866Y32249049D01*
X66208866Y31915716D02*
X66161247Y31868096D01*
X66161247Y31868096D02*
X66208866Y31820477D01*
X66208866Y31820477D02*
X66256485Y31868096D01*
X66256485Y31868096D02*
X66208866Y31915716D01*
X66208866Y31915716D02*
X66208866Y31820477D01*
X65256486Y32820477D02*
X65732676Y32820477D01*
X65732676Y32820477D02*
X65780295Y32344287D01*
X65780295Y32344287D02*
X65732676Y32391906D01*
X65732676Y32391906D02*
X65637438Y32439525D01*
X65637438Y32439525D02*
X65399343Y32439525D01*
X65399343Y32439525D02*
X65304105Y32391906D01*
X65304105Y32391906D02*
X65256486Y32344287D01*
X65256486Y32344287D02*
X65208867Y32249049D01*
X65208867Y32249049D02*
X65208867Y32010954D01*
X65208867Y32010954D02*
X65256486Y31915716D01*
X65256486Y31915716D02*
X65304105Y31868096D01*
X65304105Y31868096D02*
X65399343Y31820477D01*
X65399343Y31820477D02*
X65637438Y31820477D01*
X65637438Y31820477D02*
X65732676Y31868096D01*
X65732676Y31868096D02*
X65780295Y31915716D01*
X64923152Y32820477D02*
X64589819Y31820477D01*
X64589819Y31820477D02*
X64256486Y32820477D01*
D12*
%TO.C,G\u002A\u002A\u002A*%
G36*
X85896826Y37994518D02*
G01*
X85896826Y36389614D01*
X85545067Y36389614D01*
X85193307Y36389614D01*
X85193307Y36879309D01*
X85193307Y37369004D01*
X84757271Y37375172D01*
X84718323Y37375734D01*
X84598028Y37377726D01*
X84501844Y37379934D01*
X84425716Y37382641D01*
X84365589Y37386125D01*
X84317407Y37390667D01*
X84277115Y37396549D01*
X84240659Y37404050D01*
X84203982Y37413452D01*
X84133070Y37434801D01*
X83962348Y37504569D01*
X83812382Y37594323D01*
X83683781Y37703491D01*
X83577152Y37831500D01*
X83493101Y37977775D01*
X83432237Y38141746D01*
X83414838Y38224687D01*
X83402896Y38331914D01*
X83397838Y38449517D01*
X83398305Y38478188D01*
X84087129Y38478188D01*
X84088596Y38404202D01*
X84093551Y38347790D01*
X84103278Y38303460D01*
X84119070Y38262483D01*
X84139041Y38224348D01*
X84203332Y38137950D01*
X84285206Y38062917D01*
X84376427Y38007409D01*
X84467802Y37965205D01*
X84830554Y37960824D01*
X85193307Y37956444D01*
X85193307Y38478386D01*
X85193307Y39000329D01*
X84823226Y38995750D01*
X84453145Y38991172D01*
X84374875Y38949949D01*
X84273584Y38883799D01*
X84188571Y38800896D01*
X84127334Y38707441D01*
X84113597Y38678198D01*
X84099430Y38639996D01*
X84091370Y38600047D01*
X84087806Y38549171D01*
X84087129Y38478188D01*
X83398305Y38478188D01*
X83399771Y38568129D01*
X83408802Y38678384D01*
X83425039Y38770917D01*
X83429620Y38788772D01*
X83486822Y38948638D01*
X83568978Y39097760D01*
X83673118Y39232785D01*
X83796275Y39350358D01*
X83935480Y39447125D01*
X84087764Y39519732D01*
X84130916Y39535352D01*
X84176597Y39549926D01*
X84223548Y39562129D01*
X84274571Y39572167D01*
X84332472Y39580248D01*
X84400056Y39586579D01*
X84480125Y39591367D01*
X84575485Y39594820D01*
X84688939Y39597145D01*
X84823292Y39598549D01*
X84981349Y39599239D01*
X85165913Y39599423D01*
X85896826Y39599423D01*
X85896826Y38478386D01*
X85896826Y37994518D01*
G37*
G36*
X87259896Y37657577D02*
G01*
X87259896Y37021231D01*
X87783872Y37016876D01*
X87830944Y37016484D01*
X87959889Y37015338D01*
X88063601Y37014154D01*
X88145170Y37012724D01*
X88207689Y37010839D01*
X88254247Y37008291D01*
X88287936Y37004872D01*
X88311846Y37000372D01*
X88329069Y36994585D01*
X88342694Y36987300D01*
X88355814Y36978310D01*
X88377841Y36959789D01*
X88420128Y36907107D01*
X88450258Y36846324D01*
X88461743Y36789033D01*
X88452694Y36740873D01*
X88427608Y36682445D01*
X88392754Y36627673D01*
X88354432Y36588337D01*
X88343367Y36580943D01*
X88329557Y36574391D01*
X88310852Y36569156D01*
X88284201Y36565053D01*
X88246551Y36561896D01*
X88194850Y36559500D01*
X88126045Y36557679D01*
X88037085Y36556247D01*
X87924916Y36555020D01*
X87786487Y36553811D01*
X87259896Y36549456D01*
X87259896Y35920438D01*
X87259896Y35291420D01*
X87785035Y35287228D01*
X88310173Y35283035D01*
X88362664Y35242982D01*
X88385696Y35223027D01*
X88430702Y35161402D01*
X88452979Y35091685D01*
X88453080Y35019787D01*
X88431559Y34951622D01*
X88388970Y34893100D01*
X88325866Y34850133D01*
X88321030Y34847984D01*
X88302148Y34840786D01*
X88280103Y34835041D01*
X88251625Y34830586D01*
X88213446Y34827254D01*
X88162298Y34824881D01*
X88094910Y34823302D01*
X88008016Y34822351D01*
X87898345Y34821862D01*
X87762631Y34821672D01*
X87261384Y34821350D01*
X87256976Y34209435D01*
X87252568Y33597519D01*
X87213300Y33490018D01*
X87185341Y33419401D01*
X87128567Y33307711D01*
X87057749Y33206906D01*
X86966139Y33106521D01*
X86875117Y33023127D01*
X86782393Y32955642D01*
X86680835Y32900741D01*
X86560205Y32852004D01*
X86431795Y32806059D01*
X85797894Y32801543D01*
X85163993Y32797028D01*
X85163993Y32279400D01*
X85163818Y32176467D01*
X85163184Y32060477D01*
X85162142Y31955341D01*
X85160751Y31864751D01*
X85159071Y31792399D01*
X85157159Y31741976D01*
X85155074Y31717174D01*
X85151310Y31702619D01*
X85120466Y31644358D01*
X85070679Y31593706D01*
X85010098Y31559525D01*
X84981101Y31550789D01*
X84900296Y31544579D01*
X84824967Y31563840D01*
X84760653Y31606504D01*
X84712893Y31670503D01*
X84709335Y31677531D01*
X84701295Y31694681D01*
X84694895Y31712702D01*
X84689987Y31734754D01*
X84686424Y31763996D01*
X84684057Y31803590D01*
X84682739Y31856695D01*
X84682322Y31926470D01*
X84682660Y32016078D01*
X84683603Y32128676D01*
X84685006Y32267427D01*
X84690504Y32798731D01*
X84062505Y32798731D01*
X83434507Y32798731D01*
X83434507Y32255850D01*
X83434463Y32148656D01*
X83434195Y32026929D01*
X83433554Y31929180D01*
X83432397Y31852340D01*
X83430580Y31793341D01*
X83427961Y31749116D01*
X83424396Y31716597D01*
X83419741Y31692715D01*
X83413853Y31674402D01*
X83406588Y31658591D01*
X83399470Y31645851D01*
X83351718Y31591918D01*
X83290192Y31558145D01*
X83220881Y31544218D01*
X83149776Y31549824D01*
X83082867Y31574647D01*
X83026141Y31618374D01*
X82985590Y31680689D01*
X82981145Y31694829D01*
X82976444Y31722572D01*
X82972717Y31763718D01*
X82969873Y31820918D01*
X82967820Y31896825D01*
X82966466Y31994089D01*
X82965721Y32115361D01*
X82965494Y32263292D01*
X82965494Y32798731D01*
X82343089Y32798731D01*
X81720685Y32798731D01*
X81716517Y32242832D01*
X81716146Y32193808D01*
X81715043Y32060189D01*
X81713878Y31951970D01*
X81712477Y31866192D01*
X81710668Y31799896D01*
X81708275Y31750124D01*
X81705127Y31713918D01*
X81701049Y31688318D01*
X81695868Y31670366D01*
X81689410Y31657104D01*
X81681503Y31645573D01*
X81638805Y31601159D01*
X81567237Y31561225D01*
X81485170Y31547277D01*
X81423877Y31554928D01*
X81348997Y31588314D01*
X81288837Y31645573D01*
X81286117Y31649285D01*
X81278697Y31661052D01*
X81272670Y31675504D01*
X81267864Y31695600D01*
X81264105Y31724299D01*
X81261219Y31764560D01*
X81259034Y31819340D01*
X81257375Y31891599D01*
X81256069Y31984294D01*
X81254944Y32100386D01*
X81253824Y32242832D01*
X81249656Y32798731D01*
X80663275Y32798731D01*
X80597721Y32798761D01*
X80452633Y32799139D01*
X80332537Y32800028D01*
X80234346Y32801531D01*
X80154973Y32803750D01*
X80091331Y32806786D01*
X80040334Y32810742D01*
X79998894Y32815720D01*
X79963924Y32821820D01*
X79890569Y32839479D01*
X79727967Y32899261D01*
X79579675Y32983366D01*
X79447874Y33089856D01*
X79334748Y33216790D01*
X79242481Y33362230D01*
X79173256Y33524236D01*
X79133874Y33641489D01*
X79128627Y34231420D01*
X79123379Y34821350D01*
X78625616Y34821350D01*
X78543144Y34821377D01*
X78414368Y34821744D01*
X78310116Y34822918D01*
X78227300Y34825361D01*
X78162831Y34829536D01*
X78113621Y34835906D01*
X78076581Y34844936D01*
X78048622Y34857087D01*
X78026656Y34872822D01*
X78007594Y34892606D01*
X77988347Y34916901D01*
X77973854Y34938641D01*
X77954880Y34990945D01*
X79595201Y34990945D01*
X79595359Y34791353D01*
X79595752Y34612247D01*
X79596417Y34452436D01*
X79597386Y34310729D01*
X79598696Y34185935D01*
X79600380Y34076863D01*
X79602474Y33982321D01*
X79605012Y33901120D01*
X79608029Y33832067D01*
X79611559Y33773971D01*
X79615638Y33725643D01*
X79620300Y33685890D01*
X79625580Y33653521D01*
X79631512Y33627346D01*
X79638132Y33606173D01*
X79645473Y33588812D01*
X79653571Y33574071D01*
X79662461Y33560759D01*
X79672176Y33547685D01*
X79682752Y33533659D01*
X79694224Y33517489D01*
X79706540Y33499971D01*
X79788934Y33407827D01*
X79886103Y33334160D01*
X79991156Y33284381D01*
X80083822Y33253087D01*
X83206510Y33253875D01*
X83485120Y33253951D01*
X83820346Y33254064D01*
X84128361Y33254203D01*
X84410349Y33254377D01*
X84667496Y33254597D01*
X84900987Y33254872D01*
X85112007Y33255213D01*
X85301742Y33255628D01*
X85471376Y33256129D01*
X85622095Y33256725D01*
X85755085Y33257426D01*
X85871530Y33258241D01*
X85972615Y33259181D01*
X86059526Y33260256D01*
X86133449Y33261474D01*
X86195567Y33262847D01*
X86247067Y33264384D01*
X86289134Y33266095D01*
X86322953Y33267990D01*
X86349709Y33270078D01*
X86370588Y33272370D01*
X86386774Y33274876D01*
X86399453Y33277605D01*
X86409810Y33280567D01*
X86506603Y33320965D01*
X86612310Y33392052D01*
X86698445Y33483651D01*
X86762933Y33593456D01*
X86803702Y33719158D01*
X86804705Y33724416D01*
X86809762Y33768974D01*
X86814035Y33837041D01*
X86817328Y33923724D01*
X86819447Y34024126D01*
X86820196Y34133353D01*
X86820196Y34469880D01*
X85438806Y34468930D01*
X85195872Y34468613D01*
X84963060Y34467980D01*
X84752540Y34467049D01*
X84565191Y34465829D01*
X84401889Y34464330D01*
X84263512Y34462562D01*
X84150937Y34460533D01*
X84065042Y34458254D01*
X84006705Y34455734D01*
X83976803Y34452982D01*
X83952949Y34448291D01*
X83902143Y34435548D01*
X83855914Y34418260D01*
X83810117Y34393659D01*
X83760609Y34358976D01*
X83703245Y34311442D01*
X83633881Y34248288D01*
X83548372Y34166745D01*
X83462891Y34085475D01*
X83384340Y34014523D01*
X83317742Y33959840D01*
X83259031Y33918595D01*
X83204141Y33887955D01*
X83149007Y33865089D01*
X83089563Y33847165D01*
X83054802Y33841705D01*
X82992861Y33836657D01*
X82908719Y33832379D01*
X82806032Y33828870D01*
X82688457Y33826133D01*
X82559652Y33824166D01*
X82423272Y33822970D01*
X82282976Y33822546D01*
X82142420Y33822894D01*
X82005260Y33824015D01*
X81875154Y33825909D01*
X81755759Y33828576D01*
X81650731Y33832016D01*
X81563728Y33836231D01*
X81498406Y33841221D01*
X81458423Y33846985D01*
X81412657Y33858909D01*
X81323545Y33890931D01*
X81240897Y33935226D01*
X81157476Y33996048D01*
X81066045Y34077652D01*
X80931577Y34206025D01*
X80838610Y34182208D01*
X80734228Y34166572D01*
X80619273Y34174977D01*
X80511275Y34209489D01*
X80413846Y34268403D01*
X80330599Y34350017D01*
X80265145Y34452627D01*
X80252703Y34478457D01*
X80233815Y34523793D01*
X80223154Y34565497D01*
X80218434Y34614540D01*
X80217369Y34681893D01*
X80217374Y34682571D01*
X80576457Y34682571D01*
X80582001Y34641541D01*
X80608523Y34586775D01*
X80651866Y34549103D01*
X80707426Y34530177D01*
X80761836Y34536364D01*
X80812091Y34571060D01*
X80839989Y34607806D01*
X80857193Y34666117D01*
X80847275Y34725547D01*
X80810284Y34780315D01*
X80779233Y34807576D01*
X80749990Y34818806D01*
X80711351Y34816338D01*
X80668414Y34801471D01*
X80622718Y34768437D01*
X80589370Y34726130D01*
X80576457Y34682571D01*
X80217374Y34682571D01*
X80217711Y34728821D01*
X80220563Y34780788D01*
X80228287Y34820840D01*
X80243205Y34859362D01*
X80267639Y34906740D01*
X80275703Y34921138D01*
X80348210Y35020163D01*
X80435720Y35096339D01*
X80534521Y35149053D01*
X80640900Y35177689D01*
X80751146Y35181634D01*
X80861545Y35160273D01*
X80968386Y35112991D01*
X81067955Y35039175D01*
X81129421Y34970234D01*
X81185971Y34870056D01*
X81218330Y34759497D01*
X81223796Y34666117D01*
X81225105Y34643754D01*
X81204904Y34528024D01*
X81188406Y34472956D01*
X81300993Y34365012D01*
X81332512Y34334342D01*
X81366353Y34301203D01*
X81396386Y34273577D01*
X81425372Y34250966D01*
X81456069Y34232871D01*
X81491239Y34218796D01*
X81533640Y34208241D01*
X81586032Y34200709D01*
X81651175Y34195702D01*
X81731829Y34192723D01*
X81830754Y34191272D01*
X81950709Y34190852D01*
X82094454Y34190965D01*
X82264750Y34191114D01*
X82377802Y34191167D01*
X82531808Y34191490D01*
X82660364Y34192161D01*
X82765823Y34193242D01*
X82850539Y34194796D01*
X82916867Y34196886D01*
X82967161Y34199574D01*
X83003774Y34202922D01*
X83029062Y34206993D01*
X83045377Y34211850D01*
X83047471Y34212812D01*
X83075432Y34231490D01*
X83119601Y34266846D01*
X83175868Y34315350D01*
X83240124Y34373473D01*
X83308259Y34437683D01*
X83340193Y34468221D01*
X83433324Y34554469D01*
X83513021Y34622751D01*
X83583723Y34676243D01*
X83649871Y34718123D01*
X83715906Y34751568D01*
X83786267Y34779756D01*
X83881535Y34814022D01*
X85350866Y34818027D01*
X86820196Y34822031D01*
X86820196Y35034456D01*
X86820196Y35246881D01*
X85153001Y35242973D01*
X83485805Y35239065D01*
X83407337Y35197742D01*
X83391838Y35188588D01*
X83344555Y35154759D01*
X83284064Y35105926D01*
X83215379Y35046232D01*
X83143517Y34979820D01*
X83131400Y34968288D01*
X83049002Y34890935D01*
X82982124Y34830991D01*
X82926364Y34785317D01*
X82877318Y34750777D01*
X82830585Y34724233D01*
X82781761Y34702547D01*
X82726443Y34682581D01*
X82656374Y34664056D01*
X82548250Y34648512D01*
X82434138Y34643974D01*
X82324965Y34650738D01*
X82231656Y34669103D01*
X82222345Y34671876D01*
X82180629Y34684808D01*
X82142720Y34698242D01*
X82106577Y34713864D01*
X82070154Y34733360D01*
X82031409Y34758417D01*
X81988296Y34790721D01*
X81938773Y34831958D01*
X81880795Y34883815D01*
X81812319Y34947977D01*
X81731300Y35026132D01*
X81635696Y35119965D01*
X81523461Y35231163D01*
X81392552Y35361413D01*
X81323362Y35430492D01*
X81216881Y35537518D01*
X81117055Y35638712D01*
X81025915Y35731965D01*
X80945493Y35815172D01*
X80877820Y35886226D01*
X80824927Y35943020D01*
X80788846Y35983447D01*
X80771607Y36005401D01*
X80743108Y36060913D01*
X80709989Y36148742D01*
X80687404Y36238317D01*
X80679054Y36317171D01*
X80679054Y36388683D01*
X80506838Y36392813D01*
X80334622Y36396942D01*
X80334622Y37994518D01*
X80334622Y39592095D01*
X80682718Y39596024D01*
X81030814Y39599954D01*
X81030814Y38947467D01*
X81030814Y38294980D01*
X81646394Y38294980D01*
X82261974Y38294980D01*
X82261974Y38947202D01*
X82261974Y39599423D01*
X82621062Y39599423D01*
X82980150Y39599423D01*
X82980150Y37994518D01*
X82980150Y36389614D01*
X82621062Y36389614D01*
X82261974Y36389614D01*
X82261974Y37041835D01*
X82261974Y37694057D01*
X81646394Y37694057D01*
X81030814Y37694057D01*
X81031423Y37016186D01*
X81031475Y36966250D01*
X81031772Y36813141D01*
X81032321Y36685827D01*
X81033218Y36581586D01*
X81034556Y36497693D01*
X81036428Y36431427D01*
X81038927Y36380064D01*
X81042148Y36340880D01*
X81046184Y36311154D01*
X81051127Y36288161D01*
X81057072Y36269180D01*
X81061346Y36258868D01*
X81072293Y36239005D01*
X81089380Y36214434D01*
X81114240Y36183391D01*
X81148511Y36144110D01*
X81193828Y36094827D01*
X81251827Y36033776D01*
X81324144Y35959193D01*
X81412415Y35869312D01*
X81518275Y35762368D01*
X81643361Y35636596D01*
X81705828Y35573964D01*
X81833142Y35446941D01*
X81941927Y35339422D01*
X82033398Y35250254D01*
X82108772Y35178286D01*
X82169263Y35122366D01*
X82216088Y35081342D01*
X82250461Y35054063D01*
X82273598Y35039376D01*
X82285281Y35034041D01*
X82366173Y35011280D01*
X82458260Y35003836D01*
X82549654Y35011841D01*
X82628466Y35035428D01*
X82642192Y35042857D01*
X82686372Y35073724D01*
X82745696Y35121627D01*
X82816646Y35183650D01*
X82895704Y35256878D01*
X82899565Y35260544D01*
X82982284Y35337584D01*
X83050034Y35397012D01*
X83107541Y35442583D01*
X83159536Y35478056D01*
X83210747Y35507186D01*
X83233852Y35519276D01*
X83261814Y35533783D01*
X83288429Y35546708D01*
X83315401Y35558144D01*
X83344433Y35568180D01*
X83377228Y35576909D01*
X83415489Y35584421D01*
X83460920Y35590807D01*
X83515225Y35596159D01*
X83580106Y35600567D01*
X83657267Y35604124D01*
X83748411Y35606919D01*
X83855241Y35609044D01*
X83979462Y35610590D01*
X84122776Y35611648D01*
X84286886Y35612309D01*
X84473497Y35612665D01*
X84684310Y35612807D01*
X84921030Y35612825D01*
X85185360Y35612810D01*
X86820196Y35612810D01*
X86820196Y37714736D01*
X86820188Y37969997D01*
X86820146Y38235717D01*
X86820053Y38474884D01*
X86819890Y38688971D01*
X86819638Y38879452D01*
X86819279Y39047798D01*
X86818794Y39195484D01*
X86818164Y39323981D01*
X86817371Y39434762D01*
X86816397Y39529302D01*
X86815223Y39609071D01*
X86813830Y39675544D01*
X86812199Y39730192D01*
X86810313Y39774490D01*
X86808152Y39809909D01*
X86805699Y39837923D01*
X86802934Y39860005D01*
X86799838Y39877626D01*
X86796394Y39892261D01*
X86792583Y39905382D01*
X86752105Y40009896D01*
X86694299Y40104761D01*
X86615769Y40190883D01*
X86548144Y40245544D01*
X86432144Y40309234D01*
X86304921Y40347222D01*
X86294711Y40348284D01*
X86253420Y40350104D01*
X86183118Y40351755D01*
X86084002Y40353236D01*
X85956267Y40354546D01*
X85800109Y40355684D01*
X85615724Y40356651D01*
X85403307Y40357445D01*
X85163055Y40358065D01*
X84895163Y40358511D01*
X84599827Y40358783D01*
X84277243Y40358879D01*
X83927607Y40358799D01*
X83551114Y40358542D01*
X83147961Y40358108D01*
X80070802Y40354241D01*
X79971633Y40307419D01*
X79894747Y40264135D01*
X79795688Y40186653D01*
X79711276Y40094928D01*
X79648843Y39996033D01*
X79601789Y39899885D01*
X79597483Y36836642D01*
X79597266Y36685404D01*
X79596737Y36337884D01*
X79596236Y36017995D01*
X79595797Y35724548D01*
X79595455Y35456352D01*
X79595245Y35212214D01*
X79595201Y34990945D01*
X77954880Y34990945D01*
X77948570Y35008341D01*
X77947267Y35082221D01*
X77968327Y35153537D01*
X78010131Y35215546D01*
X78071061Y35261506D01*
X78077858Y35264867D01*
X78095128Y35272017D01*
X78115750Y35277694D01*
X78142968Y35282067D01*
X78180028Y35285304D01*
X78230175Y35287575D01*
X78296654Y35289048D01*
X78382711Y35289891D01*
X78491590Y35290274D01*
X78626537Y35290364D01*
X79125447Y35290364D01*
X79125447Y35919902D01*
X79125447Y36549440D01*
X78606185Y36553802D01*
X78486243Y36554856D01*
X78371670Y36556080D01*
X78280691Y36557486D01*
X78210236Y36559265D01*
X78157233Y36561606D01*
X78118609Y36564699D01*
X78091293Y36568733D01*
X78072213Y36573899D01*
X78058297Y36580386D01*
X78046473Y36588384D01*
X78033791Y36598312D01*
X77976111Y36661461D01*
X77945889Y36732398D01*
X77943743Y36808700D01*
X77970289Y36887940D01*
X77973038Y36893180D01*
X78013137Y36948132D01*
X78069609Y36986873D01*
X78085038Y36994395D01*
X78103352Y37001814D01*
X78124512Y37007630D01*
X78151827Y37012040D01*
X78188604Y37015237D01*
X78238152Y37017417D01*
X78303780Y37018773D01*
X78388797Y37019501D01*
X78496509Y37019795D01*
X78630226Y37019850D01*
X79125447Y37019850D01*
X79125447Y37657415D01*
X79125447Y38294980D01*
X78630785Y38295302D01*
X78624309Y38295306D01*
X78490404Y38295522D01*
X78382395Y38296068D01*
X78297007Y38297106D01*
X78230965Y38298800D01*
X78180996Y38301311D01*
X78143823Y38304802D01*
X78116173Y38309435D01*
X78094772Y38315371D01*
X78076344Y38322774D01*
X78015404Y38360499D01*
X77968458Y38418629D01*
X77944594Y38494351D01*
X77943109Y38543722D01*
X77962701Y38617400D01*
X78005876Y38681687D01*
X78069168Y38730024D01*
X78086153Y38738710D01*
X78103880Y38746153D01*
X78124544Y38751970D01*
X78151443Y38756361D01*
X78187873Y38759528D01*
X78237132Y38761669D01*
X78302517Y38762986D01*
X78387323Y38763679D01*
X78494849Y38763948D01*
X78628392Y38763993D01*
X79123379Y38763993D01*
X79128757Y39353924D01*
X79129541Y39438469D01*
X79130907Y39571286D01*
X79132346Y39679681D01*
X79134037Y39766812D01*
X79136156Y39835834D01*
X79138884Y39889904D01*
X79142397Y39932179D01*
X79146875Y39965815D01*
X79152496Y39993968D01*
X79159438Y40019794D01*
X79167879Y40046451D01*
X79205451Y40145426D01*
X79289454Y40304151D01*
X79396034Y40445680D01*
X79523296Y40568018D01*
X79669347Y40669166D01*
X79832292Y40747128D01*
X79953549Y40793782D01*
X80598442Y40801190D01*
X81243335Y40808598D01*
X81250664Y41360838D01*
X81251086Y41392531D01*
X81252985Y41528858D01*
X81254791Y41639457D01*
X81256692Y41727298D01*
X81258879Y41795352D01*
X81261542Y41846587D01*
X81264872Y41883974D01*
X81269058Y41910483D01*
X81274290Y41929082D01*
X81280758Y41942742D01*
X81288653Y41954433D01*
X81295802Y41963809D01*
X81354703Y42021821D01*
X81420501Y42052667D01*
X81496771Y42058128D01*
X81563058Y42045735D01*
X81626612Y42012063D01*
X81682130Y41953522D01*
X81684184Y41950729D01*
X81691569Y41939094D01*
X81697578Y41924730D01*
X81702380Y41904686D01*
X81706145Y41876007D01*
X81709045Y41835738D01*
X81711249Y41780926D01*
X81712928Y41708617D01*
X81714252Y41615857D01*
X81715392Y41499692D01*
X81716517Y41357169D01*
X81720685Y40801270D01*
X82343089Y40801270D01*
X82965494Y40801270D01*
X82965494Y41333132D01*
X82965495Y41369145D01*
X82965574Y41501546D01*
X82965903Y41608553D01*
X82966656Y41693325D01*
X82968007Y41759022D01*
X82970132Y41808803D01*
X82973205Y41845827D01*
X82977401Y41873252D01*
X82982894Y41894239D01*
X82989859Y41911947D01*
X82998471Y41929533D01*
X83010060Y41950733D01*
X83055645Y42008655D01*
X83113009Y42042913D01*
X83188400Y42057724D01*
X83266606Y42052995D01*
X83339125Y42023031D01*
X83397393Y41967599D01*
X83398825Y41965657D01*
X83406207Y41954053D01*
X83412256Y41939587D01*
X83417154Y41919320D01*
X83421083Y41890313D01*
X83424226Y41849628D01*
X83426764Y41794325D01*
X83428879Y41721466D01*
X83430753Y41628112D01*
X83432569Y41511323D01*
X83434507Y41368162D01*
X83441835Y40808598D01*
X84061140Y40808598D01*
X84680445Y40808598D01*
X84684048Y41360825D01*
X84684323Y41402546D01*
X84685295Y41536972D01*
X84686349Y41645870D01*
X84687657Y41732209D01*
X84689391Y41798959D01*
X84691723Y41849091D01*
X84694823Y41885574D01*
X84698863Y41911379D01*
X84704016Y41929475D01*
X84710452Y41942832D01*
X84718343Y41954420D01*
X84719082Y41955412D01*
X84780782Y42014943D01*
X84856233Y42049621D01*
X84941087Y42057436D01*
X85009237Y42045014D01*
X85071562Y42011679D01*
X85126446Y41953522D01*
X85128442Y41950810D01*
X85135842Y41939176D01*
X85141863Y41924834D01*
X85146674Y41904828D01*
X85150447Y41876203D01*
X85153351Y41836001D01*
X85155559Y41781268D01*
X85157240Y41709046D01*
X85158566Y41616379D01*
X85159706Y41500312D01*
X85160831Y41357889D01*
X85164997Y40802710D01*
X85798396Y40797906D01*
X86431795Y40793103D01*
X86537985Y40754113D01*
X86566775Y40743281D01*
X86695745Y40686321D01*
X86805560Y40621286D01*
X86904613Y40543353D01*
X86961421Y40489957D01*
X87067924Y40368378D01*
X87152670Y40235510D01*
X87220856Y40083798D01*
X87225419Y40071296D01*
X87232152Y40049887D01*
X87237677Y40025853D01*
X87242147Y39996229D01*
X87245712Y39958049D01*
X87248522Y39908347D01*
X87250731Y39844159D01*
X87252487Y39762520D01*
X87253943Y39660463D01*
X87255250Y39535024D01*
X87256558Y39383237D01*
X87261632Y38763993D01*
X87762755Y38763671D01*
X87800854Y38763641D01*
X87929441Y38763389D01*
X88032836Y38762796D01*
X88114310Y38761696D01*
X88177131Y38759925D01*
X88224568Y38757317D01*
X88259891Y38753706D01*
X88286369Y38748929D01*
X88307271Y38742818D01*
X88325866Y38735210D01*
X88352080Y38721183D01*
X88407500Y38671645D01*
X88442195Y38608785D01*
X88455613Y38538515D01*
X88447200Y38466747D01*
X88416402Y38399392D01*
X88362664Y38342362D01*
X88310173Y38302308D01*
X87785035Y38298116D01*
X87259896Y38293924D01*
X87259896Y37714736D01*
X87259896Y37657577D01*
G37*
%TD*%
M02*
