%TF.GenerationSoftware,KiCad,Pcbnew,8.0.6*%
%TF.CreationDate,2025-12-15T22:17:45-08:00*%
%TF.ProjectId,Bluetooth_Board,426c7565-746f-46f7-9468-5f426f617264,B*%
%TF.SameCoordinates,PX5f5e100PY7270e00*%
%TF.FileFunction,Soldermask,Bot*%
%TF.FilePolarity,Negative*%
%FSLAX46Y46*%
G04 Gerber Fmt 4.6, Leading zero omitted, Abs format (unit mm)*
G04 Created by KiCad (PCBNEW 8.0.6) date 2025-12-15 22:17:45*
%MOMM*%
%LPD*%
G01*
G04 APERTURE LIST*
%ADD10R,1.700000X1.700000*%
%ADD11O,1.700000X1.700000*%
%ADD12C,6.400000*%
%ADD13R,1.650000X1.650000*%
%ADD14C,1.650000*%
%ADD15C,0.650000*%
%ADD16O,2.100000X1.000000*%
%ADD17O,1.600000X1.000000*%
G04 APERTURE END LIST*
D10*
%TO.C,J4*%
X55580000Y7600000D03*
D11*
X55580000Y5060000D03*
X53040000Y7600000D03*
X53040000Y5060000D03*
X50500000Y7600000D03*
X50500000Y5060000D03*
%TD*%
D10*
%TO.C,J5*%
X41900000Y7600000D03*
D11*
X41900000Y5060000D03*
X39360000Y7600000D03*
X39360000Y5060000D03*
X36820000Y7600000D03*
X36820000Y5060000D03*
%TD*%
D10*
%TO.C,J1*%
X30440000Y7600000D03*
D11*
X30440000Y5060000D03*
X27900000Y7600000D03*
X27900000Y5060000D03*
X25360000Y7600000D03*
X25360000Y5060000D03*
X22820000Y7600000D03*
X22820000Y5060000D03*
X20280000Y7600000D03*
X20280000Y5060000D03*
%TD*%
D10*
%TO.C,J24*%
X7540000Y32080000D03*
D11*
X5000000Y32080000D03*
X7540000Y34620000D03*
X5000000Y34620000D03*
X7540000Y37160000D03*
X5000000Y37160000D03*
X7540000Y39700000D03*
X5000000Y39700000D03*
%TD*%
D10*
%TO.C,J11*%
X45160000Y17300000D03*
D11*
X47700000Y17300000D03*
X50240000Y17300000D03*
%TD*%
D12*
%TO.C,H4*%
X96000000Y4000000D03*
%TD*%
%TO.C,H1*%
X4000000Y46000000D03*
%TD*%
D13*
%TO.C,JST1*%
X18000000Y41550000D03*
D14*
X15500000Y41550000D03*
X13000000Y41550000D03*
%TD*%
D10*
%TO.C,J2*%
X15660000Y28700000D03*
D11*
X18200000Y28700000D03*
X20740000Y28700000D03*
%TD*%
D15*
%TO.C,J7*%
X6250000Y17210000D03*
X6250000Y11430000D03*
D16*
X6780000Y18640000D03*
D17*
X2600000Y18640000D03*
D16*
X6780000Y10000000D03*
D17*
X2600000Y10000000D03*
%TD*%
D12*
%TO.C,H3*%
X4000000Y4000000D03*
%TD*%
%TO.C,H2*%
X96000000Y46000000D03*
%TD*%
M02*
