G04 #@! TF.GenerationSoftware,KiCad,Pcbnew,8.0.6*
G04 #@! TF.CreationDate,2026-01-19T16:17:50-08:00*
G04 #@! TF.ProjectId,Bluetooth_Board,426c7565-746f-46f7-9468-5f426f617264,B*
G04 #@! TF.SameCoordinates,Original*
G04 #@! TF.FileFunction,Legend,Bot*
G04 #@! TF.FilePolarity,Positive*
%FSLAX46Y46*%
G04 Gerber Fmt 4.6, Leading zero omitted, Abs format (unit mm)*
G04 Created by KiCad (PCBNEW 8.0.6) date 2026-01-19 16:17:50*
%MOMM*%
%LPD*%
G01*
G04 APERTURE LIST*
%ADD10C,0.100000*%
%ADD11C,0.153000*%
%ADD12C,0.000000*%
%ADD13R,1.700000X1.700000*%
%ADD14O,1.700000X1.700000*%
%ADD15C,6.400000*%
%ADD16R,1.650000X1.650000*%
%ADD17C,1.650000*%
%ADD18C,0.650000*%
%ADD19O,2.100000X1.000000*%
%ADD20O,1.600000X1.000000*%
G04 APERTURE END LIST*
D10*
X130800000Y-99600000D02*
X131200000Y-98400000D01*
X144100000Y-123600000D02*
X144100000Y-126400000D01*
X125400000Y-103400000D02*
X125700000Y-104500000D01*
X157600000Y-123600000D02*
X157600000Y-126400000D01*
X144100000Y-126400000D02*
X145000000Y-126400000D01*
X157600000Y-126400000D02*
X158500000Y-126400000D01*
X130800000Y-94500000D02*
X127900000Y-94500000D01*
X154500000Y-123600000D02*
X153600000Y-123600000D01*
X130800000Y-94500000D02*
X130800000Y-99600000D01*
X116100000Y-100900000D02*
X118900000Y-100900000D01*
X111400000Y-96800000D02*
X113200000Y-96800000D01*
X125400000Y-103400000D02*
X125100000Y-104500000D01*
X158500000Y-123600000D02*
X157600000Y-123600000D01*
X121000000Y-113200000D02*
X118400000Y-113200000D01*
X168000000Y-126400000D02*
X168000000Y-123600000D01*
X113200000Y-88700000D02*
X113200000Y-99600000D01*
X153600000Y-126400000D02*
X154500000Y-126400000D01*
X128500000Y-120600000D02*
X139100000Y-120600000D01*
X111400000Y-94100000D02*
X113200000Y-94100000D01*
X145000000Y-123600000D02*
X144100000Y-123600000D01*
X128500000Y-123700000D02*
X128500000Y-120600000D01*
X111400000Y-88700000D02*
X113200000Y-88700000D01*
X125400000Y-106700000D02*
X125400000Y-103400000D01*
X127900000Y-90300000D02*
X127900000Y-94500000D01*
X118900000Y-88400000D02*
X118900000Y-87500000D01*
X129200000Y-123700000D02*
X128500000Y-123700000D01*
X121000000Y-106700000D02*
X125400000Y-106700000D01*
X118900000Y-87500000D02*
X116100000Y-87500000D01*
X116100000Y-87500000D02*
X116100000Y-88400000D01*
X113200000Y-99600000D02*
X111400000Y-99600000D01*
X167100000Y-126400000D02*
X168000000Y-126400000D01*
X116100000Y-100000000D02*
X116100000Y-100900000D01*
X121000000Y-113200000D02*
X121000000Y-106700000D01*
X130800000Y-99600000D02*
X130400000Y-98400000D01*
X111400000Y-91300000D02*
X113200000Y-91300000D01*
X139100000Y-120600000D02*
X139100000Y-121200000D01*
X111400000Y-99600000D02*
X111400000Y-88700000D01*
X168000000Y-123600000D02*
X167100000Y-123600000D01*
X154500000Y-126400000D02*
X154500000Y-123600000D01*
X118900000Y-100900000D02*
X118900000Y-100000000D01*
D11*
X147197717Y-119861904D02*
X147245336Y-119957142D01*
X147245336Y-119957142D02*
X147245336Y-120099999D01*
X147245336Y-120099999D02*
X147197717Y-120242856D01*
X147197717Y-120242856D02*
X147102479Y-120338094D01*
X147102479Y-120338094D02*
X147007241Y-120385713D01*
X147007241Y-120385713D02*
X146816765Y-120433332D01*
X146816765Y-120433332D02*
X146673908Y-120433332D01*
X146673908Y-120433332D02*
X146483432Y-120385713D01*
X146483432Y-120385713D02*
X146388194Y-120338094D01*
X146388194Y-120338094D02*
X146292956Y-120242856D01*
X146292956Y-120242856D02*
X146245336Y-120099999D01*
X146245336Y-120099999D02*
X146245336Y-120004761D01*
X146245336Y-120004761D02*
X146292956Y-119861904D01*
X146292956Y-119861904D02*
X146340575Y-119814285D01*
X146340575Y-119814285D02*
X146673908Y-119814285D01*
X146673908Y-119814285D02*
X146673908Y-120004761D01*
X146245336Y-119385713D02*
X147245336Y-119385713D01*
X147245336Y-119385713D02*
X146245336Y-118814285D01*
X146245336Y-118814285D02*
X147245336Y-118814285D01*
X146245336Y-118338094D02*
X147245336Y-118338094D01*
X147245336Y-118338094D02*
X147245336Y-118099999D01*
X147245336Y-118099999D02*
X147197717Y-117957142D01*
X147197717Y-117957142D02*
X147102479Y-117861904D01*
X147102479Y-117861904D02*
X147007241Y-117814285D01*
X147007241Y-117814285D02*
X146816765Y-117766666D01*
X146816765Y-117766666D02*
X146673908Y-117766666D01*
X146673908Y-117766666D02*
X146483432Y-117814285D01*
X146483432Y-117814285D02*
X146388194Y-117861904D01*
X146388194Y-117861904D02*
X146292956Y-117957142D01*
X146292956Y-117957142D02*
X146245336Y-118099999D01*
X146245336Y-118099999D02*
X146245336Y-118338094D01*
X119738095Y-97592956D02*
X119880952Y-97545336D01*
X119880952Y-97545336D02*
X120119047Y-97545336D01*
X120119047Y-97545336D02*
X120214285Y-97592956D01*
X120214285Y-97592956D02*
X120261904Y-97640575D01*
X120261904Y-97640575D02*
X120309523Y-97735813D01*
X120309523Y-97735813D02*
X120309523Y-97831051D01*
X120309523Y-97831051D02*
X120261904Y-97926289D01*
X120261904Y-97926289D02*
X120214285Y-97973908D01*
X120214285Y-97973908D02*
X120119047Y-98021527D01*
X120119047Y-98021527D02*
X119928571Y-98069146D01*
X119928571Y-98069146D02*
X119833333Y-98116765D01*
X119833333Y-98116765D02*
X119785714Y-98164384D01*
X119785714Y-98164384D02*
X119738095Y-98259622D01*
X119738095Y-98259622D02*
X119738095Y-98354860D01*
X119738095Y-98354860D02*
X119785714Y-98450098D01*
X119785714Y-98450098D02*
X119833333Y-98497717D01*
X119833333Y-98497717D02*
X119928571Y-98545336D01*
X119928571Y-98545336D02*
X120166666Y-98545336D01*
X120166666Y-98545336D02*
X120309523Y-98497717D01*
X120642857Y-98545336D02*
X120880952Y-97545336D01*
X120880952Y-97545336D02*
X121071428Y-98259622D01*
X121071428Y-98259622D02*
X121261904Y-97545336D01*
X121261904Y-97545336D02*
X121500000Y-98545336D01*
X122452380Y-97640575D02*
X122404761Y-97592956D01*
X122404761Y-97592956D02*
X122261904Y-97545336D01*
X122261904Y-97545336D02*
X122166666Y-97545336D01*
X122166666Y-97545336D02*
X122023809Y-97592956D01*
X122023809Y-97592956D02*
X121928571Y-97688194D01*
X121928571Y-97688194D02*
X121880952Y-97783432D01*
X121880952Y-97783432D02*
X121833333Y-97973908D01*
X121833333Y-97973908D02*
X121833333Y-98116765D01*
X121833333Y-98116765D02*
X121880952Y-98307241D01*
X121880952Y-98307241D02*
X121928571Y-98402479D01*
X121928571Y-98402479D02*
X122023809Y-98497717D01*
X122023809Y-98497717D02*
X122166666Y-98545336D01*
X122166666Y-98545336D02*
X122261904Y-98545336D01*
X122261904Y-98545336D02*
X122404761Y-98497717D01*
X122404761Y-98497717D02*
X122452380Y-98450098D01*
X123357142Y-97545336D02*
X122880952Y-97545336D01*
X122880952Y-97545336D02*
X122880952Y-98545336D01*
X123690476Y-97545336D02*
X123690476Y-98545336D01*
X124261904Y-97545336D02*
X123833333Y-98116765D01*
X124261904Y-98545336D02*
X123690476Y-97973908D01*
X139845336Y-119938094D02*
X140845336Y-119938094D01*
X140845336Y-119938094D02*
X140845336Y-119557142D01*
X140845336Y-119557142D02*
X140797717Y-119461904D01*
X140797717Y-119461904D02*
X140750098Y-119414285D01*
X140750098Y-119414285D02*
X140654860Y-119366666D01*
X140654860Y-119366666D02*
X140512003Y-119366666D01*
X140512003Y-119366666D02*
X140416765Y-119414285D01*
X140416765Y-119414285D02*
X140369146Y-119461904D01*
X140369146Y-119461904D02*
X140321527Y-119557142D01*
X140321527Y-119557142D02*
X140321527Y-119938094D01*
X140369146Y-118604761D02*
X140321527Y-118461904D01*
X140321527Y-118461904D02*
X140273908Y-118414285D01*
X140273908Y-118414285D02*
X140178670Y-118366666D01*
X140178670Y-118366666D02*
X140035813Y-118366666D01*
X140035813Y-118366666D02*
X139940575Y-118414285D01*
X139940575Y-118414285D02*
X139892956Y-118461904D01*
X139892956Y-118461904D02*
X139845336Y-118557142D01*
X139845336Y-118557142D02*
X139845336Y-118938094D01*
X139845336Y-118938094D02*
X140845336Y-118938094D01*
X140845336Y-118938094D02*
X140845336Y-118604761D01*
X140845336Y-118604761D02*
X140797717Y-118509523D01*
X140797717Y-118509523D02*
X140750098Y-118461904D01*
X140750098Y-118461904D02*
X140654860Y-118414285D01*
X140654860Y-118414285D02*
X140559622Y-118414285D01*
X140559622Y-118414285D02*
X140464384Y-118461904D01*
X140464384Y-118461904D02*
X140416765Y-118509523D01*
X140416765Y-118509523D02*
X140369146Y-118604761D01*
X140369146Y-118604761D02*
X140369146Y-118938094D01*
X140845336Y-118033332D02*
X140845336Y-117366666D01*
X140845336Y-117366666D02*
X139845336Y-117795237D01*
X112707044Y-89171428D02*
X112754663Y-89314285D01*
X112754663Y-89314285D02*
X112754663Y-89552380D01*
X112754663Y-89552380D02*
X112707044Y-89647618D01*
X112707044Y-89647618D02*
X112659424Y-89695237D01*
X112659424Y-89695237D02*
X112564186Y-89742856D01*
X112564186Y-89742856D02*
X112468948Y-89742856D01*
X112468948Y-89742856D02*
X112373710Y-89695237D01*
X112373710Y-89695237D02*
X112326091Y-89647618D01*
X112326091Y-89647618D02*
X112278472Y-89552380D01*
X112278472Y-89552380D02*
X112230853Y-89361904D01*
X112230853Y-89361904D02*
X112183234Y-89266666D01*
X112183234Y-89266666D02*
X112135615Y-89219047D01*
X112135615Y-89219047D02*
X112040377Y-89171428D01*
X112040377Y-89171428D02*
X111945139Y-89171428D01*
X111945139Y-89171428D02*
X111849901Y-89219047D01*
X111849901Y-89219047D02*
X111802282Y-89266666D01*
X111802282Y-89266666D02*
X111754663Y-89361904D01*
X111754663Y-89361904D02*
X111754663Y-89599999D01*
X111754663Y-89599999D02*
X111802282Y-89742856D01*
X112754663Y-90171428D02*
X111754663Y-90171428D01*
X111754663Y-90171428D02*
X111754663Y-90409523D01*
X111754663Y-90409523D02*
X111802282Y-90552380D01*
X111802282Y-90552380D02*
X111897520Y-90647618D01*
X111897520Y-90647618D02*
X111992758Y-90695237D01*
X111992758Y-90695237D02*
X112183234Y-90742856D01*
X112183234Y-90742856D02*
X112326091Y-90742856D01*
X112326091Y-90742856D02*
X112516567Y-90695237D01*
X112516567Y-90695237D02*
X112611805Y-90647618D01*
X112611805Y-90647618D02*
X112707044Y-90552380D01*
X112707044Y-90552380D02*
X112754663Y-90409523D01*
X112754663Y-90409523D02*
X112754663Y-90171428D01*
X112754663Y-91933333D02*
X111754663Y-91933333D01*
X111754663Y-91933333D02*
X112754663Y-92504761D01*
X112754663Y-92504761D02*
X111754663Y-92504761D01*
X112754663Y-93552380D02*
X112278472Y-93219047D01*
X112754663Y-92980952D02*
X111754663Y-92980952D01*
X111754663Y-92980952D02*
X111754663Y-93361904D01*
X111754663Y-93361904D02*
X111802282Y-93457142D01*
X111802282Y-93457142D02*
X111849901Y-93504761D01*
X111849901Y-93504761D02*
X111945139Y-93552380D01*
X111945139Y-93552380D02*
X112087996Y-93552380D01*
X112087996Y-93552380D02*
X112183234Y-93504761D01*
X112183234Y-93504761D02*
X112230853Y-93457142D01*
X112230853Y-93457142D02*
X112278472Y-93361904D01*
X112278472Y-93361904D02*
X112278472Y-92980952D01*
X112707044Y-94695238D02*
X112754663Y-94838095D01*
X112754663Y-94838095D02*
X112754663Y-95076190D01*
X112754663Y-95076190D02*
X112707044Y-95171428D01*
X112707044Y-95171428D02*
X112659424Y-95219047D01*
X112659424Y-95219047D02*
X112564186Y-95266666D01*
X112564186Y-95266666D02*
X112468948Y-95266666D01*
X112468948Y-95266666D02*
X112373710Y-95219047D01*
X112373710Y-95219047D02*
X112326091Y-95171428D01*
X112326091Y-95171428D02*
X112278472Y-95076190D01*
X112278472Y-95076190D02*
X112230853Y-94885714D01*
X112230853Y-94885714D02*
X112183234Y-94790476D01*
X112183234Y-94790476D02*
X112135615Y-94742857D01*
X112135615Y-94742857D02*
X112040377Y-94695238D01*
X112040377Y-94695238D02*
X111945139Y-94695238D01*
X111945139Y-94695238D02*
X111849901Y-94742857D01*
X111849901Y-94742857D02*
X111802282Y-94790476D01*
X111802282Y-94790476D02*
X111754663Y-94885714D01*
X111754663Y-94885714D02*
X111754663Y-95123809D01*
X111754663Y-95123809D02*
X111802282Y-95266666D01*
X111754663Y-95885714D02*
X111754663Y-96076190D01*
X111754663Y-96076190D02*
X111802282Y-96171428D01*
X111802282Y-96171428D02*
X111897520Y-96266666D01*
X111897520Y-96266666D02*
X112087996Y-96314285D01*
X112087996Y-96314285D02*
X112421329Y-96314285D01*
X112421329Y-96314285D02*
X112611805Y-96266666D01*
X112611805Y-96266666D02*
X112707044Y-96171428D01*
X112707044Y-96171428D02*
X112754663Y-96076190D01*
X112754663Y-96076190D02*
X112754663Y-95885714D01*
X112754663Y-95885714D02*
X112707044Y-95790476D01*
X112707044Y-95790476D02*
X112611805Y-95695238D01*
X112611805Y-95695238D02*
X112421329Y-95647619D01*
X112421329Y-95647619D02*
X112087996Y-95647619D01*
X112087996Y-95647619D02*
X111897520Y-95695238D01*
X111897520Y-95695238D02*
X111802282Y-95790476D01*
X111802282Y-95790476D02*
X111754663Y-95885714D01*
X112707044Y-97457143D02*
X112754663Y-97600000D01*
X112754663Y-97600000D02*
X112754663Y-97838095D01*
X112754663Y-97838095D02*
X112707044Y-97933333D01*
X112707044Y-97933333D02*
X112659424Y-97980952D01*
X112659424Y-97980952D02*
X112564186Y-98028571D01*
X112564186Y-98028571D02*
X112468948Y-98028571D01*
X112468948Y-98028571D02*
X112373710Y-97980952D01*
X112373710Y-97980952D02*
X112326091Y-97933333D01*
X112326091Y-97933333D02*
X112278472Y-97838095D01*
X112278472Y-97838095D02*
X112230853Y-97647619D01*
X112230853Y-97647619D02*
X112183234Y-97552381D01*
X112183234Y-97552381D02*
X112135615Y-97504762D01*
X112135615Y-97504762D02*
X112040377Y-97457143D01*
X112040377Y-97457143D02*
X111945139Y-97457143D01*
X111945139Y-97457143D02*
X111849901Y-97504762D01*
X111849901Y-97504762D02*
X111802282Y-97552381D01*
X111802282Y-97552381D02*
X111754663Y-97647619D01*
X111754663Y-97647619D02*
X111754663Y-97885714D01*
X111754663Y-97885714D02*
X111802282Y-98028571D01*
X112659424Y-99028571D02*
X112707044Y-98980952D01*
X112707044Y-98980952D02*
X112754663Y-98838095D01*
X112754663Y-98838095D02*
X112754663Y-98742857D01*
X112754663Y-98742857D02*
X112707044Y-98600000D01*
X112707044Y-98600000D02*
X112611805Y-98504762D01*
X112611805Y-98504762D02*
X112516567Y-98457143D01*
X112516567Y-98457143D02*
X112326091Y-98409524D01*
X112326091Y-98409524D02*
X112183234Y-98409524D01*
X112183234Y-98409524D02*
X111992758Y-98457143D01*
X111992758Y-98457143D02*
X111897520Y-98504762D01*
X111897520Y-98504762D02*
X111802282Y-98600000D01*
X111802282Y-98600000D02*
X111754663Y-98742857D01*
X111754663Y-98742857D02*
X111754663Y-98838095D01*
X111754663Y-98838095D02*
X111802282Y-98980952D01*
X111802282Y-98980952D02*
X111849901Y-99028571D01*
X170761904Y-124502282D02*
X170857142Y-124454663D01*
X170857142Y-124454663D02*
X170999999Y-124454663D01*
X170999999Y-124454663D02*
X171142856Y-124502282D01*
X171142856Y-124502282D02*
X171238094Y-124597520D01*
X171238094Y-124597520D02*
X171285713Y-124692758D01*
X171285713Y-124692758D02*
X171333332Y-124883234D01*
X171333332Y-124883234D02*
X171333332Y-125026091D01*
X171333332Y-125026091D02*
X171285713Y-125216567D01*
X171285713Y-125216567D02*
X171238094Y-125311805D01*
X171238094Y-125311805D02*
X171142856Y-125407044D01*
X171142856Y-125407044D02*
X170999999Y-125454663D01*
X170999999Y-125454663D02*
X170904761Y-125454663D01*
X170904761Y-125454663D02*
X170761904Y-125407044D01*
X170761904Y-125407044D02*
X170714285Y-125359424D01*
X170714285Y-125359424D02*
X170714285Y-125026091D01*
X170714285Y-125026091D02*
X170904761Y-125026091D01*
X170285713Y-125454663D02*
X170285713Y-124454663D01*
X170285713Y-124454663D02*
X169714285Y-125454663D01*
X169714285Y-125454663D02*
X169714285Y-124454663D01*
X169238094Y-125454663D02*
X169238094Y-124454663D01*
X169238094Y-124454663D02*
X168999999Y-124454663D01*
X168999999Y-124454663D02*
X168857142Y-124502282D01*
X168857142Y-124502282D02*
X168761904Y-124597520D01*
X168761904Y-124597520D02*
X168714285Y-124692758D01*
X168714285Y-124692758D02*
X168666666Y-124883234D01*
X168666666Y-124883234D02*
X168666666Y-125026091D01*
X168666666Y-125026091D02*
X168714285Y-125216567D01*
X168714285Y-125216567D02*
X168761904Y-125311805D01*
X168761904Y-125311805D02*
X168857142Y-125407044D01*
X168857142Y-125407044D02*
X168999999Y-125454663D01*
X168999999Y-125454663D02*
X169238094Y-125454663D01*
X163297717Y-119761904D02*
X163345336Y-119857142D01*
X163345336Y-119857142D02*
X163345336Y-119999999D01*
X163345336Y-119999999D02*
X163297717Y-120142856D01*
X163297717Y-120142856D02*
X163202479Y-120238094D01*
X163202479Y-120238094D02*
X163107241Y-120285713D01*
X163107241Y-120285713D02*
X162916765Y-120333332D01*
X162916765Y-120333332D02*
X162773908Y-120333332D01*
X162773908Y-120333332D02*
X162583432Y-120285713D01*
X162583432Y-120285713D02*
X162488194Y-120238094D01*
X162488194Y-120238094D02*
X162392956Y-120142856D01*
X162392956Y-120142856D02*
X162345336Y-119999999D01*
X162345336Y-119999999D02*
X162345336Y-119904761D01*
X162345336Y-119904761D02*
X162392956Y-119761904D01*
X162392956Y-119761904D02*
X162440575Y-119714285D01*
X162440575Y-119714285D02*
X162773908Y-119714285D01*
X162773908Y-119714285D02*
X162773908Y-119904761D01*
X162345336Y-119285713D02*
X163345336Y-119285713D01*
X163345336Y-119285713D02*
X162345336Y-118714285D01*
X162345336Y-118714285D02*
X163345336Y-118714285D01*
X162345336Y-118238094D02*
X163345336Y-118238094D01*
X163345336Y-118238094D02*
X163345336Y-117999999D01*
X163345336Y-117999999D02*
X163297717Y-117857142D01*
X163297717Y-117857142D02*
X163202479Y-117761904D01*
X163202479Y-117761904D02*
X163107241Y-117714285D01*
X163107241Y-117714285D02*
X162916765Y-117666666D01*
X162916765Y-117666666D02*
X162773908Y-117666666D01*
X162773908Y-117666666D02*
X162583432Y-117714285D01*
X162583432Y-117714285D02*
X162488194Y-117761904D01*
X162488194Y-117761904D02*
X162392956Y-117857142D01*
X162392956Y-117857142D02*
X162345336Y-117999999D01*
X162345336Y-117999999D02*
X162345336Y-118238094D01*
X159792956Y-120290475D02*
X159745336Y-120147618D01*
X159745336Y-120147618D02*
X159745336Y-119909523D01*
X159745336Y-119909523D02*
X159792956Y-119814285D01*
X159792956Y-119814285D02*
X159840575Y-119766666D01*
X159840575Y-119766666D02*
X159935813Y-119719047D01*
X159935813Y-119719047D02*
X160031051Y-119719047D01*
X160031051Y-119719047D02*
X160126289Y-119766666D01*
X160126289Y-119766666D02*
X160173908Y-119814285D01*
X160173908Y-119814285D02*
X160221527Y-119909523D01*
X160221527Y-119909523D02*
X160269146Y-120099999D01*
X160269146Y-120099999D02*
X160316765Y-120195237D01*
X160316765Y-120195237D02*
X160364384Y-120242856D01*
X160364384Y-120242856D02*
X160459622Y-120290475D01*
X160459622Y-120290475D02*
X160554860Y-120290475D01*
X160554860Y-120290475D02*
X160650098Y-120242856D01*
X160650098Y-120242856D02*
X160697717Y-120195237D01*
X160697717Y-120195237D02*
X160745336Y-120099999D01*
X160745336Y-120099999D02*
X160745336Y-119861904D01*
X160745336Y-119861904D02*
X160697717Y-119719047D01*
X159840575Y-118719047D02*
X159792956Y-118766666D01*
X159792956Y-118766666D02*
X159745336Y-118909523D01*
X159745336Y-118909523D02*
X159745336Y-119004761D01*
X159745336Y-119004761D02*
X159792956Y-119147618D01*
X159792956Y-119147618D02*
X159888194Y-119242856D01*
X159888194Y-119242856D02*
X159983432Y-119290475D01*
X159983432Y-119290475D02*
X160173908Y-119338094D01*
X160173908Y-119338094D02*
X160316765Y-119338094D01*
X160316765Y-119338094D02*
X160507241Y-119290475D01*
X160507241Y-119290475D02*
X160602479Y-119242856D01*
X160602479Y-119242856D02*
X160697717Y-119147618D01*
X160697717Y-119147618D02*
X160745336Y-119004761D01*
X160745336Y-119004761D02*
X160745336Y-118909523D01*
X160745336Y-118909523D02*
X160697717Y-118766666D01*
X160697717Y-118766666D02*
X160650098Y-118719047D01*
X159745336Y-117814285D02*
X159745336Y-118290475D01*
X159745336Y-118290475D02*
X160745336Y-118290475D01*
X117997717Y-103661904D02*
X118045336Y-103757142D01*
X118045336Y-103757142D02*
X118045336Y-103899999D01*
X118045336Y-103899999D02*
X117997717Y-104042856D01*
X117997717Y-104042856D02*
X117902479Y-104138094D01*
X117902479Y-104138094D02*
X117807241Y-104185713D01*
X117807241Y-104185713D02*
X117616765Y-104233332D01*
X117616765Y-104233332D02*
X117473908Y-104233332D01*
X117473908Y-104233332D02*
X117283432Y-104185713D01*
X117283432Y-104185713D02*
X117188194Y-104138094D01*
X117188194Y-104138094D02*
X117092956Y-104042856D01*
X117092956Y-104042856D02*
X117045336Y-103899999D01*
X117045336Y-103899999D02*
X117045336Y-103804761D01*
X117045336Y-103804761D02*
X117092956Y-103661904D01*
X117092956Y-103661904D02*
X117140575Y-103614285D01*
X117140575Y-103614285D02*
X117473908Y-103614285D01*
X117473908Y-103614285D02*
X117473908Y-103804761D01*
X117045336Y-103185713D02*
X118045336Y-103185713D01*
X118045336Y-103185713D02*
X117045336Y-102614285D01*
X117045336Y-102614285D02*
X118045336Y-102614285D01*
X117045336Y-102138094D02*
X118045336Y-102138094D01*
X118045336Y-102138094D02*
X118045336Y-101899999D01*
X118045336Y-101899999D02*
X117997717Y-101757142D01*
X117997717Y-101757142D02*
X117902479Y-101661904D01*
X117902479Y-101661904D02*
X117807241Y-101614285D01*
X117807241Y-101614285D02*
X117616765Y-101566666D01*
X117616765Y-101566666D02*
X117473908Y-101566666D01*
X117473908Y-101566666D02*
X117283432Y-101614285D01*
X117283432Y-101614285D02*
X117188194Y-101661904D01*
X117188194Y-101661904D02*
X117092956Y-101757142D01*
X117092956Y-101757142D02*
X117045336Y-101899999D01*
X117045336Y-101899999D02*
X117045336Y-102138094D01*
X143245336Y-123238094D02*
X143245336Y-122619047D01*
X143245336Y-122619047D02*
X142864384Y-122952380D01*
X142864384Y-122952380D02*
X142864384Y-122809523D01*
X142864384Y-122809523D02*
X142816765Y-122714285D01*
X142816765Y-122714285D02*
X142769146Y-122666666D01*
X142769146Y-122666666D02*
X142673908Y-122619047D01*
X142673908Y-122619047D02*
X142435813Y-122619047D01*
X142435813Y-122619047D02*
X142340575Y-122666666D01*
X142340575Y-122666666D02*
X142292956Y-122714285D01*
X142292956Y-122714285D02*
X142245336Y-122809523D01*
X142245336Y-122809523D02*
X142245336Y-123095237D01*
X142245336Y-123095237D02*
X142292956Y-123190475D01*
X142292956Y-123190475D02*
X142340575Y-123238094D01*
X143245336Y-122333332D02*
X142245336Y-121999999D01*
X142245336Y-121999999D02*
X143245336Y-121666666D01*
X143245336Y-121428570D02*
X143245336Y-120809523D01*
X143245336Y-120809523D02*
X142864384Y-121142856D01*
X142864384Y-121142856D02*
X142864384Y-120999999D01*
X142864384Y-120999999D02*
X142816765Y-120904761D01*
X142816765Y-120904761D02*
X142769146Y-120857142D01*
X142769146Y-120857142D02*
X142673908Y-120809523D01*
X142673908Y-120809523D02*
X142435813Y-120809523D01*
X142435813Y-120809523D02*
X142340575Y-120857142D01*
X142340575Y-120857142D02*
X142292956Y-120904761D01*
X142292956Y-120904761D02*
X142245336Y-120999999D01*
X142245336Y-120999999D02*
X142245336Y-121285713D01*
X142245336Y-121285713D02*
X142292956Y-121380951D01*
X142292956Y-121380951D02*
X142340575Y-121428570D01*
X132245336Y-119838094D02*
X133245336Y-119838094D01*
X133245336Y-119838094D02*
X133245336Y-119457142D01*
X133245336Y-119457142D02*
X133197717Y-119361904D01*
X133197717Y-119361904D02*
X133150098Y-119314285D01*
X133150098Y-119314285D02*
X133054860Y-119266666D01*
X133054860Y-119266666D02*
X132912003Y-119266666D01*
X132912003Y-119266666D02*
X132816765Y-119314285D01*
X132816765Y-119314285D02*
X132769146Y-119361904D01*
X132769146Y-119361904D02*
X132721527Y-119457142D01*
X132721527Y-119457142D02*
X132721527Y-119838094D01*
X132769146Y-118504761D02*
X132721527Y-118361904D01*
X132721527Y-118361904D02*
X132673908Y-118314285D01*
X132673908Y-118314285D02*
X132578670Y-118266666D01*
X132578670Y-118266666D02*
X132435813Y-118266666D01*
X132435813Y-118266666D02*
X132340575Y-118314285D01*
X132340575Y-118314285D02*
X132292956Y-118361904D01*
X132292956Y-118361904D02*
X132245336Y-118457142D01*
X132245336Y-118457142D02*
X132245336Y-118838094D01*
X132245336Y-118838094D02*
X133245336Y-118838094D01*
X133245336Y-118838094D02*
X133245336Y-118504761D01*
X133245336Y-118504761D02*
X133197717Y-118409523D01*
X133197717Y-118409523D02*
X133150098Y-118361904D01*
X133150098Y-118361904D02*
X133054860Y-118314285D01*
X133054860Y-118314285D02*
X132959622Y-118314285D01*
X132959622Y-118314285D02*
X132864384Y-118361904D01*
X132864384Y-118361904D02*
X132816765Y-118409523D01*
X132816765Y-118409523D02*
X132769146Y-118504761D01*
X132769146Y-118504761D02*
X132769146Y-118838094D01*
X132245336Y-117314285D02*
X132245336Y-117885713D01*
X132245336Y-117599999D02*
X133245336Y-117599999D01*
X133245336Y-117599999D02*
X133102479Y-117695237D01*
X133102479Y-117695237D02*
X133007241Y-117790475D01*
X133007241Y-117790475D02*
X132959622Y-117885713D01*
X127445336Y-86552380D02*
X128445336Y-86552380D01*
X128445336Y-86552380D02*
X128445336Y-86171428D01*
X128445336Y-86171428D02*
X128397717Y-86076190D01*
X128397717Y-86076190D02*
X128350098Y-86028571D01*
X128350098Y-86028571D02*
X128254860Y-85980952D01*
X128254860Y-85980952D02*
X128112003Y-85980952D01*
X128112003Y-85980952D02*
X128016765Y-86028571D01*
X128016765Y-86028571D02*
X127969146Y-86076190D01*
X127969146Y-86076190D02*
X127921527Y-86171428D01*
X127921527Y-86171428D02*
X127921527Y-86552380D01*
X128445336Y-85647618D02*
X127445336Y-85409523D01*
X127445336Y-85409523D02*
X128159622Y-85219047D01*
X128159622Y-85219047D02*
X127445336Y-85028571D01*
X127445336Y-85028571D02*
X128445336Y-84790476D01*
X127445336Y-83838095D02*
X127921527Y-84171428D01*
X127445336Y-84409523D02*
X128445336Y-84409523D01*
X128445336Y-84409523D02*
X128445336Y-84028571D01*
X128445336Y-84028571D02*
X128397717Y-83933333D01*
X128397717Y-83933333D02*
X128350098Y-83885714D01*
X128350098Y-83885714D02*
X128254860Y-83838095D01*
X128254860Y-83838095D02*
X128112003Y-83838095D01*
X128112003Y-83838095D02*
X128016765Y-83885714D01*
X128016765Y-83885714D02*
X127969146Y-83933333D01*
X127969146Y-83933333D02*
X127921527Y-84028571D01*
X127921527Y-84028571D02*
X127921527Y-84409523D01*
X127826289Y-83409523D02*
X127826289Y-82647619D01*
X127445336Y-83028571D02*
X128207241Y-83028571D01*
X134845336Y-119790475D02*
X135845336Y-119790475D01*
X135845336Y-119790475D02*
X135845336Y-119409523D01*
X135845336Y-119409523D02*
X135797717Y-119314285D01*
X135797717Y-119314285D02*
X135750098Y-119266666D01*
X135750098Y-119266666D02*
X135654860Y-119219047D01*
X135654860Y-119219047D02*
X135512003Y-119219047D01*
X135512003Y-119219047D02*
X135416765Y-119266666D01*
X135416765Y-119266666D02*
X135369146Y-119314285D01*
X135369146Y-119314285D02*
X135321527Y-119409523D01*
X135321527Y-119409523D02*
X135321527Y-119790475D01*
X135369146Y-118790475D02*
X135369146Y-118457142D01*
X134845336Y-118314285D02*
X134845336Y-118790475D01*
X134845336Y-118790475D02*
X135845336Y-118790475D01*
X135845336Y-118790475D02*
X135845336Y-118314285D01*
X135512003Y-117457142D02*
X134845336Y-117457142D01*
X135892956Y-117695237D02*
X135178670Y-117933332D01*
X135178670Y-117933332D02*
X135178670Y-117314285D01*
X165192956Y-120314285D02*
X165145336Y-120171428D01*
X165145336Y-120171428D02*
X165145336Y-119933333D01*
X165145336Y-119933333D02*
X165192956Y-119838095D01*
X165192956Y-119838095D02*
X165240575Y-119790476D01*
X165240575Y-119790476D02*
X165335813Y-119742857D01*
X165335813Y-119742857D02*
X165431051Y-119742857D01*
X165431051Y-119742857D02*
X165526289Y-119790476D01*
X165526289Y-119790476D02*
X165573908Y-119838095D01*
X165573908Y-119838095D02*
X165621527Y-119933333D01*
X165621527Y-119933333D02*
X165669146Y-120123809D01*
X165669146Y-120123809D02*
X165716765Y-120219047D01*
X165716765Y-120219047D02*
X165764384Y-120266666D01*
X165764384Y-120266666D02*
X165859622Y-120314285D01*
X165859622Y-120314285D02*
X165954860Y-120314285D01*
X165954860Y-120314285D02*
X166050098Y-120266666D01*
X166050098Y-120266666D02*
X166097717Y-120219047D01*
X166097717Y-120219047D02*
X166145336Y-120123809D01*
X166145336Y-120123809D02*
X166145336Y-119885714D01*
X166145336Y-119885714D02*
X166097717Y-119742857D01*
X165145336Y-119314285D02*
X166145336Y-119314285D01*
X166145336Y-119314285D02*
X166145336Y-119076190D01*
X166145336Y-119076190D02*
X166097717Y-118933333D01*
X166097717Y-118933333D02*
X166002479Y-118838095D01*
X166002479Y-118838095D02*
X165907241Y-118790476D01*
X165907241Y-118790476D02*
X165716765Y-118742857D01*
X165716765Y-118742857D02*
X165573908Y-118742857D01*
X165573908Y-118742857D02*
X165383432Y-118790476D01*
X165383432Y-118790476D02*
X165288194Y-118838095D01*
X165288194Y-118838095D02*
X165192956Y-118933333D01*
X165192956Y-118933333D02*
X165145336Y-119076190D01*
X165145336Y-119076190D02*
X165145336Y-119314285D01*
X165431051Y-118361904D02*
X165431051Y-117885714D01*
X165145336Y-118457142D02*
X166145336Y-118123809D01*
X166145336Y-118123809D02*
X165145336Y-117790476D01*
X125897717Y-86061904D02*
X125945336Y-86157142D01*
X125945336Y-86157142D02*
X125945336Y-86299999D01*
X125945336Y-86299999D02*
X125897717Y-86442856D01*
X125897717Y-86442856D02*
X125802479Y-86538094D01*
X125802479Y-86538094D02*
X125707241Y-86585713D01*
X125707241Y-86585713D02*
X125516765Y-86633332D01*
X125516765Y-86633332D02*
X125373908Y-86633332D01*
X125373908Y-86633332D02*
X125183432Y-86585713D01*
X125183432Y-86585713D02*
X125088194Y-86538094D01*
X125088194Y-86538094D02*
X124992956Y-86442856D01*
X124992956Y-86442856D02*
X124945336Y-86299999D01*
X124945336Y-86299999D02*
X124945336Y-86204761D01*
X124945336Y-86204761D02*
X124992956Y-86061904D01*
X124992956Y-86061904D02*
X125040575Y-86014285D01*
X125040575Y-86014285D02*
X125373908Y-86014285D01*
X125373908Y-86014285D02*
X125373908Y-86204761D01*
X124945336Y-85585713D02*
X125945336Y-85585713D01*
X125945336Y-85585713D02*
X124945336Y-85014285D01*
X124945336Y-85014285D02*
X125945336Y-85014285D01*
X124945336Y-84538094D02*
X125945336Y-84538094D01*
X125945336Y-84538094D02*
X125945336Y-84299999D01*
X125945336Y-84299999D02*
X125897717Y-84157142D01*
X125897717Y-84157142D02*
X125802479Y-84061904D01*
X125802479Y-84061904D02*
X125707241Y-84014285D01*
X125707241Y-84014285D02*
X125516765Y-83966666D01*
X125516765Y-83966666D02*
X125373908Y-83966666D01*
X125373908Y-83966666D02*
X125183432Y-84014285D01*
X125183432Y-84014285D02*
X125088194Y-84061904D01*
X125088194Y-84061904D02*
X124992956Y-84157142D01*
X124992956Y-84157142D02*
X124945336Y-84299999D01*
X124945336Y-84299999D02*
X124945336Y-84538094D01*
X154371429Y-109445336D02*
X154371429Y-110445336D01*
X154371429Y-109969146D02*
X154942857Y-109969146D01*
X154942857Y-109445336D02*
X154942857Y-110445336D01*
X155419048Y-109445336D02*
X155419048Y-110445336D01*
X156419047Y-110397717D02*
X156323809Y-110445336D01*
X156323809Y-110445336D02*
X156180952Y-110445336D01*
X156180952Y-110445336D02*
X156038095Y-110397717D01*
X156038095Y-110397717D02*
X155942857Y-110302479D01*
X155942857Y-110302479D02*
X155895238Y-110207241D01*
X155895238Y-110207241D02*
X155847619Y-110016765D01*
X155847619Y-110016765D02*
X155847619Y-109873908D01*
X155847619Y-109873908D02*
X155895238Y-109683432D01*
X155895238Y-109683432D02*
X155942857Y-109588194D01*
X155942857Y-109588194D02*
X156038095Y-109492956D01*
X156038095Y-109492956D02*
X156180952Y-109445336D01*
X156180952Y-109445336D02*
X156276190Y-109445336D01*
X156276190Y-109445336D02*
X156419047Y-109492956D01*
X156419047Y-109492956D02*
X156466666Y-109540575D01*
X156466666Y-109540575D02*
X156466666Y-109873908D01*
X156466666Y-109873908D02*
X156276190Y-109873908D01*
X156895238Y-109445336D02*
X156895238Y-110445336D01*
X156895238Y-109969146D02*
X157466666Y-109969146D01*
X157466666Y-109445336D02*
X157466666Y-110445336D01*
X159180952Y-109445336D02*
X158704762Y-109445336D01*
X158704762Y-109445336D02*
X158704762Y-110445336D01*
X159704762Y-110445336D02*
X159895238Y-110445336D01*
X159895238Y-110445336D02*
X159990476Y-110397717D01*
X159990476Y-110397717D02*
X160085714Y-110302479D01*
X160085714Y-110302479D02*
X160133333Y-110112003D01*
X160133333Y-110112003D02*
X160133333Y-109778670D01*
X160133333Y-109778670D02*
X160085714Y-109588194D01*
X160085714Y-109588194D02*
X159990476Y-109492956D01*
X159990476Y-109492956D02*
X159895238Y-109445336D01*
X159895238Y-109445336D02*
X159704762Y-109445336D01*
X159704762Y-109445336D02*
X159609524Y-109492956D01*
X159609524Y-109492956D02*
X159514286Y-109588194D01*
X159514286Y-109588194D02*
X159466667Y-109778670D01*
X159466667Y-109778670D02*
X159466667Y-110112003D01*
X159466667Y-110112003D02*
X159514286Y-110302479D01*
X159514286Y-110302479D02*
X159609524Y-110397717D01*
X159609524Y-110397717D02*
X159704762Y-110445336D01*
X160466667Y-110445336D02*
X160704762Y-109445336D01*
X160704762Y-109445336D02*
X160895238Y-110159622D01*
X160895238Y-110159622D02*
X161085714Y-109445336D01*
X161085714Y-109445336D02*
X161323810Y-110445336D01*
X127361904Y-121902282D02*
X127457142Y-121854663D01*
X127457142Y-121854663D02*
X127599999Y-121854663D01*
X127599999Y-121854663D02*
X127742856Y-121902282D01*
X127742856Y-121902282D02*
X127838094Y-121997520D01*
X127838094Y-121997520D02*
X127885713Y-122092758D01*
X127885713Y-122092758D02*
X127933332Y-122283234D01*
X127933332Y-122283234D02*
X127933332Y-122426091D01*
X127933332Y-122426091D02*
X127885713Y-122616567D01*
X127885713Y-122616567D02*
X127838094Y-122711805D01*
X127838094Y-122711805D02*
X127742856Y-122807044D01*
X127742856Y-122807044D02*
X127599999Y-122854663D01*
X127599999Y-122854663D02*
X127504761Y-122854663D01*
X127504761Y-122854663D02*
X127361904Y-122807044D01*
X127361904Y-122807044D02*
X127314285Y-122759424D01*
X127314285Y-122759424D02*
X127314285Y-122426091D01*
X127314285Y-122426091D02*
X127504761Y-122426091D01*
X126885713Y-122854663D02*
X126885713Y-121854663D01*
X126885713Y-121854663D02*
X126314285Y-122854663D01*
X126314285Y-122854663D02*
X126314285Y-121854663D01*
X125838094Y-122854663D02*
X125838094Y-121854663D01*
X125838094Y-121854663D02*
X125599999Y-121854663D01*
X125599999Y-121854663D02*
X125457142Y-121902282D01*
X125457142Y-121902282D02*
X125361904Y-121997520D01*
X125361904Y-121997520D02*
X125314285Y-122092758D01*
X125314285Y-122092758D02*
X125266666Y-122283234D01*
X125266666Y-122283234D02*
X125266666Y-122426091D01*
X125266666Y-122426091D02*
X125314285Y-122616567D01*
X125314285Y-122616567D02*
X125361904Y-122711805D01*
X125361904Y-122711805D02*
X125457142Y-122807044D01*
X125457142Y-122807044D02*
X125599999Y-122854663D01*
X125599999Y-122854663D02*
X125838094Y-122854663D01*
X119857143Y-92445336D02*
X119857143Y-93445336D01*
X119857143Y-93445336D02*
X120428571Y-92445336D01*
X120428571Y-92445336D02*
X120428571Y-93445336D01*
X121476190Y-92445336D02*
X121142857Y-92921527D01*
X120904762Y-92445336D02*
X120904762Y-93445336D01*
X120904762Y-93445336D02*
X121285714Y-93445336D01*
X121285714Y-93445336D02*
X121380952Y-93397717D01*
X121380952Y-93397717D02*
X121428571Y-93350098D01*
X121428571Y-93350098D02*
X121476190Y-93254860D01*
X121476190Y-93254860D02*
X121476190Y-93112003D01*
X121476190Y-93112003D02*
X121428571Y-93016765D01*
X121428571Y-93016765D02*
X121380952Y-92969146D01*
X121380952Y-92969146D02*
X121285714Y-92921527D01*
X121285714Y-92921527D02*
X120904762Y-92921527D01*
X121857143Y-92492956D02*
X122000000Y-92445336D01*
X122000000Y-92445336D02*
X122238095Y-92445336D01*
X122238095Y-92445336D02*
X122333333Y-92492956D01*
X122333333Y-92492956D02*
X122380952Y-92540575D01*
X122380952Y-92540575D02*
X122428571Y-92635813D01*
X122428571Y-92635813D02*
X122428571Y-92731051D01*
X122428571Y-92731051D02*
X122380952Y-92826289D01*
X122380952Y-92826289D02*
X122333333Y-92873908D01*
X122333333Y-92873908D02*
X122238095Y-92921527D01*
X122238095Y-92921527D02*
X122047619Y-92969146D01*
X122047619Y-92969146D02*
X121952381Y-93016765D01*
X121952381Y-93016765D02*
X121904762Y-93064384D01*
X121904762Y-93064384D02*
X121857143Y-93159622D01*
X121857143Y-93159622D02*
X121857143Y-93254860D01*
X121857143Y-93254860D02*
X121904762Y-93350098D01*
X121904762Y-93350098D02*
X121952381Y-93397717D01*
X121952381Y-93397717D02*
X122047619Y-93445336D01*
X122047619Y-93445336D02*
X122285714Y-93445336D01*
X122285714Y-93445336D02*
X122428571Y-93397717D01*
X122714286Y-93445336D02*
X123285714Y-93445336D01*
X123000000Y-92445336D02*
X123000000Y-93445336D01*
X149845336Y-120261904D02*
X149845336Y-119690476D01*
X148845336Y-119976190D02*
X149845336Y-119976190D01*
X149845336Y-119452380D02*
X148845336Y-118785714D01*
X149845336Y-118785714D02*
X148845336Y-119452380D01*
X149892956Y-117690476D02*
X148607241Y-118547618D01*
X148845336Y-116785714D02*
X149321527Y-117119047D01*
X148845336Y-117357142D02*
X149845336Y-117357142D01*
X149845336Y-117357142D02*
X149845336Y-116976190D01*
X149845336Y-116976190D02*
X149797717Y-116880952D01*
X149797717Y-116880952D02*
X149750098Y-116833333D01*
X149750098Y-116833333D02*
X149654860Y-116785714D01*
X149654860Y-116785714D02*
X149512003Y-116785714D01*
X149512003Y-116785714D02*
X149416765Y-116833333D01*
X149416765Y-116833333D02*
X149369146Y-116880952D01*
X149369146Y-116880952D02*
X149321527Y-116976190D01*
X149321527Y-116976190D02*
X149321527Y-117357142D01*
X149845336Y-116452380D02*
X148845336Y-115785714D01*
X149845336Y-115785714D02*
X148845336Y-116452380D01*
X122345336Y-85947619D02*
X122821527Y-86280952D01*
X122345336Y-86519047D02*
X123345336Y-86519047D01*
X123345336Y-86519047D02*
X123345336Y-86138095D01*
X123345336Y-86138095D02*
X123297717Y-86042857D01*
X123297717Y-86042857D02*
X123250098Y-85995238D01*
X123250098Y-85995238D02*
X123154860Y-85947619D01*
X123154860Y-85947619D02*
X123012003Y-85947619D01*
X123012003Y-85947619D02*
X122916765Y-85995238D01*
X122916765Y-85995238D02*
X122869146Y-86042857D01*
X122869146Y-86042857D02*
X122821527Y-86138095D01*
X122821527Y-86138095D02*
X122821527Y-86519047D01*
X122392956Y-85566666D02*
X122345336Y-85423809D01*
X122345336Y-85423809D02*
X122345336Y-85185714D01*
X122345336Y-85185714D02*
X122392956Y-85090476D01*
X122392956Y-85090476D02*
X122440575Y-85042857D01*
X122440575Y-85042857D02*
X122535813Y-84995238D01*
X122535813Y-84995238D02*
X122631051Y-84995238D01*
X122631051Y-84995238D02*
X122726289Y-85042857D01*
X122726289Y-85042857D02*
X122773908Y-85090476D01*
X122773908Y-85090476D02*
X122821527Y-85185714D01*
X122821527Y-85185714D02*
X122869146Y-85376190D01*
X122869146Y-85376190D02*
X122916765Y-85471428D01*
X122916765Y-85471428D02*
X122964384Y-85519047D01*
X122964384Y-85519047D02*
X123059622Y-85566666D01*
X123059622Y-85566666D02*
X123154860Y-85566666D01*
X123154860Y-85566666D02*
X123250098Y-85519047D01*
X123250098Y-85519047D02*
X123297717Y-85471428D01*
X123297717Y-85471428D02*
X123345336Y-85376190D01*
X123345336Y-85376190D02*
X123345336Y-85138095D01*
X123345336Y-85138095D02*
X123297717Y-84995238D01*
X123345336Y-84709523D02*
X123345336Y-84138095D01*
X122345336Y-84423809D02*
X123345336Y-84423809D01*
X129745336Y-119838094D02*
X130745336Y-119838094D01*
X130745336Y-119838094D02*
X130745336Y-119457142D01*
X130745336Y-119457142D02*
X130697717Y-119361904D01*
X130697717Y-119361904D02*
X130650098Y-119314285D01*
X130650098Y-119314285D02*
X130554860Y-119266666D01*
X130554860Y-119266666D02*
X130412003Y-119266666D01*
X130412003Y-119266666D02*
X130316765Y-119314285D01*
X130316765Y-119314285D02*
X130269146Y-119361904D01*
X130269146Y-119361904D02*
X130221527Y-119457142D01*
X130221527Y-119457142D02*
X130221527Y-119838094D01*
X130269146Y-118504761D02*
X130221527Y-118361904D01*
X130221527Y-118361904D02*
X130173908Y-118314285D01*
X130173908Y-118314285D02*
X130078670Y-118266666D01*
X130078670Y-118266666D02*
X129935813Y-118266666D01*
X129935813Y-118266666D02*
X129840575Y-118314285D01*
X129840575Y-118314285D02*
X129792956Y-118361904D01*
X129792956Y-118361904D02*
X129745336Y-118457142D01*
X129745336Y-118457142D02*
X129745336Y-118838094D01*
X129745336Y-118838094D02*
X130745336Y-118838094D01*
X130745336Y-118838094D02*
X130745336Y-118504761D01*
X130745336Y-118504761D02*
X130697717Y-118409523D01*
X130697717Y-118409523D02*
X130650098Y-118361904D01*
X130650098Y-118361904D02*
X130554860Y-118314285D01*
X130554860Y-118314285D02*
X130459622Y-118314285D01*
X130459622Y-118314285D02*
X130364384Y-118361904D01*
X130364384Y-118361904D02*
X130316765Y-118409523D01*
X130316765Y-118409523D02*
X130269146Y-118504761D01*
X130269146Y-118504761D02*
X130269146Y-118838094D01*
X130745336Y-117647618D02*
X130745336Y-117552380D01*
X130745336Y-117552380D02*
X130697717Y-117457142D01*
X130697717Y-117457142D02*
X130650098Y-117409523D01*
X130650098Y-117409523D02*
X130554860Y-117361904D01*
X130554860Y-117361904D02*
X130364384Y-117314285D01*
X130364384Y-117314285D02*
X130126289Y-117314285D01*
X130126289Y-117314285D02*
X129935813Y-117361904D01*
X129935813Y-117361904D02*
X129840575Y-117409523D01*
X129840575Y-117409523D02*
X129792956Y-117457142D01*
X129792956Y-117457142D02*
X129745336Y-117552380D01*
X129745336Y-117552380D02*
X129745336Y-117647618D01*
X129745336Y-117647618D02*
X129792956Y-117742856D01*
X129792956Y-117742856D02*
X129840575Y-117790475D01*
X129840575Y-117790475D02*
X129935813Y-117838094D01*
X129935813Y-117838094D02*
X130126289Y-117885713D01*
X130126289Y-117885713D02*
X130364384Y-117885713D01*
X130364384Y-117885713D02*
X130554860Y-117838094D01*
X130554860Y-117838094D02*
X130650098Y-117790475D01*
X130650098Y-117790475D02*
X130697717Y-117742856D01*
X130697717Y-117742856D02*
X130745336Y-117647618D01*
X185827914Y-89605993D02*
X185685057Y-89653612D01*
X185685057Y-89653612D02*
X185637438Y-89701231D01*
X185637438Y-89701231D02*
X185589819Y-89796469D01*
X185589819Y-89796469D02*
X185589819Y-89939326D01*
X185589819Y-89939326D02*
X185637438Y-90034564D01*
X185637438Y-90034564D02*
X185685057Y-90082184D01*
X185685057Y-90082184D02*
X185780295Y-90129803D01*
X185780295Y-90129803D02*
X186161247Y-90129803D01*
X186161247Y-90129803D02*
X186161247Y-89129803D01*
X186161247Y-89129803D02*
X185827914Y-89129803D01*
X185827914Y-89129803D02*
X185732676Y-89177422D01*
X185732676Y-89177422D02*
X185685057Y-89225041D01*
X185685057Y-89225041D02*
X185637438Y-89320279D01*
X185637438Y-89320279D02*
X185637438Y-89415517D01*
X185637438Y-89415517D02*
X185685057Y-89510755D01*
X185685057Y-89510755D02*
X185732676Y-89558374D01*
X185732676Y-89558374D02*
X185827914Y-89605993D01*
X185827914Y-89605993D02*
X186161247Y-89605993D01*
X185018390Y-90129803D02*
X185113628Y-90082184D01*
X185113628Y-90082184D02*
X185161247Y-89986945D01*
X185161247Y-89986945D02*
X185161247Y-89129803D01*
X184208866Y-89463136D02*
X184208866Y-90129803D01*
X184637437Y-89463136D02*
X184637437Y-89986945D01*
X184637437Y-89986945D02*
X184589818Y-90082184D01*
X184589818Y-90082184D02*
X184494580Y-90129803D01*
X184494580Y-90129803D02*
X184351723Y-90129803D01*
X184351723Y-90129803D02*
X184256485Y-90082184D01*
X184256485Y-90082184D02*
X184208866Y-90034564D01*
X183351723Y-90082184D02*
X183446961Y-90129803D01*
X183446961Y-90129803D02*
X183637437Y-90129803D01*
X183637437Y-90129803D02*
X183732675Y-90082184D01*
X183732675Y-90082184D02*
X183780294Y-89986945D01*
X183780294Y-89986945D02*
X183780294Y-89605993D01*
X183780294Y-89605993D02*
X183732675Y-89510755D01*
X183732675Y-89510755D02*
X183637437Y-89463136D01*
X183637437Y-89463136D02*
X183446961Y-89463136D01*
X183446961Y-89463136D02*
X183351723Y-89510755D01*
X183351723Y-89510755D02*
X183304104Y-89605993D01*
X183304104Y-89605993D02*
X183304104Y-89701231D01*
X183304104Y-89701231D02*
X183780294Y-89796469D01*
X183018389Y-89463136D02*
X182637437Y-89463136D01*
X182875532Y-89129803D02*
X182875532Y-89986945D01*
X182875532Y-89986945D02*
X182827913Y-90082184D01*
X182827913Y-90082184D02*
X182732675Y-90129803D01*
X182732675Y-90129803D02*
X182637437Y-90129803D01*
X182161246Y-90129803D02*
X182256484Y-90082184D01*
X182256484Y-90082184D02*
X182304103Y-90034564D01*
X182304103Y-90034564D02*
X182351722Y-89939326D01*
X182351722Y-89939326D02*
X182351722Y-89653612D01*
X182351722Y-89653612D02*
X182304103Y-89558374D01*
X182304103Y-89558374D02*
X182256484Y-89510755D01*
X182256484Y-89510755D02*
X182161246Y-89463136D01*
X182161246Y-89463136D02*
X182018389Y-89463136D01*
X182018389Y-89463136D02*
X181923151Y-89510755D01*
X181923151Y-89510755D02*
X181875532Y-89558374D01*
X181875532Y-89558374D02*
X181827913Y-89653612D01*
X181827913Y-89653612D02*
X181827913Y-89939326D01*
X181827913Y-89939326D02*
X181875532Y-90034564D01*
X181875532Y-90034564D02*
X181923151Y-90082184D01*
X181923151Y-90082184D02*
X182018389Y-90129803D01*
X182018389Y-90129803D02*
X182161246Y-90129803D01*
X181256484Y-90129803D02*
X181351722Y-90082184D01*
X181351722Y-90082184D02*
X181399341Y-90034564D01*
X181399341Y-90034564D02*
X181446960Y-89939326D01*
X181446960Y-89939326D02*
X181446960Y-89653612D01*
X181446960Y-89653612D02*
X181399341Y-89558374D01*
X181399341Y-89558374D02*
X181351722Y-89510755D01*
X181351722Y-89510755D02*
X181256484Y-89463136D01*
X181256484Y-89463136D02*
X181113627Y-89463136D01*
X181113627Y-89463136D02*
X181018389Y-89510755D01*
X181018389Y-89510755D02*
X180970770Y-89558374D01*
X180970770Y-89558374D02*
X180923151Y-89653612D01*
X180923151Y-89653612D02*
X180923151Y-89939326D01*
X180923151Y-89939326D02*
X180970770Y-90034564D01*
X180970770Y-90034564D02*
X181018389Y-90082184D01*
X181018389Y-90082184D02*
X181113627Y-90129803D01*
X181113627Y-90129803D02*
X181256484Y-90129803D01*
X180637436Y-89463136D02*
X180256484Y-89463136D01*
X180494579Y-89129803D02*
X180494579Y-89986945D01*
X180494579Y-89986945D02*
X180446960Y-90082184D01*
X180446960Y-90082184D02*
X180351722Y-90129803D01*
X180351722Y-90129803D02*
X180256484Y-90129803D01*
X179923150Y-90129803D02*
X179923150Y-89129803D01*
X179494579Y-90129803D02*
X179494579Y-89605993D01*
X179494579Y-89605993D02*
X179542198Y-89510755D01*
X179542198Y-89510755D02*
X179637436Y-89463136D01*
X179637436Y-89463136D02*
X179780293Y-89463136D01*
X179780293Y-89463136D02*
X179875531Y-89510755D01*
X179875531Y-89510755D02*
X179923150Y-89558374D01*
X177923150Y-89605993D02*
X177780293Y-89653612D01*
X177780293Y-89653612D02*
X177732674Y-89701231D01*
X177732674Y-89701231D02*
X177685055Y-89796469D01*
X177685055Y-89796469D02*
X177685055Y-89939326D01*
X177685055Y-89939326D02*
X177732674Y-90034564D01*
X177732674Y-90034564D02*
X177780293Y-90082184D01*
X177780293Y-90082184D02*
X177875531Y-90129803D01*
X177875531Y-90129803D02*
X178256483Y-90129803D01*
X178256483Y-90129803D02*
X178256483Y-89129803D01*
X178256483Y-89129803D02*
X177923150Y-89129803D01*
X177923150Y-89129803D02*
X177827912Y-89177422D01*
X177827912Y-89177422D02*
X177780293Y-89225041D01*
X177780293Y-89225041D02*
X177732674Y-89320279D01*
X177732674Y-89320279D02*
X177732674Y-89415517D01*
X177732674Y-89415517D02*
X177780293Y-89510755D01*
X177780293Y-89510755D02*
X177827912Y-89558374D01*
X177827912Y-89558374D02*
X177923150Y-89605993D01*
X177923150Y-89605993D02*
X178256483Y-89605993D01*
X177113626Y-90129803D02*
X177208864Y-90082184D01*
X177208864Y-90082184D02*
X177256483Y-90034564D01*
X177256483Y-90034564D02*
X177304102Y-89939326D01*
X177304102Y-89939326D02*
X177304102Y-89653612D01*
X177304102Y-89653612D02*
X177256483Y-89558374D01*
X177256483Y-89558374D02*
X177208864Y-89510755D01*
X177208864Y-89510755D02*
X177113626Y-89463136D01*
X177113626Y-89463136D02*
X176970769Y-89463136D01*
X176970769Y-89463136D02*
X176875531Y-89510755D01*
X176875531Y-89510755D02*
X176827912Y-89558374D01*
X176827912Y-89558374D02*
X176780293Y-89653612D01*
X176780293Y-89653612D02*
X176780293Y-89939326D01*
X176780293Y-89939326D02*
X176827912Y-90034564D01*
X176827912Y-90034564D02*
X176875531Y-90082184D01*
X176875531Y-90082184D02*
X176970769Y-90129803D01*
X176970769Y-90129803D02*
X177113626Y-90129803D01*
X175923150Y-90129803D02*
X175923150Y-89605993D01*
X175923150Y-89605993D02*
X175970769Y-89510755D01*
X175970769Y-89510755D02*
X176066007Y-89463136D01*
X176066007Y-89463136D02*
X176256483Y-89463136D01*
X176256483Y-89463136D02*
X176351721Y-89510755D01*
X175923150Y-90082184D02*
X176018388Y-90129803D01*
X176018388Y-90129803D02*
X176256483Y-90129803D01*
X176256483Y-90129803D02*
X176351721Y-90082184D01*
X176351721Y-90082184D02*
X176399340Y-89986945D01*
X176399340Y-89986945D02*
X176399340Y-89891707D01*
X176399340Y-89891707D02*
X176351721Y-89796469D01*
X176351721Y-89796469D02*
X176256483Y-89748850D01*
X176256483Y-89748850D02*
X176018388Y-89748850D01*
X176018388Y-89748850D02*
X175923150Y-89701231D01*
X175446959Y-90129803D02*
X175446959Y-89463136D01*
X175446959Y-89653612D02*
X175399340Y-89558374D01*
X175399340Y-89558374D02*
X175351721Y-89510755D01*
X175351721Y-89510755D02*
X175256483Y-89463136D01*
X175256483Y-89463136D02*
X175161245Y-89463136D01*
X174399340Y-90129803D02*
X174399340Y-89129803D01*
X174399340Y-90082184D02*
X174494578Y-90129803D01*
X174494578Y-90129803D02*
X174685054Y-90129803D01*
X174685054Y-90129803D02*
X174780292Y-90082184D01*
X174780292Y-90082184D02*
X174827911Y-90034564D01*
X174827911Y-90034564D02*
X174875530Y-89939326D01*
X174875530Y-89939326D02*
X174875530Y-89653612D01*
X174875530Y-89653612D02*
X174827911Y-89558374D01*
X174827911Y-89558374D02*
X174780292Y-89510755D01*
X174780292Y-89510755D02*
X174685054Y-89463136D01*
X174685054Y-89463136D02*
X174494578Y-89463136D01*
X174494578Y-89463136D02*
X174399340Y-89510755D01*
X185589819Y-91739747D02*
X185923152Y-91263556D01*
X186161247Y-91739747D02*
X186161247Y-90739747D01*
X186161247Y-90739747D02*
X185780295Y-90739747D01*
X185780295Y-90739747D02*
X185685057Y-90787366D01*
X185685057Y-90787366D02*
X185637438Y-90834985D01*
X185637438Y-90834985D02*
X185589819Y-90930223D01*
X185589819Y-90930223D02*
X185589819Y-91073080D01*
X185589819Y-91073080D02*
X185637438Y-91168318D01*
X185637438Y-91168318D02*
X185685057Y-91215937D01*
X185685057Y-91215937D02*
X185780295Y-91263556D01*
X185780295Y-91263556D02*
X186161247Y-91263556D01*
X184780295Y-91692128D02*
X184875533Y-91739747D01*
X184875533Y-91739747D02*
X185066009Y-91739747D01*
X185066009Y-91739747D02*
X185161247Y-91692128D01*
X185161247Y-91692128D02*
X185208866Y-91596889D01*
X185208866Y-91596889D02*
X185208866Y-91215937D01*
X185208866Y-91215937D02*
X185161247Y-91120699D01*
X185161247Y-91120699D02*
X185066009Y-91073080D01*
X185066009Y-91073080D02*
X184875533Y-91073080D01*
X184875533Y-91073080D02*
X184780295Y-91120699D01*
X184780295Y-91120699D02*
X184732676Y-91215937D01*
X184732676Y-91215937D02*
X184732676Y-91311175D01*
X184732676Y-91311175D02*
X185208866Y-91406413D01*
X184399342Y-91073080D02*
X184161247Y-91739747D01*
X184161247Y-91739747D02*
X183923152Y-91073080D01*
X183542199Y-91739747D02*
X183542199Y-91073080D01*
X183542199Y-90739747D02*
X183589818Y-90787366D01*
X183589818Y-90787366D02*
X183542199Y-90834985D01*
X183542199Y-90834985D02*
X183494580Y-90787366D01*
X183494580Y-90787366D02*
X183542199Y-90739747D01*
X183542199Y-90739747D02*
X183542199Y-90834985D01*
X183113628Y-91692128D02*
X183018390Y-91739747D01*
X183018390Y-91739747D02*
X182827914Y-91739747D01*
X182827914Y-91739747D02*
X182732676Y-91692128D01*
X182732676Y-91692128D02*
X182685057Y-91596889D01*
X182685057Y-91596889D02*
X182685057Y-91549270D01*
X182685057Y-91549270D02*
X182732676Y-91454032D01*
X182732676Y-91454032D02*
X182827914Y-91406413D01*
X182827914Y-91406413D02*
X182970771Y-91406413D01*
X182970771Y-91406413D02*
X183066009Y-91358794D01*
X183066009Y-91358794D02*
X183113628Y-91263556D01*
X183113628Y-91263556D02*
X183113628Y-91215937D01*
X183113628Y-91215937D02*
X183066009Y-91120699D01*
X183066009Y-91120699D02*
X182970771Y-91073080D01*
X182970771Y-91073080D02*
X182827914Y-91073080D01*
X182827914Y-91073080D02*
X182732676Y-91120699D01*
X182256485Y-91739747D02*
X182256485Y-91073080D01*
X182256485Y-90739747D02*
X182304104Y-90787366D01*
X182304104Y-90787366D02*
X182256485Y-90834985D01*
X182256485Y-90834985D02*
X182208866Y-90787366D01*
X182208866Y-90787366D02*
X182256485Y-90739747D01*
X182256485Y-90739747D02*
X182256485Y-90834985D01*
X181637438Y-91739747D02*
X181732676Y-91692128D01*
X181732676Y-91692128D02*
X181780295Y-91644508D01*
X181780295Y-91644508D02*
X181827914Y-91549270D01*
X181827914Y-91549270D02*
X181827914Y-91263556D01*
X181827914Y-91263556D02*
X181780295Y-91168318D01*
X181780295Y-91168318D02*
X181732676Y-91120699D01*
X181732676Y-91120699D02*
X181637438Y-91073080D01*
X181637438Y-91073080D02*
X181494581Y-91073080D01*
X181494581Y-91073080D02*
X181399343Y-91120699D01*
X181399343Y-91120699D02*
X181351724Y-91168318D01*
X181351724Y-91168318D02*
X181304105Y-91263556D01*
X181304105Y-91263556D02*
X181304105Y-91549270D01*
X181304105Y-91549270D02*
X181351724Y-91644508D01*
X181351724Y-91644508D02*
X181399343Y-91692128D01*
X181399343Y-91692128D02*
X181494581Y-91739747D01*
X181494581Y-91739747D02*
X181637438Y-91739747D01*
X180875533Y-91073080D02*
X180875533Y-91739747D01*
X180875533Y-91168318D02*
X180827914Y-91120699D01*
X180827914Y-91120699D02*
X180732676Y-91073080D01*
X180732676Y-91073080D02*
X180589819Y-91073080D01*
X180589819Y-91073080D02*
X180494581Y-91120699D01*
X180494581Y-91120699D02*
X180446962Y-91215937D01*
X180446962Y-91215937D02*
X180446962Y-91739747D01*
X179970771Y-91644508D02*
X179923152Y-91692128D01*
X179923152Y-91692128D02*
X179970771Y-91739747D01*
X179970771Y-91739747D02*
X180018390Y-91692128D01*
X180018390Y-91692128D02*
X179970771Y-91644508D01*
X179970771Y-91644508D02*
X179970771Y-91739747D01*
X179970771Y-91120699D02*
X179923152Y-91168318D01*
X179923152Y-91168318D02*
X179970771Y-91215937D01*
X179970771Y-91215937D02*
X180018390Y-91168318D01*
X180018390Y-91168318D02*
X179970771Y-91120699D01*
X179970771Y-91120699D02*
X179970771Y-91215937D01*
X178161248Y-91739747D02*
X178494581Y-91263556D01*
X178732676Y-91739747D02*
X178732676Y-90739747D01*
X178732676Y-90739747D02*
X178351724Y-90739747D01*
X178351724Y-90739747D02*
X178256486Y-90787366D01*
X178256486Y-90787366D02*
X178208867Y-90834985D01*
X178208867Y-90834985D02*
X178161248Y-90930223D01*
X178161248Y-90930223D02*
X178161248Y-91073080D01*
X178161248Y-91073080D02*
X178208867Y-91168318D01*
X178208867Y-91168318D02*
X178256486Y-91215937D01*
X178256486Y-91215937D02*
X178351724Y-91263556D01*
X178351724Y-91263556D02*
X178732676Y-91263556D01*
X177732676Y-91215937D02*
X177399343Y-91215937D01*
X177256486Y-91739747D02*
X177732676Y-91739747D01*
X177732676Y-91739747D02*
X177732676Y-90739747D01*
X177732676Y-90739747D02*
X177256486Y-90739747D01*
X176970771Y-90739747D02*
X176637438Y-91739747D01*
X176637438Y-91739747D02*
X176304105Y-90739747D01*
X174875533Y-91215937D02*
X174732676Y-91263556D01*
X174732676Y-91263556D02*
X174685057Y-91311175D01*
X174685057Y-91311175D02*
X174637438Y-91406413D01*
X174637438Y-91406413D02*
X174637438Y-91549270D01*
X174637438Y-91549270D02*
X174685057Y-91644508D01*
X174685057Y-91644508D02*
X174732676Y-91692128D01*
X174732676Y-91692128D02*
X174827914Y-91739747D01*
X174827914Y-91739747D02*
X175208866Y-91739747D01*
X175208866Y-91739747D02*
X175208866Y-90739747D01*
X175208866Y-90739747D02*
X174875533Y-90739747D01*
X174875533Y-90739747D02*
X174780295Y-90787366D01*
X174780295Y-90787366D02*
X174732676Y-90834985D01*
X174732676Y-90834985D02*
X174685057Y-90930223D01*
X174685057Y-90930223D02*
X174685057Y-91025461D01*
X174685057Y-91025461D02*
X174732676Y-91120699D01*
X174732676Y-91120699D02*
X174780295Y-91168318D01*
X174780295Y-91168318D02*
X174875533Y-91215937D01*
X174875533Y-91215937D02*
X175208866Y-91215937D01*
X186161247Y-93349691D02*
X186161247Y-92349691D01*
X186161247Y-92349691D02*
X185923152Y-92349691D01*
X185923152Y-92349691D02*
X185780295Y-92397310D01*
X185780295Y-92397310D02*
X185685057Y-92492548D01*
X185685057Y-92492548D02*
X185637438Y-92587786D01*
X185637438Y-92587786D02*
X185589819Y-92778262D01*
X185589819Y-92778262D02*
X185589819Y-92921119D01*
X185589819Y-92921119D02*
X185637438Y-93111595D01*
X185637438Y-93111595D02*
X185685057Y-93206833D01*
X185685057Y-93206833D02*
X185780295Y-93302072D01*
X185780295Y-93302072D02*
X185923152Y-93349691D01*
X185923152Y-93349691D02*
X186161247Y-93349691D01*
X184780295Y-93302072D02*
X184875533Y-93349691D01*
X184875533Y-93349691D02*
X185066009Y-93349691D01*
X185066009Y-93349691D02*
X185161247Y-93302072D01*
X185161247Y-93302072D02*
X185208866Y-93206833D01*
X185208866Y-93206833D02*
X185208866Y-92825881D01*
X185208866Y-92825881D02*
X185161247Y-92730643D01*
X185161247Y-92730643D02*
X185066009Y-92683024D01*
X185066009Y-92683024D02*
X184875533Y-92683024D01*
X184875533Y-92683024D02*
X184780295Y-92730643D01*
X184780295Y-92730643D02*
X184732676Y-92825881D01*
X184732676Y-92825881D02*
X184732676Y-92921119D01*
X184732676Y-92921119D02*
X185208866Y-93016357D01*
X184351723Y-93302072D02*
X184256485Y-93349691D01*
X184256485Y-93349691D02*
X184066009Y-93349691D01*
X184066009Y-93349691D02*
X183970771Y-93302072D01*
X183970771Y-93302072D02*
X183923152Y-93206833D01*
X183923152Y-93206833D02*
X183923152Y-93159214D01*
X183923152Y-93159214D02*
X183970771Y-93063976D01*
X183970771Y-93063976D02*
X184066009Y-93016357D01*
X184066009Y-93016357D02*
X184208866Y-93016357D01*
X184208866Y-93016357D02*
X184304104Y-92968738D01*
X184304104Y-92968738D02*
X184351723Y-92873500D01*
X184351723Y-92873500D02*
X184351723Y-92825881D01*
X184351723Y-92825881D02*
X184304104Y-92730643D01*
X184304104Y-92730643D02*
X184208866Y-92683024D01*
X184208866Y-92683024D02*
X184066009Y-92683024D01*
X184066009Y-92683024D02*
X183970771Y-92730643D01*
X183494580Y-93349691D02*
X183494580Y-92683024D01*
X183494580Y-92349691D02*
X183542199Y-92397310D01*
X183542199Y-92397310D02*
X183494580Y-92444929D01*
X183494580Y-92444929D02*
X183446961Y-92397310D01*
X183446961Y-92397310D02*
X183494580Y-92349691D01*
X183494580Y-92349691D02*
X183494580Y-92444929D01*
X182589819Y-92683024D02*
X182589819Y-93492548D01*
X182589819Y-93492548D02*
X182637438Y-93587786D01*
X182637438Y-93587786D02*
X182685057Y-93635405D01*
X182685057Y-93635405D02*
X182780295Y-93683024D01*
X182780295Y-93683024D02*
X182923152Y-93683024D01*
X182923152Y-93683024D02*
X183018390Y-93635405D01*
X182589819Y-93302072D02*
X182685057Y-93349691D01*
X182685057Y-93349691D02*
X182875533Y-93349691D01*
X182875533Y-93349691D02*
X182970771Y-93302072D01*
X182970771Y-93302072D02*
X183018390Y-93254452D01*
X183018390Y-93254452D02*
X183066009Y-93159214D01*
X183066009Y-93159214D02*
X183066009Y-92873500D01*
X183066009Y-92873500D02*
X183018390Y-92778262D01*
X183018390Y-92778262D02*
X182970771Y-92730643D01*
X182970771Y-92730643D02*
X182875533Y-92683024D01*
X182875533Y-92683024D02*
X182685057Y-92683024D01*
X182685057Y-92683024D02*
X182589819Y-92730643D01*
X182113628Y-92683024D02*
X182113628Y-93349691D01*
X182113628Y-92778262D02*
X182066009Y-92730643D01*
X182066009Y-92730643D02*
X181970771Y-92683024D01*
X181970771Y-92683024D02*
X181827914Y-92683024D01*
X181827914Y-92683024D02*
X181732676Y-92730643D01*
X181732676Y-92730643D02*
X181685057Y-92825881D01*
X181685057Y-92825881D02*
X181685057Y-93349691D01*
X180827914Y-93302072D02*
X180923152Y-93349691D01*
X180923152Y-93349691D02*
X181113628Y-93349691D01*
X181113628Y-93349691D02*
X181208866Y-93302072D01*
X181208866Y-93302072D02*
X181256485Y-93206833D01*
X181256485Y-93206833D02*
X181256485Y-92825881D01*
X181256485Y-92825881D02*
X181208866Y-92730643D01*
X181208866Y-92730643D02*
X181113628Y-92683024D01*
X181113628Y-92683024D02*
X180923152Y-92683024D01*
X180923152Y-92683024D02*
X180827914Y-92730643D01*
X180827914Y-92730643D02*
X180780295Y-92825881D01*
X180780295Y-92825881D02*
X180780295Y-92921119D01*
X180780295Y-92921119D02*
X181256485Y-93016357D01*
X180351723Y-93349691D02*
X180351723Y-92683024D01*
X180351723Y-92873500D02*
X180304104Y-92778262D01*
X180304104Y-92778262D02*
X180256485Y-92730643D01*
X180256485Y-92730643D02*
X180161247Y-92683024D01*
X180161247Y-92683024D02*
X180066009Y-92683024D01*
X179732675Y-93254452D02*
X179685056Y-93302072D01*
X179685056Y-93302072D02*
X179732675Y-93349691D01*
X179732675Y-93349691D02*
X179780294Y-93302072D01*
X179780294Y-93302072D02*
X179732675Y-93254452D01*
X179732675Y-93254452D02*
X179732675Y-93349691D01*
X179732675Y-92730643D02*
X179685056Y-92778262D01*
X179685056Y-92778262D02*
X179732675Y-92825881D01*
X179732675Y-92825881D02*
X179780294Y-92778262D01*
X179780294Y-92778262D02*
X179732675Y-92730643D01*
X179732675Y-92730643D02*
X179732675Y-92825881D01*
X178494580Y-93349691D02*
X178494580Y-92349691D01*
X178494580Y-92349691D02*
X178113628Y-92349691D01*
X178113628Y-92349691D02*
X178018390Y-92397310D01*
X178018390Y-92397310D02*
X177970771Y-92444929D01*
X177970771Y-92444929D02*
X177923152Y-92540167D01*
X177923152Y-92540167D02*
X177923152Y-92683024D01*
X177923152Y-92683024D02*
X177970771Y-92778262D01*
X177970771Y-92778262D02*
X178018390Y-92825881D01*
X178018390Y-92825881D02*
X178113628Y-92873500D01*
X178113628Y-92873500D02*
X178494580Y-92873500D01*
X177113628Y-93302072D02*
X177208866Y-93349691D01*
X177208866Y-93349691D02*
X177399342Y-93349691D01*
X177399342Y-93349691D02*
X177494580Y-93302072D01*
X177494580Y-93302072D02*
X177542199Y-93206833D01*
X177542199Y-93206833D02*
X177542199Y-92825881D01*
X177542199Y-92825881D02*
X177494580Y-92730643D01*
X177494580Y-92730643D02*
X177399342Y-92683024D01*
X177399342Y-92683024D02*
X177208866Y-92683024D01*
X177208866Y-92683024D02*
X177113628Y-92730643D01*
X177113628Y-92730643D02*
X177066009Y-92825881D01*
X177066009Y-92825881D02*
X177066009Y-92921119D01*
X177066009Y-92921119D02*
X177542199Y-93016357D01*
X176780294Y-92683024D02*
X176399342Y-92683024D01*
X176637437Y-92349691D02*
X176637437Y-93206833D01*
X176637437Y-93206833D02*
X176589818Y-93302072D01*
X176589818Y-93302072D02*
X176494580Y-93349691D01*
X176494580Y-93349691D02*
X176399342Y-93349691D01*
X175685056Y-93302072D02*
X175780294Y-93349691D01*
X175780294Y-93349691D02*
X175970770Y-93349691D01*
X175970770Y-93349691D02*
X176066008Y-93302072D01*
X176066008Y-93302072D02*
X176113627Y-93206833D01*
X176113627Y-93206833D02*
X176113627Y-92825881D01*
X176113627Y-92825881D02*
X176066008Y-92730643D01*
X176066008Y-92730643D02*
X175970770Y-92683024D01*
X175970770Y-92683024D02*
X175780294Y-92683024D01*
X175780294Y-92683024D02*
X175685056Y-92730643D01*
X175685056Y-92730643D02*
X175637437Y-92825881D01*
X175637437Y-92825881D02*
X175637437Y-92921119D01*
X175637437Y-92921119D02*
X176113627Y-93016357D01*
X175208865Y-93349691D02*
X175208865Y-92683024D01*
X175208865Y-92873500D02*
X175161246Y-92778262D01*
X175161246Y-92778262D02*
X175113627Y-92730643D01*
X175113627Y-92730643D02*
X175018389Y-92683024D01*
X175018389Y-92683024D02*
X174923151Y-92683024D01*
X173827912Y-93349691D02*
X173827912Y-92349691D01*
X173827912Y-92825881D02*
X173256484Y-92825881D01*
X173256484Y-93349691D02*
X173256484Y-92349691D01*
X172351722Y-93349691D02*
X172351722Y-92825881D01*
X172351722Y-92825881D02*
X172399341Y-92730643D01*
X172399341Y-92730643D02*
X172494579Y-92683024D01*
X172494579Y-92683024D02*
X172685055Y-92683024D01*
X172685055Y-92683024D02*
X172780293Y-92730643D01*
X172351722Y-93302072D02*
X172446960Y-93349691D01*
X172446960Y-93349691D02*
X172685055Y-93349691D01*
X172685055Y-93349691D02*
X172780293Y-93302072D01*
X172780293Y-93302072D02*
X172827912Y-93206833D01*
X172827912Y-93206833D02*
X172827912Y-93111595D01*
X172827912Y-93111595D02*
X172780293Y-93016357D01*
X172780293Y-93016357D02*
X172685055Y-92968738D01*
X172685055Y-92968738D02*
X172446960Y-92968738D01*
X172446960Y-92968738D02*
X172351722Y-92921119D01*
X171875531Y-92683024D02*
X171875531Y-93349691D01*
X171875531Y-92778262D02*
X171827912Y-92730643D01*
X171827912Y-92730643D02*
X171732674Y-92683024D01*
X171732674Y-92683024D02*
X171589817Y-92683024D01*
X171589817Y-92683024D02*
X171494579Y-92730643D01*
X171494579Y-92730643D02*
X171446960Y-92825881D01*
X171446960Y-92825881D02*
X171446960Y-93349691D01*
X170542198Y-93302072D02*
X170637436Y-93349691D01*
X170637436Y-93349691D02*
X170827912Y-93349691D01*
X170827912Y-93349691D02*
X170923150Y-93302072D01*
X170923150Y-93302072D02*
X170970769Y-93254452D01*
X170970769Y-93254452D02*
X171018388Y-93159214D01*
X171018388Y-93159214D02*
X171018388Y-92873500D01*
X171018388Y-92873500D02*
X170970769Y-92778262D01*
X170970769Y-92778262D02*
X170923150Y-92730643D01*
X170923150Y-92730643D02*
X170827912Y-92683024D01*
X170827912Y-92683024D02*
X170637436Y-92683024D01*
X170637436Y-92683024D02*
X170542198Y-92730643D01*
X169685055Y-93349691D02*
X169685055Y-92825881D01*
X169685055Y-92825881D02*
X169732674Y-92730643D01*
X169732674Y-92730643D02*
X169827912Y-92683024D01*
X169827912Y-92683024D02*
X170018388Y-92683024D01*
X170018388Y-92683024D02*
X170113626Y-92730643D01*
X169685055Y-93302072D02*
X169780293Y-93349691D01*
X169780293Y-93349691D02*
X170018388Y-93349691D01*
X170018388Y-93349691D02*
X170113626Y-93302072D01*
X170113626Y-93302072D02*
X170161245Y-93206833D01*
X170161245Y-93206833D02*
X170161245Y-93111595D01*
X170161245Y-93111595D02*
X170113626Y-93016357D01*
X170113626Y-93016357D02*
X170018388Y-92968738D01*
X170018388Y-92968738D02*
X169780293Y-92968738D01*
X169780293Y-92968738D02*
X169685055Y-92921119D01*
X169208864Y-93349691D02*
X169208864Y-92349691D01*
X169113626Y-92968738D02*
X168827912Y-93349691D01*
X168827912Y-92683024D02*
X169208864Y-93063976D01*
X186161247Y-94959635D02*
X186161247Y-93959635D01*
X186161247Y-93959635D02*
X185827914Y-94673920D01*
X185827914Y-94673920D02*
X185494581Y-93959635D01*
X185494581Y-93959635D02*
X185494581Y-94959635D01*
X184446962Y-94864396D02*
X184494581Y-94912016D01*
X184494581Y-94912016D02*
X184637438Y-94959635D01*
X184637438Y-94959635D02*
X184732676Y-94959635D01*
X184732676Y-94959635D02*
X184875533Y-94912016D01*
X184875533Y-94912016D02*
X184970771Y-94816777D01*
X184970771Y-94816777D02*
X185018390Y-94721539D01*
X185018390Y-94721539D02*
X185066009Y-94531063D01*
X185066009Y-94531063D02*
X185066009Y-94388206D01*
X185066009Y-94388206D02*
X185018390Y-94197730D01*
X185018390Y-94197730D02*
X184970771Y-94102492D01*
X184970771Y-94102492D02*
X184875533Y-94007254D01*
X184875533Y-94007254D02*
X184732676Y-93959635D01*
X184732676Y-93959635D02*
X184637438Y-93959635D01*
X184637438Y-93959635D02*
X184494581Y-94007254D01*
X184494581Y-94007254D02*
X184446962Y-94054873D01*
X184018390Y-93959635D02*
X184018390Y-94769158D01*
X184018390Y-94769158D02*
X183970771Y-94864396D01*
X183970771Y-94864396D02*
X183923152Y-94912016D01*
X183923152Y-94912016D02*
X183827914Y-94959635D01*
X183827914Y-94959635D02*
X183637438Y-94959635D01*
X183637438Y-94959635D02*
X183542200Y-94912016D01*
X183542200Y-94912016D02*
X183494581Y-94864396D01*
X183494581Y-94864396D02*
X183446962Y-94769158D01*
X183446962Y-94769158D02*
X183446962Y-93959635D01*
X182970771Y-94864396D02*
X182923152Y-94912016D01*
X182923152Y-94912016D02*
X182970771Y-94959635D01*
X182970771Y-94959635D02*
X183018390Y-94912016D01*
X183018390Y-94912016D02*
X182970771Y-94864396D01*
X182970771Y-94864396D02*
X182970771Y-94959635D01*
X182970771Y-94340587D02*
X182923152Y-94388206D01*
X182923152Y-94388206D02*
X182970771Y-94435825D01*
X182970771Y-94435825D02*
X183018390Y-94388206D01*
X183018390Y-94388206D02*
X182970771Y-94340587D01*
X182970771Y-94340587D02*
X182970771Y-94435825D01*
X181780295Y-94912016D02*
X181637438Y-94959635D01*
X181637438Y-94959635D02*
X181399343Y-94959635D01*
X181399343Y-94959635D02*
X181304105Y-94912016D01*
X181304105Y-94912016D02*
X181256486Y-94864396D01*
X181256486Y-94864396D02*
X181208867Y-94769158D01*
X181208867Y-94769158D02*
X181208867Y-94673920D01*
X181208867Y-94673920D02*
X181256486Y-94578682D01*
X181256486Y-94578682D02*
X181304105Y-94531063D01*
X181304105Y-94531063D02*
X181399343Y-94483444D01*
X181399343Y-94483444D02*
X181589819Y-94435825D01*
X181589819Y-94435825D02*
X181685057Y-94388206D01*
X181685057Y-94388206D02*
X181732676Y-94340587D01*
X181732676Y-94340587D02*
X181780295Y-94245349D01*
X181780295Y-94245349D02*
X181780295Y-94150111D01*
X181780295Y-94150111D02*
X181732676Y-94054873D01*
X181732676Y-94054873D02*
X181685057Y-94007254D01*
X181685057Y-94007254D02*
X181589819Y-93959635D01*
X181589819Y-93959635D02*
X181351724Y-93959635D01*
X181351724Y-93959635D02*
X181208867Y-94007254D01*
X180923152Y-93959635D02*
X180351724Y-93959635D01*
X180637438Y-94959635D02*
X180637438Y-93959635D01*
X180018390Y-94959635D02*
X180018390Y-93959635D01*
X180018390Y-93959635D02*
X179685057Y-94673920D01*
X179685057Y-94673920D02*
X179351724Y-93959635D01*
X179351724Y-93959635D02*
X179351724Y-94959635D01*
X178970771Y-93959635D02*
X178351724Y-93959635D01*
X178351724Y-93959635D02*
X178685057Y-94340587D01*
X178685057Y-94340587D02*
X178542200Y-94340587D01*
X178542200Y-94340587D02*
X178446962Y-94388206D01*
X178446962Y-94388206D02*
X178399343Y-94435825D01*
X178399343Y-94435825D02*
X178351724Y-94531063D01*
X178351724Y-94531063D02*
X178351724Y-94769158D01*
X178351724Y-94769158D02*
X178399343Y-94864396D01*
X178399343Y-94864396D02*
X178446962Y-94912016D01*
X178446962Y-94912016D02*
X178542200Y-94959635D01*
X178542200Y-94959635D02*
X178827914Y-94959635D01*
X178827914Y-94959635D02*
X178923152Y-94912016D01*
X178923152Y-94912016D02*
X178970771Y-94864396D01*
X177970771Y-94054873D02*
X177923152Y-94007254D01*
X177923152Y-94007254D02*
X177827914Y-93959635D01*
X177827914Y-93959635D02*
X177589819Y-93959635D01*
X177589819Y-93959635D02*
X177494581Y-94007254D01*
X177494581Y-94007254D02*
X177446962Y-94054873D01*
X177446962Y-94054873D02*
X177399343Y-94150111D01*
X177399343Y-94150111D02*
X177399343Y-94245349D01*
X177399343Y-94245349D02*
X177446962Y-94388206D01*
X177446962Y-94388206D02*
X178018390Y-94959635D01*
X178018390Y-94959635D02*
X177399343Y-94959635D01*
X177066009Y-93959635D02*
X176827914Y-94959635D01*
X176827914Y-94959635D02*
X176637438Y-94245349D01*
X176637438Y-94245349D02*
X176446962Y-94959635D01*
X176446962Y-94959635D02*
X176208867Y-93959635D01*
X175494581Y-94435825D02*
X175351724Y-94483444D01*
X175351724Y-94483444D02*
X175304105Y-94531063D01*
X175304105Y-94531063D02*
X175256486Y-94626301D01*
X175256486Y-94626301D02*
X175256486Y-94769158D01*
X175256486Y-94769158D02*
X175304105Y-94864396D01*
X175304105Y-94864396D02*
X175351724Y-94912016D01*
X175351724Y-94912016D02*
X175446962Y-94959635D01*
X175446962Y-94959635D02*
X175827914Y-94959635D01*
X175827914Y-94959635D02*
X175827914Y-93959635D01*
X175827914Y-93959635D02*
X175494581Y-93959635D01*
X175494581Y-93959635D02*
X175399343Y-94007254D01*
X175399343Y-94007254D02*
X175351724Y-94054873D01*
X175351724Y-94054873D02*
X175304105Y-94150111D01*
X175304105Y-94150111D02*
X175304105Y-94245349D01*
X175304105Y-94245349D02*
X175351724Y-94340587D01*
X175351724Y-94340587D02*
X175399343Y-94388206D01*
X175399343Y-94388206D02*
X175494581Y-94435825D01*
X175494581Y-94435825D02*
X175827914Y-94435825D01*
X174351724Y-93959635D02*
X174827914Y-93959635D01*
X174827914Y-93959635D02*
X174875533Y-94435825D01*
X174875533Y-94435825D02*
X174827914Y-94388206D01*
X174827914Y-94388206D02*
X174732676Y-94340587D01*
X174732676Y-94340587D02*
X174494581Y-94340587D01*
X174494581Y-94340587D02*
X174399343Y-94388206D01*
X174399343Y-94388206D02*
X174351724Y-94435825D01*
X174351724Y-94435825D02*
X174304105Y-94531063D01*
X174304105Y-94531063D02*
X174304105Y-94769158D01*
X174304105Y-94769158D02*
X174351724Y-94864396D01*
X174351724Y-94864396D02*
X174399343Y-94912016D01*
X174399343Y-94912016D02*
X174494581Y-94959635D01*
X174494581Y-94959635D02*
X174732676Y-94959635D01*
X174732676Y-94959635D02*
X174827914Y-94912016D01*
X174827914Y-94912016D02*
X174875533Y-94864396D01*
X173399343Y-93959635D02*
X173875533Y-93959635D01*
X173875533Y-93959635D02*
X173923152Y-94435825D01*
X173923152Y-94435825D02*
X173875533Y-94388206D01*
X173875533Y-94388206D02*
X173780295Y-94340587D01*
X173780295Y-94340587D02*
X173542200Y-94340587D01*
X173542200Y-94340587D02*
X173446962Y-94388206D01*
X173446962Y-94388206D02*
X173399343Y-94435825D01*
X173399343Y-94435825D02*
X173351724Y-94531063D01*
X173351724Y-94531063D02*
X173351724Y-94769158D01*
X173351724Y-94769158D02*
X173399343Y-94864396D01*
X173399343Y-94864396D02*
X173446962Y-94912016D01*
X173446962Y-94912016D02*
X173542200Y-94959635D01*
X173542200Y-94959635D02*
X173780295Y-94959635D01*
X173780295Y-94959635D02*
X173875533Y-94912016D01*
X173875533Y-94912016D02*
X173923152Y-94864396D01*
X172351724Y-94864396D02*
X172399343Y-94912016D01*
X172399343Y-94912016D02*
X172542200Y-94959635D01*
X172542200Y-94959635D02*
X172637438Y-94959635D01*
X172637438Y-94959635D02*
X172780295Y-94912016D01*
X172780295Y-94912016D02*
X172875533Y-94816777D01*
X172875533Y-94816777D02*
X172923152Y-94721539D01*
X172923152Y-94721539D02*
X172970771Y-94531063D01*
X172970771Y-94531063D02*
X172970771Y-94388206D01*
X172970771Y-94388206D02*
X172923152Y-94197730D01*
X172923152Y-94197730D02*
X172875533Y-94102492D01*
X172875533Y-94102492D02*
X172780295Y-94007254D01*
X172780295Y-94007254D02*
X172637438Y-93959635D01*
X172637438Y-93959635D02*
X172542200Y-93959635D01*
X172542200Y-93959635D02*
X172399343Y-94007254D01*
X172399343Y-94007254D02*
X172351724Y-94054873D01*
X171399343Y-94007254D02*
X171494581Y-93959635D01*
X171494581Y-93959635D02*
X171637438Y-93959635D01*
X171637438Y-93959635D02*
X171780295Y-94007254D01*
X171780295Y-94007254D02*
X171875533Y-94102492D01*
X171875533Y-94102492D02*
X171923152Y-94197730D01*
X171923152Y-94197730D02*
X171970771Y-94388206D01*
X171970771Y-94388206D02*
X171970771Y-94531063D01*
X171970771Y-94531063D02*
X171923152Y-94721539D01*
X171923152Y-94721539D02*
X171875533Y-94816777D01*
X171875533Y-94816777D02*
X171780295Y-94912016D01*
X171780295Y-94912016D02*
X171637438Y-94959635D01*
X171637438Y-94959635D02*
X171542200Y-94959635D01*
X171542200Y-94959635D02*
X171399343Y-94912016D01*
X171399343Y-94912016D02*
X171351724Y-94864396D01*
X171351724Y-94864396D02*
X171351724Y-94531063D01*
X171351724Y-94531063D02*
X171542200Y-94531063D01*
X170923152Y-93959635D02*
X170923152Y-94769158D01*
X170923152Y-94769158D02*
X170875533Y-94864396D01*
X170875533Y-94864396D02*
X170827914Y-94912016D01*
X170827914Y-94912016D02*
X170732676Y-94959635D01*
X170732676Y-94959635D02*
X170542200Y-94959635D01*
X170542200Y-94959635D02*
X170446962Y-94912016D01*
X170446962Y-94912016D02*
X170399343Y-94864396D01*
X170399343Y-94864396D02*
X170351724Y-94769158D01*
X170351724Y-94769158D02*
X170351724Y-93959635D01*
X169446962Y-93959635D02*
X169637438Y-93959635D01*
X169637438Y-93959635D02*
X169732676Y-94007254D01*
X169732676Y-94007254D02*
X169780295Y-94054873D01*
X169780295Y-94054873D02*
X169875533Y-94197730D01*
X169875533Y-94197730D02*
X169923152Y-94388206D01*
X169923152Y-94388206D02*
X169923152Y-94769158D01*
X169923152Y-94769158D02*
X169875533Y-94864396D01*
X169875533Y-94864396D02*
X169827914Y-94912016D01*
X169827914Y-94912016D02*
X169732676Y-94959635D01*
X169732676Y-94959635D02*
X169542200Y-94959635D01*
X169542200Y-94959635D02*
X169446962Y-94912016D01*
X169446962Y-94912016D02*
X169399343Y-94864396D01*
X169399343Y-94864396D02*
X169351724Y-94769158D01*
X169351724Y-94769158D02*
X169351724Y-94531063D01*
X169351724Y-94531063D02*
X169399343Y-94435825D01*
X169399343Y-94435825D02*
X169446962Y-94388206D01*
X169446962Y-94388206D02*
X169542200Y-94340587D01*
X169542200Y-94340587D02*
X169732676Y-94340587D01*
X169732676Y-94340587D02*
X169827914Y-94388206D01*
X169827914Y-94388206D02*
X169875533Y-94435825D01*
X169875533Y-94435825D02*
X169923152Y-94531063D01*
X185685057Y-96569579D02*
X186161247Y-96569579D01*
X186161247Y-96569579D02*
X186161247Y-95569579D01*
X185351723Y-96569579D02*
X185351723Y-95569579D01*
X185351723Y-95569579D02*
X185113628Y-95569579D01*
X185113628Y-95569579D02*
X184970771Y-95617198D01*
X184970771Y-95617198D02*
X184875533Y-95712436D01*
X184875533Y-95712436D02*
X184827914Y-95807674D01*
X184827914Y-95807674D02*
X184780295Y-95998150D01*
X184780295Y-95998150D02*
X184780295Y-96141007D01*
X184780295Y-96141007D02*
X184827914Y-96331483D01*
X184827914Y-96331483D02*
X184875533Y-96426721D01*
X184875533Y-96426721D02*
X184970771Y-96521960D01*
X184970771Y-96521960D02*
X185113628Y-96569579D01*
X185113628Y-96569579D02*
X185351723Y-96569579D01*
X184161247Y-95569579D02*
X183970771Y-95569579D01*
X183970771Y-95569579D02*
X183875533Y-95617198D01*
X183875533Y-95617198D02*
X183780295Y-95712436D01*
X183780295Y-95712436D02*
X183732676Y-95902912D01*
X183732676Y-95902912D02*
X183732676Y-96236245D01*
X183732676Y-96236245D02*
X183780295Y-96426721D01*
X183780295Y-96426721D02*
X183875533Y-96521960D01*
X183875533Y-96521960D02*
X183970771Y-96569579D01*
X183970771Y-96569579D02*
X184161247Y-96569579D01*
X184161247Y-96569579D02*
X184256485Y-96521960D01*
X184256485Y-96521960D02*
X184351723Y-96426721D01*
X184351723Y-96426721D02*
X184399342Y-96236245D01*
X184399342Y-96236245D02*
X184399342Y-95902912D01*
X184399342Y-95902912D02*
X184351723Y-95712436D01*
X184351723Y-95712436D02*
X184256485Y-95617198D01*
X184256485Y-95617198D02*
X184161247Y-95569579D01*
X183304104Y-96474340D02*
X183256485Y-96521960D01*
X183256485Y-96521960D02*
X183304104Y-96569579D01*
X183304104Y-96569579D02*
X183351723Y-96521960D01*
X183351723Y-96521960D02*
X183304104Y-96474340D01*
X183304104Y-96474340D02*
X183304104Y-96569579D01*
X183304104Y-95950531D02*
X183256485Y-95998150D01*
X183256485Y-95998150D02*
X183304104Y-96045769D01*
X183304104Y-96045769D02*
X183351723Y-95998150D01*
X183351723Y-95998150D02*
X183304104Y-95950531D01*
X183304104Y-95950531D02*
X183304104Y-96045769D01*
X181589819Y-96569579D02*
X182066009Y-96569579D01*
X182066009Y-96569579D02*
X182066009Y-95569579D01*
X181256485Y-96569579D02*
X181256485Y-95569579D01*
X181256485Y-95569579D02*
X181018390Y-95569579D01*
X181018390Y-95569579D02*
X180875533Y-95617198D01*
X180875533Y-95617198D02*
X180780295Y-95712436D01*
X180780295Y-95712436D02*
X180732676Y-95807674D01*
X180732676Y-95807674D02*
X180685057Y-95998150D01*
X180685057Y-95998150D02*
X180685057Y-96141007D01*
X180685057Y-96141007D02*
X180732676Y-96331483D01*
X180732676Y-96331483D02*
X180780295Y-96426721D01*
X180780295Y-96426721D02*
X180875533Y-96521960D01*
X180875533Y-96521960D02*
X181018390Y-96569579D01*
X181018390Y-96569579D02*
X181256485Y-96569579D01*
X179780295Y-96569579D02*
X180256485Y-96569579D01*
X180256485Y-96569579D02*
X180256485Y-95569579D01*
X179446961Y-96569579D02*
X179446961Y-95569579D01*
X179446961Y-95569579D02*
X178875533Y-96569579D01*
X178875533Y-96569579D02*
X178875533Y-95569579D01*
X178208866Y-95569579D02*
X178113628Y-95569579D01*
X178113628Y-95569579D02*
X178018390Y-95617198D01*
X178018390Y-95617198D02*
X177970771Y-95664817D01*
X177970771Y-95664817D02*
X177923152Y-95760055D01*
X177923152Y-95760055D02*
X177875533Y-95950531D01*
X177875533Y-95950531D02*
X177875533Y-96188626D01*
X177875533Y-96188626D02*
X177923152Y-96379102D01*
X177923152Y-96379102D02*
X177970771Y-96474340D01*
X177970771Y-96474340D02*
X178018390Y-96521960D01*
X178018390Y-96521960D02*
X178113628Y-96569579D01*
X178113628Y-96569579D02*
X178208866Y-96569579D01*
X178208866Y-96569579D02*
X178304104Y-96521960D01*
X178304104Y-96521960D02*
X178351723Y-96474340D01*
X178351723Y-96474340D02*
X178399342Y-96379102D01*
X178399342Y-96379102D02*
X178446961Y-96188626D01*
X178446961Y-96188626D02*
X178446961Y-95950531D01*
X178446961Y-95950531D02*
X178399342Y-95760055D01*
X178399342Y-95760055D02*
X178351723Y-95664817D01*
X178351723Y-95664817D02*
X178304104Y-95617198D01*
X178304104Y-95617198D02*
X178208866Y-95569579D01*
X176970771Y-95569579D02*
X177446961Y-95569579D01*
X177446961Y-95569579D02*
X177494580Y-96045769D01*
X177494580Y-96045769D02*
X177446961Y-95998150D01*
X177446961Y-95998150D02*
X177351723Y-95950531D01*
X177351723Y-95950531D02*
X177113628Y-95950531D01*
X177113628Y-95950531D02*
X177018390Y-95998150D01*
X177018390Y-95998150D02*
X176970771Y-96045769D01*
X176970771Y-96045769D02*
X176923152Y-96141007D01*
X176923152Y-96141007D02*
X176923152Y-96379102D01*
X176923152Y-96379102D02*
X176970771Y-96474340D01*
X176970771Y-96474340D02*
X177018390Y-96521960D01*
X177018390Y-96521960D02*
X177113628Y-96569579D01*
X177113628Y-96569579D02*
X177351723Y-96569579D01*
X177351723Y-96569579D02*
X177446961Y-96521960D01*
X177446961Y-96521960D02*
X177494580Y-96474340D01*
X176304104Y-95569579D02*
X176208866Y-95569579D01*
X176208866Y-95569579D02*
X176113628Y-95617198D01*
X176113628Y-95617198D02*
X176066009Y-95664817D01*
X176066009Y-95664817D02*
X176018390Y-95760055D01*
X176018390Y-95760055D02*
X175970771Y-95950531D01*
X175970771Y-95950531D02*
X175970771Y-96188626D01*
X175970771Y-96188626D02*
X176018390Y-96379102D01*
X176018390Y-96379102D02*
X176066009Y-96474340D01*
X176066009Y-96474340D02*
X176113628Y-96521960D01*
X176113628Y-96521960D02*
X176208866Y-96569579D01*
X176208866Y-96569579D02*
X176304104Y-96569579D01*
X176304104Y-96569579D02*
X176399342Y-96521960D01*
X176399342Y-96521960D02*
X176446961Y-96474340D01*
X176446961Y-96474340D02*
X176494580Y-96379102D01*
X176494580Y-96379102D02*
X176542199Y-96188626D01*
X176542199Y-96188626D02*
X176542199Y-95950531D01*
X176542199Y-95950531D02*
X176494580Y-95760055D01*
X176494580Y-95760055D02*
X176446961Y-95664817D01*
X176446961Y-95664817D02*
X176399342Y-95617198D01*
X176399342Y-95617198D02*
X176304104Y-95569579D01*
X175542199Y-96569579D02*
X175542199Y-95569579D01*
X175542199Y-95569579D02*
X175161247Y-95569579D01*
X175161247Y-95569579D02*
X175066009Y-95617198D01*
X175066009Y-95617198D02*
X175018390Y-95664817D01*
X175018390Y-95664817D02*
X174970771Y-95760055D01*
X174970771Y-95760055D02*
X174970771Y-95902912D01*
X174970771Y-95902912D02*
X175018390Y-95998150D01*
X175018390Y-95998150D02*
X175066009Y-96045769D01*
X175066009Y-96045769D02*
X175161247Y-96093388D01*
X175161247Y-96093388D02*
X175542199Y-96093388D01*
X174542199Y-95569579D02*
X174542199Y-96379102D01*
X174542199Y-96379102D02*
X174494580Y-96474340D01*
X174494580Y-96474340D02*
X174446961Y-96521960D01*
X174446961Y-96521960D02*
X174351723Y-96569579D01*
X174351723Y-96569579D02*
X174161247Y-96569579D01*
X174161247Y-96569579D02*
X174066009Y-96521960D01*
X174066009Y-96521960D02*
X174018390Y-96474340D01*
X174018390Y-96474340D02*
X173970771Y-96379102D01*
X173970771Y-96379102D02*
X173970771Y-95569579D01*
X173589818Y-95569579D02*
X172970771Y-95569579D01*
X172970771Y-95569579D02*
X173304104Y-95950531D01*
X173304104Y-95950531D02*
X173161247Y-95950531D01*
X173161247Y-95950531D02*
X173066009Y-95998150D01*
X173066009Y-95998150D02*
X173018390Y-96045769D01*
X173018390Y-96045769D02*
X172970771Y-96141007D01*
X172970771Y-96141007D02*
X172970771Y-96379102D01*
X172970771Y-96379102D02*
X173018390Y-96474340D01*
X173018390Y-96474340D02*
X173066009Y-96521960D01*
X173066009Y-96521960D02*
X173161247Y-96569579D01*
X173161247Y-96569579D02*
X173446961Y-96569579D01*
X173446961Y-96569579D02*
X173542199Y-96521960D01*
X173542199Y-96521960D02*
X173589818Y-96474340D01*
X172637437Y-95569579D02*
X172018390Y-95569579D01*
X172018390Y-95569579D02*
X172351723Y-95950531D01*
X172351723Y-95950531D02*
X172208866Y-95950531D01*
X172208866Y-95950531D02*
X172113628Y-95998150D01*
X172113628Y-95998150D02*
X172066009Y-96045769D01*
X172066009Y-96045769D02*
X172018390Y-96141007D01*
X172018390Y-96141007D02*
X172018390Y-96379102D01*
X172018390Y-96379102D02*
X172066009Y-96474340D01*
X172066009Y-96474340D02*
X172113628Y-96521960D01*
X172113628Y-96521960D02*
X172208866Y-96569579D01*
X172208866Y-96569579D02*
X172494580Y-96569579D01*
X172494580Y-96569579D02*
X172589818Y-96521960D01*
X172589818Y-96521960D02*
X172637437Y-96474340D01*
X171018390Y-96569579D02*
X171351723Y-96093388D01*
X171589818Y-96569579D02*
X171589818Y-95569579D01*
X171589818Y-95569579D02*
X171208866Y-95569579D01*
X171208866Y-95569579D02*
X171113628Y-95617198D01*
X171113628Y-95617198D02*
X171066009Y-95664817D01*
X171066009Y-95664817D02*
X171018390Y-95760055D01*
X171018390Y-95760055D02*
X171018390Y-95902912D01*
X171018390Y-95902912D02*
X171066009Y-95998150D01*
X171066009Y-95998150D02*
X171113628Y-96045769D01*
X171113628Y-96045769D02*
X171208866Y-96093388D01*
X171208866Y-96093388D02*
X171589818Y-96093388D01*
X186304104Y-97179523D02*
X185970771Y-98179523D01*
X185970771Y-98179523D02*
X185637438Y-97179523D01*
X185304104Y-98179523D02*
X185304104Y-97179523D01*
X184827914Y-98179523D02*
X184827914Y-97179523D01*
X184827914Y-97179523D02*
X184256486Y-98179523D01*
X184256486Y-98179523D02*
X184256486Y-97179523D01*
X183780295Y-98084284D02*
X183732676Y-98131904D01*
X183732676Y-98131904D02*
X183780295Y-98179523D01*
X183780295Y-98179523D02*
X183827914Y-98131904D01*
X183827914Y-98131904D02*
X183780295Y-98084284D01*
X183780295Y-98084284D02*
X183780295Y-98179523D01*
X183780295Y-97560475D02*
X183732676Y-97608094D01*
X183732676Y-97608094D02*
X183780295Y-97655713D01*
X183780295Y-97655713D02*
X183827914Y-97608094D01*
X183827914Y-97608094D02*
X183780295Y-97560475D01*
X183780295Y-97560475D02*
X183780295Y-97655713D01*
X182589819Y-97274761D02*
X182542200Y-97227142D01*
X182542200Y-97227142D02*
X182446962Y-97179523D01*
X182446962Y-97179523D02*
X182208867Y-97179523D01*
X182208867Y-97179523D02*
X182113629Y-97227142D01*
X182113629Y-97227142D02*
X182066010Y-97274761D01*
X182066010Y-97274761D02*
X182018391Y-97369999D01*
X182018391Y-97369999D02*
X182018391Y-97465237D01*
X182018391Y-97465237D02*
X182066010Y-97608094D01*
X182066010Y-97608094D02*
X182637438Y-98179523D01*
X182637438Y-98179523D02*
X182018391Y-98179523D01*
X181589819Y-98084284D02*
X181542200Y-98131904D01*
X181542200Y-98131904D02*
X181589819Y-98179523D01*
X181589819Y-98179523D02*
X181637438Y-98131904D01*
X181637438Y-98131904D02*
X181589819Y-98084284D01*
X181589819Y-98084284D02*
X181589819Y-98179523D01*
X181208867Y-97179523D02*
X180542201Y-97179523D01*
X180542201Y-97179523D02*
X180970772Y-98179523D01*
X179542200Y-97512856D02*
X179161248Y-97512856D01*
X179399343Y-97179523D02*
X179399343Y-98036665D01*
X179399343Y-98036665D02*
X179351724Y-98131904D01*
X179351724Y-98131904D02*
X179256486Y-98179523D01*
X179256486Y-98179523D02*
X179161248Y-98179523D01*
X178685057Y-98179523D02*
X178780295Y-98131904D01*
X178780295Y-98131904D02*
X178827914Y-98084284D01*
X178827914Y-98084284D02*
X178875533Y-97989046D01*
X178875533Y-97989046D02*
X178875533Y-97703332D01*
X178875533Y-97703332D02*
X178827914Y-97608094D01*
X178827914Y-97608094D02*
X178780295Y-97560475D01*
X178780295Y-97560475D02*
X178685057Y-97512856D01*
X178685057Y-97512856D02*
X178542200Y-97512856D01*
X178542200Y-97512856D02*
X178446962Y-97560475D01*
X178446962Y-97560475D02*
X178399343Y-97608094D01*
X178399343Y-97608094D02*
X178351724Y-97703332D01*
X178351724Y-97703332D02*
X178351724Y-97989046D01*
X178351724Y-97989046D02*
X178399343Y-98084284D01*
X178399343Y-98084284D02*
X178446962Y-98131904D01*
X178446962Y-98131904D02*
X178542200Y-98179523D01*
X178542200Y-98179523D02*
X178685057Y-98179523D01*
X176732676Y-97179523D02*
X176923152Y-97179523D01*
X176923152Y-97179523D02*
X177018390Y-97227142D01*
X177018390Y-97227142D02*
X177066009Y-97274761D01*
X177066009Y-97274761D02*
X177161247Y-97417618D01*
X177161247Y-97417618D02*
X177208866Y-97608094D01*
X177208866Y-97608094D02*
X177208866Y-97989046D01*
X177208866Y-97989046D02*
X177161247Y-98084284D01*
X177161247Y-98084284D02*
X177113628Y-98131904D01*
X177113628Y-98131904D02*
X177018390Y-98179523D01*
X177018390Y-98179523D02*
X176827914Y-98179523D01*
X176827914Y-98179523D02*
X176732676Y-98131904D01*
X176732676Y-98131904D02*
X176685057Y-98084284D01*
X176685057Y-98084284D02*
X176637438Y-97989046D01*
X176637438Y-97989046D02*
X176637438Y-97750951D01*
X176637438Y-97750951D02*
X176685057Y-97655713D01*
X176685057Y-97655713D02*
X176732676Y-97608094D01*
X176732676Y-97608094D02*
X176827914Y-97560475D01*
X176827914Y-97560475D02*
X177018390Y-97560475D01*
X177018390Y-97560475D02*
X177113628Y-97608094D01*
X177113628Y-97608094D02*
X177161247Y-97655713D01*
X177161247Y-97655713D02*
X177208866Y-97750951D01*
X176208866Y-98084284D02*
X176161247Y-98131904D01*
X176161247Y-98131904D02*
X176208866Y-98179523D01*
X176208866Y-98179523D02*
X176256485Y-98131904D01*
X176256485Y-98131904D02*
X176208866Y-98084284D01*
X176208866Y-98084284D02*
X176208866Y-98179523D01*
X175256486Y-97179523D02*
X175732676Y-97179523D01*
X175732676Y-97179523D02*
X175780295Y-97655713D01*
X175780295Y-97655713D02*
X175732676Y-97608094D01*
X175732676Y-97608094D02*
X175637438Y-97560475D01*
X175637438Y-97560475D02*
X175399343Y-97560475D01*
X175399343Y-97560475D02*
X175304105Y-97608094D01*
X175304105Y-97608094D02*
X175256486Y-97655713D01*
X175256486Y-97655713D02*
X175208867Y-97750951D01*
X175208867Y-97750951D02*
X175208867Y-97989046D01*
X175208867Y-97989046D02*
X175256486Y-98084284D01*
X175256486Y-98084284D02*
X175304105Y-98131904D01*
X175304105Y-98131904D02*
X175399343Y-98179523D01*
X175399343Y-98179523D02*
X175637438Y-98179523D01*
X175637438Y-98179523D02*
X175732676Y-98131904D01*
X175732676Y-98131904D02*
X175780295Y-98084284D01*
X174923152Y-97179523D02*
X174589819Y-98179523D01*
X174589819Y-98179523D02*
X174256486Y-97179523D01*
X162966666Y-112469146D02*
X163109523Y-112421527D01*
X163109523Y-112421527D02*
X163157142Y-112373908D01*
X163157142Y-112373908D02*
X163204761Y-112278670D01*
X163204761Y-112278670D02*
X163204761Y-112135813D01*
X163204761Y-112135813D02*
X163157142Y-112040575D01*
X163157142Y-112040575D02*
X163109523Y-111992956D01*
X163109523Y-111992956D02*
X163014285Y-111945336D01*
X163014285Y-111945336D02*
X162633333Y-111945336D01*
X162633333Y-111945336D02*
X162633333Y-112945336D01*
X162633333Y-112945336D02*
X162966666Y-112945336D01*
X162966666Y-112945336D02*
X163061904Y-112897717D01*
X163061904Y-112897717D02*
X163109523Y-112850098D01*
X163109523Y-112850098D02*
X163157142Y-112754860D01*
X163157142Y-112754860D02*
X163157142Y-112659622D01*
X163157142Y-112659622D02*
X163109523Y-112564384D01*
X163109523Y-112564384D02*
X163061904Y-112516765D01*
X163061904Y-112516765D02*
X162966666Y-112469146D01*
X162966666Y-112469146D02*
X162633333Y-112469146D01*
X163823809Y-112945336D02*
X164014285Y-112945336D01*
X164014285Y-112945336D02*
X164109523Y-112897717D01*
X164109523Y-112897717D02*
X164204761Y-112802479D01*
X164204761Y-112802479D02*
X164252380Y-112612003D01*
X164252380Y-112612003D02*
X164252380Y-112278670D01*
X164252380Y-112278670D02*
X164204761Y-112088194D01*
X164204761Y-112088194D02*
X164109523Y-111992956D01*
X164109523Y-111992956D02*
X164014285Y-111945336D01*
X164014285Y-111945336D02*
X163823809Y-111945336D01*
X163823809Y-111945336D02*
X163728571Y-111992956D01*
X163728571Y-111992956D02*
X163633333Y-112088194D01*
X163633333Y-112088194D02*
X163585714Y-112278670D01*
X163585714Y-112278670D02*
X163585714Y-112612003D01*
X163585714Y-112612003D02*
X163633333Y-112802479D01*
X163633333Y-112802479D02*
X163728571Y-112897717D01*
X163728571Y-112897717D02*
X163823809Y-112945336D01*
X164871428Y-112945336D02*
X165061904Y-112945336D01*
X165061904Y-112945336D02*
X165157142Y-112897717D01*
X165157142Y-112897717D02*
X165252380Y-112802479D01*
X165252380Y-112802479D02*
X165299999Y-112612003D01*
X165299999Y-112612003D02*
X165299999Y-112278670D01*
X165299999Y-112278670D02*
X165252380Y-112088194D01*
X165252380Y-112088194D02*
X165157142Y-111992956D01*
X165157142Y-111992956D02*
X165061904Y-111945336D01*
X165061904Y-111945336D02*
X164871428Y-111945336D01*
X164871428Y-111945336D02*
X164776190Y-111992956D01*
X164776190Y-111992956D02*
X164680952Y-112088194D01*
X164680952Y-112088194D02*
X164633333Y-112278670D01*
X164633333Y-112278670D02*
X164633333Y-112612003D01*
X164633333Y-112612003D02*
X164680952Y-112802479D01*
X164680952Y-112802479D02*
X164776190Y-112897717D01*
X164776190Y-112897717D02*
X164871428Y-112945336D01*
X165585714Y-112945336D02*
X166157142Y-112945336D01*
X165871428Y-111945336D02*
X165871428Y-112945336D01*
X166680952Y-112945336D02*
X166776190Y-112945336D01*
X166776190Y-112945336D02*
X166871428Y-112897717D01*
X166871428Y-112897717D02*
X166919047Y-112850098D01*
X166919047Y-112850098D02*
X166966666Y-112754860D01*
X166966666Y-112754860D02*
X167014285Y-112564384D01*
X167014285Y-112564384D02*
X167014285Y-112326289D01*
X167014285Y-112326289D02*
X166966666Y-112135813D01*
X166966666Y-112135813D02*
X166919047Y-112040575D01*
X166919047Y-112040575D02*
X166871428Y-111992956D01*
X166871428Y-111992956D02*
X166776190Y-111945336D01*
X166776190Y-111945336D02*
X166680952Y-111945336D01*
X166680952Y-111945336D02*
X166585714Y-111992956D01*
X166585714Y-111992956D02*
X166538095Y-112040575D01*
X166538095Y-112040575D02*
X166490476Y-112135813D01*
X166490476Y-112135813D02*
X166442857Y-112326289D01*
X166442857Y-112326289D02*
X166442857Y-112564384D01*
X166442857Y-112564384D02*
X166490476Y-112754860D01*
X166490476Y-112754860D02*
X166538095Y-112850098D01*
X166538095Y-112850098D02*
X166585714Y-112897717D01*
X166585714Y-112897717D02*
X166680952Y-112945336D01*
X152397717Y-119761904D02*
X152445336Y-119857142D01*
X152445336Y-119857142D02*
X152445336Y-119999999D01*
X152445336Y-119999999D02*
X152397717Y-120142856D01*
X152397717Y-120142856D02*
X152302479Y-120238094D01*
X152302479Y-120238094D02*
X152207241Y-120285713D01*
X152207241Y-120285713D02*
X152016765Y-120333332D01*
X152016765Y-120333332D02*
X151873908Y-120333332D01*
X151873908Y-120333332D02*
X151683432Y-120285713D01*
X151683432Y-120285713D02*
X151588194Y-120238094D01*
X151588194Y-120238094D02*
X151492956Y-120142856D01*
X151492956Y-120142856D02*
X151445336Y-119999999D01*
X151445336Y-119999999D02*
X151445336Y-119904761D01*
X151445336Y-119904761D02*
X151492956Y-119761904D01*
X151492956Y-119761904D02*
X151540575Y-119714285D01*
X151540575Y-119714285D02*
X151873908Y-119714285D01*
X151873908Y-119714285D02*
X151873908Y-119904761D01*
X151445336Y-119285713D02*
X152445336Y-119285713D01*
X152445336Y-119285713D02*
X151445336Y-118714285D01*
X151445336Y-118714285D02*
X152445336Y-118714285D01*
X151445336Y-118238094D02*
X152445336Y-118238094D01*
X152445336Y-118238094D02*
X152445336Y-117999999D01*
X152445336Y-117999999D02*
X152397717Y-117857142D01*
X152397717Y-117857142D02*
X152302479Y-117761904D01*
X152302479Y-117761904D02*
X152207241Y-117714285D01*
X152207241Y-117714285D02*
X152016765Y-117666666D01*
X152016765Y-117666666D02*
X151873908Y-117666666D01*
X151873908Y-117666666D02*
X151683432Y-117714285D01*
X151683432Y-117714285D02*
X151588194Y-117761904D01*
X151588194Y-117761904D02*
X151492956Y-117857142D01*
X151492956Y-117857142D02*
X151445336Y-117999999D01*
X151445336Y-117999999D02*
X151445336Y-118238094D01*
X119780953Y-89892956D02*
X119923810Y-89845336D01*
X119923810Y-89845336D02*
X120161905Y-89845336D01*
X120161905Y-89845336D02*
X120257143Y-89892956D01*
X120257143Y-89892956D02*
X120304762Y-89940575D01*
X120304762Y-89940575D02*
X120352381Y-90035813D01*
X120352381Y-90035813D02*
X120352381Y-90131051D01*
X120352381Y-90131051D02*
X120304762Y-90226289D01*
X120304762Y-90226289D02*
X120257143Y-90273908D01*
X120257143Y-90273908D02*
X120161905Y-90321527D01*
X120161905Y-90321527D02*
X119971429Y-90369146D01*
X119971429Y-90369146D02*
X119876191Y-90416765D01*
X119876191Y-90416765D02*
X119828572Y-90464384D01*
X119828572Y-90464384D02*
X119780953Y-90559622D01*
X119780953Y-90559622D02*
X119780953Y-90654860D01*
X119780953Y-90654860D02*
X119828572Y-90750098D01*
X119828572Y-90750098D02*
X119876191Y-90797717D01*
X119876191Y-90797717D02*
X119971429Y-90845336D01*
X119971429Y-90845336D02*
X120209524Y-90845336D01*
X120209524Y-90845336D02*
X120352381Y-90797717D01*
X120685715Y-90845336D02*
X120923810Y-89845336D01*
X120923810Y-89845336D02*
X121114286Y-90559622D01*
X121114286Y-90559622D02*
X121304762Y-89845336D01*
X121304762Y-89845336D02*
X121542858Y-90845336D01*
X121923810Y-89845336D02*
X121923810Y-90845336D01*
X121923810Y-90845336D02*
X122161905Y-90845336D01*
X122161905Y-90845336D02*
X122304762Y-90797717D01*
X122304762Y-90797717D02*
X122400000Y-90702479D01*
X122400000Y-90702479D02*
X122447619Y-90607241D01*
X122447619Y-90607241D02*
X122495238Y-90416765D01*
X122495238Y-90416765D02*
X122495238Y-90273908D01*
X122495238Y-90273908D02*
X122447619Y-90083432D01*
X122447619Y-90083432D02*
X122400000Y-89988194D01*
X122400000Y-89988194D02*
X122304762Y-89892956D01*
X122304762Y-89892956D02*
X122161905Y-89845336D01*
X122161905Y-89845336D02*
X121923810Y-89845336D01*
X122923810Y-89845336D02*
X122923810Y-90845336D01*
X123590476Y-90845336D02*
X123780952Y-90845336D01*
X123780952Y-90845336D02*
X123876190Y-90797717D01*
X123876190Y-90797717D02*
X123971428Y-90702479D01*
X123971428Y-90702479D02*
X124019047Y-90512003D01*
X124019047Y-90512003D02*
X124019047Y-90178670D01*
X124019047Y-90178670D02*
X123971428Y-89988194D01*
X123971428Y-89988194D02*
X123876190Y-89892956D01*
X123876190Y-89892956D02*
X123780952Y-89845336D01*
X123780952Y-89845336D02*
X123590476Y-89845336D01*
X123590476Y-89845336D02*
X123495238Y-89892956D01*
X123495238Y-89892956D02*
X123400000Y-89988194D01*
X123400000Y-89988194D02*
X123352381Y-90178670D01*
X123352381Y-90178670D02*
X123352381Y-90512003D01*
X123352381Y-90512003D02*
X123400000Y-90702479D01*
X123400000Y-90702479D02*
X123495238Y-90797717D01*
X123495238Y-90797717D02*
X123590476Y-90845336D01*
X137445336Y-119880951D02*
X138445336Y-119880951D01*
X138445336Y-119880951D02*
X138445336Y-119499999D01*
X138445336Y-119499999D02*
X138397717Y-119404761D01*
X138397717Y-119404761D02*
X138350098Y-119357142D01*
X138350098Y-119357142D02*
X138254860Y-119309523D01*
X138254860Y-119309523D02*
X138112003Y-119309523D01*
X138112003Y-119309523D02*
X138016765Y-119357142D01*
X138016765Y-119357142D02*
X137969146Y-119404761D01*
X137969146Y-119404761D02*
X137921527Y-119499999D01*
X137921527Y-119499999D02*
X137921527Y-119880951D01*
X137731051Y-118928570D02*
X137731051Y-118452380D01*
X137445336Y-119023808D02*
X138445336Y-118690475D01*
X138445336Y-118690475D02*
X137445336Y-118357142D01*
X138016765Y-117880951D02*
X138064384Y-117976189D01*
X138064384Y-117976189D02*
X138112003Y-118023808D01*
X138112003Y-118023808D02*
X138207241Y-118071427D01*
X138207241Y-118071427D02*
X138254860Y-118071427D01*
X138254860Y-118071427D02*
X138350098Y-118023808D01*
X138350098Y-118023808D02*
X138397717Y-117976189D01*
X138397717Y-117976189D02*
X138445336Y-117880951D01*
X138445336Y-117880951D02*
X138445336Y-117690475D01*
X138445336Y-117690475D02*
X138397717Y-117595237D01*
X138397717Y-117595237D02*
X138350098Y-117547618D01*
X138350098Y-117547618D02*
X138254860Y-117499999D01*
X138254860Y-117499999D02*
X138207241Y-117499999D01*
X138207241Y-117499999D02*
X138112003Y-117547618D01*
X138112003Y-117547618D02*
X138064384Y-117595237D01*
X138064384Y-117595237D02*
X138016765Y-117690475D01*
X138016765Y-117690475D02*
X138016765Y-117880951D01*
X138016765Y-117880951D02*
X137969146Y-117976189D01*
X137969146Y-117976189D02*
X137921527Y-118023808D01*
X137921527Y-118023808D02*
X137826289Y-118071427D01*
X137826289Y-118071427D02*
X137635813Y-118071427D01*
X137635813Y-118071427D02*
X137540575Y-118023808D01*
X137540575Y-118023808D02*
X137492956Y-117976189D01*
X137492956Y-117976189D02*
X137445336Y-117880951D01*
X137445336Y-117880951D02*
X137445336Y-117690475D01*
X137445336Y-117690475D02*
X137492956Y-117595237D01*
X137492956Y-117595237D02*
X137540575Y-117547618D01*
X137540575Y-117547618D02*
X137635813Y-117499999D01*
X137635813Y-117499999D02*
X137826289Y-117499999D01*
X137826289Y-117499999D02*
X137921527Y-117547618D01*
X137921527Y-117547618D02*
X137969146Y-117595237D01*
X137969146Y-117595237D02*
X138016765Y-117690475D01*
X137826289Y-117071427D02*
X137826289Y-116309523D01*
X137445336Y-115833332D02*
X138445336Y-115833332D01*
X138445336Y-115833332D02*
X137731051Y-115499999D01*
X137731051Y-115499999D02*
X138445336Y-115166666D01*
X138445336Y-115166666D02*
X137445336Y-115166666D01*
X137540575Y-114119047D02*
X137492956Y-114166666D01*
X137492956Y-114166666D02*
X137445336Y-114309523D01*
X137445336Y-114309523D02*
X137445336Y-114404761D01*
X137445336Y-114404761D02*
X137492956Y-114547618D01*
X137492956Y-114547618D02*
X137588194Y-114642856D01*
X137588194Y-114642856D02*
X137683432Y-114690475D01*
X137683432Y-114690475D02*
X137873908Y-114738094D01*
X137873908Y-114738094D02*
X138016765Y-114738094D01*
X138016765Y-114738094D02*
X138207241Y-114690475D01*
X138207241Y-114690475D02*
X138302479Y-114642856D01*
X138302479Y-114642856D02*
X138397717Y-114547618D01*
X138397717Y-114547618D02*
X138445336Y-114404761D01*
X138445336Y-114404761D02*
X138445336Y-114309523D01*
X138445336Y-114309523D02*
X138397717Y-114166666D01*
X138397717Y-114166666D02*
X138350098Y-114119047D01*
X138445336Y-113499999D02*
X138445336Y-113309523D01*
X138445336Y-113309523D02*
X138397717Y-113214285D01*
X138397717Y-113214285D02*
X138302479Y-113119047D01*
X138302479Y-113119047D02*
X138112003Y-113071428D01*
X138112003Y-113071428D02*
X137778670Y-113071428D01*
X137778670Y-113071428D02*
X137588194Y-113119047D01*
X137588194Y-113119047D02*
X137492956Y-113214285D01*
X137492956Y-113214285D02*
X137445336Y-113309523D01*
X137445336Y-113309523D02*
X137445336Y-113499999D01*
X137445336Y-113499999D02*
X137492956Y-113595237D01*
X137492956Y-113595237D02*
X137588194Y-113690475D01*
X137588194Y-113690475D02*
X137778670Y-113738094D01*
X137778670Y-113738094D02*
X138112003Y-113738094D01*
X138112003Y-113738094D02*
X138302479Y-113690475D01*
X138302479Y-113690475D02*
X138397717Y-113595237D01*
X138397717Y-113595237D02*
X138445336Y-113499999D01*
X119619048Y-95092956D02*
X119761905Y-95045336D01*
X119761905Y-95045336D02*
X120000000Y-95045336D01*
X120000000Y-95045336D02*
X120095238Y-95092956D01*
X120095238Y-95092956D02*
X120142857Y-95140575D01*
X120142857Y-95140575D02*
X120190476Y-95235813D01*
X120190476Y-95235813D02*
X120190476Y-95331051D01*
X120190476Y-95331051D02*
X120142857Y-95426289D01*
X120142857Y-95426289D02*
X120095238Y-95473908D01*
X120095238Y-95473908D02*
X120000000Y-95521527D01*
X120000000Y-95521527D02*
X119809524Y-95569146D01*
X119809524Y-95569146D02*
X119714286Y-95616765D01*
X119714286Y-95616765D02*
X119666667Y-95664384D01*
X119666667Y-95664384D02*
X119619048Y-95759622D01*
X119619048Y-95759622D02*
X119619048Y-95854860D01*
X119619048Y-95854860D02*
X119666667Y-95950098D01*
X119666667Y-95950098D02*
X119714286Y-95997717D01*
X119714286Y-95997717D02*
X119809524Y-96045336D01*
X119809524Y-96045336D02*
X120047619Y-96045336D01*
X120047619Y-96045336D02*
X120190476Y-95997717D01*
X120523810Y-96045336D02*
X120761905Y-95045336D01*
X120761905Y-95045336D02*
X120952381Y-95759622D01*
X120952381Y-95759622D02*
X121142857Y-95045336D01*
X121142857Y-95045336D02*
X121380953Y-96045336D01*
X121952381Y-96045336D02*
X122142857Y-96045336D01*
X122142857Y-96045336D02*
X122238095Y-95997717D01*
X122238095Y-95997717D02*
X122333333Y-95902479D01*
X122333333Y-95902479D02*
X122380952Y-95712003D01*
X122380952Y-95712003D02*
X122380952Y-95378670D01*
X122380952Y-95378670D02*
X122333333Y-95188194D01*
X122333333Y-95188194D02*
X122238095Y-95092956D01*
X122238095Y-95092956D02*
X122142857Y-95045336D01*
X122142857Y-95045336D02*
X121952381Y-95045336D01*
X121952381Y-95045336D02*
X121857143Y-95092956D01*
X121857143Y-95092956D02*
X121761905Y-95188194D01*
X121761905Y-95188194D02*
X121714286Y-95378670D01*
X121714286Y-95378670D02*
X121714286Y-95712003D01*
X121714286Y-95712003D02*
X121761905Y-95902479D01*
X121761905Y-95902479D02*
X121857143Y-95997717D01*
X121857143Y-95997717D02*
X121952381Y-96045336D01*
D12*
G36*
X195896826Y-92005482D02*
G01*
X195896826Y-93610386D01*
X195545067Y-93610386D01*
X195193307Y-93610386D01*
X195193307Y-93120691D01*
X195193307Y-92630996D01*
X194757271Y-92624828D01*
X194718323Y-92624266D01*
X194598028Y-92622274D01*
X194501844Y-92620066D01*
X194425716Y-92617359D01*
X194365589Y-92613875D01*
X194317407Y-92609333D01*
X194277115Y-92603451D01*
X194240659Y-92595950D01*
X194203982Y-92586548D01*
X194133070Y-92565199D01*
X193962348Y-92495431D01*
X193812382Y-92405677D01*
X193683781Y-92296509D01*
X193577152Y-92168500D01*
X193493101Y-92022225D01*
X193432237Y-91858254D01*
X193414838Y-91775313D01*
X193402896Y-91668086D01*
X193397838Y-91550483D01*
X193398305Y-91521812D01*
X194087129Y-91521812D01*
X194088596Y-91595798D01*
X194093551Y-91652210D01*
X194103278Y-91696540D01*
X194119070Y-91737517D01*
X194139041Y-91775652D01*
X194203332Y-91862050D01*
X194285206Y-91937083D01*
X194376427Y-91992591D01*
X194467802Y-92034795D01*
X194830554Y-92039176D01*
X195193307Y-92043556D01*
X195193307Y-91521614D01*
X195193307Y-90999671D01*
X194823226Y-91004250D01*
X194453145Y-91008828D01*
X194374875Y-91050051D01*
X194273584Y-91116201D01*
X194188571Y-91199104D01*
X194127334Y-91292559D01*
X194113597Y-91321802D01*
X194099430Y-91360004D01*
X194091370Y-91399953D01*
X194087806Y-91450829D01*
X194087129Y-91521812D01*
X193398305Y-91521812D01*
X193399771Y-91431871D01*
X193408802Y-91321616D01*
X193425039Y-91229083D01*
X193429620Y-91211228D01*
X193486822Y-91051362D01*
X193568978Y-90902240D01*
X193673118Y-90767215D01*
X193796275Y-90649642D01*
X193935480Y-90552875D01*
X194087764Y-90480268D01*
X194130916Y-90464648D01*
X194176597Y-90450074D01*
X194223548Y-90437871D01*
X194274571Y-90427833D01*
X194332472Y-90419752D01*
X194400056Y-90413421D01*
X194480125Y-90408633D01*
X194575485Y-90405180D01*
X194688939Y-90402855D01*
X194823292Y-90401451D01*
X194981349Y-90400761D01*
X195165913Y-90400577D01*
X195896826Y-90400577D01*
X195896826Y-91521614D01*
X195896826Y-92005482D01*
G37*
G36*
X197259896Y-92342423D02*
G01*
X197259896Y-92978769D01*
X197783872Y-92983124D01*
X197830944Y-92983516D01*
X197959889Y-92984662D01*
X198063601Y-92985846D01*
X198145170Y-92987276D01*
X198207689Y-92989161D01*
X198254247Y-92991709D01*
X198287936Y-92995128D01*
X198311846Y-92999628D01*
X198329069Y-93005415D01*
X198342694Y-93012700D01*
X198355814Y-93021690D01*
X198377841Y-93040211D01*
X198420128Y-93092893D01*
X198450258Y-93153676D01*
X198461743Y-93210967D01*
X198452694Y-93259127D01*
X198427608Y-93317555D01*
X198392754Y-93372327D01*
X198354432Y-93411663D01*
X198343367Y-93419057D01*
X198329557Y-93425609D01*
X198310852Y-93430844D01*
X198284201Y-93434947D01*
X198246551Y-93438104D01*
X198194850Y-93440500D01*
X198126045Y-93442321D01*
X198037085Y-93443753D01*
X197924916Y-93444980D01*
X197786487Y-93446189D01*
X197259896Y-93450544D01*
X197259896Y-94079562D01*
X197259896Y-94708580D01*
X197785035Y-94712772D01*
X198310173Y-94716965D01*
X198362664Y-94757018D01*
X198385696Y-94776973D01*
X198430702Y-94838598D01*
X198452979Y-94908315D01*
X198453080Y-94980213D01*
X198431559Y-95048378D01*
X198388970Y-95106900D01*
X198325866Y-95149867D01*
X198321030Y-95152016D01*
X198302148Y-95159214D01*
X198280103Y-95164959D01*
X198251625Y-95169414D01*
X198213446Y-95172746D01*
X198162298Y-95175119D01*
X198094910Y-95176698D01*
X198008016Y-95177649D01*
X197898345Y-95178138D01*
X197762631Y-95178328D01*
X197261384Y-95178650D01*
X197256976Y-95790565D01*
X197252568Y-96402481D01*
X197213300Y-96509982D01*
X197185341Y-96580599D01*
X197128567Y-96692289D01*
X197057749Y-96793094D01*
X196966139Y-96893479D01*
X196875117Y-96976873D01*
X196782393Y-97044358D01*
X196680835Y-97099259D01*
X196560205Y-97147996D01*
X196431795Y-97193941D01*
X195797894Y-97198457D01*
X195163993Y-97202972D01*
X195163993Y-97720600D01*
X195163818Y-97823533D01*
X195163184Y-97939523D01*
X195162142Y-98044659D01*
X195160751Y-98135249D01*
X195159071Y-98207601D01*
X195157159Y-98258024D01*
X195155074Y-98282826D01*
X195151310Y-98297381D01*
X195120466Y-98355642D01*
X195070679Y-98406294D01*
X195010098Y-98440475D01*
X194981101Y-98449211D01*
X194900296Y-98455421D01*
X194824967Y-98436160D01*
X194760653Y-98393496D01*
X194712893Y-98329497D01*
X194709335Y-98322469D01*
X194701295Y-98305319D01*
X194694895Y-98287298D01*
X194689987Y-98265246D01*
X194686424Y-98236004D01*
X194684057Y-98196410D01*
X194682739Y-98143305D01*
X194682322Y-98073530D01*
X194682660Y-97983922D01*
X194683603Y-97871324D01*
X194685006Y-97732573D01*
X194690504Y-97201269D01*
X194062505Y-97201269D01*
X193434507Y-97201269D01*
X193434507Y-97744150D01*
X193434463Y-97851344D01*
X193434195Y-97973071D01*
X193433554Y-98070820D01*
X193432397Y-98147660D01*
X193430580Y-98206659D01*
X193427961Y-98250884D01*
X193424396Y-98283403D01*
X193419741Y-98307285D01*
X193413853Y-98325598D01*
X193406588Y-98341409D01*
X193399470Y-98354149D01*
X193351718Y-98408082D01*
X193290192Y-98441855D01*
X193220881Y-98455782D01*
X193149776Y-98450176D01*
X193082867Y-98425353D01*
X193026141Y-98381626D01*
X192985590Y-98319311D01*
X192981145Y-98305171D01*
X192976444Y-98277428D01*
X192972717Y-98236282D01*
X192969873Y-98179082D01*
X192967820Y-98103175D01*
X192966466Y-98005911D01*
X192965721Y-97884639D01*
X192965494Y-97736708D01*
X192965494Y-97201269D01*
X192343089Y-97201269D01*
X191720685Y-97201269D01*
X191716517Y-97757168D01*
X191716146Y-97806192D01*
X191715043Y-97939811D01*
X191713878Y-98048030D01*
X191712477Y-98133808D01*
X191710668Y-98200104D01*
X191708275Y-98249876D01*
X191705127Y-98286082D01*
X191701049Y-98311682D01*
X191695868Y-98329634D01*
X191689410Y-98342896D01*
X191681503Y-98354427D01*
X191638805Y-98398841D01*
X191567237Y-98438775D01*
X191485170Y-98452723D01*
X191423877Y-98445072D01*
X191348997Y-98411686D01*
X191288837Y-98354427D01*
X191286117Y-98350715D01*
X191278697Y-98338948D01*
X191272670Y-98324496D01*
X191267864Y-98304400D01*
X191264105Y-98275701D01*
X191261219Y-98235440D01*
X191259034Y-98180660D01*
X191257375Y-98108401D01*
X191256069Y-98015706D01*
X191254944Y-97899614D01*
X191253824Y-97757168D01*
X191249656Y-97201269D01*
X190663275Y-97201269D01*
X190597721Y-97201239D01*
X190452633Y-97200861D01*
X190332537Y-97199972D01*
X190234346Y-97198469D01*
X190154973Y-97196250D01*
X190091331Y-97193214D01*
X190040334Y-97189258D01*
X189998894Y-97184280D01*
X189963924Y-97178180D01*
X189890569Y-97160521D01*
X189727967Y-97100739D01*
X189579675Y-97016634D01*
X189447874Y-96910144D01*
X189334748Y-96783210D01*
X189242481Y-96637770D01*
X189173256Y-96475764D01*
X189133874Y-96358511D01*
X189128627Y-95768580D01*
X189123379Y-95178650D01*
X188625616Y-95178650D01*
X188543144Y-95178623D01*
X188414368Y-95178256D01*
X188310116Y-95177082D01*
X188227300Y-95174639D01*
X188162831Y-95170464D01*
X188113621Y-95164094D01*
X188076581Y-95155064D01*
X188048622Y-95142913D01*
X188026656Y-95127178D01*
X188007594Y-95107394D01*
X187988347Y-95083099D01*
X187973854Y-95061359D01*
X187954880Y-95009055D01*
X189595201Y-95009055D01*
X189595359Y-95208647D01*
X189595752Y-95387753D01*
X189596417Y-95547564D01*
X189597386Y-95689271D01*
X189598696Y-95814065D01*
X189600380Y-95923137D01*
X189602474Y-96017679D01*
X189605012Y-96098880D01*
X189608029Y-96167933D01*
X189611559Y-96226029D01*
X189615638Y-96274357D01*
X189620300Y-96314110D01*
X189625580Y-96346479D01*
X189631512Y-96372654D01*
X189638132Y-96393827D01*
X189645473Y-96411188D01*
X189653571Y-96425929D01*
X189662461Y-96439241D01*
X189672176Y-96452315D01*
X189682752Y-96466341D01*
X189694224Y-96482511D01*
X189706540Y-96500029D01*
X189788934Y-96592173D01*
X189886103Y-96665840D01*
X189991156Y-96715619D01*
X190083822Y-96746913D01*
X193206510Y-96746125D01*
X193485120Y-96746049D01*
X193820346Y-96745936D01*
X194128361Y-96745797D01*
X194410349Y-96745623D01*
X194667496Y-96745403D01*
X194900987Y-96745128D01*
X195112007Y-96744787D01*
X195301742Y-96744372D01*
X195471376Y-96743871D01*
X195622095Y-96743275D01*
X195755085Y-96742574D01*
X195871530Y-96741759D01*
X195972615Y-96740819D01*
X196059526Y-96739744D01*
X196133449Y-96738526D01*
X196195567Y-96737153D01*
X196247067Y-96735616D01*
X196289134Y-96733905D01*
X196322953Y-96732010D01*
X196349709Y-96729922D01*
X196370588Y-96727630D01*
X196386774Y-96725124D01*
X196399453Y-96722395D01*
X196409810Y-96719433D01*
X196506603Y-96679035D01*
X196612310Y-96607948D01*
X196698445Y-96516349D01*
X196762933Y-96406544D01*
X196803702Y-96280842D01*
X196804705Y-96275584D01*
X196809762Y-96231026D01*
X196814035Y-96162959D01*
X196817328Y-96076276D01*
X196819447Y-95975874D01*
X196820196Y-95866647D01*
X196820196Y-95530120D01*
X195438806Y-95531070D01*
X195195872Y-95531387D01*
X194963060Y-95532020D01*
X194752540Y-95532951D01*
X194565191Y-95534171D01*
X194401889Y-95535670D01*
X194263512Y-95537438D01*
X194150937Y-95539467D01*
X194065042Y-95541746D01*
X194006705Y-95544266D01*
X193976803Y-95547018D01*
X193952949Y-95551709D01*
X193902143Y-95564452D01*
X193855914Y-95581740D01*
X193810117Y-95606341D01*
X193760609Y-95641024D01*
X193703245Y-95688558D01*
X193633881Y-95751712D01*
X193548372Y-95833255D01*
X193462891Y-95914525D01*
X193384340Y-95985477D01*
X193317742Y-96040160D01*
X193259031Y-96081405D01*
X193204141Y-96112045D01*
X193149007Y-96134911D01*
X193089563Y-96152835D01*
X193054802Y-96158295D01*
X192992861Y-96163343D01*
X192908719Y-96167621D01*
X192806032Y-96171130D01*
X192688457Y-96173867D01*
X192559652Y-96175834D01*
X192423272Y-96177030D01*
X192282976Y-96177454D01*
X192142420Y-96177106D01*
X192005260Y-96175985D01*
X191875154Y-96174091D01*
X191755759Y-96171424D01*
X191650731Y-96167984D01*
X191563728Y-96163769D01*
X191498406Y-96158779D01*
X191458423Y-96153015D01*
X191412657Y-96141091D01*
X191323545Y-96109069D01*
X191240897Y-96064774D01*
X191157476Y-96003952D01*
X191066045Y-95922348D01*
X190931577Y-95793975D01*
X190838610Y-95817792D01*
X190734228Y-95833428D01*
X190619273Y-95825023D01*
X190511275Y-95790511D01*
X190413846Y-95731597D01*
X190330599Y-95649983D01*
X190265145Y-95547373D01*
X190252703Y-95521543D01*
X190233815Y-95476207D01*
X190223154Y-95434503D01*
X190218434Y-95385460D01*
X190217369Y-95318107D01*
X190217374Y-95317429D01*
X190576457Y-95317429D01*
X190582001Y-95358459D01*
X190608523Y-95413225D01*
X190651866Y-95450897D01*
X190707426Y-95469823D01*
X190761836Y-95463636D01*
X190812091Y-95428940D01*
X190839989Y-95392194D01*
X190857193Y-95333883D01*
X190847275Y-95274453D01*
X190810284Y-95219685D01*
X190779233Y-95192424D01*
X190749990Y-95181194D01*
X190711351Y-95183662D01*
X190668414Y-95198529D01*
X190622718Y-95231563D01*
X190589370Y-95273870D01*
X190576457Y-95317429D01*
X190217374Y-95317429D01*
X190217711Y-95271179D01*
X190220563Y-95219212D01*
X190228287Y-95179160D01*
X190243205Y-95140638D01*
X190267639Y-95093260D01*
X190275703Y-95078862D01*
X190348210Y-94979837D01*
X190435720Y-94903661D01*
X190534521Y-94850947D01*
X190640900Y-94822311D01*
X190751146Y-94818366D01*
X190861545Y-94839727D01*
X190968386Y-94887009D01*
X191067955Y-94960825D01*
X191129421Y-95029766D01*
X191185971Y-95129944D01*
X191218330Y-95240503D01*
X191223796Y-95333883D01*
X191225105Y-95356246D01*
X191204904Y-95471976D01*
X191188406Y-95527044D01*
X191300993Y-95634988D01*
X191332512Y-95665658D01*
X191366353Y-95698797D01*
X191396386Y-95726423D01*
X191425372Y-95749034D01*
X191456069Y-95767129D01*
X191491239Y-95781204D01*
X191533640Y-95791759D01*
X191586032Y-95799291D01*
X191651175Y-95804298D01*
X191731829Y-95807277D01*
X191830754Y-95808728D01*
X191950709Y-95809148D01*
X192094454Y-95809035D01*
X192264750Y-95808886D01*
X192377802Y-95808833D01*
X192531808Y-95808510D01*
X192660364Y-95807839D01*
X192765823Y-95806758D01*
X192850539Y-95805204D01*
X192916867Y-95803114D01*
X192967161Y-95800426D01*
X193003774Y-95797078D01*
X193029062Y-95793007D01*
X193045377Y-95788150D01*
X193047471Y-95787188D01*
X193075432Y-95768510D01*
X193119601Y-95733154D01*
X193175868Y-95684650D01*
X193240124Y-95626527D01*
X193308259Y-95562317D01*
X193340193Y-95531779D01*
X193433324Y-95445531D01*
X193513021Y-95377249D01*
X193583723Y-95323757D01*
X193649871Y-95281877D01*
X193715906Y-95248432D01*
X193786267Y-95220244D01*
X193881535Y-95185978D01*
X195350866Y-95181973D01*
X196820196Y-95177969D01*
X196820196Y-94965544D01*
X196820196Y-94753119D01*
X195153001Y-94757027D01*
X193485805Y-94760935D01*
X193407337Y-94802258D01*
X193391838Y-94811412D01*
X193344555Y-94845241D01*
X193284064Y-94894074D01*
X193215379Y-94953768D01*
X193143517Y-95020180D01*
X193131400Y-95031712D01*
X193049002Y-95109065D01*
X192982124Y-95169009D01*
X192926364Y-95214683D01*
X192877318Y-95249223D01*
X192830585Y-95275767D01*
X192781761Y-95297453D01*
X192726443Y-95317419D01*
X192656374Y-95335944D01*
X192548250Y-95351488D01*
X192434138Y-95356026D01*
X192324965Y-95349262D01*
X192231656Y-95330897D01*
X192222345Y-95328124D01*
X192180629Y-95315192D01*
X192142720Y-95301758D01*
X192106577Y-95286136D01*
X192070154Y-95266640D01*
X192031409Y-95241583D01*
X191988296Y-95209279D01*
X191938773Y-95168042D01*
X191880795Y-95116185D01*
X191812319Y-95052023D01*
X191731300Y-94973868D01*
X191635696Y-94880035D01*
X191523461Y-94768837D01*
X191392552Y-94638587D01*
X191323362Y-94569508D01*
X191216881Y-94462482D01*
X191117055Y-94361288D01*
X191025915Y-94268035D01*
X190945493Y-94184828D01*
X190877820Y-94113774D01*
X190824927Y-94056980D01*
X190788846Y-94016553D01*
X190771607Y-93994599D01*
X190743108Y-93939087D01*
X190709989Y-93851258D01*
X190687404Y-93761683D01*
X190679054Y-93682829D01*
X190679054Y-93611317D01*
X190506838Y-93607187D01*
X190334622Y-93603058D01*
X190334622Y-92005482D01*
X190334622Y-90407905D01*
X190682718Y-90403976D01*
X191030814Y-90400046D01*
X191030814Y-91052533D01*
X191030814Y-91705020D01*
X191646394Y-91705020D01*
X192261974Y-91705020D01*
X192261974Y-91052798D01*
X192261974Y-90400577D01*
X192621062Y-90400577D01*
X192980150Y-90400577D01*
X192980150Y-92005482D01*
X192980150Y-93610386D01*
X192621062Y-93610386D01*
X192261974Y-93610386D01*
X192261974Y-92958165D01*
X192261974Y-92305943D01*
X191646394Y-92305943D01*
X191030814Y-92305943D01*
X191031423Y-92983814D01*
X191031475Y-93033750D01*
X191031772Y-93186859D01*
X191032321Y-93314173D01*
X191033218Y-93418414D01*
X191034556Y-93502307D01*
X191036428Y-93568573D01*
X191038927Y-93619936D01*
X191042148Y-93659120D01*
X191046184Y-93688846D01*
X191051127Y-93711839D01*
X191057072Y-93730820D01*
X191061346Y-93741132D01*
X191072293Y-93760995D01*
X191089380Y-93785566D01*
X191114240Y-93816609D01*
X191148511Y-93855890D01*
X191193828Y-93905173D01*
X191251827Y-93966224D01*
X191324144Y-94040807D01*
X191412415Y-94130688D01*
X191518275Y-94237632D01*
X191643361Y-94363404D01*
X191705828Y-94426036D01*
X191833142Y-94553059D01*
X191941927Y-94660578D01*
X192033398Y-94749746D01*
X192108772Y-94821714D01*
X192169263Y-94877634D01*
X192216088Y-94918658D01*
X192250461Y-94945937D01*
X192273598Y-94960624D01*
X192285281Y-94965959D01*
X192366173Y-94988720D01*
X192458260Y-94996164D01*
X192549654Y-94988159D01*
X192628466Y-94964572D01*
X192642192Y-94957143D01*
X192686372Y-94926276D01*
X192745696Y-94878373D01*
X192816646Y-94816350D01*
X192895704Y-94743122D01*
X192899565Y-94739456D01*
X192982284Y-94662416D01*
X193050034Y-94602988D01*
X193107541Y-94557417D01*
X193159536Y-94521944D01*
X193210747Y-94492814D01*
X193233852Y-94480724D01*
X193261814Y-94466217D01*
X193288429Y-94453292D01*
X193315401Y-94441856D01*
X193344433Y-94431820D01*
X193377228Y-94423091D01*
X193415489Y-94415579D01*
X193460920Y-94409193D01*
X193515225Y-94403841D01*
X193580106Y-94399433D01*
X193657267Y-94395876D01*
X193748411Y-94393081D01*
X193855241Y-94390956D01*
X193979462Y-94389410D01*
X194122776Y-94388352D01*
X194286886Y-94387691D01*
X194473497Y-94387335D01*
X194684310Y-94387193D01*
X194921030Y-94387175D01*
X195185360Y-94387190D01*
X196820196Y-94387190D01*
X196820196Y-92285264D01*
X196820188Y-92030003D01*
X196820146Y-91764283D01*
X196820053Y-91525116D01*
X196819890Y-91311029D01*
X196819638Y-91120548D01*
X196819279Y-90952202D01*
X196818794Y-90804516D01*
X196818164Y-90676019D01*
X196817371Y-90565238D01*
X196816397Y-90470698D01*
X196815223Y-90390929D01*
X196813830Y-90324456D01*
X196812199Y-90269808D01*
X196810313Y-90225510D01*
X196808152Y-90190091D01*
X196805699Y-90162077D01*
X196802934Y-90139995D01*
X196799838Y-90122374D01*
X196796394Y-90107739D01*
X196792583Y-90094618D01*
X196752105Y-89990104D01*
X196694299Y-89895239D01*
X196615769Y-89809117D01*
X196548144Y-89754456D01*
X196432144Y-89690766D01*
X196304921Y-89652778D01*
X196294711Y-89651716D01*
X196253420Y-89649896D01*
X196183118Y-89648245D01*
X196084002Y-89646764D01*
X195956267Y-89645454D01*
X195800109Y-89644316D01*
X195615724Y-89643349D01*
X195403307Y-89642555D01*
X195163055Y-89641935D01*
X194895163Y-89641489D01*
X194599827Y-89641217D01*
X194277243Y-89641121D01*
X193927607Y-89641201D01*
X193551114Y-89641458D01*
X193147961Y-89641892D01*
X190070802Y-89645759D01*
X189971633Y-89692581D01*
X189894747Y-89735865D01*
X189795688Y-89813347D01*
X189711276Y-89905072D01*
X189648843Y-90003967D01*
X189601789Y-90100115D01*
X189597483Y-93163358D01*
X189597266Y-93314596D01*
X189596737Y-93662116D01*
X189596236Y-93982005D01*
X189595797Y-94275452D01*
X189595455Y-94543648D01*
X189595245Y-94787786D01*
X189595201Y-95009055D01*
X187954880Y-95009055D01*
X187948570Y-94991659D01*
X187947267Y-94917779D01*
X187968327Y-94846463D01*
X188010131Y-94784454D01*
X188071061Y-94738494D01*
X188077858Y-94735133D01*
X188095128Y-94727983D01*
X188115750Y-94722306D01*
X188142968Y-94717933D01*
X188180028Y-94714696D01*
X188230175Y-94712425D01*
X188296654Y-94710952D01*
X188382711Y-94710109D01*
X188491590Y-94709726D01*
X188626537Y-94709636D01*
X189125447Y-94709636D01*
X189125447Y-94080098D01*
X189125447Y-93450560D01*
X188606185Y-93446198D01*
X188486243Y-93445144D01*
X188371670Y-93443920D01*
X188280691Y-93442514D01*
X188210236Y-93440735D01*
X188157233Y-93438394D01*
X188118609Y-93435301D01*
X188091293Y-93431267D01*
X188072213Y-93426101D01*
X188058297Y-93419614D01*
X188046473Y-93411616D01*
X188033791Y-93401688D01*
X187976111Y-93338539D01*
X187945889Y-93267602D01*
X187943743Y-93191300D01*
X187970289Y-93112060D01*
X187973038Y-93106820D01*
X188013137Y-93051868D01*
X188069609Y-93013127D01*
X188085038Y-93005605D01*
X188103352Y-92998186D01*
X188124512Y-92992370D01*
X188151827Y-92987960D01*
X188188604Y-92984763D01*
X188238152Y-92982583D01*
X188303780Y-92981227D01*
X188388797Y-92980499D01*
X188496509Y-92980205D01*
X188630226Y-92980150D01*
X189125447Y-92980150D01*
X189125447Y-92342585D01*
X189125447Y-91705020D01*
X188630785Y-91704698D01*
X188624309Y-91704694D01*
X188490404Y-91704478D01*
X188382395Y-91703932D01*
X188297007Y-91702894D01*
X188230965Y-91701200D01*
X188180996Y-91698689D01*
X188143823Y-91695198D01*
X188116173Y-91690565D01*
X188094772Y-91684629D01*
X188076344Y-91677226D01*
X188015404Y-91639501D01*
X187968458Y-91581371D01*
X187944594Y-91505649D01*
X187943109Y-91456278D01*
X187962701Y-91382600D01*
X188005876Y-91318313D01*
X188069168Y-91269976D01*
X188086153Y-91261290D01*
X188103880Y-91253847D01*
X188124544Y-91248030D01*
X188151443Y-91243639D01*
X188187873Y-91240472D01*
X188237132Y-91238331D01*
X188302517Y-91237014D01*
X188387323Y-91236321D01*
X188494849Y-91236052D01*
X188628392Y-91236007D01*
X189123379Y-91236007D01*
X189128757Y-90646076D01*
X189129541Y-90561531D01*
X189130907Y-90428714D01*
X189132346Y-90320319D01*
X189134037Y-90233188D01*
X189136156Y-90164166D01*
X189138884Y-90110096D01*
X189142397Y-90067821D01*
X189146875Y-90034185D01*
X189152496Y-90006032D01*
X189159438Y-89980206D01*
X189167879Y-89953549D01*
X189205451Y-89854574D01*
X189289454Y-89695849D01*
X189396034Y-89554320D01*
X189523296Y-89431982D01*
X189669347Y-89330834D01*
X189832292Y-89252872D01*
X189953549Y-89206218D01*
X190598442Y-89198810D01*
X191243335Y-89191402D01*
X191250664Y-88639162D01*
X191251086Y-88607469D01*
X191252985Y-88471142D01*
X191254791Y-88360543D01*
X191256692Y-88272702D01*
X191258879Y-88204648D01*
X191261542Y-88153413D01*
X191264872Y-88116026D01*
X191269058Y-88089517D01*
X191274290Y-88070918D01*
X191280758Y-88057258D01*
X191288653Y-88045567D01*
X191295802Y-88036191D01*
X191354703Y-87978179D01*
X191420501Y-87947333D01*
X191496771Y-87941872D01*
X191563058Y-87954265D01*
X191626612Y-87987937D01*
X191682130Y-88046478D01*
X191684184Y-88049271D01*
X191691569Y-88060906D01*
X191697578Y-88075270D01*
X191702380Y-88095314D01*
X191706145Y-88123993D01*
X191709045Y-88164262D01*
X191711249Y-88219074D01*
X191712928Y-88291383D01*
X191714252Y-88384143D01*
X191715392Y-88500308D01*
X191716517Y-88642831D01*
X191720685Y-89198730D01*
X192343089Y-89198730D01*
X192965494Y-89198730D01*
X192965494Y-88666868D01*
X192965495Y-88630855D01*
X192965574Y-88498454D01*
X192965903Y-88391447D01*
X192966656Y-88306675D01*
X192968007Y-88240978D01*
X192970132Y-88191197D01*
X192973205Y-88154173D01*
X192977401Y-88126748D01*
X192982894Y-88105761D01*
X192989859Y-88088053D01*
X192998471Y-88070467D01*
X193010060Y-88049267D01*
X193055645Y-87991345D01*
X193113009Y-87957087D01*
X193188400Y-87942276D01*
X193266606Y-87947005D01*
X193339125Y-87976969D01*
X193397393Y-88032401D01*
X193398825Y-88034343D01*
X193406207Y-88045947D01*
X193412256Y-88060413D01*
X193417154Y-88080680D01*
X193421083Y-88109687D01*
X193424226Y-88150372D01*
X193426764Y-88205675D01*
X193428879Y-88278534D01*
X193430753Y-88371888D01*
X193432569Y-88488677D01*
X193434507Y-88631838D01*
X193441835Y-89191402D01*
X194061140Y-89191402D01*
X194680445Y-89191402D01*
X194684048Y-88639175D01*
X194684323Y-88597454D01*
X194685295Y-88463028D01*
X194686349Y-88354130D01*
X194687657Y-88267791D01*
X194689391Y-88201041D01*
X194691723Y-88150909D01*
X194694823Y-88114426D01*
X194698863Y-88088621D01*
X194704016Y-88070525D01*
X194710452Y-88057168D01*
X194718343Y-88045580D01*
X194719082Y-88044588D01*
X194780782Y-87985057D01*
X194856233Y-87950379D01*
X194941087Y-87942564D01*
X195009237Y-87954986D01*
X195071562Y-87988321D01*
X195126446Y-88046478D01*
X195128442Y-88049190D01*
X195135842Y-88060824D01*
X195141863Y-88075166D01*
X195146674Y-88095172D01*
X195150447Y-88123797D01*
X195153351Y-88163999D01*
X195155559Y-88218732D01*
X195157240Y-88290954D01*
X195158566Y-88383621D01*
X195159706Y-88499688D01*
X195160831Y-88642111D01*
X195164997Y-89197290D01*
X195798396Y-89202094D01*
X196431795Y-89206897D01*
X196537985Y-89245887D01*
X196566775Y-89256719D01*
X196695745Y-89313679D01*
X196805560Y-89378714D01*
X196904613Y-89456647D01*
X196961421Y-89510043D01*
X197067924Y-89631622D01*
X197152670Y-89764490D01*
X197220856Y-89916202D01*
X197225419Y-89928704D01*
X197232152Y-89950113D01*
X197237677Y-89974147D01*
X197242147Y-90003771D01*
X197245712Y-90041951D01*
X197248522Y-90091653D01*
X197250731Y-90155841D01*
X197252487Y-90237480D01*
X197253943Y-90339537D01*
X197255250Y-90464976D01*
X197256558Y-90616763D01*
X197261632Y-91236007D01*
X197762755Y-91236329D01*
X197800854Y-91236359D01*
X197929441Y-91236611D01*
X198032836Y-91237204D01*
X198114310Y-91238304D01*
X198177131Y-91240075D01*
X198224568Y-91242683D01*
X198259891Y-91246294D01*
X198286369Y-91251071D01*
X198307271Y-91257182D01*
X198325866Y-91264790D01*
X198352080Y-91278817D01*
X198407500Y-91328355D01*
X198442195Y-91391215D01*
X198455613Y-91461485D01*
X198447200Y-91533253D01*
X198416402Y-91600608D01*
X198362664Y-91657638D01*
X198310173Y-91697692D01*
X197785035Y-91701884D01*
X197259896Y-91706076D01*
X197259896Y-92285264D01*
X197259896Y-92342423D01*
G37*
%LPC*%
D13*
X155160000Y-112700000D03*
D14*
X157700000Y-112700000D03*
X160240000Y-112700000D03*
D13*
X151900000Y-122400000D03*
D14*
X151900000Y-124940000D03*
X149360000Y-122400000D03*
X149360000Y-124940000D03*
X146820000Y-122400000D03*
X146820000Y-124940000D03*
D13*
X140440000Y-122400000D03*
D14*
X140440000Y-124940000D03*
X137900000Y-122400000D03*
X137900000Y-124940000D03*
X135360000Y-122400000D03*
X135360000Y-124940000D03*
X132820000Y-122400000D03*
X132820000Y-124940000D03*
X130280000Y-122400000D03*
X130280000Y-124940000D03*
D15*
X206000000Y-126000000D03*
D13*
X117540000Y-97920000D03*
D14*
X115000000Y-97920000D03*
X117540000Y-95380000D03*
X115000000Y-95380000D03*
X117540000Y-92840000D03*
X115000000Y-92840000D03*
X117540000Y-90300000D03*
X115000000Y-90300000D03*
D15*
X114000000Y-84000000D03*
D16*
X128000000Y-88450000D03*
D17*
X125500000Y-88450000D03*
X123000000Y-88450000D03*
D13*
X165580000Y-122400000D03*
D14*
X165580000Y-124940000D03*
X163040000Y-122400000D03*
X163040000Y-124940000D03*
X160500000Y-122400000D03*
X160500000Y-124940000D03*
D13*
X125660000Y-101300000D03*
D14*
X128200000Y-101300000D03*
X130740000Y-101300000D03*
D18*
X116250000Y-112790000D03*
X116250000Y-118570000D03*
D19*
X116780000Y-111360000D03*
D20*
X112600000Y-111360000D03*
D19*
X116780000Y-120000000D03*
D20*
X112600000Y-120000000D03*
D15*
X114000000Y-126000000D03*
X206000000Y-84000000D03*
%LPD*%
M02*
