%TF.GenerationSoftware,KiCad,Pcbnew,8.0.6*%
%TF.CreationDate,2026-01-19T16:17:59-08:00*%
%TF.ProjectId,Bluetooth_Board,426c7565-746f-46f7-9468-5f426f617264,B*%
%TF.SameCoordinates,Original*%
%TF.FileFunction,Drillmap*%
%TF.FilePolarity,Positive*%
%FSLAX45Y45*%
G04 Gerber Fmt 4.5, Leading zero omitted, Abs format (unit mm)*
G04 Created by KiCad (PCBNEW 8.0.6) date 2026-01-19 16:17:59*
%MOMM*%
%LPD*%
G01*
G04 APERTURE LIST*
%ADD10C,0.050000*%
%ADD11C,0.200000*%
%ADD12C,0.100000*%
%ADD13C,0.110000*%
%ADD14C,0.320000*%
G04 APERTURE END LIST*
D10*
X11320000Y-13000000D02*
G75*
G02*
X11000000Y-12680000I0J320000D01*
G01*
X21000000Y-12680000D02*
G75*
G02*
X20680000Y-13000000I-320000J0D01*
G01*
X20680000Y-13000000D02*
X11320000Y-13000000D01*
X11000000Y-8320000D02*
X11000000Y-12680000D01*
X21000000Y-12680000D02*
X21000000Y-8320000D01*
X20680000Y-8000000D02*
G75*
G02*
X21000000Y-8320000I0J-320000D01*
G01*
X11000000Y-8320000D02*
G75*
G02*
X11320000Y-8000000I320000J0D01*
G01*
X20680000Y-8000000D02*
X11320000Y-8000000D01*
D11*
D12*
X11965000Y-11855000D02*
X11995000Y-11885000D01*
X11995000Y-11855000D02*
X11965000Y-11885000D01*
X11965000Y-12015000D02*
X11995000Y-12045000D01*
X11995000Y-12015000D02*
X11965000Y-12045000D01*
X11995000Y-11195000D02*
X12025000Y-11225000D01*
X12025000Y-11195000D02*
X11995000Y-11225000D01*
X12005000Y-12195000D02*
X12035000Y-12225000D01*
X12035000Y-12195000D02*
X12005000Y-12225000D01*
X12025000Y-11545000D02*
X12055000Y-11575000D01*
X12055000Y-11545000D02*
X12025000Y-11575000D01*
X12035000Y-9415000D02*
X12065000Y-9445000D01*
X12065000Y-9415000D02*
X12035000Y-9445000D01*
X12135000Y-11085000D02*
X12165000Y-11115000D01*
X12165000Y-11085000D02*
X12135000Y-11115000D01*
X12145000Y-12065000D02*
X12175000Y-12095000D01*
X12175000Y-12065000D02*
X12145000Y-12095000D01*
X12255000Y-12195000D02*
X12285000Y-12225000D01*
X12285000Y-12195000D02*
X12255000Y-12225000D01*
X12325000Y-9415000D02*
X12355000Y-9445000D01*
X12355000Y-9415000D02*
X12325000Y-9445000D01*
X12385000Y-12065000D02*
X12415000Y-12095000D01*
X12415000Y-12065000D02*
X12385000Y-12095000D01*
X12520000Y-12185000D02*
X12550000Y-12215000D01*
X12550000Y-12185000D02*
X12520000Y-12215000D01*
X12565000Y-9415000D02*
X12595000Y-9445000D01*
X12595000Y-9415000D02*
X12565000Y-9445000D01*
X12615000Y-12375000D02*
X12645000Y-12405000D01*
X12645000Y-12375000D02*
X12615000Y-12405000D01*
X12635000Y-11545000D02*
X12665000Y-11575000D01*
X12665000Y-11545000D02*
X12635000Y-11575000D01*
X12645000Y-11865000D02*
X12675000Y-11895000D01*
X12675000Y-11865000D02*
X12645000Y-11895000D01*
X12725000Y-12185000D02*
X12755000Y-12215000D01*
X12755000Y-12185000D02*
X12725000Y-12215000D01*
X12765000Y-11255000D02*
X12795000Y-11285000D01*
X12795000Y-11255000D02*
X12765000Y-11285000D01*
X12945000Y-11255000D02*
X12975000Y-11285000D01*
X12975000Y-11255000D02*
X12945000Y-11285000D01*
X12995000Y-11705000D02*
X13025000Y-11735000D01*
X13025000Y-11705000D02*
X12995000Y-11735000D01*
X12995000Y-11915000D02*
X13025000Y-11945000D01*
X13025000Y-11915000D02*
X12995000Y-11945000D01*
X13145000Y-11255000D02*
X13175000Y-11285000D01*
X13175000Y-11255000D02*
X13145000Y-11285000D01*
X13265000Y-11255000D02*
X13295000Y-11285000D01*
X13295000Y-11255000D02*
X13265000Y-11285000D01*
X13265000Y-11905000D02*
X13295000Y-11935000D01*
X13295000Y-11905000D02*
X13265000Y-11935000D01*
X13275000Y-11705000D02*
X13305000Y-11735000D01*
X13305000Y-11705000D02*
X13275000Y-11735000D01*
X13395000Y-11245000D02*
X13425000Y-11275000D01*
X13425000Y-11245000D02*
X13395000Y-11275000D01*
X13505000Y-8635000D02*
X13535000Y-8665000D01*
X13535000Y-8635000D02*
X13505000Y-8665000D01*
X13525000Y-11125000D02*
X13555000Y-11155000D01*
X13555000Y-11125000D02*
X13525000Y-11155000D01*
X13525000Y-11245000D02*
X13555000Y-11275000D01*
X13555000Y-11245000D02*
X13525000Y-11275000D01*
X13525000Y-11705000D02*
X13555000Y-11735000D01*
X13555000Y-11705000D02*
X13525000Y-11735000D01*
X13525000Y-11905000D02*
X13555000Y-11935000D01*
X13555000Y-11905000D02*
X13525000Y-11935000D01*
X13625000Y-8945000D02*
X13655000Y-8975000D01*
X13655000Y-8945000D02*
X13625000Y-8975000D01*
X13645000Y-11245000D02*
X13675000Y-11275000D01*
X13675000Y-11245000D02*
X13645000Y-11275000D01*
X13665000Y-9415000D02*
X13695000Y-9445000D01*
X13695000Y-9415000D02*
X13665000Y-9445000D01*
X13675000Y-9865000D02*
X13705000Y-9895000D01*
X13705000Y-9865000D02*
X13675000Y-9895000D01*
X13675000Y-10005000D02*
X13705000Y-10035000D01*
X13705000Y-10005000D02*
X13675000Y-10035000D01*
X13735000Y-8775000D02*
X13765000Y-8805000D01*
X13765000Y-8775000D02*
X13735000Y-8805000D01*
X13795000Y-11245000D02*
X13825000Y-11275000D01*
X13825000Y-11245000D02*
X13795000Y-11275000D01*
X13805000Y-8615000D02*
X13835000Y-8645000D01*
X13835000Y-8615000D02*
X13805000Y-8645000D01*
X13805000Y-11695000D02*
X13835000Y-11725000D01*
X13835000Y-11695000D02*
X13805000Y-11725000D01*
X13805000Y-11905000D02*
X13835000Y-11935000D01*
X13835000Y-11905000D02*
X13805000Y-11935000D01*
X13825000Y-9945000D02*
X13855000Y-9975000D01*
X13855000Y-9945000D02*
X13825000Y-9975000D01*
X13855000Y-9410000D02*
X13885000Y-9440000D01*
X13885000Y-9410000D02*
X13855000Y-9440000D01*
X13865000Y-8945000D02*
X13895000Y-8975000D01*
X13895000Y-8945000D02*
X13865000Y-8975000D01*
X13905000Y-9245000D02*
X13935000Y-9275000D01*
X13935000Y-9245000D02*
X13905000Y-9275000D01*
X13945000Y-10035000D02*
X13975000Y-10065000D01*
X13975000Y-10035000D02*
X13945000Y-10065000D01*
X13955000Y-11275000D02*
X13985000Y-11305000D01*
X13985000Y-11275000D02*
X13955000Y-11305000D01*
X14015000Y-9395000D02*
X14045000Y-9425000D01*
X14045000Y-9395000D02*
X14015000Y-9425000D01*
X14075000Y-11165000D02*
X14105000Y-11195000D01*
X14105000Y-11165000D02*
X14075000Y-11195000D01*
X14135000Y-10035000D02*
X14165000Y-10065000D01*
X14165000Y-10035000D02*
X14135000Y-10065000D01*
X14205000Y-11695000D02*
X14235000Y-11725000D01*
X14235000Y-11695000D02*
X14205000Y-11725000D01*
X14215000Y-11875000D02*
X14245000Y-11905000D01*
X14245000Y-11875000D02*
X14215000Y-11905000D01*
X14235000Y-10935000D02*
X14265000Y-10965000D01*
X14265000Y-10935000D02*
X14235000Y-10965000D01*
X14365000Y-11685000D02*
X14395000Y-11715000D01*
X14395000Y-11685000D02*
X14365000Y-11715000D01*
X14395000Y-10935000D02*
X14425000Y-10965000D01*
X14425000Y-10935000D02*
X14395000Y-10965000D01*
X14405000Y-11185000D02*
X14435000Y-11215000D01*
X14435000Y-11185000D02*
X14405000Y-11215000D01*
X14535000Y-10935000D02*
X14565000Y-10965000D01*
X14565000Y-10935000D02*
X14535000Y-10965000D01*
X14565000Y-11685000D02*
X14595000Y-11715000D01*
X14595000Y-11685000D02*
X14565000Y-11715000D01*
X14565000Y-11845000D02*
X14595000Y-11875000D01*
X14595000Y-11845000D02*
X14565000Y-11875000D01*
X14575000Y-11145000D02*
X14605000Y-11175000D01*
X14605000Y-11145000D02*
X14575000Y-11175000D01*
X14685000Y-10015000D02*
X14715000Y-10045000D01*
X14715000Y-10015000D02*
X14685000Y-10045000D01*
X14695000Y-11245000D02*
X14725000Y-11275000D01*
X14725000Y-11245000D02*
X14695000Y-11275000D01*
X14775000Y-11685000D02*
X14805000Y-11715000D01*
X14805000Y-11685000D02*
X14775000Y-11715000D01*
X14845000Y-9845000D02*
X14875000Y-9875000D01*
X14875000Y-9845000D02*
X14845000Y-9875000D01*
X14915000Y-10125000D02*
X14945000Y-10155000D01*
X14945000Y-10125000D02*
X14915000Y-10155000D01*
X14945000Y-9965000D02*
X14975000Y-9995000D01*
X14975000Y-9965000D02*
X14945000Y-9995000D01*
X14945000Y-11595000D02*
X14975000Y-11625000D01*
X14975000Y-11595000D02*
X14945000Y-11625000D01*
X15035000Y-8110000D02*
X15065000Y-8140000D01*
X15065000Y-8110000D02*
X15035000Y-8140000D01*
X15045000Y-11495000D02*
X15075000Y-11525000D01*
X15075000Y-11495000D02*
X15045000Y-11525000D01*
X15055000Y-10225000D02*
X15085000Y-10255000D01*
X15085000Y-10225000D02*
X15055000Y-10255000D01*
X15120000Y-10045000D02*
X15150000Y-10075000D01*
X15150000Y-10045000D02*
X15120000Y-10075000D01*
X15135000Y-10635000D02*
X15165000Y-10665000D01*
X15165000Y-10635000D02*
X15135000Y-10665000D01*
X15145000Y-11175000D02*
X15175000Y-11205000D01*
X15175000Y-11175000D02*
X15145000Y-11205000D01*
X15245000Y-11285000D02*
X15275000Y-11315000D01*
X15275000Y-11285000D02*
X15245000Y-11315000D01*
X15255000Y-8105000D02*
X15285000Y-8135000D01*
X15285000Y-8105000D02*
X15255000Y-8135000D01*
X15255000Y-9885000D02*
X15285000Y-9915000D01*
X15285000Y-9885000D02*
X15255000Y-9915000D01*
X15255000Y-10455000D02*
X15285000Y-10485000D01*
X15285000Y-10455000D02*
X15255000Y-10485000D01*
X15355000Y-8955000D02*
X15385000Y-8985000D01*
X15385000Y-8955000D02*
X15355000Y-8985000D01*
X15365000Y-9215000D02*
X15395000Y-9245000D01*
X15395000Y-9215000D02*
X15365000Y-9245000D01*
X15395000Y-10305000D02*
X15425000Y-10335000D01*
X15425000Y-10305000D02*
X15395000Y-10335000D01*
X15405000Y-8715000D02*
X15435000Y-8745000D01*
X15435000Y-8715000D02*
X15405000Y-8745000D01*
X15415000Y-9835000D02*
X15445000Y-9865000D01*
X15445000Y-9835000D02*
X15415000Y-9865000D01*
X15425000Y-10015000D02*
X15455000Y-10045000D01*
X15455000Y-10015000D02*
X15425000Y-10045000D01*
X15485000Y-8100000D02*
X15515000Y-8130000D01*
X15515000Y-8100000D02*
X15485000Y-8130000D01*
X15525000Y-8815000D02*
X15555000Y-8845000D01*
X15555000Y-8815000D02*
X15525000Y-8845000D01*
X15525000Y-8955000D02*
X15555000Y-8985000D01*
X15555000Y-8955000D02*
X15525000Y-8985000D01*
X15545000Y-9345000D02*
X15575000Y-9375000D01*
X15575000Y-9345000D02*
X15545000Y-9375000D01*
X15555000Y-8605000D02*
X15585000Y-8635000D01*
X15585000Y-8605000D02*
X15555000Y-8635000D01*
X15565000Y-10635000D02*
X15595000Y-10665000D01*
X15595000Y-10635000D02*
X15565000Y-10665000D01*
X15675000Y-11825000D02*
X15705000Y-11855000D01*
X15705000Y-11825000D02*
X15675000Y-11855000D01*
X15695000Y-10255000D02*
X15725000Y-10285000D01*
X15725000Y-10255000D02*
X15695000Y-10285000D01*
X15695000Y-10485000D02*
X15725000Y-10515000D01*
X15725000Y-10485000D02*
X15695000Y-10515000D01*
X15705000Y-8100000D02*
X15735000Y-8130000D01*
X15735000Y-8100000D02*
X15705000Y-8130000D01*
X15715000Y-8715000D02*
X15745000Y-8745000D01*
X15745000Y-8715000D02*
X15715000Y-8745000D01*
X15725000Y-9375000D02*
X15755000Y-9405000D01*
X15755000Y-9375000D02*
X15725000Y-9405000D01*
X15735000Y-12145000D02*
X15765000Y-12175000D01*
X15765000Y-12145000D02*
X15735000Y-12175000D01*
X15745000Y-12345000D02*
X15775000Y-12375000D01*
X15775000Y-12345000D02*
X15745000Y-12375000D01*
X15825000Y-11685000D02*
X15855000Y-11715000D01*
X15855000Y-11685000D02*
X15825000Y-11715000D01*
X15865000Y-10485000D02*
X15895000Y-10515000D01*
X15895000Y-10485000D02*
X15865000Y-10515000D01*
X15865000Y-10635000D02*
X15895000Y-10665000D01*
X15895000Y-10635000D02*
X15865000Y-10665000D01*
X15875000Y-8705000D02*
X15905000Y-8735000D01*
X15905000Y-8705000D02*
X15875000Y-8735000D01*
X15885000Y-9885000D02*
X15915000Y-9915000D01*
X15915000Y-9885000D02*
X15885000Y-9915000D01*
X15900000Y-9355000D02*
X15930000Y-9385000D01*
X15930000Y-9355000D02*
X15900000Y-9385000D01*
X15925000Y-8100000D02*
X15955000Y-8130000D01*
X15955000Y-8100000D02*
X15925000Y-8130000D01*
X15995000Y-11685000D02*
X16025000Y-11715000D01*
X16025000Y-11685000D02*
X15995000Y-11715000D01*
X16045000Y-11555000D02*
X16075000Y-11585000D01*
X16075000Y-11555000D02*
X16045000Y-11585000D01*
X16055000Y-10265000D02*
X16085000Y-10295000D01*
X16085000Y-10265000D02*
X16055000Y-10295000D01*
X16055000Y-10485000D02*
X16085000Y-10515000D01*
X16085000Y-10485000D02*
X16055000Y-10515000D01*
X16065000Y-9890000D02*
X16095000Y-9920000D01*
X16095000Y-9890000D02*
X16065000Y-9920000D01*
X16150000Y-8100000D02*
X16180000Y-8130000D01*
X16180000Y-8100000D02*
X16150000Y-8130000D01*
X16185000Y-10615000D02*
X16215000Y-10645000D01*
X16215000Y-10615000D02*
X16185000Y-10645000D01*
X16385000Y-8100000D02*
X16415000Y-8130000D01*
X16415000Y-8100000D02*
X16385000Y-8130000D01*
X16595000Y-10745000D02*
X16625000Y-10775000D01*
X16625000Y-10745000D02*
X16595000Y-10775000D01*
X16605000Y-8100000D02*
X16635000Y-8130000D01*
X16635000Y-8100000D02*
X16605000Y-8130000D01*
X16710000Y-10530000D02*
X16740000Y-10560000D01*
X16740000Y-10530000D02*
X16710000Y-10560000D01*
X16725000Y-10825000D02*
X16755000Y-10855000D01*
X16755000Y-10825000D02*
X16725000Y-10855000D01*
X16745000Y-11695000D02*
X16775000Y-11725000D01*
X16775000Y-11695000D02*
X16745000Y-11725000D01*
X16765000Y-11065000D02*
X16795000Y-11095000D01*
X16795000Y-11065000D02*
X16765000Y-11095000D01*
X16785000Y-10265000D02*
X16815000Y-10295000D01*
X16815000Y-10265000D02*
X16785000Y-10295000D01*
X16785000Y-12395000D02*
X16815000Y-12425000D01*
X16815000Y-12395000D02*
X16785000Y-12425000D01*
X16815000Y-8100000D02*
X16845000Y-8130000D01*
X16845000Y-8100000D02*
X16815000Y-8130000D01*
X16885000Y-9825000D02*
X16915000Y-9855000D01*
X16915000Y-9825000D02*
X16885000Y-9855000D01*
X16915000Y-12525000D02*
X16945000Y-12555000D01*
X16945000Y-12525000D02*
X16915000Y-12555000D01*
X16925000Y-10355000D02*
X16955000Y-10385000D01*
X16955000Y-10355000D02*
X16925000Y-10385000D01*
X16965000Y-10515000D02*
X16995000Y-10545000D01*
X16995000Y-10515000D02*
X16965000Y-10545000D01*
X17035000Y-9825000D02*
X17065000Y-9855000D01*
X17065000Y-9825000D02*
X17035000Y-9855000D01*
X17045000Y-12615000D02*
X17075000Y-12645000D01*
X17075000Y-12615000D02*
X17045000Y-12645000D01*
X17060000Y-8095000D02*
X17090000Y-8125000D01*
X17090000Y-8095000D02*
X17060000Y-8125000D01*
X17090000Y-10355000D02*
X17120000Y-10385000D01*
X17120000Y-10355000D02*
X17090000Y-10385000D01*
X17125000Y-9715000D02*
X17155000Y-9745000D01*
X17155000Y-9715000D02*
X17125000Y-9745000D01*
X17143750Y-9575000D02*
X17173750Y-9605000D01*
X17173750Y-9575000D02*
X17143750Y-9605000D01*
X17145000Y-10515000D02*
X17175000Y-10545000D01*
X17175000Y-10515000D02*
X17145000Y-10545000D01*
X17265000Y-10375000D02*
X17295000Y-10405000D01*
X17295000Y-10375000D02*
X17265000Y-10405000D01*
X17283750Y-9575000D02*
X17313750Y-9605000D01*
X17313750Y-9575000D02*
X17283750Y-9605000D01*
X17285000Y-11105000D02*
X17315000Y-11135000D01*
X17315000Y-11105000D02*
X17285000Y-11135000D01*
X17285000Y-11255000D02*
X17315000Y-11285000D01*
X17315000Y-11255000D02*
X17285000Y-11285000D01*
X17295000Y-11855000D02*
X17325000Y-11885000D01*
X17325000Y-11855000D02*
X17295000Y-11885000D01*
X17310000Y-8095000D02*
X17340000Y-8125000D01*
X17340000Y-8095000D02*
X17310000Y-8125000D01*
X17425000Y-11955000D02*
X17455000Y-11985000D01*
X17455000Y-11955000D02*
X17425000Y-11985000D01*
X17455000Y-9575000D02*
X17485000Y-9605000D01*
X17485000Y-9575000D02*
X17455000Y-9605000D01*
X17455000Y-10365000D02*
X17485000Y-10395000D01*
X17485000Y-10365000D02*
X17455000Y-10395000D01*
X17465000Y-8915000D02*
X17495000Y-8945000D01*
X17495000Y-8915000D02*
X17465000Y-8945000D01*
X17508750Y-9440000D02*
X17538750Y-9470000D01*
X17538750Y-9440000D02*
X17508750Y-9470000D01*
X17523750Y-9280000D02*
X17553750Y-9310000D01*
X17553750Y-9280000D02*
X17523750Y-9310000D01*
X17545000Y-12085000D02*
X17575000Y-12115000D01*
X17575000Y-12085000D02*
X17545000Y-12115000D01*
X17550000Y-8095000D02*
X17580000Y-8125000D01*
X17580000Y-8095000D02*
X17550000Y-8125000D01*
X17625000Y-8815000D02*
X17655000Y-8845000D01*
X17655000Y-8815000D02*
X17625000Y-8845000D01*
X17625000Y-9015000D02*
X17655000Y-9045000D01*
X17655000Y-9015000D02*
X17625000Y-9045000D01*
X17655000Y-11765000D02*
X17685000Y-11795000D01*
X17685000Y-11765000D02*
X17655000Y-11795000D01*
X17660000Y-11940000D02*
X17690000Y-11970000D01*
X17690000Y-11940000D02*
X17660000Y-11970000D01*
X17665000Y-10350000D02*
X17695000Y-10380000D01*
X17695000Y-10350000D02*
X17665000Y-10380000D01*
X17665000Y-10495000D02*
X17695000Y-10525000D01*
X17695000Y-10495000D02*
X17665000Y-10525000D01*
X17675000Y-11555000D02*
X17705000Y-11585000D01*
X17705000Y-11555000D02*
X17675000Y-11585000D01*
X17715000Y-12145000D02*
X17745000Y-12175000D01*
X17745000Y-12145000D02*
X17715000Y-12175000D01*
X17718750Y-9255000D02*
X17748750Y-9285000D01*
X17748750Y-9255000D02*
X17718750Y-9285000D01*
X17780000Y-8095000D02*
X17810000Y-8125000D01*
X17810000Y-8095000D02*
X17780000Y-8125000D01*
X17835000Y-12045000D02*
X17865000Y-12075000D01*
X17865000Y-12045000D02*
X17835000Y-12075000D01*
X17845000Y-11225000D02*
X17875000Y-11255000D01*
X17875000Y-11225000D02*
X17845000Y-11255000D01*
X17935000Y-12155000D02*
X17965000Y-12185000D01*
X17965000Y-12155000D02*
X17935000Y-12185000D01*
X18020000Y-8095000D02*
X18050000Y-8125000D01*
X18050000Y-8095000D02*
X18020000Y-8125000D01*
X18065000Y-12045000D02*
X18095000Y-12075000D01*
X18095000Y-12045000D02*
X18065000Y-12075000D01*
X18100000Y-12400000D02*
X18130000Y-12430000D01*
X18130000Y-12400000D02*
X18100000Y-12430000D01*
X18175000Y-12145000D02*
X18205000Y-12175000D01*
X18205000Y-12145000D02*
X18175000Y-12175000D01*
X18195000Y-8865000D02*
X18225000Y-8895000D01*
X18225000Y-8865000D02*
X18195000Y-8895000D01*
X18195000Y-9045000D02*
X18225000Y-9075000D01*
X18225000Y-9045000D02*
X18195000Y-9075000D01*
X18200000Y-9215000D02*
X18230000Y-9245000D01*
X18230000Y-9215000D02*
X18200000Y-9245000D01*
X18225000Y-11405000D02*
X18255000Y-11435000D01*
X18255000Y-11405000D02*
X18225000Y-11435000D01*
X18275000Y-8095000D02*
X18305000Y-8125000D01*
X18305000Y-8095000D02*
X18275000Y-8125000D01*
X18355000Y-12145000D02*
X18385000Y-12175000D01*
X18385000Y-12145000D02*
X18355000Y-12175000D01*
X18375000Y-12375000D02*
X18405000Y-12405000D01*
X18405000Y-12375000D02*
X18375000Y-12405000D01*
X18395000Y-9215000D02*
X18425000Y-9245000D01*
X18425000Y-9215000D02*
X18395000Y-9245000D01*
X18405000Y-12625000D02*
X18435000Y-12655000D01*
X18435000Y-12625000D02*
X18405000Y-12655000D01*
X18435000Y-11405000D02*
X18465000Y-11435000D01*
X18465000Y-11405000D02*
X18435000Y-11435000D01*
X18485000Y-12255000D02*
X18515000Y-12285000D01*
X18515000Y-12255000D02*
X18485000Y-12285000D01*
X18510000Y-8095000D02*
X18540000Y-8125000D01*
X18540000Y-8095000D02*
X18510000Y-8125000D01*
X18545000Y-12415000D02*
X18575000Y-12445000D01*
X18575000Y-12415000D02*
X18545000Y-12445000D01*
X18565000Y-11755000D02*
X18595000Y-11785000D01*
X18595000Y-11755000D02*
X18565000Y-11785000D01*
X18575000Y-8855000D02*
X18605000Y-8885000D01*
X18605000Y-8855000D02*
X18575000Y-8885000D01*
X18585000Y-9035000D02*
X18615000Y-9065000D01*
X18615000Y-9035000D02*
X18585000Y-9065000D01*
X18585000Y-9215000D02*
X18615000Y-9245000D01*
X18615000Y-9215000D02*
X18585000Y-9245000D01*
X18725000Y-12605000D02*
X18755000Y-12635000D01*
X18755000Y-12605000D02*
X18725000Y-12635000D01*
X18765000Y-8095000D02*
X18795000Y-8125000D01*
X18795000Y-8095000D02*
X18765000Y-8125000D01*
X18865000Y-12435000D02*
X18895000Y-12465000D01*
X18895000Y-12435000D02*
X18865000Y-12465000D01*
X18910000Y-10560000D02*
X18940000Y-10590000D01*
X18940000Y-10560000D02*
X18910000Y-10590000D01*
X19005000Y-12595000D02*
X19035000Y-12625000D01*
X19035000Y-12595000D02*
X19005000Y-12625000D01*
X19010000Y-8100000D02*
X19040000Y-8130000D01*
X19040000Y-8100000D02*
X19010000Y-8130000D01*
X19085000Y-10385000D02*
X19115000Y-10415000D01*
X19115000Y-10385000D02*
X19085000Y-10415000D01*
X19085000Y-11050000D02*
X19115000Y-11080000D01*
X19115000Y-11050000D02*
X19085000Y-11080000D01*
X19095000Y-12425000D02*
X19125000Y-12455000D01*
X19125000Y-12425000D02*
X19095000Y-12455000D01*
X19160000Y-11190000D02*
X19190000Y-11220000D01*
X19190000Y-11190000D02*
X19160000Y-11220000D01*
X19235000Y-8095000D02*
X19265000Y-8125000D01*
X19265000Y-8095000D02*
X19235000Y-8125000D01*
X19270000Y-11045000D02*
X19300000Y-11075000D01*
X19300000Y-11045000D02*
X19270000Y-11075000D01*
X19275000Y-12295000D02*
X19305000Y-12325000D01*
X19305000Y-12295000D02*
X19275000Y-12325000D01*
X19275000Y-12425000D02*
X19305000Y-12455000D01*
X19305000Y-12425000D02*
X19275000Y-12455000D01*
X19285000Y-11235000D02*
X19315000Y-11265000D01*
X19315000Y-11235000D02*
X19285000Y-11265000D01*
X19335000Y-8565000D02*
X19365000Y-8595000D01*
X19365000Y-8565000D02*
X19335000Y-8595000D01*
X19335000Y-8905000D02*
X19365000Y-8935000D01*
X19365000Y-8905000D02*
X19335000Y-8935000D01*
X19335000Y-12595000D02*
X19365000Y-12625000D01*
X19365000Y-12595000D02*
X19335000Y-12625000D01*
X19375000Y-9225000D02*
X19405000Y-9255000D01*
X19405000Y-9225000D02*
X19375000Y-9255000D01*
X19395000Y-10125000D02*
X19425000Y-10155000D01*
X19425000Y-10125000D02*
X19395000Y-10155000D01*
X19430000Y-11230000D02*
X19460000Y-11260000D01*
X19460000Y-11230000D02*
X19430000Y-11260000D01*
X19445000Y-11825000D02*
X19475000Y-11855000D01*
X19475000Y-11825000D02*
X19445000Y-11855000D01*
X19445000Y-12425000D02*
X19475000Y-12455000D01*
X19475000Y-12425000D02*
X19445000Y-12455000D01*
X19465000Y-10535000D02*
X19495000Y-10565000D01*
X19495000Y-10535000D02*
X19465000Y-10565000D01*
X19485000Y-9755000D02*
X19515000Y-9785000D01*
X19515000Y-9755000D02*
X19485000Y-9785000D01*
X19485000Y-9955000D02*
X19515000Y-9985000D01*
X19515000Y-9955000D02*
X19485000Y-9985000D01*
X19505000Y-9055000D02*
X19535000Y-9085000D01*
X19535000Y-9055000D02*
X19505000Y-9085000D01*
X19505000Y-12195000D02*
X19535000Y-12225000D01*
X19535000Y-12195000D02*
X19505000Y-12225000D01*
X19515000Y-8165000D02*
X19545000Y-8195000D01*
X19545000Y-8165000D02*
X19515000Y-8195000D01*
X19515000Y-8725000D02*
X19545000Y-8755000D01*
X19545000Y-8725000D02*
X19515000Y-8755000D01*
X19575000Y-11490000D02*
X19605000Y-11520000D01*
X19605000Y-11490000D02*
X19575000Y-11520000D01*
X19595000Y-10295000D02*
X19625000Y-10325000D01*
X19625000Y-10295000D02*
X19595000Y-10325000D01*
X19615000Y-12495000D02*
X19645000Y-12525000D01*
X19645000Y-12495000D02*
X19615000Y-12525000D01*
X19645000Y-10695000D02*
X19675000Y-10725000D01*
X19675000Y-10695000D02*
X19645000Y-10725000D01*
X19665000Y-11825000D02*
X19695000Y-11855000D01*
X19695000Y-11825000D02*
X19665000Y-11855000D01*
X19675000Y-11580000D02*
X19705000Y-11610000D01*
X19705000Y-11580000D02*
X19675000Y-11610000D01*
X19675000Y-12045000D02*
X19705000Y-12075000D01*
X19705000Y-12045000D02*
X19675000Y-12075000D01*
X19680000Y-11400000D02*
X19710000Y-11430000D01*
X19710000Y-11400000D02*
X19680000Y-11430000D01*
X19685000Y-8915000D02*
X19715000Y-8945000D01*
X19715000Y-8915000D02*
X19685000Y-8945000D01*
X19685000Y-9225000D02*
X19715000Y-9255000D01*
X19715000Y-9225000D02*
X19685000Y-9255000D01*
X19725000Y-8085000D02*
X19755000Y-8115000D01*
X19755000Y-8085000D02*
X19725000Y-8115000D01*
X19735000Y-8295000D02*
X19765000Y-8325000D01*
X19765000Y-8295000D02*
X19735000Y-8325000D01*
X19775000Y-8515000D02*
X19805000Y-8545000D01*
X19805000Y-8515000D02*
X19775000Y-8545000D01*
X19775000Y-10295000D02*
X19805000Y-10325000D01*
X19805000Y-10295000D02*
X19775000Y-10325000D01*
X19775000Y-10575000D02*
X19805000Y-10605000D01*
X19805000Y-10575000D02*
X19775000Y-10605000D01*
X19795000Y-9735000D02*
X19825000Y-9765000D01*
X19825000Y-9735000D02*
X19795000Y-9765000D01*
X19805000Y-11485000D02*
X19835000Y-11515000D01*
X19835000Y-11485000D02*
X19805000Y-11515000D01*
X19810000Y-11065000D02*
X19840000Y-11095000D01*
X19840000Y-11065000D02*
X19810000Y-11095000D01*
X19815000Y-12315000D02*
X19845000Y-12345000D01*
X19845000Y-12315000D02*
X19815000Y-12345000D01*
X19855000Y-11925000D02*
X19885000Y-11955000D01*
X19885000Y-11925000D02*
X19855000Y-11955000D01*
X19865000Y-11745000D02*
X19895000Y-11775000D01*
X19895000Y-11745000D02*
X19865000Y-11775000D01*
X19905000Y-9085000D02*
X19935000Y-9115000D01*
X19935000Y-9085000D02*
X19905000Y-9115000D01*
X19945000Y-8155000D02*
X19975000Y-8185000D01*
X19975000Y-8155000D02*
X19945000Y-8185000D01*
X19955000Y-10295000D02*
X19985000Y-10325000D01*
X19985000Y-10295000D02*
X19955000Y-10325000D01*
X19965000Y-8365000D02*
X19995000Y-8395000D01*
X19995000Y-8365000D02*
X19965000Y-8395000D01*
X19975000Y-9305000D02*
X20005000Y-9335000D01*
X20005000Y-9305000D02*
X19975000Y-9335000D01*
X19975000Y-10705000D02*
X20005000Y-10735000D01*
X20005000Y-10705000D02*
X19975000Y-10735000D01*
X19985000Y-8555000D02*
X20015000Y-8585000D01*
X20015000Y-8555000D02*
X19985000Y-8585000D01*
X19995000Y-9445000D02*
X20025000Y-9475000D01*
X20025000Y-9445000D02*
X19995000Y-9475000D01*
X19995000Y-9735000D02*
X20025000Y-9765000D01*
X20025000Y-9735000D02*
X19995000Y-9765000D01*
X19995000Y-11005000D02*
X20025000Y-11035000D01*
X20025000Y-11005000D02*
X19995000Y-11035000D01*
X19995000Y-12135000D02*
X20025000Y-12165000D01*
X20025000Y-12135000D02*
X19995000Y-12165000D01*
X20015000Y-9585000D02*
X20045000Y-9615000D01*
X20045000Y-9585000D02*
X20015000Y-9615000D01*
X20035000Y-8755000D02*
X20065000Y-8785000D01*
X20065000Y-8755000D02*
X20035000Y-8785000D01*
X20085000Y-11355000D02*
X20115000Y-11385000D01*
X20115000Y-11355000D02*
X20085000Y-11385000D01*
X20125000Y-11145000D02*
X20155000Y-11175000D01*
X20155000Y-11145000D02*
X20125000Y-11175000D01*
X20125000Y-11595000D02*
X20155000Y-11625000D01*
X20155000Y-11595000D02*
X20125000Y-11625000D01*
X20125000Y-11785000D02*
X20155000Y-11815000D01*
X20155000Y-11785000D02*
X20125000Y-11815000D01*
X20125000Y-11965000D02*
X20155000Y-11995000D01*
X20155000Y-11965000D02*
X20125000Y-11995000D01*
X20135000Y-10295000D02*
X20165000Y-10325000D01*
X20165000Y-10295000D02*
X20135000Y-10325000D01*
X20135000Y-10575000D02*
X20165000Y-10605000D01*
X20165000Y-10575000D02*
X20135000Y-10605000D01*
X20135000Y-10815000D02*
X20165000Y-10845000D01*
X20165000Y-10815000D02*
X20135000Y-10845000D01*
X20145000Y-9995000D02*
X20175000Y-10025000D01*
X20175000Y-9995000D02*
X20145000Y-10025000D01*
X20155000Y-8215000D02*
X20185000Y-8245000D01*
X20185000Y-8215000D02*
X20155000Y-8245000D01*
X20165000Y-10155000D02*
X20195000Y-10185000D01*
X20195000Y-10155000D02*
X20165000Y-10185000D01*
X20175000Y-10995000D02*
X20205000Y-11025000D01*
X20205000Y-10995000D02*
X20175000Y-11025000D01*
X20185000Y-8605000D02*
X20215000Y-8635000D01*
X20215000Y-8605000D02*
X20185000Y-8635000D01*
X20195000Y-11285000D02*
X20225000Y-11315000D01*
X20225000Y-11285000D02*
X20195000Y-11315000D01*
X20245000Y-8795000D02*
X20275000Y-8825000D01*
X20275000Y-8795000D02*
X20245000Y-8825000D01*
X20305000Y-9315000D02*
X20335000Y-9345000D01*
X20335000Y-9315000D02*
X20305000Y-9345000D01*
X20315000Y-8985000D02*
X20345000Y-9015000D01*
X20345000Y-8985000D02*
X20315000Y-9015000D01*
X20325000Y-9625000D02*
X20355000Y-9655000D01*
X20355000Y-9625000D02*
X20325000Y-9655000D01*
X20325000Y-9915000D02*
X20355000Y-9945000D01*
X20355000Y-9915000D02*
X20325000Y-9945000D01*
X20325000Y-10105000D02*
X20355000Y-10135000D01*
X20355000Y-10105000D02*
X20325000Y-10135000D01*
X20325000Y-10295000D02*
X20355000Y-10325000D01*
X20355000Y-10295000D02*
X20325000Y-10325000D01*
X20335000Y-10585000D02*
X20365000Y-10615000D01*
X20365000Y-10585000D02*
X20335000Y-10615000D01*
X20335000Y-10775000D02*
X20365000Y-10805000D01*
X20365000Y-10775000D02*
X20335000Y-10805000D01*
X20335000Y-10955000D02*
X20365000Y-10985000D01*
X20365000Y-10955000D02*
X20335000Y-10985000D01*
X20345000Y-11155000D02*
X20375000Y-11185000D01*
X20375000Y-11155000D02*
X20345000Y-11185000D01*
X20375000Y-11665000D02*
X20405000Y-11695000D01*
X20405000Y-11665000D02*
X20375000Y-11695000D01*
X20385000Y-11475000D02*
X20415000Y-11505000D01*
X20415000Y-11475000D02*
X20385000Y-11505000D01*
X20425000Y-8825000D02*
X20455000Y-8855000D01*
X20455000Y-8825000D02*
X20425000Y-8855000D01*
X20435000Y-9155000D02*
X20465000Y-9185000D01*
X20465000Y-9155000D02*
X20435000Y-9185000D01*
X20445000Y-9475000D02*
X20475000Y-9505000D01*
X20475000Y-9475000D02*
X20445000Y-9505000D01*
X20445000Y-9775000D02*
X20475000Y-9805000D01*
X20475000Y-9775000D02*
X20445000Y-9805000D01*
X20465000Y-11065000D02*
X20495000Y-11095000D01*
X20495000Y-11065000D02*
X20465000Y-11095000D01*
X20465000Y-11325000D02*
X20495000Y-11355000D01*
X20495000Y-11325000D02*
X20465000Y-11355000D01*
X20485000Y-11965000D02*
X20515000Y-11995000D01*
X20515000Y-11965000D02*
X20485000Y-11995000D01*
X20535000Y-11645000D02*
X20565000Y-11675000D01*
X20565000Y-11645000D02*
X20535000Y-11675000D01*
X20555000Y-8985000D02*
X20585000Y-9015000D01*
X20585000Y-8985000D02*
X20555000Y-9015000D01*
X20555000Y-9315000D02*
X20585000Y-9345000D01*
X20585000Y-9315000D02*
X20555000Y-9345000D01*
X20565000Y-9625000D02*
X20595000Y-9655000D01*
X20595000Y-9625000D02*
X20565000Y-9655000D01*
X20575000Y-9915000D02*
X20605000Y-9945000D01*
X20605000Y-9915000D02*
X20575000Y-9945000D01*
X20585000Y-12135000D02*
X20615000Y-12165000D01*
X20615000Y-12135000D02*
X20585000Y-12165000D01*
X20595000Y-10955000D02*
X20625000Y-10985000D01*
X20625000Y-10955000D02*
X20595000Y-10985000D01*
X20595000Y-11205000D02*
X20625000Y-11235000D01*
X20625000Y-11205000D02*
X20595000Y-11235000D01*
X20595000Y-11475000D02*
X20625000Y-11505000D01*
X20625000Y-11475000D02*
X20595000Y-11505000D01*
X20595000Y-11805000D02*
X20625000Y-11835000D01*
X20625000Y-11805000D02*
X20595000Y-11835000D01*
X20665000Y-9155000D02*
X20695000Y-9185000D01*
X20695000Y-9155000D02*
X20665000Y-9185000D01*
X20675000Y-8825000D02*
X20705000Y-8855000D01*
X20705000Y-8825000D02*
X20675000Y-8855000D01*
X20675000Y-9465000D02*
X20705000Y-9495000D01*
X20705000Y-9465000D02*
X20675000Y-9495000D01*
X20675000Y-9765000D02*
X20705000Y-9795000D01*
X20705000Y-9765000D02*
X20675000Y-9795000D01*
X20705000Y-11075000D02*
X20735000Y-11105000D01*
X20735000Y-11075000D02*
X20705000Y-11105000D01*
X20715000Y-11965000D02*
X20745000Y-11995000D01*
X20745000Y-11965000D02*
X20715000Y-11995000D01*
X20725000Y-11335000D02*
X20755000Y-11365000D01*
X20755000Y-11335000D02*
X20725000Y-11365000D01*
X20725000Y-11645000D02*
X20755000Y-11675000D01*
X20755000Y-11645000D02*
X20725000Y-11675000D01*
X20785000Y-8975000D02*
X20815000Y-9005000D01*
X20815000Y-8975000D02*
X20785000Y-9005000D01*
X20795000Y-9305000D02*
X20825000Y-9335000D01*
X20825000Y-9305000D02*
X20795000Y-9335000D01*
X20795000Y-9625000D02*
X20825000Y-9655000D01*
X20825000Y-9625000D02*
X20795000Y-9655000D01*
X20795000Y-9915000D02*
X20825000Y-9945000D01*
X20825000Y-9915000D02*
X20795000Y-9945000D01*
X20805000Y-10955000D02*
X20835000Y-10985000D01*
X20835000Y-10955000D02*
X20805000Y-10985000D01*
X20825000Y-11205000D02*
X20855000Y-11235000D01*
X20855000Y-11205000D02*
X20825000Y-11235000D01*
X20825000Y-12125000D02*
X20855000Y-12155000D01*
X20855000Y-12125000D02*
X20825000Y-12155000D01*
X20835000Y-11485000D02*
X20865000Y-11515000D01*
X20865000Y-11485000D02*
X20835000Y-11515000D01*
X20835000Y-11805000D02*
X20865000Y-11835000D01*
X20865000Y-11805000D02*
X20835000Y-11835000D01*
X20875000Y-8745000D02*
X20905000Y-8775000D01*
X20905000Y-8745000D02*
X20875000Y-8775000D01*
X11290000Y-11136000D02*
G75*
G02*
X11230000Y-11136000I-30000J0D01*
G01*
X11230000Y-11136000D02*
G75*
G02*
X11290000Y-11136000I30000J0D01*
G01*
X11290000Y-11106000D02*
X11230000Y-11106000D01*
X11230000Y-11166000D02*
G75*
G02*
X11230000Y-11106000I0J30000D01*
G01*
X11230000Y-11166000D02*
X11290000Y-11166000D01*
X11290000Y-11166000D02*
G75*
G03*
X11290000Y-11106000I0J30000D01*
G01*
X11290000Y-12000000D02*
G75*
G02*
X11230000Y-12000000I-30000J0D01*
G01*
X11230000Y-12000000D02*
G75*
G02*
X11290000Y-12000000I30000J0D01*
G01*
X11290000Y-11970000D02*
X11230000Y-11970000D01*
X11230000Y-12030000D02*
G75*
G02*
X11230000Y-11970000I0J30000D01*
G01*
X11230000Y-12030000D02*
X11290000Y-12030000D01*
X11290000Y-12030000D02*
G75*
G03*
X11290000Y-11970000I0J30000D01*
G01*
X11708000Y-11136000D02*
G75*
G02*
X11648000Y-11136000I-30000J0D01*
G01*
X11648000Y-11136000D02*
G75*
G02*
X11708000Y-11136000I30000J0D01*
G01*
X11733000Y-11106000D02*
X11623000Y-11106000D01*
X11623000Y-11166000D02*
G75*
G02*
X11623000Y-11106000I0J30000D01*
G01*
X11623000Y-11166000D02*
X11733000Y-11166000D01*
X11733000Y-11166000D02*
G75*
G03*
X11733000Y-11106000I0J30000D01*
G01*
X11708000Y-12000000D02*
G75*
G02*
X11648000Y-12000000I-30000J0D01*
G01*
X11648000Y-12000000D02*
G75*
G02*
X11708000Y-12000000I30000J0D01*
G01*
X11733000Y-11970000D02*
X11623000Y-11970000D01*
X11623000Y-12030000D02*
G75*
G02*
X11623000Y-11970000I0J30000D01*
G01*
X11623000Y-12030000D02*
X11733000Y-12030000D01*
X11733000Y-12030000D02*
G75*
G03*
X11733000Y-11970000I0J30000D01*
G01*
X11500000Y-8980000D02*
X11500000Y-9080000D01*
X11450000Y-9030000D02*
X11550000Y-9030000D01*
X11500000Y-9234000D02*
X11500000Y-9334000D01*
X11450000Y-9284000D02*
X11550000Y-9284000D01*
X11500000Y-9488000D02*
X11500000Y-9588000D01*
X11450000Y-9538000D02*
X11550000Y-9538000D01*
X11500000Y-9742000D02*
X11500000Y-9842000D01*
X11450000Y-9792000D02*
X11550000Y-9792000D01*
X11754000Y-8980000D02*
X11754000Y-9080000D01*
X11704000Y-9030000D02*
X11804000Y-9030000D01*
X11754000Y-9234000D02*
X11754000Y-9334000D01*
X11704000Y-9284000D02*
X11804000Y-9284000D01*
X11754000Y-9488000D02*
X11754000Y-9588000D01*
X11704000Y-9538000D02*
X11804000Y-9538000D01*
X11754000Y-9742000D02*
X11754000Y-9842000D01*
X11704000Y-9792000D02*
X11804000Y-9792000D01*
X12566000Y-10080000D02*
X12566000Y-10180000D01*
X12516000Y-10130000D02*
X12616000Y-10130000D01*
X12820000Y-10080000D02*
X12820000Y-10180000D01*
X12770000Y-10130000D02*
X12870000Y-10130000D01*
X13028000Y-12190000D02*
X13028000Y-12290000D01*
X12978000Y-12240000D02*
X13078000Y-12240000D01*
X13028000Y-12444000D02*
X13028000Y-12544000D01*
X12978000Y-12494000D02*
X13078000Y-12494000D01*
X13074000Y-10080000D02*
X13074000Y-10180000D01*
X13024000Y-10130000D02*
X13124000Y-10130000D01*
X13282000Y-12190000D02*
X13282000Y-12290000D01*
X13232000Y-12240000D02*
X13332000Y-12240000D01*
X13282000Y-12444000D02*
X13282000Y-12544000D01*
X13232000Y-12494000D02*
X13332000Y-12494000D01*
X13536000Y-12190000D02*
X13536000Y-12290000D01*
X13486000Y-12240000D02*
X13586000Y-12240000D01*
X13536000Y-12444000D02*
X13536000Y-12544000D01*
X13486000Y-12494000D02*
X13586000Y-12494000D01*
X13790000Y-12190000D02*
X13790000Y-12290000D01*
X13740000Y-12240000D02*
X13840000Y-12240000D01*
X13790000Y-12444000D02*
X13790000Y-12544000D01*
X13740000Y-12494000D02*
X13840000Y-12494000D01*
X14044000Y-12190000D02*
X14044000Y-12290000D01*
X13994000Y-12240000D02*
X14094000Y-12240000D01*
X14044000Y-12444000D02*
X14044000Y-12544000D01*
X13994000Y-12494000D02*
X14094000Y-12494000D01*
X14682000Y-12190000D02*
X14682000Y-12290000D01*
X14632000Y-12240000D02*
X14732000Y-12240000D01*
X14682000Y-12444000D02*
X14682000Y-12544000D01*
X14632000Y-12494000D02*
X14732000Y-12494000D01*
X14936000Y-12190000D02*
X14936000Y-12290000D01*
X14886000Y-12240000D02*
X14986000Y-12240000D01*
X14936000Y-12444000D02*
X14936000Y-12544000D01*
X14886000Y-12494000D02*
X14986000Y-12494000D01*
X15190000Y-12190000D02*
X15190000Y-12290000D01*
X15140000Y-12240000D02*
X15240000Y-12240000D01*
X15190000Y-12444000D02*
X15190000Y-12544000D01*
X15140000Y-12494000D02*
X15240000Y-12494000D01*
X15516000Y-11220000D02*
X15516000Y-11320000D01*
X15466000Y-11270000D02*
X15566000Y-11270000D01*
X15770000Y-11220000D02*
X15770000Y-11320000D01*
X15720000Y-11270000D02*
X15820000Y-11270000D01*
X16024000Y-11220000D02*
X16024000Y-11320000D01*
X15974000Y-11270000D02*
X16074000Y-11270000D01*
X16050000Y-12190000D02*
X16050000Y-12290000D01*
X16000000Y-12240000D02*
X16100000Y-12240000D01*
X16050000Y-12444000D02*
X16050000Y-12544000D01*
X16000000Y-12494000D02*
X16100000Y-12494000D01*
X16304000Y-12190000D02*
X16304000Y-12290000D01*
X16254000Y-12240000D02*
X16354000Y-12240000D01*
X16304000Y-12444000D02*
X16304000Y-12544000D01*
X16254000Y-12494000D02*
X16354000Y-12494000D01*
X16558000Y-12190000D02*
X16558000Y-12290000D01*
X16508000Y-12240000D02*
X16608000Y-12240000D01*
X16558000Y-12444000D02*
X16558000Y-12544000D01*
X16508000Y-12494000D02*
X16608000Y-12494000D01*
D13*
X12338891Y-8883891D02*
X12338891Y-8806109D01*
X12261109Y-8806109D01*
X12261109Y-8883891D01*
X12338891Y-8883891D01*
X12588891Y-8883891D02*
X12588891Y-8806109D01*
X12511109Y-8806109D01*
X12511109Y-8883891D01*
X12588891Y-8883891D01*
X12838891Y-8883891D02*
X12838891Y-8806109D01*
X12761109Y-8806109D01*
X12761109Y-8883891D01*
X12838891Y-8883891D01*
D14*
X11400000Y-8560000D02*
X11560000Y-8400000D01*
X11400000Y-8240000D01*
X11240000Y-8400000D01*
X11400000Y-8560000D01*
X11400000Y-12760000D02*
X11560000Y-12600000D01*
X11400000Y-12440000D01*
X11240000Y-12600000D01*
X11400000Y-12760000D01*
X20600000Y-8560000D02*
X20760000Y-8400000D01*
X20600000Y-8240000D01*
X20440000Y-8400000D01*
X20600000Y-8560000D01*
X20600000Y-12760000D02*
X20760000Y-12600000D01*
X20600000Y-12440000D01*
X20440000Y-12600000D01*
X20600000Y-12760000D01*
D11*
X11258277Y-13313984D02*
X11258277Y-13113984D01*
X11258277Y-13113984D02*
X11305896Y-13113984D01*
X11305896Y-13113984D02*
X11334467Y-13123508D01*
X11334467Y-13123508D02*
X11353515Y-13142555D01*
X11353515Y-13142555D02*
X11363039Y-13161603D01*
X11363039Y-13161603D02*
X11372562Y-13199698D01*
X11372562Y-13199698D02*
X11372562Y-13228269D01*
X11372562Y-13228269D02*
X11363039Y-13266365D01*
X11363039Y-13266365D02*
X11353515Y-13285412D01*
X11353515Y-13285412D02*
X11334467Y-13304460D01*
X11334467Y-13304460D02*
X11305896Y-13313984D01*
X11305896Y-13313984D02*
X11258277Y-13313984D01*
X11458277Y-13313984D02*
X11458277Y-13180650D01*
X11458277Y-13218746D02*
X11467801Y-13199698D01*
X11467801Y-13199698D02*
X11477324Y-13190174D01*
X11477324Y-13190174D02*
X11496372Y-13180650D01*
X11496372Y-13180650D02*
X11515420Y-13180650D01*
X11582086Y-13313984D02*
X11582086Y-13180650D01*
X11582086Y-13113984D02*
X11572562Y-13123508D01*
X11572562Y-13123508D02*
X11582086Y-13133031D01*
X11582086Y-13133031D02*
X11591610Y-13123508D01*
X11591610Y-13123508D02*
X11582086Y-13113984D01*
X11582086Y-13113984D02*
X11582086Y-13133031D01*
X11705896Y-13313984D02*
X11686848Y-13304460D01*
X11686848Y-13304460D02*
X11677324Y-13285412D01*
X11677324Y-13285412D02*
X11677324Y-13113984D01*
X11810658Y-13313984D02*
X11791610Y-13304460D01*
X11791610Y-13304460D02*
X11782086Y-13285412D01*
X11782086Y-13285412D02*
X11782086Y-13113984D01*
X12039229Y-13313984D02*
X12039229Y-13113984D01*
X12039229Y-13113984D02*
X12105896Y-13256841D01*
X12105896Y-13256841D02*
X12172562Y-13113984D01*
X12172562Y-13113984D02*
X12172562Y-13313984D01*
X12353515Y-13313984D02*
X12353515Y-13209222D01*
X12353515Y-13209222D02*
X12343991Y-13190174D01*
X12343991Y-13190174D02*
X12324943Y-13180650D01*
X12324943Y-13180650D02*
X12286848Y-13180650D01*
X12286848Y-13180650D02*
X12267801Y-13190174D01*
X12353515Y-13304460D02*
X12334467Y-13313984D01*
X12334467Y-13313984D02*
X12286848Y-13313984D01*
X12286848Y-13313984D02*
X12267801Y-13304460D01*
X12267801Y-13304460D02*
X12258277Y-13285412D01*
X12258277Y-13285412D02*
X12258277Y-13266365D01*
X12258277Y-13266365D02*
X12267801Y-13247317D01*
X12267801Y-13247317D02*
X12286848Y-13237793D01*
X12286848Y-13237793D02*
X12334467Y-13237793D01*
X12334467Y-13237793D02*
X12353515Y-13228269D01*
X12448753Y-13180650D02*
X12448753Y-13380650D01*
X12448753Y-13190174D02*
X12467801Y-13180650D01*
X12467801Y-13180650D02*
X12505896Y-13180650D01*
X12505896Y-13180650D02*
X12524943Y-13190174D01*
X12524943Y-13190174D02*
X12534467Y-13199698D01*
X12534467Y-13199698D02*
X12543991Y-13218746D01*
X12543991Y-13218746D02*
X12543991Y-13275888D01*
X12543991Y-13275888D02*
X12534467Y-13294936D01*
X12534467Y-13294936D02*
X12524943Y-13304460D01*
X12524943Y-13304460D02*
X12505896Y-13313984D01*
X12505896Y-13313984D02*
X12467801Y-13313984D01*
X12467801Y-13313984D02*
X12448753Y-13304460D01*
X12629705Y-13294936D02*
X12639229Y-13304460D01*
X12639229Y-13304460D02*
X12629705Y-13313984D01*
X12629705Y-13313984D02*
X12620182Y-13304460D01*
X12620182Y-13304460D02*
X12629705Y-13294936D01*
X12629705Y-13294936D02*
X12629705Y-13313984D01*
X12629705Y-13190174D02*
X12639229Y-13199698D01*
X12639229Y-13199698D02*
X12629705Y-13209222D01*
X12629705Y-13209222D02*
X12620182Y-13199698D01*
X12620182Y-13199698D02*
X12629705Y-13190174D01*
X12629705Y-13190174D02*
X12629705Y-13209222D01*
D12*
X10967500Y-13627500D02*
X10997500Y-13657500D01*
X10997500Y-13627500D02*
X10967500Y-13657500D01*
D11*
X11296372Y-13533984D02*
X11315420Y-13533984D01*
X11315420Y-13533984D02*
X11334467Y-13543508D01*
X11334467Y-13543508D02*
X11343991Y-13553031D01*
X11343991Y-13553031D02*
X11353515Y-13572079D01*
X11353515Y-13572079D02*
X11363039Y-13610174D01*
X11363039Y-13610174D02*
X11363039Y-13657793D01*
X11363039Y-13657793D02*
X11353515Y-13695888D01*
X11353515Y-13695888D02*
X11343991Y-13714936D01*
X11343991Y-13714936D02*
X11334467Y-13724460D01*
X11334467Y-13724460D02*
X11315420Y-13733984D01*
X11315420Y-13733984D02*
X11296372Y-13733984D01*
X11296372Y-13733984D02*
X11277324Y-13724460D01*
X11277324Y-13724460D02*
X11267801Y-13714936D01*
X11267801Y-13714936D02*
X11258277Y-13695888D01*
X11258277Y-13695888D02*
X11248753Y-13657793D01*
X11248753Y-13657793D02*
X11248753Y-13610174D01*
X11248753Y-13610174D02*
X11258277Y-13572079D01*
X11258277Y-13572079D02*
X11267801Y-13553031D01*
X11267801Y-13553031D02*
X11277324Y-13543508D01*
X11277324Y-13543508D02*
X11296372Y-13533984D01*
X11448753Y-13714936D02*
X11458277Y-13724460D01*
X11458277Y-13724460D02*
X11448753Y-13733984D01*
X11448753Y-13733984D02*
X11439229Y-13724460D01*
X11439229Y-13724460D02*
X11448753Y-13714936D01*
X11448753Y-13714936D02*
X11448753Y-13733984D01*
X11524943Y-13533984D02*
X11648753Y-13533984D01*
X11648753Y-13533984D02*
X11582086Y-13610174D01*
X11582086Y-13610174D02*
X11610658Y-13610174D01*
X11610658Y-13610174D02*
X11629705Y-13619698D01*
X11629705Y-13619698D02*
X11639229Y-13629222D01*
X11639229Y-13629222D02*
X11648753Y-13648269D01*
X11648753Y-13648269D02*
X11648753Y-13695888D01*
X11648753Y-13695888D02*
X11639229Y-13714936D01*
X11639229Y-13714936D02*
X11629705Y-13724460D01*
X11629705Y-13724460D02*
X11610658Y-13733984D01*
X11610658Y-13733984D02*
X11553515Y-13733984D01*
X11553515Y-13733984D02*
X11534467Y-13724460D01*
X11534467Y-13724460D02*
X11524943Y-13714936D01*
X11772562Y-13533984D02*
X11791610Y-13533984D01*
X11791610Y-13533984D02*
X11810658Y-13543508D01*
X11810658Y-13543508D02*
X11820182Y-13553031D01*
X11820182Y-13553031D02*
X11829705Y-13572079D01*
X11829705Y-13572079D02*
X11839229Y-13610174D01*
X11839229Y-13610174D02*
X11839229Y-13657793D01*
X11839229Y-13657793D02*
X11829705Y-13695888D01*
X11829705Y-13695888D02*
X11820182Y-13714936D01*
X11820182Y-13714936D02*
X11810658Y-13724460D01*
X11810658Y-13724460D02*
X11791610Y-13733984D01*
X11791610Y-13733984D02*
X11772562Y-13733984D01*
X11772562Y-13733984D02*
X11753515Y-13724460D01*
X11753515Y-13724460D02*
X11743991Y-13714936D01*
X11743991Y-13714936D02*
X11734467Y-13695888D01*
X11734467Y-13695888D02*
X11724943Y-13657793D01*
X11724943Y-13657793D02*
X11724943Y-13610174D01*
X11724943Y-13610174D02*
X11734467Y-13572079D01*
X11734467Y-13572079D02*
X11743991Y-13553031D01*
X11743991Y-13553031D02*
X11753515Y-13543508D01*
X11753515Y-13543508D02*
X11772562Y-13533984D01*
X11963039Y-13533984D02*
X11982086Y-13533984D01*
X11982086Y-13533984D02*
X12001134Y-13543508D01*
X12001134Y-13543508D02*
X12010658Y-13553031D01*
X12010658Y-13553031D02*
X12020182Y-13572079D01*
X12020182Y-13572079D02*
X12029705Y-13610174D01*
X12029705Y-13610174D02*
X12029705Y-13657793D01*
X12029705Y-13657793D02*
X12020182Y-13695888D01*
X12020182Y-13695888D02*
X12010658Y-13714936D01*
X12010658Y-13714936D02*
X12001134Y-13724460D01*
X12001134Y-13724460D02*
X11982086Y-13733984D01*
X11982086Y-13733984D02*
X11963039Y-13733984D01*
X11963039Y-13733984D02*
X11943991Y-13724460D01*
X11943991Y-13724460D02*
X11934467Y-13714936D01*
X11934467Y-13714936D02*
X11924943Y-13695888D01*
X11924943Y-13695888D02*
X11915420Y-13657793D01*
X11915420Y-13657793D02*
X11915420Y-13610174D01*
X11915420Y-13610174D02*
X11924943Y-13572079D01*
X11924943Y-13572079D02*
X11934467Y-13553031D01*
X11934467Y-13553031D02*
X11943991Y-13543508D01*
X11943991Y-13543508D02*
X11963039Y-13533984D01*
X12115420Y-13733984D02*
X12115420Y-13600650D01*
X12115420Y-13619698D02*
X12124943Y-13610174D01*
X12124943Y-13610174D02*
X12143991Y-13600650D01*
X12143991Y-13600650D02*
X12172563Y-13600650D01*
X12172563Y-13600650D02*
X12191610Y-13610174D01*
X12191610Y-13610174D02*
X12201134Y-13629222D01*
X12201134Y-13629222D02*
X12201134Y-13733984D01*
X12201134Y-13629222D02*
X12210658Y-13610174D01*
X12210658Y-13610174D02*
X12229705Y-13600650D01*
X12229705Y-13600650D02*
X12258277Y-13600650D01*
X12258277Y-13600650D02*
X12277324Y-13610174D01*
X12277324Y-13610174D02*
X12286848Y-13629222D01*
X12286848Y-13629222D02*
X12286848Y-13733984D01*
X12382086Y-13733984D02*
X12382086Y-13600650D01*
X12382086Y-13619698D02*
X12391610Y-13610174D01*
X12391610Y-13610174D02*
X12410658Y-13600650D01*
X12410658Y-13600650D02*
X12439229Y-13600650D01*
X12439229Y-13600650D02*
X12458277Y-13610174D01*
X12458277Y-13610174D02*
X12467801Y-13629222D01*
X12467801Y-13629222D02*
X12467801Y-13733984D01*
X12467801Y-13629222D02*
X12477324Y-13610174D01*
X12477324Y-13610174D02*
X12496372Y-13600650D01*
X12496372Y-13600650D02*
X12524943Y-13600650D01*
X12524943Y-13600650D02*
X12543991Y-13610174D01*
X12543991Y-13610174D02*
X12553515Y-13629222D01*
X12553515Y-13629222D02*
X12553515Y-13733984D01*
X12943991Y-13524460D02*
X12772563Y-13781603D01*
X13201134Y-13533984D02*
X13220182Y-13533984D01*
X13220182Y-13533984D02*
X13239229Y-13543508D01*
X13239229Y-13543508D02*
X13248753Y-13553031D01*
X13248753Y-13553031D02*
X13258277Y-13572079D01*
X13258277Y-13572079D02*
X13267801Y-13610174D01*
X13267801Y-13610174D02*
X13267801Y-13657793D01*
X13267801Y-13657793D02*
X13258277Y-13695888D01*
X13258277Y-13695888D02*
X13248753Y-13714936D01*
X13248753Y-13714936D02*
X13239229Y-13724460D01*
X13239229Y-13724460D02*
X13220182Y-13733984D01*
X13220182Y-13733984D02*
X13201134Y-13733984D01*
X13201134Y-13733984D02*
X13182086Y-13724460D01*
X13182086Y-13724460D02*
X13172563Y-13714936D01*
X13172563Y-13714936D02*
X13163039Y-13695888D01*
X13163039Y-13695888D02*
X13153515Y-13657793D01*
X13153515Y-13657793D02*
X13153515Y-13610174D01*
X13153515Y-13610174D02*
X13163039Y-13572079D01*
X13163039Y-13572079D02*
X13172563Y-13553031D01*
X13172563Y-13553031D02*
X13182086Y-13543508D01*
X13182086Y-13543508D02*
X13201134Y-13533984D01*
X13353515Y-13714936D02*
X13363039Y-13724460D01*
X13363039Y-13724460D02*
X13353515Y-13733984D01*
X13353515Y-13733984D02*
X13343991Y-13724460D01*
X13343991Y-13724460D02*
X13353515Y-13714936D01*
X13353515Y-13714936D02*
X13353515Y-13733984D01*
X13486848Y-13533984D02*
X13505896Y-13533984D01*
X13505896Y-13533984D02*
X13524944Y-13543508D01*
X13524944Y-13543508D02*
X13534467Y-13553031D01*
X13534467Y-13553031D02*
X13543991Y-13572079D01*
X13543991Y-13572079D02*
X13553515Y-13610174D01*
X13553515Y-13610174D02*
X13553515Y-13657793D01*
X13553515Y-13657793D02*
X13543991Y-13695888D01*
X13543991Y-13695888D02*
X13534467Y-13714936D01*
X13534467Y-13714936D02*
X13524944Y-13724460D01*
X13524944Y-13724460D02*
X13505896Y-13733984D01*
X13505896Y-13733984D02*
X13486848Y-13733984D01*
X13486848Y-13733984D02*
X13467801Y-13724460D01*
X13467801Y-13724460D02*
X13458277Y-13714936D01*
X13458277Y-13714936D02*
X13448753Y-13695888D01*
X13448753Y-13695888D02*
X13439229Y-13657793D01*
X13439229Y-13657793D02*
X13439229Y-13610174D01*
X13439229Y-13610174D02*
X13448753Y-13572079D01*
X13448753Y-13572079D02*
X13458277Y-13553031D01*
X13458277Y-13553031D02*
X13467801Y-13543508D01*
X13467801Y-13543508D02*
X13486848Y-13533984D01*
X13743991Y-13733984D02*
X13629706Y-13733984D01*
X13686848Y-13733984D02*
X13686848Y-13533984D01*
X13686848Y-13533984D02*
X13667801Y-13562555D01*
X13667801Y-13562555D02*
X13648753Y-13581603D01*
X13648753Y-13581603D02*
X13629706Y-13591127D01*
X13934467Y-13733984D02*
X13820182Y-13733984D01*
X13877325Y-13733984D02*
X13877325Y-13533984D01*
X13877325Y-13533984D02*
X13858277Y-13562555D01*
X13858277Y-13562555D02*
X13839229Y-13581603D01*
X13839229Y-13581603D02*
X13820182Y-13591127D01*
X14048753Y-13619698D02*
X14029706Y-13610174D01*
X14029706Y-13610174D02*
X14020182Y-13600650D01*
X14020182Y-13600650D02*
X14010658Y-13581603D01*
X14010658Y-13581603D02*
X14010658Y-13572079D01*
X14010658Y-13572079D02*
X14020182Y-13553031D01*
X14020182Y-13553031D02*
X14029706Y-13543508D01*
X14029706Y-13543508D02*
X14048753Y-13533984D01*
X14048753Y-13533984D02*
X14086848Y-13533984D01*
X14086848Y-13533984D02*
X14105896Y-13543508D01*
X14105896Y-13543508D02*
X14115420Y-13553031D01*
X14115420Y-13553031D02*
X14124944Y-13572079D01*
X14124944Y-13572079D02*
X14124944Y-13581603D01*
X14124944Y-13581603D02*
X14115420Y-13600650D01*
X14115420Y-13600650D02*
X14105896Y-13610174D01*
X14105896Y-13610174D02*
X14086848Y-13619698D01*
X14086848Y-13619698D02*
X14048753Y-13619698D01*
X14048753Y-13619698D02*
X14029706Y-13629222D01*
X14029706Y-13629222D02*
X14020182Y-13638746D01*
X14020182Y-13638746D02*
X14010658Y-13657793D01*
X14010658Y-13657793D02*
X14010658Y-13695888D01*
X14010658Y-13695888D02*
X14020182Y-13714936D01*
X14020182Y-13714936D02*
X14029706Y-13724460D01*
X14029706Y-13724460D02*
X14048753Y-13733984D01*
X14048753Y-13733984D02*
X14086848Y-13733984D01*
X14086848Y-13733984D02*
X14105896Y-13724460D01*
X14105896Y-13724460D02*
X14115420Y-13714936D01*
X14115420Y-13714936D02*
X14124944Y-13695888D01*
X14124944Y-13695888D02*
X14124944Y-13657793D01*
X14124944Y-13657793D02*
X14115420Y-13638746D01*
X14115420Y-13638746D02*
X14105896Y-13629222D01*
X14105896Y-13629222D02*
X14086848Y-13619698D01*
X14201134Y-13533984D02*
X14201134Y-13572079D01*
X14277325Y-13533984D02*
X14277325Y-13572079D01*
X14572563Y-13810174D02*
X14563039Y-13800650D01*
X14563039Y-13800650D02*
X14543991Y-13772079D01*
X14543991Y-13772079D02*
X14534468Y-13753031D01*
X14534468Y-13753031D02*
X14524944Y-13724460D01*
X14524944Y-13724460D02*
X14515420Y-13676841D01*
X14515420Y-13676841D02*
X14515420Y-13638746D01*
X14515420Y-13638746D02*
X14524944Y-13591127D01*
X14524944Y-13591127D02*
X14534468Y-13562555D01*
X14534468Y-13562555D02*
X14543991Y-13543508D01*
X14543991Y-13543508D02*
X14563039Y-13514936D01*
X14563039Y-13514936D02*
X14572563Y-13505412D01*
X14629706Y-13533984D02*
X14753515Y-13533984D01*
X14753515Y-13533984D02*
X14686848Y-13610174D01*
X14686848Y-13610174D02*
X14715420Y-13610174D01*
X14715420Y-13610174D02*
X14734468Y-13619698D01*
X14734468Y-13619698D02*
X14743991Y-13629222D01*
X14743991Y-13629222D02*
X14753515Y-13648269D01*
X14753515Y-13648269D02*
X14753515Y-13695888D01*
X14753515Y-13695888D02*
X14743991Y-13714936D01*
X14743991Y-13714936D02*
X14734468Y-13724460D01*
X14734468Y-13724460D02*
X14715420Y-13733984D01*
X14715420Y-13733984D02*
X14658277Y-13733984D01*
X14658277Y-13733984D02*
X14639229Y-13724460D01*
X14639229Y-13724460D02*
X14629706Y-13714936D01*
X14877325Y-13533984D02*
X14896372Y-13533984D01*
X14896372Y-13533984D02*
X14915420Y-13543508D01*
X14915420Y-13543508D02*
X14924944Y-13553031D01*
X14924944Y-13553031D02*
X14934468Y-13572079D01*
X14934468Y-13572079D02*
X14943991Y-13610174D01*
X14943991Y-13610174D02*
X14943991Y-13657793D01*
X14943991Y-13657793D02*
X14934468Y-13695888D01*
X14934468Y-13695888D02*
X14924944Y-13714936D01*
X14924944Y-13714936D02*
X14915420Y-13724460D01*
X14915420Y-13724460D02*
X14896372Y-13733984D01*
X14896372Y-13733984D02*
X14877325Y-13733984D01*
X14877325Y-13733984D02*
X14858277Y-13724460D01*
X14858277Y-13724460D02*
X14848753Y-13714936D01*
X14848753Y-13714936D02*
X14839229Y-13695888D01*
X14839229Y-13695888D02*
X14829706Y-13657793D01*
X14829706Y-13657793D02*
X14829706Y-13610174D01*
X14829706Y-13610174D02*
X14839229Y-13572079D01*
X14839229Y-13572079D02*
X14848753Y-13553031D01*
X14848753Y-13553031D02*
X14858277Y-13543508D01*
X14858277Y-13543508D02*
X14877325Y-13533984D01*
X15115420Y-13533984D02*
X15077325Y-13533984D01*
X15077325Y-13533984D02*
X15058277Y-13543508D01*
X15058277Y-13543508D02*
X15048753Y-13553031D01*
X15048753Y-13553031D02*
X15029706Y-13581603D01*
X15029706Y-13581603D02*
X15020182Y-13619698D01*
X15020182Y-13619698D02*
X15020182Y-13695888D01*
X15020182Y-13695888D02*
X15029706Y-13714936D01*
X15029706Y-13714936D02*
X15039229Y-13724460D01*
X15039229Y-13724460D02*
X15058277Y-13733984D01*
X15058277Y-13733984D02*
X15096372Y-13733984D01*
X15096372Y-13733984D02*
X15115420Y-13724460D01*
X15115420Y-13724460D02*
X15124944Y-13714936D01*
X15124944Y-13714936D02*
X15134468Y-13695888D01*
X15134468Y-13695888D02*
X15134468Y-13648269D01*
X15134468Y-13648269D02*
X15124944Y-13629222D01*
X15124944Y-13629222D02*
X15115420Y-13619698D01*
X15115420Y-13619698D02*
X15096372Y-13610174D01*
X15096372Y-13610174D02*
X15058277Y-13610174D01*
X15058277Y-13610174D02*
X15039229Y-13619698D01*
X15039229Y-13619698D02*
X15029706Y-13629222D01*
X15029706Y-13629222D02*
X15020182Y-13648269D01*
X15372563Y-13733984D02*
X15372563Y-13533984D01*
X15458277Y-13733984D02*
X15458277Y-13629222D01*
X15458277Y-13629222D02*
X15448753Y-13610174D01*
X15448753Y-13610174D02*
X15429706Y-13600650D01*
X15429706Y-13600650D02*
X15401134Y-13600650D01*
X15401134Y-13600650D02*
X15382087Y-13610174D01*
X15382087Y-13610174D02*
X15372563Y-13619698D01*
X15582087Y-13733984D02*
X15563039Y-13724460D01*
X15563039Y-13724460D02*
X15553515Y-13714936D01*
X15553515Y-13714936D02*
X15543991Y-13695888D01*
X15543991Y-13695888D02*
X15543991Y-13638746D01*
X15543991Y-13638746D02*
X15553515Y-13619698D01*
X15553515Y-13619698D02*
X15563039Y-13610174D01*
X15563039Y-13610174D02*
X15582087Y-13600650D01*
X15582087Y-13600650D02*
X15610658Y-13600650D01*
X15610658Y-13600650D02*
X15629706Y-13610174D01*
X15629706Y-13610174D02*
X15639230Y-13619698D01*
X15639230Y-13619698D02*
X15648753Y-13638746D01*
X15648753Y-13638746D02*
X15648753Y-13695888D01*
X15648753Y-13695888D02*
X15639230Y-13714936D01*
X15639230Y-13714936D02*
X15629706Y-13724460D01*
X15629706Y-13724460D02*
X15610658Y-13733984D01*
X15610658Y-13733984D02*
X15582087Y-13733984D01*
X15763039Y-13733984D02*
X15743991Y-13724460D01*
X15743991Y-13724460D02*
X15734468Y-13705412D01*
X15734468Y-13705412D02*
X15734468Y-13533984D01*
X15915420Y-13724460D02*
X15896372Y-13733984D01*
X15896372Y-13733984D02*
X15858277Y-13733984D01*
X15858277Y-13733984D02*
X15839230Y-13724460D01*
X15839230Y-13724460D02*
X15829706Y-13705412D01*
X15829706Y-13705412D02*
X15829706Y-13629222D01*
X15829706Y-13629222D02*
X15839230Y-13610174D01*
X15839230Y-13610174D02*
X15858277Y-13600650D01*
X15858277Y-13600650D02*
X15896372Y-13600650D01*
X15896372Y-13600650D02*
X15915420Y-13610174D01*
X15915420Y-13610174D02*
X15924944Y-13629222D01*
X15924944Y-13629222D02*
X15924944Y-13648269D01*
X15924944Y-13648269D02*
X15829706Y-13667317D01*
X16001134Y-13724460D02*
X16020182Y-13733984D01*
X16020182Y-13733984D02*
X16058277Y-13733984D01*
X16058277Y-13733984D02*
X16077325Y-13724460D01*
X16077325Y-13724460D02*
X16086849Y-13705412D01*
X16086849Y-13705412D02*
X16086849Y-13695888D01*
X16086849Y-13695888D02*
X16077325Y-13676841D01*
X16077325Y-13676841D02*
X16058277Y-13667317D01*
X16058277Y-13667317D02*
X16029706Y-13667317D01*
X16029706Y-13667317D02*
X16010658Y-13657793D01*
X16010658Y-13657793D02*
X16001134Y-13638746D01*
X16001134Y-13638746D02*
X16001134Y-13629222D01*
X16001134Y-13629222D02*
X16010658Y-13610174D01*
X16010658Y-13610174D02*
X16029706Y-13600650D01*
X16029706Y-13600650D02*
X16058277Y-13600650D01*
X16058277Y-13600650D02*
X16077325Y-13610174D01*
X16153515Y-13810174D02*
X16163039Y-13800650D01*
X16163039Y-13800650D02*
X16182087Y-13772079D01*
X16182087Y-13772079D02*
X16191611Y-13753031D01*
X16191611Y-13753031D02*
X16201134Y-13724460D01*
X16201134Y-13724460D02*
X16210658Y-13676841D01*
X16210658Y-13676841D02*
X16210658Y-13638746D01*
X16210658Y-13638746D02*
X16201134Y-13591127D01*
X16201134Y-13591127D02*
X16191611Y-13562555D01*
X16191611Y-13562555D02*
X16182087Y-13543508D01*
X16182087Y-13543508D02*
X16163039Y-13514936D01*
X16163039Y-13514936D02*
X16153515Y-13505412D01*
D12*
X10997500Y-13906500D02*
G75*
G02*
X10937500Y-13906500I-30000J0D01*
G01*
X10937500Y-13906500D02*
G75*
G02*
X10997500Y-13906500I30000J0D01*
G01*
D11*
X11296372Y-13797984D02*
X11315420Y-13797984D01*
X11315420Y-13797984D02*
X11334467Y-13807508D01*
X11334467Y-13807508D02*
X11343991Y-13817031D01*
X11343991Y-13817031D02*
X11353515Y-13836079D01*
X11353515Y-13836079D02*
X11363039Y-13874174D01*
X11363039Y-13874174D02*
X11363039Y-13921793D01*
X11363039Y-13921793D02*
X11353515Y-13959888D01*
X11353515Y-13959888D02*
X11343991Y-13978936D01*
X11343991Y-13978936D02*
X11334467Y-13988460D01*
X11334467Y-13988460D02*
X11315420Y-13997984D01*
X11315420Y-13997984D02*
X11296372Y-13997984D01*
X11296372Y-13997984D02*
X11277324Y-13988460D01*
X11277324Y-13988460D02*
X11267801Y-13978936D01*
X11267801Y-13978936D02*
X11258277Y-13959888D01*
X11258277Y-13959888D02*
X11248753Y-13921793D01*
X11248753Y-13921793D02*
X11248753Y-13874174D01*
X11248753Y-13874174D02*
X11258277Y-13836079D01*
X11258277Y-13836079D02*
X11267801Y-13817031D01*
X11267801Y-13817031D02*
X11277324Y-13807508D01*
X11277324Y-13807508D02*
X11296372Y-13797984D01*
X11448753Y-13978936D02*
X11458277Y-13988460D01*
X11458277Y-13988460D02*
X11448753Y-13997984D01*
X11448753Y-13997984D02*
X11439229Y-13988460D01*
X11439229Y-13988460D02*
X11448753Y-13978936D01*
X11448753Y-13978936D02*
X11448753Y-13997984D01*
X11629705Y-13797984D02*
X11591610Y-13797984D01*
X11591610Y-13797984D02*
X11572562Y-13807508D01*
X11572562Y-13807508D02*
X11563039Y-13817031D01*
X11563039Y-13817031D02*
X11543991Y-13845603D01*
X11543991Y-13845603D02*
X11534467Y-13883698D01*
X11534467Y-13883698D02*
X11534467Y-13959888D01*
X11534467Y-13959888D02*
X11543991Y-13978936D01*
X11543991Y-13978936D02*
X11553515Y-13988460D01*
X11553515Y-13988460D02*
X11572562Y-13997984D01*
X11572562Y-13997984D02*
X11610658Y-13997984D01*
X11610658Y-13997984D02*
X11629705Y-13988460D01*
X11629705Y-13988460D02*
X11639229Y-13978936D01*
X11639229Y-13978936D02*
X11648753Y-13959888D01*
X11648753Y-13959888D02*
X11648753Y-13912269D01*
X11648753Y-13912269D02*
X11639229Y-13893222D01*
X11639229Y-13893222D02*
X11629705Y-13883698D01*
X11629705Y-13883698D02*
X11610658Y-13874174D01*
X11610658Y-13874174D02*
X11572562Y-13874174D01*
X11572562Y-13874174D02*
X11553515Y-13883698D01*
X11553515Y-13883698D02*
X11543991Y-13893222D01*
X11543991Y-13893222D02*
X11534467Y-13912269D01*
X11772562Y-13797984D02*
X11791610Y-13797984D01*
X11791610Y-13797984D02*
X11810658Y-13807508D01*
X11810658Y-13807508D02*
X11820182Y-13817031D01*
X11820182Y-13817031D02*
X11829705Y-13836079D01*
X11829705Y-13836079D02*
X11839229Y-13874174D01*
X11839229Y-13874174D02*
X11839229Y-13921793D01*
X11839229Y-13921793D02*
X11829705Y-13959888D01*
X11829705Y-13959888D02*
X11820182Y-13978936D01*
X11820182Y-13978936D02*
X11810658Y-13988460D01*
X11810658Y-13988460D02*
X11791610Y-13997984D01*
X11791610Y-13997984D02*
X11772562Y-13997984D01*
X11772562Y-13997984D02*
X11753515Y-13988460D01*
X11753515Y-13988460D02*
X11743991Y-13978936D01*
X11743991Y-13978936D02*
X11734467Y-13959888D01*
X11734467Y-13959888D02*
X11724943Y-13921793D01*
X11724943Y-13921793D02*
X11724943Y-13874174D01*
X11724943Y-13874174D02*
X11734467Y-13836079D01*
X11734467Y-13836079D02*
X11743991Y-13817031D01*
X11743991Y-13817031D02*
X11753515Y-13807508D01*
X11753515Y-13807508D02*
X11772562Y-13797984D01*
X11963039Y-13797984D02*
X11982086Y-13797984D01*
X11982086Y-13797984D02*
X12001134Y-13807508D01*
X12001134Y-13807508D02*
X12010658Y-13817031D01*
X12010658Y-13817031D02*
X12020182Y-13836079D01*
X12020182Y-13836079D02*
X12029705Y-13874174D01*
X12029705Y-13874174D02*
X12029705Y-13921793D01*
X12029705Y-13921793D02*
X12020182Y-13959888D01*
X12020182Y-13959888D02*
X12010658Y-13978936D01*
X12010658Y-13978936D02*
X12001134Y-13988460D01*
X12001134Y-13988460D02*
X11982086Y-13997984D01*
X11982086Y-13997984D02*
X11963039Y-13997984D01*
X11963039Y-13997984D02*
X11943991Y-13988460D01*
X11943991Y-13988460D02*
X11934467Y-13978936D01*
X11934467Y-13978936D02*
X11924943Y-13959888D01*
X11924943Y-13959888D02*
X11915420Y-13921793D01*
X11915420Y-13921793D02*
X11915420Y-13874174D01*
X11915420Y-13874174D02*
X11924943Y-13836079D01*
X11924943Y-13836079D02*
X11934467Y-13817031D01*
X11934467Y-13817031D02*
X11943991Y-13807508D01*
X11943991Y-13807508D02*
X11963039Y-13797984D01*
X12115420Y-13997984D02*
X12115420Y-13864650D01*
X12115420Y-13883698D02*
X12124943Y-13874174D01*
X12124943Y-13874174D02*
X12143991Y-13864650D01*
X12143991Y-13864650D02*
X12172563Y-13864650D01*
X12172563Y-13864650D02*
X12191610Y-13874174D01*
X12191610Y-13874174D02*
X12201134Y-13893222D01*
X12201134Y-13893222D02*
X12201134Y-13997984D01*
X12201134Y-13893222D02*
X12210658Y-13874174D01*
X12210658Y-13874174D02*
X12229705Y-13864650D01*
X12229705Y-13864650D02*
X12258277Y-13864650D01*
X12258277Y-13864650D02*
X12277324Y-13874174D01*
X12277324Y-13874174D02*
X12286848Y-13893222D01*
X12286848Y-13893222D02*
X12286848Y-13997984D01*
X12382086Y-13997984D02*
X12382086Y-13864650D01*
X12382086Y-13883698D02*
X12391610Y-13874174D01*
X12391610Y-13874174D02*
X12410658Y-13864650D01*
X12410658Y-13864650D02*
X12439229Y-13864650D01*
X12439229Y-13864650D02*
X12458277Y-13874174D01*
X12458277Y-13874174D02*
X12467801Y-13893222D01*
X12467801Y-13893222D02*
X12467801Y-13997984D01*
X12467801Y-13893222D02*
X12477324Y-13874174D01*
X12477324Y-13874174D02*
X12496372Y-13864650D01*
X12496372Y-13864650D02*
X12524943Y-13864650D01*
X12524943Y-13864650D02*
X12543991Y-13874174D01*
X12543991Y-13874174D02*
X12553515Y-13893222D01*
X12553515Y-13893222D02*
X12553515Y-13997984D01*
X12943991Y-13788460D02*
X12772563Y-14045603D01*
X13201134Y-13797984D02*
X13220182Y-13797984D01*
X13220182Y-13797984D02*
X13239229Y-13807508D01*
X13239229Y-13807508D02*
X13248753Y-13817031D01*
X13248753Y-13817031D02*
X13258277Y-13836079D01*
X13258277Y-13836079D02*
X13267801Y-13874174D01*
X13267801Y-13874174D02*
X13267801Y-13921793D01*
X13267801Y-13921793D02*
X13258277Y-13959888D01*
X13258277Y-13959888D02*
X13248753Y-13978936D01*
X13248753Y-13978936D02*
X13239229Y-13988460D01*
X13239229Y-13988460D02*
X13220182Y-13997984D01*
X13220182Y-13997984D02*
X13201134Y-13997984D01*
X13201134Y-13997984D02*
X13182086Y-13988460D01*
X13182086Y-13988460D02*
X13172563Y-13978936D01*
X13172563Y-13978936D02*
X13163039Y-13959888D01*
X13163039Y-13959888D02*
X13153515Y-13921793D01*
X13153515Y-13921793D02*
X13153515Y-13874174D01*
X13153515Y-13874174D02*
X13163039Y-13836079D01*
X13163039Y-13836079D02*
X13172563Y-13817031D01*
X13172563Y-13817031D02*
X13182086Y-13807508D01*
X13182086Y-13807508D02*
X13201134Y-13797984D01*
X13353515Y-13978936D02*
X13363039Y-13988460D01*
X13363039Y-13988460D02*
X13353515Y-13997984D01*
X13353515Y-13997984D02*
X13343991Y-13988460D01*
X13343991Y-13988460D02*
X13353515Y-13978936D01*
X13353515Y-13978936D02*
X13353515Y-13997984D01*
X13486848Y-13797984D02*
X13505896Y-13797984D01*
X13505896Y-13797984D02*
X13524944Y-13807508D01*
X13524944Y-13807508D02*
X13534467Y-13817031D01*
X13534467Y-13817031D02*
X13543991Y-13836079D01*
X13543991Y-13836079D02*
X13553515Y-13874174D01*
X13553515Y-13874174D02*
X13553515Y-13921793D01*
X13553515Y-13921793D02*
X13543991Y-13959888D01*
X13543991Y-13959888D02*
X13534467Y-13978936D01*
X13534467Y-13978936D02*
X13524944Y-13988460D01*
X13524944Y-13988460D02*
X13505896Y-13997984D01*
X13505896Y-13997984D02*
X13486848Y-13997984D01*
X13486848Y-13997984D02*
X13467801Y-13988460D01*
X13467801Y-13988460D02*
X13458277Y-13978936D01*
X13458277Y-13978936D02*
X13448753Y-13959888D01*
X13448753Y-13959888D02*
X13439229Y-13921793D01*
X13439229Y-13921793D02*
X13439229Y-13874174D01*
X13439229Y-13874174D02*
X13448753Y-13836079D01*
X13448753Y-13836079D02*
X13458277Y-13817031D01*
X13458277Y-13817031D02*
X13467801Y-13807508D01*
X13467801Y-13807508D02*
X13486848Y-13797984D01*
X13629706Y-13817031D02*
X13639229Y-13807508D01*
X13639229Y-13807508D02*
X13658277Y-13797984D01*
X13658277Y-13797984D02*
X13705896Y-13797984D01*
X13705896Y-13797984D02*
X13724944Y-13807508D01*
X13724944Y-13807508D02*
X13734467Y-13817031D01*
X13734467Y-13817031D02*
X13743991Y-13836079D01*
X13743991Y-13836079D02*
X13743991Y-13855127D01*
X13743991Y-13855127D02*
X13734467Y-13883698D01*
X13734467Y-13883698D02*
X13620182Y-13997984D01*
X13620182Y-13997984D02*
X13743991Y-13997984D01*
X13810658Y-13797984D02*
X13934467Y-13797984D01*
X13934467Y-13797984D02*
X13867801Y-13874174D01*
X13867801Y-13874174D02*
X13896372Y-13874174D01*
X13896372Y-13874174D02*
X13915420Y-13883698D01*
X13915420Y-13883698D02*
X13924944Y-13893222D01*
X13924944Y-13893222D02*
X13934467Y-13912269D01*
X13934467Y-13912269D02*
X13934467Y-13959888D01*
X13934467Y-13959888D02*
X13924944Y-13978936D01*
X13924944Y-13978936D02*
X13915420Y-13988460D01*
X13915420Y-13988460D02*
X13896372Y-13997984D01*
X13896372Y-13997984D02*
X13839229Y-13997984D01*
X13839229Y-13997984D02*
X13820182Y-13988460D01*
X13820182Y-13988460D02*
X13810658Y-13978936D01*
X14105896Y-13797984D02*
X14067801Y-13797984D01*
X14067801Y-13797984D02*
X14048753Y-13807508D01*
X14048753Y-13807508D02*
X14039229Y-13817031D01*
X14039229Y-13817031D02*
X14020182Y-13845603D01*
X14020182Y-13845603D02*
X14010658Y-13883698D01*
X14010658Y-13883698D02*
X14010658Y-13959888D01*
X14010658Y-13959888D02*
X14020182Y-13978936D01*
X14020182Y-13978936D02*
X14029706Y-13988460D01*
X14029706Y-13988460D02*
X14048753Y-13997984D01*
X14048753Y-13997984D02*
X14086848Y-13997984D01*
X14086848Y-13997984D02*
X14105896Y-13988460D01*
X14105896Y-13988460D02*
X14115420Y-13978936D01*
X14115420Y-13978936D02*
X14124944Y-13959888D01*
X14124944Y-13959888D02*
X14124944Y-13912269D01*
X14124944Y-13912269D02*
X14115420Y-13893222D01*
X14115420Y-13893222D02*
X14105896Y-13883698D01*
X14105896Y-13883698D02*
X14086848Y-13874174D01*
X14086848Y-13874174D02*
X14048753Y-13874174D01*
X14048753Y-13874174D02*
X14029706Y-13883698D01*
X14029706Y-13883698D02*
X14020182Y-13893222D01*
X14020182Y-13893222D02*
X14010658Y-13912269D01*
X14201134Y-13797984D02*
X14201134Y-13836079D01*
X14277325Y-13797984D02*
X14277325Y-13836079D01*
X14572563Y-14074174D02*
X14563039Y-14064650D01*
X14563039Y-14064650D02*
X14543991Y-14036079D01*
X14543991Y-14036079D02*
X14534468Y-14017031D01*
X14534468Y-14017031D02*
X14524944Y-13988460D01*
X14524944Y-13988460D02*
X14515420Y-13940841D01*
X14515420Y-13940841D02*
X14515420Y-13902746D01*
X14515420Y-13902746D02*
X14524944Y-13855127D01*
X14524944Y-13855127D02*
X14534468Y-13826555D01*
X14534468Y-13826555D02*
X14543991Y-13807508D01*
X14543991Y-13807508D02*
X14563039Y-13778936D01*
X14563039Y-13778936D02*
X14572563Y-13769412D01*
X14686848Y-13797984D02*
X14705896Y-13797984D01*
X14705896Y-13797984D02*
X14724944Y-13807508D01*
X14724944Y-13807508D02*
X14734468Y-13817031D01*
X14734468Y-13817031D02*
X14743991Y-13836079D01*
X14743991Y-13836079D02*
X14753515Y-13874174D01*
X14753515Y-13874174D02*
X14753515Y-13921793D01*
X14753515Y-13921793D02*
X14743991Y-13959888D01*
X14743991Y-13959888D02*
X14734468Y-13978936D01*
X14734468Y-13978936D02*
X14724944Y-13988460D01*
X14724944Y-13988460D02*
X14705896Y-13997984D01*
X14705896Y-13997984D02*
X14686848Y-13997984D01*
X14686848Y-13997984D02*
X14667801Y-13988460D01*
X14667801Y-13988460D02*
X14658277Y-13978936D01*
X14658277Y-13978936D02*
X14648753Y-13959888D01*
X14648753Y-13959888D02*
X14639229Y-13921793D01*
X14639229Y-13921793D02*
X14639229Y-13874174D01*
X14639229Y-13874174D02*
X14648753Y-13836079D01*
X14648753Y-13836079D02*
X14658277Y-13817031D01*
X14658277Y-13817031D02*
X14667801Y-13807508D01*
X14667801Y-13807508D02*
X14686848Y-13797984D01*
X14991610Y-13997984D02*
X14991610Y-13797984D01*
X15077325Y-13997984D02*
X15077325Y-13893222D01*
X15077325Y-13893222D02*
X15067801Y-13874174D01*
X15067801Y-13874174D02*
X15048753Y-13864650D01*
X15048753Y-13864650D02*
X15020182Y-13864650D01*
X15020182Y-13864650D02*
X15001134Y-13874174D01*
X15001134Y-13874174D02*
X14991610Y-13883698D01*
X15201134Y-13997984D02*
X15182087Y-13988460D01*
X15182087Y-13988460D02*
X15172563Y-13978936D01*
X15172563Y-13978936D02*
X15163039Y-13959888D01*
X15163039Y-13959888D02*
X15163039Y-13902746D01*
X15163039Y-13902746D02*
X15172563Y-13883698D01*
X15172563Y-13883698D02*
X15182087Y-13874174D01*
X15182087Y-13874174D02*
X15201134Y-13864650D01*
X15201134Y-13864650D02*
X15229706Y-13864650D01*
X15229706Y-13864650D02*
X15248753Y-13874174D01*
X15248753Y-13874174D02*
X15258277Y-13883698D01*
X15258277Y-13883698D02*
X15267801Y-13902746D01*
X15267801Y-13902746D02*
X15267801Y-13959888D01*
X15267801Y-13959888D02*
X15258277Y-13978936D01*
X15258277Y-13978936D02*
X15248753Y-13988460D01*
X15248753Y-13988460D02*
X15229706Y-13997984D01*
X15229706Y-13997984D02*
X15201134Y-13997984D01*
X15382087Y-13997984D02*
X15363039Y-13988460D01*
X15363039Y-13988460D02*
X15353515Y-13969412D01*
X15353515Y-13969412D02*
X15353515Y-13797984D01*
X15534468Y-13988460D02*
X15515420Y-13997984D01*
X15515420Y-13997984D02*
X15477325Y-13997984D01*
X15477325Y-13997984D02*
X15458277Y-13988460D01*
X15458277Y-13988460D02*
X15448753Y-13969412D01*
X15448753Y-13969412D02*
X15448753Y-13893222D01*
X15448753Y-13893222D02*
X15458277Y-13874174D01*
X15458277Y-13874174D02*
X15477325Y-13864650D01*
X15477325Y-13864650D02*
X15515420Y-13864650D01*
X15515420Y-13864650D02*
X15534468Y-13874174D01*
X15534468Y-13874174D02*
X15543991Y-13893222D01*
X15543991Y-13893222D02*
X15543991Y-13912269D01*
X15543991Y-13912269D02*
X15448753Y-13931317D01*
X15620182Y-13988460D02*
X15639230Y-13997984D01*
X15639230Y-13997984D02*
X15677325Y-13997984D01*
X15677325Y-13997984D02*
X15696372Y-13988460D01*
X15696372Y-13988460D02*
X15705896Y-13969412D01*
X15705896Y-13969412D02*
X15705896Y-13959888D01*
X15705896Y-13959888D02*
X15696372Y-13940841D01*
X15696372Y-13940841D02*
X15677325Y-13931317D01*
X15677325Y-13931317D02*
X15648753Y-13931317D01*
X15648753Y-13931317D02*
X15629706Y-13921793D01*
X15629706Y-13921793D02*
X15620182Y-13902746D01*
X15620182Y-13902746D02*
X15620182Y-13893222D01*
X15620182Y-13893222D02*
X15629706Y-13874174D01*
X15629706Y-13874174D02*
X15648753Y-13864650D01*
X15648753Y-13864650D02*
X15677325Y-13864650D01*
X15677325Y-13864650D02*
X15696372Y-13874174D01*
X15943992Y-13921793D02*
X16096373Y-13921793D01*
X16020182Y-13997984D02*
X16020182Y-13845603D01*
X16429706Y-13864650D02*
X16429706Y-13997984D01*
X16382087Y-13788460D02*
X16334468Y-13931317D01*
X16334468Y-13931317D02*
X16458277Y-13931317D01*
X16677325Y-13988460D02*
X16696373Y-13997984D01*
X16696373Y-13997984D02*
X16734468Y-13997984D01*
X16734468Y-13997984D02*
X16753515Y-13988460D01*
X16753515Y-13988460D02*
X16763039Y-13969412D01*
X16763039Y-13969412D02*
X16763039Y-13959888D01*
X16763039Y-13959888D02*
X16753515Y-13940841D01*
X16753515Y-13940841D02*
X16734468Y-13931317D01*
X16734468Y-13931317D02*
X16705896Y-13931317D01*
X16705896Y-13931317D02*
X16686849Y-13921793D01*
X16686849Y-13921793D02*
X16677325Y-13902746D01*
X16677325Y-13902746D02*
X16677325Y-13893222D01*
X16677325Y-13893222D02*
X16686849Y-13874174D01*
X16686849Y-13874174D02*
X16705896Y-13864650D01*
X16705896Y-13864650D02*
X16734468Y-13864650D01*
X16734468Y-13864650D02*
X16753515Y-13874174D01*
X16877325Y-13997984D02*
X16858277Y-13988460D01*
X16858277Y-13988460D02*
X16848754Y-13969412D01*
X16848754Y-13969412D02*
X16848754Y-13797984D01*
X16982087Y-13997984D02*
X16963039Y-13988460D01*
X16963039Y-13988460D02*
X16953516Y-13978936D01*
X16953516Y-13978936D02*
X16943992Y-13959888D01*
X16943992Y-13959888D02*
X16943992Y-13902746D01*
X16943992Y-13902746D02*
X16953516Y-13883698D01*
X16953516Y-13883698D02*
X16963039Y-13874174D01*
X16963039Y-13874174D02*
X16982087Y-13864650D01*
X16982087Y-13864650D02*
X17010658Y-13864650D01*
X17010658Y-13864650D02*
X17029706Y-13874174D01*
X17029706Y-13874174D02*
X17039230Y-13883698D01*
X17039230Y-13883698D02*
X17048754Y-13902746D01*
X17048754Y-13902746D02*
X17048754Y-13959888D01*
X17048754Y-13959888D02*
X17039230Y-13978936D01*
X17039230Y-13978936D02*
X17029706Y-13988460D01*
X17029706Y-13988460D02*
X17010658Y-13997984D01*
X17010658Y-13997984D02*
X16982087Y-13997984D01*
X17105897Y-13864650D02*
X17182087Y-13864650D01*
X17134468Y-13797984D02*
X17134468Y-13969412D01*
X17134468Y-13969412D02*
X17143992Y-13988460D01*
X17143992Y-13988460D02*
X17163039Y-13997984D01*
X17163039Y-13997984D02*
X17182087Y-13997984D01*
X17239230Y-13988460D02*
X17258277Y-13997984D01*
X17258277Y-13997984D02*
X17296373Y-13997984D01*
X17296373Y-13997984D02*
X17315420Y-13988460D01*
X17315420Y-13988460D02*
X17324944Y-13969412D01*
X17324944Y-13969412D02*
X17324944Y-13959888D01*
X17324944Y-13959888D02*
X17315420Y-13940841D01*
X17315420Y-13940841D02*
X17296373Y-13931317D01*
X17296373Y-13931317D02*
X17267801Y-13931317D01*
X17267801Y-13931317D02*
X17248754Y-13921793D01*
X17248754Y-13921793D02*
X17239230Y-13902746D01*
X17239230Y-13902746D02*
X17239230Y-13893222D01*
X17239230Y-13893222D02*
X17248754Y-13874174D01*
X17248754Y-13874174D02*
X17267801Y-13864650D01*
X17267801Y-13864650D02*
X17296373Y-13864650D01*
X17296373Y-13864650D02*
X17315420Y-13874174D01*
X17391611Y-14074174D02*
X17401135Y-14064650D01*
X17401135Y-14064650D02*
X17420182Y-14036079D01*
X17420182Y-14036079D02*
X17429706Y-14017031D01*
X17429706Y-14017031D02*
X17439230Y-13988460D01*
X17439230Y-13988460D02*
X17448754Y-13940841D01*
X17448754Y-13940841D02*
X17448754Y-13902746D01*
X17448754Y-13902746D02*
X17439230Y-13855127D01*
X17439230Y-13855127D02*
X17429706Y-13826555D01*
X17429706Y-13826555D02*
X17420182Y-13807508D01*
X17420182Y-13807508D02*
X17401135Y-13778936D01*
X17401135Y-13778936D02*
X17391611Y-13769412D01*
D12*
X10947500Y-14120500D02*
X10947500Y-14220500D01*
X10897500Y-14170500D02*
X10997500Y-14170500D01*
D11*
X11363039Y-14261984D02*
X11248753Y-14261984D01*
X11305896Y-14261984D02*
X11305896Y-14061984D01*
X11305896Y-14061984D02*
X11286848Y-14090555D01*
X11286848Y-14090555D02*
X11267801Y-14109603D01*
X11267801Y-14109603D02*
X11248753Y-14119127D01*
X11448753Y-14242936D02*
X11458277Y-14252460D01*
X11458277Y-14252460D02*
X11448753Y-14261984D01*
X11448753Y-14261984D02*
X11439229Y-14252460D01*
X11439229Y-14252460D02*
X11448753Y-14242936D01*
X11448753Y-14242936D02*
X11448753Y-14261984D01*
X11582086Y-14061984D02*
X11601134Y-14061984D01*
X11601134Y-14061984D02*
X11620182Y-14071508D01*
X11620182Y-14071508D02*
X11629705Y-14081031D01*
X11629705Y-14081031D02*
X11639229Y-14100079D01*
X11639229Y-14100079D02*
X11648753Y-14138174D01*
X11648753Y-14138174D02*
X11648753Y-14185793D01*
X11648753Y-14185793D02*
X11639229Y-14223888D01*
X11639229Y-14223888D02*
X11629705Y-14242936D01*
X11629705Y-14242936D02*
X11620182Y-14252460D01*
X11620182Y-14252460D02*
X11601134Y-14261984D01*
X11601134Y-14261984D02*
X11582086Y-14261984D01*
X11582086Y-14261984D02*
X11563039Y-14252460D01*
X11563039Y-14252460D02*
X11553515Y-14242936D01*
X11553515Y-14242936D02*
X11543991Y-14223888D01*
X11543991Y-14223888D02*
X11534467Y-14185793D01*
X11534467Y-14185793D02*
X11534467Y-14138174D01*
X11534467Y-14138174D02*
X11543991Y-14100079D01*
X11543991Y-14100079D02*
X11553515Y-14081031D01*
X11553515Y-14081031D02*
X11563039Y-14071508D01*
X11563039Y-14071508D02*
X11582086Y-14061984D01*
X11772562Y-14061984D02*
X11791610Y-14061984D01*
X11791610Y-14061984D02*
X11810658Y-14071508D01*
X11810658Y-14071508D02*
X11820182Y-14081031D01*
X11820182Y-14081031D02*
X11829705Y-14100079D01*
X11829705Y-14100079D02*
X11839229Y-14138174D01*
X11839229Y-14138174D02*
X11839229Y-14185793D01*
X11839229Y-14185793D02*
X11829705Y-14223888D01*
X11829705Y-14223888D02*
X11820182Y-14242936D01*
X11820182Y-14242936D02*
X11810658Y-14252460D01*
X11810658Y-14252460D02*
X11791610Y-14261984D01*
X11791610Y-14261984D02*
X11772562Y-14261984D01*
X11772562Y-14261984D02*
X11753515Y-14252460D01*
X11753515Y-14252460D02*
X11743991Y-14242936D01*
X11743991Y-14242936D02*
X11734467Y-14223888D01*
X11734467Y-14223888D02*
X11724943Y-14185793D01*
X11724943Y-14185793D02*
X11724943Y-14138174D01*
X11724943Y-14138174D02*
X11734467Y-14100079D01*
X11734467Y-14100079D02*
X11743991Y-14081031D01*
X11743991Y-14081031D02*
X11753515Y-14071508D01*
X11753515Y-14071508D02*
X11772562Y-14061984D01*
X11963039Y-14061984D02*
X11982086Y-14061984D01*
X11982086Y-14061984D02*
X12001134Y-14071508D01*
X12001134Y-14071508D02*
X12010658Y-14081031D01*
X12010658Y-14081031D02*
X12020182Y-14100079D01*
X12020182Y-14100079D02*
X12029705Y-14138174D01*
X12029705Y-14138174D02*
X12029705Y-14185793D01*
X12029705Y-14185793D02*
X12020182Y-14223888D01*
X12020182Y-14223888D02*
X12010658Y-14242936D01*
X12010658Y-14242936D02*
X12001134Y-14252460D01*
X12001134Y-14252460D02*
X11982086Y-14261984D01*
X11982086Y-14261984D02*
X11963039Y-14261984D01*
X11963039Y-14261984D02*
X11943991Y-14252460D01*
X11943991Y-14252460D02*
X11934467Y-14242936D01*
X11934467Y-14242936D02*
X11924943Y-14223888D01*
X11924943Y-14223888D02*
X11915420Y-14185793D01*
X11915420Y-14185793D02*
X11915420Y-14138174D01*
X11915420Y-14138174D02*
X11924943Y-14100079D01*
X11924943Y-14100079D02*
X11934467Y-14081031D01*
X11934467Y-14081031D02*
X11943991Y-14071508D01*
X11943991Y-14071508D02*
X11963039Y-14061984D01*
X12115420Y-14261984D02*
X12115420Y-14128650D01*
X12115420Y-14147698D02*
X12124943Y-14138174D01*
X12124943Y-14138174D02*
X12143991Y-14128650D01*
X12143991Y-14128650D02*
X12172563Y-14128650D01*
X12172563Y-14128650D02*
X12191610Y-14138174D01*
X12191610Y-14138174D02*
X12201134Y-14157222D01*
X12201134Y-14157222D02*
X12201134Y-14261984D01*
X12201134Y-14157222D02*
X12210658Y-14138174D01*
X12210658Y-14138174D02*
X12229705Y-14128650D01*
X12229705Y-14128650D02*
X12258277Y-14128650D01*
X12258277Y-14128650D02*
X12277324Y-14138174D01*
X12277324Y-14138174D02*
X12286848Y-14157222D01*
X12286848Y-14157222D02*
X12286848Y-14261984D01*
X12382086Y-14261984D02*
X12382086Y-14128650D01*
X12382086Y-14147698D02*
X12391610Y-14138174D01*
X12391610Y-14138174D02*
X12410658Y-14128650D01*
X12410658Y-14128650D02*
X12439229Y-14128650D01*
X12439229Y-14128650D02*
X12458277Y-14138174D01*
X12458277Y-14138174D02*
X12467801Y-14157222D01*
X12467801Y-14157222D02*
X12467801Y-14261984D01*
X12467801Y-14157222D02*
X12477324Y-14138174D01*
X12477324Y-14138174D02*
X12496372Y-14128650D01*
X12496372Y-14128650D02*
X12524943Y-14128650D01*
X12524943Y-14128650D02*
X12543991Y-14138174D01*
X12543991Y-14138174D02*
X12553515Y-14157222D01*
X12553515Y-14157222D02*
X12553515Y-14261984D01*
X12943991Y-14052460D02*
X12772563Y-14309603D01*
X13201134Y-14061984D02*
X13220182Y-14061984D01*
X13220182Y-14061984D02*
X13239229Y-14071508D01*
X13239229Y-14071508D02*
X13248753Y-14081031D01*
X13248753Y-14081031D02*
X13258277Y-14100079D01*
X13258277Y-14100079D02*
X13267801Y-14138174D01*
X13267801Y-14138174D02*
X13267801Y-14185793D01*
X13267801Y-14185793D02*
X13258277Y-14223888D01*
X13258277Y-14223888D02*
X13248753Y-14242936D01*
X13248753Y-14242936D02*
X13239229Y-14252460D01*
X13239229Y-14252460D02*
X13220182Y-14261984D01*
X13220182Y-14261984D02*
X13201134Y-14261984D01*
X13201134Y-14261984D02*
X13182086Y-14252460D01*
X13182086Y-14252460D02*
X13172563Y-14242936D01*
X13172563Y-14242936D02*
X13163039Y-14223888D01*
X13163039Y-14223888D02*
X13153515Y-14185793D01*
X13153515Y-14185793D02*
X13153515Y-14138174D01*
X13153515Y-14138174D02*
X13163039Y-14100079D01*
X13163039Y-14100079D02*
X13172563Y-14081031D01*
X13172563Y-14081031D02*
X13182086Y-14071508D01*
X13182086Y-14071508D02*
X13201134Y-14061984D01*
X13353515Y-14242936D02*
X13363039Y-14252460D01*
X13363039Y-14252460D02*
X13353515Y-14261984D01*
X13353515Y-14261984D02*
X13343991Y-14252460D01*
X13343991Y-14252460D02*
X13353515Y-14242936D01*
X13353515Y-14242936D02*
X13353515Y-14261984D01*
X13486848Y-14061984D02*
X13505896Y-14061984D01*
X13505896Y-14061984D02*
X13524944Y-14071508D01*
X13524944Y-14071508D02*
X13534467Y-14081031D01*
X13534467Y-14081031D02*
X13543991Y-14100079D01*
X13543991Y-14100079D02*
X13553515Y-14138174D01*
X13553515Y-14138174D02*
X13553515Y-14185793D01*
X13553515Y-14185793D02*
X13543991Y-14223888D01*
X13543991Y-14223888D02*
X13534467Y-14242936D01*
X13534467Y-14242936D02*
X13524944Y-14252460D01*
X13524944Y-14252460D02*
X13505896Y-14261984D01*
X13505896Y-14261984D02*
X13486848Y-14261984D01*
X13486848Y-14261984D02*
X13467801Y-14252460D01*
X13467801Y-14252460D02*
X13458277Y-14242936D01*
X13458277Y-14242936D02*
X13448753Y-14223888D01*
X13448753Y-14223888D02*
X13439229Y-14185793D01*
X13439229Y-14185793D02*
X13439229Y-14138174D01*
X13439229Y-14138174D02*
X13448753Y-14100079D01*
X13448753Y-14100079D02*
X13458277Y-14081031D01*
X13458277Y-14081031D02*
X13467801Y-14071508D01*
X13467801Y-14071508D02*
X13486848Y-14061984D01*
X13620182Y-14061984D02*
X13743991Y-14061984D01*
X13743991Y-14061984D02*
X13677325Y-14138174D01*
X13677325Y-14138174D02*
X13705896Y-14138174D01*
X13705896Y-14138174D02*
X13724944Y-14147698D01*
X13724944Y-14147698D02*
X13734467Y-14157222D01*
X13734467Y-14157222D02*
X13743991Y-14176269D01*
X13743991Y-14176269D02*
X13743991Y-14223888D01*
X13743991Y-14223888D02*
X13734467Y-14242936D01*
X13734467Y-14242936D02*
X13724944Y-14252460D01*
X13724944Y-14252460D02*
X13705896Y-14261984D01*
X13705896Y-14261984D02*
X13648753Y-14261984D01*
X13648753Y-14261984D02*
X13629706Y-14252460D01*
X13629706Y-14252460D02*
X13620182Y-14242936D01*
X13839229Y-14261984D02*
X13877325Y-14261984D01*
X13877325Y-14261984D02*
X13896372Y-14252460D01*
X13896372Y-14252460D02*
X13905896Y-14242936D01*
X13905896Y-14242936D02*
X13924944Y-14214365D01*
X13924944Y-14214365D02*
X13934467Y-14176269D01*
X13934467Y-14176269D02*
X13934467Y-14100079D01*
X13934467Y-14100079D02*
X13924944Y-14081031D01*
X13924944Y-14081031D02*
X13915420Y-14071508D01*
X13915420Y-14071508D02*
X13896372Y-14061984D01*
X13896372Y-14061984D02*
X13858277Y-14061984D01*
X13858277Y-14061984D02*
X13839229Y-14071508D01*
X13839229Y-14071508D02*
X13829706Y-14081031D01*
X13829706Y-14081031D02*
X13820182Y-14100079D01*
X13820182Y-14100079D02*
X13820182Y-14147698D01*
X13820182Y-14147698D02*
X13829706Y-14166746D01*
X13829706Y-14166746D02*
X13839229Y-14176269D01*
X13839229Y-14176269D02*
X13858277Y-14185793D01*
X13858277Y-14185793D02*
X13896372Y-14185793D01*
X13896372Y-14185793D02*
X13915420Y-14176269D01*
X13915420Y-14176269D02*
X13924944Y-14166746D01*
X13924944Y-14166746D02*
X13934467Y-14147698D01*
X14105896Y-14128650D02*
X14105896Y-14261984D01*
X14058277Y-14052460D02*
X14010658Y-14195317D01*
X14010658Y-14195317D02*
X14134467Y-14195317D01*
X14201134Y-14061984D02*
X14201134Y-14100079D01*
X14277325Y-14061984D02*
X14277325Y-14100079D01*
X14572563Y-14338174D02*
X14563039Y-14328650D01*
X14563039Y-14328650D02*
X14543991Y-14300079D01*
X14543991Y-14300079D02*
X14534468Y-14281031D01*
X14534468Y-14281031D02*
X14524944Y-14252460D01*
X14524944Y-14252460D02*
X14515420Y-14204841D01*
X14515420Y-14204841D02*
X14515420Y-14166746D01*
X14515420Y-14166746D02*
X14524944Y-14119127D01*
X14524944Y-14119127D02*
X14534468Y-14090555D01*
X14534468Y-14090555D02*
X14543991Y-14071508D01*
X14543991Y-14071508D02*
X14563039Y-14042936D01*
X14563039Y-14042936D02*
X14572563Y-14033412D01*
X14629706Y-14061984D02*
X14753515Y-14061984D01*
X14753515Y-14061984D02*
X14686848Y-14138174D01*
X14686848Y-14138174D02*
X14715420Y-14138174D01*
X14715420Y-14138174D02*
X14734468Y-14147698D01*
X14734468Y-14147698D02*
X14743991Y-14157222D01*
X14743991Y-14157222D02*
X14753515Y-14176269D01*
X14753515Y-14176269D02*
X14753515Y-14223888D01*
X14753515Y-14223888D02*
X14743991Y-14242936D01*
X14743991Y-14242936D02*
X14734468Y-14252460D01*
X14734468Y-14252460D02*
X14715420Y-14261984D01*
X14715420Y-14261984D02*
X14658277Y-14261984D01*
X14658277Y-14261984D02*
X14639229Y-14252460D01*
X14639229Y-14252460D02*
X14629706Y-14242936D01*
X14924944Y-14061984D02*
X14886848Y-14061984D01*
X14886848Y-14061984D02*
X14867801Y-14071508D01*
X14867801Y-14071508D02*
X14858277Y-14081031D01*
X14858277Y-14081031D02*
X14839229Y-14109603D01*
X14839229Y-14109603D02*
X14829706Y-14147698D01*
X14829706Y-14147698D02*
X14829706Y-14223888D01*
X14829706Y-14223888D02*
X14839229Y-14242936D01*
X14839229Y-14242936D02*
X14848753Y-14252460D01*
X14848753Y-14252460D02*
X14867801Y-14261984D01*
X14867801Y-14261984D02*
X14905896Y-14261984D01*
X14905896Y-14261984D02*
X14924944Y-14252460D01*
X14924944Y-14252460D02*
X14934468Y-14242936D01*
X14934468Y-14242936D02*
X14943991Y-14223888D01*
X14943991Y-14223888D02*
X14943991Y-14176269D01*
X14943991Y-14176269D02*
X14934468Y-14157222D01*
X14934468Y-14157222D02*
X14924944Y-14147698D01*
X14924944Y-14147698D02*
X14905896Y-14138174D01*
X14905896Y-14138174D02*
X14867801Y-14138174D01*
X14867801Y-14138174D02*
X14848753Y-14147698D01*
X14848753Y-14147698D02*
X14839229Y-14157222D01*
X14839229Y-14157222D02*
X14829706Y-14176269D01*
X15182087Y-14261984D02*
X15182087Y-14061984D01*
X15267801Y-14261984D02*
X15267801Y-14157222D01*
X15267801Y-14157222D02*
X15258277Y-14138174D01*
X15258277Y-14138174D02*
X15239230Y-14128650D01*
X15239230Y-14128650D02*
X15210658Y-14128650D01*
X15210658Y-14128650D02*
X15191610Y-14138174D01*
X15191610Y-14138174D02*
X15182087Y-14147698D01*
X15391610Y-14261984D02*
X15372563Y-14252460D01*
X15372563Y-14252460D02*
X15363039Y-14242936D01*
X15363039Y-14242936D02*
X15353515Y-14223888D01*
X15353515Y-14223888D02*
X15353515Y-14166746D01*
X15353515Y-14166746D02*
X15363039Y-14147698D01*
X15363039Y-14147698D02*
X15372563Y-14138174D01*
X15372563Y-14138174D02*
X15391610Y-14128650D01*
X15391610Y-14128650D02*
X15420182Y-14128650D01*
X15420182Y-14128650D02*
X15439230Y-14138174D01*
X15439230Y-14138174D02*
X15448753Y-14147698D01*
X15448753Y-14147698D02*
X15458277Y-14166746D01*
X15458277Y-14166746D02*
X15458277Y-14223888D01*
X15458277Y-14223888D02*
X15448753Y-14242936D01*
X15448753Y-14242936D02*
X15439230Y-14252460D01*
X15439230Y-14252460D02*
X15420182Y-14261984D01*
X15420182Y-14261984D02*
X15391610Y-14261984D01*
X15572563Y-14261984D02*
X15553515Y-14252460D01*
X15553515Y-14252460D02*
X15543991Y-14233412D01*
X15543991Y-14233412D02*
X15543991Y-14061984D01*
X15724944Y-14252460D02*
X15705896Y-14261984D01*
X15705896Y-14261984D02*
X15667801Y-14261984D01*
X15667801Y-14261984D02*
X15648753Y-14252460D01*
X15648753Y-14252460D02*
X15639230Y-14233412D01*
X15639230Y-14233412D02*
X15639230Y-14157222D01*
X15639230Y-14157222D02*
X15648753Y-14138174D01*
X15648753Y-14138174D02*
X15667801Y-14128650D01*
X15667801Y-14128650D02*
X15705896Y-14128650D01*
X15705896Y-14128650D02*
X15724944Y-14138174D01*
X15724944Y-14138174D02*
X15734468Y-14157222D01*
X15734468Y-14157222D02*
X15734468Y-14176269D01*
X15734468Y-14176269D02*
X15639230Y-14195317D01*
X15810658Y-14252460D02*
X15829706Y-14261984D01*
X15829706Y-14261984D02*
X15867801Y-14261984D01*
X15867801Y-14261984D02*
X15886849Y-14252460D01*
X15886849Y-14252460D02*
X15896372Y-14233412D01*
X15896372Y-14233412D02*
X15896372Y-14223888D01*
X15896372Y-14223888D02*
X15886849Y-14204841D01*
X15886849Y-14204841D02*
X15867801Y-14195317D01*
X15867801Y-14195317D02*
X15839230Y-14195317D01*
X15839230Y-14195317D02*
X15820182Y-14185793D01*
X15820182Y-14185793D02*
X15810658Y-14166746D01*
X15810658Y-14166746D02*
X15810658Y-14157222D01*
X15810658Y-14157222D02*
X15820182Y-14138174D01*
X15820182Y-14138174D02*
X15839230Y-14128650D01*
X15839230Y-14128650D02*
X15867801Y-14128650D01*
X15867801Y-14128650D02*
X15886849Y-14138174D01*
X15963039Y-14338174D02*
X15972563Y-14328650D01*
X15972563Y-14328650D02*
X15991611Y-14300079D01*
X15991611Y-14300079D02*
X16001134Y-14281031D01*
X16001134Y-14281031D02*
X16010658Y-14252460D01*
X16010658Y-14252460D02*
X16020182Y-14204841D01*
X16020182Y-14204841D02*
X16020182Y-14166746D01*
X16020182Y-14166746D02*
X16010658Y-14119127D01*
X16010658Y-14119127D02*
X16001134Y-14090555D01*
X16001134Y-14090555D02*
X15991611Y-14071508D01*
X15991611Y-14071508D02*
X15972563Y-14042936D01*
X15972563Y-14042936D02*
X15963039Y-14033412D01*
D13*
X10981391Y-14473391D02*
X10981391Y-14395609D01*
X10903609Y-14395609D01*
X10903609Y-14473391D01*
X10981391Y-14473391D01*
D11*
X11363039Y-14525984D02*
X11248753Y-14525984D01*
X11305896Y-14525984D02*
X11305896Y-14325984D01*
X11305896Y-14325984D02*
X11286848Y-14354555D01*
X11286848Y-14354555D02*
X11267801Y-14373603D01*
X11267801Y-14373603D02*
X11248753Y-14383127D01*
X11448753Y-14506936D02*
X11458277Y-14516460D01*
X11458277Y-14516460D02*
X11448753Y-14525984D01*
X11448753Y-14525984D02*
X11439229Y-14516460D01*
X11439229Y-14516460D02*
X11448753Y-14506936D01*
X11448753Y-14506936D02*
X11448753Y-14525984D01*
X11648753Y-14525984D02*
X11534467Y-14525984D01*
X11591610Y-14525984D02*
X11591610Y-14325984D01*
X11591610Y-14325984D02*
X11572562Y-14354555D01*
X11572562Y-14354555D02*
X11553515Y-14373603D01*
X11553515Y-14373603D02*
X11534467Y-14383127D01*
X11772562Y-14325984D02*
X11791610Y-14325984D01*
X11791610Y-14325984D02*
X11810658Y-14335508D01*
X11810658Y-14335508D02*
X11820182Y-14345031D01*
X11820182Y-14345031D02*
X11829705Y-14364079D01*
X11829705Y-14364079D02*
X11839229Y-14402174D01*
X11839229Y-14402174D02*
X11839229Y-14449793D01*
X11839229Y-14449793D02*
X11829705Y-14487888D01*
X11829705Y-14487888D02*
X11820182Y-14506936D01*
X11820182Y-14506936D02*
X11810658Y-14516460D01*
X11810658Y-14516460D02*
X11791610Y-14525984D01*
X11791610Y-14525984D02*
X11772562Y-14525984D01*
X11772562Y-14525984D02*
X11753515Y-14516460D01*
X11753515Y-14516460D02*
X11743991Y-14506936D01*
X11743991Y-14506936D02*
X11734467Y-14487888D01*
X11734467Y-14487888D02*
X11724943Y-14449793D01*
X11724943Y-14449793D02*
X11724943Y-14402174D01*
X11724943Y-14402174D02*
X11734467Y-14364079D01*
X11734467Y-14364079D02*
X11743991Y-14345031D01*
X11743991Y-14345031D02*
X11753515Y-14335508D01*
X11753515Y-14335508D02*
X11772562Y-14325984D01*
X11963039Y-14325984D02*
X11982086Y-14325984D01*
X11982086Y-14325984D02*
X12001134Y-14335508D01*
X12001134Y-14335508D02*
X12010658Y-14345031D01*
X12010658Y-14345031D02*
X12020182Y-14364079D01*
X12020182Y-14364079D02*
X12029705Y-14402174D01*
X12029705Y-14402174D02*
X12029705Y-14449793D01*
X12029705Y-14449793D02*
X12020182Y-14487888D01*
X12020182Y-14487888D02*
X12010658Y-14506936D01*
X12010658Y-14506936D02*
X12001134Y-14516460D01*
X12001134Y-14516460D02*
X11982086Y-14525984D01*
X11982086Y-14525984D02*
X11963039Y-14525984D01*
X11963039Y-14525984D02*
X11943991Y-14516460D01*
X11943991Y-14516460D02*
X11934467Y-14506936D01*
X11934467Y-14506936D02*
X11924943Y-14487888D01*
X11924943Y-14487888D02*
X11915420Y-14449793D01*
X11915420Y-14449793D02*
X11915420Y-14402174D01*
X11915420Y-14402174D02*
X11924943Y-14364079D01*
X11924943Y-14364079D02*
X11934467Y-14345031D01*
X11934467Y-14345031D02*
X11943991Y-14335508D01*
X11943991Y-14335508D02*
X11963039Y-14325984D01*
X12115420Y-14525984D02*
X12115420Y-14392650D01*
X12115420Y-14411698D02*
X12124943Y-14402174D01*
X12124943Y-14402174D02*
X12143991Y-14392650D01*
X12143991Y-14392650D02*
X12172563Y-14392650D01*
X12172563Y-14392650D02*
X12191610Y-14402174D01*
X12191610Y-14402174D02*
X12201134Y-14421222D01*
X12201134Y-14421222D02*
X12201134Y-14525984D01*
X12201134Y-14421222D02*
X12210658Y-14402174D01*
X12210658Y-14402174D02*
X12229705Y-14392650D01*
X12229705Y-14392650D02*
X12258277Y-14392650D01*
X12258277Y-14392650D02*
X12277324Y-14402174D01*
X12277324Y-14402174D02*
X12286848Y-14421222D01*
X12286848Y-14421222D02*
X12286848Y-14525984D01*
X12382086Y-14525984D02*
X12382086Y-14392650D01*
X12382086Y-14411698D02*
X12391610Y-14402174D01*
X12391610Y-14402174D02*
X12410658Y-14392650D01*
X12410658Y-14392650D02*
X12439229Y-14392650D01*
X12439229Y-14392650D02*
X12458277Y-14402174D01*
X12458277Y-14402174D02*
X12467801Y-14421222D01*
X12467801Y-14421222D02*
X12467801Y-14525984D01*
X12467801Y-14421222D02*
X12477324Y-14402174D01*
X12477324Y-14402174D02*
X12496372Y-14392650D01*
X12496372Y-14392650D02*
X12524943Y-14392650D01*
X12524943Y-14392650D02*
X12543991Y-14402174D01*
X12543991Y-14402174D02*
X12553515Y-14421222D01*
X12553515Y-14421222D02*
X12553515Y-14525984D01*
X12943991Y-14316460D02*
X12772563Y-14573603D01*
X13201134Y-14325984D02*
X13220182Y-14325984D01*
X13220182Y-14325984D02*
X13239229Y-14335508D01*
X13239229Y-14335508D02*
X13248753Y-14345031D01*
X13248753Y-14345031D02*
X13258277Y-14364079D01*
X13258277Y-14364079D02*
X13267801Y-14402174D01*
X13267801Y-14402174D02*
X13267801Y-14449793D01*
X13267801Y-14449793D02*
X13258277Y-14487888D01*
X13258277Y-14487888D02*
X13248753Y-14506936D01*
X13248753Y-14506936D02*
X13239229Y-14516460D01*
X13239229Y-14516460D02*
X13220182Y-14525984D01*
X13220182Y-14525984D02*
X13201134Y-14525984D01*
X13201134Y-14525984D02*
X13182086Y-14516460D01*
X13182086Y-14516460D02*
X13172563Y-14506936D01*
X13172563Y-14506936D02*
X13163039Y-14487888D01*
X13163039Y-14487888D02*
X13153515Y-14449793D01*
X13153515Y-14449793D02*
X13153515Y-14402174D01*
X13153515Y-14402174D02*
X13163039Y-14364079D01*
X13163039Y-14364079D02*
X13172563Y-14345031D01*
X13172563Y-14345031D02*
X13182086Y-14335508D01*
X13182086Y-14335508D02*
X13201134Y-14325984D01*
X13353515Y-14506936D02*
X13363039Y-14516460D01*
X13363039Y-14516460D02*
X13353515Y-14525984D01*
X13353515Y-14525984D02*
X13343991Y-14516460D01*
X13343991Y-14516460D02*
X13353515Y-14506936D01*
X13353515Y-14506936D02*
X13353515Y-14525984D01*
X13486848Y-14325984D02*
X13505896Y-14325984D01*
X13505896Y-14325984D02*
X13524944Y-14335508D01*
X13524944Y-14335508D02*
X13534467Y-14345031D01*
X13534467Y-14345031D02*
X13543991Y-14364079D01*
X13543991Y-14364079D02*
X13553515Y-14402174D01*
X13553515Y-14402174D02*
X13553515Y-14449793D01*
X13553515Y-14449793D02*
X13543991Y-14487888D01*
X13543991Y-14487888D02*
X13534467Y-14506936D01*
X13534467Y-14506936D02*
X13524944Y-14516460D01*
X13524944Y-14516460D02*
X13505896Y-14525984D01*
X13505896Y-14525984D02*
X13486848Y-14525984D01*
X13486848Y-14525984D02*
X13467801Y-14516460D01*
X13467801Y-14516460D02*
X13458277Y-14506936D01*
X13458277Y-14506936D02*
X13448753Y-14487888D01*
X13448753Y-14487888D02*
X13439229Y-14449793D01*
X13439229Y-14449793D02*
X13439229Y-14402174D01*
X13439229Y-14402174D02*
X13448753Y-14364079D01*
X13448753Y-14364079D02*
X13458277Y-14345031D01*
X13458277Y-14345031D02*
X13467801Y-14335508D01*
X13467801Y-14335508D02*
X13486848Y-14325984D01*
X13724944Y-14392650D02*
X13724944Y-14525984D01*
X13677325Y-14316460D02*
X13629706Y-14459317D01*
X13629706Y-14459317D02*
X13753515Y-14459317D01*
X13810658Y-14325984D02*
X13934467Y-14325984D01*
X13934467Y-14325984D02*
X13867801Y-14402174D01*
X13867801Y-14402174D02*
X13896372Y-14402174D01*
X13896372Y-14402174D02*
X13915420Y-14411698D01*
X13915420Y-14411698D02*
X13924944Y-14421222D01*
X13924944Y-14421222D02*
X13934467Y-14440269D01*
X13934467Y-14440269D02*
X13934467Y-14487888D01*
X13934467Y-14487888D02*
X13924944Y-14506936D01*
X13924944Y-14506936D02*
X13915420Y-14516460D01*
X13915420Y-14516460D02*
X13896372Y-14525984D01*
X13896372Y-14525984D02*
X13839229Y-14525984D01*
X13839229Y-14525984D02*
X13820182Y-14516460D01*
X13820182Y-14516460D02*
X13810658Y-14506936D01*
X14001134Y-14325984D02*
X14124944Y-14325984D01*
X14124944Y-14325984D02*
X14058277Y-14402174D01*
X14058277Y-14402174D02*
X14086848Y-14402174D01*
X14086848Y-14402174D02*
X14105896Y-14411698D01*
X14105896Y-14411698D02*
X14115420Y-14421222D01*
X14115420Y-14421222D02*
X14124944Y-14440269D01*
X14124944Y-14440269D02*
X14124944Y-14487888D01*
X14124944Y-14487888D02*
X14115420Y-14506936D01*
X14115420Y-14506936D02*
X14105896Y-14516460D01*
X14105896Y-14516460D02*
X14086848Y-14525984D01*
X14086848Y-14525984D02*
X14029706Y-14525984D01*
X14029706Y-14525984D02*
X14010658Y-14516460D01*
X14010658Y-14516460D02*
X14001134Y-14506936D01*
X14201134Y-14325984D02*
X14201134Y-14364079D01*
X14277325Y-14325984D02*
X14277325Y-14364079D01*
X14572563Y-14602174D02*
X14563039Y-14592650D01*
X14563039Y-14592650D02*
X14543991Y-14564079D01*
X14543991Y-14564079D02*
X14534468Y-14545031D01*
X14534468Y-14545031D02*
X14524944Y-14516460D01*
X14524944Y-14516460D02*
X14515420Y-14468841D01*
X14515420Y-14468841D02*
X14515420Y-14430746D01*
X14515420Y-14430746D02*
X14524944Y-14383127D01*
X14524944Y-14383127D02*
X14534468Y-14354555D01*
X14534468Y-14354555D02*
X14543991Y-14335508D01*
X14543991Y-14335508D02*
X14563039Y-14306936D01*
X14563039Y-14306936D02*
X14572563Y-14297412D01*
X14629706Y-14325984D02*
X14753515Y-14325984D01*
X14753515Y-14325984D02*
X14686848Y-14402174D01*
X14686848Y-14402174D02*
X14715420Y-14402174D01*
X14715420Y-14402174D02*
X14734468Y-14411698D01*
X14734468Y-14411698D02*
X14743991Y-14421222D01*
X14743991Y-14421222D02*
X14753515Y-14440269D01*
X14753515Y-14440269D02*
X14753515Y-14487888D01*
X14753515Y-14487888D02*
X14743991Y-14506936D01*
X14743991Y-14506936D02*
X14734468Y-14516460D01*
X14734468Y-14516460D02*
X14715420Y-14525984D01*
X14715420Y-14525984D02*
X14658277Y-14525984D01*
X14658277Y-14525984D02*
X14639229Y-14516460D01*
X14639229Y-14516460D02*
X14629706Y-14506936D01*
X14991610Y-14525984D02*
X14991610Y-14325984D01*
X15077325Y-14525984D02*
X15077325Y-14421222D01*
X15077325Y-14421222D02*
X15067801Y-14402174D01*
X15067801Y-14402174D02*
X15048753Y-14392650D01*
X15048753Y-14392650D02*
X15020182Y-14392650D01*
X15020182Y-14392650D02*
X15001134Y-14402174D01*
X15001134Y-14402174D02*
X14991610Y-14411698D01*
X15201134Y-14525984D02*
X15182087Y-14516460D01*
X15182087Y-14516460D02*
X15172563Y-14506936D01*
X15172563Y-14506936D02*
X15163039Y-14487888D01*
X15163039Y-14487888D02*
X15163039Y-14430746D01*
X15163039Y-14430746D02*
X15172563Y-14411698D01*
X15172563Y-14411698D02*
X15182087Y-14402174D01*
X15182087Y-14402174D02*
X15201134Y-14392650D01*
X15201134Y-14392650D02*
X15229706Y-14392650D01*
X15229706Y-14392650D02*
X15248753Y-14402174D01*
X15248753Y-14402174D02*
X15258277Y-14411698D01*
X15258277Y-14411698D02*
X15267801Y-14430746D01*
X15267801Y-14430746D02*
X15267801Y-14487888D01*
X15267801Y-14487888D02*
X15258277Y-14506936D01*
X15258277Y-14506936D02*
X15248753Y-14516460D01*
X15248753Y-14516460D02*
X15229706Y-14525984D01*
X15229706Y-14525984D02*
X15201134Y-14525984D01*
X15382087Y-14525984D02*
X15363039Y-14516460D01*
X15363039Y-14516460D02*
X15353515Y-14497412D01*
X15353515Y-14497412D02*
X15353515Y-14325984D01*
X15534468Y-14516460D02*
X15515420Y-14525984D01*
X15515420Y-14525984D02*
X15477325Y-14525984D01*
X15477325Y-14525984D02*
X15458277Y-14516460D01*
X15458277Y-14516460D02*
X15448753Y-14497412D01*
X15448753Y-14497412D02*
X15448753Y-14421222D01*
X15448753Y-14421222D02*
X15458277Y-14402174D01*
X15458277Y-14402174D02*
X15477325Y-14392650D01*
X15477325Y-14392650D02*
X15515420Y-14392650D01*
X15515420Y-14392650D02*
X15534468Y-14402174D01*
X15534468Y-14402174D02*
X15543991Y-14421222D01*
X15543991Y-14421222D02*
X15543991Y-14440269D01*
X15543991Y-14440269D02*
X15448753Y-14459317D01*
X15620182Y-14516460D02*
X15639230Y-14525984D01*
X15639230Y-14525984D02*
X15677325Y-14525984D01*
X15677325Y-14525984D02*
X15696372Y-14516460D01*
X15696372Y-14516460D02*
X15705896Y-14497412D01*
X15705896Y-14497412D02*
X15705896Y-14487888D01*
X15705896Y-14487888D02*
X15696372Y-14468841D01*
X15696372Y-14468841D02*
X15677325Y-14459317D01*
X15677325Y-14459317D02*
X15648753Y-14459317D01*
X15648753Y-14459317D02*
X15629706Y-14449793D01*
X15629706Y-14449793D02*
X15620182Y-14430746D01*
X15620182Y-14430746D02*
X15620182Y-14421222D01*
X15620182Y-14421222D02*
X15629706Y-14402174D01*
X15629706Y-14402174D02*
X15648753Y-14392650D01*
X15648753Y-14392650D02*
X15677325Y-14392650D01*
X15677325Y-14392650D02*
X15696372Y-14402174D01*
X15772563Y-14602174D02*
X15782087Y-14592650D01*
X15782087Y-14592650D02*
X15801134Y-14564079D01*
X15801134Y-14564079D02*
X15810658Y-14545031D01*
X15810658Y-14545031D02*
X15820182Y-14516460D01*
X15820182Y-14516460D02*
X15829706Y-14468841D01*
X15829706Y-14468841D02*
X15829706Y-14430746D01*
X15829706Y-14430746D02*
X15820182Y-14383127D01*
X15820182Y-14383127D02*
X15810658Y-14354555D01*
X15810658Y-14354555D02*
X15801134Y-14335508D01*
X15801134Y-14335508D02*
X15782087Y-14306936D01*
X15782087Y-14306936D02*
X15772563Y-14297412D01*
X10897500Y-14798500D02*
X10997500Y-14698500D01*
X10897500Y-14598500D01*
X10797500Y-14698500D01*
X10897500Y-14798500D01*
X11239229Y-14589984D02*
X11363039Y-14589984D01*
X11363039Y-14589984D02*
X11296372Y-14666174D01*
X11296372Y-14666174D02*
X11324943Y-14666174D01*
X11324943Y-14666174D02*
X11343991Y-14675698D01*
X11343991Y-14675698D02*
X11353515Y-14685222D01*
X11353515Y-14685222D02*
X11363039Y-14704269D01*
X11363039Y-14704269D02*
X11363039Y-14751888D01*
X11363039Y-14751888D02*
X11353515Y-14770936D01*
X11353515Y-14770936D02*
X11343991Y-14780460D01*
X11343991Y-14780460D02*
X11324943Y-14789984D01*
X11324943Y-14789984D02*
X11267801Y-14789984D01*
X11267801Y-14789984D02*
X11248753Y-14780460D01*
X11248753Y-14780460D02*
X11239229Y-14770936D01*
X11448753Y-14770936D02*
X11458277Y-14780460D01*
X11458277Y-14780460D02*
X11448753Y-14789984D01*
X11448753Y-14789984D02*
X11439229Y-14780460D01*
X11439229Y-14780460D02*
X11448753Y-14770936D01*
X11448753Y-14770936D02*
X11448753Y-14789984D01*
X11534467Y-14609031D02*
X11543991Y-14599508D01*
X11543991Y-14599508D02*
X11563039Y-14589984D01*
X11563039Y-14589984D02*
X11610658Y-14589984D01*
X11610658Y-14589984D02*
X11629705Y-14599508D01*
X11629705Y-14599508D02*
X11639229Y-14609031D01*
X11639229Y-14609031D02*
X11648753Y-14628079D01*
X11648753Y-14628079D02*
X11648753Y-14647127D01*
X11648753Y-14647127D02*
X11639229Y-14675698D01*
X11639229Y-14675698D02*
X11524943Y-14789984D01*
X11524943Y-14789984D02*
X11648753Y-14789984D01*
X11772562Y-14589984D02*
X11791610Y-14589984D01*
X11791610Y-14589984D02*
X11810658Y-14599508D01*
X11810658Y-14599508D02*
X11820182Y-14609031D01*
X11820182Y-14609031D02*
X11829705Y-14628079D01*
X11829705Y-14628079D02*
X11839229Y-14666174D01*
X11839229Y-14666174D02*
X11839229Y-14713793D01*
X11839229Y-14713793D02*
X11829705Y-14751888D01*
X11829705Y-14751888D02*
X11820182Y-14770936D01*
X11820182Y-14770936D02*
X11810658Y-14780460D01*
X11810658Y-14780460D02*
X11791610Y-14789984D01*
X11791610Y-14789984D02*
X11772562Y-14789984D01*
X11772562Y-14789984D02*
X11753515Y-14780460D01*
X11753515Y-14780460D02*
X11743991Y-14770936D01*
X11743991Y-14770936D02*
X11734467Y-14751888D01*
X11734467Y-14751888D02*
X11724943Y-14713793D01*
X11724943Y-14713793D02*
X11724943Y-14666174D01*
X11724943Y-14666174D02*
X11734467Y-14628079D01*
X11734467Y-14628079D02*
X11743991Y-14609031D01*
X11743991Y-14609031D02*
X11753515Y-14599508D01*
X11753515Y-14599508D02*
X11772562Y-14589984D01*
X11963039Y-14589984D02*
X11982086Y-14589984D01*
X11982086Y-14589984D02*
X12001134Y-14599508D01*
X12001134Y-14599508D02*
X12010658Y-14609031D01*
X12010658Y-14609031D02*
X12020182Y-14628079D01*
X12020182Y-14628079D02*
X12029705Y-14666174D01*
X12029705Y-14666174D02*
X12029705Y-14713793D01*
X12029705Y-14713793D02*
X12020182Y-14751888D01*
X12020182Y-14751888D02*
X12010658Y-14770936D01*
X12010658Y-14770936D02*
X12001134Y-14780460D01*
X12001134Y-14780460D02*
X11982086Y-14789984D01*
X11982086Y-14789984D02*
X11963039Y-14789984D01*
X11963039Y-14789984D02*
X11943991Y-14780460D01*
X11943991Y-14780460D02*
X11934467Y-14770936D01*
X11934467Y-14770936D02*
X11924943Y-14751888D01*
X11924943Y-14751888D02*
X11915420Y-14713793D01*
X11915420Y-14713793D02*
X11915420Y-14666174D01*
X11915420Y-14666174D02*
X11924943Y-14628079D01*
X11924943Y-14628079D02*
X11934467Y-14609031D01*
X11934467Y-14609031D02*
X11943991Y-14599508D01*
X11943991Y-14599508D02*
X11963039Y-14589984D01*
X12115420Y-14789984D02*
X12115420Y-14656650D01*
X12115420Y-14675698D02*
X12124943Y-14666174D01*
X12124943Y-14666174D02*
X12143991Y-14656650D01*
X12143991Y-14656650D02*
X12172563Y-14656650D01*
X12172563Y-14656650D02*
X12191610Y-14666174D01*
X12191610Y-14666174D02*
X12201134Y-14685222D01*
X12201134Y-14685222D02*
X12201134Y-14789984D01*
X12201134Y-14685222D02*
X12210658Y-14666174D01*
X12210658Y-14666174D02*
X12229705Y-14656650D01*
X12229705Y-14656650D02*
X12258277Y-14656650D01*
X12258277Y-14656650D02*
X12277324Y-14666174D01*
X12277324Y-14666174D02*
X12286848Y-14685222D01*
X12286848Y-14685222D02*
X12286848Y-14789984D01*
X12382086Y-14789984D02*
X12382086Y-14656650D01*
X12382086Y-14675698D02*
X12391610Y-14666174D01*
X12391610Y-14666174D02*
X12410658Y-14656650D01*
X12410658Y-14656650D02*
X12439229Y-14656650D01*
X12439229Y-14656650D02*
X12458277Y-14666174D01*
X12458277Y-14666174D02*
X12467801Y-14685222D01*
X12467801Y-14685222D02*
X12467801Y-14789984D01*
X12467801Y-14685222D02*
X12477324Y-14666174D01*
X12477324Y-14666174D02*
X12496372Y-14656650D01*
X12496372Y-14656650D02*
X12524943Y-14656650D01*
X12524943Y-14656650D02*
X12543991Y-14666174D01*
X12543991Y-14666174D02*
X12553515Y-14685222D01*
X12553515Y-14685222D02*
X12553515Y-14789984D01*
X12943991Y-14580460D02*
X12772563Y-14837603D01*
X13201134Y-14589984D02*
X13220182Y-14589984D01*
X13220182Y-14589984D02*
X13239229Y-14599508D01*
X13239229Y-14599508D02*
X13248753Y-14609031D01*
X13248753Y-14609031D02*
X13258277Y-14628079D01*
X13258277Y-14628079D02*
X13267801Y-14666174D01*
X13267801Y-14666174D02*
X13267801Y-14713793D01*
X13267801Y-14713793D02*
X13258277Y-14751888D01*
X13258277Y-14751888D02*
X13248753Y-14770936D01*
X13248753Y-14770936D02*
X13239229Y-14780460D01*
X13239229Y-14780460D02*
X13220182Y-14789984D01*
X13220182Y-14789984D02*
X13201134Y-14789984D01*
X13201134Y-14789984D02*
X13182086Y-14780460D01*
X13182086Y-14780460D02*
X13172563Y-14770936D01*
X13172563Y-14770936D02*
X13163039Y-14751888D01*
X13163039Y-14751888D02*
X13153515Y-14713793D01*
X13153515Y-14713793D02*
X13153515Y-14666174D01*
X13153515Y-14666174D02*
X13163039Y-14628079D01*
X13163039Y-14628079D02*
X13172563Y-14609031D01*
X13172563Y-14609031D02*
X13182086Y-14599508D01*
X13182086Y-14599508D02*
X13201134Y-14589984D01*
X13353515Y-14770936D02*
X13363039Y-14780460D01*
X13363039Y-14780460D02*
X13353515Y-14789984D01*
X13353515Y-14789984D02*
X13343991Y-14780460D01*
X13343991Y-14780460D02*
X13353515Y-14770936D01*
X13353515Y-14770936D02*
X13353515Y-14789984D01*
X13553515Y-14789984D02*
X13439229Y-14789984D01*
X13496372Y-14789984D02*
X13496372Y-14589984D01*
X13496372Y-14589984D02*
X13477325Y-14618555D01*
X13477325Y-14618555D02*
X13458277Y-14637603D01*
X13458277Y-14637603D02*
X13439229Y-14647127D01*
X13629706Y-14609031D02*
X13639229Y-14599508D01*
X13639229Y-14599508D02*
X13658277Y-14589984D01*
X13658277Y-14589984D02*
X13705896Y-14589984D01*
X13705896Y-14589984D02*
X13724944Y-14599508D01*
X13724944Y-14599508D02*
X13734467Y-14609031D01*
X13734467Y-14609031D02*
X13743991Y-14628079D01*
X13743991Y-14628079D02*
X13743991Y-14647127D01*
X13743991Y-14647127D02*
X13734467Y-14675698D01*
X13734467Y-14675698D02*
X13620182Y-14789984D01*
X13620182Y-14789984D02*
X13743991Y-14789984D01*
X13915420Y-14589984D02*
X13877325Y-14589984D01*
X13877325Y-14589984D02*
X13858277Y-14599508D01*
X13858277Y-14599508D02*
X13848753Y-14609031D01*
X13848753Y-14609031D02*
X13829706Y-14637603D01*
X13829706Y-14637603D02*
X13820182Y-14675698D01*
X13820182Y-14675698D02*
X13820182Y-14751888D01*
X13820182Y-14751888D02*
X13829706Y-14770936D01*
X13829706Y-14770936D02*
X13839229Y-14780460D01*
X13839229Y-14780460D02*
X13858277Y-14789984D01*
X13858277Y-14789984D02*
X13896372Y-14789984D01*
X13896372Y-14789984D02*
X13915420Y-14780460D01*
X13915420Y-14780460D02*
X13924944Y-14770936D01*
X13924944Y-14770936D02*
X13934467Y-14751888D01*
X13934467Y-14751888D02*
X13934467Y-14704269D01*
X13934467Y-14704269D02*
X13924944Y-14685222D01*
X13924944Y-14685222D02*
X13915420Y-14675698D01*
X13915420Y-14675698D02*
X13896372Y-14666174D01*
X13896372Y-14666174D02*
X13858277Y-14666174D01*
X13858277Y-14666174D02*
X13839229Y-14675698D01*
X13839229Y-14675698D02*
X13829706Y-14685222D01*
X13829706Y-14685222D02*
X13820182Y-14704269D01*
X14058277Y-14589984D02*
X14077325Y-14589984D01*
X14077325Y-14589984D02*
X14096372Y-14599508D01*
X14096372Y-14599508D02*
X14105896Y-14609031D01*
X14105896Y-14609031D02*
X14115420Y-14628079D01*
X14115420Y-14628079D02*
X14124944Y-14666174D01*
X14124944Y-14666174D02*
X14124944Y-14713793D01*
X14124944Y-14713793D02*
X14115420Y-14751888D01*
X14115420Y-14751888D02*
X14105896Y-14770936D01*
X14105896Y-14770936D02*
X14096372Y-14780460D01*
X14096372Y-14780460D02*
X14077325Y-14789984D01*
X14077325Y-14789984D02*
X14058277Y-14789984D01*
X14058277Y-14789984D02*
X14039229Y-14780460D01*
X14039229Y-14780460D02*
X14029706Y-14770936D01*
X14029706Y-14770936D02*
X14020182Y-14751888D01*
X14020182Y-14751888D02*
X14010658Y-14713793D01*
X14010658Y-14713793D02*
X14010658Y-14666174D01*
X14010658Y-14666174D02*
X14020182Y-14628079D01*
X14020182Y-14628079D02*
X14029706Y-14609031D01*
X14029706Y-14609031D02*
X14039229Y-14599508D01*
X14039229Y-14599508D02*
X14058277Y-14589984D01*
X14201134Y-14589984D02*
X14201134Y-14628079D01*
X14277325Y-14589984D02*
X14277325Y-14628079D01*
X14572563Y-14866174D02*
X14563039Y-14856650D01*
X14563039Y-14856650D02*
X14543991Y-14828079D01*
X14543991Y-14828079D02*
X14534468Y-14809031D01*
X14534468Y-14809031D02*
X14524944Y-14780460D01*
X14524944Y-14780460D02*
X14515420Y-14732841D01*
X14515420Y-14732841D02*
X14515420Y-14694746D01*
X14515420Y-14694746D02*
X14524944Y-14647127D01*
X14524944Y-14647127D02*
X14534468Y-14618555D01*
X14534468Y-14618555D02*
X14543991Y-14599508D01*
X14543991Y-14599508D02*
X14563039Y-14570936D01*
X14563039Y-14570936D02*
X14572563Y-14561412D01*
X14734468Y-14656650D02*
X14734468Y-14789984D01*
X14686848Y-14580460D02*
X14639229Y-14723317D01*
X14639229Y-14723317D02*
X14763039Y-14723317D01*
X14991610Y-14789984D02*
X14991610Y-14589984D01*
X15077325Y-14789984D02*
X15077325Y-14685222D01*
X15077325Y-14685222D02*
X15067801Y-14666174D01*
X15067801Y-14666174D02*
X15048753Y-14656650D01*
X15048753Y-14656650D02*
X15020182Y-14656650D01*
X15020182Y-14656650D02*
X15001134Y-14666174D01*
X15001134Y-14666174D02*
X14991610Y-14675698D01*
X15201134Y-14789984D02*
X15182087Y-14780460D01*
X15182087Y-14780460D02*
X15172563Y-14770936D01*
X15172563Y-14770936D02*
X15163039Y-14751888D01*
X15163039Y-14751888D02*
X15163039Y-14694746D01*
X15163039Y-14694746D02*
X15172563Y-14675698D01*
X15172563Y-14675698D02*
X15182087Y-14666174D01*
X15182087Y-14666174D02*
X15201134Y-14656650D01*
X15201134Y-14656650D02*
X15229706Y-14656650D01*
X15229706Y-14656650D02*
X15248753Y-14666174D01*
X15248753Y-14666174D02*
X15258277Y-14675698D01*
X15258277Y-14675698D02*
X15267801Y-14694746D01*
X15267801Y-14694746D02*
X15267801Y-14751888D01*
X15267801Y-14751888D02*
X15258277Y-14770936D01*
X15258277Y-14770936D02*
X15248753Y-14780460D01*
X15248753Y-14780460D02*
X15229706Y-14789984D01*
X15229706Y-14789984D02*
X15201134Y-14789984D01*
X15382087Y-14789984D02*
X15363039Y-14780460D01*
X15363039Y-14780460D02*
X15353515Y-14761412D01*
X15353515Y-14761412D02*
X15353515Y-14589984D01*
X15534468Y-14780460D02*
X15515420Y-14789984D01*
X15515420Y-14789984D02*
X15477325Y-14789984D01*
X15477325Y-14789984D02*
X15458277Y-14780460D01*
X15458277Y-14780460D02*
X15448753Y-14761412D01*
X15448753Y-14761412D02*
X15448753Y-14685222D01*
X15448753Y-14685222D02*
X15458277Y-14666174D01*
X15458277Y-14666174D02*
X15477325Y-14656650D01*
X15477325Y-14656650D02*
X15515420Y-14656650D01*
X15515420Y-14656650D02*
X15534468Y-14666174D01*
X15534468Y-14666174D02*
X15543991Y-14685222D01*
X15543991Y-14685222D02*
X15543991Y-14704269D01*
X15543991Y-14704269D02*
X15448753Y-14723317D01*
X15620182Y-14780460D02*
X15639230Y-14789984D01*
X15639230Y-14789984D02*
X15677325Y-14789984D01*
X15677325Y-14789984D02*
X15696372Y-14780460D01*
X15696372Y-14780460D02*
X15705896Y-14761412D01*
X15705896Y-14761412D02*
X15705896Y-14751888D01*
X15705896Y-14751888D02*
X15696372Y-14732841D01*
X15696372Y-14732841D02*
X15677325Y-14723317D01*
X15677325Y-14723317D02*
X15648753Y-14723317D01*
X15648753Y-14723317D02*
X15629706Y-14713793D01*
X15629706Y-14713793D02*
X15620182Y-14694746D01*
X15620182Y-14694746D02*
X15620182Y-14685222D01*
X15620182Y-14685222D02*
X15629706Y-14666174D01*
X15629706Y-14666174D02*
X15648753Y-14656650D01*
X15648753Y-14656650D02*
X15677325Y-14656650D01*
X15677325Y-14656650D02*
X15696372Y-14666174D01*
X15772563Y-14866174D02*
X15782087Y-14856650D01*
X15782087Y-14856650D02*
X15801134Y-14828079D01*
X15801134Y-14828079D02*
X15810658Y-14809031D01*
X15810658Y-14809031D02*
X15820182Y-14780460D01*
X15820182Y-14780460D02*
X15829706Y-14732841D01*
X15829706Y-14732841D02*
X15829706Y-14694746D01*
X15829706Y-14694746D02*
X15820182Y-14647127D01*
X15820182Y-14647127D02*
X15810658Y-14618555D01*
X15810658Y-14618555D02*
X15801134Y-14599508D01*
X15801134Y-14599508D02*
X15782087Y-14570936D01*
X15782087Y-14570936D02*
X15772563Y-14561412D01*
M02*
