%TF.GenerationSoftware,KiCad,Pcbnew,8.0.6*%
%TF.CreationDate,2026-01-19T16:17:59-08:00*%
%TF.ProjectId,Bluetooth_Board,426c7565-746f-46f7-9468-5f426f617264,B*%
%TF.SameCoordinates,Original*%
%TF.FileFunction,Drillmap*%
%TF.FilePolarity,Positive*%
%FSLAX45Y45*%
G04 Gerber Fmt 4.5, Leading zero omitted, Abs format (unit mm)*
G04 Created by KiCad (PCBNEW 8.0.6) date 2026-01-19 16:17:59*
%MOMM*%
%LPD*%
G01*
G04 APERTURE LIST*
%ADD10C,0.050000*%
%ADD11C,0.200000*%
%ADD12C,0.100000*%
G04 APERTURE END LIST*
D10*
X11320000Y-13000000D02*
G75*
G02*
X11000000Y-12680000I0J320000D01*
G01*
X21000000Y-12680000D02*
G75*
G02*
X20680000Y-13000000I-320000J0D01*
G01*
X20680000Y-13000000D02*
X11320000Y-13000000D01*
X11000000Y-8320000D02*
X11000000Y-12680000D01*
X21000000Y-12680000D02*
X21000000Y-8320000D01*
X20680000Y-8000000D02*
G75*
G02*
X21000000Y-8320000I0J-320000D01*
G01*
X11000000Y-8320000D02*
G75*
G02*
X11320000Y-8000000I320000J0D01*
G01*
X20680000Y-8000000D02*
X11320000Y-8000000D01*
D11*
D12*
X11592500Y-11246500D02*
X11657500Y-11311500D01*
X11657500Y-11246500D02*
X11592500Y-11311500D01*
X11592500Y-11824500D02*
X11657500Y-11889500D01*
X11657500Y-11824500D02*
X11592500Y-11889500D01*
D11*
X11258277Y-13313984D02*
X11258277Y-13113984D01*
X11258277Y-13113984D02*
X11305896Y-13113984D01*
X11305896Y-13113984D02*
X11334467Y-13123508D01*
X11334467Y-13123508D02*
X11353515Y-13142555D01*
X11353515Y-13142555D02*
X11363039Y-13161603D01*
X11363039Y-13161603D02*
X11372562Y-13199698D01*
X11372562Y-13199698D02*
X11372562Y-13228269D01*
X11372562Y-13228269D02*
X11363039Y-13266365D01*
X11363039Y-13266365D02*
X11353515Y-13285412D01*
X11353515Y-13285412D02*
X11334467Y-13304460D01*
X11334467Y-13304460D02*
X11305896Y-13313984D01*
X11305896Y-13313984D02*
X11258277Y-13313984D01*
X11458277Y-13313984D02*
X11458277Y-13180650D01*
X11458277Y-13218746D02*
X11467801Y-13199698D01*
X11467801Y-13199698D02*
X11477324Y-13190174D01*
X11477324Y-13190174D02*
X11496372Y-13180650D01*
X11496372Y-13180650D02*
X11515420Y-13180650D01*
X11582086Y-13313984D02*
X11582086Y-13180650D01*
X11582086Y-13113984D02*
X11572562Y-13123508D01*
X11572562Y-13123508D02*
X11582086Y-13133031D01*
X11582086Y-13133031D02*
X11591610Y-13123508D01*
X11591610Y-13123508D02*
X11582086Y-13113984D01*
X11582086Y-13113984D02*
X11582086Y-13133031D01*
X11705896Y-13313984D02*
X11686848Y-13304460D01*
X11686848Y-13304460D02*
X11677324Y-13285412D01*
X11677324Y-13285412D02*
X11677324Y-13113984D01*
X11810658Y-13313984D02*
X11791610Y-13304460D01*
X11791610Y-13304460D02*
X11782086Y-13285412D01*
X11782086Y-13285412D02*
X11782086Y-13113984D01*
X12039229Y-13313984D02*
X12039229Y-13113984D01*
X12039229Y-13113984D02*
X12105896Y-13256841D01*
X12105896Y-13256841D02*
X12172562Y-13113984D01*
X12172562Y-13113984D02*
X12172562Y-13313984D01*
X12353515Y-13313984D02*
X12353515Y-13209222D01*
X12353515Y-13209222D02*
X12343991Y-13190174D01*
X12343991Y-13190174D02*
X12324943Y-13180650D01*
X12324943Y-13180650D02*
X12286848Y-13180650D01*
X12286848Y-13180650D02*
X12267801Y-13190174D01*
X12353515Y-13304460D02*
X12334467Y-13313984D01*
X12334467Y-13313984D02*
X12286848Y-13313984D01*
X12286848Y-13313984D02*
X12267801Y-13304460D01*
X12267801Y-13304460D02*
X12258277Y-13285412D01*
X12258277Y-13285412D02*
X12258277Y-13266365D01*
X12258277Y-13266365D02*
X12267801Y-13247317D01*
X12267801Y-13247317D02*
X12286848Y-13237793D01*
X12286848Y-13237793D02*
X12334467Y-13237793D01*
X12334467Y-13237793D02*
X12353515Y-13228269D01*
X12448753Y-13180650D02*
X12448753Y-13380650D01*
X12448753Y-13190174D02*
X12467801Y-13180650D01*
X12467801Y-13180650D02*
X12505896Y-13180650D01*
X12505896Y-13180650D02*
X12524943Y-13190174D01*
X12524943Y-13190174D02*
X12534467Y-13199698D01*
X12534467Y-13199698D02*
X12543991Y-13218746D01*
X12543991Y-13218746D02*
X12543991Y-13275888D01*
X12543991Y-13275888D02*
X12534467Y-13294936D01*
X12534467Y-13294936D02*
X12524943Y-13304460D01*
X12524943Y-13304460D02*
X12505896Y-13313984D01*
X12505896Y-13313984D02*
X12467801Y-13313984D01*
X12467801Y-13313984D02*
X12448753Y-13304460D01*
X12629705Y-13294936D02*
X12639229Y-13304460D01*
X12639229Y-13304460D02*
X12629705Y-13313984D01*
X12629705Y-13313984D02*
X12620182Y-13304460D01*
X12620182Y-13304460D02*
X12629705Y-13294936D01*
X12629705Y-13294936D02*
X12629705Y-13313984D01*
X12629705Y-13190174D02*
X12639229Y-13199698D01*
X12639229Y-13199698D02*
X12629705Y-13209222D01*
X12629705Y-13209222D02*
X12620182Y-13199698D01*
X12620182Y-13199698D02*
X12629705Y-13190174D01*
X12629705Y-13190174D02*
X12629705Y-13209222D01*
D12*
X10932500Y-13610000D02*
X10997500Y-13675000D01*
X10997500Y-13610000D02*
X10932500Y-13675000D01*
D11*
X11296372Y-13533984D02*
X11315420Y-13533984D01*
X11315420Y-13533984D02*
X11334467Y-13543508D01*
X11334467Y-13543508D02*
X11343991Y-13553031D01*
X11343991Y-13553031D02*
X11353515Y-13572079D01*
X11353515Y-13572079D02*
X11363039Y-13610174D01*
X11363039Y-13610174D02*
X11363039Y-13657793D01*
X11363039Y-13657793D02*
X11353515Y-13695888D01*
X11353515Y-13695888D02*
X11343991Y-13714936D01*
X11343991Y-13714936D02*
X11334467Y-13724460D01*
X11334467Y-13724460D02*
X11315420Y-13733984D01*
X11315420Y-13733984D02*
X11296372Y-13733984D01*
X11296372Y-13733984D02*
X11277324Y-13724460D01*
X11277324Y-13724460D02*
X11267801Y-13714936D01*
X11267801Y-13714936D02*
X11258277Y-13695888D01*
X11258277Y-13695888D02*
X11248753Y-13657793D01*
X11248753Y-13657793D02*
X11248753Y-13610174D01*
X11248753Y-13610174D02*
X11258277Y-13572079D01*
X11258277Y-13572079D02*
X11267801Y-13553031D01*
X11267801Y-13553031D02*
X11277324Y-13543508D01*
X11277324Y-13543508D02*
X11296372Y-13533984D01*
X11448753Y-13714936D02*
X11458277Y-13724460D01*
X11458277Y-13724460D02*
X11448753Y-13733984D01*
X11448753Y-13733984D02*
X11439229Y-13724460D01*
X11439229Y-13724460D02*
X11448753Y-13714936D01*
X11448753Y-13714936D02*
X11448753Y-13733984D01*
X11629705Y-13533984D02*
X11591610Y-13533984D01*
X11591610Y-13533984D02*
X11572562Y-13543508D01*
X11572562Y-13543508D02*
X11563039Y-13553031D01*
X11563039Y-13553031D02*
X11543991Y-13581603D01*
X11543991Y-13581603D02*
X11534467Y-13619698D01*
X11534467Y-13619698D02*
X11534467Y-13695888D01*
X11534467Y-13695888D02*
X11543991Y-13714936D01*
X11543991Y-13714936D02*
X11553515Y-13724460D01*
X11553515Y-13724460D02*
X11572562Y-13733984D01*
X11572562Y-13733984D02*
X11610658Y-13733984D01*
X11610658Y-13733984D02*
X11629705Y-13724460D01*
X11629705Y-13724460D02*
X11639229Y-13714936D01*
X11639229Y-13714936D02*
X11648753Y-13695888D01*
X11648753Y-13695888D02*
X11648753Y-13648269D01*
X11648753Y-13648269D02*
X11639229Y-13629222D01*
X11639229Y-13629222D02*
X11629705Y-13619698D01*
X11629705Y-13619698D02*
X11610658Y-13610174D01*
X11610658Y-13610174D02*
X11572562Y-13610174D01*
X11572562Y-13610174D02*
X11553515Y-13619698D01*
X11553515Y-13619698D02*
X11543991Y-13629222D01*
X11543991Y-13629222D02*
X11534467Y-13648269D01*
X11829705Y-13533984D02*
X11734467Y-13533984D01*
X11734467Y-13533984D02*
X11724943Y-13629222D01*
X11724943Y-13629222D02*
X11734467Y-13619698D01*
X11734467Y-13619698D02*
X11753515Y-13610174D01*
X11753515Y-13610174D02*
X11801134Y-13610174D01*
X11801134Y-13610174D02*
X11820182Y-13619698D01*
X11820182Y-13619698D02*
X11829705Y-13629222D01*
X11829705Y-13629222D02*
X11839229Y-13648269D01*
X11839229Y-13648269D02*
X11839229Y-13695888D01*
X11839229Y-13695888D02*
X11829705Y-13714936D01*
X11829705Y-13714936D02*
X11820182Y-13724460D01*
X11820182Y-13724460D02*
X11801134Y-13733984D01*
X11801134Y-13733984D02*
X11753515Y-13733984D01*
X11753515Y-13733984D02*
X11734467Y-13724460D01*
X11734467Y-13724460D02*
X11724943Y-13714936D01*
X11963039Y-13533984D02*
X11982086Y-13533984D01*
X11982086Y-13533984D02*
X12001134Y-13543508D01*
X12001134Y-13543508D02*
X12010658Y-13553031D01*
X12010658Y-13553031D02*
X12020182Y-13572079D01*
X12020182Y-13572079D02*
X12029705Y-13610174D01*
X12029705Y-13610174D02*
X12029705Y-13657793D01*
X12029705Y-13657793D02*
X12020182Y-13695888D01*
X12020182Y-13695888D02*
X12010658Y-13714936D01*
X12010658Y-13714936D02*
X12001134Y-13724460D01*
X12001134Y-13724460D02*
X11982086Y-13733984D01*
X11982086Y-13733984D02*
X11963039Y-13733984D01*
X11963039Y-13733984D02*
X11943991Y-13724460D01*
X11943991Y-13724460D02*
X11934467Y-13714936D01*
X11934467Y-13714936D02*
X11924943Y-13695888D01*
X11924943Y-13695888D02*
X11915420Y-13657793D01*
X11915420Y-13657793D02*
X11915420Y-13610174D01*
X11915420Y-13610174D02*
X11924943Y-13572079D01*
X11924943Y-13572079D02*
X11934467Y-13553031D01*
X11934467Y-13553031D02*
X11943991Y-13543508D01*
X11943991Y-13543508D02*
X11963039Y-13533984D01*
X12115420Y-13733984D02*
X12115420Y-13600650D01*
X12115420Y-13619698D02*
X12124943Y-13610174D01*
X12124943Y-13610174D02*
X12143991Y-13600650D01*
X12143991Y-13600650D02*
X12172563Y-13600650D01*
X12172563Y-13600650D02*
X12191610Y-13610174D01*
X12191610Y-13610174D02*
X12201134Y-13629222D01*
X12201134Y-13629222D02*
X12201134Y-13733984D01*
X12201134Y-13629222D02*
X12210658Y-13610174D01*
X12210658Y-13610174D02*
X12229705Y-13600650D01*
X12229705Y-13600650D02*
X12258277Y-13600650D01*
X12258277Y-13600650D02*
X12277324Y-13610174D01*
X12277324Y-13610174D02*
X12286848Y-13629222D01*
X12286848Y-13629222D02*
X12286848Y-13733984D01*
X12382086Y-13733984D02*
X12382086Y-13600650D01*
X12382086Y-13619698D02*
X12391610Y-13610174D01*
X12391610Y-13610174D02*
X12410658Y-13600650D01*
X12410658Y-13600650D02*
X12439229Y-13600650D01*
X12439229Y-13600650D02*
X12458277Y-13610174D01*
X12458277Y-13610174D02*
X12467801Y-13629222D01*
X12467801Y-13629222D02*
X12467801Y-13733984D01*
X12467801Y-13629222D02*
X12477324Y-13610174D01*
X12477324Y-13610174D02*
X12496372Y-13600650D01*
X12496372Y-13600650D02*
X12524943Y-13600650D01*
X12524943Y-13600650D02*
X12543991Y-13610174D01*
X12543991Y-13610174D02*
X12553515Y-13629222D01*
X12553515Y-13629222D02*
X12553515Y-13733984D01*
X12943991Y-13524460D02*
X12772563Y-13781603D01*
X13201134Y-13533984D02*
X13220182Y-13533984D01*
X13220182Y-13533984D02*
X13239229Y-13543508D01*
X13239229Y-13543508D02*
X13248753Y-13553031D01*
X13248753Y-13553031D02*
X13258277Y-13572079D01*
X13258277Y-13572079D02*
X13267801Y-13610174D01*
X13267801Y-13610174D02*
X13267801Y-13657793D01*
X13267801Y-13657793D02*
X13258277Y-13695888D01*
X13258277Y-13695888D02*
X13248753Y-13714936D01*
X13248753Y-13714936D02*
X13239229Y-13724460D01*
X13239229Y-13724460D02*
X13220182Y-13733984D01*
X13220182Y-13733984D02*
X13201134Y-13733984D01*
X13201134Y-13733984D02*
X13182086Y-13724460D01*
X13182086Y-13724460D02*
X13172563Y-13714936D01*
X13172563Y-13714936D02*
X13163039Y-13695888D01*
X13163039Y-13695888D02*
X13153515Y-13657793D01*
X13153515Y-13657793D02*
X13153515Y-13610174D01*
X13153515Y-13610174D02*
X13163039Y-13572079D01*
X13163039Y-13572079D02*
X13172563Y-13553031D01*
X13172563Y-13553031D02*
X13182086Y-13543508D01*
X13182086Y-13543508D02*
X13201134Y-13533984D01*
X13353515Y-13714936D02*
X13363039Y-13724460D01*
X13363039Y-13724460D02*
X13353515Y-13733984D01*
X13353515Y-13733984D02*
X13343991Y-13724460D01*
X13343991Y-13724460D02*
X13353515Y-13714936D01*
X13353515Y-13714936D02*
X13353515Y-13733984D01*
X13486848Y-13533984D02*
X13505896Y-13533984D01*
X13505896Y-13533984D02*
X13524944Y-13543508D01*
X13524944Y-13543508D02*
X13534467Y-13553031D01*
X13534467Y-13553031D02*
X13543991Y-13572079D01*
X13543991Y-13572079D02*
X13553515Y-13610174D01*
X13553515Y-13610174D02*
X13553515Y-13657793D01*
X13553515Y-13657793D02*
X13543991Y-13695888D01*
X13543991Y-13695888D02*
X13534467Y-13714936D01*
X13534467Y-13714936D02*
X13524944Y-13724460D01*
X13524944Y-13724460D02*
X13505896Y-13733984D01*
X13505896Y-13733984D02*
X13486848Y-13733984D01*
X13486848Y-13733984D02*
X13467801Y-13724460D01*
X13467801Y-13724460D02*
X13458277Y-13714936D01*
X13458277Y-13714936D02*
X13448753Y-13695888D01*
X13448753Y-13695888D02*
X13439229Y-13657793D01*
X13439229Y-13657793D02*
X13439229Y-13610174D01*
X13439229Y-13610174D02*
X13448753Y-13572079D01*
X13448753Y-13572079D02*
X13458277Y-13553031D01*
X13458277Y-13553031D02*
X13467801Y-13543508D01*
X13467801Y-13543508D02*
X13486848Y-13533984D01*
X13629706Y-13553031D02*
X13639229Y-13543508D01*
X13639229Y-13543508D02*
X13658277Y-13533984D01*
X13658277Y-13533984D02*
X13705896Y-13533984D01*
X13705896Y-13533984D02*
X13724944Y-13543508D01*
X13724944Y-13543508D02*
X13734467Y-13553031D01*
X13734467Y-13553031D02*
X13743991Y-13572079D01*
X13743991Y-13572079D02*
X13743991Y-13591127D01*
X13743991Y-13591127D02*
X13734467Y-13619698D01*
X13734467Y-13619698D02*
X13620182Y-13733984D01*
X13620182Y-13733984D02*
X13743991Y-13733984D01*
X13924944Y-13533984D02*
X13829706Y-13533984D01*
X13829706Y-13533984D02*
X13820182Y-13629222D01*
X13820182Y-13629222D02*
X13829706Y-13619698D01*
X13829706Y-13619698D02*
X13848753Y-13610174D01*
X13848753Y-13610174D02*
X13896372Y-13610174D01*
X13896372Y-13610174D02*
X13915420Y-13619698D01*
X13915420Y-13619698D02*
X13924944Y-13629222D01*
X13924944Y-13629222D02*
X13934467Y-13648269D01*
X13934467Y-13648269D02*
X13934467Y-13695888D01*
X13934467Y-13695888D02*
X13924944Y-13714936D01*
X13924944Y-13714936D02*
X13915420Y-13724460D01*
X13915420Y-13724460D02*
X13896372Y-13733984D01*
X13896372Y-13733984D02*
X13848753Y-13733984D01*
X13848753Y-13733984D02*
X13829706Y-13724460D01*
X13829706Y-13724460D02*
X13820182Y-13714936D01*
X14105896Y-13533984D02*
X14067801Y-13533984D01*
X14067801Y-13533984D02*
X14048753Y-13543508D01*
X14048753Y-13543508D02*
X14039229Y-13553031D01*
X14039229Y-13553031D02*
X14020182Y-13581603D01*
X14020182Y-13581603D02*
X14010658Y-13619698D01*
X14010658Y-13619698D02*
X14010658Y-13695888D01*
X14010658Y-13695888D02*
X14020182Y-13714936D01*
X14020182Y-13714936D02*
X14029706Y-13724460D01*
X14029706Y-13724460D02*
X14048753Y-13733984D01*
X14048753Y-13733984D02*
X14086848Y-13733984D01*
X14086848Y-13733984D02*
X14105896Y-13724460D01*
X14105896Y-13724460D02*
X14115420Y-13714936D01*
X14115420Y-13714936D02*
X14124944Y-13695888D01*
X14124944Y-13695888D02*
X14124944Y-13648269D01*
X14124944Y-13648269D02*
X14115420Y-13629222D01*
X14115420Y-13629222D02*
X14105896Y-13619698D01*
X14105896Y-13619698D02*
X14086848Y-13610174D01*
X14086848Y-13610174D02*
X14048753Y-13610174D01*
X14048753Y-13610174D02*
X14029706Y-13619698D01*
X14029706Y-13619698D02*
X14020182Y-13629222D01*
X14020182Y-13629222D02*
X14010658Y-13648269D01*
X14201134Y-13533984D02*
X14201134Y-13572079D01*
X14277325Y-13533984D02*
X14277325Y-13572079D01*
X14572563Y-13810174D02*
X14563039Y-13800650D01*
X14563039Y-13800650D02*
X14543991Y-13772079D01*
X14543991Y-13772079D02*
X14534468Y-13753031D01*
X14534468Y-13753031D02*
X14524944Y-13724460D01*
X14524944Y-13724460D02*
X14515420Y-13676841D01*
X14515420Y-13676841D02*
X14515420Y-13638746D01*
X14515420Y-13638746D02*
X14524944Y-13591127D01*
X14524944Y-13591127D02*
X14534468Y-13562555D01*
X14534468Y-13562555D02*
X14543991Y-13543508D01*
X14543991Y-13543508D02*
X14563039Y-13514936D01*
X14563039Y-13514936D02*
X14572563Y-13505412D01*
X14639229Y-13553031D02*
X14648753Y-13543508D01*
X14648753Y-13543508D02*
X14667801Y-13533984D01*
X14667801Y-13533984D02*
X14715420Y-13533984D01*
X14715420Y-13533984D02*
X14734468Y-13543508D01*
X14734468Y-13543508D02*
X14743991Y-13553031D01*
X14743991Y-13553031D02*
X14753515Y-13572079D01*
X14753515Y-13572079D02*
X14753515Y-13591127D01*
X14753515Y-13591127D02*
X14743991Y-13619698D01*
X14743991Y-13619698D02*
X14629706Y-13733984D01*
X14629706Y-13733984D02*
X14753515Y-13733984D01*
X14991610Y-13733984D02*
X14991610Y-13533984D01*
X15077325Y-13733984D02*
X15077325Y-13629222D01*
X15077325Y-13629222D02*
X15067801Y-13610174D01*
X15067801Y-13610174D02*
X15048753Y-13600650D01*
X15048753Y-13600650D02*
X15020182Y-13600650D01*
X15020182Y-13600650D02*
X15001134Y-13610174D01*
X15001134Y-13610174D02*
X14991610Y-13619698D01*
X15201134Y-13733984D02*
X15182087Y-13724460D01*
X15182087Y-13724460D02*
X15172563Y-13714936D01*
X15172563Y-13714936D02*
X15163039Y-13695888D01*
X15163039Y-13695888D02*
X15163039Y-13638746D01*
X15163039Y-13638746D02*
X15172563Y-13619698D01*
X15172563Y-13619698D02*
X15182087Y-13610174D01*
X15182087Y-13610174D02*
X15201134Y-13600650D01*
X15201134Y-13600650D02*
X15229706Y-13600650D01*
X15229706Y-13600650D02*
X15248753Y-13610174D01*
X15248753Y-13610174D02*
X15258277Y-13619698D01*
X15258277Y-13619698D02*
X15267801Y-13638746D01*
X15267801Y-13638746D02*
X15267801Y-13695888D01*
X15267801Y-13695888D02*
X15258277Y-13714936D01*
X15258277Y-13714936D02*
X15248753Y-13724460D01*
X15248753Y-13724460D02*
X15229706Y-13733984D01*
X15229706Y-13733984D02*
X15201134Y-13733984D01*
X15382087Y-13733984D02*
X15363039Y-13724460D01*
X15363039Y-13724460D02*
X15353515Y-13705412D01*
X15353515Y-13705412D02*
X15353515Y-13533984D01*
X15534468Y-13724460D02*
X15515420Y-13733984D01*
X15515420Y-13733984D02*
X15477325Y-13733984D01*
X15477325Y-13733984D02*
X15458277Y-13724460D01*
X15458277Y-13724460D02*
X15448753Y-13705412D01*
X15448753Y-13705412D02*
X15448753Y-13629222D01*
X15448753Y-13629222D02*
X15458277Y-13610174D01*
X15458277Y-13610174D02*
X15477325Y-13600650D01*
X15477325Y-13600650D02*
X15515420Y-13600650D01*
X15515420Y-13600650D02*
X15534468Y-13610174D01*
X15534468Y-13610174D02*
X15543991Y-13629222D01*
X15543991Y-13629222D02*
X15543991Y-13648269D01*
X15543991Y-13648269D02*
X15448753Y-13667317D01*
X15620182Y-13724460D02*
X15639230Y-13733984D01*
X15639230Y-13733984D02*
X15677325Y-13733984D01*
X15677325Y-13733984D02*
X15696372Y-13724460D01*
X15696372Y-13724460D02*
X15705896Y-13705412D01*
X15705896Y-13705412D02*
X15705896Y-13695888D01*
X15705896Y-13695888D02*
X15696372Y-13676841D01*
X15696372Y-13676841D02*
X15677325Y-13667317D01*
X15677325Y-13667317D02*
X15648753Y-13667317D01*
X15648753Y-13667317D02*
X15629706Y-13657793D01*
X15629706Y-13657793D02*
X15620182Y-13638746D01*
X15620182Y-13638746D02*
X15620182Y-13629222D01*
X15620182Y-13629222D02*
X15629706Y-13610174D01*
X15629706Y-13610174D02*
X15648753Y-13600650D01*
X15648753Y-13600650D02*
X15677325Y-13600650D01*
X15677325Y-13600650D02*
X15696372Y-13610174D01*
X15772563Y-13810174D02*
X15782087Y-13800650D01*
X15782087Y-13800650D02*
X15801134Y-13772079D01*
X15801134Y-13772079D02*
X15810658Y-13753031D01*
X15810658Y-13753031D02*
X15820182Y-13724460D01*
X15820182Y-13724460D02*
X15829706Y-13676841D01*
X15829706Y-13676841D02*
X15829706Y-13638746D01*
X15829706Y-13638746D02*
X15820182Y-13591127D01*
X15820182Y-13591127D02*
X15810658Y-13562555D01*
X15810658Y-13562555D02*
X15801134Y-13543508D01*
X15801134Y-13543508D02*
X15782087Y-13514936D01*
X15782087Y-13514936D02*
X15772563Y-13505412D01*
X16134468Y-13810174D02*
X16124944Y-13800650D01*
X16124944Y-13800650D02*
X16105896Y-13772079D01*
X16105896Y-13772079D02*
X16096372Y-13753031D01*
X16096372Y-13753031D02*
X16086849Y-13724460D01*
X16086849Y-13724460D02*
X16077325Y-13676841D01*
X16077325Y-13676841D02*
X16077325Y-13638746D01*
X16077325Y-13638746D02*
X16086849Y-13591127D01*
X16086849Y-13591127D02*
X16096372Y-13562555D01*
X16096372Y-13562555D02*
X16105896Y-13543508D01*
X16105896Y-13543508D02*
X16124944Y-13514936D01*
X16124944Y-13514936D02*
X16134468Y-13505412D01*
X16210658Y-13600650D02*
X16210658Y-13733984D01*
X16210658Y-13619698D02*
X16220182Y-13610174D01*
X16220182Y-13610174D02*
X16239230Y-13600650D01*
X16239230Y-13600650D02*
X16267801Y-13600650D01*
X16267801Y-13600650D02*
X16286849Y-13610174D01*
X16286849Y-13610174D02*
X16296372Y-13629222D01*
X16296372Y-13629222D02*
X16296372Y-13733984D01*
X16420182Y-13733984D02*
X16401134Y-13724460D01*
X16401134Y-13724460D02*
X16391611Y-13714936D01*
X16391611Y-13714936D02*
X16382087Y-13695888D01*
X16382087Y-13695888D02*
X16382087Y-13638746D01*
X16382087Y-13638746D02*
X16391611Y-13619698D01*
X16391611Y-13619698D02*
X16401134Y-13610174D01*
X16401134Y-13610174D02*
X16420182Y-13600650D01*
X16420182Y-13600650D02*
X16448753Y-13600650D01*
X16448753Y-13600650D02*
X16467801Y-13610174D01*
X16467801Y-13610174D02*
X16477325Y-13619698D01*
X16477325Y-13619698D02*
X16486849Y-13638746D01*
X16486849Y-13638746D02*
X16486849Y-13695888D01*
X16486849Y-13695888D02*
X16477325Y-13714936D01*
X16477325Y-13714936D02*
X16467801Y-13724460D01*
X16467801Y-13724460D02*
X16448753Y-13733984D01*
X16448753Y-13733984D02*
X16420182Y-13733984D01*
X16543992Y-13600650D02*
X16620182Y-13600650D01*
X16572563Y-13533984D02*
X16572563Y-13705412D01*
X16572563Y-13705412D02*
X16582087Y-13724460D01*
X16582087Y-13724460D02*
X16601134Y-13733984D01*
X16601134Y-13733984D02*
X16620182Y-13733984D01*
X16839230Y-13600650D02*
X16839230Y-13800650D01*
X16839230Y-13610174D02*
X16858277Y-13600650D01*
X16858277Y-13600650D02*
X16896373Y-13600650D01*
X16896373Y-13600650D02*
X16915420Y-13610174D01*
X16915420Y-13610174D02*
X16924944Y-13619698D01*
X16924944Y-13619698D02*
X16934468Y-13638746D01*
X16934468Y-13638746D02*
X16934468Y-13695888D01*
X16934468Y-13695888D02*
X16924944Y-13714936D01*
X16924944Y-13714936D02*
X16915420Y-13724460D01*
X16915420Y-13724460D02*
X16896373Y-13733984D01*
X16896373Y-13733984D02*
X16858277Y-13733984D01*
X16858277Y-13733984D02*
X16839230Y-13724460D01*
X17048754Y-13733984D02*
X17029706Y-13724460D01*
X17029706Y-13724460D02*
X17020182Y-13705412D01*
X17020182Y-13705412D02*
X17020182Y-13533984D01*
X17210658Y-13733984D02*
X17210658Y-13629222D01*
X17210658Y-13629222D02*
X17201135Y-13610174D01*
X17201135Y-13610174D02*
X17182087Y-13600650D01*
X17182087Y-13600650D02*
X17143992Y-13600650D01*
X17143992Y-13600650D02*
X17124944Y-13610174D01*
X17210658Y-13724460D02*
X17191611Y-13733984D01*
X17191611Y-13733984D02*
X17143992Y-13733984D01*
X17143992Y-13733984D02*
X17124944Y-13724460D01*
X17124944Y-13724460D02*
X17115420Y-13705412D01*
X17115420Y-13705412D02*
X17115420Y-13686365D01*
X17115420Y-13686365D02*
X17124944Y-13667317D01*
X17124944Y-13667317D02*
X17143992Y-13657793D01*
X17143992Y-13657793D02*
X17191611Y-13657793D01*
X17191611Y-13657793D02*
X17210658Y-13648269D01*
X17277325Y-13600650D02*
X17353515Y-13600650D01*
X17305896Y-13533984D02*
X17305896Y-13705412D01*
X17305896Y-13705412D02*
X17315420Y-13724460D01*
X17315420Y-13724460D02*
X17334468Y-13733984D01*
X17334468Y-13733984D02*
X17353515Y-13733984D01*
X17496373Y-13724460D02*
X17477325Y-13733984D01*
X17477325Y-13733984D02*
X17439230Y-13733984D01*
X17439230Y-13733984D02*
X17420182Y-13724460D01*
X17420182Y-13724460D02*
X17410658Y-13705412D01*
X17410658Y-13705412D02*
X17410658Y-13629222D01*
X17410658Y-13629222D02*
X17420182Y-13610174D01*
X17420182Y-13610174D02*
X17439230Y-13600650D01*
X17439230Y-13600650D02*
X17477325Y-13600650D01*
X17477325Y-13600650D02*
X17496373Y-13610174D01*
X17496373Y-13610174D02*
X17505896Y-13629222D01*
X17505896Y-13629222D02*
X17505896Y-13648269D01*
X17505896Y-13648269D02*
X17410658Y-13667317D01*
X17677325Y-13733984D02*
X17677325Y-13533984D01*
X17677325Y-13724460D02*
X17658277Y-13733984D01*
X17658277Y-13733984D02*
X17620182Y-13733984D01*
X17620182Y-13733984D02*
X17601135Y-13724460D01*
X17601135Y-13724460D02*
X17591611Y-13714936D01*
X17591611Y-13714936D02*
X17582087Y-13695888D01*
X17582087Y-13695888D02*
X17582087Y-13638746D01*
X17582087Y-13638746D02*
X17591611Y-13619698D01*
X17591611Y-13619698D02*
X17601135Y-13610174D01*
X17601135Y-13610174D02*
X17620182Y-13600650D01*
X17620182Y-13600650D02*
X17658277Y-13600650D01*
X17658277Y-13600650D02*
X17677325Y-13610174D01*
X17753516Y-13810174D02*
X17763039Y-13800650D01*
X17763039Y-13800650D02*
X17782087Y-13772079D01*
X17782087Y-13772079D02*
X17791611Y-13753031D01*
X17791611Y-13753031D02*
X17801135Y-13724460D01*
X17801135Y-13724460D02*
X17810658Y-13676841D01*
X17810658Y-13676841D02*
X17810658Y-13638746D01*
X17810658Y-13638746D02*
X17801135Y-13591127D01*
X17801135Y-13591127D02*
X17791611Y-13562555D01*
X17791611Y-13562555D02*
X17782087Y-13543508D01*
X17782087Y-13543508D02*
X17763039Y-13514936D01*
X17763039Y-13514936D02*
X17753516Y-13505412D01*
M02*
