G04 #@! TF.GenerationSoftware,KiCad,Pcbnew,8.0.6*
G04 #@! TF.CreationDate,2026-01-19T16:17:50-08:00*
G04 #@! TF.ProjectId,Bluetooth_Board,426c7565-746f-46f7-9468-5f426f617264,B*
G04 #@! TF.SameCoordinates,Original*
G04 #@! TF.FileFunction,Soldermask,Bot*
G04 #@! TF.FilePolarity,Negative*
%FSLAX46Y46*%
G04 Gerber Fmt 4.6, Leading zero omitted, Abs format (unit mm)*
G04 Created by KiCad (PCBNEW 8.0.6) date 2026-01-19 16:17:50*
%MOMM*%
%LPD*%
G01*
G04 APERTURE LIST*
%ADD10R,1.700000X1.700000*%
%ADD11O,1.700000X1.700000*%
%ADD12C,6.400000*%
%ADD13R,1.650000X1.650000*%
%ADD14C,1.650000*%
%ADD15C,0.650000*%
%ADD16O,2.100000X1.000000*%
%ADD17O,1.600000X1.000000*%
G04 APERTURE END LIST*
D10*
X155160000Y-112700000D03*
D11*
X157700000Y-112700000D03*
X160240000Y-112700000D03*
D10*
X151900000Y-122400000D03*
D11*
X151900000Y-124940000D03*
X149360000Y-122400000D03*
X149360000Y-124940000D03*
X146820000Y-122400000D03*
X146820000Y-124940000D03*
D10*
X140440000Y-122400000D03*
D11*
X140440000Y-124940000D03*
X137900000Y-122400000D03*
X137900000Y-124940000D03*
X135360000Y-122400000D03*
X135360000Y-124940000D03*
X132820000Y-122400000D03*
X132820000Y-124940000D03*
X130280000Y-122400000D03*
X130280000Y-124940000D03*
D12*
X206000000Y-126000000D03*
D10*
X117540000Y-97920000D03*
D11*
X115000000Y-97920000D03*
X117540000Y-95380000D03*
X115000000Y-95380000D03*
X117540000Y-92840000D03*
X115000000Y-92840000D03*
X117540000Y-90300000D03*
X115000000Y-90300000D03*
D12*
X114000000Y-84000000D03*
D13*
X128000000Y-88450000D03*
D14*
X125500000Y-88450000D03*
X123000000Y-88450000D03*
D10*
X165580000Y-122400000D03*
D11*
X165580000Y-124940000D03*
X163040000Y-122400000D03*
X163040000Y-124940000D03*
X160500000Y-122400000D03*
X160500000Y-124940000D03*
D10*
X125660000Y-101300000D03*
D11*
X128200000Y-101300000D03*
X130740000Y-101300000D03*
D15*
X116250000Y-112790000D03*
X116250000Y-118570000D03*
D16*
X116780000Y-111360000D03*
D17*
X112600000Y-111360000D03*
D16*
X116780000Y-120000000D03*
D17*
X112600000Y-120000000D03*
D12*
X114000000Y-126000000D03*
X206000000Y-84000000D03*
M02*
