%TF.GenerationSoftware,KiCad,Pcbnew,8.0.6*%
%TF.CreationDate,2025-12-15T22:17:45-08:00*%
%TF.ProjectId,Bluetooth_Board,426c7565-746f-46f7-9468-5f426f617264,B*%
%TF.SameCoordinates,PX5f5e100PY7270e00*%
%TF.FileFunction,Paste,Top*%
%TF.FilePolarity,Positive*%
%FSLAX46Y46*%
G04 Gerber Fmt 4.6, Leading zero omitted, Abs format (unit mm)*
G04 Created by KiCad (PCBNEW 8.0.6) date 2025-12-15 22:17:45*
%MOMM*%
%LPD*%
G01*
G04 APERTURE LIST*
G04 Aperture macros list*
%AMRoundRect*
0 Rectangle with rounded corners*
0 $1 Rounding radius*
0 $2 $3 $4 $5 $6 $7 $8 $9 X,Y pos of 4 corners*
0 Add a 4 corners polygon primitive as box body*
4,1,4,$2,$3,$4,$5,$6,$7,$8,$9,$2,$3,0*
0 Add four circle primitives for the rounded corners*
1,1,$1+$1,$2,$3*
1,1,$1+$1,$4,$5*
1,1,$1+$1,$6,$7*
1,1,$1+$1,$8,$9*
0 Add four rect primitives between the rounded corners*
20,1,$1+$1,$2,$3,$4,$5,0*
20,1,$1+$1,$4,$5,$6,$7,0*
20,1,$1+$1,$6,$7,$8,$9,0*
20,1,$1+$1,$8,$9,$2,$3,0*%
G04 Aperture macros list end*
%ADD10RoundRect,0.250000X0.250000X0.475000X-0.250000X0.475000X-0.250000X-0.475000X0.250000X-0.475000X0*%
%ADD11R,1.100000X0.650000*%
%ADD12RoundRect,0.155000X-0.155000X0.212500X-0.155000X-0.212500X0.155000X-0.212500X0.155000X0.212500X0*%
%ADD13RoundRect,0.250000X-0.262500X-0.450000X0.262500X-0.450000X0.262500X0.450000X-0.262500X0.450000X0*%
%ADD14R,0.300000X0.850000*%
%ADD15R,0.850000X0.300000*%
%ADD16R,5.700000X5.700000*%
%ADD17RoundRect,0.250000X-0.350000X0.275000X-0.350000X-0.275000X0.350000X-0.275000X0.350000X0.275000X0*%
%ADD18RoundRect,0.250000X-0.450000X0.262500X-0.450000X-0.262500X0.450000X-0.262500X0.450000X0.262500X0*%
%ADD19RoundRect,0.150000X-0.150000X0.587500X-0.150000X-0.587500X0.150000X-0.587500X0.150000X0.587500X0*%
%ADD20RoundRect,0.250000X-0.250000X-0.475000X0.250000X-0.475000X0.250000X0.475000X-0.250000X0.475000X0*%
%ADD21RoundRect,0.250000X-0.475000X0.250000X-0.475000X-0.250000X0.475000X-0.250000X0.475000X0.250000X0*%
%ADD22RoundRect,0.250000X0.262500X0.450000X-0.262500X0.450000X-0.262500X-0.450000X0.262500X-0.450000X0*%
%ADD23RoundRect,0.068750X-0.068750X-0.281250X0.068750X-0.281250X0.068750X0.281250X-0.068750X0.281250X0*%
%ADD24RoundRect,0.061250X0.163750X0.061250X-0.163750X0.061250X-0.163750X-0.061250X0.163750X-0.061250X0*%
%ADD25RoundRect,0.250000X0.450000X-0.262500X0.450000X0.262500X-0.450000X0.262500X-0.450000X-0.262500X0*%
%ADD26RoundRect,0.250000X0.475000X-0.250000X0.475000X0.250000X-0.475000X0.250000X-0.475000X-0.250000X0*%
%ADD27R,0.300000X1.000000*%
%ADD28R,1.650000X1.300000*%
%ADD29RoundRect,0.250001X-0.354999X-0.394999X0.354999X-0.394999X0.354999X0.394999X-0.354999X0.394999X0*%
%ADD30RoundRect,0.100000X-0.350000X-0.100000X0.350000X-0.100000X0.350000X0.100000X-0.350000X0.100000X0*%
%ADD31RoundRect,0.250000X0.325000X0.450000X-0.325000X0.450000X-0.325000X-0.450000X0.325000X-0.450000X0*%
%ADD32R,1.800000X1.200000*%
%ADD33R,0.558800X1.320800*%
%ADD34RoundRect,0.160000X-0.222500X-0.160000X0.222500X-0.160000X0.222500X0.160000X-0.222500X0.160000X0*%
%ADD35RoundRect,0.172500X0.172500X0.242500X-0.172500X0.242500X-0.172500X-0.242500X0.172500X-0.242500X0*%
%ADD36RoundRect,0.075000X0.325000X0.075000X-0.325000X0.075000X-0.325000X-0.075000X0.325000X-0.075000X0*%
%ADD37R,1.450000X0.600000*%
%ADD38R,1.450000X0.300000*%
%ADD39R,4.300000X1.450000*%
%ADD40R,4.300000X1.370000*%
%ADD41R,1.300000X1.100000*%
%ADD42RoundRect,0.150000X-0.150000X0.512500X-0.150000X-0.512500X0.150000X-0.512500X0.150000X0.512500X0*%
%ADD43R,1.550000X2.150000*%
%ADD44RoundRect,0.150000X0.512500X0.150000X-0.512500X0.150000X-0.512500X-0.150000X0.512500X-0.150000X0*%
%ADD45RoundRect,0.225000X-0.225000X-0.275000X0.225000X-0.275000X0.225000X0.275000X-0.225000X0.275000X0*%
%ADD46RoundRect,0.137500X-0.712500X-0.137500X0.712500X-0.137500X0.712500X0.137500X-0.712500X0.137500X0*%
%ADD47R,1.300000X0.600000*%
G04 APERTURE END LIST*
D10*
%TO.C,C27*%
X7850000Y27400000D03*
X5950000Y27400000D03*
%TD*%
D11*
%TO.C,Z3*%
X22450000Y35360000D03*
X22450000Y33440000D03*
X24550000Y34400000D03*
%TD*%
D12*
%TO.C,C19*%
X86050000Y25417500D03*
X86050000Y24282500D03*
%TD*%
D13*
%TO.C,R8*%
X12587500Y11200000D03*
X14412500Y11200000D03*
%TD*%
D14*
%TO.C,IC2*%
X76500000Y20800000D03*
X77000000Y20800000D03*
X77500000Y20800000D03*
X78000000Y20800000D03*
X78500000Y20800000D03*
X79000000Y20800000D03*
X79500000Y20800000D03*
X80000000Y20800000D03*
X80500000Y20800000D03*
X81000000Y20800000D03*
X81500000Y20800000D03*
X82000000Y20800000D03*
D15*
X82700000Y21500000D03*
X82700000Y22000000D03*
X82700000Y22500000D03*
X82700000Y23000000D03*
X82700000Y23500000D03*
X82700000Y24000000D03*
X82700000Y24500000D03*
X82700000Y25000000D03*
X82700000Y25500000D03*
X82700000Y26000000D03*
X82700000Y26500000D03*
X82700000Y27000000D03*
D14*
X82000000Y27700000D03*
X81500000Y27700000D03*
X81000000Y27700000D03*
X80500000Y27700000D03*
X80000000Y27700000D03*
X79500000Y27700000D03*
X79000000Y27700000D03*
X78500000Y27700000D03*
X78000000Y27700000D03*
X77500000Y27700000D03*
X77000000Y27700000D03*
X76500000Y27700000D03*
D15*
X75800000Y27000000D03*
X75800000Y26500000D03*
X75800000Y26000000D03*
X75800000Y25500000D03*
X75800000Y25000000D03*
X75800000Y24500000D03*
X75800000Y24000000D03*
X75800000Y23500000D03*
X75800000Y23000000D03*
X75800000Y22500000D03*
X75800000Y22000000D03*
X75800000Y21500000D03*
D16*
X79250000Y24250000D03*
%TD*%
D17*
%TO.C,L3*%
X76100000Y33175000D03*
X76100000Y30875000D03*
%TD*%
D18*
%TO.C,R4*%
X76300000Y15812500D03*
X76300000Y13987500D03*
%TD*%
D19*
%TO.C,DI1*%
X53950000Y12925000D03*
X52050000Y12925000D03*
X53000000Y11050000D03*
%TD*%
D20*
%TO.C,C21*%
X12650000Y6200000D03*
X14550000Y6200000D03*
%TD*%
D21*
%TO.C,C13*%
X70800000Y19450000D03*
X70800000Y17550000D03*
%TD*%
D20*
%TO.C,C20*%
X81135807Y15600000D03*
X83035807Y15600000D03*
%TD*%
D22*
%TO.C,R1*%
X49200000Y40300000D03*
X47375000Y40300000D03*
%TD*%
D11*
%TO.C,Z2*%
X14600000Y20040000D03*
X14600000Y21960000D03*
X12500000Y21000000D03*
%TD*%
D20*
%TO.C,C15*%
X83250000Y9600000D03*
X85150000Y9600000D03*
%TD*%
D23*
%TO.C,FLT1*%
X92338600Y25450000D03*
D24*
X92951600Y25222500D03*
D23*
X93564100Y25450000D03*
D24*
X92951600Y25677500D03*
%TD*%
D10*
%TO.C,C4*%
X74000000Y35700000D03*
X72100000Y35700000D03*
%TD*%
D25*
%TO.C,R11*%
X59000000Y33400000D03*
X59000000Y35225000D03*
%TD*%
D10*
%TO.C,C3*%
X74000000Y33400000D03*
X72100000Y33400000D03*
%TD*%
D26*
%TO.C,C1*%
X78000000Y37375000D03*
X78000000Y39275000D03*
%TD*%
D20*
%TO.C,C18*%
X81135807Y13308372D03*
X83035807Y13308372D03*
%TD*%
D26*
%TO.C,C9*%
X30900000Y22550000D03*
X30900000Y24450000D03*
%TD*%
D27*
%TO.C,FPC1*%
X65025000Y5400000D03*
X65525000Y5400000D03*
X66025000Y5400000D03*
X66525000Y5400000D03*
X67025000Y5400000D03*
X67525000Y5400000D03*
X68025000Y5400000D03*
X68525000Y5400000D03*
X69025000Y5400000D03*
X69525000Y5400000D03*
D28*
X62750000Y3500000D03*
X71800000Y3500000D03*
%TD*%
D29*
%TO.C,MEM1*%
X53087500Y41200000D03*
X53087500Y39600000D03*
X53087500Y38000000D03*
X54587500Y41200000D03*
X54587500Y39600000D03*
X54587500Y38000000D03*
X56087500Y41200000D03*
X56087500Y39600000D03*
X56087500Y38000000D03*
X57587500Y41200000D03*
X57587500Y39600000D03*
X57587500Y38000000D03*
D30*
X51437500Y41505000D03*
X51437500Y40235000D03*
X51437500Y38965000D03*
X51437500Y37695000D03*
X59237500Y37695000D03*
X59237500Y38965000D03*
X59237500Y40235000D03*
X59237500Y41505000D03*
%TD*%
D13*
%TO.C,R7*%
X12487500Y17500000D03*
X14312500Y17500000D03*
%TD*%
D31*
%TO.C,L2*%
X78125000Y35225000D03*
X76075000Y35225000D03*
%TD*%
D10*
%TO.C,C12*%
X28500000Y20300000D03*
X26600000Y20300000D03*
%TD*%
D22*
%TO.C,R2*%
X63000000Y38800000D03*
X61175000Y38800000D03*
%TD*%
D32*
%TO.C,Y1*%
X83000000Y32987500D03*
X87000000Y32987500D03*
X87000000Y35387500D03*
X83000000Y35387500D03*
%TD*%
D21*
%TO.C,C7*%
X22600000Y24450000D03*
X22600000Y22550000D03*
%TD*%
D33*
%TO.C,Q1*%
X22549999Y37984000D03*
X24450001Y37984000D03*
X23500000Y40016000D03*
%TD*%
D34*
%TO.C,L1*%
X87377500Y25450000D03*
X88522500Y25450000D03*
%TD*%
D13*
%TO.C,R12*%
X47375000Y38000000D03*
X49200000Y38000000D03*
%TD*%
D26*
%TO.C,C17*%
X62700000Y40700000D03*
X62700000Y42600000D03*
%TD*%
%TO.C,C16*%
X69150000Y12000000D03*
X69150000Y13900000D03*
%TD*%
D35*
%TO.C,LDO1*%
X27550000Y22980000D03*
X27550000Y24000000D03*
X26700000Y22980000D03*
X26700000Y24000000D03*
D36*
X28575000Y22515000D03*
X28575000Y23165000D03*
X28575000Y23815000D03*
X28575000Y24465000D03*
X25675000Y24465000D03*
X25675000Y23815000D03*
X25675000Y23165000D03*
X25675000Y22515000D03*
%TD*%
D10*
%TO.C,C5*%
X74000000Y31100000D03*
X72100000Y31100000D03*
%TD*%
D37*
%TO.C,J7*%
X7695000Y17570000D03*
X7695000Y16770000D03*
D38*
X7695000Y15570000D03*
X7695000Y14570000D03*
X7695000Y14070000D03*
X7695000Y13070000D03*
D37*
X7695000Y11870000D03*
X7695000Y11070000D03*
X7695000Y11070000D03*
X7695000Y11870000D03*
D38*
X7695000Y12570000D03*
X7695000Y13570000D03*
X7695000Y15070000D03*
X7695000Y16070000D03*
D37*
X7695000Y16770000D03*
X7695000Y17570000D03*
%TD*%
D13*
%TO.C,R10*%
X48387500Y11000000D03*
X50212500Y11000000D03*
%TD*%
D18*
%TO.C,R5*%
X65000000Y20012500D03*
X65000000Y18187500D03*
%TD*%
D26*
%TO.C,C6*%
X89500000Y29050000D03*
X89500000Y30950000D03*
%TD*%
D39*
%TO.C,J3*%
X97000000Y28275000D03*
X97050800Y22625000D03*
D40*
X97000000Y25450000D03*
%TD*%
D22*
%TO.C,R6*%
X20212500Y35300000D03*
X18387500Y35300000D03*
%TD*%
D41*
%TO.C,OS1*%
X71600000Y12000000D03*
X73900000Y12000000D03*
X73900000Y13900000D03*
X71600000Y13900000D03*
%TD*%
D42*
%TO.C,U4*%
X35250000Y32737500D03*
X34300000Y32737500D03*
X33350000Y32737500D03*
X33350000Y30462500D03*
X35250000Y30462500D03*
%TD*%
D43*
%TO.C,D1*%
X18200000Y25200000D03*
X18200000Y19700000D03*
%TD*%
D44*
%TO.C,U5*%
X14937500Y13450000D03*
X14937500Y14400000D03*
X14937500Y15350000D03*
X12662500Y15350000D03*
X12662500Y14400000D03*
X12662500Y13450000D03*
%TD*%
D22*
%TO.C,R9*%
X63000000Y36600000D03*
X61175000Y36600000D03*
%TD*%
D26*
%TO.C,C8*%
X87000000Y29050000D03*
X87000000Y30950000D03*
%TD*%
D10*
%TO.C,C14*%
X74850000Y17800000D03*
X72950000Y17800000D03*
%TD*%
D45*
%TO.C,U2*%
X14500000Y3525000D03*
X14500000Y1925000D03*
X10400000Y1925000D03*
X10400000Y3525000D03*
D46*
X12450000Y4175000D03*
%TD*%
D22*
%TO.C,R3*%
X57562500Y11000000D03*
X55737500Y11000000D03*
%TD*%
D21*
%TO.C,FB2*%
X81150000Y11258372D03*
X81150000Y9358372D03*
%TD*%
D20*
%TO.C,C10*%
X86800000Y21150000D03*
X88700000Y21150000D03*
%TD*%
D12*
%TO.C,C2*%
X89850000Y25417500D03*
X89850000Y24282500D03*
%TD*%
D26*
%TO.C,C11*%
X69500000Y24550000D03*
X69500000Y26450000D03*
%TD*%
D47*
%TO.C,VS1*%
X33400000Y24500000D03*
X33400000Y22440000D03*
X35500000Y23470000D03*
%TD*%
M02*
