%TF.GenerationSoftware,KiCad,Pcbnew,8.0.6*%
%TF.CreationDate,2025-12-15T22:17:44-08:00*%
%TF.ProjectId,Bluetooth_Board,426c7565-746f-46f7-9468-5f426f617264,B*%
%TF.SameCoordinates,PX5f5e100PY7270e00*%
%TF.FileFunction,Copper,L3,Inr*%
%TF.FilePolarity,Positive*%
%FSLAX46Y46*%
G04 Gerber Fmt 4.6, Leading zero omitted, Abs format (unit mm)*
G04 Created by KiCad (PCBNEW 8.0.6) date 2025-12-15 22:17:44*
%MOMM*%
%LPD*%
G01*
G04 APERTURE LIST*
%TA.AperFunction,ComponentPad*%
%ADD10R,1.700000X1.700000*%
%TD*%
%TA.AperFunction,ComponentPad*%
%ADD11O,1.700000X1.700000*%
%TD*%
%TA.AperFunction,ComponentPad*%
%ADD12C,6.400000*%
%TD*%
%TA.AperFunction,ComponentPad*%
%ADD13C,1.650000*%
%TD*%
%TA.AperFunction,ComponentPad*%
%ADD14O,2.100000X1.000000*%
%TD*%
%TA.AperFunction,ComponentPad*%
%ADD15O,1.600000X1.000000*%
%TD*%
%TA.AperFunction,ViaPad*%
%ADD16C,0.700000*%
%TD*%
%TA.AperFunction,Conductor*%
%ADD17C,0.600000*%
%TD*%
%TA.AperFunction,Conductor*%
%ADD18C,0.300000*%
%TD*%
%TA.AperFunction,Conductor*%
%ADD19C,1.000000*%
%TD*%
%TA.AperFunction,Conductor*%
%ADD20C,0.500000*%
%TD*%
%TA.AperFunction,Conductor*%
%ADD21C,0.150000*%
%TD*%
G04 APERTURE END LIST*
D10*
%TO.N,/Interfaces/I2C_SDA_HDR*%
%TO.C,J4*%
X55580000Y7600000D03*
D11*
%TO.N,GND*%
X55580000Y5060000D03*
X53040000Y7600000D03*
X53040000Y5060000D03*
%TO.N,/Interfaces/I2C_SCL_HDR*%
X50500000Y7600000D03*
%TO.N,GND*%
X50500000Y5060000D03*
%TD*%
D10*
%TO.N,GND*%
%TO.C,J5*%
X41900000Y7600000D03*
D11*
X41900000Y5060000D03*
%TO.N,Net-(J5-Pin_3)*%
X39360000Y7600000D03*
%TO.N,GND*%
X39360000Y5060000D03*
X36820000Y7600000D03*
X36820000Y5060000D03*
%TD*%
D10*
%TO.N,+3.3V*%
%TO.C,J1*%
X30440000Y7600000D03*
D11*
%TO.N,/Interfaces/I{slash}O_HDR0*%
X30440000Y5060000D03*
%TO.N,GND*%
X27900000Y7600000D03*
X25360000Y7600000D03*
%TO.N,/Interfaces/I{slash}O_HDR2*%
X25360000Y5060000D03*
%TO.N,GND*%
X22820000Y7600000D03*
%TO.N,/Interfaces/I{slash}O_HDR3*%
X22820000Y5060000D03*
%TO.N,GND*%
X20280000Y7600000D03*
%TO.N,/Interfaces/I{slash}O_HDR4*%
X20280000Y5060000D03*
%TD*%
D10*
%TO.N,GND*%
%TO.C,J24*%
X7540000Y32080000D03*
D11*
X7540000Y34620000D03*
X7540000Y37160000D03*
X7540000Y39700000D03*
%TD*%
D10*
%TO.N,+3.3V*%
%TO.C,J11*%
X45160000Y17300000D03*
D11*
%TO.N,GND*%
X50240000Y17300000D03*
%TD*%
D12*
%TO.N,GND*%
%TO.C,H4*%
X96000000Y4000000D03*
%TD*%
%TO.N,GND*%
%TO.C,H1*%
X4000000Y46000000D03*
%TD*%
D13*
%TO.N,GND*%
%TO.C,JST1*%
X15500000Y41550000D03*
%TD*%
D14*
%TO.N,GND*%
%TO.C,J7*%
X6780000Y18640000D03*
D15*
X2600000Y18640000D03*
D14*
X6780000Y10000000D03*
D15*
X2600000Y10000000D03*
%TD*%
D12*
%TO.N,GND*%
%TO.C,H3*%
X4000000Y4000000D03*
%TD*%
%TO.N,GND*%
%TO.C,H2*%
X96000000Y46000000D03*
%TD*%
D16*
%TO.N,+3.3V*%
X82900000Y6900000D03*
X32500000Y20500000D03*
X64800000Y40700000D03*
X48400000Y13000000D03*
X66900000Y14300000D03*
X88250000Y19200000D03*
X66800000Y24900000D03*
X91600000Y29900000D03*
X74100000Y37700000D03*
X37000000Y29700000D03*
X35500000Y20500000D03*
X72400000Y15800000D03*
X57600000Y12900000D03*
X34100000Y20500000D03*
%TO.N,GND*%
X82900000Y5600000D03*
X81000000Y26000000D03*
X45600000Y36400000D03*
X48900000Y42800000D03*
X44100000Y26800000D03*
X47500000Y8400000D03*
X49150000Y36300000D03*
X93300000Y40000000D03*
X98100000Y36800000D03*
X91500000Y24100000D03*
X86300000Y4900000D03*
X88300000Y6700000D03*
X15800000Y35700000D03*
X80250000Y48850000D03*
X16300000Y6100000D03*
X12700000Y7900000D03*
X49000000Y31000000D03*
X58000000Y27200000D03*
X25400000Y12800000D03*
X59800000Y24700000D03*
X64700000Y26200000D03*
X77400000Y3800000D03*
X58300000Y48850000D03*
X81100000Y5600000D03*
X26800000Y35700000D03*
X78800000Y5500000D03*
X93400000Y28800000D03*
X65650000Y48900000D03*
X26900000Y31200000D03*
X57800000Y19200000D03*
X56200000Y48850000D03*
X70350000Y48900000D03*
X94000000Y15100000D03*
X61050000Y26300000D03*
X13400000Y35700000D03*
X85300000Y42600000D03*
X58000000Y5900000D03*
X34200000Y18000000D03*
X45800000Y23500000D03*
X60600000Y3700000D03*
X89700000Y26900000D03*
X94600000Y32100000D03*
X37900000Y13000000D03*
X83500000Y3900000D03*
X97400000Y16500000D03*
X90000000Y44300000D03*
X48800000Y23500000D03*
X91400000Y12000000D03*
X35900000Y18400000D03*
X88800000Y12400000D03*
X10500000Y35700000D03*
X17400000Y8000000D03*
X29200000Y37400000D03*
X96900000Y41600000D03*
X49400000Y48850000D03*
X46900000Y11600000D03*
X95700000Y36700000D03*
X93400000Y33600000D03*
X50700000Y25000000D03*
X98900000Y42400000D03*
X86900000Y14050000D03*
X94800000Y16600000D03*
X31500000Y29500000D03*
X95800000Y33600000D03*
X76000000Y37700000D03*
X41500000Y23500000D03*
X94600000Y35100000D03*
X50100000Y13000000D03*
X75250000Y48900000D03*
X42700000Y25300000D03*
X91500000Y21700000D03*
X44400000Y29700000D03*
X63100000Y11300000D03*
X65600000Y9000000D03*
X25400000Y18600000D03*
X54000000Y48850000D03*
X66400000Y39700000D03*
X11500000Y19000000D03*
X47100000Y27300000D03*
X16600000Y11200000D03*
X60500000Y31600000D03*
X67337500Y37300000D03*
X65237500Y35450000D03*
X98000000Y40100000D03*
X60750000Y48900000D03*
X84600000Y5600000D03*
X43700000Y40300000D03*
X39600000Y13900000D03*
X86100000Y26900000D03*
X61587500Y34100000D03*
X96100000Y15100000D03*
X92000000Y43800000D03*
X20100000Y12800000D03*
X40500000Y48750000D03*
X77800000Y48900000D03*
X98400000Y8600000D03*
X91400000Y18400000D03*
X86950000Y15850000D03*
X14000000Y9200000D03*
X93500000Y22100000D03*
X63250000Y48900000D03*
X89500000Y34700000D03*
X47600000Y6400000D03*
X84800000Y24500000D03*
X97400000Y13400000D03*
X90100000Y8500000D03*
X93400000Y30700000D03*
X26900000Y29800000D03*
X69500000Y8300000D03*
X80200000Y3900000D03*
X93600000Y18300000D03*
X87900000Y24100000D03*
X87000000Y40700000D03*
X62800000Y26100000D03*
X94800000Y19200000D03*
X66700000Y12200000D03*
X44200000Y42700000D03*
X75900000Y41300000D03*
X71900000Y8400000D03*
X35800000Y11400000D03*
X40600000Y14900000D03*
X91900000Y19900000D03*
X87900000Y26900000D03*
X56100000Y22400000D03*
X84600000Y11600000D03*
X64700000Y34100000D03*
X88700000Y38900000D03*
X89500000Y32900000D03*
X28200000Y10800000D03*
X10200000Y7900000D03*
X45000000Y48850000D03*
X96900000Y35200000D03*
X95700000Y40000000D03*
X72100000Y41200000D03*
X22800000Y17300000D03*
X85300000Y48200000D03*
X38600000Y31400000D03*
X16500000Y14400000D03*
X39300000Y28600000D03*
X35800000Y13000000D03*
X26400000Y40400000D03*
X25200000Y43500000D03*
X98400000Y17800000D03*
X86600000Y22900000D03*
X94400000Y41600000D03*
X28100000Y17400000D03*
X68600000Y17600000D03*
X41600000Y18100000D03*
X66400000Y41700000D03*
X25400000Y10800000D03*
X79250000Y24250000D03*
X22900000Y12800000D03*
X98500000Y15000000D03*
X67950000Y48900000D03*
X20100000Y10700000D03*
X32300000Y11100000D03*
X91500000Y26900000D03*
X67300000Y8400000D03*
X89800000Y46200000D03*
X63000000Y17300000D03*
X45400000Y41700000D03*
X94500000Y38300000D03*
X28200000Y12900000D03*
X74200000Y3600000D03*
X92600000Y41900000D03*
X27500000Y42100000D03*
X87400000Y49000000D03*
X11600000Y9200000D03*
X68500000Y9400000D03*
X30900000Y18200000D03*
X44300000Y31500000D03*
X91400000Y10200000D03*
X83900000Y37600000D03*
X40700000Y27600000D03*
X91000000Y16300000D03*
X83500000Y44200000D03*
X47100000Y25000000D03*
X66800000Y26350000D03*
X98500000Y11800000D03*
X32200000Y12900000D03*
X29600000Y29500000D03*
X85200000Y39300000D03*
X22800000Y10800000D03*
X17800000Y17300000D03*
X51650000Y48850000D03*
X97300000Y10200000D03*
X96100000Y20300000D03*
X96100000Y11800000D03*
X85200000Y7900000D03*
X93500000Y24000000D03*
X96100000Y17800000D03*
X43800000Y37700000D03*
X96900000Y32200000D03*
X89500000Y36600000D03*
X95500000Y13400000D03*
X96800000Y38300000D03*
X28200000Y43700000D03*
X72900000Y48900000D03*
X82500000Y48900000D03*
X83000000Y17500000D03*
X98200000Y20300000D03*
X96000000Y8500000D03*
X73900000Y6100000D03*
X74500000Y15800000D03*
X86800000Y11600000D03*
X89600000Y48300000D03*
X42700000Y48800000D03*
X95900000Y30700000D03*
X89900000Y22800000D03*
X19600000Y17300000D03*
X25400000Y17400000D03*
X75800000Y12300000D03*
X95000000Y10200000D03*
X9800000Y9700000D03*
X90500000Y42300000D03*
X90100000Y19800000D03*
X50700000Y27200000D03*
X28800000Y40400000D03*
X87900000Y44700000D03*
X87000000Y37600000D03*
X87500000Y46900000D03*
X45700000Y43800000D03*
X28400000Y30400000D03*
X91700000Y47700000D03*
X93500000Y20300000D03*
X61600000Y24700000D03*
X61400000Y32700000D03*
X91800000Y28300000D03*
X76000000Y39500000D03*
X52000000Y23700000D03*
X98100000Y30700000D03*
X97200000Y19100000D03*
X91400000Y13900000D03*
X88700000Y10600000D03*
X72150000Y37700000D03*
X72100000Y39400000D03*
X86900000Y9400000D03*
X29700000Y17100000D03*
X30300000Y35900000D03*
X93400000Y26900000D03*
X98100000Y33600000D03*
X47200000Y48850000D03*
X83500000Y40800000D03*
X93200000Y36700000D03*
%TO.N,/Interfaces/NRST*%
X37100000Y17400000D03*
X33800000Y13000000D03*
%TO.N,/STM32WB55CGU6/PA7_QUADSPI_BK1_IO2*%
X88200000Y15000000D03*
X47400000Y36100000D03*
%TO.N,/STM32WB55CGU6/PA6_QUADSPI_BK1_IO3*%
X85900000Y14950000D03*
X65387500Y37050000D03*
%TO.N,/Interfaces/I{slash}O_HDR2*%
X26600000Y17400000D03*
%TO.N,/Interfaces/I{slash}O_HDR0*%
X64400000Y10300000D03*
%TO.N,/Interfaces/I{slash}O_HDR3*%
X24100000Y17400000D03*
%TO.N,/Interfaces/I{slash}O_HDR4*%
X21600000Y17300000D03*
%TD*%
D17*
%TO.N,+3.3V*%
X68400000Y15800000D02*
X72400000Y15800000D01*
X82900000Y6900000D02*
X78500000Y6900000D01*
D18*
X63400000Y24900000D02*
X59500000Y21000000D01*
D17*
X66900000Y14300000D02*
X68400000Y15800000D01*
X89900000Y17550000D02*
X88250000Y19200000D01*
D18*
X48400000Y13000000D02*
X46500000Y13000000D01*
D19*
X64800000Y44200000D02*
X64800000Y40700000D01*
X37000000Y29700000D02*
X37000000Y42100000D01*
X69900000Y45900000D02*
X84600000Y45900000D01*
D20*
X32500000Y20500000D02*
X32500000Y15900000D01*
D17*
X78500000Y6900000D02*
X72400000Y13000000D01*
D20*
X30440000Y13840000D02*
X30440000Y7600000D01*
D19*
X74100000Y41700000D02*
X74100000Y37700000D01*
D18*
X46500000Y13000000D02*
X45160000Y14340000D01*
D19*
X63100000Y45900000D02*
X69900000Y45900000D01*
D17*
X72400000Y13000000D02*
X72400000Y15800000D01*
X86800000Y6900000D02*
X89900000Y10000000D01*
D19*
X37000000Y42100000D02*
X40800000Y45900000D01*
X35500000Y20500000D02*
X37000000Y22000000D01*
D17*
X89900000Y10000000D02*
X89900000Y17550000D01*
D18*
X59500000Y21000000D02*
X59500000Y14800000D01*
D19*
X91600000Y38900000D02*
X91600000Y29900000D01*
X40800000Y45900000D02*
X63100000Y45900000D01*
X84600000Y45900000D02*
X91600000Y38900000D01*
X63100000Y45900000D02*
X64800000Y44200000D01*
D18*
X45160000Y14340000D02*
X45160000Y17300000D01*
D19*
X69900000Y45900000D02*
X74100000Y41700000D01*
D18*
X66800000Y24900000D02*
X63400000Y24900000D01*
D20*
X32500000Y15900000D02*
X30440000Y13840000D01*
D19*
X37000000Y22000000D02*
X37000000Y29700000D01*
D18*
X59500000Y14800000D02*
X57600000Y12900000D01*
D17*
X82900000Y6900000D02*
X86800000Y6900000D01*
D21*
%TO.N,/Interfaces/NRST*%
X35500000Y17400000D02*
X33800000Y15700000D01*
X37100000Y17400000D02*
X35500000Y17400000D01*
X33800000Y15700000D02*
X33800000Y13000000D01*
%TO.N,/STM32WB55CGU6/PA7_QUADSPI_BK1_IO2*%
X47400000Y30650000D02*
X47400000Y36100000D01*
X69350000Y24550000D02*
X69350000Y28400000D01*
X68500000Y29250000D02*
X48800000Y29250000D01*
X88200000Y13750000D02*
X87350000Y12900000D01*
X48800000Y29250000D02*
X47400000Y30650000D01*
X76200000Y14600000D02*
X76200000Y17700000D01*
X87350000Y12900000D02*
X77900000Y12900000D01*
X69350000Y28400000D02*
X68500000Y29250000D01*
X77900000Y12900000D02*
X76200000Y14600000D01*
X76200000Y17700000D02*
X69350000Y24550000D01*
X88200000Y15000000D02*
X88200000Y13750000D01*
%TO.N,/STM32WB55CGU6/PA6_QUADSPI_BK1_IO3*%
X65387500Y37050000D02*
X66537500Y35900000D01*
X69300000Y35900000D02*
X70150000Y35050000D01*
X70150000Y35050000D02*
X70150000Y25250000D01*
X78700000Y14200000D02*
X85150000Y14200000D01*
X77400000Y18000000D02*
X77400000Y15500000D01*
X70150000Y25250000D02*
X77400000Y18000000D01*
X77400000Y15500000D02*
X78700000Y14200000D01*
X66537500Y35900000D02*
X69300000Y35900000D01*
X85150000Y14200000D02*
X85900000Y14950000D01*
%TO.N,/Interfaces/I{slash}O_HDR2*%
X26600000Y17400000D02*
X26600000Y6300000D01*
X26600000Y6300000D02*
X25360000Y5060000D01*
%TO.N,/Interfaces/I{slash}O_HDR0*%
X57100000Y10300000D02*
X34600000Y10300000D01*
X32560000Y5060000D02*
X30440000Y5060000D01*
X64400000Y10300000D02*
X62900000Y8800000D01*
X34600000Y10300000D02*
X33500000Y9200000D01*
X58600000Y8800000D02*
X57100000Y10300000D01*
X62900000Y8800000D02*
X58600000Y8800000D01*
X33500000Y6000000D02*
X32560000Y5060000D01*
X33500000Y9200000D02*
X33500000Y6000000D01*
%TO.N,/Interfaces/I{slash}O_HDR3*%
X24100000Y17400000D02*
X24100000Y6340000D01*
X24100000Y6340000D02*
X22820000Y5060000D01*
%TO.N,/Interfaces/I{slash}O_HDR4*%
X21600000Y17300000D02*
X21600000Y6380000D01*
X21600000Y6380000D02*
X20280000Y5060000D01*
%TD*%
%TA.AperFunction,Conductor*%
%TO.N,GND*%
G36*
X38894075Y5252993D02*
G01*
X38860000Y5125826D01*
X38860000Y4994174D01*
X38894075Y4867007D01*
X38926988Y4810000D01*
X37253012Y4810000D01*
X37285925Y4867007D01*
X37320000Y4994174D01*
X37320000Y5125826D01*
X37285925Y5252993D01*
X37253012Y5310000D01*
X38926988Y5310000D01*
X38894075Y5252993D01*
G37*
%TD.AperFunction*%
%TA.AperFunction,Conductor*%
G36*
X41434075Y5252993D02*
G01*
X41400000Y5125826D01*
X41400000Y4994174D01*
X41434075Y4867007D01*
X41466988Y4810000D01*
X39793012Y4810000D01*
X39825925Y4867007D01*
X39860000Y4994174D01*
X39860000Y5125826D01*
X39825925Y5252993D01*
X39793012Y5310000D01*
X41466988Y5310000D01*
X41434075Y5252993D01*
G37*
%TD.AperFunction*%
%TA.AperFunction,Conductor*%
G36*
X37070000Y5493012D02*
G01*
X37012993Y5525925D01*
X36885826Y5560000D01*
X36754174Y5560000D01*
X36627007Y5525925D01*
X36570000Y5493012D01*
X36570000Y7166988D01*
X36627007Y7134075D01*
X36754174Y7100000D01*
X36885826Y7100000D01*
X37012993Y7134075D01*
X37070000Y7166988D01*
X37070000Y5493012D01*
G37*
%TD.AperFunction*%
%TA.AperFunction,Conductor*%
G36*
X42150000Y5493012D02*
G01*
X42092993Y5525925D01*
X41965826Y5560000D01*
X41834174Y5560000D01*
X41707007Y5525925D01*
X41650000Y5493012D01*
X41650000Y7166988D01*
X41707007Y7134075D01*
X41834174Y7100000D01*
X41965826Y7100000D01*
X42092993Y7134075D01*
X42150000Y7166988D01*
X42150000Y5493012D01*
G37*
%TD.AperFunction*%
%TA.AperFunction,Conductor*%
G36*
X52574075Y5252993D02*
G01*
X52540000Y5125826D01*
X52540000Y4994174D01*
X52574075Y4867007D01*
X52606988Y4810000D01*
X50933012Y4810000D01*
X50965925Y4867007D01*
X51000000Y4994174D01*
X51000000Y5125826D01*
X50965925Y5252993D01*
X50933012Y5310000D01*
X52606988Y5310000D01*
X52574075Y5252993D01*
G37*
%TD.AperFunction*%
%TA.AperFunction,Conductor*%
G36*
X55114075Y5252993D02*
G01*
X55080000Y5125826D01*
X55080000Y4994174D01*
X55114075Y4867007D01*
X55146988Y4810000D01*
X53473012Y4810000D01*
X53505925Y4867007D01*
X53540000Y4994174D01*
X53540000Y5125826D01*
X53505925Y5252993D01*
X53473012Y5310000D01*
X55146988Y5310000D01*
X55114075Y5252993D01*
G37*
%TD.AperFunction*%
%TA.AperFunction,Conductor*%
G36*
X53290000Y5493012D02*
G01*
X53232993Y5525925D01*
X53105826Y5560000D01*
X52974174Y5560000D01*
X52847007Y5525925D01*
X52790000Y5493012D01*
X52790000Y7166988D01*
X52847007Y7134075D01*
X52974174Y7100000D01*
X53105826Y7100000D01*
X53232993Y7134075D01*
X53290000Y7166988D01*
X53290000Y5493012D01*
G37*
%TD.AperFunction*%
%TA.AperFunction,Conductor*%
G36*
X21117539Y7830315D02*
G01*
X21163294Y7777511D01*
X21174500Y7726000D01*
X21174500Y7474000D01*
X21154815Y7406961D01*
X21102011Y7361206D01*
X21050500Y7350000D01*
X20713012Y7350000D01*
X20745925Y7407007D01*
X20780000Y7534174D01*
X20780000Y7665826D01*
X20745925Y7792993D01*
X20713012Y7850000D01*
X21050500Y7850000D01*
X21117539Y7830315D01*
G37*
%TD.AperFunction*%
%TA.AperFunction,Conductor*%
G36*
X22354075Y7792993D02*
G01*
X22320000Y7665826D01*
X22320000Y7534174D01*
X22354075Y7407007D01*
X22386988Y7350000D01*
X22149500Y7350000D01*
X22082461Y7369685D01*
X22036706Y7422489D01*
X22025500Y7474000D01*
X22025500Y7726000D01*
X22045185Y7793039D01*
X22097989Y7838794D01*
X22149500Y7850000D01*
X22386988Y7850000D01*
X22354075Y7792993D01*
G37*
%TD.AperFunction*%
%TA.AperFunction,Conductor*%
G36*
X23617539Y7830315D02*
G01*
X23663294Y7777511D01*
X23674500Y7726000D01*
X23674500Y7474000D01*
X23654815Y7406961D01*
X23602011Y7361206D01*
X23550500Y7350000D01*
X23253012Y7350000D01*
X23285925Y7407007D01*
X23320000Y7534174D01*
X23320000Y7665826D01*
X23285925Y7792993D01*
X23253012Y7850000D01*
X23550500Y7850000D01*
X23617539Y7830315D01*
G37*
%TD.AperFunction*%
%TA.AperFunction,Conductor*%
G36*
X24894075Y7792993D02*
G01*
X24860000Y7665826D01*
X24860000Y7534174D01*
X24894075Y7407007D01*
X24926988Y7350000D01*
X24649500Y7350000D01*
X24582461Y7369685D01*
X24536706Y7422489D01*
X24525500Y7474000D01*
X24525500Y7726000D01*
X24545185Y7793039D01*
X24597989Y7838794D01*
X24649500Y7850000D01*
X24926988Y7850000D01*
X24894075Y7792993D01*
G37*
%TD.AperFunction*%
%TA.AperFunction,Conductor*%
G36*
X26117539Y7830315D02*
G01*
X26163294Y7777511D01*
X26174500Y7726000D01*
X26174500Y7474000D01*
X26154815Y7406961D01*
X26102011Y7361206D01*
X26050500Y7350000D01*
X25793012Y7350000D01*
X25825925Y7407007D01*
X25860000Y7534174D01*
X25860000Y7665826D01*
X25825925Y7792993D01*
X25793012Y7850000D01*
X26050500Y7850000D01*
X26117539Y7830315D01*
G37*
%TD.AperFunction*%
%TA.AperFunction,Conductor*%
G36*
X27434075Y7792993D02*
G01*
X27400000Y7665826D01*
X27400000Y7534174D01*
X27434075Y7407007D01*
X27466988Y7350000D01*
X27149500Y7350000D01*
X27082461Y7369685D01*
X27036706Y7422489D01*
X27025500Y7474000D01*
X27025500Y7726000D01*
X27045185Y7793039D01*
X27097989Y7838794D01*
X27149500Y7850000D01*
X27466988Y7850000D01*
X27434075Y7792993D01*
G37*
%TD.AperFunction*%
%TA.AperFunction,Conductor*%
G36*
X7790000Y32513012D02*
G01*
X7732993Y32545925D01*
X7605826Y32580000D01*
X7474174Y32580000D01*
X7347007Y32545925D01*
X7290000Y32513012D01*
X7290000Y34186988D01*
X7347007Y34154075D01*
X7474174Y34120000D01*
X7605826Y34120000D01*
X7732993Y34154075D01*
X7790000Y34186988D01*
X7790000Y32513012D01*
G37*
%TD.AperFunction*%
%TA.AperFunction,Conductor*%
G36*
X7790000Y35053012D02*
G01*
X7732993Y35085925D01*
X7605826Y35120000D01*
X7474174Y35120000D01*
X7347007Y35085925D01*
X7290000Y35053012D01*
X7290000Y36726988D01*
X7347007Y36694075D01*
X7474174Y36660000D01*
X7605826Y36660000D01*
X7732993Y36694075D01*
X7790000Y36726988D01*
X7790000Y35053012D01*
G37*
%TD.AperFunction*%
%TA.AperFunction,Conductor*%
G36*
X7790000Y37593012D02*
G01*
X7732993Y37625925D01*
X7605826Y37660000D01*
X7474174Y37660000D01*
X7347007Y37625925D01*
X7290000Y37593012D01*
X7290000Y39266988D01*
X7347007Y39234075D01*
X7474174Y39200000D01*
X7605826Y39200000D01*
X7732993Y39234075D01*
X7790000Y39266988D01*
X7790000Y37593012D01*
G37*
%TD.AperFunction*%
%TA.AperFunction,Conductor*%
G36*
X94710937Y49679815D02*
G01*
X94756692Y49627011D01*
X94766636Y49557853D01*
X94737611Y49494297D01*
X94688336Y49459736D01*
X94493005Y49384756D01*
X94147456Y49208690D01*
X93822206Y48997469D01*
X93564648Y48788905D01*
X93564648Y48788904D01*
X95059301Y47294252D01*
X94957670Y47220412D01*
X94779588Y47042330D01*
X94705748Y46940700D01*
X93211096Y48435352D01*
X93211095Y48435352D01*
X93002531Y48177794D01*
X92791310Y47852544D01*
X92615244Y47506995D01*
X92476262Y47144937D01*
X92375887Y46770331D01*
X92375886Y46770324D01*
X92315219Y46387288D01*
X92294922Y46000001D01*
X92294922Y46000000D01*
X92315219Y45612713D01*
X92375886Y45229677D01*
X92375887Y45229670D01*
X92476262Y44855064D01*
X92615244Y44493006D01*
X92791310Y44147457D01*
X93002531Y43822207D01*
X93211095Y43564650D01*
X93211096Y43564650D01*
X94705748Y45059302D01*
X94779588Y44957670D01*
X94957670Y44779588D01*
X95059300Y44705749D01*
X93564648Y43211097D01*
X93564649Y43211096D01*
X93822206Y43002532D01*
X94147456Y42791311D01*
X94493005Y42615245D01*
X94855063Y42476263D01*
X95229669Y42375888D01*
X95229676Y42375887D01*
X95612712Y42315220D01*
X95999999Y42294922D01*
X96000001Y42294922D01*
X96387287Y42315220D01*
X96770323Y42375887D01*
X96770330Y42375888D01*
X97144936Y42476263D01*
X97506994Y42615245D01*
X97852543Y42791311D01*
X98177783Y43002524D01*
X98177785Y43002525D01*
X98435349Y43211098D01*
X96940698Y44705749D01*
X97042330Y44779588D01*
X97220412Y44957670D01*
X97294251Y45059302D01*
X98788902Y43564651D01*
X98997475Y43822215D01*
X98997476Y43822217D01*
X99208689Y44147457D01*
X99384755Y44493006D01*
X99459735Y44688334D01*
X99502137Y44743866D01*
X99567831Y44767659D01*
X99635959Y44752157D01*
X99684892Y44702284D01*
X99699499Y44643896D01*
X99699499Y5356105D01*
X99679814Y5289066D01*
X99627010Y5243311D01*
X99557852Y5233367D01*
X99494296Y5262392D01*
X99459735Y5311667D01*
X99384755Y5506995D01*
X99208689Y5852544D01*
X98997468Y6177794D01*
X98788904Y6435351D01*
X98788903Y6435352D01*
X97294251Y4940700D01*
X97220412Y5042330D01*
X97042330Y5220412D01*
X96940698Y5294252D01*
X98435350Y6788904D01*
X98435350Y6788905D01*
X98177793Y6997469D01*
X97852543Y7208690D01*
X97506994Y7384756D01*
X97144936Y7523738D01*
X96770330Y7624113D01*
X96770323Y7624114D01*
X96387287Y7684781D01*
X96000001Y7705078D01*
X95999999Y7705078D01*
X95612712Y7684781D01*
X95229676Y7624114D01*
X95229669Y7624113D01*
X94855063Y7523738D01*
X94493005Y7384756D01*
X94147456Y7208690D01*
X93822206Y6997469D01*
X93564648Y6788905D01*
X93564648Y6788904D01*
X95059301Y5294252D01*
X94957670Y5220412D01*
X94779588Y5042330D01*
X94705748Y4940700D01*
X93211096Y6435352D01*
X93211095Y6435352D01*
X93002531Y6177794D01*
X92791310Y5852544D01*
X92615244Y5506995D01*
X92476262Y5144937D01*
X92375887Y4770331D01*
X92375886Y4770324D01*
X92315219Y4387288D01*
X92294922Y4000001D01*
X92294922Y4000000D01*
X92315219Y3612713D01*
X92375886Y3229677D01*
X92375887Y3229670D01*
X92476262Y2855064D01*
X92615244Y2493006D01*
X92791310Y2147457D01*
X93002531Y1822207D01*
X93211095Y1564650D01*
X93211096Y1564650D01*
X94705748Y3059302D01*
X94779588Y2957670D01*
X94957670Y2779588D01*
X95059300Y2705749D01*
X93564648Y1211097D01*
X93564649Y1211096D01*
X93822206Y1002532D01*
X94147456Y791311D01*
X94493005Y615245D01*
X94688336Y540264D01*
X94743868Y497862D01*
X94767661Y432168D01*
X94752159Y364040D01*
X94702286Y315107D01*
X94643898Y300500D01*
X5356102Y300500D01*
X5289063Y320185D01*
X5243308Y372989D01*
X5233364Y442147D01*
X5262389Y505703D01*
X5311664Y540264D01*
X5506994Y615245D01*
X5852543Y791311D01*
X6177783Y1002524D01*
X6177785Y1002525D01*
X6435349Y1211098D01*
X4940698Y2705749D01*
X5042330Y2779588D01*
X5220412Y2957670D01*
X5294251Y3059302D01*
X6788902Y1564651D01*
X6997475Y1822215D01*
X6997476Y1822217D01*
X7208689Y2147457D01*
X7384755Y2493006D01*
X7523737Y2855064D01*
X7624112Y3229670D01*
X7624113Y3229677D01*
X7684780Y3612713D01*
X7705078Y4000000D01*
X7705078Y4000001D01*
X7684780Y4387288D01*
X7624113Y4770324D01*
X7624112Y4770331D01*
X7523737Y5144937D01*
X7384755Y5506995D01*
X7208689Y5852544D01*
X6997468Y6177794D01*
X6788904Y6435351D01*
X6788903Y6435352D01*
X5294251Y4940700D01*
X5220412Y5042330D01*
X5042330Y5220412D01*
X4940698Y5294252D01*
X6435350Y6788904D01*
X6435350Y6788905D01*
X6177793Y6997469D01*
X5852543Y7208690D01*
X5506994Y7384756D01*
X5144936Y7523738D01*
X4770330Y7624113D01*
X4770323Y7624114D01*
X4387287Y7684781D01*
X4000001Y7705078D01*
X3999999Y7705078D01*
X3612712Y7684781D01*
X3229676Y7624114D01*
X3229669Y7624113D01*
X2855063Y7523738D01*
X2493005Y7384756D01*
X2147456Y7208690D01*
X1822206Y6997469D01*
X1564648Y6788905D01*
X1564648Y6788904D01*
X3059301Y5294252D01*
X2957670Y5220412D01*
X2779588Y5042330D01*
X2705748Y4940700D01*
X1211096Y6435352D01*
X1211095Y6435352D01*
X1002531Y6177794D01*
X791310Y5852544D01*
X615244Y5506995D01*
X540264Y5311665D01*
X497862Y5256133D01*
X432168Y5232340D01*
X364039Y5247842D01*
X315107Y5297715D01*
X300500Y5356103D01*
X300500Y8000000D01*
X14844353Y8000000D01*
X14864834Y7857544D01*
X14881278Y7821538D01*
X14924623Y7726627D01*
X15018872Y7617857D01*
X15139947Y7540047D01*
X15139950Y7540046D01*
X15139949Y7540046D01*
X15278036Y7499501D01*
X15278038Y7499500D01*
X15278039Y7499500D01*
X15421962Y7499500D01*
X15421962Y7499501D01*
X15560053Y7540047D01*
X15681128Y7617857D01*
X15775377Y7726627D01*
X15831721Y7850001D01*
X18949364Y7850001D01*
X18949364Y7850000D01*
X19846988Y7850000D01*
X19814075Y7792993D01*
X19780000Y7665826D01*
X19780000Y7534174D01*
X19814075Y7407007D01*
X19846988Y7350000D01*
X18949364Y7350000D01*
X19006567Y7136514D01*
X19006570Y7136508D01*
X19106399Y6922422D01*
X19241894Y6728918D01*
X19408917Y6561895D01*
X19602421Y6426400D01*
X19739464Y6362496D01*
X19791903Y6316324D01*
X19811055Y6249130D01*
X19790839Y6182249D01*
X19746906Y6143180D01*
X19747473Y6142265D01*
X19553439Y6022126D01*
X19553437Y6022124D01*
X19389020Y5872239D01*
X19254943Y5694692D01*
X19254938Y5694684D01*
X19155775Y5495539D01*
X19155769Y5495524D01*
X19094885Y5281538D01*
X19094884Y5281536D01*
X19074357Y5060001D01*
X19074357Y5060000D01*
X19094884Y4838465D01*
X19094885Y4838463D01*
X19155769Y4624477D01*
X19155775Y4624462D01*
X19254938Y4425317D01*
X19254943Y4425309D01*
X19389020Y4247762D01*
X19507180Y4140046D01*
X19551655Y4099501D01*
X19553437Y4097877D01*
X19553439Y4097875D01*
X19742595Y3980755D01*
X19742596Y3980755D01*
X19742599Y3980753D01*
X19950060Y3900382D01*
X20168757Y3859500D01*
X20168759Y3859500D01*
X20391241Y3859500D01*
X20391243Y3859500D01*
X20609940Y3900382D01*
X20817401Y3980753D01*
X21006562Y4097876D01*
X21170981Y4247764D01*
X21305058Y4425311D01*
X21404229Y4624472D01*
X21411620Y4650452D01*
X21412726Y4654125D01*
X21432936Y4717543D01*
X21472045Y4775439D01*
X21536248Y4803002D01*
X21605161Y4791478D01*
X21656904Y4744526D01*
X21670347Y4713827D01*
X21695770Y4624475D01*
X21695775Y4624462D01*
X21794938Y4425317D01*
X21794943Y4425309D01*
X21929020Y4247762D01*
X22047180Y4140046D01*
X22091655Y4099501D01*
X22093437Y4097877D01*
X22093439Y4097875D01*
X22282595Y3980755D01*
X22282596Y3980755D01*
X22282599Y3980753D01*
X22490060Y3900382D01*
X22708757Y3859500D01*
X22708759Y3859500D01*
X22931241Y3859500D01*
X22931243Y3859500D01*
X23149940Y3900382D01*
X23357401Y3980753D01*
X23546562Y4097876D01*
X23710981Y4247764D01*
X23845058Y4425311D01*
X23944229Y4624472D01*
X23951620Y4650452D01*
X23952726Y4654125D01*
X23972936Y4717543D01*
X24012045Y4775439D01*
X24076248Y4803002D01*
X24145161Y4791478D01*
X24196904Y4744526D01*
X24210347Y4713827D01*
X24235770Y4624475D01*
X24235775Y4624462D01*
X24334938Y4425317D01*
X24334943Y4425309D01*
X24469020Y4247762D01*
X24587180Y4140046D01*
X24631655Y4099501D01*
X24633437Y4097877D01*
X24633439Y4097875D01*
X24822595Y3980755D01*
X24822596Y3980755D01*
X24822599Y3980753D01*
X25030060Y3900382D01*
X25248757Y3859500D01*
X25248759Y3859500D01*
X25471241Y3859500D01*
X25471243Y3859500D01*
X25689940Y3900382D01*
X25897401Y3980753D01*
X26086562Y4097876D01*
X26250981Y4247764D01*
X26385058Y4425311D01*
X26484229Y4624472D01*
X26491620Y4650452D01*
X26492726Y4654125D01*
X26648759Y5143772D01*
X27049500Y5143772D01*
X27049500Y4976229D01*
X27082182Y4811926D01*
X27082184Y4811918D01*
X27146295Y4657140D01*
X27239373Y4517838D01*
X27357837Y4399374D01*
X27450494Y4337463D01*
X27497137Y4306297D01*
X27651918Y4242184D01*
X27816228Y4209501D01*
X27816232Y4209500D01*
X27816233Y4209500D01*
X27983768Y4209500D01*
X27983769Y4209501D01*
X28148082Y4242184D01*
X28302863Y4306297D01*
X28442162Y4399374D01*
X28560626Y4517838D01*
X28653703Y4657137D01*
X28717816Y4811918D01*
X28750500Y4976233D01*
X28750500Y5143767D01*
X28717816Y5308082D01*
X28653703Y5462863D01*
X28562071Y5600000D01*
X28560626Y5602163D01*
X28442162Y5720627D01*
X28302860Y5813705D01*
X28148082Y5877816D01*
X28148074Y5877818D01*
X27983771Y5910500D01*
X27983767Y5910500D01*
X27816233Y5910500D01*
X27816228Y5910500D01*
X27651925Y5877818D01*
X27651917Y5877816D01*
X27497139Y5813705D01*
X27357837Y5720627D01*
X27239373Y5602163D01*
X27146295Y5462861D01*
X27082184Y5308083D01*
X27082182Y5308075D01*
X27049500Y5143772D01*
X26648759Y5143772D01*
X26922738Y6003541D01*
X26937216Y6031238D01*
X26936421Y6031697D01*
X26965546Y6082144D01*
X26996503Y6135763D01*
X27025500Y6243982D01*
X27025500Y6326084D01*
X27045185Y6393123D01*
X27097989Y6438878D01*
X27167147Y6448822D01*
X27217585Y6428861D01*
X27217729Y6429109D01*
X27219409Y6428139D01*
X27220627Y6427657D01*
X27222422Y6426400D01*
X27436507Y6326571D01*
X27436516Y6326567D01*
X27650000Y6269366D01*
X27650000Y7166988D01*
X27707007Y7134075D01*
X27834174Y7100000D01*
X27965826Y7100000D01*
X28092993Y7134075D01*
X28150000Y7166988D01*
X28150000Y6269367D01*
X28363483Y6326567D01*
X28363492Y6326571D01*
X28577578Y6426400D01*
X28771082Y6561895D01*
X28938105Y6728918D01*
X29013925Y6837198D01*
X29068502Y6880823D01*
X29138001Y6888015D01*
X29200355Y6856493D01*
X29235769Y6796263D01*
X29239500Y6766074D01*
X29239500Y6716740D01*
X29249426Y6648609D01*
X29300803Y6543515D01*
X29383514Y6460804D01*
X29383515Y6460804D01*
X29383517Y6460802D01*
X29488607Y6409427D01*
X29513974Y6405731D01*
X29556739Y6399500D01*
X29911047Y6399500D01*
X29978086Y6379815D01*
X30023841Y6327011D01*
X30033785Y6257853D01*
X30004760Y6194297D01*
X29955841Y6159873D01*
X29902601Y6139249D01*
X29902595Y6139246D01*
X29713439Y6022126D01*
X29713437Y6022124D01*
X29549020Y5872239D01*
X29414943Y5694692D01*
X29414938Y5694684D01*
X29315775Y5495539D01*
X29315769Y5495524D01*
X29254885Y5281538D01*
X29254884Y5281536D01*
X29234357Y5060001D01*
X29234357Y5060000D01*
X29254884Y4838465D01*
X29254885Y4838463D01*
X29315769Y4624477D01*
X29315775Y4624462D01*
X29414938Y4425317D01*
X29414943Y4425309D01*
X29549020Y4247762D01*
X29667180Y4140046D01*
X29711655Y4099501D01*
X29713437Y4097877D01*
X29713439Y4097875D01*
X29902595Y3980755D01*
X29902596Y3980755D01*
X29902599Y3980753D01*
X30110060Y3900382D01*
X30328757Y3859500D01*
X30328759Y3859500D01*
X30551241Y3859500D01*
X30551243Y3859500D01*
X30769940Y3900382D01*
X30913970Y3956181D01*
X30920739Y3958579D01*
X30932910Y3962500D01*
X30939763Y3964706D01*
X30943973Y3966882D01*
X30945180Y3967505D01*
X30957312Y3972971D01*
X30977401Y3980753D01*
X31006496Y3998770D01*
X31014838Y4003498D01*
X32162561Y4596508D01*
X32209313Y4620664D01*
X32266233Y4634500D01*
X32616016Y4634500D01*
X32616018Y4634500D01*
X32724237Y4663497D01*
X32821263Y4719515D01*
X33840485Y5738737D01*
X33896503Y5835763D01*
X33925500Y5943982D01*
X33925500Y6056019D01*
X33925500Y7850001D01*
X35489364Y7850001D01*
X35489364Y7850000D01*
X36386988Y7850000D01*
X36354075Y7792993D01*
X36320000Y7665826D01*
X36320000Y7534174D01*
X36354075Y7407007D01*
X36386988Y7350000D01*
X35489364Y7350000D01*
X35546567Y7136514D01*
X35546570Y7136508D01*
X35646399Y6922422D01*
X35781894Y6728918D01*
X35948917Y6561895D01*
X36135031Y6431575D01*
X36178656Y6376997D01*
X36185848Y6307499D01*
X36154326Y6245144D01*
X36135031Y6228425D01*
X35948922Y6098110D01*
X35948920Y6098109D01*
X35781891Y5931080D01*
X35781886Y5931074D01*
X35646400Y5737580D01*
X35646399Y5737578D01*
X35546570Y5523493D01*
X35546567Y5523487D01*
X35489364Y5310001D01*
X35489364Y5310000D01*
X36386988Y5310000D01*
X36354075Y5252993D01*
X36320000Y5125826D01*
X36320000Y4994174D01*
X36354075Y4867007D01*
X36386988Y4810000D01*
X35489364Y4810000D01*
X35546567Y4596514D01*
X35546570Y4596508D01*
X35646399Y4382422D01*
X35781894Y4188918D01*
X35948917Y4021895D01*
X36142421Y3886400D01*
X36356507Y3786571D01*
X36356516Y3786567D01*
X36570000Y3729366D01*
X36570000Y4626988D01*
X36627007Y4594075D01*
X36754174Y4560000D01*
X36885826Y4560000D01*
X37012993Y4594075D01*
X37070000Y4626988D01*
X37070000Y3729366D01*
X37283483Y3786567D01*
X37283492Y3786571D01*
X37497578Y3886400D01*
X37691082Y4021895D01*
X37858105Y4188918D01*
X37988425Y4375032D01*
X38043002Y4418656D01*
X38112501Y4425849D01*
X38174855Y4394327D01*
X38191575Y4375032D01*
X38321894Y4188918D01*
X38488917Y4021895D01*
X38682421Y3886400D01*
X38896507Y3786571D01*
X38896516Y3786567D01*
X39110000Y3729366D01*
X39110000Y4626988D01*
X39167007Y4594075D01*
X39294174Y4560000D01*
X39425826Y4560000D01*
X39552993Y4594075D01*
X39610000Y4626988D01*
X39610000Y3729367D01*
X39823483Y3786567D01*
X39823492Y3786571D01*
X40037578Y3886400D01*
X40231082Y4021895D01*
X40398105Y4188918D01*
X40528425Y4375032D01*
X40583002Y4418656D01*
X40652501Y4425849D01*
X40714855Y4394327D01*
X40731575Y4375032D01*
X40861894Y4188918D01*
X41028917Y4021895D01*
X41222421Y3886400D01*
X41436507Y3786571D01*
X41436516Y3786567D01*
X41650000Y3729366D01*
X41650000Y4626988D01*
X41707007Y4594075D01*
X41834174Y4560000D01*
X41965826Y4560000D01*
X42092993Y4594075D01*
X42150000Y4626988D01*
X42150000Y3729367D01*
X42363483Y3786567D01*
X42363492Y3786571D01*
X42577578Y3886400D01*
X42771082Y4021895D01*
X42938105Y4188918D01*
X43073600Y4382422D01*
X43173429Y4596508D01*
X43173432Y4596514D01*
X43230636Y4810000D01*
X42333012Y4810000D01*
X42365925Y4867007D01*
X42400000Y4994174D01*
X42400000Y5125826D01*
X42365925Y5252993D01*
X42333012Y5310000D01*
X43230636Y5310000D01*
X43230635Y5310001D01*
X49169364Y5310001D01*
X49169364Y5310000D01*
X50066988Y5310000D01*
X50034075Y5252993D01*
X50000000Y5125826D01*
X50000000Y4994174D01*
X50034075Y4867007D01*
X50066988Y4810000D01*
X49169364Y4810000D01*
X49226567Y4596514D01*
X49226570Y4596508D01*
X49326399Y4382422D01*
X49461894Y4188918D01*
X49628917Y4021895D01*
X49822421Y3886400D01*
X50036507Y3786571D01*
X50036516Y3786567D01*
X50250000Y3729366D01*
X50250000Y4626988D01*
X50307007Y4594075D01*
X50434174Y4560000D01*
X50565826Y4560000D01*
X50692993Y4594075D01*
X50750000Y4626988D01*
X50750000Y3729367D01*
X50963483Y3786567D01*
X50963492Y3786571D01*
X51177578Y3886400D01*
X51371082Y4021895D01*
X51538105Y4188918D01*
X51668425Y4375032D01*
X51723002Y4418656D01*
X51792501Y4425849D01*
X51854855Y4394327D01*
X51871575Y4375032D01*
X52001894Y4188918D01*
X52168917Y4021895D01*
X52362421Y3886400D01*
X52576507Y3786571D01*
X52576516Y3786567D01*
X52790000Y3729366D01*
X52790000Y4626988D01*
X52847007Y4594075D01*
X52974174Y4560000D01*
X53105826Y4560000D01*
X53232993Y4594075D01*
X53290000Y4626988D01*
X53290000Y3729366D01*
X53503483Y3786567D01*
X53503492Y3786571D01*
X53717578Y3886400D01*
X53911082Y4021895D01*
X54078105Y4188918D01*
X54208425Y4375032D01*
X54263002Y4418656D01*
X54332501Y4425849D01*
X54394855Y4394327D01*
X54411575Y4375032D01*
X54541894Y4188918D01*
X54708917Y4021895D01*
X54902421Y3886400D01*
X55116507Y3786571D01*
X55116516Y3786567D01*
X55330000Y3729366D01*
X55330000Y4626988D01*
X55387007Y4594075D01*
X55514174Y4560000D01*
X55645826Y4560000D01*
X55772993Y4594075D01*
X55830000Y4626988D01*
X55830000Y3729366D01*
X56043483Y3786567D01*
X56043492Y3786571D01*
X56257578Y3886400D01*
X56451082Y4021895D01*
X56618105Y4188918D01*
X56753600Y4382422D01*
X56853429Y4596508D01*
X56853432Y4596514D01*
X56854366Y4600000D01*
X58794353Y4600000D01*
X58814834Y4457544D01*
X58849142Y4382422D01*
X58874623Y4326627D01*
X58968872Y4217857D01*
X59089947Y4140047D01*
X59089950Y4140046D01*
X59089949Y4140046D01*
X59228036Y4099501D01*
X59228038Y4099500D01*
X59228039Y4099500D01*
X59371962Y4099500D01*
X59371962Y4099501D01*
X59510053Y4140047D01*
X59631128Y4217857D01*
X59725377Y4326627D01*
X59785165Y4457543D01*
X59805647Y4600000D01*
X59785165Y4742457D01*
X59725377Y4873373D01*
X59631128Y4982143D01*
X59510053Y5059953D01*
X59510051Y5059954D01*
X59510049Y5059955D01*
X59510050Y5059955D01*
X59371963Y5100500D01*
X59371961Y5100500D01*
X59228039Y5100500D01*
X59228036Y5100500D01*
X59089949Y5059955D01*
X58968873Y4982144D01*
X58874623Y4873374D01*
X58874622Y4873372D01*
X58814834Y4742457D01*
X58794353Y4600000D01*
X56854366Y4600000D01*
X56910636Y4810000D01*
X56013012Y4810000D01*
X56045925Y4867007D01*
X56080000Y4994174D01*
X56080000Y5125826D01*
X56045925Y5252993D01*
X56013012Y5310000D01*
X56910636Y5310000D01*
X56910635Y5310001D01*
X56853432Y5523487D01*
X56853429Y5523493D01*
X56753600Y5737578D01*
X56753599Y5737580D01*
X56674882Y5850000D01*
X70644353Y5850000D01*
X70664834Y5707544D01*
X70712961Y5602163D01*
X70724623Y5576627D01*
X70818872Y5467857D01*
X70939947Y5390047D01*
X70939950Y5390046D01*
X70939949Y5390046D01*
X71078036Y5349501D01*
X71078038Y5349500D01*
X71078039Y5349500D01*
X71221962Y5349500D01*
X71221962Y5349501D01*
X71360053Y5390047D01*
X71481128Y5467857D01*
X71575377Y5576627D01*
X71631720Y5700000D01*
X75094353Y5700000D01*
X75114834Y5557544D01*
X75174622Y5426629D01*
X75174623Y5426627D01*
X75268872Y5317857D01*
X75389947Y5240047D01*
X75389950Y5240046D01*
X75389949Y5240046D01*
X75528036Y5199501D01*
X75528038Y5199500D01*
X75528039Y5199500D01*
X75671962Y5199500D01*
X75671962Y5199501D01*
X75810053Y5240047D01*
X75931128Y5317857D01*
X76025377Y5426627D01*
X76085165Y5557543D01*
X76105647Y5700000D01*
X76085165Y5842457D01*
X76025377Y5973373D01*
X75931128Y6082143D01*
X75810053Y6159953D01*
X75810051Y6159954D01*
X75810049Y6159955D01*
X75810050Y6159955D01*
X75671963Y6200500D01*
X75671961Y6200500D01*
X75528039Y6200500D01*
X75528036Y6200500D01*
X75389949Y6159955D01*
X75268873Y6082144D01*
X75174623Y5973374D01*
X75174622Y5973372D01*
X75114834Y5842457D01*
X75094353Y5700000D01*
X71631720Y5700000D01*
X71635165Y5707543D01*
X71655647Y5850000D01*
X71635165Y5992457D01*
X71575377Y6123373D01*
X71481128Y6232143D01*
X71360053Y6309953D01*
X71360051Y6309954D01*
X71360049Y6309955D01*
X71360050Y6309955D01*
X71221963Y6350500D01*
X71221961Y6350500D01*
X71078039Y6350500D01*
X71078036Y6350500D01*
X70939949Y6309955D01*
X70818873Y6232144D01*
X70724623Y6123374D01*
X70724622Y6123372D01*
X70664834Y5992457D01*
X70644353Y5850000D01*
X56674882Y5850000D01*
X56618113Y5931074D01*
X56618108Y5931080D01*
X56451082Y6098106D01*
X56342802Y6173925D01*
X56299177Y6228502D01*
X56291985Y6298001D01*
X56323507Y6360355D01*
X56383737Y6395769D01*
X56413926Y6399500D01*
X56463261Y6399500D01*
X56485971Y6402809D01*
X56531393Y6409427D01*
X56636483Y6460802D01*
X56719198Y6543517D01*
X56770573Y6648607D01*
X56780500Y6716740D01*
X56780500Y7300000D01*
X74494353Y7300000D01*
X74514834Y7157544D01*
X74574622Y7026629D01*
X74574623Y7026627D01*
X74668872Y6917857D01*
X74789947Y6840047D01*
X74789950Y6840046D01*
X74789949Y6840046D01*
X74928036Y6799501D01*
X74928038Y6799500D01*
X74928039Y6799500D01*
X75071962Y6799500D01*
X75071962Y6799501D01*
X75210053Y6840047D01*
X75331128Y6917857D01*
X75425377Y7026627D01*
X75485165Y7157543D01*
X75505647Y7300000D01*
X75485165Y7442457D01*
X75425377Y7573373D01*
X75331128Y7682143D01*
X75210053Y7759953D01*
X75210051Y7759954D01*
X75210049Y7759955D01*
X75210050Y7759955D01*
X75071963Y7800500D01*
X75071961Y7800500D01*
X74928039Y7800500D01*
X74928036Y7800500D01*
X74789949Y7759955D01*
X74668873Y7682144D01*
X74574623Y7573374D01*
X74574622Y7573372D01*
X74514834Y7442457D01*
X74494353Y7300000D01*
X56780500Y7300000D01*
X56780500Y8483260D01*
X56778377Y8497828D01*
X56772417Y8538737D01*
X56770573Y8551393D01*
X56719198Y8656483D01*
X56719196Y8656485D01*
X56719196Y8656486D01*
X56636485Y8739197D01*
X56531391Y8790574D01*
X56463261Y8800500D01*
X56463260Y8800500D01*
X54696740Y8800500D01*
X54696739Y8800500D01*
X54628608Y8790574D01*
X54523514Y8739197D01*
X54440803Y8656486D01*
X54389426Y8551392D01*
X54379500Y8483261D01*
X54379500Y8433927D01*
X54359815Y8366888D01*
X54307011Y8321133D01*
X54237853Y8311189D01*
X54174297Y8340214D01*
X54153925Y8362803D01*
X54078109Y8471078D01*
X54078108Y8471080D01*
X53911082Y8638106D01*
X53717578Y8773601D01*
X53503492Y8873430D01*
X53503486Y8873433D01*
X53290000Y8930636D01*
X53290000Y8033012D01*
X53232993Y8065925D01*
X53105826Y8100000D01*
X52974174Y8100000D01*
X52847007Y8065925D01*
X52790000Y8033012D01*
X52790000Y8930636D01*
X52789999Y8930636D01*
X52576513Y8873433D01*
X52576507Y8873430D01*
X52362422Y8773601D01*
X52362420Y8773600D01*
X52168926Y8638114D01*
X52168920Y8638109D01*
X52001891Y8471080D01*
X52001886Y8471074D01*
X51866400Y8277580D01*
X51866399Y8277578D01*
X51799717Y8134579D01*
X51753544Y8082140D01*
X51686350Y8062988D01*
X51619469Y8083204D01*
X51576335Y8131712D01*
X51525061Y8234684D01*
X51525056Y8234692D01*
X51390979Y8412239D01*
X51226562Y8562124D01*
X51226560Y8562126D01*
X51037404Y8679246D01*
X51037398Y8679248D01*
X50829940Y8759618D01*
X50611243Y8800500D01*
X50388757Y8800500D01*
X50170060Y8759618D01*
X50038864Y8708793D01*
X49962601Y8679248D01*
X49962595Y8679246D01*
X49773439Y8562126D01*
X49773437Y8562124D01*
X49609020Y8412239D01*
X49474943Y8234692D01*
X49474938Y8234684D01*
X49375775Y8035539D01*
X49375769Y8035524D01*
X49314885Y7821538D01*
X49314884Y7821536D01*
X49294357Y7600001D01*
X49294357Y7600000D01*
X49314884Y7378465D01*
X49314885Y7378463D01*
X49375769Y7164477D01*
X49375775Y7164462D01*
X49474938Y6965317D01*
X49474943Y6965309D01*
X49609020Y6787762D01*
X49773437Y6637877D01*
X49773439Y6637875D01*
X49967473Y6517735D01*
X49966836Y6516708D01*
X50013563Y6473393D01*
X50030989Y6405731D01*
X50009069Y6339389D01*
X49959464Y6297505D01*
X49822422Y6233601D01*
X49822420Y6233600D01*
X49628926Y6098114D01*
X49628920Y6098109D01*
X49461891Y5931080D01*
X49461886Y5931074D01*
X49326400Y5737580D01*
X49326399Y5737578D01*
X49226570Y5523493D01*
X49226567Y5523487D01*
X49169364Y5310001D01*
X43230635Y5310001D01*
X43173432Y5523487D01*
X43173429Y5523493D01*
X43073600Y5737578D01*
X43073599Y5737580D01*
X42938113Y5931074D01*
X42938108Y5931080D01*
X42815665Y6053523D01*
X42782180Y6114846D01*
X42787164Y6184538D01*
X42829036Y6240471D01*
X42860013Y6257386D01*
X42992086Y6306646D01*
X42992093Y6306650D01*
X43107187Y6392810D01*
X43107190Y6392813D01*
X43193350Y6507907D01*
X43193354Y6507914D01*
X43243596Y6642621D01*
X43243598Y6642628D01*
X43249999Y6702156D01*
X43250000Y6702173D01*
X43250000Y7350000D01*
X42333012Y7350000D01*
X42365925Y7407007D01*
X42400000Y7534174D01*
X42400000Y7665826D01*
X42365925Y7792993D01*
X42333012Y7850000D01*
X43250000Y7850000D01*
X43250000Y8497828D01*
X43249999Y8497845D01*
X43243598Y8557373D01*
X43243596Y8557380D01*
X43193354Y8692087D01*
X43193350Y8692094D01*
X43107190Y8807188D01*
X43107187Y8807191D01*
X42992093Y8893351D01*
X42992086Y8893355D01*
X42857379Y8943597D01*
X42857372Y8943599D01*
X42797844Y8950000D01*
X42150000Y8950000D01*
X42150000Y8033012D01*
X42092993Y8065925D01*
X41965826Y8100000D01*
X41834174Y8100000D01*
X41707007Y8065925D01*
X41650000Y8033012D01*
X41650000Y8950000D01*
X41002155Y8950000D01*
X40942627Y8943599D01*
X40942620Y8943597D01*
X40807913Y8893355D01*
X40807906Y8893351D01*
X40692812Y8807191D01*
X40692809Y8807188D01*
X40606649Y8692094D01*
X40606645Y8692087D01*
X40556403Y8557380D01*
X40556401Y8557373D01*
X40550000Y8497845D01*
X40550000Y8386237D01*
X40530315Y8319198D01*
X40477511Y8273443D01*
X40408353Y8263499D01*
X40344797Y8292524D01*
X40327046Y8311510D01*
X40250979Y8412239D01*
X40086562Y8562124D01*
X40086560Y8562126D01*
X39897404Y8679246D01*
X39897398Y8679248D01*
X39689940Y8759618D01*
X39471243Y8800500D01*
X39248757Y8800500D01*
X39030060Y8759618D01*
X38898864Y8708793D01*
X38822601Y8679248D01*
X38822595Y8679246D01*
X38633439Y8562126D01*
X38633437Y8562124D01*
X38469020Y8412239D01*
X38334943Y8234692D01*
X38334938Y8234684D01*
X38283664Y8131712D01*
X38236160Y8080475D01*
X38168497Y8063054D01*
X38102157Y8084980D01*
X38060282Y8134579D01*
X37993600Y8277578D01*
X37993599Y8277580D01*
X37858113Y8471074D01*
X37858108Y8471080D01*
X37691082Y8638106D01*
X37497578Y8773601D01*
X37283492Y8873430D01*
X37283486Y8873433D01*
X37070000Y8930636D01*
X37070000Y8033012D01*
X37012993Y8065925D01*
X36885826Y8100000D01*
X36754174Y8100000D01*
X36627007Y8065925D01*
X36570000Y8033012D01*
X36570000Y8930636D01*
X36569999Y8930636D01*
X36356513Y8873433D01*
X36356507Y8873430D01*
X36142422Y8773601D01*
X36142420Y8773600D01*
X35948926Y8638114D01*
X35948920Y8638109D01*
X35781891Y8471080D01*
X35781886Y8471074D01*
X35646400Y8277580D01*
X35646399Y8277578D01*
X35546570Y8063493D01*
X35546567Y8063487D01*
X35489364Y7850001D01*
X33925500Y7850001D01*
X33925500Y8972390D01*
X33945185Y9039429D01*
X33961819Y9060071D01*
X34739929Y9838181D01*
X34801252Y9871666D01*
X34827610Y9874500D01*
X56872390Y9874500D01*
X56939429Y9854815D01*
X56960071Y9838181D01*
X58255174Y8543079D01*
X58255184Y8543068D01*
X58259514Y8538738D01*
X58259515Y8538737D01*
X58338737Y8459515D01*
X58338739Y8459514D01*
X58338743Y8459511D01*
X58410961Y8417816D01*
X58410963Y8417816D01*
X58435763Y8403497D01*
X58543981Y8374500D01*
X58543982Y8374500D01*
X58543983Y8374500D01*
X62956016Y8374500D01*
X62956018Y8374500D01*
X63051186Y8400000D01*
X73194353Y8400000D01*
X73214834Y8257544D01*
X73270991Y8134579D01*
X73274623Y8126627D01*
X73368872Y8017857D01*
X73489947Y7940047D01*
X73489950Y7940046D01*
X73489949Y7940046D01*
X73628036Y7899501D01*
X73628038Y7899500D01*
X73628039Y7899500D01*
X73771962Y7899500D01*
X73771962Y7899501D01*
X73910053Y7940047D01*
X74031128Y8017857D01*
X74125377Y8126627D01*
X74185165Y8257543D01*
X74205647Y8400000D01*
X74185165Y8542457D01*
X74125377Y8673373D01*
X74031128Y8782143D01*
X73910053Y8859953D01*
X73910051Y8859954D01*
X73910049Y8859955D01*
X73910050Y8859955D01*
X73771963Y8900500D01*
X73771961Y8900500D01*
X73628039Y8900500D01*
X73628036Y8900500D01*
X73489949Y8859955D01*
X73368873Y8782144D01*
X73274623Y8673374D01*
X73274622Y8673372D01*
X73214834Y8542457D01*
X73194353Y8400000D01*
X63051186Y8400000D01*
X63064237Y8403497D01*
X63161263Y8459515D01*
X64101745Y9400000D01*
X70294353Y9400000D01*
X70314834Y9257544D01*
X70374622Y9126629D01*
X70374623Y9126627D01*
X70468872Y9017857D01*
X70589947Y8940047D01*
X70589950Y8940046D01*
X70589949Y8940046D01*
X70697107Y8908583D01*
X70724633Y8900500D01*
X70728036Y8899501D01*
X70728038Y8899500D01*
X70728039Y8899500D01*
X70871962Y8899500D01*
X70871962Y8899501D01*
X71010053Y8940047D01*
X71131128Y9017857D01*
X71225377Y9126627D01*
X71285165Y9257543D01*
X71305647Y9400000D01*
X71285165Y9542457D01*
X71225377Y9673373D01*
X71131128Y9782143D01*
X71010053Y9859953D01*
X71010051Y9859954D01*
X71010049Y9859955D01*
X71010050Y9859955D01*
X70871963Y9900500D01*
X70871961Y9900500D01*
X70728039Y9900500D01*
X70728036Y9900500D01*
X70589949Y9859955D01*
X70468873Y9782144D01*
X70374623Y9673374D01*
X70374622Y9673372D01*
X70314834Y9542457D01*
X70294353Y9400000D01*
X64101745Y9400000D01*
X64126735Y9424990D01*
X64169347Y9452827D01*
X64641253Y9636916D01*
X64643200Y9637532D01*
X64643196Y9637543D01*
X64651928Y9640856D01*
X64653477Y9641605D01*
X64655310Y9642417D01*
X64655354Y9642434D01*
X64678312Y9652596D01*
X64681507Y9654865D01*
X64684249Y9656811D01*
X64698408Y9665500D01*
X64800852Y9719266D01*
X64928183Y9832071D01*
X65024818Y9972070D01*
X65085140Y10131128D01*
X65105645Y10300000D01*
X65087432Y10450000D01*
X66244353Y10450000D01*
X66264834Y10307544D01*
X66298820Y10233127D01*
X66324623Y10176627D01*
X66418872Y10067857D01*
X66539947Y9990047D01*
X66539950Y9990046D01*
X66539949Y9990046D01*
X66678036Y9949501D01*
X66678038Y9949500D01*
X66678039Y9949500D01*
X66821962Y9949500D01*
X66821962Y9949501D01*
X66960053Y9990047D01*
X67081128Y10067857D01*
X67175377Y10176627D01*
X67235165Y10307543D01*
X67255647Y10450000D01*
X67235165Y10592457D01*
X67175377Y10723373D01*
X67081128Y10832143D01*
X66960053Y10909953D01*
X66960051Y10909954D01*
X66960049Y10909955D01*
X66960050Y10909955D01*
X66821963Y10950500D01*
X66821961Y10950500D01*
X66678039Y10950500D01*
X66678036Y10950500D01*
X66539949Y10909955D01*
X66418873Y10832144D01*
X66324623Y10723374D01*
X66324622Y10723372D01*
X66264834Y10592457D01*
X66244353Y10450000D01*
X65087432Y10450000D01*
X65085140Y10468872D01*
X65024818Y10627930D01*
X65016153Y10640483D01*
X64977485Y10696503D01*
X64928183Y10767929D01*
X64800852Y10880734D01*
X64800849Y10880737D01*
X64650226Y10959790D01*
X64485056Y11000500D01*
X64314944Y11000500D01*
X64149773Y10959790D01*
X63999150Y10880737D01*
X63871816Y10767928D01*
X63775181Y10627930D01*
X63775179Y10627926D01*
X63759500Y10586584D01*
X63750093Y10567103D01*
X63741120Y10552039D01*
X63552823Y10069348D01*
X63524983Y10026732D01*
X62760071Y9261819D01*
X62698748Y9228334D01*
X62672390Y9225500D01*
X58827609Y9225500D01*
X58760570Y9245185D01*
X58739928Y9261819D01*
X58065818Y9935929D01*
X57361263Y10640485D01*
X57264237Y10696503D01*
X57156018Y10725500D01*
X34656018Y10725500D01*
X34543982Y10725500D01*
X34435763Y10696503D01*
X34435760Y10696502D01*
X34338740Y10640487D01*
X34338734Y10640483D01*
X33159517Y9461266D01*
X33159513Y9461260D01*
X33103498Y9364240D01*
X33103497Y9364237D01*
X33074500Y9256018D01*
X33074500Y6227610D01*
X33054815Y6160571D01*
X33038181Y6139929D01*
X32420071Y5521819D01*
X32358748Y5488334D01*
X32332390Y5485500D01*
X32266234Y5485500D01*
X32209314Y5499336D01*
X31014836Y6116506D01*
X31006479Y6121243D01*
X30977404Y6139246D01*
X30977398Y6139249D01*
X30957316Y6147028D01*
X30945188Y6152492D01*
X30942990Y6153628D01*
X30939727Y6155314D01*
X30926315Y6161890D01*
X30924014Y6162958D01*
X30924370Y6163727D01*
X30873098Y6206405D01*
X30852087Y6273041D01*
X30870439Y6340457D01*
X30922325Y6387251D01*
X30976063Y6399500D01*
X31323261Y6399500D01*
X31345971Y6402809D01*
X31391393Y6409427D01*
X31496483Y6460802D01*
X31579198Y6543517D01*
X31630573Y6648607D01*
X31640500Y6716740D01*
X31640500Y8483260D01*
X31638377Y8497828D01*
X31632417Y8538737D01*
X31630573Y8551393D01*
X31579198Y8656483D01*
X31579196Y8656485D01*
X31579195Y8656488D01*
X31579093Y8656631D01*
X31576840Y8660100D01*
X31063196Y9387763D01*
X31040617Y9453884D01*
X31040500Y9459272D01*
X31040500Y13000000D01*
X33094355Y13000000D01*
X33114859Y12831131D01*
X33114860Y12831128D01*
X33175182Y12672069D01*
X33225272Y12599503D01*
X33271817Y12532071D01*
X33377505Y12438440D01*
X33399150Y12419264D01*
X33548643Y12340804D01*
X33549775Y12340210D01*
X33714944Y12299500D01*
X33885056Y12299500D01*
X34050225Y12340210D01*
X34147728Y12391384D01*
X34200849Y12419264D01*
X34200850Y12419266D01*
X34200852Y12419266D01*
X34328183Y12532071D01*
X34424818Y12672070D01*
X34485140Y12831128D01*
X34505645Y13000000D01*
X34485140Y13168872D01*
X34454743Y13249023D01*
X34450487Y13262528D01*
X34444115Y13287681D01*
X34236475Y13760940D01*
X34235948Y13762141D01*
X34225500Y13811961D01*
X34225500Y15472390D01*
X34245185Y15539429D01*
X34261819Y15560071D01*
X35639929Y16938181D01*
X35701252Y16971666D01*
X35727610Y16974500D01*
X36288043Y16974500D01*
X36337863Y16964052D01*
X36812318Y16755885D01*
X36814506Y16754934D01*
X36814701Y16754850D01*
X36835651Y16746725D01*
X36848434Y16740914D01*
X36849775Y16740210D01*
X36849776Y16740210D01*
X36849778Y16740209D01*
X37014944Y16699500D01*
X37185056Y16699500D01*
X37350225Y16740210D01*
X37464144Y16800000D01*
X37500849Y16819264D01*
X37500850Y16819266D01*
X37500852Y16819266D01*
X37628183Y16932071D01*
X37675071Y17000000D01*
X42094353Y17000000D01*
X42114834Y16857544D01*
X42166047Y16745406D01*
X42174623Y16726627D01*
X42268872Y16617857D01*
X42389947Y16540047D01*
X42389950Y16540046D01*
X42389949Y16540046D01*
X42477450Y16514354D01*
X42525440Y16500263D01*
X42528036Y16499501D01*
X42528038Y16499500D01*
X42528039Y16499500D01*
X42671962Y16499500D01*
X42671962Y16499501D01*
X42810053Y16540047D01*
X42931128Y16617857D01*
X43025377Y16726627D01*
X43085165Y16857543D01*
X43105647Y17000000D01*
X43085165Y17142457D01*
X43025377Y17273373D01*
X42931128Y17382143D01*
X42810053Y17459953D01*
X42810051Y17459954D01*
X42810049Y17459955D01*
X42810050Y17459955D01*
X42671963Y17500500D01*
X42671961Y17500500D01*
X42528039Y17500500D01*
X42528036Y17500500D01*
X42389949Y17459955D01*
X42268873Y17382144D01*
X42174623Y17273374D01*
X42174622Y17273372D01*
X42114834Y17142457D01*
X42094353Y17000000D01*
X37675071Y17000000D01*
X37724818Y17072070D01*
X37785140Y17231128D01*
X37805645Y17400000D01*
X37785140Y17568872D01*
X37777913Y17587927D01*
X37734325Y17702861D01*
X37724818Y17727930D01*
X37716663Y17739744D01*
X37669864Y17807544D01*
X37628183Y17867929D01*
X37518985Y17964670D01*
X37500849Y17980737D01*
X37350226Y18059790D01*
X37185056Y18100500D01*
X37014944Y18100500D01*
X36849775Y18059791D01*
X36839962Y18054640D01*
X36817135Y18045899D01*
X36817175Y18045784D01*
X36813898Y18044659D01*
X36812811Y18044242D01*
X36812334Y18044122D01*
X36812312Y18044114D01*
X36455649Y17887629D01*
X36352022Y17842162D01*
X36337861Y17835949D01*
X36288041Y17825500D01*
X35443982Y17825500D01*
X35335763Y17796503D01*
X35335760Y17796502D01*
X35238740Y17740487D01*
X35238734Y17740483D01*
X33459517Y15961266D01*
X33459513Y15961260D01*
X33403498Y15864240D01*
X33403497Y15864237D01*
X33374500Y15756018D01*
X33374500Y13811960D01*
X33364051Y13762140D01*
X33155970Y13287880D01*
X33155009Y13285669D01*
X33154844Y13285288D01*
X33145404Y13260947D01*
X33145403Y13260943D01*
X33143890Y13252016D01*
X33137577Y13228774D01*
X33114861Y13168878D01*
X33114859Y13168870D01*
X33094355Y13000000D01*
X31040500Y13000000D01*
X31040500Y13539904D01*
X31060185Y13606943D01*
X31076814Y13627580D01*
X32868713Y15419479D01*
X32868716Y15419480D01*
X32980520Y15531284D01*
X33030639Y15618096D01*
X33059577Y15668215D01*
X33100501Y15820943D01*
X33100501Y15979057D01*
X33100501Y15986652D01*
X33100500Y15986670D01*
X33100500Y18820500D01*
X33120185Y18887539D01*
X33172989Y18933294D01*
X33224500Y18944500D01*
X43720500Y18944500D01*
X43787539Y18924815D01*
X43833294Y18872011D01*
X43844500Y18820500D01*
X43844500Y18682017D01*
X43844991Y18663333D01*
X43844992Y18663324D01*
X43870294Y18549077D01*
X43870296Y18549072D01*
X43931325Y18449228D01*
X43931330Y18449220D01*
X43942020Y18436883D01*
X43953416Y18426549D01*
X43954804Y18425291D01*
X43991243Y18365675D01*
X43989667Y18295824D01*
X43982910Y18278976D01*
X43969427Y18251395D01*
X43969426Y18251393D01*
X43959500Y18183261D01*
X43959500Y16416740D01*
X43969426Y16348609D01*
X44020803Y16243515D01*
X44103514Y16160804D01*
X44103515Y16160804D01*
X44103517Y16160802D01*
X44208607Y16109427D01*
X44242673Y16104464D01*
X44276739Y16099500D01*
X44276740Y16099500D01*
X44535500Y16099500D01*
X44602539Y16079815D01*
X44648294Y16027011D01*
X44659500Y15975500D01*
X44659500Y14274109D01*
X44693608Y14146813D01*
X44726554Y14089750D01*
X44759500Y14032686D01*
X46192686Y12599500D01*
X46306814Y12533608D01*
X46434107Y12499500D01*
X46434108Y12499500D01*
X47611897Y12499500D01*
X47648208Y12494064D01*
X48142501Y12342686D01*
X48149606Y12340252D01*
X48149773Y12340211D01*
X48149775Y12340210D01*
X48151251Y12339847D01*
X48155858Y12338591D01*
X48156215Y12338517D01*
X48156224Y12338514D01*
X48156232Y12338513D01*
X48156722Y12338411D01*
X48161166Y12337403D01*
X48314944Y12299500D01*
X48485056Y12299500D01*
X48650225Y12340210D01*
X48747728Y12391384D01*
X48800849Y12419264D01*
X48800850Y12419266D01*
X48800852Y12419266D01*
X48928183Y12532071D01*
X49024818Y12672070D01*
X49085140Y12831128D01*
X49105645Y13000000D01*
X49085140Y13168872D01*
X49024818Y13327930D01*
X49024539Y13328334D01*
X48981021Y13391381D01*
X48928183Y13467929D01*
X48800852Y13580734D01*
X48800849Y13580737D01*
X48650226Y13659790D01*
X48485056Y13700500D01*
X48314944Y13700500D01*
X48149615Y13659751D01*
X48142531Y13657326D01*
X47648205Y13505936D01*
X47611894Y13500500D01*
X46758676Y13500500D01*
X46691637Y13520185D01*
X46670995Y13536819D01*
X45907814Y14300000D01*
X50094353Y14300000D01*
X50114834Y14157544D01*
X50137935Y14106961D01*
X50174623Y14026627D01*
X50268872Y13917857D01*
X50389947Y13840047D01*
X50389950Y13840046D01*
X50389949Y13840046D01*
X50497107Y13808583D01*
X50514426Y13803497D01*
X50528036Y13799501D01*
X50528038Y13799500D01*
X50528039Y13799500D01*
X50671962Y13799500D01*
X50671962Y13799501D01*
X50810053Y13840047D01*
X50931128Y13917857D01*
X51025377Y14026627D01*
X51085165Y14157543D01*
X51105647Y14300000D01*
X51085165Y14442457D01*
X51025377Y14573373D01*
X50931128Y14682143D01*
X50810053Y14759953D01*
X50810051Y14759954D01*
X50810049Y14759955D01*
X50810050Y14759955D01*
X50671963Y14800500D01*
X50671961Y14800500D01*
X50528039Y14800500D01*
X50528036Y14800500D01*
X50389949Y14759955D01*
X50268873Y14682144D01*
X50174623Y14573374D01*
X50174622Y14573372D01*
X50114834Y14442457D01*
X50094353Y14300000D01*
X45907814Y14300000D01*
X45696819Y14510995D01*
X45663334Y14572318D01*
X45660500Y14598676D01*
X45660500Y15975500D01*
X45680185Y16042539D01*
X45732989Y16088294D01*
X45784500Y16099500D01*
X46043261Y16099500D01*
X46065971Y16102809D01*
X46111393Y16109427D01*
X46216483Y16160802D01*
X46299198Y16243517D01*
X46350573Y16348607D01*
X46360500Y16416740D01*
X46360500Y17383772D01*
X46849500Y17383772D01*
X46849500Y17216229D01*
X46882182Y17051926D01*
X46882184Y17051918D01*
X46946295Y16897140D01*
X47039373Y16757838D01*
X47157837Y16639374D01*
X47234661Y16588042D01*
X47297137Y16546297D01*
X47297138Y16546297D01*
X47297139Y16546296D01*
X47312228Y16540046D01*
X47451918Y16482184D01*
X47595510Y16453622D01*
X47616228Y16449501D01*
X47616232Y16449500D01*
X47616233Y16449500D01*
X47783768Y16449500D01*
X47783769Y16449501D01*
X47948082Y16482184D01*
X48102863Y16546297D01*
X48242162Y16639374D01*
X48360626Y16757838D01*
X48453703Y16897137D01*
X48517816Y17051918D01*
X48550500Y17216233D01*
X48550500Y17383767D01*
X48517816Y17548082D01*
X48517021Y17550001D01*
X48909364Y17550001D01*
X48909364Y17550000D01*
X49806988Y17550000D01*
X49774075Y17492993D01*
X49740000Y17365826D01*
X49740000Y17234174D01*
X49774075Y17107007D01*
X49806988Y17050000D01*
X48909364Y17050000D01*
X48966567Y16836514D01*
X48966570Y16836508D01*
X49066399Y16622422D01*
X49201894Y16428918D01*
X49368917Y16261895D01*
X49562421Y16126400D01*
X49776507Y16026571D01*
X49776516Y16026567D01*
X49990000Y15969366D01*
X49990000Y16866988D01*
X50047007Y16834075D01*
X50174174Y16800000D01*
X50305826Y16800000D01*
X50432993Y16834075D01*
X50490000Y16866988D01*
X50490000Y15969367D01*
X50703483Y16026567D01*
X50703492Y16026571D01*
X50917578Y16126400D01*
X51111082Y16261895D01*
X51278105Y16428918D01*
X51413600Y16622422D01*
X51513429Y16836508D01*
X51513432Y16836514D01*
X51570636Y17050000D01*
X50673012Y17050000D01*
X50705925Y17107007D01*
X50740000Y17234174D01*
X50740000Y17365826D01*
X50705925Y17492993D01*
X50673012Y17550000D01*
X51570636Y17550000D01*
X51570635Y17550001D01*
X51513432Y17763487D01*
X51513429Y17763493D01*
X51413600Y17977578D01*
X51413599Y17977580D01*
X51278113Y18171074D01*
X51278108Y18171080D01*
X51111082Y18338106D01*
X50917578Y18473601D01*
X50703492Y18573430D01*
X50703486Y18573433D01*
X50490000Y18630636D01*
X50490000Y17733012D01*
X50432993Y17765925D01*
X50305826Y17800000D01*
X50174174Y17800000D01*
X50047007Y17765925D01*
X49990000Y17733012D01*
X49990000Y18630636D01*
X49989999Y18630636D01*
X49776513Y18573433D01*
X49776507Y18573430D01*
X49562422Y18473601D01*
X49562420Y18473600D01*
X49368926Y18338114D01*
X49368920Y18338109D01*
X49201891Y18171080D01*
X49201886Y18171074D01*
X49066400Y17977580D01*
X49066399Y17977578D01*
X48966570Y17763493D01*
X48966567Y17763487D01*
X48909364Y17550001D01*
X48517021Y17550001D01*
X48453703Y17702863D01*
X48421922Y17750426D01*
X48360626Y17842163D01*
X48242162Y17960627D01*
X48102860Y18053705D01*
X47948082Y18117816D01*
X47948074Y18117818D01*
X47783771Y18150500D01*
X47783767Y18150500D01*
X47616233Y18150500D01*
X47616228Y18150500D01*
X47451925Y18117818D01*
X47451917Y18117816D01*
X47297139Y18053705D01*
X47157837Y17960627D01*
X47039373Y17842163D01*
X46946295Y17702861D01*
X46882184Y17548083D01*
X46882182Y17548075D01*
X46849500Y17383772D01*
X46360500Y17383772D01*
X46360500Y18183260D01*
X46354872Y18221884D01*
X46350573Y18251393D01*
X46330048Y18293378D01*
X46318288Y18362252D01*
X46345632Y18426549D01*
X46353937Y18435690D01*
X46355136Y18436884D01*
X46387516Y18469139D01*
X46388924Y18471103D01*
X46436238Y18562803D01*
X46455500Y18678234D01*
X46455500Y18820500D01*
X46475185Y18887539D01*
X46527989Y18933294D01*
X46579500Y18944500D01*
X51840167Y18944500D01*
X51907206Y18924815D01*
X51914562Y18919704D01*
X53941499Y17399501D01*
X55994900Y15859450D01*
X56036721Y15803479D01*
X56044500Y15760250D01*
X56044500Y13106961D01*
X56045059Y13087036D01*
X56045060Y13087022D01*
X56045840Y13073138D01*
X56047427Y13054321D01*
X56047518Y13053244D01*
X56065223Y12896099D01*
X56065228Y12896065D01*
X56071902Y12856779D01*
X56078076Y12829727D01*
X56078082Y12829701D01*
X56089122Y12791380D01*
X56089126Y12791367D01*
X56139056Y12648676D01*
X56139068Y12648646D01*
X56154319Y12611829D01*
X56166360Y12586825D01*
X56166363Y12586820D01*
X56166367Y12586812D01*
X56185648Y12551925D01*
X56198122Y12532073D01*
X56262867Y12429030D01*
X56266091Y12423900D01*
X56289163Y12391384D01*
X56289172Y12391372D01*
X56306466Y12369686D01*
X56306478Y12369672D01*
X56333037Y12339954D01*
X56439952Y12233039D01*
X56469670Y12206480D01*
X56469684Y12206468D01*
X56490546Y12189831D01*
X56491380Y12189166D01*
X56523899Y12166092D01*
X56651924Y12085649D01*
X56686811Y12066368D01*
X56711828Y12054320D01*
X56736614Y12044054D01*
X56748644Y12039070D01*
X56748674Y12039058D01*
X56891365Y11989128D01*
X56891380Y11989124D01*
X56891384Y11989122D01*
X56929701Y11978083D01*
X56956772Y11971905D01*
X56996064Y11965229D01*
X56996087Y11965227D01*
X56996104Y11965224D01*
X57180279Y11944472D01*
X57188609Y11945016D01*
X57206961Y11944500D01*
X57206964Y11944500D01*
X58191889Y11944500D01*
X58215101Y11945261D01*
X58215102Y11945262D01*
X58215130Y11945262D01*
X58231314Y11946323D01*
X58254462Y11948603D01*
X58265802Y11950096D01*
X58359628Y11962449D01*
X58405235Y11971520D01*
X58436502Y11979898D01*
X58480535Y11994846D01*
X58570962Y12032302D01*
X58612669Y12052870D01*
X58640702Y12069055D01*
X58679366Y12094889D01*
X58757016Y12154472D01*
X58791977Y12185133D01*
X58814867Y12208023D01*
X58845528Y12242984D01*
X58905111Y12320634D01*
X58930945Y12359298D01*
X58947130Y12387331D01*
X58967698Y12429038D01*
X59005154Y12519465D01*
X59020102Y12563498D01*
X59028480Y12594765D01*
X59037551Y12640371D01*
X59052458Y12753594D01*
X59055500Y12799999D01*
X59055500Y12820500D01*
X59075185Y12887539D01*
X59127989Y12933294D01*
X59179500Y12944500D01*
X66893041Y12944500D01*
X66896106Y12944587D01*
X66912979Y12945060D01*
X66926863Y12945840D01*
X66946729Y12947516D01*
X67034315Y12957386D01*
X67103931Y12965229D01*
X67108987Y12966089D01*
X67143227Y12971905D01*
X67170298Y12978083D01*
X67208615Y12989122D01*
X67208625Y12989126D01*
X67208633Y12989128D01*
X67351324Y13039058D01*
X67351327Y13039060D01*
X67351335Y13039062D01*
X67388171Y13054320D01*
X67413188Y13066368D01*
X67448075Y13085649D01*
X67576100Y13166092D01*
X67608619Y13189166D01*
X67630328Y13206479D01*
X67660048Y13233040D01*
X67766960Y13339952D01*
X67793521Y13369672D01*
X67810834Y13391381D01*
X67833908Y13423900D01*
X67914351Y13551925D01*
X67933632Y13586812D01*
X67945680Y13611829D01*
X67960938Y13648665D01*
X67976795Y13693982D01*
X68010872Y13791367D01*
X68010876Y13791380D01*
X68010878Y13791385D01*
X68021917Y13829702D01*
X68028095Y13856773D01*
X68034770Y13896065D01*
X68035158Y13899501D01*
X68048493Y14017857D01*
X68052484Y14053273D01*
X68054160Y14073138D01*
X68054940Y14087022D01*
X68055500Y14106962D01*
X68055500Y14484192D01*
X68075185Y14551231D01*
X68091819Y14571873D01*
X68633127Y15113181D01*
X68694450Y15146666D01*
X68720808Y15149500D01*
X71625500Y15149500D01*
X71692539Y15129815D01*
X71738294Y15077011D01*
X71749500Y15025500D01*
X71749500Y12935931D01*
X71749500Y12935929D01*
X71749499Y12935929D01*
X71770346Y12831131D01*
X71770347Y12831128D01*
X71774499Y12810256D01*
X71823535Y12691873D01*
X71894723Y12585331D01*
X71894726Y12585327D01*
X78085325Y6394728D01*
X78085332Y6394722D01*
X78191200Y6323984D01*
X78191201Y6323984D01*
X78191204Y6323982D01*
X78191873Y6323535D01*
X78310256Y6274499D01*
X78310260Y6274499D01*
X78310261Y6274498D01*
X78435928Y6249500D01*
X78435931Y6249500D01*
X78564069Y6249500D01*
X82150591Y6249500D01*
X82179661Y6246044D01*
X82185525Y6244630D01*
X82185526Y6244630D01*
X82185538Y6244627D01*
X82808506Y6200130D01*
X82814622Y6199540D01*
X82814935Y6199503D01*
X82814944Y6199500D01*
X82814953Y6199500D01*
X82815805Y6199397D01*
X82821727Y6199185D01*
X82862173Y6196296D01*
X82874196Y6195642D01*
X82874214Y6195642D01*
X82874220Y6195641D01*
X82874353Y6195637D01*
X82874997Y6195612D01*
X82909323Y6195985D01*
X82909331Y6195988D01*
X82910338Y6196105D01*
X82936554Y6196416D01*
X82937826Y6196296D01*
X82975745Y6199005D01*
X82978273Y6199185D01*
X82984199Y6199397D01*
X82985049Y6199500D01*
X82985056Y6199500D01*
X82985062Y6199502D01*
X82985363Y6199538D01*
X82991479Y6200129D01*
X83614462Y6244627D01*
X83614498Y6244630D01*
X83615987Y6244757D01*
X83623802Y6245418D01*
X83623805Y6245420D01*
X83629254Y6246375D01*
X83629310Y6246054D01*
X83655362Y6249500D01*
X86864071Y6249500D01*
X86982414Y6273041D01*
X86989744Y6274499D01*
X87108127Y6323535D01*
X87108796Y6323982D01*
X87214669Y6394723D01*
X90405277Y9585331D01*
X90476465Y9691873D01*
X90525501Y9810256D01*
X90531427Y9840047D01*
X90550500Y9935931D01*
X90550500Y13200000D01*
X93394353Y13200000D01*
X93414834Y13057544D01*
X93470374Y12935931D01*
X93474623Y12926627D01*
X93568872Y12817857D01*
X93689947Y12740047D01*
X93689950Y12740046D01*
X93689949Y12740046D01*
X93828036Y12699501D01*
X93828038Y12699500D01*
X93828039Y12699500D01*
X93971962Y12699500D01*
X93971962Y12699501D01*
X94110053Y12740047D01*
X94231128Y12817857D01*
X94325377Y12926627D01*
X94385165Y13057543D01*
X94405647Y13200000D01*
X94385165Y13342457D01*
X94325377Y13473373D01*
X94231128Y13582143D01*
X94110053Y13659953D01*
X94110051Y13659954D01*
X94110049Y13659955D01*
X94110050Y13659955D01*
X93971963Y13700500D01*
X93971961Y13700500D01*
X93828039Y13700500D01*
X93828036Y13700500D01*
X93689949Y13659955D01*
X93568873Y13582144D01*
X93474623Y13473374D01*
X93474622Y13473372D01*
X93414834Y13342457D01*
X93394353Y13200000D01*
X90550500Y13200000D01*
X90550500Y17000000D01*
X91594353Y17000000D01*
X91614834Y16857544D01*
X91666047Y16745406D01*
X91674623Y16726627D01*
X91768872Y16617857D01*
X91889947Y16540047D01*
X91889950Y16540046D01*
X91889949Y16540046D01*
X91977450Y16514354D01*
X92025440Y16500263D01*
X92028036Y16499501D01*
X92028038Y16499500D01*
X92028039Y16499500D01*
X92171962Y16499500D01*
X92171962Y16499501D01*
X92310053Y16540047D01*
X92431128Y16617857D01*
X92525377Y16726627D01*
X92585165Y16857543D01*
X92605647Y17000000D01*
X92585165Y17142457D01*
X92525377Y17273373D01*
X92431128Y17382143D01*
X92310053Y17459953D01*
X92310051Y17459954D01*
X92310049Y17459955D01*
X92310050Y17459955D01*
X92171963Y17500500D01*
X92171961Y17500500D01*
X92028039Y17500500D01*
X92028036Y17500500D01*
X91889949Y17459955D01*
X91768873Y17382144D01*
X91674623Y17273374D01*
X91674622Y17273372D01*
X91614834Y17142457D01*
X91594353Y17000000D01*
X90550500Y17000000D01*
X90550500Y17614069D01*
X90550500Y17614072D01*
X90525502Y17739739D01*
X90525501Y17739740D01*
X90525501Y17739744D01*
X90476465Y17858127D01*
X90461360Y17880734D01*
X90461358Y17880737D01*
X90461358Y17880738D01*
X90405276Y17964671D01*
X90405273Y17964674D01*
X89239883Y19130063D01*
X89221770Y19153063D01*
X89218618Y19158219D01*
X88787793Y19655323D01*
X88779458Y19666081D01*
X88778183Y19667929D01*
X88778178Y19667933D01*
X88778177Y19667935D01*
X88777538Y19668501D01*
X88767461Y19678515D01*
X88766215Y19679904D01*
X88765694Y19680464D01*
X88765667Y19680493D01*
X88741202Y19704422D01*
X88735365Y19708088D01*
X88719094Y19720277D01*
X88650854Y19780733D01*
X88650845Y19780739D01*
X88500226Y19859790D01*
X88335056Y19900500D01*
X88164944Y19900500D01*
X87999773Y19859790D01*
X87849150Y19780737D01*
X87721816Y19667928D01*
X87625182Y19527932D01*
X87564860Y19368875D01*
X87564859Y19368870D01*
X87544355Y19200000D01*
X87564859Y19031131D01*
X87564860Y19031126D01*
X87625182Y18872069D01*
X87640760Y18849501D01*
X87721817Y18732071D01*
X87754552Y18703071D01*
X87767850Y18689318D01*
X87779153Y18675661D01*
X88054664Y18436884D01*
X88112040Y18387158D01*
X88112047Y18387149D01*
X88291211Y18231875D01*
X88291501Y18231625D01*
X88291877Y18231299D01*
X88298958Y18225326D01*
X88303485Y18222152D01*
X88303296Y18221884D01*
X88324156Y18205898D01*
X89213181Y17316873D01*
X89246666Y17255550D01*
X89249500Y17229192D01*
X89249500Y10320808D01*
X89229815Y10253769D01*
X89213181Y10233127D01*
X86566873Y7586819D01*
X86505550Y7553334D01*
X86479192Y7550500D01*
X83649413Y7550500D01*
X83620343Y7553956D01*
X83614463Y7555374D01*
X83614459Y7555375D01*
X82991502Y7599871D01*
X82985393Y7600460D01*
X82984211Y7600604D01*
X82978279Y7600815D01*
X82977307Y7600885D01*
X82937804Y7603706D01*
X82937787Y7603707D01*
X82937772Y7603708D01*
X82925727Y7604363D01*
X82924933Y7604392D01*
X82924924Y7604392D01*
X82924922Y7604392D01*
X82893529Y7604048D01*
X82890675Y7604016D01*
X82889655Y7603895D01*
X82863448Y7603585D01*
X82862176Y7603705D01*
X82862174Y7603705D01*
X82862173Y7603705D01*
X82836820Y7601894D01*
X82821713Y7600815D01*
X82815803Y7600605D01*
X82814605Y7600459D01*
X82808518Y7599873D01*
X82185527Y7555373D01*
X82176178Y7554580D01*
X82170724Y7553622D01*
X82170667Y7553946D01*
X82144625Y7550500D01*
X78820808Y7550500D01*
X78753769Y7570185D01*
X78733127Y7586819D01*
X73086819Y13233127D01*
X73053334Y13294450D01*
X73050500Y13320808D01*
X73050500Y15050593D01*
X73053958Y15079671D01*
X73054090Y15080221D01*
X73055373Y15085538D01*
X73103704Y15762174D01*
X73104358Y15774197D01*
X73104388Y15774998D01*
X73104330Y15780265D01*
X73105229Y15796574D01*
X73105645Y15799998D01*
X73105645Y15800000D01*
X73085140Y15968872D01*
X73081277Y15979057D01*
X73024817Y16127932D01*
X72955969Y16227674D01*
X72928183Y16267929D01*
X72800852Y16380734D01*
X72800849Y16380737D01*
X72650226Y16459790D01*
X72485056Y16500500D01*
X72401988Y16500500D01*
X72390344Y16501048D01*
X72384226Y16501625D01*
X72362176Y16503705D01*
X72362174Y16503705D01*
X72362173Y16503705D01*
X72331064Y16501483D01*
X72321713Y16500815D01*
X72315803Y16500605D01*
X72314605Y16500459D01*
X72308518Y16499873D01*
X71685527Y16455373D01*
X71676178Y16454580D01*
X71670724Y16453622D01*
X71670667Y16453946D01*
X71644625Y16450500D01*
X68335929Y16450500D01*
X68210261Y16425503D01*
X68210255Y16425501D01*
X68091870Y16376465D01*
X67985335Y16305280D01*
X67985326Y16305273D01*
X67941211Y16261158D01*
X67879888Y16227674D01*
X67810196Y16232659D01*
X67765851Y16261158D01*
X67660048Y16366961D01*
X67644633Y16380737D01*
X67630335Y16393516D01*
X67630318Y16393529D01*
X67608639Y16410819D01*
X67608637Y16410821D01*
X67608625Y16410830D01*
X67576101Y16433908D01*
X67471711Y16499500D01*
X67448071Y16514354D01*
X67413189Y16533633D01*
X67388171Y16545681D01*
X67351354Y16560932D01*
X67351324Y16560944D01*
X67208641Y16610871D01*
X67208597Y16610885D01*
X67181243Y16618765D01*
X67170296Y16621919D01*
X67157322Y16624880D01*
X67143233Y16628096D01*
X67143220Y16628099D01*
X67103952Y16634770D01*
X67103896Y16634778D01*
X66946724Y16652487D01*
X66926841Y16654164D01*
X66912947Y16654943D01*
X66893055Y16655500D01*
X66893039Y16655500D01*
X60124500Y16655500D01*
X60057461Y16675185D01*
X60011706Y16727989D01*
X60000500Y16779500D01*
X60000500Y18800000D01*
X62494353Y18800000D01*
X62514834Y18657544D01*
X62564373Y18549071D01*
X62574623Y18526627D01*
X62668872Y18417857D01*
X62789947Y18340047D01*
X62789950Y18340046D01*
X62789949Y18340046D01*
X62928036Y18299501D01*
X62928038Y18299500D01*
X62928039Y18299500D01*
X63071962Y18299500D01*
X63071962Y18299501D01*
X63183138Y18332144D01*
X63210050Y18340046D01*
X63210050Y18340047D01*
X63210053Y18340047D01*
X63331128Y18417857D01*
X63425377Y18526627D01*
X63485165Y18657543D01*
X63505647Y18800000D01*
X63485165Y18942457D01*
X63425377Y19073373D01*
X63331128Y19182143D01*
X63210053Y19259953D01*
X63210051Y19259954D01*
X63210049Y19259955D01*
X63210050Y19259955D01*
X63071963Y19300500D01*
X63071961Y19300500D01*
X62928039Y19300500D01*
X62928036Y19300500D01*
X62789949Y19259955D01*
X62668873Y19182144D01*
X62574623Y19073374D01*
X62574622Y19073372D01*
X62514834Y18942457D01*
X62494353Y18800000D01*
X60000500Y18800000D01*
X60000500Y20741324D01*
X60020185Y20808363D01*
X60036819Y20829005D01*
X63570995Y24363181D01*
X63632318Y24396666D01*
X63658676Y24399500D01*
X66011897Y24399500D01*
X66048208Y24394064D01*
X66542501Y24242686D01*
X66549606Y24240252D01*
X66549773Y24240211D01*
X66549775Y24240210D01*
X66551251Y24239847D01*
X66555858Y24238591D01*
X66556215Y24238517D01*
X66556224Y24238514D01*
X66556232Y24238513D01*
X66556722Y24238411D01*
X66561166Y24237403D01*
X66714944Y24199500D01*
X66885056Y24199500D01*
X67050225Y24240210D01*
X67142681Y24288735D01*
X67200849Y24319264D01*
X67200850Y24319266D01*
X67200852Y24319266D01*
X67328183Y24432071D01*
X67424818Y24572070D01*
X67485140Y24731128D01*
X67505645Y24900000D01*
X67485140Y25068872D01*
X67424818Y25227930D01*
X67328183Y25367929D01*
X67224307Y25459955D01*
X67200849Y25480737D01*
X67050226Y25559790D01*
X66885056Y25600500D01*
X66714944Y25600500D01*
X66549615Y25559751D01*
X66542531Y25557326D01*
X66048205Y25405936D01*
X66011894Y25400500D01*
X63334108Y25400500D01*
X63206812Y25366392D01*
X63092686Y25300500D01*
X63092683Y25300498D01*
X59099502Y21307317D01*
X59099500Y21307314D01*
X59033608Y21193188D01*
X58999500Y21065892D01*
X58999500Y17403947D01*
X58979815Y17336908D01*
X58927011Y17291153D01*
X58857853Y17281209D01*
X58798667Y17306619D01*
X58767371Y17331325D01*
X58767369Y17331328D01*
X53360384Y21600000D01*
X56894353Y21600000D01*
X56914834Y21457544D01*
X56940886Y21400500D01*
X56974623Y21326627D01*
X57068872Y21217857D01*
X57189947Y21140047D01*
X57189950Y21140046D01*
X57189949Y21140046D01*
X57328036Y21099501D01*
X57328038Y21099500D01*
X57328039Y21099500D01*
X57471962Y21099500D01*
X57471962Y21099501D01*
X57610053Y21140047D01*
X57731128Y21217857D01*
X57825377Y21326627D01*
X57885165Y21457543D01*
X57905647Y21600000D01*
X57885165Y21742457D01*
X57825377Y21873373D01*
X57731128Y21982143D01*
X57610053Y22059953D01*
X57610051Y22059954D01*
X57610049Y22059955D01*
X57610050Y22059955D01*
X57471963Y22100500D01*
X57471961Y22100500D01*
X57328039Y22100500D01*
X57328036Y22100500D01*
X57189949Y22059955D01*
X57068873Y21982144D01*
X56974623Y21873374D01*
X56974622Y21873372D01*
X56914834Y21742457D01*
X56894353Y21600000D01*
X53360384Y21600000D01*
X52343700Y22402645D01*
X52327837Y22414467D01*
X52316546Y22422402D01*
X52316542Y22422405D01*
X52300024Y22433340D01*
X52166694Y22516358D01*
X52131991Y22535371D01*
X52107117Y22547250D01*
X52073832Y22560926D01*
X52070495Y22562297D01*
X52070488Y22562299D01*
X51930539Y22610885D01*
X51930522Y22610891D01*
X51929861Y22611120D01*
X51929862Y22611120D01*
X51928835Y22611477D01*
X51928825Y22611480D01*
X51890637Y22622405D01*
X51863754Y22628494D01*
X51824741Y22635072D01*
X51824747Y22635072D01*
X51709786Y22647929D01*
X51709786Y22647930D01*
X51668641Y22652531D01*
X51648917Y22654181D01*
X51635133Y22654950D01*
X51616424Y22655471D01*
X51615354Y22655500D01*
X51615352Y22655500D01*
X37974500Y22655500D01*
X37907461Y22675185D01*
X37861706Y22727989D01*
X37850500Y22779500D01*
X37850500Y25000000D01*
X48294353Y25000000D01*
X48314834Y24857544D01*
X48372566Y24731131D01*
X48374623Y24726627D01*
X48468872Y24617857D01*
X48589947Y24540047D01*
X48589950Y24540046D01*
X48589949Y24540046D01*
X48728036Y24499501D01*
X48728038Y24499500D01*
X48728039Y24499500D01*
X48871962Y24499500D01*
X48871962Y24499501D01*
X49010053Y24540047D01*
X49025540Y24550000D01*
X56744353Y24550000D01*
X56764834Y24407544D01*
X56805150Y24319266D01*
X56824623Y24276627D01*
X56918872Y24167857D01*
X57039947Y24090047D01*
X57039950Y24090046D01*
X57039949Y24090046D01*
X57178036Y24049501D01*
X57178038Y24049500D01*
X57178039Y24049500D01*
X57321962Y24049500D01*
X57321962Y24049501D01*
X57460053Y24090047D01*
X57581128Y24167857D01*
X57675377Y24276627D01*
X57735165Y24407543D01*
X57755647Y24550000D01*
X57735165Y24692457D01*
X57675377Y24823373D01*
X57581128Y24932143D01*
X57460053Y25009953D01*
X57460051Y25009954D01*
X57460049Y25009955D01*
X57460050Y25009955D01*
X57321963Y25050500D01*
X57321961Y25050500D01*
X57178039Y25050500D01*
X57178036Y25050500D01*
X57039949Y25009955D01*
X56918873Y24932144D01*
X56824623Y24823374D01*
X56824622Y24823372D01*
X56764834Y24692457D01*
X56744353Y24550000D01*
X49025540Y24550000D01*
X49131128Y24617857D01*
X49225377Y24726627D01*
X49285165Y24857543D01*
X49305647Y25000000D01*
X49285165Y25142457D01*
X49225377Y25273373D01*
X49131128Y25382143D01*
X49010053Y25459953D01*
X49010051Y25459954D01*
X49010049Y25459955D01*
X49010050Y25459955D01*
X48871963Y25500500D01*
X48871961Y25500500D01*
X48728039Y25500500D01*
X48728036Y25500500D01*
X48589949Y25459955D01*
X48468873Y25382144D01*
X48374623Y25273374D01*
X48374622Y25273372D01*
X48314834Y25142457D01*
X48294353Y25000000D01*
X37850500Y25000000D01*
X37850500Y26300000D01*
X58894353Y26300000D01*
X58914834Y26157544D01*
X58974622Y26026629D01*
X58974623Y26026627D01*
X59068872Y25917857D01*
X59189947Y25840047D01*
X59189950Y25840046D01*
X59189949Y25840046D01*
X59328036Y25799501D01*
X59328038Y25799500D01*
X59328039Y25799500D01*
X59471962Y25799500D01*
X59471962Y25799501D01*
X59610053Y25840047D01*
X59731128Y25917857D01*
X59825377Y26026627D01*
X59885165Y26157543D01*
X59905647Y26300000D01*
X59885165Y26442457D01*
X59825377Y26573373D01*
X59731128Y26682143D01*
X59610053Y26759953D01*
X59610051Y26759954D01*
X59610049Y26759955D01*
X59610050Y26759955D01*
X59471963Y26800500D01*
X59471961Y26800500D01*
X59328039Y26800500D01*
X59328036Y26800500D01*
X59189949Y26759955D01*
X59068873Y26682144D01*
X58974623Y26573374D01*
X58974622Y26573372D01*
X58914834Y26442457D01*
X58894353Y26300000D01*
X37850500Y26300000D01*
X37850500Y29400000D01*
X40844353Y29400000D01*
X40864834Y29257544D01*
X40915640Y29146297D01*
X40924623Y29126627D01*
X41018872Y29017857D01*
X41139947Y28940047D01*
X41139950Y28940046D01*
X41139949Y28940046D01*
X41278036Y28899501D01*
X41278038Y28899500D01*
X41278039Y28899500D01*
X41421962Y28899500D01*
X41421962Y28899501D01*
X41560053Y28940047D01*
X41681128Y29017857D01*
X41775377Y29126627D01*
X41835165Y29257543D01*
X41855647Y29400000D01*
X41835165Y29542457D01*
X41775377Y29673373D01*
X41681128Y29782143D01*
X41560053Y29859953D01*
X41560051Y29859954D01*
X41560049Y29859955D01*
X41560050Y29859955D01*
X41421963Y29900500D01*
X41421961Y29900500D01*
X41278039Y29900500D01*
X41278036Y29900500D01*
X41139949Y29859955D01*
X41018873Y29782144D01*
X40924623Y29673374D01*
X40924622Y29673372D01*
X40864834Y29542457D01*
X40844353Y29400000D01*
X37850500Y29400000D01*
X37850500Y30200000D01*
X39094353Y30200000D01*
X39114834Y30057544D01*
X39174622Y29926629D01*
X39174623Y29926627D01*
X39268872Y29817857D01*
X39389947Y29740047D01*
X39389950Y29740046D01*
X39389949Y29740046D01*
X39528036Y29699501D01*
X39528038Y29699500D01*
X39528039Y29699500D01*
X39671962Y29699500D01*
X39671962Y29699501D01*
X39810053Y29740047D01*
X39931128Y29817857D01*
X40025377Y29926627D01*
X40085165Y30057543D01*
X40105647Y30200000D01*
X40085165Y30342457D01*
X40025377Y30473373D01*
X39931128Y30582143D01*
X39810053Y30659953D01*
X39810051Y30659954D01*
X39810049Y30659955D01*
X39810050Y30659955D01*
X39671963Y30700500D01*
X39671961Y30700500D01*
X39528039Y30700500D01*
X39528036Y30700500D01*
X39389949Y30659955D01*
X39268873Y30582144D01*
X39174623Y30473374D01*
X39174622Y30473372D01*
X39114834Y30342457D01*
X39094353Y30200000D01*
X37850500Y30200000D01*
X37850500Y31000000D01*
X42194353Y31000000D01*
X42214834Y30857544D01*
X42274622Y30726629D01*
X42274623Y30726627D01*
X42368872Y30617857D01*
X42489947Y30540047D01*
X42489950Y30540046D01*
X42489949Y30540046D01*
X42628036Y30499501D01*
X42628038Y30499500D01*
X42628039Y30499500D01*
X42771962Y30499500D01*
X42771962Y30499501D01*
X42910053Y30540047D01*
X43031128Y30617857D01*
X43125377Y30726627D01*
X43185165Y30857543D01*
X43205647Y31000000D01*
X43185165Y31142457D01*
X43125377Y31273373D01*
X43031128Y31382143D01*
X42910053Y31459953D01*
X42910051Y31459954D01*
X42910049Y31459955D01*
X42910050Y31459955D01*
X42771963Y31500500D01*
X42771961Y31500500D01*
X42628039Y31500500D01*
X42628036Y31500500D01*
X42489949Y31459955D01*
X42368873Y31382144D01*
X42274623Y31273374D01*
X42274622Y31273372D01*
X42214834Y31142457D01*
X42194353Y31000000D01*
X37850500Y31000000D01*
X37850500Y36100000D01*
X46694355Y36100000D01*
X46714859Y35931131D01*
X46714859Y35931130D01*
X46714860Y35931128D01*
X46741870Y35859905D01*
X46745251Y35850992D01*
X46749510Y35837476D01*
X46755882Y35812323D01*
X46755884Y35812319D01*
X46964051Y35337861D01*
X46974500Y35288042D01*
X46974500Y30706018D01*
X46974500Y30593982D01*
X47003497Y30485763D01*
X47059515Y30388737D01*
X48538737Y28909515D01*
X48635763Y28853497D01*
X48743982Y28824500D01*
X48856018Y28824500D01*
X68272390Y28824500D01*
X68339429Y28804815D01*
X68360071Y28788181D01*
X68888181Y28260071D01*
X68921666Y28198748D01*
X68924500Y28172390D01*
X68924500Y24606018D01*
X68924500Y24493982D01*
X68953497Y24385763D01*
X69009515Y24288737D01*
X69009517Y24288735D01*
X75738181Y17560071D01*
X75771666Y17498748D01*
X75774500Y17472390D01*
X75774500Y14656018D01*
X75774500Y14543982D01*
X75803497Y14435763D01*
X75859515Y14338737D01*
X77638737Y12559515D01*
X77735763Y12503497D01*
X77843982Y12474500D01*
X77843984Y12474500D01*
X87406016Y12474500D01*
X87406018Y12474500D01*
X87514237Y12503497D01*
X87611263Y12559515D01*
X88540485Y13488737D01*
X88596503Y13585763D01*
X88625500Y13693982D01*
X88625500Y13806019D01*
X88625500Y14188042D01*
X88635948Y14237861D01*
X88635949Y14237863D01*
X88844115Y14712320D01*
X88845066Y14714507D01*
X88845150Y14714702D01*
X88854594Y14739052D01*
X88856105Y14747971D01*
X88862421Y14771222D01*
X88885139Y14831123D01*
X88885139Y14831125D01*
X88885139Y14831126D01*
X88885140Y14831128D01*
X88905645Y15000000D01*
X88885140Y15168872D01*
X88824818Y15327930D01*
X88819411Y15335763D01*
X88762696Y15417928D01*
X88728183Y15467929D01*
X88600852Y15580734D01*
X88600849Y15580737D01*
X88450226Y15659790D01*
X88285056Y15700500D01*
X88114944Y15700500D01*
X87949773Y15659790D01*
X87799150Y15580737D01*
X87742709Y15530734D01*
X87676853Y15472390D01*
X87671816Y15467928D01*
X87575182Y15327932D01*
X87514860Y15168875D01*
X87514859Y15168870D01*
X87494355Y15000000D01*
X87514859Y14831131D01*
X87514859Y14831130D01*
X87514860Y14831128D01*
X87541870Y14759905D01*
X87545251Y14750992D01*
X87549510Y14737476D01*
X87555882Y14712323D01*
X87555885Y14712316D01*
X87616846Y14573374D01*
X87764051Y14237861D01*
X87774500Y14188042D01*
X87774500Y13977610D01*
X87754815Y13910571D01*
X87738181Y13889929D01*
X87210071Y13361819D01*
X87148748Y13328334D01*
X87122390Y13325500D01*
X78127610Y13325500D01*
X78060571Y13345185D01*
X78039929Y13361819D01*
X76661819Y14739929D01*
X76628334Y14801252D01*
X76625500Y14827610D01*
X76625500Y17756016D01*
X76625500Y17756018D01*
X76596503Y17864237D01*
X76596500Y17864241D01*
X76596407Y17864468D01*
X76596384Y17864679D01*
X76594399Y17872088D01*
X76595554Y17872398D01*
X76588935Y17933937D01*
X76620208Y17996418D01*
X76680296Y18032072D01*
X76750121Y18029581D01*
X76798647Y17999606D01*
X76938181Y17860072D01*
X76971666Y17798749D01*
X76974500Y17772391D01*
X76974500Y15556018D01*
X76974500Y15443982D01*
X77003497Y15335763D01*
X77059515Y15238737D01*
X78438737Y13859515D01*
X78535763Y13803497D01*
X78643982Y13774500D01*
X78643984Y13774500D01*
X85206016Y13774500D01*
X85206018Y13774500D01*
X85314237Y13803497D01*
X85411263Y13859515D01*
X85626737Y14074991D01*
X85669347Y14102826D01*
X86141263Y14286919D01*
X86143200Y14287532D01*
X86143196Y14287543D01*
X86151928Y14290856D01*
X86153477Y14291605D01*
X86155310Y14292417D01*
X86155354Y14292434D01*
X86178312Y14302596D01*
X86181507Y14304865D01*
X86184249Y14306811D01*
X86198408Y14315500D01*
X86300852Y14369266D01*
X86428183Y14482071D01*
X86524818Y14622070D01*
X86585140Y14781128D01*
X86605645Y14950000D01*
X86585140Y15118872D01*
X86573524Y15149500D01*
X86540498Y15236584D01*
X86524818Y15277930D01*
X86428183Y15417929D01*
X86300852Y15530734D01*
X86300849Y15530737D01*
X86150226Y15609790D01*
X85985056Y15650500D01*
X85814944Y15650500D01*
X85649773Y15609790D01*
X85499150Y15530737D01*
X85371816Y15417928D01*
X85275181Y15277930D01*
X85275179Y15277926D01*
X85259500Y15236584D01*
X85250093Y15217103D01*
X85241120Y15202039D01*
X85052824Y14719351D01*
X85024987Y14676738D01*
X85010072Y14661822D01*
X84948750Y14628335D01*
X84922388Y14625500D01*
X78927610Y14625500D01*
X78860571Y14645185D01*
X78839929Y14661819D01*
X77861819Y15639929D01*
X77828334Y15701252D01*
X77825500Y15727610D01*
X77825500Y17950000D01*
X81244353Y17950000D01*
X81264834Y17807544D01*
X81324622Y17676629D01*
X81324623Y17676627D01*
X81418872Y17567857D01*
X81539947Y17490047D01*
X81539950Y17490046D01*
X81539949Y17490046D01*
X81678036Y17449501D01*
X81678038Y17449500D01*
X81678039Y17449500D01*
X81821962Y17449500D01*
X81821962Y17449501D01*
X81960053Y17490047D01*
X82053342Y17550000D01*
X83944353Y17550000D01*
X83964834Y17407544D01*
X84024622Y17276629D01*
X84024623Y17276627D01*
X84118872Y17167857D01*
X84239947Y17090047D01*
X84239950Y17090046D01*
X84239949Y17090046D01*
X84342602Y17059905D01*
X84376336Y17050000D01*
X84378036Y17049501D01*
X84378038Y17049500D01*
X84378039Y17049500D01*
X84521962Y17049500D01*
X84521962Y17049501D01*
X84660053Y17090047D01*
X84781128Y17167857D01*
X84875377Y17276627D01*
X84935165Y17407543D01*
X84955647Y17550000D01*
X84935165Y17692457D01*
X84875377Y17823373D01*
X84781128Y17932143D01*
X84660053Y18009953D01*
X84660051Y18009954D01*
X84660049Y18009955D01*
X84660050Y18009955D01*
X84521963Y18050500D01*
X84521961Y18050500D01*
X84378039Y18050500D01*
X84378036Y18050500D01*
X84239949Y18009955D01*
X84118873Y17932144D01*
X84024623Y17823374D01*
X84024622Y17823372D01*
X83964834Y17692457D01*
X83944353Y17550000D01*
X82053342Y17550000D01*
X82081128Y17567857D01*
X82175377Y17676627D01*
X82235165Y17807543D01*
X82255647Y17950000D01*
X82235165Y18092457D01*
X82175377Y18223373D01*
X82081128Y18332143D01*
X81960053Y18409953D01*
X81960051Y18409954D01*
X81960049Y18409955D01*
X81960050Y18409955D01*
X81821963Y18450500D01*
X81821961Y18450500D01*
X81678039Y18450500D01*
X81678036Y18450500D01*
X81539949Y18409955D01*
X81418873Y18332144D01*
X81324623Y18223374D01*
X81324622Y18223372D01*
X81264834Y18092457D01*
X81244353Y17950000D01*
X77825500Y17950000D01*
X77825500Y18056016D01*
X77825500Y18056018D01*
X77824493Y18059776D01*
X77824493Y18059792D01*
X77824489Y18059790D01*
X77796503Y18164237D01*
X77785520Y18183260D01*
X77740485Y18261263D01*
X77661263Y18340485D01*
X77661262Y18340486D01*
X77656932Y18344816D01*
X77656921Y18344826D01*
X76651747Y19350000D01*
X80494353Y19350000D01*
X80514834Y19207544D01*
X80557699Y19113685D01*
X80574623Y19076627D01*
X80668872Y18967857D01*
X80789947Y18890047D01*
X80789950Y18890046D01*
X80789949Y18890046D01*
X80928036Y18849501D01*
X80928038Y18849500D01*
X80928039Y18849500D01*
X81071962Y18849500D01*
X81071962Y18849501D01*
X81179121Y18880965D01*
X81210050Y18890046D01*
X81210050Y18890047D01*
X81210053Y18890047D01*
X81331128Y18967857D01*
X81425377Y19076627D01*
X81485165Y19207543D01*
X81505647Y19350000D01*
X81498458Y19400000D01*
X82344353Y19400000D01*
X82364834Y19257544D01*
X82406600Y19166092D01*
X82424623Y19126627D01*
X82518872Y19017857D01*
X82639947Y18940047D01*
X82639950Y18940046D01*
X82639949Y18940046D01*
X82778036Y18899501D01*
X82778038Y18899500D01*
X82778039Y18899500D01*
X82921962Y18899500D01*
X82921962Y18899501D01*
X83060053Y18940047D01*
X83181128Y19017857D01*
X83275377Y19126627D01*
X83335165Y19257543D01*
X83355647Y19400000D01*
X83335165Y19542457D01*
X83275377Y19673373D01*
X83181128Y19782143D01*
X83060053Y19859953D01*
X83060051Y19859954D01*
X83060049Y19859955D01*
X83060050Y19859955D01*
X82921963Y19900500D01*
X82921961Y19900500D01*
X82778039Y19900500D01*
X82778036Y19900500D01*
X82639949Y19859955D01*
X82518873Y19782144D01*
X82518872Y19782144D01*
X82518872Y19782143D01*
X82517654Y19780737D01*
X82424623Y19673374D01*
X82424622Y19673372D01*
X82364834Y19542457D01*
X82344353Y19400000D01*
X81498458Y19400000D01*
X81485165Y19492457D01*
X81425377Y19623373D01*
X81331128Y19732143D01*
X81210053Y19809953D01*
X81210051Y19809954D01*
X81210049Y19809955D01*
X81210050Y19809955D01*
X81071963Y19850500D01*
X81071961Y19850500D01*
X80928039Y19850500D01*
X80928036Y19850500D01*
X80789949Y19809955D01*
X80668873Y19732144D01*
X80574623Y19623374D01*
X80574622Y19623372D01*
X80514834Y19492457D01*
X80494353Y19350000D01*
X76651747Y19350000D01*
X70611819Y25389929D01*
X70578334Y25451252D01*
X70575500Y25477610D01*
X70575500Y35106016D01*
X70575500Y35106018D01*
X70546503Y35214237D01*
X70490485Y35311263D01*
X70411263Y35390485D01*
X69561263Y36240485D01*
X69464237Y36296503D01*
X69356018Y36325500D01*
X69356017Y36325500D01*
X66765110Y36325500D01*
X66698071Y36345185D01*
X66677429Y36361819D01*
X66262514Y36776734D01*
X66234674Y36819350D01*
X66199312Y36910000D01*
X66046379Y37302037D01*
X66045145Y37305158D01*
X66045134Y37305187D01*
X66045075Y37305332D01*
X66045066Y37305355D01*
X66034904Y37328313D01*
X66034901Y37328318D01*
X66031829Y37333720D01*
X66032187Y37333924D01*
X66021178Y37354567D01*
X66012318Y37377930D01*
X65915683Y37517929D01*
X65804725Y37616229D01*
X65788349Y37630737D01*
X65637726Y37709790D01*
X65472556Y37750500D01*
X65302444Y37750500D01*
X65137273Y37709790D01*
X64986650Y37630737D01*
X64859316Y37517928D01*
X64762682Y37377932D01*
X64702360Y37218875D01*
X64702359Y37218870D01*
X64681855Y37050000D01*
X64702359Y36881131D01*
X64702360Y36881126D01*
X64762682Y36722069D01*
X64791212Y36680737D01*
X64859317Y36582071D01*
X64986648Y36469266D01*
X65131927Y36393018D01*
X65134280Y36391699D01*
X65134842Y36391425D01*
X65137132Y36390265D01*
X65137269Y36390213D01*
X65137275Y36390210D01*
X65137280Y36390209D01*
X65144306Y36387543D01*
X65144301Y36387531D01*
X65146237Y36386919D01*
X65521613Y36240485D01*
X65618150Y36202826D01*
X65660766Y36174986D01*
X66197015Y35638737D01*
X66276237Y35559515D01*
X66373263Y35503497D01*
X66481482Y35474500D01*
X69072390Y35474500D01*
X69139429Y35454815D01*
X69160071Y35438181D01*
X69688181Y34910071D01*
X69721666Y34848748D01*
X69724500Y34822390D01*
X69724500Y28926610D01*
X69704815Y28859571D01*
X69652011Y28813816D01*
X69582853Y28803872D01*
X69519297Y28832897D01*
X69512819Y28838929D01*
X68761265Y29590483D01*
X68761263Y29590485D01*
X68664237Y29646503D01*
X68556018Y29675500D01*
X68556017Y29675500D01*
X49027610Y29675500D01*
X48960571Y29695185D01*
X48939929Y29711819D01*
X47861819Y30789929D01*
X47828334Y30851252D01*
X47825500Y30877610D01*
X47825500Y30950000D01*
X50294353Y30950000D01*
X50314834Y30807544D01*
X50361200Y30706018D01*
X50374623Y30676627D01*
X50468872Y30567857D01*
X50589947Y30490047D01*
X50589950Y30490046D01*
X50589949Y30490046D01*
X50728036Y30449501D01*
X50728038Y30449500D01*
X50728039Y30449500D01*
X50871962Y30449500D01*
X50871962Y30449501D01*
X51010053Y30490047D01*
X51131128Y30567857D01*
X51225377Y30676627D01*
X51285165Y30807543D01*
X51305647Y30950000D01*
X51285165Y31092457D01*
X51225377Y31223373D01*
X51131128Y31332143D01*
X51010053Y31409953D01*
X51010051Y31409954D01*
X51010049Y31409955D01*
X51010050Y31409955D01*
X50871963Y31450500D01*
X50871961Y31450500D01*
X50728039Y31450500D01*
X50728036Y31450500D01*
X50589949Y31409955D01*
X50468873Y31332144D01*
X50468872Y31332144D01*
X50468872Y31332143D01*
X50463806Y31326296D01*
X50374623Y31223374D01*
X50374622Y31223372D01*
X50314834Y31092457D01*
X50294353Y30950000D01*
X47825500Y30950000D01*
X47825500Y31600000D01*
X58494353Y31600000D01*
X58514834Y31457544D01*
X58549269Y31382144D01*
X58574623Y31326627D01*
X58668872Y31217857D01*
X58789947Y31140047D01*
X58789950Y31140046D01*
X58789949Y31140046D01*
X58928036Y31099501D01*
X58928038Y31099500D01*
X58928039Y31099500D01*
X59071962Y31099500D01*
X59071962Y31099501D01*
X59210053Y31140047D01*
X59331128Y31217857D01*
X59425377Y31326627D01*
X59485165Y31457543D01*
X59505647Y31600000D01*
X59485165Y31742457D01*
X59425377Y31873373D01*
X59331128Y31982143D01*
X59210053Y32059953D01*
X59210051Y32059954D01*
X59210049Y32059955D01*
X59210050Y32059955D01*
X59071963Y32100500D01*
X59071961Y32100500D01*
X58928039Y32100500D01*
X58928036Y32100500D01*
X58789949Y32059955D01*
X58668873Y31982144D01*
X58574623Y31873374D01*
X58574622Y31873372D01*
X58514834Y31742457D01*
X58494353Y31600000D01*
X47825500Y31600000D01*
X47825500Y34100000D01*
X62481853Y34100000D01*
X62502334Y33957544D01*
X62562122Y33826629D01*
X62562123Y33826627D01*
X62656372Y33717857D01*
X62777447Y33640047D01*
X62777450Y33640046D01*
X62777449Y33640046D01*
X62915536Y33599501D01*
X62915538Y33599500D01*
X62915539Y33599500D01*
X63059462Y33599500D01*
X63059462Y33599501D01*
X63197553Y33640047D01*
X63318628Y33717857D01*
X63412877Y33826627D01*
X63472665Y33957543D01*
X63493147Y34100000D01*
X63472665Y34242457D01*
X63412877Y34373373D01*
X63318628Y34482143D01*
X63197553Y34559953D01*
X63197551Y34559954D01*
X63197549Y34559955D01*
X63197550Y34559955D01*
X63059463Y34600500D01*
X63059461Y34600500D01*
X62915539Y34600500D01*
X62915536Y34600500D01*
X62777449Y34559955D01*
X62656373Y34482144D01*
X62562123Y34373374D01*
X62562122Y34373372D01*
X62502334Y34242457D01*
X62481853Y34100000D01*
X47825500Y34100000D01*
X47825500Y35288041D01*
X47835948Y35337861D01*
X47849109Y35367857D01*
X48044115Y35812320D01*
X48045066Y35814507D01*
X48045150Y35814702D01*
X48054594Y35839052D01*
X48056105Y35847971D01*
X48062421Y35871222D01*
X48085139Y35931123D01*
X48085139Y35931125D01*
X48085139Y35931126D01*
X48085140Y35931128D01*
X48105645Y36100000D01*
X48085140Y36268872D01*
X48074661Y36296502D01*
X48040139Y36387531D01*
X48024818Y36427930D01*
X47928183Y36567929D01*
X47800852Y36680734D01*
X47800849Y36680737D01*
X47650226Y36759790D01*
X47485056Y36800500D01*
X47314944Y36800500D01*
X47149773Y36759790D01*
X46999150Y36680737D01*
X46871816Y36567928D01*
X46775182Y36427932D01*
X46714860Y36268875D01*
X46714859Y36268870D01*
X46694355Y36100000D01*
X37850500Y36100000D01*
X37850500Y40300000D01*
X44894353Y40300000D01*
X44914834Y40157544D01*
X44974622Y40026629D01*
X44974623Y40026627D01*
X45068872Y39917857D01*
X45189947Y39840047D01*
X45189950Y39840046D01*
X45189949Y39840046D01*
X45328036Y39799501D01*
X45328038Y39799500D01*
X45328039Y39799500D01*
X45471962Y39799500D01*
X45471962Y39799501D01*
X45610053Y39840047D01*
X45731128Y39917857D01*
X45825377Y40026627D01*
X45885165Y40157543D01*
X45905647Y40300000D01*
X45885165Y40442457D01*
X45825377Y40573373D01*
X45731128Y40682143D01*
X45610053Y40759953D01*
X45610051Y40759954D01*
X45610049Y40759955D01*
X45610050Y40759955D01*
X45471963Y40800500D01*
X45471961Y40800500D01*
X45328039Y40800500D01*
X45328036Y40800500D01*
X45189949Y40759955D01*
X45068873Y40682144D01*
X44974623Y40573374D01*
X44974622Y40573372D01*
X44914834Y40442457D01*
X44894353Y40300000D01*
X37850500Y40300000D01*
X37850500Y41696349D01*
X37870185Y41763388D01*
X37886819Y41784030D01*
X38802789Y42700000D01*
X46794353Y42700000D01*
X46814834Y42557544D01*
X46863720Y42450500D01*
X46874623Y42426627D01*
X46968872Y42317857D01*
X47089947Y42240047D01*
X47089950Y42240046D01*
X47089949Y42240046D01*
X47228036Y42199501D01*
X47228038Y42199500D01*
X47228039Y42199500D01*
X47371962Y42199500D01*
X47371962Y42199501D01*
X47510053Y42240047D01*
X47631128Y42317857D01*
X47725377Y42426627D01*
X47785165Y42557543D01*
X47805647Y42700000D01*
X47785165Y42842457D01*
X47725377Y42973373D01*
X47631128Y43082143D01*
X47510053Y43159953D01*
X47510051Y43159954D01*
X47510049Y43159955D01*
X47510050Y43159955D01*
X47371963Y43200500D01*
X47371961Y43200500D01*
X47228039Y43200500D01*
X47228036Y43200500D01*
X47089949Y43159955D01*
X46968873Y43082144D01*
X46874623Y42973374D01*
X46874622Y42973372D01*
X46814834Y42842457D01*
X46794353Y42700000D01*
X38802789Y42700000D01*
X41115970Y45013181D01*
X41177293Y45046666D01*
X41203651Y45049500D01*
X62696349Y45049500D01*
X62763388Y45029815D01*
X62784030Y45013181D01*
X63913181Y43884031D01*
X63946666Y43822708D01*
X63949500Y43796350D01*
X63949500Y40616229D01*
X63982182Y40451926D01*
X63982184Y40451918D01*
X64046295Y40297140D01*
X64139373Y40157838D01*
X64257837Y40039374D01*
X64306278Y40007007D01*
X64397137Y39946297D01*
X64551918Y39882184D01*
X64716228Y39849501D01*
X64716232Y39849500D01*
X64716233Y39849500D01*
X64883768Y39849500D01*
X64883769Y39849501D01*
X65048082Y39882184D01*
X65202863Y39946297D01*
X65342162Y40039374D01*
X65460626Y40157838D01*
X65553703Y40297137D01*
X65617816Y40451918D01*
X65650500Y40616233D01*
X65650500Y44283767D01*
X65617816Y44448082D01*
X65599037Y44493416D01*
X65553704Y44602863D01*
X65460626Y44742162D01*
X65460622Y44742166D01*
X65460620Y44742169D01*
X65364970Y44837819D01*
X65331485Y44899142D01*
X65336469Y44968834D01*
X65378341Y45024767D01*
X65443805Y45049184D01*
X65452651Y45049500D01*
X69496349Y45049500D01*
X69563388Y45029815D01*
X69584030Y45013181D01*
X73213181Y41384030D01*
X73246666Y41322707D01*
X73249500Y41296349D01*
X73249500Y37616229D01*
X73282182Y37451926D01*
X73282184Y37451918D01*
X73346295Y37297140D01*
X73439373Y37157838D01*
X73557837Y37039374D01*
X73650494Y36977463D01*
X73697137Y36946297D01*
X73851918Y36882184D01*
X74016228Y36849501D01*
X74016232Y36849500D01*
X74016233Y36849500D01*
X74183768Y36849500D01*
X74183769Y36849501D01*
X74348082Y36882184D01*
X74502863Y36946297D01*
X74642162Y37039374D01*
X74760626Y37157838D01*
X74853703Y37297137D01*
X74917816Y37451918D01*
X74950500Y37616233D01*
X74950500Y41783767D01*
X74917816Y41948082D01*
X74906028Y41976541D01*
X74889587Y42016234D01*
X74853707Y42102857D01*
X74853700Y42102870D01*
X74760627Y42242162D01*
X74760624Y42242166D01*
X72164970Y44837819D01*
X72131485Y44899142D01*
X72136469Y44968834D01*
X72178341Y45024767D01*
X72243805Y45049184D01*
X72252651Y45049500D01*
X84196349Y45049500D01*
X84263388Y45029815D01*
X84284030Y45013181D01*
X90713181Y38584030D01*
X90746666Y38522707D01*
X90749500Y38496349D01*
X90749500Y29816229D01*
X90782182Y29651926D01*
X90782184Y29651918D01*
X90846295Y29497140D01*
X90939373Y29357838D01*
X91057837Y29239374D01*
X91150494Y29177463D01*
X91197137Y29146297D01*
X91351918Y29082184D01*
X91516228Y29049501D01*
X91516232Y29049500D01*
X91516233Y29049500D01*
X91683768Y29049500D01*
X91683769Y29049501D01*
X91848082Y29082184D01*
X92002863Y29146297D01*
X92142162Y29239374D01*
X92260626Y29357838D01*
X92353703Y29497137D01*
X92417816Y29651918D01*
X92450500Y29816233D01*
X92450500Y38983767D01*
X92417816Y39148082D01*
X92399037Y39193416D01*
X92353704Y39302863D01*
X92260627Y39442162D01*
X92260624Y39442166D01*
X85142165Y46560625D01*
X85142161Y46560628D01*
X85002866Y46653703D01*
X85002863Y46653704D01*
X84893416Y46699038D01*
X84893414Y46699039D01*
X84848086Y46717815D01*
X84848074Y46717818D01*
X84683771Y46750500D01*
X84683767Y46750500D01*
X69983767Y46750500D01*
X63183767Y46750500D01*
X40716233Y46750500D01*
X40716228Y46750500D01*
X40551925Y46717818D01*
X40551913Y46717815D01*
X40487805Y46691261D01*
X40487806Y46691260D01*
X40397140Y46653706D01*
X40397131Y46653701D01*
X40257838Y46560628D01*
X40257834Y46560625D01*
X36339375Y42642166D01*
X36339372Y42642162D01*
X36246297Y42502867D01*
X36246296Y42502864D01*
X36210273Y42415895D01*
X36210273Y42415894D01*
X36182184Y42348083D01*
X36182182Y42348075D01*
X36149500Y42183772D01*
X36149500Y22779500D01*
X36129815Y22712461D01*
X36077011Y22666706D01*
X36025500Y22655500D01*
X32006945Y22655500D01*
X31987051Y22654943D01*
X31973160Y22654164D01*
X31953271Y22652487D01*
X31796105Y22634778D01*
X31796045Y22634770D01*
X31756777Y22628099D01*
X31756765Y22628096D01*
X31729695Y22621918D01*
X31691386Y22610881D01*
X31691370Y22610876D01*
X31548671Y22560943D01*
X31548627Y22560926D01*
X31511839Y22545687D01*
X31511829Y22545683D01*
X31511826Y22545681D01*
X31507326Y22543514D01*
X31486825Y22533642D01*
X31486814Y22533636D01*
X31451922Y22514351D01*
X31323894Y22433906D01*
X31323884Y22433899D01*
X31291377Y22410834D01*
X31281111Y22402646D01*
X31269675Y22393526D01*
X31269668Y22393521D01*
X31269667Y22393519D01*
X31239956Y22366967D01*
X31133033Y22260044D01*
X31106481Y22230333D01*
X31106474Y22230325D01*
X31097735Y22219368D01*
X31089166Y22208623D01*
X31066101Y22176116D01*
X31066094Y22176106D01*
X30985649Y22048078D01*
X30966364Y22013186D01*
X30966358Y22013175D01*
X30954313Y21988161D01*
X30939074Y21951373D01*
X30939057Y21951330D01*
X30889120Y21808618D01*
X30889117Y21808607D01*
X30878077Y21770286D01*
X30871906Y21743236D01*
X30871896Y21743185D01*
X30865231Y21703955D01*
X30865222Y21703889D01*
X30847518Y21546758D01*
X30847516Y21546737D01*
X30847515Y21546726D01*
X30845840Y21526863D01*
X30845840Y21526855D01*
X30845059Y21512966D01*
X30844500Y21493041D01*
X30844500Y20106961D01*
X30845059Y20087036D01*
X30845060Y20087022D01*
X30845840Y20073138D01*
X30847515Y20053275D01*
X30847518Y20053244D01*
X30865223Y19896099D01*
X30865228Y19896065D01*
X30871902Y19856779D01*
X30878076Y19829727D01*
X30878082Y19829701D01*
X30889122Y19791380D01*
X30889126Y19791367D01*
X30939056Y19648676D01*
X30939068Y19648646D01*
X30954319Y19611829D01*
X30966360Y19586825D01*
X30966363Y19586820D01*
X30966367Y19586812D01*
X30985648Y19551925D01*
X31066091Y19423900D01*
X31089163Y19391384D01*
X31089172Y19391372D01*
X31106466Y19369686D01*
X31106478Y19369672D01*
X31133039Y19339952D01*
X31239951Y19233040D01*
X31268480Y19207543D01*
X31269670Y19206480D01*
X31269684Y19206468D01*
X31277795Y19200000D01*
X31291380Y19189166D01*
X31323899Y19166092D01*
X31451924Y19085649D01*
X31486811Y19066368D01*
X31511828Y19054320D01*
X31536614Y19044054D01*
X31548644Y19039070D01*
X31548674Y19039058D01*
X31691365Y18989128D01*
X31691380Y18989124D01*
X31691384Y18989122D01*
X31729701Y18978083D01*
X31756772Y18971905D01*
X31770787Y18969525D01*
X31796268Y18965195D01*
X31859064Y18934561D01*
X31895329Y18874839D01*
X31899500Y18842947D01*
X31899500Y16200098D01*
X31879815Y16133059D01*
X31863181Y16112417D01*
X29959481Y14208718D01*
X29959480Y14208716D01*
X29923741Y14146814D01*
X29880423Y14071785D01*
X29839499Y13919057D01*
X29839499Y13919055D01*
X29839499Y13750954D01*
X29839500Y13750941D01*
X29839500Y9459272D01*
X29819815Y9392233D01*
X29816804Y9387763D01*
X29303516Y8660606D01*
X29301029Y8656802D01*
X29300804Y8656487D01*
X29249426Y8551392D01*
X29239500Y8483261D01*
X29239500Y8443527D01*
X29238830Y8430657D01*
X29237958Y8422301D01*
X29211422Y8357666D01*
X29154154Y8317639D01*
X29084337Y8314928D01*
X29024137Y8350392D01*
X29013053Y8364048D01*
X28938113Y8471074D01*
X28938108Y8471080D01*
X28771082Y8638106D01*
X28577578Y8773601D01*
X28363492Y8873430D01*
X28363486Y8873433D01*
X28150000Y8930636D01*
X28150000Y8033012D01*
X28092993Y8065925D01*
X27965826Y8100000D01*
X27834174Y8100000D01*
X27707007Y8065925D01*
X27650000Y8033012D01*
X27650000Y8930636D01*
X27649999Y8930636D01*
X27436513Y8873433D01*
X27436507Y8873430D01*
X27222422Y8773601D01*
X27222420Y8773600D01*
X27220619Y8772338D01*
X27219698Y8772028D01*
X27217735Y8770894D01*
X27217507Y8771289D01*
X27154412Y8750013D01*
X27086645Y8767027D01*
X27038835Y8817977D01*
X27025500Y8873916D01*
X27025500Y16588041D01*
X27035948Y16637861D01*
X27042365Y16652487D01*
X27244115Y17112320D01*
X27245066Y17114507D01*
X27245150Y17114702D01*
X27254594Y17139052D01*
X27256105Y17147971D01*
X27262421Y17171222D01*
X27285139Y17231123D01*
X27285139Y17231125D01*
X27285139Y17231126D01*
X27285140Y17231128D01*
X27305645Y17400000D01*
X27285140Y17568872D01*
X27277913Y17587927D01*
X27234325Y17702861D01*
X27224818Y17727930D01*
X27216663Y17739744D01*
X27169864Y17807544D01*
X27128183Y17867929D01*
X27018985Y17964670D01*
X27000849Y17980737D01*
X26850226Y18059790D01*
X26685056Y18100500D01*
X26514944Y18100500D01*
X26349773Y18059790D01*
X26199150Y17980737D01*
X26108018Y17900000D01*
X26076862Y17872398D01*
X26071816Y17867928D01*
X25975182Y17727932D01*
X25914860Y17568875D01*
X25914859Y17568870D01*
X25894355Y17400000D01*
X25914859Y17231131D01*
X25914859Y17231130D01*
X25914860Y17231128D01*
X25941870Y17159905D01*
X25945251Y17150992D01*
X25949510Y17137476D01*
X25955882Y17112323D01*
X25955885Y17112316D01*
X25984117Y17047969D01*
X26164051Y16637861D01*
X26174500Y16588042D01*
X26174500Y8904394D01*
X26154815Y8837355D01*
X26102011Y8791600D01*
X26032853Y8781656D01*
X25998096Y8792012D01*
X25823497Y8873429D01*
X25823486Y8873433D01*
X25610000Y8930636D01*
X25610000Y8033012D01*
X25552993Y8065925D01*
X25425826Y8100000D01*
X25294174Y8100000D01*
X25167007Y8065925D01*
X25110000Y8033012D01*
X25110000Y8930636D01*
X25109999Y8930636D01*
X24896513Y8873433D01*
X24896507Y8873430D01*
X24701905Y8782685D01*
X24632827Y8772193D01*
X24569043Y8800713D01*
X24530804Y8859189D01*
X24525500Y8895067D01*
X24525500Y16588041D01*
X24535948Y16637861D01*
X24542365Y16652487D01*
X24744115Y17112320D01*
X24745066Y17114507D01*
X24745150Y17114702D01*
X24754594Y17139052D01*
X24756105Y17147971D01*
X24762421Y17171222D01*
X24785139Y17231123D01*
X24785139Y17231125D01*
X24785139Y17231126D01*
X24785140Y17231128D01*
X24805645Y17400000D01*
X24785140Y17568872D01*
X24777913Y17587927D01*
X24734325Y17702861D01*
X24724818Y17727930D01*
X24716663Y17739744D01*
X24669864Y17807544D01*
X24628183Y17867929D01*
X24518985Y17964670D01*
X24500849Y17980737D01*
X24350226Y18059790D01*
X24185056Y18100500D01*
X24014944Y18100500D01*
X23849773Y18059790D01*
X23699150Y17980737D01*
X23608018Y17900000D01*
X23576862Y17872398D01*
X23571816Y17867928D01*
X23475182Y17727932D01*
X23414860Y17568875D01*
X23414859Y17568870D01*
X23394355Y17400000D01*
X23414859Y17231131D01*
X23414859Y17231130D01*
X23414860Y17231128D01*
X23441870Y17159905D01*
X23445251Y17150992D01*
X23449510Y17137476D01*
X23455882Y17112323D01*
X23455885Y17112316D01*
X23484117Y17047969D01*
X23664051Y16637861D01*
X23674500Y16588042D01*
X23674500Y8885742D01*
X23654815Y8818703D01*
X23602011Y8772948D01*
X23532853Y8763004D01*
X23498096Y8773360D01*
X23283497Y8873429D01*
X23283486Y8873433D01*
X23070000Y8930636D01*
X23070000Y8033012D01*
X23012993Y8065925D01*
X22885826Y8100000D01*
X22754174Y8100000D01*
X22627007Y8065925D01*
X22570000Y8033012D01*
X22570000Y8930636D01*
X22569999Y8930636D01*
X22356513Y8873433D01*
X22356507Y8873430D01*
X22201905Y8801338D01*
X22132827Y8790846D01*
X22069043Y8819366D01*
X22030804Y8877843D01*
X22025500Y8913720D01*
X22025500Y16488041D01*
X22035948Y16537861D01*
X22039649Y16546296D01*
X22244115Y17012320D01*
X22245066Y17014507D01*
X22245150Y17014702D01*
X22254594Y17039052D01*
X22256105Y17047971D01*
X22262421Y17071222D01*
X22285139Y17131123D01*
X22285139Y17131125D01*
X22285139Y17131126D01*
X22285140Y17131128D01*
X22305645Y17300000D01*
X22285140Y17468872D01*
X22277109Y17490047D01*
X22230075Y17614069D01*
X22224818Y17627930D01*
X22222617Y17631118D01*
X22175003Y17700099D01*
X22128183Y17767929D01*
X22019213Y17864468D01*
X22000849Y17880737D01*
X21850226Y17959790D01*
X21685056Y18000500D01*
X21514944Y18000500D01*
X21349773Y17959790D01*
X21199150Y17880737D01*
X21071816Y17767928D01*
X20975182Y17627932D01*
X20914860Y17468875D01*
X20914859Y17468870D01*
X20894355Y17300000D01*
X20914859Y17131131D01*
X20914859Y17131130D01*
X20921993Y17112320D01*
X20944899Y17051918D01*
X20945251Y17050992D01*
X20949510Y17037476D01*
X20955882Y17012323D01*
X20955885Y17012316D01*
X21005207Y16899901D01*
X21164051Y16537861D01*
X21174500Y16488042D01*
X21174500Y8859912D01*
X21154815Y8792873D01*
X21102011Y8747118D01*
X21032853Y8737174D01*
X20979376Y8758337D01*
X20957578Y8773601D01*
X20743492Y8873430D01*
X20743486Y8873433D01*
X20530000Y8930636D01*
X20530000Y8033012D01*
X20472993Y8065925D01*
X20345826Y8100000D01*
X20214174Y8100000D01*
X20087007Y8065925D01*
X20030000Y8033012D01*
X20030000Y8930636D01*
X20029999Y8930636D01*
X19816513Y8873433D01*
X19816507Y8873430D01*
X19602422Y8773601D01*
X19602420Y8773600D01*
X19408926Y8638114D01*
X19408920Y8638109D01*
X19241891Y8471080D01*
X19241886Y8471074D01*
X19106400Y8277580D01*
X19106399Y8277578D01*
X19006570Y8063493D01*
X19006567Y8063487D01*
X18949364Y7850001D01*
X15831721Y7850001D01*
X15835165Y7857543D01*
X15855647Y8000000D01*
X15835165Y8142457D01*
X15775377Y8273373D01*
X15681128Y8382143D01*
X15560053Y8459953D01*
X15560051Y8459954D01*
X15560049Y8459955D01*
X15560050Y8459955D01*
X15421963Y8500500D01*
X15421961Y8500500D01*
X15278039Y8500500D01*
X15278036Y8500500D01*
X15139949Y8459955D01*
X15018873Y8382144D01*
X14924623Y8273374D01*
X14924622Y8273372D01*
X14864834Y8142457D01*
X14844353Y8000000D01*
X300500Y8000000D01*
X300500Y10250000D01*
X1330138Y10250000D01*
X2133012Y10250000D01*
X2115795Y10240060D01*
X2059940Y10184205D01*
X2020444Y10115796D01*
X2000000Y10039496D01*
X2000000Y9960504D01*
X2020444Y9884204D01*
X2059940Y9815795D01*
X2115795Y9759940D01*
X2133012Y9750000D01*
X1330138Y9750000D01*
X1338430Y9708310D01*
X1338430Y9708308D01*
X1413807Y9526329D01*
X1413814Y9526316D01*
X1523248Y9362538D01*
X1523251Y9362534D01*
X1662533Y9223252D01*
X1662537Y9223249D01*
X1826315Y9113815D01*
X1826328Y9113808D01*
X2008306Y9038431D01*
X2008318Y9038428D01*
X2201504Y9000001D01*
X2201508Y9000000D01*
X2350000Y9000000D01*
X2350000Y9700000D01*
X2850000Y9700000D01*
X2850000Y9000000D01*
X2998492Y9000000D01*
X2998495Y9000001D01*
X3191681Y9038428D01*
X3191693Y9038431D01*
X3373671Y9113808D01*
X3373684Y9113815D01*
X3537462Y9223249D01*
X3537466Y9223252D01*
X3676748Y9362534D01*
X3676751Y9362538D01*
X3786185Y9526316D01*
X3786192Y9526329D01*
X3861569Y9708308D01*
X3861569Y9708310D01*
X3869862Y9750000D01*
X3066988Y9750000D01*
X3084205Y9759940D01*
X3140060Y9815795D01*
X3179556Y9884204D01*
X3200000Y9960504D01*
X3200000Y10039496D01*
X3179556Y10115796D01*
X3140060Y10184205D01*
X3084205Y10240060D01*
X3066988Y10250000D01*
X3869862Y10250000D01*
X5260138Y10250000D01*
X6063012Y10250000D01*
X6045795Y10240060D01*
X5989940Y10184205D01*
X5950444Y10115796D01*
X5930000Y10039496D01*
X5930000Y9960504D01*
X5950444Y9884204D01*
X5989940Y9815795D01*
X6045795Y9759940D01*
X6063012Y9750000D01*
X5260138Y9750000D01*
X5268430Y9708310D01*
X5268430Y9708308D01*
X5343807Y9526329D01*
X5343814Y9526316D01*
X5453248Y9362538D01*
X5453251Y9362534D01*
X5592533Y9223252D01*
X5592537Y9223249D01*
X5756315Y9113815D01*
X5756328Y9113808D01*
X5938306Y9038431D01*
X5938318Y9038428D01*
X6131504Y9000001D01*
X6131508Y9000000D01*
X6530000Y9000000D01*
X6530000Y9700000D01*
X7030000Y9700000D01*
X7030000Y9000000D01*
X7428492Y9000000D01*
X7428495Y9000001D01*
X7621681Y9038428D01*
X7621693Y9038431D01*
X7803671Y9113808D01*
X7803684Y9113815D01*
X7967462Y9223249D01*
X7967466Y9223252D01*
X8106748Y9362534D01*
X8106751Y9362538D01*
X8216185Y9526316D01*
X8216192Y9526329D01*
X8291569Y9708308D01*
X8291569Y9708310D01*
X8299862Y9750000D01*
X7496988Y9750000D01*
X7514205Y9759940D01*
X7570060Y9815795D01*
X7609556Y9884204D01*
X7630000Y9960504D01*
X7630000Y10039496D01*
X7609556Y10115796D01*
X7570060Y10184205D01*
X7514205Y10240060D01*
X7496988Y10250000D01*
X8299862Y10250000D01*
X8291569Y10291691D01*
X8291569Y10291693D01*
X8216192Y10473672D01*
X8216185Y10473685D01*
X8106751Y10637463D01*
X8106748Y10637467D01*
X7967466Y10776749D01*
X7967462Y10776752D01*
X7803684Y10886186D01*
X7803671Y10886193D01*
X7621693Y10961570D01*
X7621681Y10961573D01*
X7428495Y11000000D01*
X6881045Y11000000D01*
X6814006Y11019685D01*
X6768251Y11072489D01*
X6758307Y11141647D01*
X6773658Y11186000D01*
X6786279Y11207862D01*
X6786281Y11207865D01*
X6810968Y11300000D01*
X9294353Y11300000D01*
X9314834Y11157544D01*
X9355716Y11068026D01*
X9374623Y11026627D01*
X9468872Y10917857D01*
X9589947Y10840047D01*
X9589950Y10840046D01*
X9589949Y10840046D01*
X9728036Y10799501D01*
X9728038Y10799500D01*
X9728039Y10799500D01*
X9871962Y10799500D01*
X9871962Y10799501D01*
X10010053Y10840047D01*
X10131128Y10917857D01*
X10225377Y11026627D01*
X10285165Y11157543D01*
X10305647Y11300000D01*
X10285165Y11442457D01*
X10225377Y11573373D01*
X10131128Y11682143D01*
X10010053Y11759953D01*
X10010051Y11759954D01*
X10010049Y11759955D01*
X10010050Y11759955D01*
X9871963Y11800500D01*
X9871961Y11800500D01*
X9728039Y11800500D01*
X9728036Y11800500D01*
X9589949Y11759955D01*
X9468873Y11682144D01*
X9374623Y11573374D01*
X9374622Y11573372D01*
X9314834Y11442457D01*
X9294353Y11300000D01*
X6810968Y11300000D01*
X6825500Y11354234D01*
X6825500Y11505766D01*
X6786281Y11652135D01*
X6710515Y11783365D01*
X6603365Y11890515D01*
X6537750Y11928398D01*
X6472136Y11966281D01*
X6365531Y11994845D01*
X6325766Y12005500D01*
X6174234Y12005500D01*
X6027863Y11966281D01*
X5896635Y11890515D01*
X5896632Y11890513D01*
X5789487Y11783368D01*
X5789485Y11783365D01*
X5713719Y11652137D01*
X5674500Y11505766D01*
X5674500Y11354235D01*
X5713719Y11207864D01*
X5751602Y11142250D01*
X5789485Y11076635D01*
X5789488Y11076632D01*
X5794432Y11070189D01*
X5791612Y11068026D01*
X5817302Y11020980D01*
X5812318Y10951288D01*
X5770446Y10895355D01*
X5761379Y10889584D01*
X5761387Y10889573D01*
X5592536Y10776752D01*
X5453251Y10637467D01*
X5453248Y10637463D01*
X5343814Y10473685D01*
X5343807Y10473672D01*
X5268430Y10291693D01*
X5268430Y10291691D01*
X5260138Y10250000D01*
X3869862Y10250000D01*
X3861569Y10291691D01*
X3861569Y10291693D01*
X3786192Y10473672D01*
X3786185Y10473685D01*
X3676751Y10637463D01*
X3676748Y10637467D01*
X3537466Y10776749D01*
X3537462Y10776752D01*
X3373684Y10886186D01*
X3373671Y10886193D01*
X3191693Y10961570D01*
X3191681Y10961573D01*
X2998495Y11000000D01*
X2850000Y11000000D01*
X2850000Y10300000D01*
X2350000Y10300000D01*
X2350000Y11000000D01*
X2201504Y11000000D01*
X2008318Y10961573D01*
X2008306Y10961570D01*
X1826328Y10886193D01*
X1826315Y10886186D01*
X1662537Y10776752D01*
X1662533Y10776749D01*
X1523251Y10637467D01*
X1523248Y10637463D01*
X1413814Y10473685D01*
X1413807Y10473672D01*
X1338430Y10291693D01*
X1338430Y10291691D01*
X1330138Y10250000D01*
X300500Y10250000D01*
X300500Y14400000D01*
X9894353Y14400000D01*
X9914834Y14257544D01*
X9960504Y14157543D01*
X9974623Y14126627D01*
X10068872Y14017857D01*
X10189947Y13940047D01*
X10189950Y13940046D01*
X10189949Y13940046D01*
X10328036Y13899501D01*
X10328038Y13899500D01*
X10328039Y13899500D01*
X10471962Y13899500D01*
X10471962Y13899501D01*
X10610053Y13940047D01*
X10731128Y14017857D01*
X10825377Y14126627D01*
X10885165Y14257543D01*
X10905647Y14400000D01*
X10885165Y14542457D01*
X10825377Y14673373D01*
X10731128Y14782143D01*
X10610053Y14859953D01*
X10610051Y14859954D01*
X10610049Y14859955D01*
X10610050Y14859955D01*
X10471963Y14900500D01*
X10471961Y14900500D01*
X10328039Y14900500D01*
X10328036Y14900500D01*
X10189949Y14859955D01*
X10068873Y14782144D01*
X9974623Y14673374D01*
X9974622Y14673372D01*
X9914834Y14542457D01*
X9894353Y14400000D01*
X300500Y14400000D01*
X300500Y18890000D01*
X1330138Y18890000D01*
X2133012Y18890000D01*
X2115795Y18880060D01*
X2059940Y18824205D01*
X2020444Y18755796D01*
X2000000Y18679496D01*
X2000000Y18600504D01*
X2020444Y18524204D01*
X2059940Y18455795D01*
X2115795Y18399940D01*
X2133012Y18390000D01*
X1330138Y18390000D01*
X1338430Y18348310D01*
X1338430Y18348308D01*
X1413807Y18166329D01*
X1413814Y18166316D01*
X1523248Y18002538D01*
X1523251Y18002534D01*
X1662533Y17863252D01*
X1662537Y17863249D01*
X1826315Y17753815D01*
X1826328Y17753808D01*
X2008306Y17678431D01*
X2008318Y17678428D01*
X2201504Y17640001D01*
X2201508Y17640000D01*
X2350000Y17640000D01*
X2350000Y18340000D01*
X2850000Y18340000D01*
X2850000Y17640000D01*
X2998492Y17640000D01*
X2998495Y17640001D01*
X3191681Y17678428D01*
X3191693Y17678431D01*
X3373671Y17753808D01*
X3373684Y17753815D01*
X3537462Y17863249D01*
X3537466Y17863252D01*
X3676748Y18002534D01*
X3676751Y18002538D01*
X3786185Y18166316D01*
X3786192Y18166329D01*
X3861569Y18348308D01*
X3861569Y18348310D01*
X3869862Y18390000D01*
X3066988Y18390000D01*
X3084205Y18399940D01*
X3140060Y18455795D01*
X3179556Y18524204D01*
X3200000Y18600504D01*
X3200000Y18679496D01*
X3179556Y18755796D01*
X3140060Y18824205D01*
X3084205Y18880060D01*
X3066988Y18890000D01*
X3869862Y18890000D01*
X5260138Y18890000D01*
X6063012Y18890000D01*
X6045795Y18880060D01*
X5989940Y18824205D01*
X5950444Y18755796D01*
X5930000Y18679496D01*
X5930000Y18600504D01*
X5950444Y18524204D01*
X5989940Y18455795D01*
X6045795Y18399940D01*
X6063012Y18390000D01*
X5260138Y18390000D01*
X5268430Y18348310D01*
X5268430Y18348308D01*
X5343807Y18166329D01*
X5343814Y18166316D01*
X5453248Y18002538D01*
X5453251Y18002534D01*
X5592533Y17863252D01*
X5592537Y17863249D01*
X5761387Y17750426D01*
X5760430Y17748995D01*
X5804425Y17705789D01*
X5819895Y17637654D01*
X5796072Y17571971D01*
X5794309Y17569906D01*
X5794432Y17569811D01*
X5789485Y17563365D01*
X5713719Y17432137D01*
X5688203Y17336908D01*
X5674500Y17285766D01*
X5674500Y17134234D01*
X5686340Y17090047D01*
X5713719Y16987864D01*
X5727468Y16964051D01*
X5789485Y16856635D01*
X5896635Y16749485D01*
X6027865Y16673719D01*
X6174234Y16634500D01*
X6174236Y16634500D01*
X6325764Y16634500D01*
X6325766Y16634500D01*
X6472135Y16673719D01*
X6603365Y16749485D01*
X6710515Y16856635D01*
X6786281Y16987865D01*
X6825500Y17134234D01*
X6825500Y17285766D01*
X6786281Y17432135D01*
X6781713Y17440047D01*
X6773658Y17454000D01*
X6757185Y17521901D01*
X6780038Y17587927D01*
X6834959Y17631118D01*
X6881045Y17640000D01*
X7428492Y17640000D01*
X7428495Y17640001D01*
X7621681Y17678428D01*
X7621693Y17678431D01*
X7803671Y17753808D01*
X7803684Y17753815D01*
X7967462Y17863249D01*
X7967466Y17863252D01*
X8004214Y17900000D01*
X9594353Y17900000D01*
X9614834Y17757544D01*
X9654580Y17670515D01*
X9674623Y17626627D01*
X9768872Y17517857D01*
X9889947Y17440047D01*
X9889950Y17440046D01*
X9889949Y17440046D01*
X9997107Y17408583D01*
X10026336Y17400000D01*
X10028036Y17399501D01*
X10028038Y17399500D01*
X10028039Y17399500D01*
X10171962Y17399500D01*
X10171962Y17399501D01*
X10310053Y17440047D01*
X10431128Y17517857D01*
X10525377Y17626627D01*
X10585165Y17757543D01*
X10605647Y17900000D01*
X10585165Y18042457D01*
X10525377Y18173373D01*
X10431128Y18282143D01*
X10310053Y18359953D01*
X10310051Y18359954D01*
X10310049Y18359955D01*
X10310050Y18359955D01*
X10171963Y18400500D01*
X10171961Y18400500D01*
X10028039Y18400500D01*
X10028036Y18400500D01*
X9889949Y18359955D01*
X9768873Y18282144D01*
X9674623Y18173374D01*
X9674622Y18173372D01*
X9614834Y18042457D01*
X9594353Y17900000D01*
X8004214Y17900000D01*
X8106748Y18002534D01*
X8106751Y18002538D01*
X8216185Y18166316D01*
X8216192Y18166329D01*
X8291569Y18348308D01*
X8291569Y18348310D01*
X8299862Y18390000D01*
X7496988Y18390000D01*
X7514205Y18399940D01*
X7570060Y18455795D01*
X7609556Y18524204D01*
X7630000Y18600504D01*
X7630000Y18679496D01*
X7609556Y18755796D01*
X7570060Y18824205D01*
X7514205Y18880060D01*
X7496988Y18890000D01*
X8299862Y18890000D01*
X8291569Y18931691D01*
X8291569Y18931693D01*
X8216192Y19113672D01*
X8216185Y19113685D01*
X8106751Y19277463D01*
X8106748Y19277467D01*
X7967466Y19416749D01*
X7967462Y19416752D01*
X7803684Y19526186D01*
X7803671Y19526193D01*
X7621693Y19601570D01*
X7621681Y19601573D01*
X7428495Y19640000D01*
X7030000Y19640000D01*
X7030000Y18940000D01*
X6530000Y18940000D01*
X6530000Y19640000D01*
X6131504Y19640000D01*
X5938318Y19601573D01*
X5938306Y19601570D01*
X5756328Y19526193D01*
X5756315Y19526186D01*
X5592537Y19416752D01*
X5592533Y19416749D01*
X5453251Y19277467D01*
X5453248Y19277463D01*
X5343814Y19113685D01*
X5343807Y19113672D01*
X5268430Y18931693D01*
X5268430Y18931691D01*
X5260138Y18890000D01*
X3869862Y18890000D01*
X3861569Y18931691D01*
X3861569Y18931693D01*
X3786192Y19113672D01*
X3786185Y19113685D01*
X3676751Y19277463D01*
X3676748Y19277467D01*
X3537466Y19416749D01*
X3537462Y19416752D01*
X3373684Y19526186D01*
X3373671Y19526193D01*
X3191693Y19601570D01*
X3191681Y19601573D01*
X2998495Y19640000D01*
X2850000Y19640000D01*
X2850000Y18940000D01*
X2350000Y18940000D01*
X2350000Y19640000D01*
X2201504Y19640000D01*
X2008318Y19601573D01*
X2008306Y19601570D01*
X1826328Y19526193D01*
X1826315Y19526186D01*
X1662537Y19416752D01*
X1662533Y19416749D01*
X1523251Y19277467D01*
X1523248Y19277463D01*
X1413814Y19113685D01*
X1413807Y19113672D01*
X1338430Y18931693D01*
X1338430Y18931691D01*
X1330138Y18890000D01*
X300500Y18890000D01*
X300500Y28783772D01*
X14809500Y28783772D01*
X14809500Y28616229D01*
X14842182Y28451926D01*
X14842184Y28451918D01*
X14906295Y28297140D01*
X14999373Y28157838D01*
X15117837Y28039374D01*
X15210494Y27977463D01*
X15257137Y27946297D01*
X15411918Y27882184D01*
X15576228Y27849501D01*
X15576232Y27849500D01*
X15576233Y27849500D01*
X15743768Y27849500D01*
X15743769Y27849501D01*
X15908082Y27882184D01*
X16062863Y27946297D01*
X16202162Y28039374D01*
X16320626Y28157838D01*
X16413703Y28297137D01*
X16477816Y28451918D01*
X16510500Y28616233D01*
X16510500Y28783767D01*
X16510499Y28783772D01*
X17349500Y28783772D01*
X17349500Y28616229D01*
X17382182Y28451926D01*
X17382184Y28451918D01*
X17446295Y28297140D01*
X17539373Y28157838D01*
X17657837Y28039374D01*
X17750494Y27977463D01*
X17797137Y27946297D01*
X17951918Y27882184D01*
X18116228Y27849501D01*
X18116232Y27849500D01*
X18116233Y27849500D01*
X18283768Y27849500D01*
X18283769Y27849501D01*
X18448082Y27882184D01*
X18602863Y27946297D01*
X18742162Y28039374D01*
X18860626Y28157838D01*
X18953703Y28297137D01*
X19017816Y28451918D01*
X19050500Y28616233D01*
X19050500Y28783767D01*
X19050499Y28783772D01*
X19889500Y28783772D01*
X19889500Y28616229D01*
X19922182Y28451926D01*
X19922184Y28451918D01*
X19986295Y28297140D01*
X20079373Y28157838D01*
X20197837Y28039374D01*
X20290494Y27977463D01*
X20337137Y27946297D01*
X20491918Y27882184D01*
X20656228Y27849501D01*
X20656232Y27849500D01*
X20656233Y27849500D01*
X20823768Y27849500D01*
X20823769Y27849501D01*
X20988082Y27882184D01*
X21142863Y27946297D01*
X21282162Y28039374D01*
X21400626Y28157838D01*
X21493703Y28297137D01*
X21557816Y28451918D01*
X21590500Y28616233D01*
X21590500Y28783767D01*
X21557816Y28948082D01*
X21493703Y29102863D01*
X21462537Y29149506D01*
X21400626Y29242163D01*
X21282162Y29360627D01*
X21142860Y29453705D01*
X20988082Y29517816D01*
X20988074Y29517818D01*
X20823771Y29550500D01*
X20823767Y29550500D01*
X20656233Y29550500D01*
X20656228Y29550500D01*
X20491925Y29517818D01*
X20491917Y29517816D01*
X20337139Y29453705D01*
X20197837Y29360627D01*
X20079373Y29242163D01*
X19986295Y29102861D01*
X19922184Y28948083D01*
X19922182Y28948075D01*
X19889500Y28783772D01*
X19050499Y28783772D01*
X19017816Y28948082D01*
X18953703Y29102863D01*
X18922537Y29149506D01*
X18860626Y29242163D01*
X18742162Y29360627D01*
X18602860Y29453705D01*
X18448082Y29517816D01*
X18448074Y29517818D01*
X18283771Y29550500D01*
X18283767Y29550500D01*
X18116233Y29550500D01*
X18116228Y29550500D01*
X17951925Y29517818D01*
X17951917Y29517816D01*
X17797139Y29453705D01*
X17657837Y29360627D01*
X17539373Y29242163D01*
X17446295Y29102861D01*
X17382184Y28948083D01*
X17382182Y28948075D01*
X17349500Y28783772D01*
X16510499Y28783772D01*
X16477816Y28948082D01*
X16413703Y29102863D01*
X16382537Y29149506D01*
X16320626Y29242163D01*
X16202162Y29360627D01*
X16062860Y29453705D01*
X15908082Y29517816D01*
X15908074Y29517818D01*
X15743771Y29550500D01*
X15743767Y29550500D01*
X15576233Y29550500D01*
X15576228Y29550500D01*
X15411925Y29517818D01*
X15411917Y29517816D01*
X15257139Y29453705D01*
X15117837Y29360627D01*
X14999373Y29242163D01*
X14906295Y29102861D01*
X14842184Y28948083D01*
X14842182Y28948075D01*
X14809500Y28783772D01*
X300500Y28783772D01*
X300500Y32163772D01*
X4149500Y32163772D01*
X4149500Y31996229D01*
X4182182Y31831926D01*
X4182184Y31831918D01*
X4246295Y31677140D01*
X4339373Y31537838D01*
X4457837Y31419374D01*
X4471934Y31409955D01*
X4597137Y31326297D01*
X4751918Y31262184D01*
X4916228Y31229501D01*
X4916232Y31229500D01*
X4916233Y31229500D01*
X5083768Y31229500D01*
X5083769Y31229501D01*
X5248082Y31262184D01*
X5402863Y31326297D01*
X5542162Y31419374D01*
X5660626Y31537838D01*
X5753703Y31677137D01*
X5817816Y31831918D01*
X5850500Y31996233D01*
X5850500Y32163767D01*
X5817816Y32328082D01*
X5753703Y32482863D01*
X5688798Y32580000D01*
X5660626Y32622163D01*
X5542162Y32740627D01*
X5402860Y32833705D01*
X5248082Y32897816D01*
X5248074Y32897818D01*
X5083771Y32930500D01*
X5083767Y32930500D01*
X4916233Y32930500D01*
X4916228Y32930500D01*
X4751925Y32897818D01*
X4751917Y32897816D01*
X4597139Y32833705D01*
X4457837Y32740627D01*
X4339373Y32622163D01*
X4246295Y32482861D01*
X4182184Y32328083D01*
X4182182Y32328075D01*
X4149500Y32163772D01*
X300500Y32163772D01*
X300500Y32977845D01*
X6190000Y32977845D01*
X6190000Y32330000D01*
X7106988Y32330000D01*
X7074075Y32272993D01*
X7040000Y32145826D01*
X7040000Y32014174D01*
X7074075Y31887007D01*
X7106988Y31830000D01*
X6190000Y31830000D01*
X6190000Y31182156D01*
X6196401Y31122628D01*
X6196403Y31122621D01*
X6246645Y30987914D01*
X6246649Y30987907D01*
X6332809Y30872813D01*
X6332812Y30872810D01*
X6447906Y30786650D01*
X6447913Y30786646D01*
X6582620Y30736404D01*
X6582627Y30736402D01*
X6642155Y30730001D01*
X6642172Y30730000D01*
X7290000Y30730000D01*
X7290000Y31646988D01*
X7347007Y31614075D01*
X7474174Y31580000D01*
X7605826Y31580000D01*
X7732993Y31614075D01*
X7790000Y31646988D01*
X7790000Y30730000D01*
X8437828Y30730000D01*
X8437844Y30730001D01*
X8497372Y30736402D01*
X8497379Y30736404D01*
X8632086Y30786646D01*
X8632093Y30786650D01*
X8747187Y30872810D01*
X8747190Y30872813D01*
X8833350Y30987907D01*
X8833354Y30987914D01*
X8883596Y31122621D01*
X8883598Y31122628D01*
X8889999Y31182156D01*
X8890000Y31182173D01*
X8890000Y31830000D01*
X7973012Y31830000D01*
X8005925Y31887007D01*
X8040000Y32014174D01*
X8040000Y32145826D01*
X8005925Y32272993D01*
X7973012Y32330000D01*
X8890000Y32330000D01*
X8890000Y32977828D01*
X8889999Y32977845D01*
X8883598Y33037373D01*
X8883596Y33037380D01*
X8833354Y33172087D01*
X8833350Y33172094D01*
X8747190Y33287188D01*
X8747187Y33287191D01*
X8632093Y33373351D01*
X8632086Y33373355D01*
X8500013Y33422615D01*
X8444079Y33464486D01*
X8419662Y33529951D01*
X8434514Y33598224D01*
X8455665Y33626479D01*
X8578108Y33748922D01*
X8713600Y33942422D01*
X8813429Y34156508D01*
X8813432Y34156514D01*
X8870636Y34370000D01*
X7973012Y34370000D01*
X8005925Y34427007D01*
X8040000Y34554174D01*
X8040000Y34685826D01*
X8005925Y34812993D01*
X7973012Y34870000D01*
X8870636Y34870000D01*
X8870635Y34870001D01*
X8813432Y35083487D01*
X8813429Y35083493D01*
X8713600Y35297578D01*
X8713599Y35297580D01*
X8578113Y35491074D01*
X8578108Y35491080D01*
X8411082Y35658106D01*
X8279844Y35750000D01*
X28194353Y35750000D01*
X28214834Y35607544D01*
X28236769Y35559515D01*
X28274623Y35476627D01*
X28368872Y35367857D01*
X28489947Y35290047D01*
X28489950Y35290046D01*
X28489949Y35290046D01*
X28628036Y35249501D01*
X28628038Y35249500D01*
X28628039Y35249500D01*
X28771962Y35249500D01*
X28771962Y35249501D01*
X28910053Y35290047D01*
X29031128Y35367857D01*
X29125377Y35476627D01*
X29185165Y35607543D01*
X29205647Y35750000D01*
X29185165Y35892457D01*
X29125377Y36023373D01*
X29031128Y36132143D01*
X28910053Y36209953D01*
X28910051Y36209954D01*
X28910049Y36209955D01*
X28910050Y36209955D01*
X28771963Y36250500D01*
X28771961Y36250500D01*
X28628039Y36250500D01*
X28628036Y36250500D01*
X28489949Y36209955D01*
X28368873Y36132144D01*
X28274623Y36023374D01*
X28274622Y36023372D01*
X28214834Y35892457D01*
X28194353Y35750000D01*
X8279844Y35750000D01*
X8224968Y35788425D01*
X8181344Y35843002D01*
X8174151Y35912501D01*
X8205673Y35974855D01*
X8224968Y35991575D01*
X8411082Y36121895D01*
X8578105Y36288918D01*
X8713600Y36482422D01*
X8813429Y36696508D01*
X8813432Y36696514D01*
X8870636Y36910000D01*
X7973012Y36910000D01*
X8005925Y36967007D01*
X8040000Y37094174D01*
X8040000Y37225826D01*
X8005925Y37352993D01*
X7973012Y37410000D01*
X8870636Y37410000D01*
X8870635Y37410001D01*
X8813432Y37623487D01*
X8813429Y37623493D01*
X8713600Y37837578D01*
X8713599Y37837580D01*
X8578113Y38031074D01*
X8578108Y38031080D01*
X8411082Y38198106D01*
X8224968Y38328425D01*
X8181344Y38383002D01*
X8174151Y38452501D01*
X8205673Y38514855D01*
X8224968Y38531575D01*
X8411082Y38661895D01*
X8578105Y38828918D01*
X8713600Y39022422D01*
X8813429Y39236508D01*
X8813432Y39236514D01*
X8870636Y39450000D01*
X7973012Y39450000D01*
X8005925Y39507007D01*
X8040000Y39634174D01*
X8040000Y39765826D01*
X8005925Y39892993D01*
X7973012Y39950000D01*
X8870636Y39950000D01*
X8870635Y39950001D01*
X8813432Y40163487D01*
X8813429Y40163493D01*
X8713600Y40377578D01*
X8713599Y40377580D01*
X8578113Y40571074D01*
X8578108Y40571080D01*
X8411082Y40738106D01*
X8217578Y40873601D01*
X8003492Y40973430D01*
X8003486Y40973433D01*
X7790000Y41030636D01*
X7790000Y40133012D01*
X7732993Y40165925D01*
X7605826Y40200000D01*
X7474174Y40200000D01*
X7347007Y40165925D01*
X7290000Y40133012D01*
X7290000Y41030636D01*
X7289999Y41030636D01*
X7076513Y40973433D01*
X7076507Y40973430D01*
X6862422Y40873601D01*
X6862420Y40873600D01*
X6668926Y40738114D01*
X6668920Y40738109D01*
X6501891Y40571080D01*
X6501886Y40571074D01*
X6366400Y40377580D01*
X6366399Y40377578D01*
X6266570Y40163493D01*
X6266567Y40163487D01*
X6209364Y39950001D01*
X6209364Y39950000D01*
X7106988Y39950000D01*
X7074075Y39892993D01*
X7040000Y39765826D01*
X7040000Y39634174D01*
X7074075Y39507007D01*
X7106988Y39450000D01*
X6209364Y39450000D01*
X6266567Y39236514D01*
X6266570Y39236508D01*
X6366399Y39022422D01*
X6501894Y38828918D01*
X6668917Y38661895D01*
X6855031Y38531575D01*
X6898656Y38476997D01*
X6905848Y38407499D01*
X6874326Y38345144D01*
X6855031Y38328425D01*
X6668922Y38198110D01*
X6668920Y38198109D01*
X6501891Y38031080D01*
X6501886Y38031074D01*
X6366400Y37837580D01*
X6366399Y37837578D01*
X6266570Y37623493D01*
X6266567Y37623487D01*
X6209364Y37410001D01*
X6209364Y37410000D01*
X7106988Y37410000D01*
X7074075Y37352993D01*
X7040000Y37225826D01*
X7040000Y37094174D01*
X7074075Y36967007D01*
X7106988Y36910000D01*
X6209364Y36910000D01*
X6266567Y36696514D01*
X6266570Y36696508D01*
X6366399Y36482422D01*
X6501894Y36288918D01*
X6668917Y36121895D01*
X6855031Y35991575D01*
X6898656Y35936997D01*
X6905848Y35867499D01*
X6874326Y35805144D01*
X6855031Y35788425D01*
X6668922Y35658110D01*
X6668920Y35658109D01*
X6501891Y35491080D01*
X6501886Y35491074D01*
X6366400Y35297580D01*
X6366399Y35297578D01*
X6266570Y35083493D01*
X6266567Y35083487D01*
X6209364Y34870001D01*
X6209364Y34870000D01*
X7106988Y34870000D01*
X7074075Y34812993D01*
X7040000Y34685826D01*
X7040000Y34554174D01*
X7074075Y34427007D01*
X7106988Y34370000D01*
X6209364Y34370000D01*
X6266567Y34156514D01*
X6266570Y34156508D01*
X6366399Y33942422D01*
X6501894Y33748918D01*
X6624334Y33626478D01*
X6657819Y33565155D01*
X6652835Y33495463D01*
X6610963Y33439530D01*
X6579987Y33422615D01*
X6447911Y33373354D01*
X6447906Y33373351D01*
X6332812Y33287191D01*
X6332809Y33287188D01*
X6246649Y33172094D01*
X6246645Y33172087D01*
X6196403Y33037380D01*
X6196401Y33037373D01*
X6190000Y32977845D01*
X300500Y32977845D01*
X300500Y34703772D01*
X4149500Y34703772D01*
X4149500Y34536229D01*
X4182182Y34371926D01*
X4182184Y34371918D01*
X4246295Y34217140D01*
X4339373Y34077838D01*
X4457837Y33959374D01*
X4483208Y33942422D01*
X4597137Y33866297D01*
X4751918Y33802184D01*
X4916228Y33769501D01*
X4916232Y33769500D01*
X4916233Y33769500D01*
X5083768Y33769500D01*
X5083769Y33769501D01*
X5248082Y33802184D01*
X5402863Y33866297D01*
X5542162Y33959374D01*
X5660626Y34077838D01*
X5753703Y34217137D01*
X5817816Y34371918D01*
X5850500Y34536233D01*
X5850500Y34703767D01*
X5817816Y34868082D01*
X5753703Y35022863D01*
X5698142Y35106016D01*
X5660626Y35162163D01*
X5542162Y35280627D01*
X5402860Y35373705D01*
X5248082Y35437816D01*
X5248074Y35437818D01*
X5083771Y35470500D01*
X5083767Y35470500D01*
X4916233Y35470500D01*
X4916228Y35470500D01*
X4751925Y35437818D01*
X4751917Y35437816D01*
X4597139Y35373705D01*
X4457837Y35280627D01*
X4339373Y35162163D01*
X4246295Y35022861D01*
X4182184Y34868083D01*
X4182182Y34868075D01*
X4149500Y34703772D01*
X300500Y34703772D01*
X300500Y37243772D01*
X4149500Y37243772D01*
X4149500Y37076229D01*
X4182182Y36911926D01*
X4182184Y36911918D01*
X4246295Y36757140D01*
X4339373Y36617838D01*
X4457837Y36499374D01*
X4550494Y36437463D01*
X4597137Y36406297D01*
X4751918Y36342184D01*
X4916228Y36309501D01*
X4916232Y36309500D01*
X4916233Y36309500D01*
X5083768Y36309500D01*
X5083769Y36309501D01*
X5248082Y36342184D01*
X5402863Y36406297D01*
X5542162Y36499374D01*
X5660626Y36617838D01*
X5753703Y36757137D01*
X5817816Y36911918D01*
X5850500Y37076233D01*
X5850500Y37243767D01*
X5817816Y37408082D01*
X5753703Y37562863D01*
X5688798Y37660000D01*
X5660626Y37702163D01*
X5542162Y37820627D01*
X5402860Y37913705D01*
X5248082Y37977816D01*
X5248074Y37977818D01*
X5083771Y38010500D01*
X5083767Y38010500D01*
X4916233Y38010500D01*
X4916228Y38010500D01*
X4751925Y37977818D01*
X4751917Y37977816D01*
X4597139Y37913705D01*
X4457837Y37820627D01*
X4339373Y37702163D01*
X4246295Y37562861D01*
X4182184Y37408083D01*
X4182182Y37408075D01*
X4149500Y37243772D01*
X300500Y37243772D01*
X300500Y39783772D01*
X4149500Y39783772D01*
X4149500Y39616229D01*
X4182182Y39451926D01*
X4182184Y39451918D01*
X4246295Y39297140D01*
X4339373Y39157838D01*
X4457837Y39039374D01*
X4483208Y39022422D01*
X4597137Y38946297D01*
X4751918Y38882184D01*
X4916228Y38849501D01*
X4916232Y38849500D01*
X4916233Y38849500D01*
X5083768Y38849500D01*
X5083769Y38849501D01*
X5248082Y38882184D01*
X5402863Y38946297D01*
X5542162Y39039374D01*
X5660626Y39157838D01*
X5753703Y39297137D01*
X5817816Y39451918D01*
X5850500Y39616233D01*
X5850500Y39783767D01*
X5817816Y39948082D01*
X5753703Y40102863D01*
X5688798Y40200000D01*
X5660626Y40242163D01*
X5542162Y40360627D01*
X5402860Y40453705D01*
X5248082Y40517816D01*
X5248074Y40517818D01*
X5083771Y40550500D01*
X5083767Y40550500D01*
X4916233Y40550500D01*
X4916228Y40550500D01*
X4751925Y40517818D01*
X4751917Y40517816D01*
X4597139Y40453705D01*
X4457837Y40360627D01*
X4339373Y40242163D01*
X4246295Y40102861D01*
X4182184Y39948083D01*
X4182182Y39948075D01*
X4149500Y39783772D01*
X300500Y39783772D01*
X300500Y41638696D01*
X12099500Y41638696D01*
X12099500Y41461305D01*
X12134103Y41287342D01*
X12134106Y41287333D01*
X12201983Y41123460D01*
X12201990Y41123447D01*
X12300535Y40975966D01*
X12300538Y40975962D01*
X12425961Y40850539D01*
X12425965Y40850536D01*
X12573446Y40751991D01*
X12573459Y40751984D01*
X12696363Y40701077D01*
X12737334Y40684106D01*
X12737336Y40684106D01*
X12737341Y40684104D01*
X12911304Y40649501D01*
X12911307Y40649500D01*
X12911309Y40649500D01*
X13088693Y40649500D01*
X13088694Y40649501D01*
X13146682Y40661036D01*
X13262658Y40684104D01*
X13262661Y40684106D01*
X13262666Y40684106D01*
X13426547Y40751987D01*
X13574035Y40850536D01*
X13699464Y40975965D01*
X13798013Y41123453D01*
X13865894Y41287334D01*
X13867688Y41296349D01*
X13900499Y41461305D01*
X13900500Y41461307D01*
X13900500Y41550001D01*
X14169939Y41550001D01*
X14169939Y41550000D01*
X14190145Y41319042D01*
X14190147Y41319032D01*
X14250148Y41095100D01*
X14250152Y41095091D01*
X14348133Y40884970D01*
X14403023Y40806578D01*
X14976212Y41379767D01*
X14987482Y41337708D01*
X15059890Y41212292D01*
X15162292Y41109890D01*
X15287708Y41037482D01*
X15329765Y41026213D01*
X14756576Y40453025D01*
X14834969Y40398133D01*
X15045090Y40300153D01*
X15045099Y40300149D01*
X15269031Y40240148D01*
X15269041Y40240146D01*
X15499999Y40219939D01*
X15500001Y40219939D01*
X15730958Y40240146D01*
X15730968Y40240148D01*
X15954900Y40300149D01*
X15954909Y40300153D01*
X16165030Y40398133D01*
X16165034Y40398135D01*
X16243422Y40453024D01*
X16243422Y40453025D01*
X15670235Y41026213D01*
X15712292Y41037482D01*
X15837708Y41109890D01*
X15940110Y41212292D01*
X16012518Y41337708D01*
X16023787Y41379766D01*
X16596975Y40806578D01*
X16596976Y40806578D01*
X16651865Y40884966D01*
X16651867Y40884970D01*
X16749847Y41095091D01*
X16749851Y41095100D01*
X16809852Y41319032D01*
X16809854Y41319042D01*
X16830061Y41550000D01*
X16830061Y41550001D01*
X16822301Y41638696D01*
X17099500Y41638696D01*
X17099500Y41461305D01*
X17134103Y41287342D01*
X17134106Y41287333D01*
X17201983Y41123460D01*
X17201990Y41123447D01*
X17300535Y40975966D01*
X17300538Y40975962D01*
X17425961Y40850539D01*
X17425965Y40850536D01*
X17573446Y40751991D01*
X17573459Y40751984D01*
X17696363Y40701077D01*
X17737334Y40684106D01*
X17737336Y40684106D01*
X17737341Y40684104D01*
X17911304Y40649501D01*
X17911307Y40649500D01*
X17911309Y40649500D01*
X18088693Y40649500D01*
X18088694Y40649501D01*
X18146682Y40661036D01*
X18262658Y40684104D01*
X18262661Y40684106D01*
X18262666Y40684106D01*
X18426547Y40751987D01*
X18574035Y40850536D01*
X18699464Y40975965D01*
X18798013Y41123453D01*
X18865894Y41287334D01*
X18867688Y41296349D01*
X18900499Y41461305D01*
X18900500Y41461307D01*
X18900500Y41638694D01*
X18900499Y41638696D01*
X18865896Y41812659D01*
X18865893Y41812668D01*
X18798016Y41976541D01*
X18798009Y41976554D01*
X18699464Y42124035D01*
X18699461Y42124039D01*
X18574038Y42249462D01*
X18574034Y42249465D01*
X18426553Y42348010D01*
X18426540Y42348017D01*
X18262667Y42415894D01*
X18262658Y42415897D01*
X18088694Y42450500D01*
X18088691Y42450500D01*
X17911309Y42450500D01*
X17911306Y42450500D01*
X17737341Y42415897D01*
X17737332Y42415894D01*
X17573459Y42348017D01*
X17573446Y42348010D01*
X17425965Y42249465D01*
X17425961Y42249462D01*
X17300538Y42124039D01*
X17300535Y42124035D01*
X17201990Y41976554D01*
X17201983Y41976541D01*
X17134106Y41812668D01*
X17134103Y41812659D01*
X17099500Y41638696D01*
X16822301Y41638696D01*
X16809854Y41780959D01*
X16809852Y41780969D01*
X16749851Y42004901D01*
X16749847Y42004910D01*
X16651867Y42215029D01*
X16651866Y42215031D01*
X16596975Y42293423D01*
X16596975Y42293424D01*
X16023787Y41720236D01*
X16012518Y41762292D01*
X15940110Y41887708D01*
X15837708Y41990110D01*
X15712292Y42062518D01*
X15670234Y42073788D01*
X16243422Y42646977D01*
X16165030Y42701867D01*
X15954909Y42799848D01*
X15954900Y42799852D01*
X15730968Y42859853D01*
X15730958Y42859855D01*
X15500001Y42880061D01*
X15499999Y42880061D01*
X15269041Y42859855D01*
X15269031Y42859853D01*
X15045099Y42799852D01*
X15045090Y42799848D01*
X14834967Y42701866D01*
X14756576Y42646978D01*
X15329766Y42073788D01*
X15287708Y42062518D01*
X15162292Y41990110D01*
X15059890Y41887708D01*
X14987482Y41762292D01*
X14976212Y41720234D01*
X14403022Y42293424D01*
X14348134Y42215033D01*
X14250152Y42004910D01*
X14250148Y42004901D01*
X14190147Y41780969D01*
X14190145Y41780959D01*
X14169939Y41550001D01*
X13900500Y41550001D01*
X13900500Y41638694D01*
X13900499Y41638696D01*
X13865896Y41812659D01*
X13865893Y41812668D01*
X13798016Y41976541D01*
X13798009Y41976554D01*
X13699464Y42124035D01*
X13699461Y42124039D01*
X13574038Y42249462D01*
X13574034Y42249465D01*
X13426553Y42348010D01*
X13426540Y42348017D01*
X13262667Y42415894D01*
X13262658Y42415897D01*
X13088694Y42450500D01*
X13088691Y42450500D01*
X12911309Y42450500D01*
X12911306Y42450500D01*
X12737341Y42415897D01*
X12737332Y42415894D01*
X12573459Y42348017D01*
X12573446Y42348010D01*
X12425965Y42249465D01*
X12425961Y42249462D01*
X12300538Y42124039D01*
X12300535Y42124035D01*
X12201990Y41976554D01*
X12201983Y41976541D01*
X12134106Y41812668D01*
X12134103Y41812659D01*
X12099500Y41638696D01*
X300500Y41638696D01*
X300500Y44643898D01*
X320185Y44710937D01*
X372989Y44756692D01*
X442147Y44766636D01*
X505703Y44737611D01*
X540264Y44688336D01*
X615244Y44493006D01*
X791310Y44147457D01*
X1002531Y43822207D01*
X1211095Y43564650D01*
X1211096Y43564650D01*
X2705748Y45059302D01*
X2779588Y44957670D01*
X2957670Y44779588D01*
X3059300Y44705749D01*
X1564648Y43211097D01*
X1564649Y43211096D01*
X1822206Y43002532D01*
X2147456Y42791311D01*
X2493005Y42615245D01*
X2855063Y42476263D01*
X3229669Y42375888D01*
X3229676Y42375887D01*
X3612712Y42315220D01*
X3999999Y42294922D01*
X4000001Y42294922D01*
X4387287Y42315220D01*
X4770323Y42375887D01*
X4770330Y42375888D01*
X5144936Y42476263D01*
X5506994Y42615245D01*
X5852543Y42791311D01*
X6177783Y43002524D01*
X6177785Y43002525D01*
X6435349Y43211098D01*
X4940698Y44705749D01*
X5042330Y44779588D01*
X5220412Y44957670D01*
X5294251Y45059302D01*
X6788902Y43564651D01*
X6997475Y43822215D01*
X6997476Y43822217D01*
X7208689Y44147457D01*
X7384755Y44493006D01*
X7523737Y44855064D01*
X7624112Y45229670D01*
X7624113Y45229677D01*
X7684780Y45612713D01*
X7705078Y46000000D01*
X7705078Y46000001D01*
X7684780Y46387288D01*
X7624113Y46770324D01*
X7624112Y46770331D01*
X7523737Y47144937D01*
X7384755Y47506995D01*
X7208689Y47852544D01*
X6997468Y48177794D01*
X6788904Y48435351D01*
X6788903Y48435352D01*
X5294251Y46940700D01*
X5220412Y47042330D01*
X5042330Y47220412D01*
X4940698Y47294252D01*
X6435350Y48788904D01*
X6435350Y48788905D01*
X6177793Y48997469D01*
X5852543Y49208690D01*
X5506994Y49384756D01*
X5311664Y49459736D01*
X5256132Y49502138D01*
X5232339Y49567832D01*
X5247841Y49635960D01*
X5297714Y49684893D01*
X5356102Y49699500D01*
X94643898Y49699500D01*
X94710937Y49679815D01*
G37*
%TD.AperFunction*%
%TA.AperFunction,Conductor*%
G36*
X2779588Y2957670D02*
G01*
X2957670Y2779588D01*
X3059300Y2705749D01*
X1564648Y1211097D01*
X1564649Y1211096D01*
X1822206Y1002532D01*
X2147458Y791309D01*
X2147461Y791308D01*
X2350741Y687732D01*
X2401538Y639758D01*
X2418333Y571937D01*
X2395796Y505802D01*
X2341081Y462350D01*
X2271560Y455377D01*
X2260120Y458093D01*
X2249047Y461283D01*
X2235921Y465876D01*
X1948388Y584976D01*
X1935860Y591009D01*
X1771399Y681903D01*
X1663457Y741561D01*
X1651692Y748954D01*
X1397872Y929049D01*
X1387004Y937715D01*
X1154936Y1145104D01*
X1145103Y1154937D01*
X1094916Y1211096D01*
X937709Y1387011D01*
X929050Y1397871D01*
X748950Y1651697D01*
X741563Y1663453D01*
X591004Y1935868D01*
X584978Y1948382D01*
X465874Y2235923D01*
X461282Y2249048D01*
X458092Y2260121D01*
X458449Y2329990D01*
X496523Y2388574D01*
X560226Y2417274D01*
X629333Y2406978D01*
X681902Y2360954D01*
X687731Y2350743D01*
X791310Y2147457D01*
X1002531Y1822207D01*
X1211095Y1564650D01*
X1211096Y1564650D01*
X2705748Y3059302D01*
X2779588Y2957670D01*
G37*
%TD.AperFunction*%
%TA.AperFunction,Conductor*%
G36*
X98788902Y1564651D02*
G01*
X98997475Y1822215D01*
X98997476Y1822217D01*
X99208691Y2147459D01*
X99208692Y2147462D01*
X99312268Y2350742D01*
X99360242Y2401538D01*
X99428063Y2418334D01*
X99494198Y2395797D01*
X99537650Y2341082D01*
X99544623Y2271561D01*
X99541907Y2260121D01*
X99538717Y2249048D01*
X99534124Y2235922D01*
X99415024Y1948389D01*
X99408991Y1935861D01*
X99258442Y1663462D01*
X99251043Y1651688D01*
X99070954Y1397877D01*
X99062285Y1387005D01*
X98854896Y1154937D01*
X98845063Y1145104D01*
X98612995Y937715D01*
X98602123Y929046D01*
X98348312Y748957D01*
X98336538Y741558D01*
X98064139Y591009D01*
X98051611Y584976D01*
X97764078Y465876D01*
X97750952Y461283D01*
X97739879Y458093D01*
X97670010Y458450D01*
X97611426Y496524D01*
X97582726Y560227D01*
X97593022Y629334D01*
X97639046Y681903D01*
X97649258Y687732D01*
X97852538Y791308D01*
X97852541Y791309D01*
X98177783Y1002524D01*
X98177785Y1002525D01*
X98435349Y1211098D01*
X96940698Y2705749D01*
X97042330Y2779588D01*
X97220412Y2957670D01*
X97294251Y3059302D01*
X98788902Y1564651D01*
G37*
%TD.AperFunction*%
%TA.AperFunction,Conductor*%
G36*
X2329989Y49541551D02*
G01*
X2388573Y49503477D01*
X2417273Y49439774D01*
X2406977Y49370667D01*
X2360953Y49318098D01*
X2350742Y49312269D01*
X2147456Y49208690D01*
X1822206Y48997469D01*
X1564648Y48788905D01*
X1564648Y48788904D01*
X3059301Y47294252D01*
X2957670Y47220412D01*
X2779588Y47042330D01*
X2705748Y46940700D01*
X1211096Y48435352D01*
X1211095Y48435352D01*
X1002531Y48177794D01*
X791310Y47852544D01*
X687731Y47649258D01*
X639756Y47598462D01*
X571935Y47581667D01*
X505801Y47604204D01*
X462349Y47658919D01*
X455377Y47728440D01*
X458092Y47739880D01*
X461282Y47750953D01*
X465875Y47764079D01*
X465876Y47764081D01*
X584981Y48051626D01*
X591008Y48064139D01*
X741567Y48336557D01*
X748944Y48348296D01*
X929056Y48602139D01*
X937702Y48612982D01*
X1145113Y48845075D01*
X1154925Y48854887D01*
X1387018Y49062298D01*
X1397861Y49070944D01*
X1651704Y49251056D01*
X1663443Y49258433D01*
X1935874Y49408999D01*
X1948374Y49415019D01*
X2235928Y49534128D01*
X2249040Y49538716D01*
X2260121Y49541908D01*
X2329989Y49541551D01*
G37*
%TD.AperFunction*%
%TA.AperFunction,Conductor*%
G36*
X97739892Y49541903D02*
G01*
X97750962Y49538713D01*
X97764081Y49534123D01*
X98051617Y49415021D01*
X98064131Y49408995D01*
X98277088Y49291298D01*
X98336530Y49258445D01*
X98348304Y49251047D01*
X98408001Y49208690D01*
X98602137Y49070944D01*
X98613005Y49062276D01*
X98845062Y48854895D01*
X98854894Y48845063D01*
X99062275Y48613006D01*
X99070946Y48602134D01*
X99251046Y48348305D01*
X99258444Y48336531D01*
X99408990Y48064139D01*
X99415023Y48051611D01*
X99534122Y47764081D01*
X99538712Y47750963D01*
X99541902Y47739893D01*
X99541551Y47670025D01*
X99503481Y47611437D01*
X99439780Y47582733D01*
X99370672Y47593024D01*
X99318099Y47639045D01*
X99312266Y47649263D01*
X99208689Y47852544D01*
X98997468Y48177794D01*
X98788904Y48435351D01*
X98788903Y48435352D01*
X97294251Y46940700D01*
X97220412Y47042330D01*
X97042330Y47220412D01*
X96940698Y47294252D01*
X98435350Y48788904D01*
X98435350Y48788905D01*
X98177793Y48997469D01*
X97852543Y49208690D01*
X97649262Y49312267D01*
X97598466Y49360242D01*
X97581671Y49428063D01*
X97604208Y49494198D01*
X97658923Y49537649D01*
X97728444Y49544621D01*
X97739892Y49541903D01*
G37*
%TD.AperFunction*%
%TD*%
%TA.AperFunction,Conductor*%
%TO.N,+3.3V*%
G36*
X51629136Y22299232D02*
G01*
X51670272Y22294632D01*
X51785227Y22281775D01*
X51812109Y22275686D01*
X51813136Y22275329D01*
X51953916Y22226455D01*
X51978790Y22214576D01*
X52112120Y22131558D01*
X52123414Y22123620D01*
X58477849Y17106961D01*
X59500000Y16300000D01*
X66893039Y16300000D01*
X66906922Y16299221D01*
X67064132Y16281507D01*
X67091198Y16275330D01*
X67233921Y16225389D01*
X67258938Y16213341D01*
X67386965Y16132897D01*
X67408672Y16115585D01*
X67515584Y16008673D01*
X67532897Y15986964D01*
X67613340Y15858939D01*
X67625388Y15833922D01*
X67675328Y15691202D01*
X67681506Y15664131D01*
X67699220Y15506923D01*
X67700000Y15493039D01*
X67700000Y14106962D01*
X67699220Y14093078D01*
X67681506Y13935870D01*
X67675328Y13908799D01*
X67625388Y13766079D01*
X67613340Y13741062D01*
X67532897Y13613037D01*
X67515584Y13591328D01*
X67408672Y13484416D01*
X67386963Y13467103D01*
X67258938Y13386660D01*
X67233921Y13374612D01*
X67091201Y13324672D01*
X67064130Y13318494D01*
X66906923Y13300780D01*
X66893039Y13300000D01*
X58700000Y13300000D01*
X58700000Y12800000D01*
X58700000Y12799999D01*
X58685093Y12686776D01*
X58676715Y12655509D01*
X58639259Y12565082D01*
X58623074Y12537049D01*
X58563491Y12459399D01*
X58540601Y12436509D01*
X58462951Y12376926D01*
X58434918Y12360741D01*
X58344491Y12323285D01*
X58313224Y12314907D01*
X58219398Y12302554D01*
X58208058Y12301061D01*
X58191874Y12300000D01*
X57206961Y12300000D01*
X57193077Y12300780D01*
X57190583Y12301061D01*
X57181773Y12302054D01*
X57035869Y12318494D01*
X57008798Y12324672D01*
X56866078Y12374612D01*
X56841061Y12386660D01*
X56713036Y12467103D01*
X56691327Y12484416D01*
X56584415Y12591328D01*
X56567102Y12613037D01*
X56486659Y12741062D01*
X56474611Y12766079D01*
X56424671Y12908799D01*
X56418493Y12935870D01*
X56400780Y13093078D01*
X56400000Y13106962D01*
X56400000Y15600003D01*
X56400000Y16000000D01*
X52000000Y19300000D01*
X51733333Y19300000D01*
X51733324Y19300000D01*
X46899996Y19300000D01*
X46100000Y19300000D01*
X46100000Y18678234D01*
X46098592Y18676270D01*
X46033640Y18650522D01*
X46022272Y18650000D01*
X45410000Y18650000D01*
X45410000Y17733012D01*
X45352993Y17765925D01*
X45225826Y17800000D01*
X45094174Y17800000D01*
X44967007Y17765925D01*
X44910000Y17733012D01*
X44910000Y18650000D01*
X44277729Y18650000D01*
X44210690Y18669685D01*
X44200000Y18682022D01*
X44200000Y19300000D01*
X43400004Y19300000D01*
X32006961Y19300000D01*
X31993077Y19300780D01*
X31835869Y19318494D01*
X31808798Y19324672D01*
X31666078Y19374612D01*
X31641061Y19386660D01*
X31513036Y19467103D01*
X31491327Y19484416D01*
X31384415Y19591328D01*
X31367102Y19613037D01*
X31286659Y19741062D01*
X31274611Y19766079D01*
X31224671Y19908799D01*
X31218493Y19935870D01*
X31200780Y20093078D01*
X31200000Y20106962D01*
X31200000Y21493039D01*
X31200780Y21506923D01*
X31218493Y21664131D01*
X31224669Y21691197D01*
X31274612Y21833925D01*
X31286657Y21858936D01*
X31367106Y21986970D01*
X31384411Y22008669D01*
X31491331Y22115589D01*
X31513030Y22132894D01*
X31641064Y22213343D01*
X31666075Y22225388D01*
X31808803Y22275331D01*
X31835865Y22281507D01*
X31993077Y22299221D01*
X32006961Y22300000D01*
X51615354Y22300000D01*
X51629136Y22299232D01*
G37*
%TD.AperFunction*%
%TD*%
%TA.AperFunction,Conductor*%
%TO.N,+3.3V*%
G36*
X72395998Y16146280D02*
G01*
X72400005Y16138272D01*
X72400035Y16137471D01*
X72401000Y15800000D01*
X72401000Y15799934D01*
X72400035Y15462530D01*
X72396584Y15454266D01*
X72388302Y15450863D01*
X72387501Y15450893D01*
X71710866Y15499224D01*
X71702858Y15503231D01*
X71700000Y15510894D01*
X71700000Y16089107D01*
X71703427Y16097380D01*
X71710863Y16100776D01*
X72387502Y16149108D01*
X72395998Y16146280D01*
G37*
%TD.AperFunction*%
%TD*%
%TA.AperFunction,Conductor*%
%TO.N,+3.3V*%
G36*
X82895998Y7246280D02*
G01*
X82900005Y7238272D01*
X82900035Y7237471D01*
X82901000Y6900000D01*
X82901000Y6899934D01*
X82900035Y6562530D01*
X82896584Y6554266D01*
X82888302Y6550863D01*
X82887501Y6550893D01*
X82210866Y6599224D01*
X82202858Y6603231D01*
X82200000Y6610894D01*
X82200000Y7189107D01*
X82203427Y7197380D01*
X82210863Y7200776D01*
X82887502Y7249108D01*
X82895998Y7246280D01*
G37*
%TD.AperFunction*%
%TD*%
%TA.AperFunction,Conductor*%
%TO.N,+3.3V*%
G36*
X67607106Y14582842D02*
G01*
X67147487Y14052513D01*
X66899293Y14299293D01*
X66652513Y14547487D01*
X67182842Y15007106D01*
X67607106Y14582842D01*
G37*
%TD.AperFunction*%
%TD*%
%TA.AperFunction,Conductor*%
%TO.N,+3.3V*%
G36*
X88505147Y19438606D02*
G01*
X88505692Y19438019D01*
X88949971Y18925391D01*
X88952799Y18916894D01*
X88949402Y18909455D01*
X88540545Y18500598D01*
X88532272Y18497171D01*
X88524609Y18500029D01*
X88523952Y18500598D01*
X88365253Y18638138D01*
X88011981Y18944308D01*
X88007974Y18952316D01*
X88010802Y18960813D01*
X88011313Y18961365D01*
X88249293Y19200707D01*
X88488604Y19438655D01*
X88496883Y19442056D01*
X88505147Y19438606D01*
G37*
%TD.AperFunction*%
%TD*%
%TA.AperFunction,Conductor*%
%TO.N,+3.3V*%
G36*
X48264834Y13319399D02*
G01*
X48270144Y13313572D01*
X48399119Y13004506D01*
X48399142Y12995551D01*
X48399119Y12995494D01*
X48270144Y12686429D01*
X48263795Y12680114D01*
X48255920Y12679748D01*
X47708274Y12847467D01*
X47701367Y12853166D01*
X47700000Y12858654D01*
X47700000Y13141347D01*
X47703427Y13149620D01*
X47708274Y13152534D01*
X48255921Y13320253D01*
X48264834Y13319399D01*
G37*
%TD.AperFunction*%
%TD*%
%TA.AperFunction,Conductor*%
%TO.N,+3.3V*%
G36*
X32850000Y20500000D02*
G01*
X32750000Y19800000D01*
X32250000Y19800000D01*
X32150000Y20500000D01*
X32500000Y20501000D01*
X32850000Y20500000D01*
G37*
%TD.AperFunction*%
%TD*%
%TA.AperFunction,Conductor*%
%TO.N,+3.3V*%
G36*
X72737470Y15800036D02*
G01*
X72745734Y15796585D01*
X72749137Y15788303D01*
X72749107Y15787502D01*
X72700776Y15110866D01*
X72696769Y15102858D01*
X72689106Y15100000D01*
X72110894Y15100000D01*
X72102621Y15103427D01*
X72099224Y15110866D01*
X72091168Y15223639D01*
X72050892Y15787504D01*
X72053720Y15795999D01*
X72061728Y15800006D01*
X72062523Y15800036D01*
X72400000Y15801000D01*
X72737470Y15800036D01*
G37*
%TD.AperFunction*%
%TD*%
%TA.AperFunction,Conductor*%
%TO.N,+3.3V*%
G36*
X66664834Y25219399D02*
G01*
X66670144Y25213572D01*
X66799119Y24904506D01*
X66799142Y24895551D01*
X66799119Y24895494D01*
X66670144Y24586429D01*
X66663795Y24580114D01*
X66655920Y24579748D01*
X66108274Y24747467D01*
X66101367Y24753166D01*
X66100000Y24758654D01*
X66100000Y25041347D01*
X66103427Y25049620D01*
X66108274Y25052534D01*
X66655921Y25220253D01*
X66664834Y25219399D01*
G37*
%TD.AperFunction*%
%TD*%
%TA.AperFunction,Conductor*%
%TO.N,+3.3V*%
G36*
X58201040Y13288908D02*
G01*
X57923358Y12766061D01*
X57599293Y12899293D01*
X57466061Y13223358D01*
X57988908Y13501040D01*
X58201040Y13288908D01*
G37*
%TD.AperFunction*%
%TD*%
%TA.AperFunction,Conductor*%
%TO.N,+3.3V*%
G36*
X82912476Y7249109D02*
G01*
X83589135Y7200777D01*
X83597142Y7196770D01*
X83600000Y7189107D01*
X83600000Y6610894D01*
X83596573Y6602621D01*
X83589134Y6599224D01*
X82912498Y6550893D01*
X82904001Y6553721D01*
X82899994Y6561729D01*
X82899964Y6562530D01*
X82899849Y6602621D01*
X82899000Y6900000D01*
X82899964Y7237472D01*
X82903415Y7245735D01*
X82911697Y7249138D01*
X82912476Y7249109D01*
G37*
%TD.AperFunction*%
%TD*%
%TA.AperFunction,Conductor*%
%TO.N,/Interfaces/NRST*%
G36*
X36970565Y17712558D02*
G01*
X36970649Y17712363D01*
X37099119Y17404506D01*
X37099142Y17395551D01*
X37099119Y17395494D01*
X36970649Y17087638D01*
X36964300Y17081323D01*
X36955345Y17081346D01*
X36955150Y17081430D01*
X36406999Y17321930D01*
X36400800Y17328392D01*
X36400000Y17332644D01*
X36400000Y17467357D01*
X36403427Y17475630D01*
X36406999Y17478071D01*
X36955150Y17718571D01*
X36964103Y17718757D01*
X36970565Y17712558D01*
G37*
%TD.AperFunction*%
%TD*%
%TA.AperFunction,Conductor*%
%TO.N,/Interfaces/NRST*%
G36*
X33875630Y13696573D02*
G01*
X33878071Y13693001D01*
X34118570Y13144850D01*
X34118756Y13135897D01*
X34112557Y13129435D01*
X34112362Y13129351D01*
X33804506Y13000881D01*
X33795551Y13000858D01*
X33795494Y13000881D01*
X33487637Y13129351D01*
X33481322Y13135700D01*
X33481345Y13144655D01*
X33481429Y13144850D01*
X33721929Y13693001D01*
X33728391Y13699200D01*
X33732643Y13700000D01*
X33867357Y13700000D01*
X33875630Y13696573D01*
G37*
%TD.AperFunction*%
%TD*%
%TA.AperFunction,Conductor*%
%TO.N,/STM32WB55CGU6/PA7_QUADSPI_BK1_IO2*%
G36*
X47404478Y36099132D02*
G01*
X47712362Y35970650D01*
X47718677Y35964301D01*
X47718654Y35955346D01*
X47718570Y35955151D01*
X47478071Y35406999D01*
X47471609Y35400800D01*
X47467357Y35400000D01*
X47332643Y35400000D01*
X47324370Y35403427D01*
X47321929Y35406999D01*
X47081429Y35955151D01*
X47081243Y35964104D01*
X47087442Y35970566D01*
X47087582Y35970627D01*
X47395494Y36099121D01*
X47404449Y36099143D01*
X47404478Y36099132D01*
G37*
%TD.AperFunction*%
%TD*%
%TA.AperFunction,Conductor*%
%TO.N,/STM32WB55CGU6/PA7_QUADSPI_BK1_IO2*%
G36*
X88204478Y14999132D02*
G01*
X88512362Y14870650D01*
X88518677Y14864301D01*
X88518654Y14855346D01*
X88518570Y14855151D01*
X88278071Y14306999D01*
X88271609Y14300800D01*
X88267357Y14300000D01*
X88132643Y14300000D01*
X88124370Y14303427D01*
X88121929Y14306999D01*
X87881429Y14855151D01*
X87881243Y14864104D01*
X87887442Y14870566D01*
X87887582Y14870627D01*
X88195494Y14999121D01*
X88204449Y14999143D01*
X88204478Y14999132D01*
G37*
%TD.AperFunction*%
%TD*%
%TA.AperFunction,Conductor*%
%TO.N,/STM32WB55CGU6/PA6_QUADSPI_BK1_IO3*%
G36*
X65708793Y37179386D02*
G01*
X65715108Y37173037D01*
X65715187Y37172840D01*
X65932729Y36615180D01*
X65932543Y36606227D01*
X65930102Y36602655D01*
X65834845Y36507398D01*
X65826572Y36503971D01*
X65822320Y36504771D01*
X65264660Y36722313D01*
X65258198Y36728512D01*
X65258012Y36737465D01*
X65258066Y36737601D01*
X65384937Y37046194D01*
X65391248Y37052539D01*
X65699839Y37179409D01*
X65708793Y37179386D01*
G37*
%TD.AperFunction*%
%TD*%
%TA.AperFunction,Conductor*%
%TO.N,/STM32WB55CGU6/PA6_QUADSPI_BK1_IO3*%
G36*
X85587639Y15079418D02*
G01*
X85896191Y14952564D01*
X85902540Y14946249D01*
X85902563Y14946192D01*
X86029408Y14637662D01*
X86029385Y14628707D01*
X86023036Y14622392D01*
X86022839Y14622313D01*
X85465179Y14404771D01*
X85456226Y14404957D01*
X85452654Y14407398D01*
X85357397Y14502655D01*
X85353970Y14510928D01*
X85354769Y14515176D01*
X85572312Y15072841D01*
X85578511Y15079302D01*
X85587464Y15079488D01*
X85587639Y15079418D01*
G37*
%TD.AperFunction*%
%TD*%
%TA.AperFunction,Conductor*%
%TO.N,/Interfaces/I{slash}O_HDR2*%
G36*
X26604478Y17399132D02*
G01*
X26912362Y17270650D01*
X26918677Y17264301D01*
X26918654Y17255346D01*
X26918570Y17255151D01*
X26678071Y16706999D01*
X26671609Y16700800D01*
X26667357Y16700000D01*
X26532643Y16700000D01*
X26524370Y16703427D01*
X26521929Y16706999D01*
X26281429Y17255151D01*
X26281243Y17264104D01*
X26287442Y17270566D01*
X26287582Y17270627D01*
X26595494Y17399121D01*
X26604449Y17399143D01*
X26604478Y17399132D01*
G37*
%TD.AperFunction*%
%TD*%
%TA.AperFunction,Conductor*%
%TO.N,/Interfaces/I{slash}O_HDR0*%
G36*
X64087639Y10429418D02*
G01*
X64396191Y10302564D01*
X64402540Y10296249D01*
X64402563Y10296192D01*
X64529408Y9987662D01*
X64529385Y9978707D01*
X64523036Y9972392D01*
X64522839Y9972313D01*
X63965179Y9754771D01*
X63956226Y9754957D01*
X63952654Y9757398D01*
X63857397Y9852655D01*
X63853970Y9860928D01*
X63854769Y9865176D01*
X64072312Y10422841D01*
X64078511Y10429302D01*
X64087464Y10429488D01*
X64087639Y10429418D01*
G37*
%TD.AperFunction*%
%TD*%
%TA.AperFunction,Conductor*%
%TO.N,/Interfaces/I{slash}O_HDR3*%
G36*
X24104478Y17399132D02*
G01*
X24412362Y17270650D01*
X24418677Y17264301D01*
X24418654Y17255346D01*
X24418570Y17255151D01*
X24178071Y16706999D01*
X24171609Y16700800D01*
X24167357Y16700000D01*
X24032643Y16700000D01*
X24024370Y16703427D01*
X24021929Y16706999D01*
X23781429Y17255151D01*
X23781243Y17264104D01*
X23787442Y17270566D01*
X23787582Y17270627D01*
X24095494Y17399121D01*
X24104449Y17399143D01*
X24104478Y17399132D01*
G37*
%TD.AperFunction*%
%TD*%
%TA.AperFunction,Conductor*%
%TO.N,/Interfaces/I{slash}O_HDR4*%
G36*
X21604478Y17299132D02*
G01*
X21912362Y17170650D01*
X21918677Y17164301D01*
X21918654Y17155346D01*
X21918570Y17155151D01*
X21678071Y16606999D01*
X21671609Y16600800D01*
X21667357Y16600000D01*
X21532643Y16600000D01*
X21524370Y16603427D01*
X21521929Y16606999D01*
X21281429Y17155151D01*
X21281243Y17164104D01*
X21287442Y17170566D01*
X21287582Y17170627D01*
X21595494Y17299121D01*
X21604449Y17299143D01*
X21604478Y17299132D01*
G37*
%TD.AperFunction*%
%TD*%
%TA.AperFunction,Conductor*%
%TO.N,+3.3V*%
G36*
X30692210Y9296573D02*
G01*
X30693496Y9295047D01*
X31284320Y8458047D01*
X31286291Y8449312D01*
X31283039Y8443032D01*
X30448278Y7607288D01*
X30440007Y7603856D01*
X30431732Y7607278D01*
X30431722Y7607288D01*
X29596960Y8443032D01*
X29593538Y8451307D01*
X29595677Y8458044D01*
X30186504Y9295047D01*
X30194075Y9299830D01*
X30196063Y9300000D01*
X30683937Y9300000D01*
X30692210Y9296573D01*
G37*
%TD.AperFunction*%
%TD*%
%TA.AperFunction,Conductor*%
%TO.N,/Interfaces/I{slash}O_HDR2*%
G36*
X26511183Y6312199D02*
G01*
X26514085Y6310077D01*
X26610076Y6214086D01*
X26613503Y6205813D01*
X26612951Y6202261D01*
X26149158Y4746835D01*
X26143381Y4739992D01*
X26134458Y4739239D01*
X26133544Y4739573D01*
X25363785Y5057438D01*
X25357447Y5063762D01*
X25039572Y5833546D01*
X25039581Y5842500D01*
X25045920Y5848825D01*
X25046825Y5849157D01*
X26502262Y6312952D01*
X26511183Y6312199D01*
G37*
%TD.AperFunction*%
%TD*%
%TA.AperFunction,Conductor*%
%TO.N,/Interfaces/I{slash}O_HDR0*%
G36*
X30775695Y5839872D02*
G01*
X30776567Y5839467D01*
X32133672Y5138270D01*
X32139448Y5131428D01*
X32140000Y5127876D01*
X32140000Y4992125D01*
X32136573Y4983852D01*
X32133671Y4981730D01*
X30776577Y4280539D01*
X30767654Y4279786D01*
X30760811Y4285563D01*
X30760409Y4286427D01*
X30440864Y5055512D01*
X30440856Y5064466D01*
X30440865Y5064489D01*
X30760403Y5833559D01*
X30766740Y5839881D01*
X30775695Y5839872D01*
G37*
%TD.AperFunction*%
%TD*%
%TA.AperFunction,Conductor*%
%TO.N,/Interfaces/I{slash}O_HDR3*%
G36*
X23971183Y6312199D02*
G01*
X23974085Y6310077D01*
X24070076Y6214086D01*
X24073503Y6205813D01*
X24072951Y6202261D01*
X23609158Y4746835D01*
X23603381Y4739992D01*
X23594458Y4739239D01*
X23593544Y4739573D01*
X22823785Y5057438D01*
X22817447Y5063762D01*
X22499572Y5833546D01*
X22499581Y5842500D01*
X22505920Y5848825D01*
X22506825Y5849157D01*
X23962262Y6312952D01*
X23971183Y6312199D01*
G37*
%TD.AperFunction*%
%TD*%
%TA.AperFunction,Conductor*%
%TO.N,/Interfaces/I{slash}O_HDR4*%
G36*
X21431183Y6312199D02*
G01*
X21434085Y6310077D01*
X21530076Y6214086D01*
X21533503Y6205813D01*
X21532951Y6202261D01*
X21069158Y4746835D01*
X21063381Y4739992D01*
X21054458Y4739239D01*
X21053544Y4739573D01*
X20283785Y5057438D01*
X20277447Y5063762D01*
X19959572Y5833546D01*
X19959581Y5842500D01*
X19965920Y5848825D01*
X19966825Y5849157D01*
X21422262Y6312952D01*
X21431183Y6312199D01*
G37*
%TD.AperFunction*%
%TD*%
M02*
