M48
; DRILL file {KiCad 8.0.6} date 2025-12-15T21:37:16-0800
; FORMAT={-:-/ absolute / inch / decimal}
; #@! TF.CreationDate,2025-12-15T21:37:16-08:00
; #@! TF.GenerationSoftware,Kicad,Pcbnew,8.0.6
; #@! TF.FileFunction,Plated,1,4,PTH
FMAT,2
INCH
; #@! TA.AperFunction,Plated,PTH,ViaDrill
T1C0.0118
; #@! TA.AperFunction,Plated,PTH,ComponentDrill
T2C0.0236
; #@! TA.AperFunction,Plated,PTH,ComponentDrill
T3C0.0394
; #@! TA.AperFunction,Plated,PTH,ComponentDrill
T4C0.0433
; #@! TA.AperFunction,Plated,PTH,ComponentDrill
T5C0.1260
%
G90
G05
T1
X0.3858Y0.4449
X0.3858Y0.3819
X0.3976Y0.7047
X0.4016Y0.311
X0.4094Y0.5669
X0.4134Y1.4055
X0.4528Y0.748
X0.4567Y0.3622
X0.5Y0.311
X0.5276Y1.4055
X0.5512Y0.3622
X0.6043Y0.315
X0.622Y1.4055
X0.6417Y0.2402
X0.6496Y0.5669
X0.6535Y0.4409
X0.685Y0.315
X0.7008Y0.6811
X0.7717Y0.6811
X0.7913Y0.5039
X0.7913Y0.4213
X0.8504Y0.6811
X0.8976Y0.6811
X0.8976Y0.4252
X0.9016Y0.5039
X0.9488Y0.685
X0.9921Y1.7126
X1.0Y0.7323
X1.0Y0.685
X1.0Y0.5039
X1.0Y0.4252
X1.0394Y1.5906
X1.0472Y0.685
X1.0551Y1.4055
X1.0591Y1.2283
X1.0591Y1.1732
X1.0827Y1.6575
X1.1063Y0.685
X1.1102Y1.7205
X1.1102Y0.5079
X1.1102Y0.4252
X1.1181Y1.1969
X1.1299Y1.4075
X1.1339Y1.5906
X1.1496Y1.4724
X1.1654Y1.1614
X1.1693Y0.6732
X1.1929Y1.4134
X1.2165Y0.7165
X1.2402Y1.1614
X1.2677Y0.5079
X1.2717Y0.437
X1.2795Y0.8071
X1.3307Y0.5118
X1.3425Y0.8071
X1.3465Y0.7087
X1.3976Y0.8071
X1.4094Y0.5118
X1.4094Y0.4488
X1.4134Y0.7244
X1.4567Y1.1693
X1.4606Y0.685
X1.4921Y0.5118
X1.5197Y1.2362
X1.5472Y1.126
X1.5591Y1.189
X1.5591Y0.5472
X1.5945Y1.9193
X1.5984Y0.5866
X1.6024Y1.0866
X1.628Y1.1575
X1.6339Y0.9252
X1.6378Y0.7126
X1.6772Y0.6693
X1.6811Y1.9213
X1.6811Y1.2205
X1.6811Y0.9961
X1.7205Y1.5866
X1.7244Y1.4843
X1.7362Y1.0551
X1.7402Y1.6811
X1.7441Y1.2402
X1.748Y1.1693
X1.7717Y1.9232
X1.7874Y1.6417
X1.7874Y1.5866
X1.7953Y1.4331
X1.7992Y1.7244
X1.8031Y0.9252
X1.8465Y0.4567
X1.8543Y1.0748
X1.8543Y0.9843
X1.8583Y1.9232
X1.8622Y1.6811
X1.8661Y1.4213
X1.8701Y0.3307
X1.874Y0.252
X1.9055Y0.5118
X1.9213Y0.9843
X1.9213Y0.9252
X1.9252Y1.685
X1.9291Y1.2205
X1.935Y1.4291
X1.9449Y1.9232
X1.9724Y0.5118
X1.9921Y0.563
X1.9961Y1.0709
X1.9961Y0.9843
X2.0Y1.2185
X2.0335Y1.9232
X2.0472Y0.9331
X2.126Y1.9232
X2.2087Y0.8819
X2.2126Y1.9232
X2.2539Y0.9665
X2.2598Y0.8504
X2.2677Y0.5079
X2.2756Y0.7559
X2.2835Y1.0709
X2.2835Y0.2323
X2.2953Y1.9232
X2.3228Y1.2441
X2.3346Y0.1811
X2.3386Y1.0354
X2.3543Y0.9724
X2.3819Y1.2441
X2.3858Y0.1457
X2.3917Y1.9252
X2.4035Y1.0354
X2.4173Y1.2874
X2.4247Y1.3425
X2.4252Y0.9724
X2.4724Y1.0276
X2.4798Y1.3425
X2.4803Y0.7402
X2.4803Y0.6811
X2.4843Y0.4449
X2.4902Y1.9252
X2.5354Y0.4055
X2.5472Y1.3425
X2.5472Y1.0315
X2.5512Y1.6024
X2.5684Y1.3957
X2.5743Y1.4587
X2.5827Y0.3543
X2.5846Y1.9252
X2.6142Y1.6417
X2.6142Y1.563
X2.626Y0.4803
X2.628Y0.4114
X2.6299Y1.0374
X2.6299Y0.9803
X2.6339Y0.563
X2.6496Y0.3307
X2.6511Y1.4685
X2.6752Y1.9252
X2.6969Y0.3701
X2.7008Y0.6929
X2.7362Y0.3268
X2.7697Y1.9252
X2.7874Y0.3701
X2.8012Y0.2303
X2.8307Y0.3307
X2.8386Y1.622
X2.8386Y1.5512
X2.8406Y1.4843
X2.8504Y0.622
X2.8701Y1.9252
X2.9016Y0.3307
X2.9094Y0.2402
X2.9173Y1.4843
X2.9213Y0.1417
X2.9331Y0.622
X2.9528Y0.2874
X2.9626Y1.9252
X2.9764Y0.2244
X2.9843Y0.4843
X2.9882Y1.626
X2.9921Y1.5551
X2.9921Y1.4843
X3.0472Y0.1496
X3.063Y1.9252
X3.1024Y0.2165
X3.1201Y0.9547
X3.1575Y0.1535
X3.1594Y1.9232
X3.189Y1.0236
X3.189Y0.7618
X3.1929Y0.2205
X3.2185Y0.7067
X3.248Y1.9252
X3.2618Y0.7638
X3.2638Y0.2717
X3.2638Y0.2205
X3.2677Y0.689
X3.2874Y1.7402
X3.2874Y1.6063
X3.2874Y0.1535
X3.3031Y1.4803
X3.3248Y0.6909
X3.3307Y0.4567
X3.3307Y0.2205
X3.3386Y0.9646
X3.3543Y1.5472
X3.3543Y0.311
X3.3583Y1.8976
X3.3583Y1.6772
X3.3819Y0.5886
X3.3898Y1.0591
X3.3976Y0.1929
X3.4094Y0.9016
X3.4173Y0.4567
X3.4213Y0.5531
X3.4213Y0.3701
X3.4232Y0.624
X3.4252Y1.6024
X3.4252Y1.4803
X3.4409Y1.9291
X3.4449Y1.8465
X3.4606Y1.7598
X3.4606Y1.0591
X3.4606Y0.9488
X3.4724Y0.5906
X3.4744Y0.7559
X3.4764Y0.2638
X3.4921Y1.5315
X3.4921Y0.4173
X3.4961Y0.4882
X3.5236Y1.4409
X3.5236Y1.3661
X3.5236Y1.2953
X3.5276Y1.9016
X3.5315Y1.0591
X3.5354Y1.8189
X3.5394Y0.8976
X3.5433Y1.7441
X3.5472Y0.7795
X3.5472Y0.3346
X3.563Y1.6654
X3.5827Y0.6417
X3.5984Y0.7244
X3.5984Y0.5472
X3.5984Y0.4724
X3.5984Y0.4016
X3.6024Y1.0591
X3.6024Y0.9488
X3.6024Y0.8543
X3.6063Y1.1772
X3.6102Y1.878
X3.6142Y1.1142
X3.6181Y0.7835
X3.622Y1.7244
X3.626Y0.6693
X3.6457Y1.6496
X3.6693Y1.4449
X3.6732Y1.5748
X3.6772Y1.3228
X3.6772Y1.2087
X3.6772Y1.1339
X3.6772Y1.0591
X3.6811Y0.9449
X3.6811Y0.8701
X3.6811Y0.7992
X3.685Y0.7205
X3.6969Y0.5197
X3.7008Y0.5945
X3.7165Y1.6378
X3.7205Y1.5079
X3.7244Y1.3819
X3.7244Y1.2638
X3.7323Y0.7559
X3.7323Y0.6535
X3.7402Y0.4016
X3.7598Y0.5276
X3.7677Y1.5748
X3.7677Y1.4449
X3.7717Y1.3228
X3.7756Y1.2087
X3.7795Y0.3346
X3.7835Y0.7992
X3.7835Y0.7008
X3.7835Y0.5945
X3.7835Y0.4646
X3.811Y1.5079
X3.815Y1.6378
X3.815Y1.3858
X3.815Y1.2677
X3.8268Y0.752
X3.8307Y0.4016
X3.8346Y0.6496
X3.8346Y0.5276
X3.8583Y1.5787
X3.8622Y1.4488
X3.8622Y1.3228
X3.8622Y1.2087
X3.8661Y0.7992
X3.874Y0.7008
X3.874Y0.3386
X3.878Y0.5906
X3.878Y0.4646
X3.8937Y1.6693
T3
X0.1969Y1.563
X0.1969Y1.463
X0.1969Y1.363
X0.1969Y1.263
X0.2969Y1.563
X0.2969Y1.463
X0.2969Y1.363
X0.2969Y1.263
X0.6165Y1.1299
X0.7165Y1.1299
X0.7984Y0.2992
X0.7984Y0.1992
X0.8165Y1.1299
X0.8984Y0.2992
X0.8984Y0.1992
X0.9984Y0.2992
X0.9984Y0.1992
X1.0984Y0.2992
X1.0984Y0.1992
X1.1984Y0.2992
X1.1984Y0.1992
X1.4496Y0.2992
X1.4496Y0.1992
X1.5496Y0.2992
X1.5496Y0.1992
X1.6496Y0.2992
X1.6496Y0.1992
X1.778Y0.6811
X1.878Y0.6811
X1.978Y0.6811
X1.9882Y0.2992
X1.9882Y0.1992
X2.0882Y0.2992
X2.0882Y0.1992
X2.1882Y0.2992
X2.1882Y0.1992
T4
X0.5118Y1.6358
X0.6102Y1.6358
X0.7087Y1.6358
T5
X0.1575Y1.811
X0.1575Y0.1575
X3.7795Y1.811
X3.7795Y0.1575
T2
G00X0.1142Y0.7339
M15
G01X0.0906Y0.7339
M16
G05
G00X0.1142Y0.3937
M15
G01X0.0906Y0.3937
M16
G05
G00X0.2886Y0.7339
M15
G01X0.2453Y0.7339
M16
G05
G00X0.2886Y0.3937
M15
G01X0.2453Y0.3937
M16
G05
M30
