%TF.GenerationSoftware,KiCad,Pcbnew,8.0.6*%
%TF.CreationDate,2025-12-15T22:17:44-08:00*%
%TF.ProjectId,Bluetooth_Board,426c7565-746f-46f7-9468-5f426f617264,B*%
%TF.SameCoordinates,PX5f5e100PY7270e00*%
%TF.FileFunction,Copper,L2,Inr*%
%TF.FilePolarity,Positive*%
%FSLAX46Y46*%
G04 Gerber Fmt 4.6, Leading zero omitted, Abs format (unit mm)*
G04 Created by KiCad (PCBNEW 8.0.6) date 2025-12-15 22:17:44*
%MOMM*%
%LPD*%
G01*
G04 APERTURE LIST*
%TA.AperFunction,ComponentPad*%
%ADD10R,1.700000X1.700000*%
%TD*%
%TA.AperFunction,ComponentPad*%
%ADD11O,1.700000X1.700000*%
%TD*%
%TA.AperFunction,ComponentPad*%
%ADD12C,6.400000*%
%TD*%
%TA.AperFunction,ComponentPad*%
%ADD13C,1.650000*%
%TD*%
%TA.AperFunction,ComponentPad*%
%ADD14O,2.100000X1.000000*%
%TD*%
%TA.AperFunction,ComponentPad*%
%ADD15O,1.600000X1.000000*%
%TD*%
%TA.AperFunction,ViaPad*%
%ADD16C,0.700000*%
%TD*%
G04 APERTURE END LIST*
D10*
%TO.N,/Interfaces/I2C_SDA_HDR*%
%TO.C,J4*%
X55580000Y7600000D03*
D11*
%TO.N,GND*%
X55580000Y5060000D03*
X53040000Y7600000D03*
X53040000Y5060000D03*
%TO.N,/Interfaces/I2C_SCL_HDR*%
X50500000Y7600000D03*
%TO.N,GND*%
X50500000Y5060000D03*
%TD*%
D10*
%TO.N,GND*%
%TO.C,J5*%
X41900000Y7600000D03*
D11*
X41900000Y5060000D03*
%TO.N,Net-(J5-Pin_3)*%
X39360000Y7600000D03*
%TO.N,GND*%
X39360000Y5060000D03*
X36820000Y7600000D03*
X36820000Y5060000D03*
%TD*%
%TO.N,GND*%
%TO.C,J1*%
X27900000Y7600000D03*
X25360000Y7600000D03*
X22820000Y7600000D03*
X20280000Y7600000D03*
%TD*%
D10*
%TO.N,GND*%
%TO.C,J24*%
X7540000Y32080000D03*
D11*
X7540000Y34620000D03*
X7540000Y37160000D03*
X7540000Y39700000D03*
%TD*%
%TO.N,GND*%
%TO.C,J11*%
X50240000Y17300000D03*
%TD*%
D12*
%TO.N,GND*%
%TO.C,H4*%
X96000000Y4000000D03*
%TD*%
%TO.N,GND*%
%TO.C,H1*%
X4000000Y46000000D03*
%TD*%
D13*
%TO.N,GND*%
%TO.C,JST1*%
X15500000Y41550000D03*
%TD*%
D14*
%TO.N,GND*%
%TO.C,J7*%
X6780000Y18640000D03*
D15*
X2600000Y18640000D03*
D14*
X6780000Y10000000D03*
D15*
X2600000Y10000000D03*
%TD*%
D12*
%TO.N,GND*%
%TO.C,H3*%
X4000000Y4000000D03*
%TD*%
%TO.N,GND*%
%TO.C,H2*%
X96000000Y46000000D03*
%TD*%
D16*
%TO.N,GND*%
X82900000Y5600000D03*
X81000000Y26000000D03*
X45600000Y36400000D03*
X48900000Y42800000D03*
X44100000Y26800000D03*
X47500000Y8400000D03*
X49150000Y36300000D03*
X93300000Y40000000D03*
X98100000Y36800000D03*
X91500000Y24100000D03*
X86300000Y4900000D03*
X88300000Y6700000D03*
X15800000Y35700000D03*
X80250000Y48850000D03*
X16300000Y6100000D03*
X12700000Y7900000D03*
X49000000Y31000000D03*
X58000000Y27200000D03*
X25400000Y12800000D03*
X59800000Y24700000D03*
X64700000Y26200000D03*
X77400000Y3800000D03*
X58300000Y48850000D03*
X81100000Y5600000D03*
X26800000Y35700000D03*
X78800000Y5500000D03*
X93400000Y28800000D03*
X65650000Y48900000D03*
X26900000Y31200000D03*
X57800000Y19200000D03*
X56200000Y48850000D03*
X70350000Y48900000D03*
X94000000Y15100000D03*
X61050000Y26300000D03*
X13400000Y35700000D03*
X85300000Y42600000D03*
X58000000Y5900000D03*
X34200000Y18000000D03*
X45800000Y23500000D03*
X60600000Y3700000D03*
X89700000Y26900000D03*
X94600000Y32100000D03*
X37900000Y13000000D03*
X83500000Y3900000D03*
X97400000Y16500000D03*
X90000000Y44300000D03*
X48800000Y23500000D03*
X91400000Y12000000D03*
X35900000Y18400000D03*
X88800000Y12400000D03*
X10500000Y35700000D03*
X17400000Y8000000D03*
X29200000Y37400000D03*
X96900000Y41600000D03*
X49400000Y48850000D03*
X46900000Y11600000D03*
X95700000Y36700000D03*
X93400000Y33600000D03*
X50700000Y25000000D03*
X98900000Y42400000D03*
X86900000Y14050000D03*
X94800000Y16600000D03*
X31500000Y29500000D03*
X95800000Y33600000D03*
X76000000Y37700000D03*
X41500000Y23500000D03*
X94600000Y35100000D03*
X50100000Y13000000D03*
X75250000Y48900000D03*
X42700000Y25300000D03*
X91500000Y21700000D03*
X44400000Y29700000D03*
X63100000Y11300000D03*
X65600000Y9000000D03*
X25400000Y18600000D03*
X54000000Y48850000D03*
X66400000Y39700000D03*
X11500000Y19000000D03*
X47100000Y27300000D03*
X16600000Y11200000D03*
X60500000Y31600000D03*
X67337500Y37300000D03*
X65237500Y35450000D03*
X98000000Y40100000D03*
X60750000Y48900000D03*
X84600000Y5600000D03*
X43700000Y40300000D03*
X39600000Y13900000D03*
X86100000Y26900000D03*
X61587500Y34100000D03*
X96100000Y15100000D03*
X92000000Y43800000D03*
X20100000Y12800000D03*
X40500000Y48750000D03*
X77800000Y48900000D03*
X98400000Y8600000D03*
X91400000Y18400000D03*
X86950000Y15850000D03*
X14000000Y9200000D03*
X93500000Y22100000D03*
X63250000Y48900000D03*
X89500000Y34700000D03*
X47600000Y6400000D03*
X84800000Y24500000D03*
X97400000Y13400000D03*
X90100000Y8500000D03*
X93400000Y30700000D03*
X26900000Y29800000D03*
X69500000Y8300000D03*
X80200000Y3900000D03*
X93600000Y18300000D03*
X87900000Y24100000D03*
X87000000Y40700000D03*
X62800000Y26100000D03*
X94800000Y19200000D03*
X66700000Y12200000D03*
X44200000Y42700000D03*
X75900000Y41300000D03*
X71900000Y8400000D03*
X35800000Y11400000D03*
X40600000Y14900000D03*
X91900000Y19900000D03*
X87900000Y26900000D03*
X56100000Y22400000D03*
X84600000Y11600000D03*
X64700000Y34100000D03*
X88700000Y38900000D03*
X89500000Y32900000D03*
X28200000Y10800000D03*
X10200000Y7900000D03*
X45000000Y48850000D03*
X96900000Y35200000D03*
X95700000Y40000000D03*
X72100000Y41200000D03*
X22800000Y17300000D03*
X85300000Y48200000D03*
X38600000Y31400000D03*
X16500000Y14400000D03*
X39300000Y28600000D03*
X35800000Y13000000D03*
X26400000Y40400000D03*
X25200000Y43500000D03*
X98400000Y17800000D03*
X86600000Y22900000D03*
X94400000Y41600000D03*
X28100000Y17400000D03*
X68600000Y17600000D03*
X41600000Y18100000D03*
X66400000Y41700000D03*
X25400000Y10800000D03*
X79250000Y24250000D03*
X22900000Y12800000D03*
X98500000Y15000000D03*
X67950000Y48900000D03*
X20100000Y10700000D03*
X32300000Y11100000D03*
X91500000Y26900000D03*
X67300000Y8400000D03*
X89800000Y46200000D03*
X63000000Y17300000D03*
X45400000Y41700000D03*
X94500000Y38300000D03*
X28200000Y12900000D03*
X74200000Y3600000D03*
X92600000Y41900000D03*
X27500000Y42100000D03*
X87400000Y49000000D03*
X11600000Y9200000D03*
X68500000Y9400000D03*
X30900000Y18200000D03*
X44300000Y31500000D03*
X91400000Y10200000D03*
X83900000Y37600000D03*
X40700000Y27600000D03*
X91000000Y16300000D03*
X83500000Y44200000D03*
X47100000Y25000000D03*
X66800000Y26350000D03*
X98500000Y11800000D03*
X32200000Y12900000D03*
X29600000Y29500000D03*
X85200000Y39300000D03*
X22800000Y10800000D03*
X17800000Y17300000D03*
X51650000Y48850000D03*
X97300000Y10200000D03*
X96100000Y20300000D03*
X96100000Y11800000D03*
X85200000Y7900000D03*
X93500000Y24000000D03*
X96100000Y17800000D03*
X43800000Y37700000D03*
X96900000Y32200000D03*
X89500000Y36600000D03*
X95500000Y13400000D03*
X96800000Y38300000D03*
X28200000Y43700000D03*
X72900000Y48900000D03*
X82500000Y48900000D03*
X83000000Y17500000D03*
X98200000Y20300000D03*
X96000000Y8500000D03*
X73900000Y6100000D03*
X74500000Y15800000D03*
X86800000Y11600000D03*
X89600000Y48300000D03*
X42700000Y48800000D03*
X95900000Y30700000D03*
X89900000Y22800000D03*
X19600000Y17300000D03*
X25400000Y17400000D03*
X75800000Y12300000D03*
X95000000Y10200000D03*
X9800000Y9700000D03*
X90500000Y42300000D03*
X90100000Y19800000D03*
X50700000Y27200000D03*
X28800000Y40400000D03*
X87900000Y44700000D03*
X87000000Y37600000D03*
X87500000Y46900000D03*
X45700000Y43800000D03*
X28400000Y30400000D03*
X91700000Y47700000D03*
X93500000Y20300000D03*
X61600000Y24700000D03*
X61400000Y32700000D03*
X91800000Y28300000D03*
X76000000Y39500000D03*
X52000000Y23700000D03*
X98100000Y30700000D03*
X97200000Y19100000D03*
X91400000Y13900000D03*
X88700000Y10600000D03*
X72150000Y37700000D03*
X72100000Y39400000D03*
X86900000Y9400000D03*
X29700000Y17100000D03*
X30300000Y35900000D03*
X93400000Y26900000D03*
X98100000Y33600000D03*
X47200000Y48850000D03*
X83500000Y40800000D03*
X93200000Y36700000D03*
%TD*%
%TA.AperFunction,Conductor*%
%TO.N,GND*%
G36*
X38894075Y5252993D02*
G01*
X38860000Y5125826D01*
X38860000Y4994174D01*
X38894075Y4867007D01*
X38926988Y4810000D01*
X37253012Y4810000D01*
X37285925Y4867007D01*
X37320000Y4994174D01*
X37320000Y5125826D01*
X37285925Y5252993D01*
X37253012Y5310000D01*
X38926988Y5310000D01*
X38894075Y5252993D01*
G37*
%TD.AperFunction*%
%TA.AperFunction,Conductor*%
G36*
X41434075Y5252993D02*
G01*
X41400000Y5125826D01*
X41400000Y4994174D01*
X41434075Y4867007D01*
X41466988Y4810000D01*
X39793012Y4810000D01*
X39825925Y4867007D01*
X39860000Y4994174D01*
X39860000Y5125826D01*
X39825925Y5252993D01*
X39793012Y5310000D01*
X41466988Y5310000D01*
X41434075Y5252993D01*
G37*
%TD.AperFunction*%
%TA.AperFunction,Conductor*%
G36*
X37070000Y5493012D02*
G01*
X37012993Y5525925D01*
X36885826Y5560000D01*
X36754174Y5560000D01*
X36627007Y5525925D01*
X36570000Y5493012D01*
X36570000Y7166988D01*
X36627007Y7134075D01*
X36754174Y7100000D01*
X36885826Y7100000D01*
X37012993Y7134075D01*
X37070000Y7166988D01*
X37070000Y5493012D01*
G37*
%TD.AperFunction*%
%TA.AperFunction,Conductor*%
G36*
X42150000Y5493012D02*
G01*
X42092993Y5525925D01*
X41965826Y5560000D01*
X41834174Y5560000D01*
X41707007Y5525925D01*
X41650000Y5493012D01*
X41650000Y7166988D01*
X41707007Y7134075D01*
X41834174Y7100000D01*
X41965826Y7100000D01*
X42092993Y7134075D01*
X42150000Y7166988D01*
X42150000Y5493012D01*
G37*
%TD.AperFunction*%
%TA.AperFunction,Conductor*%
G36*
X52574075Y5252993D02*
G01*
X52540000Y5125826D01*
X52540000Y4994174D01*
X52574075Y4867007D01*
X52606988Y4810000D01*
X50933012Y4810000D01*
X50965925Y4867007D01*
X51000000Y4994174D01*
X51000000Y5125826D01*
X50965925Y5252993D01*
X50933012Y5310000D01*
X52606988Y5310000D01*
X52574075Y5252993D01*
G37*
%TD.AperFunction*%
%TA.AperFunction,Conductor*%
G36*
X55114075Y5252993D02*
G01*
X55080000Y5125826D01*
X55080000Y4994174D01*
X55114075Y4867007D01*
X55146988Y4810000D01*
X53473012Y4810000D01*
X53505925Y4867007D01*
X53540000Y4994174D01*
X53540000Y5125826D01*
X53505925Y5252993D01*
X53473012Y5310000D01*
X55146988Y5310000D01*
X55114075Y5252993D01*
G37*
%TD.AperFunction*%
%TA.AperFunction,Conductor*%
G36*
X53290000Y5493012D02*
G01*
X53232993Y5525925D01*
X53105826Y5560000D01*
X52974174Y5560000D01*
X52847007Y5525925D01*
X52790000Y5493012D01*
X52790000Y7166988D01*
X52847007Y7134075D01*
X52974174Y7100000D01*
X53105826Y7100000D01*
X53232993Y7134075D01*
X53290000Y7166988D01*
X53290000Y5493012D01*
G37*
%TD.AperFunction*%
%TA.AperFunction,Conductor*%
G36*
X22354075Y7792993D02*
G01*
X22320000Y7665826D01*
X22320000Y7534174D01*
X22354075Y7407007D01*
X22386988Y7350000D01*
X20713012Y7350000D01*
X20745925Y7407007D01*
X20780000Y7534174D01*
X20780000Y7665826D01*
X20745925Y7792993D01*
X20713012Y7850000D01*
X22386988Y7850000D01*
X22354075Y7792993D01*
G37*
%TD.AperFunction*%
%TA.AperFunction,Conductor*%
G36*
X24894075Y7792993D02*
G01*
X24860000Y7665826D01*
X24860000Y7534174D01*
X24894075Y7407007D01*
X24926988Y7350000D01*
X23253012Y7350000D01*
X23285925Y7407007D01*
X23320000Y7534174D01*
X23320000Y7665826D01*
X23285925Y7792993D01*
X23253012Y7850000D01*
X24926988Y7850000D01*
X24894075Y7792993D01*
G37*
%TD.AperFunction*%
%TA.AperFunction,Conductor*%
G36*
X27434075Y7792993D02*
G01*
X27400000Y7665826D01*
X27400000Y7534174D01*
X27434075Y7407007D01*
X27466988Y7350000D01*
X25793012Y7350000D01*
X25825925Y7407007D01*
X25860000Y7534174D01*
X25860000Y7665826D01*
X25825925Y7792993D01*
X25793012Y7850000D01*
X27466988Y7850000D01*
X27434075Y7792993D01*
G37*
%TD.AperFunction*%
%TA.AperFunction,Conductor*%
G36*
X7790000Y32513012D02*
G01*
X7732993Y32545925D01*
X7605826Y32580000D01*
X7474174Y32580000D01*
X7347007Y32545925D01*
X7290000Y32513012D01*
X7290000Y34186988D01*
X7347007Y34154075D01*
X7474174Y34120000D01*
X7605826Y34120000D01*
X7732993Y34154075D01*
X7790000Y34186988D01*
X7790000Y32513012D01*
G37*
%TD.AperFunction*%
%TA.AperFunction,Conductor*%
G36*
X7790000Y35053012D02*
G01*
X7732993Y35085925D01*
X7605826Y35120000D01*
X7474174Y35120000D01*
X7347007Y35085925D01*
X7290000Y35053012D01*
X7290000Y36726988D01*
X7347007Y36694075D01*
X7474174Y36660000D01*
X7605826Y36660000D01*
X7732993Y36694075D01*
X7790000Y36726988D01*
X7790000Y35053012D01*
G37*
%TD.AperFunction*%
%TA.AperFunction,Conductor*%
G36*
X7790000Y37593012D02*
G01*
X7732993Y37625925D01*
X7605826Y37660000D01*
X7474174Y37660000D01*
X7347007Y37625925D01*
X7290000Y37593012D01*
X7290000Y39266988D01*
X7347007Y39234075D01*
X7474174Y39200000D01*
X7605826Y39200000D01*
X7732993Y39234075D01*
X7790000Y39266988D01*
X7790000Y37593012D01*
G37*
%TD.AperFunction*%
%TA.AperFunction,Conductor*%
G36*
X94710937Y49679815D02*
G01*
X94756692Y49627011D01*
X94766636Y49557853D01*
X94737611Y49494297D01*
X94688336Y49459736D01*
X94493005Y49384756D01*
X94147456Y49208690D01*
X93822206Y48997469D01*
X93564648Y48788905D01*
X93564648Y48788904D01*
X95059301Y47294252D01*
X94957670Y47220412D01*
X94779588Y47042330D01*
X94705748Y46940700D01*
X93211096Y48435352D01*
X93211095Y48435352D01*
X93002531Y48177794D01*
X92791310Y47852544D01*
X92615244Y47506995D01*
X92476262Y47144937D01*
X92375887Y46770331D01*
X92375886Y46770324D01*
X92315219Y46387288D01*
X92294922Y46000001D01*
X92294922Y46000000D01*
X92315219Y45612713D01*
X92375886Y45229677D01*
X92375887Y45229670D01*
X92476262Y44855064D01*
X92615244Y44493006D01*
X92791310Y44147457D01*
X93002531Y43822207D01*
X93211095Y43564650D01*
X93211096Y43564650D01*
X94705748Y45059302D01*
X94779588Y44957670D01*
X94957670Y44779588D01*
X95059300Y44705749D01*
X93564648Y43211097D01*
X93564649Y43211096D01*
X93822206Y43002532D01*
X94147456Y42791311D01*
X94493005Y42615245D01*
X94855063Y42476263D01*
X95229669Y42375888D01*
X95229676Y42375887D01*
X95612712Y42315220D01*
X95999999Y42294922D01*
X96000001Y42294922D01*
X96387287Y42315220D01*
X96770323Y42375887D01*
X96770330Y42375888D01*
X97144936Y42476263D01*
X97506994Y42615245D01*
X97852543Y42791311D01*
X98177783Y43002524D01*
X98177785Y43002525D01*
X98435349Y43211098D01*
X96940698Y44705749D01*
X97042330Y44779588D01*
X97220412Y44957670D01*
X97294251Y45059302D01*
X98788902Y43564651D01*
X98997475Y43822215D01*
X98997476Y43822217D01*
X99208689Y44147457D01*
X99384755Y44493006D01*
X99459735Y44688334D01*
X99502137Y44743866D01*
X99567831Y44767659D01*
X99635959Y44752157D01*
X99684892Y44702284D01*
X99699499Y44643896D01*
X99699499Y5356105D01*
X99679814Y5289066D01*
X99627010Y5243311D01*
X99557852Y5233367D01*
X99494296Y5262392D01*
X99459735Y5311667D01*
X99384755Y5506995D01*
X99208689Y5852544D01*
X98997468Y6177794D01*
X98788904Y6435351D01*
X98788903Y6435352D01*
X97294251Y4940700D01*
X97220412Y5042330D01*
X97042330Y5220412D01*
X96940698Y5294252D01*
X98435350Y6788904D01*
X98435350Y6788905D01*
X98177793Y6997469D01*
X97852543Y7208690D01*
X97506994Y7384756D01*
X97144936Y7523738D01*
X96770330Y7624113D01*
X96770323Y7624114D01*
X96387287Y7684781D01*
X96000001Y7705078D01*
X95999999Y7705078D01*
X95612712Y7684781D01*
X95229676Y7624114D01*
X95229669Y7624113D01*
X94855063Y7523738D01*
X94493005Y7384756D01*
X94147456Y7208690D01*
X93822206Y6997469D01*
X93564648Y6788905D01*
X93564648Y6788904D01*
X95059301Y5294252D01*
X94957670Y5220412D01*
X94779588Y5042330D01*
X94705748Y4940700D01*
X93211096Y6435352D01*
X93211095Y6435352D01*
X93002531Y6177794D01*
X92791310Y5852544D01*
X92615244Y5506995D01*
X92476262Y5144937D01*
X92375887Y4770331D01*
X92375886Y4770324D01*
X92315219Y4387288D01*
X92294922Y4000001D01*
X92294922Y4000000D01*
X92315219Y3612713D01*
X92375886Y3229677D01*
X92375887Y3229670D01*
X92476262Y2855064D01*
X92615244Y2493006D01*
X92791310Y2147457D01*
X93002531Y1822207D01*
X93211095Y1564650D01*
X93211096Y1564650D01*
X94705748Y3059302D01*
X94779588Y2957670D01*
X94957670Y2779588D01*
X95059300Y2705749D01*
X93564648Y1211097D01*
X93564649Y1211096D01*
X93822206Y1002532D01*
X94147456Y791311D01*
X94493005Y615245D01*
X94688336Y540264D01*
X94743868Y497862D01*
X94767661Y432168D01*
X94752159Y364040D01*
X94702286Y315107D01*
X94643898Y300500D01*
X5356102Y300500D01*
X5289063Y320185D01*
X5243308Y372989D01*
X5233364Y442147D01*
X5262389Y505703D01*
X5311664Y540264D01*
X5506994Y615245D01*
X5852543Y791311D01*
X6177783Y1002524D01*
X6177785Y1002525D01*
X6435349Y1211098D01*
X4940698Y2705749D01*
X5042330Y2779588D01*
X5220412Y2957670D01*
X5294251Y3059302D01*
X6788902Y1564651D01*
X6997475Y1822215D01*
X6997476Y1822217D01*
X7208689Y2147457D01*
X7384755Y2493006D01*
X7523737Y2855064D01*
X7624112Y3229670D01*
X7624113Y3229677D01*
X7684780Y3612713D01*
X7705078Y4000000D01*
X7705078Y4000001D01*
X7684780Y4387288D01*
X7624113Y4770324D01*
X7624112Y4770331D01*
X7524049Y5143772D01*
X19429500Y5143772D01*
X19429500Y4976229D01*
X19462182Y4811926D01*
X19462184Y4811918D01*
X19526295Y4657140D01*
X19619373Y4517838D01*
X19737837Y4399374D01*
X19830494Y4337463D01*
X19877137Y4306297D01*
X20031918Y4242184D01*
X20196228Y4209501D01*
X20196232Y4209500D01*
X20196233Y4209500D01*
X20363768Y4209500D01*
X20363769Y4209501D01*
X20528082Y4242184D01*
X20682863Y4306297D01*
X20822162Y4399374D01*
X20940626Y4517838D01*
X21033703Y4657137D01*
X21097816Y4811918D01*
X21130500Y4976233D01*
X21130500Y5143767D01*
X21130499Y5143772D01*
X21969500Y5143772D01*
X21969500Y4976229D01*
X22002182Y4811926D01*
X22002184Y4811918D01*
X22066295Y4657140D01*
X22159373Y4517838D01*
X22277837Y4399374D01*
X22370494Y4337463D01*
X22417137Y4306297D01*
X22571918Y4242184D01*
X22736228Y4209501D01*
X22736232Y4209500D01*
X22736233Y4209500D01*
X22903768Y4209500D01*
X22903769Y4209501D01*
X23068082Y4242184D01*
X23222863Y4306297D01*
X23362162Y4399374D01*
X23480626Y4517838D01*
X23573703Y4657137D01*
X23637816Y4811918D01*
X23670500Y4976233D01*
X23670500Y5143767D01*
X23670499Y5143772D01*
X24509500Y5143772D01*
X24509500Y4976229D01*
X24542182Y4811926D01*
X24542184Y4811918D01*
X24606295Y4657140D01*
X24699373Y4517838D01*
X24817837Y4399374D01*
X24910494Y4337463D01*
X24957137Y4306297D01*
X25111918Y4242184D01*
X25276228Y4209501D01*
X25276232Y4209500D01*
X25276233Y4209500D01*
X25443768Y4209500D01*
X25443769Y4209501D01*
X25608082Y4242184D01*
X25762863Y4306297D01*
X25902162Y4399374D01*
X26020626Y4517838D01*
X26113703Y4657137D01*
X26177816Y4811918D01*
X26210500Y4976233D01*
X26210500Y5143767D01*
X26210499Y5143772D01*
X27049500Y5143772D01*
X27049500Y4976229D01*
X27082182Y4811926D01*
X27082184Y4811918D01*
X27146295Y4657140D01*
X27239373Y4517838D01*
X27357837Y4399374D01*
X27450494Y4337463D01*
X27497137Y4306297D01*
X27651918Y4242184D01*
X27816228Y4209501D01*
X27816232Y4209500D01*
X27816233Y4209500D01*
X27983768Y4209500D01*
X27983769Y4209501D01*
X28148082Y4242184D01*
X28302863Y4306297D01*
X28442162Y4399374D01*
X28560626Y4517838D01*
X28653703Y4657137D01*
X28717816Y4811918D01*
X28750500Y4976233D01*
X28750500Y5143767D01*
X28750499Y5143772D01*
X29589500Y5143772D01*
X29589500Y4976229D01*
X29622182Y4811926D01*
X29622184Y4811918D01*
X29686295Y4657140D01*
X29779373Y4517838D01*
X29897837Y4399374D01*
X29990494Y4337463D01*
X30037137Y4306297D01*
X30191918Y4242184D01*
X30356228Y4209501D01*
X30356232Y4209500D01*
X30356233Y4209500D01*
X30523768Y4209500D01*
X30523769Y4209501D01*
X30688082Y4242184D01*
X30842863Y4306297D01*
X30982162Y4399374D01*
X31100626Y4517838D01*
X31193703Y4657137D01*
X31257816Y4811918D01*
X31290500Y4976233D01*
X31290500Y5143767D01*
X31257816Y5308082D01*
X31193703Y5462863D01*
X31102071Y5600000D01*
X31100626Y5602163D01*
X30982162Y5720627D01*
X30842860Y5813705D01*
X30688082Y5877816D01*
X30688074Y5877818D01*
X30523771Y5910500D01*
X30523767Y5910500D01*
X30356233Y5910500D01*
X30356228Y5910500D01*
X30191925Y5877818D01*
X30191917Y5877816D01*
X30037139Y5813705D01*
X29897837Y5720627D01*
X29779373Y5602163D01*
X29686295Y5462861D01*
X29622184Y5308083D01*
X29622182Y5308075D01*
X29589500Y5143772D01*
X28750499Y5143772D01*
X28717816Y5308082D01*
X28653703Y5462863D01*
X28562071Y5600000D01*
X28560626Y5602163D01*
X28442162Y5720627D01*
X28302860Y5813705D01*
X28148082Y5877816D01*
X28148074Y5877818D01*
X27983771Y5910500D01*
X27983767Y5910500D01*
X27816233Y5910500D01*
X27816228Y5910500D01*
X27651925Y5877818D01*
X27651917Y5877816D01*
X27497139Y5813705D01*
X27357837Y5720627D01*
X27239373Y5602163D01*
X27146295Y5462861D01*
X27082184Y5308083D01*
X27082182Y5308075D01*
X27049500Y5143772D01*
X26210499Y5143772D01*
X26177816Y5308082D01*
X26113703Y5462863D01*
X26022071Y5600000D01*
X26020626Y5602163D01*
X25902162Y5720627D01*
X25762860Y5813705D01*
X25608082Y5877816D01*
X25608074Y5877818D01*
X25443771Y5910500D01*
X25443767Y5910500D01*
X25276233Y5910500D01*
X25276228Y5910500D01*
X25111925Y5877818D01*
X25111917Y5877816D01*
X24957139Y5813705D01*
X24817837Y5720627D01*
X24699373Y5602163D01*
X24606295Y5462861D01*
X24542184Y5308083D01*
X24542182Y5308075D01*
X24509500Y5143772D01*
X23670499Y5143772D01*
X23637816Y5308082D01*
X23573703Y5462863D01*
X23482071Y5600000D01*
X23480626Y5602163D01*
X23362162Y5720627D01*
X23222860Y5813705D01*
X23068082Y5877816D01*
X23068074Y5877818D01*
X22903771Y5910500D01*
X22903767Y5910500D01*
X22736233Y5910500D01*
X22736228Y5910500D01*
X22571925Y5877818D01*
X22571917Y5877816D01*
X22417139Y5813705D01*
X22277837Y5720627D01*
X22159373Y5602163D01*
X22066295Y5462861D01*
X22002184Y5308083D01*
X22002182Y5308075D01*
X21969500Y5143772D01*
X21130499Y5143772D01*
X21097816Y5308082D01*
X21033703Y5462863D01*
X20942071Y5600000D01*
X20940626Y5602163D01*
X20822162Y5720627D01*
X20682860Y5813705D01*
X20528082Y5877816D01*
X20528074Y5877818D01*
X20363771Y5910500D01*
X20363767Y5910500D01*
X20196233Y5910500D01*
X20196228Y5910500D01*
X20031925Y5877818D01*
X20031917Y5877816D01*
X19877139Y5813705D01*
X19737837Y5720627D01*
X19619373Y5602163D01*
X19526295Y5462861D01*
X19462184Y5308083D01*
X19462182Y5308075D01*
X19429500Y5143772D01*
X7524049Y5143772D01*
X7523737Y5144937D01*
X7384755Y5506995D01*
X7208689Y5852544D01*
X6997468Y6177794D01*
X6788904Y6435351D01*
X6788903Y6435352D01*
X5294251Y4940700D01*
X5220412Y5042330D01*
X5042330Y5220412D01*
X4940698Y5294252D01*
X6435350Y6788904D01*
X6435350Y6788905D01*
X6177793Y6997469D01*
X5852543Y7208690D01*
X5506994Y7384756D01*
X5144936Y7523738D01*
X4770330Y7624113D01*
X4770323Y7624114D01*
X4387287Y7684781D01*
X4000001Y7705078D01*
X3999999Y7705078D01*
X3612712Y7684781D01*
X3229676Y7624114D01*
X3229669Y7624113D01*
X2855063Y7523738D01*
X2493005Y7384756D01*
X2147456Y7208690D01*
X1822206Y6997469D01*
X1564648Y6788905D01*
X1564648Y6788904D01*
X3059301Y5294252D01*
X2957670Y5220412D01*
X2779588Y5042330D01*
X2705748Y4940700D01*
X1211096Y6435352D01*
X1211095Y6435352D01*
X1002531Y6177794D01*
X791310Y5852544D01*
X615244Y5506995D01*
X540264Y5311665D01*
X497862Y5256133D01*
X432168Y5232340D01*
X364039Y5247842D01*
X315107Y5297715D01*
X300500Y5356103D01*
X300500Y8000000D01*
X14844353Y8000000D01*
X14864834Y7857544D01*
X14881278Y7821538D01*
X14924623Y7726627D01*
X15018872Y7617857D01*
X15139947Y7540047D01*
X15139950Y7540046D01*
X15139949Y7540046D01*
X15278036Y7499501D01*
X15278038Y7499500D01*
X15278039Y7499500D01*
X15421962Y7499500D01*
X15421962Y7499501D01*
X15560053Y7540047D01*
X15681128Y7617857D01*
X15775377Y7726627D01*
X15831721Y7850001D01*
X18949364Y7850001D01*
X18949364Y7850000D01*
X19846988Y7850000D01*
X19814075Y7792993D01*
X19780000Y7665826D01*
X19780000Y7534174D01*
X19814075Y7407007D01*
X19846988Y7350000D01*
X18949364Y7350000D01*
X19006567Y7136514D01*
X19006570Y7136508D01*
X19106399Y6922422D01*
X19241894Y6728918D01*
X19408917Y6561895D01*
X19602421Y6426400D01*
X19816507Y6326571D01*
X19816516Y6326567D01*
X20030000Y6269366D01*
X20030000Y7166988D01*
X20087007Y7134075D01*
X20214174Y7100000D01*
X20345826Y7100000D01*
X20472993Y7134075D01*
X20530000Y7166988D01*
X20530000Y6269367D01*
X20743483Y6326567D01*
X20743492Y6326571D01*
X20957578Y6426400D01*
X21151082Y6561895D01*
X21318105Y6728918D01*
X21448425Y6915032D01*
X21503002Y6958656D01*
X21572501Y6965849D01*
X21634855Y6934327D01*
X21651575Y6915032D01*
X21781894Y6728918D01*
X21948917Y6561895D01*
X22142421Y6426400D01*
X22356507Y6326571D01*
X22356516Y6326567D01*
X22570000Y6269366D01*
X22570000Y7166988D01*
X22627007Y7134075D01*
X22754174Y7100000D01*
X22885826Y7100000D01*
X23012993Y7134075D01*
X23070000Y7166988D01*
X23070000Y6269367D01*
X23283483Y6326567D01*
X23283492Y6326571D01*
X23497578Y6426400D01*
X23691082Y6561895D01*
X23858105Y6728918D01*
X23988425Y6915032D01*
X24043002Y6958656D01*
X24112501Y6965849D01*
X24174855Y6934327D01*
X24191575Y6915032D01*
X24321894Y6728918D01*
X24488917Y6561895D01*
X24682421Y6426400D01*
X24896507Y6326571D01*
X24896516Y6326567D01*
X25110000Y6269366D01*
X25110000Y7166988D01*
X25167007Y7134075D01*
X25294174Y7100000D01*
X25425826Y7100000D01*
X25552993Y7134075D01*
X25610000Y7166988D01*
X25610000Y6269367D01*
X25823483Y6326567D01*
X25823492Y6326571D01*
X26037578Y6426400D01*
X26231082Y6561895D01*
X26398105Y6728918D01*
X26528425Y6915032D01*
X26583002Y6958656D01*
X26652501Y6965849D01*
X26714855Y6934327D01*
X26731575Y6915032D01*
X26861894Y6728918D01*
X27028917Y6561895D01*
X27222421Y6426400D01*
X27436507Y6326571D01*
X27436516Y6326567D01*
X27650000Y6269366D01*
X27650000Y7166988D01*
X27707007Y7134075D01*
X27834174Y7100000D01*
X27965826Y7100000D01*
X28092993Y7134075D01*
X28150000Y7166988D01*
X28150000Y6269367D01*
X28363483Y6326567D01*
X28363492Y6326571D01*
X28577578Y6426400D01*
X28771082Y6561895D01*
X28938105Y6728918D01*
X29073600Y6922422D01*
X29173429Y7136508D01*
X29173432Y7136514D01*
X29230636Y7350000D01*
X28333012Y7350000D01*
X28365925Y7407007D01*
X28400000Y7534174D01*
X28400000Y7665826D01*
X28395191Y7683772D01*
X29589500Y7683772D01*
X29589500Y7516229D01*
X29622182Y7351926D01*
X29622184Y7351918D01*
X29686295Y7197140D01*
X29779373Y7057838D01*
X29897837Y6939374D01*
X29956765Y6900000D01*
X30037137Y6846297D01*
X30037138Y6846297D01*
X30037139Y6846296D01*
X30052228Y6840046D01*
X30191918Y6782184D01*
X30315793Y6757544D01*
X30356228Y6749501D01*
X30356232Y6749500D01*
X30356233Y6749500D01*
X30523768Y6749500D01*
X30523769Y6749501D01*
X30688082Y6782184D01*
X30842863Y6846297D01*
X30982162Y6939374D01*
X31100626Y7057838D01*
X31193703Y7197137D01*
X31257816Y7351918D01*
X31290500Y7516233D01*
X31290500Y7683767D01*
X31257816Y7848082D01*
X31257021Y7850001D01*
X35489364Y7850001D01*
X35489364Y7850000D01*
X36386988Y7850000D01*
X36354075Y7792993D01*
X36320000Y7665826D01*
X36320000Y7534174D01*
X36354075Y7407007D01*
X36386988Y7350000D01*
X35489364Y7350000D01*
X35546567Y7136514D01*
X35546570Y7136508D01*
X35646399Y6922422D01*
X35781894Y6728918D01*
X35948917Y6561895D01*
X36135031Y6431575D01*
X36178656Y6376997D01*
X36185848Y6307499D01*
X36154326Y6245144D01*
X36135031Y6228425D01*
X35948922Y6098110D01*
X35948920Y6098109D01*
X35781891Y5931080D01*
X35781886Y5931074D01*
X35646400Y5737580D01*
X35646399Y5737578D01*
X35546570Y5523493D01*
X35546567Y5523487D01*
X35489364Y5310001D01*
X35489364Y5310000D01*
X36386988Y5310000D01*
X36354075Y5252993D01*
X36320000Y5125826D01*
X36320000Y4994174D01*
X36354075Y4867007D01*
X36386988Y4810000D01*
X35489364Y4810000D01*
X35546567Y4596514D01*
X35546570Y4596508D01*
X35646399Y4382422D01*
X35781894Y4188918D01*
X35948917Y4021895D01*
X36142421Y3886400D01*
X36356507Y3786571D01*
X36356516Y3786567D01*
X36570000Y3729366D01*
X36570000Y4626988D01*
X36627007Y4594075D01*
X36754174Y4560000D01*
X36885826Y4560000D01*
X37012993Y4594075D01*
X37070000Y4626988D01*
X37070000Y3729366D01*
X37283483Y3786567D01*
X37283492Y3786571D01*
X37497578Y3886400D01*
X37691082Y4021895D01*
X37858105Y4188918D01*
X37988425Y4375032D01*
X38043002Y4418656D01*
X38112501Y4425849D01*
X38174855Y4394327D01*
X38191575Y4375032D01*
X38321894Y4188918D01*
X38488917Y4021895D01*
X38682421Y3886400D01*
X38896507Y3786571D01*
X38896516Y3786567D01*
X39110000Y3729366D01*
X39110000Y4626988D01*
X39167007Y4594075D01*
X39294174Y4560000D01*
X39425826Y4560000D01*
X39552993Y4594075D01*
X39610000Y4626988D01*
X39610000Y3729367D01*
X39823483Y3786567D01*
X39823492Y3786571D01*
X40037578Y3886400D01*
X40231082Y4021895D01*
X40398105Y4188918D01*
X40528425Y4375032D01*
X40583002Y4418656D01*
X40652501Y4425849D01*
X40714855Y4394327D01*
X40731575Y4375032D01*
X40861894Y4188918D01*
X41028917Y4021895D01*
X41222421Y3886400D01*
X41436507Y3786571D01*
X41436516Y3786567D01*
X41650000Y3729366D01*
X41650000Y4626988D01*
X41707007Y4594075D01*
X41834174Y4560000D01*
X41965826Y4560000D01*
X42092993Y4594075D01*
X42150000Y4626988D01*
X42150000Y3729367D01*
X42363483Y3786567D01*
X42363492Y3786571D01*
X42577578Y3886400D01*
X42771082Y4021895D01*
X42938105Y4188918D01*
X43073600Y4382422D01*
X43173429Y4596508D01*
X43173432Y4596514D01*
X43230636Y4810000D01*
X42333012Y4810000D01*
X42365925Y4867007D01*
X42400000Y4994174D01*
X42400000Y5125826D01*
X42365925Y5252993D01*
X42333012Y5310000D01*
X43230636Y5310000D01*
X43230635Y5310001D01*
X49169364Y5310001D01*
X49169364Y5310000D01*
X50066988Y5310000D01*
X50034075Y5252993D01*
X50000000Y5125826D01*
X50000000Y4994174D01*
X50034075Y4867007D01*
X50066988Y4810000D01*
X49169364Y4810000D01*
X49226567Y4596514D01*
X49226570Y4596508D01*
X49326399Y4382422D01*
X49461894Y4188918D01*
X49628917Y4021895D01*
X49822421Y3886400D01*
X50036507Y3786571D01*
X50036516Y3786567D01*
X50250000Y3729366D01*
X50250000Y4626988D01*
X50307007Y4594075D01*
X50434174Y4560000D01*
X50565826Y4560000D01*
X50692993Y4594075D01*
X50750000Y4626988D01*
X50750000Y3729367D01*
X50963483Y3786567D01*
X50963492Y3786571D01*
X51177578Y3886400D01*
X51371082Y4021895D01*
X51538105Y4188918D01*
X51668425Y4375032D01*
X51723002Y4418656D01*
X51792501Y4425849D01*
X51854855Y4394327D01*
X51871575Y4375032D01*
X52001894Y4188918D01*
X52168917Y4021895D01*
X52362421Y3886400D01*
X52576507Y3786571D01*
X52576516Y3786567D01*
X52790000Y3729366D01*
X52790000Y4626988D01*
X52847007Y4594075D01*
X52974174Y4560000D01*
X53105826Y4560000D01*
X53232993Y4594075D01*
X53290000Y4626988D01*
X53290000Y3729366D01*
X53503483Y3786567D01*
X53503492Y3786571D01*
X53717578Y3886400D01*
X53911082Y4021895D01*
X54078105Y4188918D01*
X54208425Y4375032D01*
X54263002Y4418656D01*
X54332501Y4425849D01*
X54394855Y4394327D01*
X54411575Y4375032D01*
X54541894Y4188918D01*
X54708917Y4021895D01*
X54902421Y3886400D01*
X55116507Y3786571D01*
X55116516Y3786567D01*
X55330000Y3729366D01*
X55330000Y4626988D01*
X55387007Y4594075D01*
X55514174Y4560000D01*
X55645826Y4560000D01*
X55772993Y4594075D01*
X55830000Y4626988D01*
X55830000Y3729366D01*
X56043483Y3786567D01*
X56043492Y3786571D01*
X56257578Y3886400D01*
X56451082Y4021895D01*
X56618105Y4188918D01*
X56753600Y4382422D01*
X56853429Y4596508D01*
X56853432Y4596514D01*
X56854366Y4600000D01*
X58794353Y4600000D01*
X58814834Y4457544D01*
X58849142Y4382422D01*
X58874623Y4326627D01*
X58968872Y4217857D01*
X59089947Y4140047D01*
X59089950Y4140046D01*
X59089949Y4140046D01*
X59228036Y4099501D01*
X59228038Y4099500D01*
X59228039Y4099500D01*
X59371962Y4099500D01*
X59371962Y4099501D01*
X59510053Y4140047D01*
X59631128Y4217857D01*
X59725377Y4326627D01*
X59785165Y4457543D01*
X59805647Y4600000D01*
X59785165Y4742457D01*
X59725377Y4873373D01*
X59631128Y4982143D01*
X59510053Y5059953D01*
X59510051Y5059954D01*
X59510049Y5059955D01*
X59510050Y5059955D01*
X59371963Y5100500D01*
X59371961Y5100500D01*
X59228039Y5100500D01*
X59228036Y5100500D01*
X59089949Y5059955D01*
X58968873Y4982144D01*
X58874623Y4873374D01*
X58874622Y4873372D01*
X58814834Y4742457D01*
X58794353Y4600000D01*
X56854366Y4600000D01*
X56910636Y4810000D01*
X56013012Y4810000D01*
X56045925Y4867007D01*
X56080000Y4994174D01*
X56080000Y5125826D01*
X56045925Y5252993D01*
X56013012Y5310000D01*
X56910636Y5310000D01*
X56910635Y5310001D01*
X56853432Y5523487D01*
X56853429Y5523493D01*
X56753600Y5737578D01*
X56753599Y5737580D01*
X56674882Y5850000D01*
X70644353Y5850000D01*
X70664834Y5707544D01*
X70712961Y5602163D01*
X70724623Y5576627D01*
X70818872Y5467857D01*
X70939947Y5390047D01*
X70939950Y5390046D01*
X70939949Y5390046D01*
X71078036Y5349501D01*
X71078038Y5349500D01*
X71078039Y5349500D01*
X71221962Y5349500D01*
X71221962Y5349501D01*
X71360053Y5390047D01*
X71481128Y5467857D01*
X71575377Y5576627D01*
X71631720Y5700000D01*
X75094353Y5700000D01*
X75114834Y5557544D01*
X75174622Y5426629D01*
X75174623Y5426627D01*
X75268872Y5317857D01*
X75389947Y5240047D01*
X75389950Y5240046D01*
X75389949Y5240046D01*
X75528036Y5199501D01*
X75528038Y5199500D01*
X75528039Y5199500D01*
X75671962Y5199500D01*
X75671962Y5199501D01*
X75810053Y5240047D01*
X75931128Y5317857D01*
X76025377Y5426627D01*
X76085165Y5557543D01*
X76105647Y5700000D01*
X76085165Y5842457D01*
X76025377Y5973373D01*
X75931128Y6082143D01*
X75810053Y6159953D01*
X75810051Y6159954D01*
X75810049Y6159955D01*
X75810050Y6159955D01*
X75671963Y6200500D01*
X75671961Y6200500D01*
X75528039Y6200500D01*
X75528036Y6200500D01*
X75389949Y6159955D01*
X75268873Y6082144D01*
X75174623Y5973374D01*
X75174622Y5973372D01*
X75114834Y5842457D01*
X75094353Y5700000D01*
X71631720Y5700000D01*
X71635165Y5707543D01*
X71655647Y5850000D01*
X71635165Y5992457D01*
X71575377Y6123373D01*
X71481128Y6232143D01*
X71360053Y6309953D01*
X71360051Y6309954D01*
X71360049Y6309955D01*
X71360050Y6309955D01*
X71221963Y6350500D01*
X71221961Y6350500D01*
X71078039Y6350500D01*
X71078036Y6350500D01*
X70939949Y6309955D01*
X70818873Y6232144D01*
X70724623Y6123374D01*
X70724622Y6123372D01*
X70664834Y5992457D01*
X70644353Y5850000D01*
X56674882Y5850000D01*
X56618113Y5931074D01*
X56618108Y5931080D01*
X56451082Y6098106D01*
X56342802Y6173925D01*
X56299177Y6228502D01*
X56291985Y6298001D01*
X56323507Y6360355D01*
X56383737Y6395769D01*
X56413926Y6399500D01*
X56463261Y6399500D01*
X56485971Y6402809D01*
X56531393Y6409427D01*
X56636483Y6460802D01*
X56719198Y6543517D01*
X56770573Y6648607D01*
X56780500Y6716740D01*
X56780500Y7300000D01*
X74494353Y7300000D01*
X74514834Y7157544D01*
X74574622Y7026629D01*
X74574623Y7026627D01*
X74668872Y6917857D01*
X74789947Y6840047D01*
X74789950Y6840046D01*
X74789949Y6840046D01*
X74928036Y6799501D01*
X74928038Y6799500D01*
X74928039Y6799500D01*
X75071962Y6799500D01*
X75071962Y6799501D01*
X75210053Y6840047D01*
X75303342Y6900000D01*
X82394353Y6900000D01*
X82414834Y6757544D01*
X82467319Y6642621D01*
X82474623Y6626627D01*
X82568872Y6517857D01*
X82689947Y6440047D01*
X82689950Y6440046D01*
X82689949Y6440046D01*
X82828036Y6399501D01*
X82828038Y6399500D01*
X82828039Y6399500D01*
X82971962Y6399500D01*
X82971962Y6399501D01*
X83110053Y6440047D01*
X83231128Y6517857D01*
X83325377Y6626627D01*
X83385165Y6757543D01*
X83405647Y6900000D01*
X83385165Y7042457D01*
X83325377Y7173373D01*
X83231128Y7282143D01*
X83110053Y7359953D01*
X83110051Y7359954D01*
X83110049Y7359955D01*
X83110050Y7359955D01*
X82971963Y7400500D01*
X82971961Y7400500D01*
X82828039Y7400500D01*
X82828036Y7400500D01*
X82689949Y7359955D01*
X82568873Y7282144D01*
X82474623Y7173374D01*
X82474622Y7173372D01*
X82414834Y7042457D01*
X82394353Y6900000D01*
X75303342Y6900000D01*
X75331128Y6917857D01*
X75425377Y7026627D01*
X75485165Y7157543D01*
X75505647Y7300000D01*
X75485165Y7442457D01*
X75425377Y7573373D01*
X75331128Y7682143D01*
X75210053Y7759953D01*
X75210051Y7759954D01*
X75210049Y7759955D01*
X75210050Y7759955D01*
X75071963Y7800500D01*
X75071961Y7800500D01*
X74928039Y7800500D01*
X74928036Y7800500D01*
X74789949Y7759955D01*
X74668873Y7682144D01*
X74574623Y7573374D01*
X74574622Y7573372D01*
X74514834Y7442457D01*
X74494353Y7300000D01*
X56780500Y7300000D01*
X56780500Y8400000D01*
X73194353Y8400000D01*
X73214834Y8257544D01*
X73267528Y8142163D01*
X73274623Y8126627D01*
X73368872Y8017857D01*
X73489947Y7940047D01*
X73489950Y7940046D01*
X73489949Y7940046D01*
X73628036Y7899501D01*
X73628038Y7899500D01*
X73628039Y7899500D01*
X73771962Y7899500D01*
X73771962Y7899501D01*
X73910053Y7940047D01*
X74031128Y8017857D01*
X74125377Y8126627D01*
X74185165Y8257543D01*
X74205647Y8400000D01*
X74185165Y8542457D01*
X74125377Y8673373D01*
X74031128Y8782143D01*
X73910053Y8859953D01*
X73910051Y8859954D01*
X73910049Y8859955D01*
X73910050Y8859955D01*
X73771963Y8900500D01*
X73771961Y8900500D01*
X73628039Y8900500D01*
X73628036Y8900500D01*
X73489949Y8859955D01*
X73368873Y8782144D01*
X73274623Y8673374D01*
X73274622Y8673372D01*
X73214834Y8542457D01*
X73194353Y8400000D01*
X56780500Y8400000D01*
X56780500Y8483260D01*
X56778377Y8497828D01*
X56770573Y8551392D01*
X56770573Y8551393D01*
X56719198Y8656483D01*
X56719196Y8656485D01*
X56719196Y8656486D01*
X56636485Y8739197D01*
X56531391Y8790574D01*
X56463261Y8800500D01*
X56463260Y8800500D01*
X54696740Y8800500D01*
X54696739Y8800500D01*
X54628608Y8790574D01*
X54523514Y8739197D01*
X54440803Y8656486D01*
X54389426Y8551392D01*
X54379500Y8483261D01*
X54379500Y8433927D01*
X54359815Y8366888D01*
X54307011Y8321133D01*
X54237853Y8311189D01*
X54174297Y8340214D01*
X54153925Y8362803D01*
X54078109Y8471078D01*
X54078108Y8471080D01*
X53911082Y8638106D01*
X53717578Y8773601D01*
X53503492Y8873430D01*
X53503486Y8873433D01*
X53290000Y8930636D01*
X53290000Y8033012D01*
X53232993Y8065925D01*
X53105826Y8100000D01*
X52974174Y8100000D01*
X52847007Y8065925D01*
X52790000Y8033012D01*
X52790000Y8930636D01*
X52789999Y8930636D01*
X52576513Y8873433D01*
X52576507Y8873430D01*
X52362422Y8773601D01*
X52362420Y8773600D01*
X52168926Y8638114D01*
X52168920Y8638109D01*
X52001891Y8471080D01*
X52001886Y8471074D01*
X51866400Y8277580D01*
X51866399Y8277578D01*
X51799717Y8134579D01*
X51753544Y8082140D01*
X51686350Y8062988D01*
X51619469Y8083204D01*
X51576335Y8131712D01*
X51525061Y8234684D01*
X51525056Y8234692D01*
X51390979Y8412239D01*
X51226562Y8562124D01*
X51226560Y8562126D01*
X51037404Y8679246D01*
X51037398Y8679248D01*
X50829940Y8759618D01*
X50611243Y8800500D01*
X50388757Y8800500D01*
X50170060Y8759618D01*
X50038864Y8708793D01*
X49962601Y8679248D01*
X49962595Y8679246D01*
X49773439Y8562126D01*
X49773437Y8562124D01*
X49609020Y8412239D01*
X49474943Y8234692D01*
X49474938Y8234684D01*
X49375775Y8035539D01*
X49375769Y8035524D01*
X49314885Y7821538D01*
X49314884Y7821536D01*
X49294357Y7600001D01*
X49294357Y7600000D01*
X49314884Y7378465D01*
X49314885Y7378463D01*
X49375769Y7164477D01*
X49375775Y7164462D01*
X49474938Y6965317D01*
X49474943Y6965309D01*
X49609020Y6787762D01*
X49773437Y6637877D01*
X49773439Y6637875D01*
X49967473Y6517735D01*
X49966836Y6516708D01*
X50013563Y6473393D01*
X50030989Y6405731D01*
X50009069Y6339389D01*
X49959464Y6297505D01*
X49822422Y6233601D01*
X49822420Y6233600D01*
X49628926Y6098114D01*
X49628920Y6098109D01*
X49461891Y5931080D01*
X49461886Y5931074D01*
X49326400Y5737580D01*
X49326399Y5737578D01*
X49226570Y5523493D01*
X49226567Y5523487D01*
X49169364Y5310001D01*
X43230635Y5310001D01*
X43173432Y5523487D01*
X43173429Y5523493D01*
X43073600Y5737578D01*
X43073599Y5737580D01*
X42938113Y5931074D01*
X42938108Y5931080D01*
X42815665Y6053523D01*
X42782180Y6114846D01*
X42787164Y6184538D01*
X42829036Y6240471D01*
X42860013Y6257386D01*
X42992086Y6306646D01*
X42992093Y6306650D01*
X43107187Y6392810D01*
X43107190Y6392813D01*
X43193350Y6507907D01*
X43193354Y6507914D01*
X43243596Y6642621D01*
X43243598Y6642628D01*
X43249999Y6702156D01*
X43250000Y6702173D01*
X43250000Y7350000D01*
X42333012Y7350000D01*
X42365925Y7407007D01*
X42400000Y7534174D01*
X42400000Y7665826D01*
X42365925Y7792993D01*
X42333012Y7850000D01*
X43250000Y7850000D01*
X43250000Y8497828D01*
X43249999Y8497845D01*
X43243598Y8557373D01*
X43243596Y8557380D01*
X43193354Y8692087D01*
X43193350Y8692094D01*
X43107190Y8807188D01*
X43107187Y8807191D01*
X42992093Y8893351D01*
X42992086Y8893355D01*
X42857379Y8943597D01*
X42857372Y8943599D01*
X42797844Y8950000D01*
X42150000Y8950000D01*
X42150000Y8033012D01*
X42092993Y8065925D01*
X41965826Y8100000D01*
X41834174Y8100000D01*
X41707007Y8065925D01*
X41650000Y8033012D01*
X41650000Y8950000D01*
X41002155Y8950000D01*
X40942627Y8943599D01*
X40942620Y8943597D01*
X40807913Y8893355D01*
X40807906Y8893351D01*
X40692812Y8807191D01*
X40692809Y8807188D01*
X40606649Y8692094D01*
X40606645Y8692087D01*
X40556403Y8557380D01*
X40556401Y8557373D01*
X40550000Y8497845D01*
X40550000Y8386237D01*
X40530315Y8319198D01*
X40477511Y8273443D01*
X40408353Y8263499D01*
X40344797Y8292524D01*
X40327046Y8311510D01*
X40250979Y8412239D01*
X40086562Y8562124D01*
X40086560Y8562126D01*
X39897404Y8679246D01*
X39897398Y8679248D01*
X39689940Y8759618D01*
X39471243Y8800500D01*
X39248757Y8800500D01*
X39030060Y8759618D01*
X38898864Y8708793D01*
X38822601Y8679248D01*
X38822595Y8679246D01*
X38633439Y8562126D01*
X38633437Y8562124D01*
X38469020Y8412239D01*
X38334943Y8234692D01*
X38334938Y8234684D01*
X38283664Y8131712D01*
X38236160Y8080475D01*
X38168497Y8063054D01*
X38102157Y8084980D01*
X38060282Y8134579D01*
X37993600Y8277578D01*
X37993599Y8277580D01*
X37858113Y8471074D01*
X37858108Y8471080D01*
X37691082Y8638106D01*
X37497578Y8773601D01*
X37283492Y8873430D01*
X37283486Y8873433D01*
X37070000Y8930636D01*
X37070000Y8033012D01*
X37012993Y8065925D01*
X36885826Y8100000D01*
X36754174Y8100000D01*
X36627007Y8065925D01*
X36570000Y8033012D01*
X36570000Y8930636D01*
X36569999Y8930636D01*
X36356513Y8873433D01*
X36356507Y8873430D01*
X36142422Y8773601D01*
X36142420Y8773600D01*
X35948926Y8638114D01*
X35948920Y8638109D01*
X35781891Y8471080D01*
X35781886Y8471074D01*
X35646400Y8277580D01*
X35646399Y8277578D01*
X35546570Y8063493D01*
X35546567Y8063487D01*
X35489364Y7850001D01*
X31257021Y7850001D01*
X31193703Y8002863D01*
X31153529Y8062988D01*
X31100626Y8142163D01*
X30982162Y8260627D01*
X30842860Y8353705D01*
X30688082Y8417816D01*
X30688074Y8417818D01*
X30523771Y8450500D01*
X30523767Y8450500D01*
X30356233Y8450500D01*
X30356228Y8450500D01*
X30191925Y8417818D01*
X30191917Y8417816D01*
X30037139Y8353705D01*
X29897837Y8260627D01*
X29779373Y8142163D01*
X29686295Y8002861D01*
X29622184Y7848083D01*
X29622182Y7848075D01*
X29589500Y7683772D01*
X28395191Y7683772D01*
X28365925Y7792993D01*
X28333012Y7850000D01*
X29230636Y7850000D01*
X29230635Y7850001D01*
X29173432Y8063487D01*
X29173429Y8063493D01*
X29073600Y8277578D01*
X29073599Y8277580D01*
X28938113Y8471074D01*
X28938108Y8471080D01*
X28771082Y8638106D01*
X28577578Y8773601D01*
X28363492Y8873430D01*
X28363486Y8873433D01*
X28150000Y8930636D01*
X28150000Y8033012D01*
X28092993Y8065925D01*
X27965826Y8100000D01*
X27834174Y8100000D01*
X27707007Y8065925D01*
X27650000Y8033012D01*
X27650000Y8930636D01*
X27649999Y8930636D01*
X27436513Y8873433D01*
X27436507Y8873430D01*
X27222422Y8773601D01*
X27222420Y8773600D01*
X27028926Y8638114D01*
X27028920Y8638109D01*
X26861891Y8471080D01*
X26861890Y8471078D01*
X26731575Y8284969D01*
X26676998Y8241345D01*
X26607499Y8234152D01*
X26545145Y8265674D01*
X26528425Y8284969D01*
X26398109Y8471078D01*
X26398108Y8471080D01*
X26231082Y8638106D01*
X26037578Y8773601D01*
X25823492Y8873430D01*
X25823486Y8873433D01*
X25610000Y8930636D01*
X25610000Y8033012D01*
X25552993Y8065925D01*
X25425826Y8100000D01*
X25294174Y8100000D01*
X25167007Y8065925D01*
X25110000Y8033012D01*
X25110000Y8930636D01*
X25109999Y8930636D01*
X24896513Y8873433D01*
X24896507Y8873430D01*
X24682422Y8773601D01*
X24682420Y8773600D01*
X24488926Y8638114D01*
X24488920Y8638109D01*
X24321891Y8471080D01*
X24321890Y8471078D01*
X24191575Y8284969D01*
X24136998Y8241345D01*
X24067499Y8234152D01*
X24005145Y8265674D01*
X23988425Y8284969D01*
X23858109Y8471078D01*
X23858108Y8471080D01*
X23691082Y8638106D01*
X23497578Y8773601D01*
X23283492Y8873430D01*
X23283486Y8873433D01*
X23070000Y8930636D01*
X23070000Y8033012D01*
X23012993Y8065925D01*
X22885826Y8100000D01*
X22754174Y8100000D01*
X22627007Y8065925D01*
X22570000Y8033012D01*
X22570000Y8930636D01*
X22569999Y8930636D01*
X22356513Y8873433D01*
X22356507Y8873430D01*
X22142422Y8773601D01*
X22142420Y8773600D01*
X21948926Y8638114D01*
X21948920Y8638109D01*
X21781891Y8471080D01*
X21781890Y8471078D01*
X21651575Y8284969D01*
X21596998Y8241345D01*
X21527499Y8234152D01*
X21465145Y8265674D01*
X21448425Y8284969D01*
X21318109Y8471078D01*
X21318108Y8471080D01*
X21151082Y8638106D01*
X20957578Y8773601D01*
X20743492Y8873430D01*
X20743486Y8873433D01*
X20530000Y8930636D01*
X20530000Y8033012D01*
X20472993Y8065925D01*
X20345826Y8100000D01*
X20214174Y8100000D01*
X20087007Y8065925D01*
X20030000Y8033012D01*
X20030000Y8930636D01*
X20029999Y8930636D01*
X19816513Y8873433D01*
X19816507Y8873430D01*
X19602422Y8773601D01*
X19602420Y8773600D01*
X19408926Y8638114D01*
X19408920Y8638109D01*
X19241891Y8471080D01*
X19241886Y8471074D01*
X19106400Y8277580D01*
X19106399Y8277578D01*
X19006570Y8063493D01*
X19006567Y8063487D01*
X18949364Y7850001D01*
X15831721Y7850001D01*
X15835165Y7857543D01*
X15855647Y8000000D01*
X15835165Y8142457D01*
X15775377Y8273373D01*
X15681128Y8382143D01*
X15560053Y8459953D01*
X15560051Y8459954D01*
X15560049Y8459955D01*
X15560050Y8459955D01*
X15421963Y8500500D01*
X15421961Y8500500D01*
X15278039Y8500500D01*
X15278036Y8500500D01*
X15139949Y8459955D01*
X15018873Y8382144D01*
X14924623Y8273374D01*
X14924622Y8273372D01*
X14864834Y8142457D01*
X14844353Y8000000D01*
X300500Y8000000D01*
X300500Y10250000D01*
X1330138Y10250000D01*
X2133012Y10250000D01*
X2115795Y10240060D01*
X2059940Y10184205D01*
X2020444Y10115796D01*
X2000000Y10039496D01*
X2000000Y9960504D01*
X2020444Y9884204D01*
X2059940Y9815795D01*
X2115795Y9759940D01*
X2133012Y9750000D01*
X1330138Y9750000D01*
X1338430Y9708310D01*
X1338430Y9708308D01*
X1413807Y9526329D01*
X1413814Y9526316D01*
X1523248Y9362538D01*
X1523251Y9362534D01*
X1662533Y9223252D01*
X1662537Y9223249D01*
X1826315Y9113815D01*
X1826328Y9113808D01*
X2008306Y9038431D01*
X2008318Y9038428D01*
X2201504Y9000001D01*
X2201508Y9000000D01*
X2350000Y9000000D01*
X2350000Y9700000D01*
X2850000Y9700000D01*
X2850000Y9000000D01*
X2998492Y9000000D01*
X2998495Y9000001D01*
X3191681Y9038428D01*
X3191693Y9038431D01*
X3373671Y9113808D01*
X3373684Y9113815D01*
X3537462Y9223249D01*
X3537466Y9223252D01*
X3676748Y9362534D01*
X3676751Y9362538D01*
X3786185Y9526316D01*
X3786192Y9526329D01*
X3861569Y9708308D01*
X3861569Y9708310D01*
X3869862Y9750000D01*
X3066988Y9750000D01*
X3084205Y9759940D01*
X3140060Y9815795D01*
X3179556Y9884204D01*
X3200000Y9960504D01*
X3200000Y10039496D01*
X3179556Y10115796D01*
X3140060Y10184205D01*
X3084205Y10240060D01*
X3066988Y10250000D01*
X3869862Y10250000D01*
X5260138Y10250000D01*
X6063012Y10250000D01*
X6045795Y10240060D01*
X5989940Y10184205D01*
X5950444Y10115796D01*
X5930000Y10039496D01*
X5930000Y9960504D01*
X5950444Y9884204D01*
X5989940Y9815795D01*
X6045795Y9759940D01*
X6063012Y9750000D01*
X5260138Y9750000D01*
X5268430Y9708310D01*
X5268430Y9708308D01*
X5343807Y9526329D01*
X5343814Y9526316D01*
X5453248Y9362538D01*
X5453251Y9362534D01*
X5592533Y9223252D01*
X5592537Y9223249D01*
X5756315Y9113815D01*
X5756328Y9113808D01*
X5938306Y9038431D01*
X5938318Y9038428D01*
X6131504Y9000001D01*
X6131508Y9000000D01*
X6530000Y9000000D01*
X6530000Y9700000D01*
X7030000Y9700000D01*
X7030000Y9000000D01*
X7428492Y9000000D01*
X7428495Y9000001D01*
X7621681Y9038428D01*
X7621693Y9038431D01*
X7803671Y9113808D01*
X7803684Y9113815D01*
X7967462Y9223249D01*
X7967466Y9223252D01*
X8106748Y9362534D01*
X8106751Y9362538D01*
X8131783Y9400000D01*
X70294353Y9400000D01*
X70314834Y9257544D01*
X70374622Y9126629D01*
X70374623Y9126627D01*
X70468872Y9017857D01*
X70589947Y8940047D01*
X70589950Y8940046D01*
X70589949Y8940046D01*
X70697107Y8908583D01*
X70724633Y8900500D01*
X70728036Y8899501D01*
X70728038Y8899500D01*
X70728039Y8899500D01*
X70871962Y8899500D01*
X70871962Y8899501D01*
X71010053Y8940047D01*
X71131128Y9017857D01*
X71225377Y9126627D01*
X71285165Y9257543D01*
X71305647Y9400000D01*
X71285165Y9542457D01*
X71225377Y9673373D01*
X71131128Y9782143D01*
X71010053Y9859953D01*
X71010051Y9859954D01*
X71010049Y9859955D01*
X71010050Y9859955D01*
X70871963Y9900500D01*
X70871961Y9900500D01*
X70728039Y9900500D01*
X70728036Y9900500D01*
X70589949Y9859955D01*
X70468873Y9782144D01*
X70374623Y9673374D01*
X70374622Y9673372D01*
X70314834Y9542457D01*
X70294353Y9400000D01*
X8131783Y9400000D01*
X8216185Y9526316D01*
X8216192Y9526329D01*
X8291569Y9708308D01*
X8291569Y9708310D01*
X8299862Y9750000D01*
X7496988Y9750000D01*
X7514205Y9759940D01*
X7570060Y9815795D01*
X7609556Y9884204D01*
X7630000Y9960504D01*
X7630000Y10039496D01*
X7609556Y10115796D01*
X7570060Y10184205D01*
X7514205Y10240060D01*
X7496988Y10250000D01*
X8299862Y10250000D01*
X8291569Y10291691D01*
X8291569Y10291693D01*
X8288128Y10300000D01*
X63894353Y10300000D01*
X63914834Y10157544D01*
X63968746Y10039496D01*
X63974623Y10026627D01*
X64068872Y9917857D01*
X64189947Y9840047D01*
X64189950Y9840046D01*
X64189949Y9840046D01*
X64328036Y9799501D01*
X64328038Y9799500D01*
X64328039Y9799500D01*
X64471962Y9799500D01*
X64471962Y9799501D01*
X64610053Y9840047D01*
X64731128Y9917857D01*
X64825377Y10026627D01*
X64885165Y10157543D01*
X64905647Y10300000D01*
X64885165Y10442457D01*
X64881720Y10450000D01*
X66244353Y10450000D01*
X66264834Y10307544D01*
X66321162Y10184205D01*
X66324623Y10176627D01*
X66418872Y10067857D01*
X66539947Y9990047D01*
X66539950Y9990046D01*
X66539949Y9990046D01*
X66678036Y9949501D01*
X66678038Y9949500D01*
X66678039Y9949500D01*
X66821962Y9949500D01*
X66821962Y9949501D01*
X66960053Y9990047D01*
X67081128Y10067857D01*
X67175377Y10176627D01*
X67235165Y10307543D01*
X67255647Y10450000D01*
X67235165Y10592457D01*
X67175377Y10723373D01*
X67081128Y10832143D01*
X66960053Y10909953D01*
X66960051Y10909954D01*
X66960049Y10909955D01*
X66960050Y10909955D01*
X66821963Y10950500D01*
X66821961Y10950500D01*
X66678039Y10950500D01*
X66678036Y10950500D01*
X66539949Y10909955D01*
X66418873Y10832144D01*
X66324623Y10723374D01*
X66324622Y10723372D01*
X66264834Y10592457D01*
X66244353Y10450000D01*
X64881720Y10450000D01*
X64825377Y10573373D01*
X64731128Y10682143D01*
X64610053Y10759953D01*
X64610051Y10759954D01*
X64610049Y10759955D01*
X64610050Y10759955D01*
X64471963Y10800500D01*
X64471961Y10800500D01*
X64328039Y10800500D01*
X64328036Y10800500D01*
X64189949Y10759955D01*
X64068873Y10682144D01*
X63974623Y10573374D01*
X63974622Y10573372D01*
X63914834Y10442457D01*
X63894353Y10300000D01*
X8288128Y10300000D01*
X8216192Y10473672D01*
X8216185Y10473685D01*
X8106751Y10637463D01*
X8106748Y10637467D01*
X7967466Y10776749D01*
X7967462Y10776752D01*
X7803684Y10886186D01*
X7803671Y10886193D01*
X7621693Y10961570D01*
X7621681Y10961573D01*
X7428495Y11000000D01*
X6881045Y11000000D01*
X6814006Y11019685D01*
X6768251Y11072489D01*
X6758307Y11141647D01*
X6773658Y11186000D01*
X6786279Y11207862D01*
X6786281Y11207865D01*
X6810968Y11300000D01*
X9294353Y11300000D01*
X9314834Y11157544D01*
X9355716Y11068026D01*
X9374623Y11026627D01*
X9468872Y10917857D01*
X9589947Y10840047D01*
X9589950Y10840046D01*
X9589949Y10840046D01*
X9697107Y10808583D01*
X9724633Y10800500D01*
X9728036Y10799501D01*
X9728038Y10799500D01*
X9728039Y10799500D01*
X9871962Y10799500D01*
X9871962Y10799501D01*
X10010053Y10840047D01*
X10131128Y10917857D01*
X10225377Y11026627D01*
X10285165Y11157543D01*
X10305647Y11300000D01*
X10285165Y11442457D01*
X10225377Y11573373D01*
X10131128Y11682143D01*
X10010053Y11759953D01*
X10010051Y11759954D01*
X10010049Y11759955D01*
X10010050Y11759955D01*
X9871963Y11800500D01*
X9871961Y11800500D01*
X9728039Y11800500D01*
X9728036Y11800500D01*
X9589949Y11759955D01*
X9468873Y11682144D01*
X9374623Y11573374D01*
X9374622Y11573372D01*
X9314834Y11442457D01*
X9294353Y11300000D01*
X6810968Y11300000D01*
X6825500Y11354234D01*
X6825500Y11505766D01*
X6786281Y11652135D01*
X6710515Y11783365D01*
X6603365Y11890515D01*
X6537750Y11928398D01*
X6472136Y11966281D01*
X6398950Y11985891D01*
X6325766Y12005500D01*
X6174234Y12005500D01*
X6027863Y11966281D01*
X5896635Y11890515D01*
X5896632Y11890513D01*
X5789487Y11783368D01*
X5789485Y11783365D01*
X5713719Y11652137D01*
X5674500Y11505766D01*
X5674500Y11354235D01*
X5713719Y11207864D01*
X5751602Y11142250D01*
X5789485Y11076635D01*
X5789488Y11076632D01*
X5794432Y11070189D01*
X5791612Y11068026D01*
X5817302Y11020980D01*
X5812318Y10951288D01*
X5770446Y10895355D01*
X5761379Y10889584D01*
X5761387Y10889573D01*
X5592536Y10776752D01*
X5453251Y10637467D01*
X5453248Y10637463D01*
X5343814Y10473685D01*
X5343807Y10473672D01*
X5268430Y10291693D01*
X5268430Y10291691D01*
X5260138Y10250000D01*
X3869862Y10250000D01*
X3861569Y10291691D01*
X3861569Y10291693D01*
X3786192Y10473672D01*
X3786185Y10473685D01*
X3676751Y10637463D01*
X3676748Y10637467D01*
X3537466Y10776749D01*
X3537462Y10776752D01*
X3373684Y10886186D01*
X3373671Y10886193D01*
X3191693Y10961570D01*
X3191681Y10961573D01*
X2998495Y11000000D01*
X2850000Y11000000D01*
X2850000Y10300000D01*
X2350000Y10300000D01*
X2350000Y11000000D01*
X2201504Y11000000D01*
X2008318Y10961573D01*
X2008306Y10961570D01*
X1826328Y10886193D01*
X1826315Y10886186D01*
X1662537Y10776752D01*
X1662533Y10776749D01*
X1523251Y10637467D01*
X1523248Y10637463D01*
X1413814Y10473685D01*
X1413807Y10473672D01*
X1338430Y10291693D01*
X1338430Y10291691D01*
X1330138Y10250000D01*
X300500Y10250000D01*
X300500Y13000000D01*
X33294353Y13000000D01*
X33314834Y12857544D01*
X33360504Y12757543D01*
X33374623Y12726627D01*
X33468872Y12617857D01*
X33589947Y12540047D01*
X33589950Y12540046D01*
X33589949Y12540046D01*
X33728036Y12499501D01*
X33728038Y12499500D01*
X33728039Y12499500D01*
X33871962Y12499500D01*
X33871962Y12499501D01*
X34010053Y12540047D01*
X34131128Y12617857D01*
X34225377Y12726627D01*
X34285165Y12857543D01*
X34305647Y13000000D01*
X47894353Y13000000D01*
X47914834Y12857544D01*
X47960504Y12757543D01*
X47974623Y12726627D01*
X48068872Y12617857D01*
X48189947Y12540047D01*
X48189950Y12540046D01*
X48189949Y12540046D01*
X48328036Y12499501D01*
X48328038Y12499500D01*
X48328039Y12499500D01*
X48471962Y12499500D01*
X48471962Y12499501D01*
X48610053Y12540047D01*
X48731128Y12617857D01*
X48825377Y12726627D01*
X48885165Y12857543D01*
X48891269Y12900000D01*
X57094353Y12900000D01*
X57114834Y12757544D01*
X57174622Y12626629D01*
X57174623Y12626627D01*
X57268872Y12517857D01*
X57389947Y12440047D01*
X57389950Y12440046D01*
X57389949Y12440046D01*
X57528036Y12399501D01*
X57528038Y12399500D01*
X57528039Y12399500D01*
X57671962Y12399500D01*
X57671962Y12399501D01*
X57810053Y12440047D01*
X57931128Y12517857D01*
X58025377Y12626627D01*
X58085165Y12757543D01*
X58105647Y12900000D01*
X58085165Y13042457D01*
X58025377Y13173373D01*
X58002305Y13200000D01*
X93394353Y13200000D01*
X93414834Y13057544D01*
X93441114Y13000000D01*
X93474623Y12926627D01*
X93568872Y12817857D01*
X93689947Y12740047D01*
X93689950Y12740046D01*
X93689949Y12740046D01*
X93828036Y12699501D01*
X93828038Y12699500D01*
X93828039Y12699500D01*
X93971962Y12699500D01*
X93971962Y12699501D01*
X94110053Y12740047D01*
X94231128Y12817857D01*
X94325377Y12926627D01*
X94385165Y13057543D01*
X94405647Y13200000D01*
X94385165Y13342457D01*
X94325377Y13473373D01*
X94231128Y13582143D01*
X94110053Y13659953D01*
X94110051Y13659954D01*
X94110049Y13659955D01*
X94110050Y13659955D01*
X93971963Y13700500D01*
X93971961Y13700500D01*
X93828039Y13700500D01*
X93828036Y13700500D01*
X93689949Y13659955D01*
X93568873Y13582144D01*
X93474623Y13473374D01*
X93474622Y13473372D01*
X93414834Y13342457D01*
X93394353Y13200000D01*
X58002305Y13200000D01*
X57931128Y13282143D01*
X57810053Y13359953D01*
X57810051Y13359954D01*
X57810049Y13359955D01*
X57810050Y13359955D01*
X57671963Y13400500D01*
X57671961Y13400500D01*
X57528039Y13400500D01*
X57528036Y13400500D01*
X57389949Y13359955D01*
X57268873Y13282144D01*
X57174623Y13173374D01*
X57174622Y13173372D01*
X57114834Y13042457D01*
X57094353Y12900000D01*
X48891269Y12900000D01*
X48905647Y13000000D01*
X48885165Y13142457D01*
X48825377Y13273373D01*
X48731128Y13382143D01*
X48610053Y13459953D01*
X48610051Y13459954D01*
X48610049Y13459955D01*
X48610050Y13459955D01*
X48471963Y13500500D01*
X48471961Y13500500D01*
X48328039Y13500500D01*
X48328036Y13500500D01*
X48189949Y13459955D01*
X48068873Y13382144D01*
X47974623Y13273374D01*
X47974622Y13273372D01*
X47914834Y13142457D01*
X47894353Y13000000D01*
X34305647Y13000000D01*
X34285165Y13142457D01*
X34225377Y13273373D01*
X34131128Y13382143D01*
X34010053Y13459953D01*
X34010051Y13459954D01*
X34010049Y13459955D01*
X34010050Y13459955D01*
X33871963Y13500500D01*
X33871961Y13500500D01*
X33728039Y13500500D01*
X33728036Y13500500D01*
X33589949Y13459955D01*
X33468873Y13382144D01*
X33374623Y13273374D01*
X33374622Y13273372D01*
X33314834Y13142457D01*
X33294353Y13000000D01*
X300500Y13000000D01*
X300500Y14400000D01*
X9894353Y14400000D01*
X9914834Y14257544D01*
X9960504Y14157543D01*
X9974623Y14126627D01*
X10068872Y14017857D01*
X10189947Y13940047D01*
X10189950Y13940046D01*
X10189949Y13940046D01*
X10328036Y13899501D01*
X10328038Y13899500D01*
X10328039Y13899500D01*
X10471962Y13899500D01*
X10471962Y13899501D01*
X10610053Y13940047D01*
X10731128Y14017857D01*
X10825377Y14126627D01*
X10885165Y14257543D01*
X10891269Y14300000D01*
X50094353Y14300000D01*
X50114834Y14157544D01*
X50128953Y14126629D01*
X50174623Y14026627D01*
X50268872Y13917857D01*
X50389947Y13840047D01*
X50389950Y13840046D01*
X50389949Y13840046D01*
X50528036Y13799501D01*
X50528038Y13799500D01*
X50528039Y13799500D01*
X50671962Y13799500D01*
X50671962Y13799501D01*
X50810053Y13840047D01*
X50931128Y13917857D01*
X51025377Y14026627D01*
X51085165Y14157543D01*
X51105647Y14300000D01*
X66394353Y14300000D01*
X66414834Y14157544D01*
X66428953Y14126629D01*
X66474623Y14026627D01*
X66568872Y13917857D01*
X66689947Y13840047D01*
X66689950Y13840046D01*
X66689949Y13840046D01*
X66828036Y13799501D01*
X66828038Y13799500D01*
X66828039Y13799500D01*
X66971962Y13799500D01*
X66971962Y13799501D01*
X67110053Y13840047D01*
X67231128Y13917857D01*
X67325377Y14026627D01*
X67385165Y14157543D01*
X67405647Y14300000D01*
X67385165Y14442457D01*
X67325377Y14573373D01*
X67231128Y14682143D01*
X67110053Y14759953D01*
X67110051Y14759954D01*
X67110049Y14759955D01*
X67110050Y14759955D01*
X66971963Y14800500D01*
X66971961Y14800500D01*
X66828039Y14800500D01*
X66828036Y14800500D01*
X66689949Y14759955D01*
X66568873Y14682144D01*
X66474623Y14573374D01*
X66474622Y14573372D01*
X66414834Y14442457D01*
X66394353Y14300000D01*
X51105647Y14300000D01*
X51085165Y14442457D01*
X51025377Y14573373D01*
X50931128Y14682143D01*
X50810053Y14759953D01*
X50810051Y14759954D01*
X50810049Y14759955D01*
X50810050Y14759955D01*
X50671963Y14800500D01*
X50671961Y14800500D01*
X50528039Y14800500D01*
X50528036Y14800500D01*
X50389949Y14759955D01*
X50268873Y14682144D01*
X50174623Y14573374D01*
X50174622Y14573372D01*
X50114834Y14442457D01*
X50094353Y14300000D01*
X10891269Y14300000D01*
X10905647Y14400000D01*
X10885165Y14542457D01*
X10825377Y14673373D01*
X10731128Y14782143D01*
X10610053Y14859953D01*
X10610051Y14859954D01*
X10610049Y14859955D01*
X10610050Y14859955D01*
X10471963Y14900500D01*
X10471961Y14900500D01*
X10328039Y14900500D01*
X10328036Y14900500D01*
X10189949Y14859955D01*
X10068873Y14782144D01*
X9974623Y14673374D01*
X9974622Y14673372D01*
X9914834Y14542457D01*
X9894353Y14400000D01*
X300500Y14400000D01*
X300500Y14950000D01*
X85394353Y14950000D01*
X85414834Y14807544D01*
X85472103Y14682144D01*
X85474623Y14676627D01*
X85568872Y14567857D01*
X85689947Y14490047D01*
X85689950Y14490046D01*
X85689949Y14490046D01*
X85828036Y14449501D01*
X85828038Y14449500D01*
X85828039Y14449500D01*
X85971962Y14449500D01*
X85971962Y14449501D01*
X86110053Y14490047D01*
X86231128Y14567857D01*
X86325377Y14676627D01*
X86385165Y14807543D01*
X86405647Y14950000D01*
X86398458Y15000000D01*
X87694353Y15000000D01*
X87714834Y14857544D01*
X87737669Y14807544D01*
X87774623Y14726627D01*
X87868872Y14617857D01*
X87989947Y14540047D01*
X87989950Y14540046D01*
X87989949Y14540046D01*
X88128036Y14499501D01*
X88128038Y14499500D01*
X88128039Y14499500D01*
X88271962Y14499500D01*
X88271962Y14499501D01*
X88410053Y14540047D01*
X88531128Y14617857D01*
X88625377Y14726627D01*
X88685165Y14857543D01*
X88705647Y15000000D01*
X88685165Y15142457D01*
X88625377Y15273373D01*
X88531128Y15382143D01*
X88410053Y15459953D01*
X88410051Y15459954D01*
X88410049Y15459955D01*
X88410050Y15459955D01*
X88271963Y15500500D01*
X88271961Y15500500D01*
X88128039Y15500500D01*
X88128036Y15500500D01*
X87989949Y15459955D01*
X87868873Y15382144D01*
X87774623Y15273374D01*
X87774622Y15273372D01*
X87714834Y15142457D01*
X87694353Y15000000D01*
X86398458Y15000000D01*
X86385165Y15092457D01*
X86325377Y15223373D01*
X86231128Y15332143D01*
X86110053Y15409953D01*
X86110051Y15409954D01*
X86110049Y15409955D01*
X86110050Y15409955D01*
X85971963Y15450500D01*
X85971961Y15450500D01*
X85828039Y15450500D01*
X85828036Y15450500D01*
X85689949Y15409955D01*
X85568873Y15332144D01*
X85474623Y15223374D01*
X85474622Y15223372D01*
X85414834Y15092457D01*
X85394353Y14950000D01*
X300500Y14950000D01*
X300500Y15800000D01*
X71894353Y15800000D01*
X71914834Y15657544D01*
X71974622Y15526629D01*
X71974623Y15526627D01*
X72068872Y15417857D01*
X72189947Y15340047D01*
X72189950Y15340046D01*
X72189949Y15340046D01*
X72328036Y15299501D01*
X72328038Y15299500D01*
X72328039Y15299500D01*
X72471962Y15299500D01*
X72471962Y15299501D01*
X72610053Y15340047D01*
X72731128Y15417857D01*
X72825377Y15526627D01*
X72885165Y15657543D01*
X72905647Y15800000D01*
X72885165Y15942457D01*
X72825377Y16073373D01*
X72731128Y16182143D01*
X72610053Y16259953D01*
X72610051Y16259954D01*
X72610049Y16259955D01*
X72610050Y16259955D01*
X72471963Y16300500D01*
X72471961Y16300500D01*
X72328039Y16300500D01*
X72328036Y16300500D01*
X72189949Y16259955D01*
X72068873Y16182144D01*
X71974623Y16073374D01*
X71974622Y16073372D01*
X71914834Y15942457D01*
X71894353Y15800000D01*
X300500Y15800000D01*
X300500Y18890000D01*
X1330138Y18890000D01*
X2133012Y18890000D01*
X2115795Y18880060D01*
X2059940Y18824205D01*
X2020444Y18755796D01*
X2000000Y18679496D01*
X2000000Y18600504D01*
X2020444Y18524204D01*
X2059940Y18455795D01*
X2115795Y18399940D01*
X2133012Y18390000D01*
X1330138Y18390000D01*
X1338430Y18348310D01*
X1338430Y18348308D01*
X1413807Y18166329D01*
X1413814Y18166316D01*
X1523248Y18002538D01*
X1523251Y18002534D01*
X1662533Y17863252D01*
X1662537Y17863249D01*
X1826315Y17753815D01*
X1826328Y17753808D01*
X2008306Y17678431D01*
X2008318Y17678428D01*
X2201504Y17640001D01*
X2201508Y17640000D01*
X2350000Y17640000D01*
X2350000Y18340000D01*
X2850000Y18340000D01*
X2850000Y17640000D01*
X2998492Y17640000D01*
X2998495Y17640001D01*
X3191681Y17678428D01*
X3191693Y17678431D01*
X3373671Y17753808D01*
X3373684Y17753815D01*
X3537462Y17863249D01*
X3537466Y17863252D01*
X3676748Y18002534D01*
X3676751Y18002538D01*
X3786185Y18166316D01*
X3786192Y18166329D01*
X3861569Y18348308D01*
X3861569Y18348310D01*
X3869862Y18390000D01*
X3066988Y18390000D01*
X3084205Y18399940D01*
X3140060Y18455795D01*
X3179556Y18524204D01*
X3200000Y18600504D01*
X3200000Y18679496D01*
X3179556Y18755796D01*
X3140060Y18824205D01*
X3084205Y18880060D01*
X3066988Y18890000D01*
X3869862Y18890000D01*
X5260138Y18890000D01*
X6063012Y18890000D01*
X6045795Y18880060D01*
X5989940Y18824205D01*
X5950444Y18755796D01*
X5930000Y18679496D01*
X5930000Y18600504D01*
X5950444Y18524204D01*
X5989940Y18455795D01*
X6045795Y18399940D01*
X6063012Y18390000D01*
X5260138Y18390000D01*
X5268430Y18348310D01*
X5268430Y18348308D01*
X5343807Y18166329D01*
X5343814Y18166316D01*
X5453248Y18002538D01*
X5453251Y18002534D01*
X5592533Y17863252D01*
X5592537Y17863249D01*
X5761387Y17750426D01*
X5760430Y17748995D01*
X5804425Y17705789D01*
X5819895Y17637654D01*
X5796072Y17571971D01*
X5794309Y17569906D01*
X5794432Y17569811D01*
X5789485Y17563365D01*
X5713719Y17432137D01*
X5678314Y17300000D01*
X5674500Y17285766D01*
X5674500Y17134234D01*
X5686340Y17090047D01*
X5713719Y16987864D01*
X5741327Y16940047D01*
X5789485Y16856635D01*
X5896635Y16749485D01*
X6027865Y16673719D01*
X6174234Y16634500D01*
X6174236Y16634500D01*
X6325764Y16634500D01*
X6325766Y16634500D01*
X6472135Y16673719D01*
X6603365Y16749485D01*
X6710515Y16856635D01*
X6786281Y16987865D01*
X6825500Y17134234D01*
X6825500Y17285766D01*
X6821686Y17300000D01*
X21094353Y17300000D01*
X21114834Y17157544D01*
X21145660Y17090046D01*
X21174623Y17026627D01*
X21268872Y16917857D01*
X21389947Y16840047D01*
X21389950Y16840046D01*
X21389949Y16840046D01*
X21497107Y16808583D01*
X21526336Y16800000D01*
X21528036Y16799501D01*
X21528038Y16799500D01*
X21528039Y16799500D01*
X21671962Y16799500D01*
X21671962Y16799501D01*
X21810053Y16840047D01*
X21931128Y16917857D01*
X22025377Y17026627D01*
X22085165Y17157543D01*
X22105647Y17300000D01*
X22091269Y17400000D01*
X23594353Y17400000D01*
X23614834Y17257544D01*
X23671149Y17134234D01*
X23674623Y17126627D01*
X23768872Y17017857D01*
X23889947Y16940047D01*
X23889950Y16940046D01*
X23889949Y16940046D01*
X23965520Y16917857D01*
X24026673Y16899901D01*
X24028036Y16899501D01*
X24028038Y16899500D01*
X24028039Y16899500D01*
X24171962Y16899500D01*
X24171962Y16899501D01*
X24310053Y16940047D01*
X24431128Y17017857D01*
X24525377Y17126627D01*
X24585165Y17257543D01*
X24605647Y17400000D01*
X26094353Y17400000D01*
X26114834Y17257544D01*
X26171149Y17134234D01*
X26174623Y17126627D01*
X26268872Y17017857D01*
X26389947Y16940047D01*
X26389950Y16940046D01*
X26389949Y16940046D01*
X26465520Y16917857D01*
X26526673Y16899901D01*
X26528036Y16899501D01*
X26528038Y16899500D01*
X26528039Y16899500D01*
X26671962Y16899500D01*
X26671962Y16899501D01*
X26810053Y16940047D01*
X26931128Y17017857D01*
X27025377Y17126627D01*
X27085165Y17257543D01*
X27105647Y17400000D01*
X36594353Y17400000D01*
X36614834Y17257544D01*
X36671149Y17134234D01*
X36674623Y17126627D01*
X36768872Y17017857D01*
X36889947Y16940047D01*
X36889950Y16940046D01*
X36889949Y16940046D01*
X36965520Y16917857D01*
X37026673Y16899901D01*
X37028036Y16899501D01*
X37028038Y16899500D01*
X37028039Y16899500D01*
X37171962Y16899500D01*
X37171962Y16899501D01*
X37310053Y16940047D01*
X37403342Y17000000D01*
X42094353Y17000000D01*
X42114834Y16857544D01*
X42164184Y16749485D01*
X42174623Y16726627D01*
X42268872Y16617857D01*
X42389947Y16540047D01*
X42389950Y16540046D01*
X42389949Y16540046D01*
X42528036Y16499501D01*
X42528038Y16499500D01*
X42528039Y16499500D01*
X42671962Y16499500D01*
X42671962Y16499501D01*
X42810053Y16540047D01*
X42931128Y16617857D01*
X43025377Y16726627D01*
X43085165Y16857543D01*
X43105647Y17000000D01*
X43085165Y17142457D01*
X43025377Y17273373D01*
X42931128Y17382143D01*
X42928593Y17383772D01*
X44309500Y17383772D01*
X44309500Y17216229D01*
X44342182Y17051926D01*
X44342184Y17051918D01*
X44406295Y16897140D01*
X44499373Y16757838D01*
X44617837Y16639374D01*
X44625132Y16634500D01*
X44757137Y16546297D01*
X44757138Y16546297D01*
X44757139Y16546296D01*
X44772228Y16540046D01*
X44911918Y16482184D01*
X45076228Y16449501D01*
X45076232Y16449500D01*
X45076233Y16449500D01*
X45243768Y16449500D01*
X45243769Y16449501D01*
X45408082Y16482184D01*
X45562863Y16546297D01*
X45702162Y16639374D01*
X45820626Y16757838D01*
X45913703Y16897137D01*
X45977816Y17051918D01*
X46010500Y17216233D01*
X46010500Y17383767D01*
X46010499Y17383772D01*
X46849500Y17383772D01*
X46849500Y17216229D01*
X46882182Y17051926D01*
X46882184Y17051918D01*
X46946295Y16897140D01*
X47039373Y16757838D01*
X47157837Y16639374D01*
X47165132Y16634500D01*
X47297137Y16546297D01*
X47297138Y16546297D01*
X47297139Y16546296D01*
X47312228Y16540046D01*
X47451918Y16482184D01*
X47616228Y16449501D01*
X47616232Y16449500D01*
X47616233Y16449500D01*
X47783768Y16449500D01*
X47783769Y16449501D01*
X47948082Y16482184D01*
X48102863Y16546297D01*
X48242162Y16639374D01*
X48360626Y16757838D01*
X48453703Y16897137D01*
X48517816Y17051918D01*
X48550500Y17216233D01*
X48550500Y17383767D01*
X48517816Y17548082D01*
X48517021Y17550001D01*
X48909364Y17550001D01*
X48909364Y17550000D01*
X49806988Y17550000D01*
X49774075Y17492993D01*
X49740000Y17365826D01*
X49740000Y17234174D01*
X49774075Y17107007D01*
X49806988Y17050000D01*
X48909364Y17050000D01*
X48966567Y16836514D01*
X48966570Y16836508D01*
X49066399Y16622422D01*
X49201894Y16428918D01*
X49368917Y16261895D01*
X49562421Y16126400D01*
X49776507Y16026571D01*
X49776516Y16026567D01*
X49990000Y15969366D01*
X49990000Y16866988D01*
X50047007Y16834075D01*
X50174174Y16800000D01*
X50305826Y16800000D01*
X50432993Y16834075D01*
X50490000Y16866988D01*
X50490000Y15969367D01*
X50703483Y16026567D01*
X50703492Y16026571D01*
X50917578Y16126400D01*
X51111082Y16261895D01*
X51278105Y16428918D01*
X51413600Y16622422D01*
X51513429Y16836508D01*
X51513432Y16836514D01*
X51557238Y17000000D01*
X91594353Y17000000D01*
X91614834Y16857544D01*
X91664184Y16749485D01*
X91674623Y16726627D01*
X91768872Y16617857D01*
X91889947Y16540047D01*
X91889950Y16540046D01*
X91889949Y16540046D01*
X92028036Y16499501D01*
X92028038Y16499500D01*
X92028039Y16499500D01*
X92171962Y16499500D01*
X92171962Y16499501D01*
X92310053Y16540047D01*
X92431128Y16617857D01*
X92525377Y16726627D01*
X92585165Y16857543D01*
X92605647Y17000000D01*
X92585165Y17142457D01*
X92525377Y17273373D01*
X92431128Y17382143D01*
X92310053Y17459953D01*
X92310051Y17459954D01*
X92310049Y17459955D01*
X92310050Y17459955D01*
X92171963Y17500500D01*
X92171961Y17500500D01*
X92028039Y17500500D01*
X92028036Y17500500D01*
X91889949Y17459955D01*
X91768873Y17382144D01*
X91674623Y17273374D01*
X91674622Y17273372D01*
X91614834Y17142457D01*
X91594353Y17000000D01*
X51557238Y17000000D01*
X51570636Y17050000D01*
X50673012Y17050000D01*
X50705925Y17107007D01*
X50740000Y17234174D01*
X50740000Y17365826D01*
X50705925Y17492993D01*
X50673012Y17550000D01*
X51570636Y17550000D01*
X51570635Y17550001D01*
X51513432Y17763487D01*
X51513429Y17763493D01*
X51426460Y17950000D01*
X81244353Y17950000D01*
X81264834Y17807544D01*
X81324622Y17676629D01*
X81324623Y17676627D01*
X81418872Y17567857D01*
X81539947Y17490047D01*
X81539950Y17490046D01*
X81539949Y17490046D01*
X81678036Y17449501D01*
X81678038Y17449500D01*
X81678039Y17449500D01*
X81821962Y17449500D01*
X81821962Y17449501D01*
X81960053Y17490047D01*
X82053342Y17550000D01*
X83944353Y17550000D01*
X83964834Y17407544D01*
X84013949Y17300000D01*
X84024623Y17276627D01*
X84118872Y17167857D01*
X84239947Y17090047D01*
X84239950Y17090046D01*
X84239949Y17090046D01*
X84347107Y17058583D01*
X84376336Y17050000D01*
X84378036Y17049501D01*
X84378038Y17049500D01*
X84378039Y17049500D01*
X84521962Y17049500D01*
X84521962Y17049501D01*
X84660053Y17090047D01*
X84781128Y17167857D01*
X84875377Y17276627D01*
X84935165Y17407543D01*
X84955647Y17550000D01*
X84935165Y17692457D01*
X84875377Y17823373D01*
X84781128Y17932143D01*
X84660053Y18009953D01*
X84660051Y18009954D01*
X84660049Y18009955D01*
X84660050Y18009955D01*
X84521963Y18050500D01*
X84521961Y18050500D01*
X84378039Y18050500D01*
X84378036Y18050500D01*
X84239949Y18009955D01*
X84118873Y17932144D01*
X84024623Y17823374D01*
X84024622Y17823372D01*
X83964834Y17692457D01*
X83944353Y17550000D01*
X82053342Y17550000D01*
X82081128Y17567857D01*
X82175377Y17676627D01*
X82235165Y17807543D01*
X82255647Y17950000D01*
X82235165Y18092457D01*
X82175377Y18223373D01*
X82081128Y18332143D01*
X81960053Y18409953D01*
X81960051Y18409954D01*
X81960049Y18409955D01*
X81960050Y18409955D01*
X81821963Y18450500D01*
X81821961Y18450500D01*
X81678039Y18450500D01*
X81678036Y18450500D01*
X81539949Y18409955D01*
X81418873Y18332144D01*
X81324623Y18223374D01*
X81324622Y18223372D01*
X81264834Y18092457D01*
X81244353Y17950000D01*
X51426460Y17950000D01*
X51413600Y17977578D01*
X51413599Y17977580D01*
X51278113Y18171074D01*
X51278108Y18171080D01*
X51111082Y18338106D01*
X50917578Y18473601D01*
X50703492Y18573430D01*
X50703486Y18573433D01*
X50490000Y18630636D01*
X50490000Y17733012D01*
X50432993Y17765925D01*
X50305826Y17800000D01*
X50174174Y17800000D01*
X50047007Y17765925D01*
X49990000Y17733012D01*
X49990000Y18630636D01*
X49989999Y18630636D01*
X49776513Y18573433D01*
X49776507Y18573430D01*
X49562422Y18473601D01*
X49562420Y18473600D01*
X49368926Y18338114D01*
X49368920Y18338109D01*
X49201891Y18171080D01*
X49201886Y18171074D01*
X49066400Y17977580D01*
X49066399Y17977578D01*
X48966570Y17763493D01*
X48966567Y17763487D01*
X48909364Y17550001D01*
X48517021Y17550001D01*
X48453703Y17702863D01*
X48421922Y17750426D01*
X48360626Y17842163D01*
X48242162Y17960627D01*
X48102860Y18053705D01*
X47948082Y18117816D01*
X47948074Y18117818D01*
X47783771Y18150500D01*
X47783767Y18150500D01*
X47616233Y18150500D01*
X47616228Y18150500D01*
X47451925Y18117818D01*
X47451917Y18117816D01*
X47297139Y18053705D01*
X47157837Y17960627D01*
X47039373Y17842163D01*
X46946295Y17702861D01*
X46882184Y17548083D01*
X46882182Y17548075D01*
X46849500Y17383772D01*
X46010499Y17383772D01*
X45977816Y17548082D01*
X45913703Y17702863D01*
X45881922Y17750426D01*
X45820626Y17842163D01*
X45702162Y17960627D01*
X45562860Y18053705D01*
X45408082Y18117816D01*
X45408074Y18117818D01*
X45243771Y18150500D01*
X45243767Y18150500D01*
X45076233Y18150500D01*
X45076228Y18150500D01*
X44911925Y18117818D01*
X44911917Y18117816D01*
X44757139Y18053705D01*
X44617837Y17960627D01*
X44499373Y17842163D01*
X44406295Y17702861D01*
X44342184Y17548083D01*
X44342182Y17548075D01*
X44309500Y17383772D01*
X42928593Y17383772D01*
X42810053Y17459953D01*
X42810051Y17459954D01*
X42810049Y17459955D01*
X42810050Y17459955D01*
X42671963Y17500500D01*
X42671961Y17500500D01*
X42528039Y17500500D01*
X42528036Y17500500D01*
X42389949Y17459955D01*
X42268873Y17382144D01*
X42174623Y17273374D01*
X42174622Y17273372D01*
X42114834Y17142457D01*
X42094353Y17000000D01*
X37403342Y17000000D01*
X37431128Y17017857D01*
X37525377Y17126627D01*
X37585165Y17257543D01*
X37605647Y17400000D01*
X37585165Y17542457D01*
X37525377Y17673373D01*
X37431128Y17782143D01*
X37310053Y17859953D01*
X37310051Y17859954D01*
X37310049Y17859955D01*
X37310050Y17859955D01*
X37171963Y17900500D01*
X37171961Y17900500D01*
X37028039Y17900500D01*
X37028036Y17900500D01*
X36889949Y17859955D01*
X36768873Y17782144D01*
X36674623Y17673374D01*
X36674622Y17673372D01*
X36614834Y17542457D01*
X36594353Y17400000D01*
X27105647Y17400000D01*
X27085165Y17542457D01*
X27025377Y17673373D01*
X26931128Y17782143D01*
X26810053Y17859953D01*
X26810051Y17859954D01*
X26810049Y17859955D01*
X26810050Y17859955D01*
X26671963Y17900500D01*
X26671961Y17900500D01*
X26528039Y17900500D01*
X26528036Y17900500D01*
X26389949Y17859955D01*
X26268873Y17782144D01*
X26174623Y17673374D01*
X26174622Y17673372D01*
X26114834Y17542457D01*
X26094353Y17400000D01*
X24605647Y17400000D01*
X24585165Y17542457D01*
X24525377Y17673373D01*
X24431128Y17782143D01*
X24310053Y17859953D01*
X24310051Y17859954D01*
X24310049Y17859955D01*
X24310050Y17859955D01*
X24171963Y17900500D01*
X24171961Y17900500D01*
X24028039Y17900500D01*
X24028036Y17900500D01*
X23889949Y17859955D01*
X23768873Y17782144D01*
X23674623Y17673374D01*
X23674622Y17673372D01*
X23614834Y17542457D01*
X23594353Y17400000D01*
X22091269Y17400000D01*
X22085165Y17442457D01*
X22025377Y17573373D01*
X21931128Y17682143D01*
X21810053Y17759953D01*
X21810051Y17759954D01*
X21810049Y17759955D01*
X21810050Y17759955D01*
X21671963Y17800500D01*
X21671961Y17800500D01*
X21528039Y17800500D01*
X21528036Y17800500D01*
X21389949Y17759955D01*
X21268873Y17682144D01*
X21174623Y17573374D01*
X21174622Y17573372D01*
X21114834Y17442457D01*
X21094353Y17300000D01*
X6821686Y17300000D01*
X6786281Y17432135D01*
X6780322Y17442457D01*
X6773658Y17454000D01*
X6757185Y17521901D01*
X6780038Y17587927D01*
X6834959Y17631118D01*
X6881045Y17640000D01*
X7428492Y17640000D01*
X7428495Y17640001D01*
X7621681Y17678428D01*
X7621693Y17678431D01*
X7803671Y17753808D01*
X7803684Y17753815D01*
X7967462Y17863249D01*
X7967466Y17863252D01*
X8004214Y17900000D01*
X9594353Y17900000D01*
X9614834Y17757544D01*
X9653275Y17673372D01*
X9674623Y17626627D01*
X9768872Y17517857D01*
X9889947Y17440047D01*
X9889950Y17440046D01*
X9889949Y17440046D01*
X9997107Y17408583D01*
X10026336Y17400000D01*
X10028036Y17399501D01*
X10028038Y17399500D01*
X10028039Y17399500D01*
X10171962Y17399500D01*
X10171962Y17399501D01*
X10310053Y17440047D01*
X10431128Y17517857D01*
X10525377Y17626627D01*
X10585165Y17757543D01*
X10605647Y17900000D01*
X10585165Y18042457D01*
X10525377Y18173373D01*
X10431128Y18282143D01*
X10310053Y18359953D01*
X10310051Y18359954D01*
X10310049Y18359955D01*
X10310050Y18359955D01*
X10171963Y18400500D01*
X10171961Y18400500D01*
X10028039Y18400500D01*
X10028036Y18400500D01*
X9889949Y18359955D01*
X9768873Y18282144D01*
X9674623Y18173374D01*
X9674622Y18173372D01*
X9614834Y18042457D01*
X9594353Y17900000D01*
X8004214Y17900000D01*
X8106748Y18002534D01*
X8106751Y18002538D01*
X8216185Y18166316D01*
X8216192Y18166329D01*
X8291569Y18348308D01*
X8291569Y18348310D01*
X8299862Y18390000D01*
X7496988Y18390000D01*
X7514205Y18399940D01*
X7570060Y18455795D01*
X7609556Y18524204D01*
X7630000Y18600504D01*
X7630000Y18679496D01*
X7609556Y18755796D01*
X7584035Y18800000D01*
X62494353Y18800000D01*
X62514834Y18657544D01*
X62574622Y18526629D01*
X62574623Y18526627D01*
X62668872Y18417857D01*
X62789947Y18340047D01*
X62789950Y18340046D01*
X62789949Y18340046D01*
X62928036Y18299501D01*
X62928038Y18299500D01*
X62928039Y18299500D01*
X63071962Y18299500D01*
X63071962Y18299501D01*
X63183138Y18332144D01*
X63210050Y18340046D01*
X63210050Y18340047D01*
X63210053Y18340047D01*
X63331128Y18417857D01*
X63425377Y18526627D01*
X63485165Y18657543D01*
X63505647Y18800000D01*
X63485165Y18942457D01*
X63425377Y19073373D01*
X63331128Y19182143D01*
X63210053Y19259953D01*
X63210051Y19259954D01*
X63210049Y19259955D01*
X63210050Y19259955D01*
X63071963Y19300500D01*
X63071961Y19300500D01*
X62928039Y19300500D01*
X62928036Y19300500D01*
X62789949Y19259955D01*
X62668873Y19182144D01*
X62574623Y19073374D01*
X62574622Y19073372D01*
X62514834Y18942457D01*
X62494353Y18800000D01*
X7584035Y18800000D01*
X7570060Y18824205D01*
X7514205Y18880060D01*
X7496988Y18890000D01*
X8299862Y18890000D01*
X8291569Y18931691D01*
X8291569Y18931693D01*
X8216192Y19113672D01*
X8216185Y19113685D01*
X8106751Y19277463D01*
X8106748Y19277467D01*
X8034215Y19350000D01*
X80494353Y19350000D01*
X80514834Y19207544D01*
X80557699Y19113685D01*
X80574623Y19076627D01*
X80668872Y18967857D01*
X80789947Y18890047D01*
X80789950Y18890046D01*
X80789949Y18890046D01*
X80928036Y18849501D01*
X80928038Y18849500D01*
X80928039Y18849500D01*
X81071962Y18849500D01*
X81071962Y18849501D01*
X81210053Y18890047D01*
X81331128Y18967857D01*
X81425377Y19076627D01*
X81485165Y19207543D01*
X81505647Y19350000D01*
X81498458Y19400000D01*
X82344353Y19400000D01*
X82364834Y19257544D01*
X82387669Y19207544D01*
X82424623Y19126627D01*
X82518872Y19017857D01*
X82639947Y18940047D01*
X82639950Y18940046D01*
X82639949Y18940046D01*
X82778036Y18899501D01*
X82778038Y18899500D01*
X82778039Y18899500D01*
X82921962Y18899500D01*
X82921962Y18899501D01*
X83060053Y18940047D01*
X83181128Y19017857D01*
X83275377Y19126627D01*
X83308886Y19200000D01*
X87744353Y19200000D01*
X87764834Y19057544D01*
X87818494Y18940047D01*
X87824623Y18926627D01*
X87918872Y18817857D01*
X88039947Y18740047D01*
X88039950Y18740046D01*
X88039949Y18740046D01*
X88178036Y18699501D01*
X88178038Y18699500D01*
X88178039Y18699500D01*
X88321962Y18699500D01*
X88321962Y18699501D01*
X88460053Y18740047D01*
X88581128Y18817857D01*
X88675377Y18926627D01*
X88735165Y19057543D01*
X88755647Y19200000D01*
X88735165Y19342457D01*
X88675377Y19473373D01*
X88581128Y19582143D01*
X88460053Y19659953D01*
X88460051Y19659954D01*
X88460049Y19659955D01*
X88460050Y19659955D01*
X88321963Y19700500D01*
X88321961Y19700500D01*
X88178039Y19700500D01*
X88178036Y19700500D01*
X88039949Y19659955D01*
X87918873Y19582144D01*
X87824623Y19473374D01*
X87824622Y19473372D01*
X87764834Y19342457D01*
X87744353Y19200000D01*
X83308886Y19200000D01*
X83335165Y19257543D01*
X83355647Y19400000D01*
X83335165Y19542457D01*
X83275377Y19673373D01*
X83181128Y19782143D01*
X83060053Y19859953D01*
X83060051Y19859954D01*
X83060049Y19859955D01*
X83060050Y19859955D01*
X82921963Y19900500D01*
X82921961Y19900500D01*
X82778039Y19900500D01*
X82778036Y19900500D01*
X82639949Y19859955D01*
X82518873Y19782144D01*
X82424623Y19673374D01*
X82424622Y19673372D01*
X82364834Y19542457D01*
X82344353Y19400000D01*
X81498458Y19400000D01*
X81485165Y19492457D01*
X81425377Y19623373D01*
X81331128Y19732143D01*
X81210053Y19809953D01*
X81210051Y19809954D01*
X81210049Y19809955D01*
X81210050Y19809955D01*
X81071963Y19850500D01*
X81071961Y19850500D01*
X80928039Y19850500D01*
X80928036Y19850500D01*
X80789949Y19809955D01*
X80668873Y19732144D01*
X80574623Y19623374D01*
X80574622Y19623372D01*
X80514834Y19492457D01*
X80494353Y19350000D01*
X8034215Y19350000D01*
X7967466Y19416749D01*
X7967462Y19416752D01*
X7803684Y19526186D01*
X7803671Y19526193D01*
X7621693Y19601570D01*
X7621681Y19601573D01*
X7428495Y19640000D01*
X7030000Y19640000D01*
X7030000Y18940000D01*
X6530000Y18940000D01*
X6530000Y19640000D01*
X6131504Y19640000D01*
X5938318Y19601573D01*
X5938306Y19601570D01*
X5756328Y19526193D01*
X5756315Y19526186D01*
X5592537Y19416752D01*
X5592533Y19416749D01*
X5453251Y19277467D01*
X5453248Y19277463D01*
X5343814Y19113685D01*
X5343807Y19113672D01*
X5268430Y18931693D01*
X5268430Y18931691D01*
X5260138Y18890000D01*
X3869862Y18890000D01*
X3861569Y18931691D01*
X3861569Y18931693D01*
X3786192Y19113672D01*
X3786185Y19113685D01*
X3676751Y19277463D01*
X3676748Y19277467D01*
X3537466Y19416749D01*
X3537462Y19416752D01*
X3373684Y19526186D01*
X3373671Y19526193D01*
X3191693Y19601570D01*
X3191681Y19601573D01*
X2998495Y19640000D01*
X2850000Y19640000D01*
X2850000Y18940000D01*
X2350000Y18940000D01*
X2350000Y19640000D01*
X2201504Y19640000D01*
X2008318Y19601573D01*
X2008306Y19601570D01*
X1826328Y19526193D01*
X1826315Y19526186D01*
X1662537Y19416752D01*
X1662533Y19416749D01*
X1523251Y19277467D01*
X1523248Y19277463D01*
X1413814Y19113685D01*
X1413807Y19113672D01*
X1338430Y18931693D01*
X1338430Y18931691D01*
X1330138Y18890000D01*
X300500Y18890000D01*
X300500Y20500000D01*
X31994353Y20500000D01*
X32014834Y20357544D01*
X32074622Y20226629D01*
X32074623Y20226627D01*
X32168872Y20117857D01*
X32289947Y20040047D01*
X32289950Y20040046D01*
X32289949Y20040046D01*
X32428036Y19999501D01*
X32428038Y19999500D01*
X32428039Y19999500D01*
X32571962Y19999500D01*
X32571962Y19999501D01*
X32710053Y20040047D01*
X32831128Y20117857D01*
X32925377Y20226627D01*
X32985165Y20357543D01*
X33005647Y20500000D01*
X33594353Y20500000D01*
X33614834Y20357544D01*
X33674622Y20226629D01*
X33674623Y20226627D01*
X33768872Y20117857D01*
X33889947Y20040047D01*
X33889950Y20040046D01*
X33889949Y20040046D01*
X34028036Y19999501D01*
X34028038Y19999500D01*
X34028039Y19999500D01*
X34171962Y19999500D01*
X34171962Y19999501D01*
X34310053Y20040047D01*
X34431128Y20117857D01*
X34525377Y20226627D01*
X34585165Y20357543D01*
X34605647Y20500000D01*
X34994353Y20500000D01*
X35014834Y20357544D01*
X35074622Y20226629D01*
X35074623Y20226627D01*
X35168872Y20117857D01*
X35289947Y20040047D01*
X35289950Y20040046D01*
X35289949Y20040046D01*
X35428036Y19999501D01*
X35428038Y19999500D01*
X35428039Y19999500D01*
X35571962Y19999500D01*
X35571962Y19999501D01*
X35710053Y20040047D01*
X35831128Y20117857D01*
X35925377Y20226627D01*
X35985165Y20357543D01*
X36005647Y20500000D01*
X35985165Y20642457D01*
X35925377Y20773373D01*
X35831128Y20882143D01*
X35710053Y20959953D01*
X35710051Y20959954D01*
X35710049Y20959955D01*
X35710050Y20959955D01*
X35571963Y21000500D01*
X35571961Y21000500D01*
X35428039Y21000500D01*
X35428036Y21000500D01*
X35289949Y20959955D01*
X35168873Y20882144D01*
X35074623Y20773374D01*
X35074622Y20773372D01*
X35014834Y20642457D01*
X34994353Y20500000D01*
X34605647Y20500000D01*
X34585165Y20642457D01*
X34525377Y20773373D01*
X34431128Y20882143D01*
X34310053Y20959953D01*
X34310051Y20959954D01*
X34310049Y20959955D01*
X34310050Y20959955D01*
X34171963Y21000500D01*
X34171961Y21000500D01*
X34028039Y21000500D01*
X34028036Y21000500D01*
X33889949Y20959955D01*
X33768873Y20882144D01*
X33674623Y20773374D01*
X33674622Y20773372D01*
X33614834Y20642457D01*
X33594353Y20500000D01*
X33005647Y20500000D01*
X32985165Y20642457D01*
X32925377Y20773373D01*
X32831128Y20882143D01*
X32710053Y20959953D01*
X32710051Y20959954D01*
X32710049Y20959955D01*
X32710050Y20959955D01*
X32571963Y21000500D01*
X32571961Y21000500D01*
X32428039Y21000500D01*
X32428036Y21000500D01*
X32289949Y20959955D01*
X32168873Y20882144D01*
X32074623Y20773374D01*
X32074622Y20773372D01*
X32014834Y20642457D01*
X31994353Y20500000D01*
X300500Y20500000D01*
X300500Y21600000D01*
X56894353Y21600000D01*
X56914834Y21457544D01*
X56974622Y21326629D01*
X56974623Y21326627D01*
X57068872Y21217857D01*
X57189947Y21140047D01*
X57189950Y21140046D01*
X57189949Y21140046D01*
X57328036Y21099501D01*
X57328038Y21099500D01*
X57328039Y21099500D01*
X57471962Y21099500D01*
X57471962Y21099501D01*
X57610053Y21140047D01*
X57731128Y21217857D01*
X57825377Y21326627D01*
X57885165Y21457543D01*
X57905647Y21600000D01*
X57885165Y21742457D01*
X57825377Y21873373D01*
X57731128Y21982143D01*
X57610053Y22059953D01*
X57610051Y22059954D01*
X57610049Y22059955D01*
X57610050Y22059955D01*
X57471963Y22100500D01*
X57471961Y22100500D01*
X57328039Y22100500D01*
X57328036Y22100500D01*
X57189949Y22059955D01*
X57068873Y21982144D01*
X56974623Y21873374D01*
X56974622Y21873372D01*
X56914834Y21742457D01*
X56894353Y21600000D01*
X300500Y21600000D01*
X300500Y25000000D01*
X48294353Y25000000D01*
X48314834Y24857544D01*
X48360504Y24757543D01*
X48374623Y24726627D01*
X48468872Y24617857D01*
X48589947Y24540047D01*
X48589950Y24540046D01*
X48589949Y24540046D01*
X48728036Y24499501D01*
X48728038Y24499500D01*
X48728039Y24499500D01*
X48871962Y24499500D01*
X48871962Y24499501D01*
X49010053Y24540047D01*
X49025540Y24550000D01*
X56744353Y24550000D01*
X56764834Y24407544D01*
X56768508Y24399500D01*
X56824623Y24276627D01*
X56918872Y24167857D01*
X57039947Y24090047D01*
X57039950Y24090046D01*
X57039949Y24090046D01*
X57178036Y24049501D01*
X57178038Y24049500D01*
X57178039Y24049500D01*
X57321962Y24049500D01*
X57321962Y24049501D01*
X57460053Y24090047D01*
X57581128Y24167857D01*
X57675377Y24276627D01*
X57735165Y24407543D01*
X57755647Y24550000D01*
X57735165Y24692457D01*
X57675377Y24823373D01*
X57608980Y24900000D01*
X66294353Y24900000D01*
X66314834Y24757544D01*
X66328953Y24726629D01*
X66374623Y24626627D01*
X66468872Y24517857D01*
X66589947Y24440047D01*
X66589950Y24440046D01*
X66589949Y24440046D01*
X66728036Y24399501D01*
X66728038Y24399500D01*
X66728039Y24399500D01*
X66871962Y24399500D01*
X66871962Y24399501D01*
X67010053Y24440047D01*
X67131128Y24517857D01*
X67225377Y24626627D01*
X67285165Y24757543D01*
X67305647Y24900000D01*
X67285165Y25042457D01*
X67225377Y25173373D01*
X67131128Y25282143D01*
X67010053Y25359953D01*
X67010051Y25359954D01*
X67010049Y25359955D01*
X67010050Y25359955D01*
X66871963Y25400500D01*
X66871961Y25400500D01*
X66728039Y25400500D01*
X66728036Y25400500D01*
X66589949Y25359955D01*
X66468873Y25282144D01*
X66374623Y25173374D01*
X66374622Y25173372D01*
X66314834Y25042457D01*
X66294353Y24900000D01*
X57608980Y24900000D01*
X57581128Y24932143D01*
X57460053Y25009953D01*
X57460051Y25009954D01*
X57460049Y25009955D01*
X57460050Y25009955D01*
X57321963Y25050500D01*
X57321961Y25050500D01*
X57178039Y25050500D01*
X57178036Y25050500D01*
X57039949Y25009955D01*
X56918873Y24932144D01*
X56824623Y24823374D01*
X56824622Y24823372D01*
X56764834Y24692457D01*
X56744353Y24550000D01*
X49025540Y24550000D01*
X49131128Y24617857D01*
X49225377Y24726627D01*
X49285165Y24857543D01*
X49305647Y25000000D01*
X49285165Y25142457D01*
X49225377Y25273373D01*
X49131128Y25382143D01*
X49010053Y25459953D01*
X49010051Y25459954D01*
X49010049Y25459955D01*
X49010050Y25459955D01*
X48871963Y25500500D01*
X48871961Y25500500D01*
X48728039Y25500500D01*
X48728036Y25500500D01*
X48589949Y25459955D01*
X48468873Y25382144D01*
X48374623Y25273374D01*
X48374622Y25273372D01*
X48314834Y25142457D01*
X48294353Y25000000D01*
X300500Y25000000D01*
X300500Y26300000D01*
X58894353Y26300000D01*
X58914834Y26157544D01*
X58974622Y26026629D01*
X58974623Y26026627D01*
X59068872Y25917857D01*
X59189947Y25840047D01*
X59189950Y25840046D01*
X59189949Y25840046D01*
X59328036Y25799501D01*
X59328038Y25799500D01*
X59328039Y25799500D01*
X59471962Y25799500D01*
X59471962Y25799501D01*
X59610053Y25840047D01*
X59731128Y25917857D01*
X59825377Y26026627D01*
X59885165Y26157543D01*
X59905647Y26300000D01*
X59885165Y26442457D01*
X59825377Y26573373D01*
X59731128Y26682143D01*
X59610053Y26759953D01*
X59610051Y26759954D01*
X59610049Y26759955D01*
X59610050Y26759955D01*
X59471963Y26800500D01*
X59471961Y26800500D01*
X59328039Y26800500D01*
X59328036Y26800500D01*
X59189949Y26759955D01*
X59068873Y26682144D01*
X58974623Y26573374D01*
X58974622Y26573372D01*
X58914834Y26442457D01*
X58894353Y26300000D01*
X300500Y26300000D01*
X300500Y28783772D01*
X14809500Y28783772D01*
X14809500Y28616229D01*
X14842182Y28451926D01*
X14842184Y28451918D01*
X14906295Y28297140D01*
X14999373Y28157838D01*
X15117837Y28039374D01*
X15210494Y27977463D01*
X15257137Y27946297D01*
X15411918Y27882184D01*
X15576228Y27849501D01*
X15576232Y27849500D01*
X15576233Y27849500D01*
X15743768Y27849500D01*
X15743769Y27849501D01*
X15908082Y27882184D01*
X16062863Y27946297D01*
X16202162Y28039374D01*
X16320626Y28157838D01*
X16413703Y28297137D01*
X16477816Y28451918D01*
X16510500Y28616233D01*
X16510500Y28783767D01*
X16510499Y28783772D01*
X17349500Y28783772D01*
X17349500Y28616229D01*
X17382182Y28451926D01*
X17382184Y28451918D01*
X17446295Y28297140D01*
X17539373Y28157838D01*
X17657837Y28039374D01*
X17750494Y27977463D01*
X17797137Y27946297D01*
X17951918Y27882184D01*
X18116228Y27849501D01*
X18116232Y27849500D01*
X18116233Y27849500D01*
X18283768Y27849500D01*
X18283769Y27849501D01*
X18448082Y27882184D01*
X18602863Y27946297D01*
X18742162Y28039374D01*
X18860626Y28157838D01*
X18953703Y28297137D01*
X19017816Y28451918D01*
X19050500Y28616233D01*
X19050500Y28783767D01*
X19050499Y28783772D01*
X19889500Y28783772D01*
X19889500Y28616229D01*
X19922182Y28451926D01*
X19922184Y28451918D01*
X19986295Y28297140D01*
X20079373Y28157838D01*
X20197837Y28039374D01*
X20290494Y27977463D01*
X20337137Y27946297D01*
X20491918Y27882184D01*
X20656228Y27849501D01*
X20656232Y27849500D01*
X20656233Y27849500D01*
X20823768Y27849500D01*
X20823769Y27849501D01*
X20988082Y27882184D01*
X21142863Y27946297D01*
X21282162Y28039374D01*
X21400626Y28157838D01*
X21493703Y28297137D01*
X21557816Y28451918D01*
X21590500Y28616233D01*
X21590500Y28783767D01*
X21557816Y28948082D01*
X21493703Y29102863D01*
X21429132Y29199500D01*
X21400626Y29242163D01*
X21282162Y29360627D01*
X21142860Y29453705D01*
X20988082Y29517816D01*
X20988074Y29517818D01*
X20823771Y29550500D01*
X20823767Y29550500D01*
X20656233Y29550500D01*
X20656228Y29550500D01*
X20491925Y29517818D01*
X20491917Y29517816D01*
X20337139Y29453705D01*
X20197837Y29360627D01*
X20079373Y29242163D01*
X19986295Y29102861D01*
X19922184Y28948083D01*
X19922182Y28948075D01*
X19889500Y28783772D01*
X19050499Y28783772D01*
X19017816Y28948082D01*
X18953703Y29102863D01*
X18889132Y29199500D01*
X18860626Y29242163D01*
X18742162Y29360627D01*
X18602860Y29453705D01*
X18448082Y29517816D01*
X18448074Y29517818D01*
X18283771Y29550500D01*
X18283767Y29550500D01*
X18116233Y29550500D01*
X18116228Y29550500D01*
X17951925Y29517818D01*
X17951917Y29517816D01*
X17797139Y29453705D01*
X17657837Y29360627D01*
X17539373Y29242163D01*
X17446295Y29102861D01*
X17382184Y28948083D01*
X17382182Y28948075D01*
X17349500Y28783772D01*
X16510499Y28783772D01*
X16477816Y28948082D01*
X16413703Y29102863D01*
X16349132Y29199500D01*
X16320626Y29242163D01*
X16202162Y29360627D01*
X16062860Y29453705D01*
X15908082Y29517816D01*
X15908074Y29517818D01*
X15743771Y29550500D01*
X15743767Y29550500D01*
X15576233Y29550500D01*
X15576228Y29550500D01*
X15411925Y29517818D01*
X15411917Y29517816D01*
X15257139Y29453705D01*
X15117837Y29360627D01*
X14999373Y29242163D01*
X14906295Y29102861D01*
X14842184Y28948083D01*
X14842182Y28948075D01*
X14809500Y28783772D01*
X300500Y28783772D01*
X300500Y29700000D01*
X36494353Y29700000D01*
X36514834Y29557544D01*
X36568494Y29440047D01*
X36574623Y29426627D01*
X36668872Y29317857D01*
X36789947Y29240047D01*
X36789950Y29240046D01*
X36789949Y29240046D01*
X36928036Y29199501D01*
X36928038Y29199500D01*
X36928039Y29199500D01*
X37071962Y29199500D01*
X37071962Y29199501D01*
X37210053Y29240047D01*
X37331128Y29317857D01*
X37402305Y29400000D01*
X40844353Y29400000D01*
X40864834Y29257544D01*
X40924622Y29126629D01*
X40924623Y29126627D01*
X41018872Y29017857D01*
X41139947Y28940047D01*
X41139950Y28940046D01*
X41139949Y28940046D01*
X41278036Y28899501D01*
X41278038Y28899500D01*
X41278039Y28899500D01*
X41421962Y28899500D01*
X41421962Y28899501D01*
X41560053Y28940047D01*
X41681128Y29017857D01*
X41775377Y29126627D01*
X41835165Y29257543D01*
X41855647Y29400000D01*
X41835165Y29542457D01*
X41775377Y29673373D01*
X41681128Y29782143D01*
X41560053Y29859953D01*
X41560051Y29859954D01*
X41560049Y29859955D01*
X41560050Y29859955D01*
X41423666Y29900000D01*
X91094353Y29900000D01*
X91114834Y29757544D01*
X91153275Y29673372D01*
X91174623Y29626627D01*
X91268872Y29517857D01*
X91389947Y29440047D01*
X91389950Y29440046D01*
X91389949Y29440046D01*
X91497107Y29408583D01*
X91526336Y29400000D01*
X91528036Y29399501D01*
X91528038Y29399500D01*
X91528039Y29399500D01*
X91671962Y29399500D01*
X91671962Y29399501D01*
X91810053Y29440047D01*
X91931128Y29517857D01*
X92025377Y29626627D01*
X92085165Y29757543D01*
X92105647Y29900000D01*
X92085165Y30042457D01*
X92025377Y30173373D01*
X91931128Y30282143D01*
X91810053Y30359953D01*
X91810051Y30359954D01*
X91810049Y30359955D01*
X91810050Y30359955D01*
X91671963Y30400500D01*
X91671961Y30400500D01*
X91528039Y30400500D01*
X91528036Y30400500D01*
X91389949Y30359955D01*
X91268873Y30282144D01*
X91174623Y30173374D01*
X91174622Y30173372D01*
X91114834Y30042457D01*
X91094353Y29900000D01*
X41423666Y29900000D01*
X41421963Y29900500D01*
X41421961Y29900500D01*
X41278039Y29900500D01*
X41278036Y29900500D01*
X41139949Y29859955D01*
X41018873Y29782144D01*
X40924623Y29673374D01*
X40924622Y29673372D01*
X40864834Y29542457D01*
X40844353Y29400000D01*
X37402305Y29400000D01*
X37425377Y29426627D01*
X37485165Y29557543D01*
X37505647Y29700000D01*
X37485165Y29842457D01*
X37425377Y29973373D01*
X37331128Y30082143D01*
X37210053Y30159953D01*
X37210051Y30159954D01*
X37210049Y30159955D01*
X37210050Y30159955D01*
X37073666Y30200000D01*
X39094353Y30200000D01*
X39114834Y30057544D01*
X39153275Y29973372D01*
X39174623Y29926627D01*
X39268872Y29817857D01*
X39389947Y29740047D01*
X39389950Y29740046D01*
X39389949Y29740046D01*
X39497107Y29708583D01*
X39526336Y29700000D01*
X39528036Y29699501D01*
X39528038Y29699500D01*
X39528039Y29699500D01*
X39671962Y29699500D01*
X39671962Y29699501D01*
X39810053Y29740047D01*
X39931128Y29817857D01*
X40025377Y29926627D01*
X40085165Y30057543D01*
X40105647Y30200000D01*
X40085165Y30342457D01*
X40025377Y30473373D01*
X39931128Y30582143D01*
X39810053Y30659953D01*
X39810051Y30659954D01*
X39810049Y30659955D01*
X39810050Y30659955D01*
X39671963Y30700500D01*
X39671961Y30700500D01*
X39528039Y30700500D01*
X39528036Y30700500D01*
X39389949Y30659955D01*
X39268873Y30582144D01*
X39174623Y30473374D01*
X39174622Y30473372D01*
X39114834Y30342457D01*
X39094353Y30200000D01*
X37073666Y30200000D01*
X37071963Y30200500D01*
X37071961Y30200500D01*
X36928039Y30200500D01*
X36928036Y30200500D01*
X36789949Y30159955D01*
X36668873Y30082144D01*
X36574623Y29973374D01*
X36574622Y29973372D01*
X36514834Y29842457D01*
X36494353Y29700000D01*
X300500Y29700000D01*
X300500Y32163772D01*
X4149500Y32163772D01*
X4149500Y31996229D01*
X4182182Y31831926D01*
X4182184Y31831918D01*
X4246295Y31677140D01*
X4339373Y31537838D01*
X4457837Y31419374D01*
X4471934Y31409955D01*
X4597137Y31326297D01*
X4751918Y31262184D01*
X4916228Y31229501D01*
X4916232Y31229500D01*
X4916233Y31229500D01*
X5083768Y31229500D01*
X5083769Y31229501D01*
X5248082Y31262184D01*
X5402863Y31326297D01*
X5542162Y31419374D01*
X5660626Y31537838D01*
X5753703Y31677137D01*
X5817816Y31831918D01*
X5850500Y31996233D01*
X5850500Y32163767D01*
X5817816Y32328082D01*
X5753703Y32482863D01*
X5688798Y32580000D01*
X5660626Y32622163D01*
X5542162Y32740627D01*
X5402860Y32833705D01*
X5248082Y32897816D01*
X5248074Y32897818D01*
X5083771Y32930500D01*
X5083767Y32930500D01*
X4916233Y32930500D01*
X4916228Y32930500D01*
X4751925Y32897818D01*
X4751917Y32897816D01*
X4597139Y32833705D01*
X4457837Y32740627D01*
X4339373Y32622163D01*
X4246295Y32482861D01*
X4182184Y32328083D01*
X4182182Y32328075D01*
X4149500Y32163772D01*
X300500Y32163772D01*
X300500Y32977845D01*
X6190000Y32977845D01*
X6190000Y32330000D01*
X7106988Y32330000D01*
X7074075Y32272993D01*
X7040000Y32145826D01*
X7040000Y32014174D01*
X7074075Y31887007D01*
X7106988Y31830000D01*
X6190000Y31830000D01*
X6190000Y31182156D01*
X6196401Y31122628D01*
X6196403Y31122621D01*
X6246645Y30987914D01*
X6246649Y30987907D01*
X6332809Y30872813D01*
X6332812Y30872810D01*
X6447906Y30786650D01*
X6447913Y30786646D01*
X6582620Y30736404D01*
X6582627Y30736402D01*
X6642155Y30730001D01*
X6642172Y30730000D01*
X7290000Y30730000D01*
X7290000Y31646988D01*
X7347007Y31614075D01*
X7474174Y31580000D01*
X7605826Y31580000D01*
X7732993Y31614075D01*
X7790000Y31646988D01*
X7790000Y30730000D01*
X8437828Y30730000D01*
X8437844Y30730001D01*
X8497372Y30736402D01*
X8497379Y30736404D01*
X8632086Y30786646D01*
X8632093Y30786650D01*
X8747187Y30872810D01*
X8747190Y30872813D01*
X8833350Y30987907D01*
X8833354Y30987914D01*
X8837862Y31000000D01*
X42194353Y31000000D01*
X42214834Y30857544D01*
X42274622Y30726629D01*
X42274623Y30726627D01*
X42368872Y30617857D01*
X42489947Y30540047D01*
X42489950Y30540046D01*
X42489949Y30540046D01*
X42628036Y30499501D01*
X42628038Y30499500D01*
X42628039Y30499500D01*
X42771962Y30499500D01*
X42771962Y30499501D01*
X42910053Y30540047D01*
X43031128Y30617857D01*
X43125377Y30726627D01*
X43185165Y30857543D01*
X43198458Y30950000D01*
X50294353Y30950000D01*
X50314834Y30807544D01*
X50363720Y30700500D01*
X50374623Y30676627D01*
X50468872Y30567857D01*
X50589947Y30490047D01*
X50589950Y30490046D01*
X50589949Y30490046D01*
X50728036Y30449501D01*
X50728038Y30449500D01*
X50728039Y30449500D01*
X50871962Y30449500D01*
X50871962Y30449501D01*
X51010053Y30490047D01*
X51131128Y30567857D01*
X51225377Y30676627D01*
X51285165Y30807543D01*
X51305647Y30950000D01*
X51285165Y31092457D01*
X51225377Y31223373D01*
X51131128Y31332143D01*
X51010053Y31409953D01*
X51010051Y31409954D01*
X51010049Y31409955D01*
X51010050Y31409955D01*
X50871963Y31450500D01*
X50871961Y31450500D01*
X50728039Y31450500D01*
X50728036Y31450500D01*
X50589949Y31409955D01*
X50468873Y31332144D01*
X50468872Y31332144D01*
X50468872Y31332143D01*
X50463806Y31326296D01*
X50374623Y31223374D01*
X50374622Y31223372D01*
X50314834Y31092457D01*
X50294353Y30950000D01*
X43198458Y30950000D01*
X43205647Y31000000D01*
X43185165Y31142457D01*
X43125377Y31273373D01*
X43031128Y31382143D01*
X42910053Y31459953D01*
X42910051Y31459954D01*
X42910049Y31459955D01*
X42910050Y31459955D01*
X42771963Y31500500D01*
X42771961Y31500500D01*
X42628039Y31500500D01*
X42628036Y31500500D01*
X42489949Y31459955D01*
X42368873Y31382144D01*
X42274623Y31273374D01*
X42274622Y31273372D01*
X42214834Y31142457D01*
X42194353Y31000000D01*
X8837862Y31000000D01*
X8883596Y31122621D01*
X8883598Y31122628D01*
X8889999Y31182156D01*
X8890000Y31182173D01*
X8890000Y31600000D01*
X58494353Y31600000D01*
X58514834Y31457544D01*
X58549269Y31382144D01*
X58574623Y31326627D01*
X58668872Y31217857D01*
X58789947Y31140047D01*
X58789950Y31140046D01*
X58789949Y31140046D01*
X58928036Y31099501D01*
X58928038Y31099500D01*
X58928039Y31099500D01*
X59071962Y31099500D01*
X59071962Y31099501D01*
X59210053Y31140047D01*
X59331128Y31217857D01*
X59425377Y31326627D01*
X59485165Y31457543D01*
X59505647Y31600000D01*
X59485165Y31742457D01*
X59425377Y31873373D01*
X59331128Y31982143D01*
X59210053Y32059953D01*
X59210051Y32059954D01*
X59210049Y32059955D01*
X59210050Y32059955D01*
X59071963Y32100500D01*
X59071961Y32100500D01*
X58928039Y32100500D01*
X58928036Y32100500D01*
X58789949Y32059955D01*
X58668873Y31982144D01*
X58574623Y31873374D01*
X58574622Y31873372D01*
X58514834Y31742457D01*
X58494353Y31600000D01*
X8890000Y31600000D01*
X8890000Y31830000D01*
X7973012Y31830000D01*
X8005925Y31887007D01*
X8040000Y32014174D01*
X8040000Y32145826D01*
X8005925Y32272993D01*
X7973012Y32330000D01*
X8890000Y32330000D01*
X8890000Y32977828D01*
X8889999Y32977845D01*
X8883598Y33037373D01*
X8883596Y33037380D01*
X8833354Y33172087D01*
X8833350Y33172094D01*
X8747190Y33287188D01*
X8747187Y33287191D01*
X8632093Y33373351D01*
X8632086Y33373355D01*
X8500013Y33422615D01*
X8444079Y33464486D01*
X8419662Y33529951D01*
X8434514Y33598224D01*
X8455665Y33626479D01*
X8578108Y33748922D01*
X8713600Y33942422D01*
X8787079Y34100000D01*
X62481853Y34100000D01*
X62502334Y33957544D01*
X62562122Y33826629D01*
X62562123Y33826627D01*
X62656372Y33717857D01*
X62777447Y33640047D01*
X62777450Y33640046D01*
X62777449Y33640046D01*
X62915536Y33599501D01*
X62915538Y33599500D01*
X62915539Y33599500D01*
X63059462Y33599500D01*
X63059462Y33599501D01*
X63197553Y33640047D01*
X63318628Y33717857D01*
X63412877Y33826627D01*
X63472665Y33957543D01*
X63493147Y34100000D01*
X63472665Y34242457D01*
X63412877Y34373373D01*
X63318628Y34482143D01*
X63197553Y34559953D01*
X63197551Y34559954D01*
X63197549Y34559955D01*
X63197550Y34559955D01*
X63059463Y34600500D01*
X63059461Y34600500D01*
X62915539Y34600500D01*
X62915536Y34600500D01*
X62777449Y34559955D01*
X62656373Y34482144D01*
X62562123Y34373374D01*
X62562122Y34373372D01*
X62502334Y34242457D01*
X62481853Y34100000D01*
X8787079Y34100000D01*
X8813429Y34156508D01*
X8813432Y34156514D01*
X8870636Y34370000D01*
X7973012Y34370000D01*
X8005925Y34427007D01*
X8040000Y34554174D01*
X8040000Y34685826D01*
X8005925Y34812993D01*
X7973012Y34870000D01*
X8870636Y34870000D01*
X8870635Y34870001D01*
X8813432Y35083487D01*
X8813429Y35083493D01*
X8713600Y35297578D01*
X8713599Y35297580D01*
X8578113Y35491074D01*
X8578108Y35491080D01*
X8411082Y35658106D01*
X8279844Y35750000D01*
X28194353Y35750000D01*
X28214834Y35607544D01*
X28218508Y35599500D01*
X28274623Y35476627D01*
X28368872Y35367857D01*
X28489947Y35290047D01*
X28489950Y35290046D01*
X28489949Y35290046D01*
X28628036Y35249501D01*
X28628038Y35249500D01*
X28628039Y35249500D01*
X28771962Y35249500D01*
X28771962Y35249501D01*
X28910053Y35290047D01*
X29031128Y35367857D01*
X29125377Y35476627D01*
X29185165Y35607543D01*
X29205647Y35750000D01*
X29185165Y35892457D01*
X29125377Y36023373D01*
X29058980Y36100000D01*
X46894353Y36100000D01*
X46914834Y35957544D01*
X46924218Y35936997D01*
X46974623Y35826627D01*
X47068872Y35717857D01*
X47189947Y35640047D01*
X47189950Y35640046D01*
X47189949Y35640046D01*
X47328036Y35599501D01*
X47328038Y35599500D01*
X47328039Y35599500D01*
X47471962Y35599500D01*
X47471962Y35599501D01*
X47610053Y35640047D01*
X47731128Y35717857D01*
X47825377Y35826627D01*
X47885165Y35957543D01*
X47905647Y36100000D01*
X47885165Y36242457D01*
X47825377Y36373373D01*
X47731128Y36482143D01*
X47610053Y36559953D01*
X47610051Y36559954D01*
X47610049Y36559955D01*
X47610050Y36559955D01*
X47471963Y36600500D01*
X47471961Y36600500D01*
X47328039Y36600500D01*
X47328036Y36600500D01*
X47189949Y36559955D01*
X47068873Y36482144D01*
X46974623Y36373374D01*
X46974622Y36373372D01*
X46914834Y36242457D01*
X46894353Y36100000D01*
X29058980Y36100000D01*
X29031128Y36132143D01*
X28910053Y36209953D01*
X28910051Y36209954D01*
X28910049Y36209955D01*
X28910050Y36209955D01*
X28771963Y36250500D01*
X28771961Y36250500D01*
X28628039Y36250500D01*
X28628036Y36250500D01*
X28489949Y36209955D01*
X28368873Y36132144D01*
X28274623Y36023374D01*
X28274622Y36023372D01*
X28214834Y35892457D01*
X28194353Y35750000D01*
X8279844Y35750000D01*
X8224968Y35788425D01*
X8181344Y35843002D01*
X8174151Y35912501D01*
X8205673Y35974855D01*
X8224968Y35991575D01*
X8411082Y36121895D01*
X8578105Y36288918D01*
X8713600Y36482422D01*
X8813429Y36696508D01*
X8813432Y36696514D01*
X8870636Y36910000D01*
X7973012Y36910000D01*
X8005925Y36967007D01*
X8028163Y37050000D01*
X64881853Y37050000D01*
X64902334Y36907544D01*
X64927247Y36852993D01*
X64962123Y36776627D01*
X65056372Y36667857D01*
X65177447Y36590047D01*
X65177450Y36590046D01*
X65177449Y36590046D01*
X65315536Y36549501D01*
X65315538Y36549500D01*
X65315539Y36549500D01*
X65459462Y36549500D01*
X65459462Y36549501D01*
X65597553Y36590047D01*
X65718628Y36667857D01*
X65812877Y36776627D01*
X65872665Y36907543D01*
X65893147Y37050000D01*
X65872665Y37192457D01*
X65812877Y37323373D01*
X65718628Y37432143D01*
X65597553Y37509953D01*
X65597551Y37509954D01*
X65597549Y37509955D01*
X65597550Y37509955D01*
X65459463Y37550500D01*
X65459461Y37550500D01*
X65315539Y37550500D01*
X65315536Y37550500D01*
X65177449Y37509955D01*
X65056373Y37432144D01*
X64962123Y37323374D01*
X64962122Y37323372D01*
X64902334Y37192457D01*
X64881853Y37050000D01*
X8028163Y37050000D01*
X8040000Y37094174D01*
X8040000Y37225826D01*
X8005925Y37352993D01*
X7973012Y37410000D01*
X8870636Y37410000D01*
X8870635Y37410001D01*
X8813432Y37623487D01*
X8813429Y37623493D01*
X8777753Y37700000D01*
X73594353Y37700000D01*
X73614834Y37557544D01*
X73656182Y37467007D01*
X73674623Y37426627D01*
X73768872Y37317857D01*
X73889947Y37240047D01*
X73889950Y37240046D01*
X73889949Y37240046D01*
X74028036Y37199501D01*
X74028038Y37199500D01*
X74028039Y37199500D01*
X74171962Y37199500D01*
X74171962Y37199501D01*
X74310053Y37240047D01*
X74431128Y37317857D01*
X74525377Y37426627D01*
X74585165Y37557543D01*
X74605647Y37700000D01*
X74585165Y37842457D01*
X74525377Y37973373D01*
X74431128Y38082143D01*
X74310053Y38159953D01*
X74310051Y38159954D01*
X74310049Y38159955D01*
X74310050Y38159955D01*
X74171963Y38200500D01*
X74171961Y38200500D01*
X74028039Y38200500D01*
X74028036Y38200500D01*
X73889949Y38159955D01*
X73768873Y38082144D01*
X73674623Y37973374D01*
X73674622Y37973372D01*
X73614834Y37842457D01*
X73594353Y37700000D01*
X8777753Y37700000D01*
X8713600Y37837578D01*
X8713599Y37837580D01*
X8578113Y38031074D01*
X8578108Y38031080D01*
X8411082Y38198106D01*
X8224968Y38328425D01*
X8181344Y38383002D01*
X8174151Y38452501D01*
X8205673Y38514855D01*
X8224968Y38531575D01*
X8411082Y38661895D01*
X8578105Y38828918D01*
X8713600Y39022422D01*
X8813429Y39236508D01*
X8813432Y39236514D01*
X8870636Y39450000D01*
X7973012Y39450000D01*
X8005925Y39507007D01*
X8040000Y39634174D01*
X8040000Y39765826D01*
X8005925Y39892993D01*
X7973012Y39950000D01*
X8870636Y39950000D01*
X8870635Y39950001D01*
X8813432Y40163487D01*
X8813429Y40163493D01*
X8713600Y40377578D01*
X8713599Y40377580D01*
X8578113Y40571074D01*
X8578108Y40571080D01*
X8411082Y40738106D01*
X8217578Y40873601D01*
X8003492Y40973430D01*
X8003486Y40973433D01*
X7790000Y41030636D01*
X7790000Y40133012D01*
X7732993Y40165925D01*
X7605826Y40200000D01*
X7474174Y40200000D01*
X7347007Y40165925D01*
X7290000Y40133012D01*
X7290000Y41030636D01*
X7289999Y41030636D01*
X7076513Y40973433D01*
X7076507Y40973430D01*
X6862422Y40873601D01*
X6862420Y40873600D01*
X6668926Y40738114D01*
X6668920Y40738109D01*
X6501891Y40571080D01*
X6501886Y40571074D01*
X6366400Y40377580D01*
X6366399Y40377578D01*
X6266570Y40163493D01*
X6266567Y40163487D01*
X6209364Y39950001D01*
X6209364Y39950000D01*
X7106988Y39950000D01*
X7074075Y39892993D01*
X7040000Y39765826D01*
X7040000Y39634174D01*
X7074075Y39507007D01*
X7106988Y39450000D01*
X6209364Y39450000D01*
X6266567Y39236514D01*
X6266570Y39236508D01*
X6366399Y39022422D01*
X6501894Y38828918D01*
X6668917Y38661895D01*
X6855031Y38531575D01*
X6898656Y38476997D01*
X6905848Y38407499D01*
X6874326Y38345144D01*
X6855031Y38328425D01*
X6668922Y38198110D01*
X6668920Y38198109D01*
X6501891Y38031080D01*
X6501886Y38031074D01*
X6366400Y37837580D01*
X6366399Y37837578D01*
X6266570Y37623493D01*
X6266567Y37623487D01*
X6209364Y37410001D01*
X6209364Y37410000D01*
X7106988Y37410000D01*
X7074075Y37352993D01*
X7040000Y37225826D01*
X7040000Y37094174D01*
X7074075Y36967007D01*
X7106988Y36910000D01*
X6209364Y36910000D01*
X6266567Y36696514D01*
X6266570Y36696508D01*
X6366399Y36482422D01*
X6501894Y36288918D01*
X6668917Y36121895D01*
X6855031Y35991575D01*
X6898656Y35936997D01*
X6905848Y35867499D01*
X6874326Y35805144D01*
X6855031Y35788425D01*
X6668922Y35658110D01*
X6668920Y35658109D01*
X6501891Y35491080D01*
X6501886Y35491074D01*
X6366400Y35297580D01*
X6366399Y35297578D01*
X6266570Y35083493D01*
X6266567Y35083487D01*
X6209364Y34870001D01*
X6209364Y34870000D01*
X7106988Y34870000D01*
X7074075Y34812993D01*
X7040000Y34685826D01*
X7040000Y34554174D01*
X7074075Y34427007D01*
X7106988Y34370000D01*
X6209364Y34370000D01*
X6266567Y34156514D01*
X6266570Y34156508D01*
X6366399Y33942422D01*
X6501894Y33748918D01*
X6624334Y33626478D01*
X6657819Y33565155D01*
X6652835Y33495463D01*
X6610963Y33439530D01*
X6579987Y33422615D01*
X6447911Y33373354D01*
X6447906Y33373351D01*
X6332812Y33287191D01*
X6332809Y33287188D01*
X6246649Y33172094D01*
X6246645Y33172087D01*
X6196403Y33037380D01*
X6196401Y33037373D01*
X6190000Y32977845D01*
X300500Y32977845D01*
X300500Y34703772D01*
X4149500Y34703772D01*
X4149500Y34536229D01*
X4182182Y34371926D01*
X4182184Y34371918D01*
X4246295Y34217140D01*
X4339373Y34077838D01*
X4457837Y33959374D01*
X4483208Y33942422D01*
X4597137Y33866297D01*
X4751918Y33802184D01*
X4916228Y33769501D01*
X4916232Y33769500D01*
X4916233Y33769500D01*
X5083768Y33769500D01*
X5083769Y33769501D01*
X5248082Y33802184D01*
X5402863Y33866297D01*
X5542162Y33959374D01*
X5660626Y34077838D01*
X5753703Y34217137D01*
X5817816Y34371918D01*
X5850500Y34536233D01*
X5850500Y34703767D01*
X5817816Y34868082D01*
X5753703Y35022863D01*
X5688798Y35120000D01*
X5660626Y35162163D01*
X5542162Y35280627D01*
X5402860Y35373705D01*
X5248082Y35437816D01*
X5248074Y35437818D01*
X5083771Y35470500D01*
X5083767Y35470500D01*
X4916233Y35470500D01*
X4916228Y35470500D01*
X4751925Y35437818D01*
X4751917Y35437816D01*
X4597139Y35373705D01*
X4457837Y35280627D01*
X4339373Y35162163D01*
X4246295Y35022861D01*
X4182184Y34868083D01*
X4182182Y34868075D01*
X4149500Y34703772D01*
X300500Y34703772D01*
X300500Y37243772D01*
X4149500Y37243772D01*
X4149500Y37076229D01*
X4182182Y36911926D01*
X4182184Y36911918D01*
X4246295Y36757140D01*
X4339373Y36617838D01*
X4457837Y36499374D01*
X4550494Y36437463D01*
X4597137Y36406297D01*
X4751918Y36342184D01*
X4916228Y36309501D01*
X4916232Y36309500D01*
X4916233Y36309500D01*
X5083768Y36309500D01*
X5083769Y36309501D01*
X5248082Y36342184D01*
X5402863Y36406297D01*
X5542162Y36499374D01*
X5660626Y36617838D01*
X5753703Y36757137D01*
X5817816Y36911918D01*
X5850500Y37076233D01*
X5850500Y37243767D01*
X5817816Y37408082D01*
X5753703Y37562863D01*
X5662071Y37700000D01*
X5660626Y37702163D01*
X5542162Y37820627D01*
X5402860Y37913705D01*
X5248082Y37977816D01*
X5248074Y37977818D01*
X5083771Y38010500D01*
X5083767Y38010500D01*
X4916233Y38010500D01*
X4916228Y38010500D01*
X4751925Y37977818D01*
X4751917Y37977816D01*
X4597139Y37913705D01*
X4457837Y37820627D01*
X4339373Y37702163D01*
X4246295Y37562861D01*
X4182184Y37408083D01*
X4182182Y37408075D01*
X4149500Y37243772D01*
X300500Y37243772D01*
X300500Y39783772D01*
X4149500Y39783772D01*
X4149500Y39616229D01*
X4182182Y39451926D01*
X4182184Y39451918D01*
X4246295Y39297140D01*
X4339373Y39157838D01*
X4457837Y39039374D01*
X4483208Y39022422D01*
X4597137Y38946297D01*
X4751918Y38882184D01*
X4916228Y38849501D01*
X4916232Y38849500D01*
X4916233Y38849500D01*
X5083768Y38849500D01*
X5083769Y38849501D01*
X5248082Y38882184D01*
X5402863Y38946297D01*
X5542162Y39039374D01*
X5660626Y39157838D01*
X5753703Y39297137D01*
X5817816Y39451918D01*
X5850500Y39616233D01*
X5850500Y39783767D01*
X5817816Y39948082D01*
X5753703Y40102863D01*
X5689132Y40199500D01*
X5660626Y40242163D01*
X5542162Y40360627D01*
X5402860Y40453705D01*
X5248082Y40517816D01*
X5248074Y40517818D01*
X5083771Y40550500D01*
X5083767Y40550500D01*
X4916233Y40550500D01*
X4916228Y40550500D01*
X4751925Y40517818D01*
X4751917Y40517816D01*
X4597139Y40453705D01*
X4457837Y40360627D01*
X4339373Y40242163D01*
X4246295Y40102861D01*
X4182184Y39948083D01*
X4182182Y39948075D01*
X4149500Y39783772D01*
X300500Y39783772D01*
X300500Y41638696D01*
X12099500Y41638696D01*
X12099500Y41461305D01*
X12134103Y41287342D01*
X12134106Y41287333D01*
X12201983Y41123460D01*
X12201990Y41123447D01*
X12300535Y40975966D01*
X12300538Y40975962D01*
X12425961Y40850539D01*
X12425965Y40850536D01*
X12573446Y40751991D01*
X12573459Y40751984D01*
X12696363Y40701077D01*
X12737334Y40684106D01*
X12737336Y40684106D01*
X12737341Y40684104D01*
X12911304Y40649501D01*
X12911307Y40649500D01*
X12911309Y40649500D01*
X13088693Y40649500D01*
X13088694Y40649501D01*
X13146682Y40661036D01*
X13262658Y40684104D01*
X13262661Y40684106D01*
X13262666Y40684106D01*
X13426547Y40751987D01*
X13574035Y40850536D01*
X13699464Y40975965D01*
X13798013Y41123453D01*
X13865894Y41287334D01*
X13900500Y41461309D01*
X13900500Y41550001D01*
X14169939Y41550001D01*
X14169939Y41550000D01*
X14190145Y41319042D01*
X14190147Y41319032D01*
X14250148Y41095100D01*
X14250152Y41095091D01*
X14348133Y40884970D01*
X14403023Y40806578D01*
X14976212Y41379767D01*
X14987482Y41337708D01*
X15059890Y41212292D01*
X15162292Y41109890D01*
X15287708Y41037482D01*
X15329765Y41026213D01*
X14756576Y40453025D01*
X14834969Y40398133D01*
X15045090Y40300153D01*
X15045099Y40300149D01*
X15269031Y40240148D01*
X15269041Y40240146D01*
X15499999Y40219939D01*
X15500001Y40219939D01*
X15730958Y40240146D01*
X15730968Y40240148D01*
X15954344Y40300000D01*
X44894353Y40300000D01*
X44914834Y40157544D01*
X44941069Y40100099D01*
X44974623Y40026627D01*
X45068872Y39917857D01*
X45189947Y39840047D01*
X45189950Y39840046D01*
X45189949Y39840046D01*
X45328036Y39799501D01*
X45328038Y39799500D01*
X45328039Y39799500D01*
X45471962Y39799500D01*
X45471962Y39799501D01*
X45610053Y39840047D01*
X45731128Y39917857D01*
X45825377Y40026627D01*
X45885165Y40157543D01*
X45905647Y40300000D01*
X45885165Y40442457D01*
X45825377Y40573373D01*
X45731128Y40682143D01*
X45703342Y40700000D01*
X64294353Y40700000D01*
X64314834Y40557544D01*
X64374622Y40426629D01*
X64374623Y40426627D01*
X64468872Y40317857D01*
X64589947Y40240047D01*
X64589950Y40240046D01*
X64589949Y40240046D01*
X64658429Y40219939D01*
X64726336Y40200000D01*
X64728036Y40199501D01*
X64728038Y40199500D01*
X64728039Y40199500D01*
X64871962Y40199500D01*
X64871962Y40199501D01*
X65010053Y40240047D01*
X65131128Y40317857D01*
X65225377Y40426627D01*
X65285165Y40557543D01*
X65305647Y40700000D01*
X65285165Y40842457D01*
X65225377Y40973373D01*
X65131128Y41082143D01*
X65010053Y41159953D01*
X65010051Y41159954D01*
X65010049Y41159955D01*
X65010050Y41159955D01*
X64871963Y41200500D01*
X64871961Y41200500D01*
X64728039Y41200500D01*
X64728036Y41200500D01*
X64589949Y41159955D01*
X64468873Y41082144D01*
X64374623Y40973374D01*
X64374622Y40973372D01*
X64314834Y40842457D01*
X64294353Y40700000D01*
X45703342Y40700000D01*
X45610053Y40759953D01*
X45610051Y40759954D01*
X45610049Y40759955D01*
X45610050Y40759955D01*
X45471963Y40800500D01*
X45471961Y40800500D01*
X45328039Y40800500D01*
X45328036Y40800500D01*
X45189949Y40759955D01*
X45068873Y40682144D01*
X44974623Y40573374D01*
X44974622Y40573372D01*
X44914834Y40442457D01*
X44894353Y40300000D01*
X15954344Y40300000D01*
X15954900Y40300149D01*
X15954909Y40300153D01*
X16165030Y40398133D01*
X16165034Y40398135D01*
X16243422Y40453024D01*
X16243422Y40453025D01*
X15670235Y41026213D01*
X15712292Y41037482D01*
X15837708Y41109890D01*
X15940110Y41212292D01*
X16012518Y41337708D01*
X16023787Y41379766D01*
X16596975Y40806578D01*
X16596976Y40806578D01*
X16651865Y40884966D01*
X16651867Y40884970D01*
X16749847Y41095091D01*
X16749851Y41095100D01*
X16809852Y41319032D01*
X16809854Y41319042D01*
X16830061Y41550000D01*
X16830061Y41550001D01*
X16822301Y41638696D01*
X17099500Y41638696D01*
X17099500Y41461305D01*
X17134103Y41287342D01*
X17134106Y41287333D01*
X17201983Y41123460D01*
X17201990Y41123447D01*
X17300535Y40975966D01*
X17300538Y40975962D01*
X17425961Y40850539D01*
X17425965Y40850536D01*
X17573446Y40751991D01*
X17573459Y40751984D01*
X17696363Y40701077D01*
X17737334Y40684106D01*
X17737336Y40684106D01*
X17737341Y40684104D01*
X17911304Y40649501D01*
X17911307Y40649500D01*
X17911309Y40649500D01*
X18088693Y40649500D01*
X18088694Y40649501D01*
X18146682Y40661036D01*
X18262658Y40684104D01*
X18262661Y40684106D01*
X18262666Y40684106D01*
X18426547Y40751987D01*
X18574035Y40850536D01*
X18699464Y40975965D01*
X18798013Y41123453D01*
X18865894Y41287334D01*
X18900500Y41461309D01*
X18900500Y41638691D01*
X18900500Y41638694D01*
X18900499Y41638696D01*
X18865896Y41812659D01*
X18865893Y41812668D01*
X18798016Y41976541D01*
X18798009Y41976554D01*
X18699464Y42124035D01*
X18699461Y42124039D01*
X18574038Y42249462D01*
X18574034Y42249465D01*
X18426553Y42348010D01*
X18426540Y42348017D01*
X18262667Y42415894D01*
X18262658Y42415897D01*
X18088694Y42450500D01*
X18088691Y42450500D01*
X17911309Y42450500D01*
X17911306Y42450500D01*
X17737341Y42415897D01*
X17737332Y42415894D01*
X17573459Y42348017D01*
X17573446Y42348010D01*
X17425965Y42249465D01*
X17425961Y42249462D01*
X17300538Y42124039D01*
X17300535Y42124035D01*
X17201990Y41976554D01*
X17201983Y41976541D01*
X17134106Y41812668D01*
X17134103Y41812659D01*
X17099500Y41638696D01*
X16822301Y41638696D01*
X16809854Y41780959D01*
X16809852Y41780969D01*
X16749851Y42004901D01*
X16749847Y42004910D01*
X16651867Y42215029D01*
X16651866Y42215031D01*
X16596975Y42293423D01*
X16596975Y42293424D01*
X16023787Y41720236D01*
X16012518Y41762292D01*
X15940110Y41887708D01*
X15837708Y41990110D01*
X15712292Y42062518D01*
X15670234Y42073788D01*
X16243422Y42646977D01*
X16167696Y42700000D01*
X46794353Y42700000D01*
X46814834Y42557544D01*
X46863720Y42450500D01*
X46874623Y42426627D01*
X46968872Y42317857D01*
X47089947Y42240047D01*
X47089950Y42240046D01*
X47089949Y42240046D01*
X47228036Y42199501D01*
X47228038Y42199500D01*
X47228039Y42199500D01*
X47371962Y42199500D01*
X47371962Y42199501D01*
X47510053Y42240047D01*
X47631128Y42317857D01*
X47725377Y42426627D01*
X47785165Y42557543D01*
X47805647Y42700000D01*
X47785165Y42842457D01*
X47725377Y42973373D01*
X47631128Y43082143D01*
X47510053Y43159953D01*
X47510051Y43159954D01*
X47510049Y43159955D01*
X47510050Y43159955D01*
X47371963Y43200500D01*
X47371961Y43200500D01*
X47228039Y43200500D01*
X47228036Y43200500D01*
X47089949Y43159955D01*
X46968873Y43082144D01*
X46874623Y42973374D01*
X46874622Y42973372D01*
X46814834Y42842457D01*
X46794353Y42700000D01*
X16167696Y42700000D01*
X16165030Y42701867D01*
X15954909Y42799848D01*
X15954900Y42799852D01*
X15730968Y42859853D01*
X15730958Y42859855D01*
X15500001Y42880061D01*
X15499999Y42880061D01*
X15269041Y42859855D01*
X15269031Y42859853D01*
X15045099Y42799852D01*
X15045090Y42799848D01*
X14834967Y42701866D01*
X14756576Y42646978D01*
X15329766Y42073788D01*
X15287708Y42062518D01*
X15162292Y41990110D01*
X15059890Y41887708D01*
X14987482Y41762292D01*
X14976212Y41720234D01*
X14403022Y42293424D01*
X14348134Y42215033D01*
X14250152Y42004910D01*
X14250148Y42004901D01*
X14190147Y41780969D01*
X14190145Y41780959D01*
X14169939Y41550001D01*
X13900500Y41550001D01*
X13900500Y41638691D01*
X13900500Y41638694D01*
X13900499Y41638696D01*
X13865896Y41812659D01*
X13865893Y41812668D01*
X13798016Y41976541D01*
X13798009Y41976554D01*
X13699464Y42124035D01*
X13699461Y42124039D01*
X13574038Y42249462D01*
X13574034Y42249465D01*
X13426553Y42348010D01*
X13426540Y42348017D01*
X13262667Y42415894D01*
X13262658Y42415897D01*
X13088694Y42450500D01*
X13088691Y42450500D01*
X12911309Y42450500D01*
X12911306Y42450500D01*
X12737341Y42415897D01*
X12737332Y42415894D01*
X12573459Y42348017D01*
X12573446Y42348010D01*
X12425965Y42249465D01*
X12425961Y42249462D01*
X12300538Y42124039D01*
X12300535Y42124035D01*
X12201990Y41976554D01*
X12201983Y41976541D01*
X12134106Y41812668D01*
X12134103Y41812659D01*
X12099500Y41638696D01*
X300500Y41638696D01*
X300500Y44643898D01*
X320185Y44710937D01*
X372989Y44756692D01*
X442147Y44766636D01*
X505703Y44737611D01*
X540264Y44688336D01*
X615244Y44493006D01*
X791310Y44147457D01*
X1002531Y43822207D01*
X1211095Y43564650D01*
X1211096Y43564650D01*
X2705748Y45059302D01*
X2779588Y44957670D01*
X2957670Y44779588D01*
X3059300Y44705749D01*
X1564648Y43211097D01*
X1564649Y43211096D01*
X1822206Y43002532D01*
X2147456Y42791311D01*
X2493005Y42615245D01*
X2855063Y42476263D01*
X3229669Y42375888D01*
X3229676Y42375887D01*
X3612712Y42315220D01*
X3999999Y42294922D01*
X4000001Y42294922D01*
X4387287Y42315220D01*
X4770323Y42375887D01*
X4770330Y42375888D01*
X5144936Y42476263D01*
X5506994Y42615245D01*
X5852543Y42791311D01*
X6177783Y43002524D01*
X6177785Y43002525D01*
X6435349Y43211098D01*
X4940698Y44705749D01*
X5042330Y44779588D01*
X5220412Y44957670D01*
X5294251Y45059302D01*
X6788902Y43564651D01*
X6997475Y43822215D01*
X6997476Y43822217D01*
X7208689Y44147457D01*
X7384755Y44493006D01*
X7523737Y44855064D01*
X7624112Y45229670D01*
X7624113Y45229677D01*
X7684780Y45612713D01*
X7705078Y46000000D01*
X7705078Y46000001D01*
X7684780Y46387288D01*
X7624113Y46770324D01*
X7624112Y46770331D01*
X7523737Y47144937D01*
X7384755Y47506995D01*
X7208689Y47852544D01*
X6997468Y48177794D01*
X6788904Y48435351D01*
X6788903Y48435352D01*
X5294251Y46940700D01*
X5220412Y47042330D01*
X5042330Y47220412D01*
X4940698Y47294252D01*
X6435350Y48788904D01*
X6435350Y48788905D01*
X6177793Y48997469D01*
X5852543Y49208690D01*
X5506994Y49384756D01*
X5311664Y49459736D01*
X5256132Y49502138D01*
X5232339Y49567832D01*
X5247841Y49635960D01*
X5297714Y49684893D01*
X5356102Y49699500D01*
X94643898Y49699500D01*
X94710937Y49679815D01*
G37*
%TD.AperFunction*%
%TA.AperFunction,Conductor*%
G36*
X2779588Y2957670D02*
G01*
X2957670Y2779588D01*
X3059300Y2705749D01*
X1564648Y1211097D01*
X1564649Y1211096D01*
X1822206Y1002532D01*
X2147458Y791309D01*
X2147461Y791308D01*
X2350741Y687732D01*
X2401538Y639758D01*
X2418333Y571937D01*
X2395796Y505802D01*
X2341081Y462350D01*
X2271560Y455377D01*
X2260120Y458093D01*
X2249047Y461283D01*
X2235921Y465876D01*
X1948388Y584976D01*
X1935860Y591009D01*
X1771399Y681903D01*
X1663457Y741561D01*
X1651692Y748954D01*
X1397872Y929049D01*
X1387004Y937715D01*
X1154936Y1145104D01*
X1145103Y1154937D01*
X1094916Y1211096D01*
X937709Y1387011D01*
X929050Y1397871D01*
X748950Y1651697D01*
X741563Y1663453D01*
X591004Y1935868D01*
X584978Y1948382D01*
X465874Y2235923D01*
X461282Y2249048D01*
X458092Y2260121D01*
X458449Y2329990D01*
X496523Y2388574D01*
X560226Y2417274D01*
X629333Y2406978D01*
X681902Y2360954D01*
X687731Y2350743D01*
X791310Y2147457D01*
X1002531Y1822207D01*
X1211095Y1564650D01*
X1211096Y1564650D01*
X2705748Y3059302D01*
X2779588Y2957670D01*
G37*
%TD.AperFunction*%
%TA.AperFunction,Conductor*%
G36*
X98788902Y1564651D02*
G01*
X98997475Y1822215D01*
X98997476Y1822217D01*
X99208691Y2147459D01*
X99208692Y2147462D01*
X99312268Y2350742D01*
X99360242Y2401538D01*
X99428063Y2418334D01*
X99494198Y2395797D01*
X99537650Y2341082D01*
X99544623Y2271561D01*
X99541907Y2260121D01*
X99538717Y2249048D01*
X99534124Y2235922D01*
X99415024Y1948389D01*
X99408991Y1935861D01*
X99258442Y1663462D01*
X99251043Y1651688D01*
X99070954Y1397877D01*
X99062285Y1387005D01*
X98854896Y1154937D01*
X98845063Y1145104D01*
X98612995Y937715D01*
X98602123Y929046D01*
X98348312Y748957D01*
X98336538Y741558D01*
X98064139Y591009D01*
X98051611Y584976D01*
X97764078Y465876D01*
X97750952Y461283D01*
X97739879Y458093D01*
X97670010Y458450D01*
X97611426Y496524D01*
X97582726Y560227D01*
X97593022Y629334D01*
X97639046Y681903D01*
X97649258Y687732D01*
X97852538Y791308D01*
X97852541Y791309D01*
X98177783Y1002524D01*
X98177785Y1002525D01*
X98435349Y1211098D01*
X96940698Y2705749D01*
X97042330Y2779588D01*
X97220412Y2957670D01*
X97294251Y3059302D01*
X98788902Y1564651D01*
G37*
%TD.AperFunction*%
%TA.AperFunction,Conductor*%
G36*
X2329989Y49541551D02*
G01*
X2388573Y49503477D01*
X2417273Y49439774D01*
X2406977Y49370667D01*
X2360953Y49318098D01*
X2350742Y49312269D01*
X2147456Y49208690D01*
X1822206Y48997469D01*
X1564648Y48788905D01*
X1564648Y48788904D01*
X3059301Y47294252D01*
X2957670Y47220412D01*
X2779588Y47042330D01*
X2705748Y46940700D01*
X1211096Y48435352D01*
X1211095Y48435352D01*
X1002531Y48177794D01*
X791310Y47852544D01*
X687731Y47649258D01*
X639756Y47598462D01*
X571935Y47581667D01*
X505801Y47604204D01*
X462349Y47658919D01*
X455377Y47728440D01*
X458092Y47739880D01*
X461282Y47750953D01*
X465875Y47764079D01*
X465876Y47764081D01*
X584981Y48051626D01*
X591008Y48064139D01*
X741567Y48336557D01*
X748944Y48348296D01*
X929056Y48602139D01*
X937702Y48612982D01*
X1145113Y48845075D01*
X1154925Y48854887D01*
X1387018Y49062298D01*
X1397861Y49070944D01*
X1651704Y49251056D01*
X1663443Y49258433D01*
X1935874Y49408999D01*
X1948374Y49415019D01*
X2235928Y49534128D01*
X2249040Y49538716D01*
X2260121Y49541908D01*
X2329989Y49541551D01*
G37*
%TD.AperFunction*%
%TA.AperFunction,Conductor*%
G36*
X97739892Y49541903D02*
G01*
X97750962Y49538713D01*
X97764081Y49534123D01*
X98051617Y49415021D01*
X98064131Y49408995D01*
X98277088Y49291298D01*
X98336530Y49258445D01*
X98348304Y49251047D01*
X98408001Y49208690D01*
X98602137Y49070944D01*
X98613005Y49062276D01*
X98845062Y48854895D01*
X98854894Y48845063D01*
X99062275Y48613006D01*
X99070946Y48602134D01*
X99251046Y48348305D01*
X99258444Y48336531D01*
X99408990Y48064139D01*
X99415023Y48051611D01*
X99534122Y47764081D01*
X99538712Y47750963D01*
X99541902Y47739893D01*
X99541551Y47670025D01*
X99503481Y47611437D01*
X99439780Y47582733D01*
X99370672Y47593024D01*
X99318099Y47639045D01*
X99312266Y47649263D01*
X99208689Y47852544D01*
X98997468Y48177794D01*
X98788904Y48435351D01*
X98788903Y48435352D01*
X97294251Y46940700D01*
X97220412Y47042330D01*
X97042330Y47220412D01*
X96940698Y47294252D01*
X98435350Y48788904D01*
X98435350Y48788905D01*
X98177793Y48997469D01*
X97852543Y49208690D01*
X97649262Y49312267D01*
X97598466Y49360242D01*
X97581671Y49428063D01*
X97604208Y49494198D01*
X97658923Y49537649D01*
X97728444Y49544621D01*
X97739892Y49541903D01*
G37*
%TD.AperFunction*%
%TD*%
M02*
